<svg version="1.1" class="marks" width="405.021484375" height="437.70540983283246" viewBox="0 0 505.021484375 537.7054098328324" xmlns="http://www.w3.org/2000/svg" xmlns:xlink="http://www.w3.org/1999/xlink"><rect width="100%" height="100%" fill="#ffffff"/>
<g transform="translate(50.0, 52.00395922447291)"><rect x="0" y="0" width="15" height="150" fill="#1c1c1c" transform="scale(1.477986006219517) scale(0.7050532226562499)"/>
<text class="chart-title-line" x="0" y="0" text-anchor="start" font-family="sans-serif" font-size="24" font-weight="700" fill="#0f2740" letter-spacing="0" transform="scale(1.477986006219517) translate(20.57579833984375, 20.769128417968744)">Rising Trend in Vehicle
</text>
<text class="chart-title-line" x="0" y="0" text-anchor="start" font-family="sans-serif" font-size="24" font-weight="700" fill="#0f2740" letter-spacing="0" transform="scale(1.477986006219517) translate(20.57579833984375, 20.769128417968744) translate(0.0, 27.1640625)">Recoveries This Year
</text>
<text class="chart-subtitle-line" x="0" y="0" text-anchor="start" font-family="sans-serif" font-size="13" font-weight="400" fill="#445f7c" letter-spacing="0.25" transform="scale(1.477986006219517) translate(20.57579833984375, 20.769128417968744) translate(0.0, 54.1875)">"Monthly data reveals significant
</text>
<text class="chart-subtitle-line" x="0" y="0" text-anchor="start" font-family="sans-serif" font-size="13" font-weight="400" fill="#445f7c" letter-spacing="0.25" transform="scale(1.477986006219517) translate(20.57579833984375, 20.769128417968744) translate(0.0, 54.1875) translate(0.0, 14.7138671875)">increases in vehicle recoveries during
</text>
<text class="chart-subtitle-line" x="0" y="0" text-anchor="start" font-family="sans-serif" font-size="13" font-weight="400" fill="#445f7c" letter-spacing="0.25" transform="scale(1.477986006219517) translate(20.57579833984375, 20.769128417968744) translate(0.0, 54.1875) translate(0.0, 29.427734375)">early months of 2015."
</text>
<line transform="translate(-5.478515625, 168.53152873335952) translate(35.0,34.0) translate(0.5,200.5) translate(21,-200)" x2="0" y2="200" stroke="#ddd" stroke-width="1" opacity="1" class="mark-rule role-axis-grid" pointer-events="none" aria-hidden="true" fill="none" stroke-miterlimit="10" role="graphics-object" aria-roledescription="group mark container" version="1.1" width="415" height="272" viewBox="0 0 415 272"/>
<line transform="translate(-5.478515625, 168.53152873335952) translate(35.0,34.0) translate(0.5,200.5) translate(63,-200)" x2="0" y2="200" stroke="#ddd" stroke-width="1" opacity="1" class="mark-rule role-axis-grid" pointer-events="none" aria-hidden="true" fill="none" stroke-miterlimit="10" role="graphics-object" aria-roledescription="group mark container" version="1.1" width="415" height="272" viewBox="0 0 415 272"/>
<line transform="translate(-5.478515625, 168.53152873335952) translate(35.0,34.0) translate(0.5,200.5) translate(104,-200)" x2="0" y2="200" stroke="#ddd" stroke-width="1" opacity="1" class="mark-rule role-axis-grid" pointer-events="none" aria-hidden="true" fill="none" stroke-miterlimit="10" role="graphics-object" aria-roledescription="group mark container" version="1.1" width="415" height="272" viewBox="0 0 415 272"/>
<line transform="translate(-5.478515625, 168.53152873335952) translate(35.0,34.0) translate(0.5,200.5) translate(146,-200)" x2="0" y2="200" stroke="#ddd" stroke-width="1" opacity="1" class="mark-rule role-axis-grid" pointer-events="none" aria-hidden="true" fill="none" stroke-miterlimit="10" role="graphics-object" aria-roledescription="group mark container" version="1.1" width="415" height="272" viewBox="0 0 415 272"/>
<line transform="translate(-5.478515625, 168.53152873335952) translate(35.0,34.0) translate(0.5,200.5) translate(188,-200)" x2="0" y2="200" stroke="#ddd" stroke-width="1" opacity="1" class="mark-rule role-axis-grid" pointer-events="none" aria-hidden="true" fill="none" stroke-miterlimit="10" role="graphics-object" aria-roledescription="group mark container" version="1.1" width="415" height="272" viewBox="0 0 415 272"/>
<line transform="translate(-5.478515625, 168.53152873335952) translate(35.0,34.0) translate(0.5,200.5) translate(229,-200)" x2="0" y2="200" stroke="#ddd" stroke-width="1" opacity="1" class="mark-rule role-axis-grid" pointer-events="none" aria-hidden="true" fill="none" stroke-miterlimit="10" role="graphics-object" aria-roledescription="group mark container" version="1.1" width="415" height="272" viewBox="0 0 415 272"/>
<line transform="translate(-5.478515625, 168.53152873335952) translate(35.0,34.0) translate(0.5,200.5) translate(271,-200)" x2="0" y2="200" stroke="#ddd" stroke-width="1" opacity="1" class="mark-rule role-axis-grid" pointer-events="none" aria-hidden="true" fill="none" stroke-miterlimit="10" role="graphics-object" aria-roledescription="group mark container" version="1.1" width="415" height="272" viewBox="0 0 415 272"/>
<line transform="translate(-5.478515625, 168.53152873335952) translate(35.0,34.0) translate(0.5,200.5) translate(313,-200)" x2="0" y2="200" stroke="#ddd" stroke-width="1" opacity="1" class="mark-rule role-axis-grid" pointer-events="none" aria-hidden="true" fill="none" stroke-miterlimit="10" role="graphics-object" aria-roledescription="group mark container" version="1.1" width="415" height="272" viewBox="0 0 415 272"/>
<line transform="translate(-5.478515625, 168.53152873335952) translate(35.0,34.0) translate(0.5,200.5) translate(354,-200)" x2="0" y2="200" stroke="#ddd" stroke-width="1" opacity="1" class="mark-rule role-axis-grid" pointer-events="none" aria-hidden="true" fill="none" stroke-miterlimit="10" role="graphics-object" aria-roledescription="group mark container" version="1.1" width="415" height="272" viewBox="0 0 415 272"/>
<line transform="translate(-5.478515625, 168.53152873335952) translate(35.0,34.0) translate(0.5,0.5) translate(0,200)" x2="375" y2="0" stroke="#ddd" stroke-width="1" opacity="1" class="mark-rule role-axis-grid" pointer-events="none" aria-hidden="true" fill="none" stroke-miterlimit="10" role="graphics-object" aria-roledescription="group mark container" version="1.1" width="415" height="272" viewBox="0 0 415 272"/>
<line transform="translate(-5.478515625, 168.53152873335952) translate(35.0,34.0) translate(0.5,0.5) translate(0,160)" x2="375" y2="0" stroke="#ddd" stroke-width="1" opacity="1" class="mark-rule role-axis-grid" pointer-events="none" aria-hidden="true" fill="none" stroke-miterlimit="10" role="graphics-object" aria-roledescription="group mark container" version="1.1" width="415" height="272" viewBox="0 0 415 272"/>
<line transform="translate(-5.478515625, 168.53152873335952) translate(35.0,34.0) translate(0.5,0.5) translate(0,120)" x2="375" y2="0" stroke="#ddd" stroke-width="1" opacity="1" class="mark-rule role-axis-grid" pointer-events="none" aria-hidden="true" fill="none" stroke-miterlimit="10" role="graphics-object" aria-roledescription="group mark container" version="1.1" width="415" height="272" viewBox="0 0 415 272"/>
<line transform="translate(-5.478515625, 168.53152873335952) translate(35.0,34.0) translate(0.5,0.5) translate(0,80)" x2="375" y2="0" stroke="#ddd" stroke-width="1" opacity="1" class="mark-rule role-axis-grid" pointer-events="none" aria-hidden="true" fill="none" stroke-miterlimit="10" role="graphics-object" aria-roledescription="group mark container" version="1.1" width="415" height="272" viewBox="0 0 415 272"/>
<line transform="translate(-5.478515625, 168.53152873335952) translate(35.0,34.0) translate(0.5,0.5) translate(0,40)" x2="375" y2="0" stroke="#ddd" stroke-width="1" opacity="1" class="mark-rule role-axis-grid" pointer-events="none" aria-hidden="true" fill="none" stroke-miterlimit="10" role="graphics-object" aria-roledescription="group mark container" version="1.1" width="415" height="272" viewBox="0 0 415 272"/>
<line transform="translate(-5.478515625, 168.53152873335952) translate(35.0,34.0) translate(0.5,0.5) translate(0,0)" x2="375" y2="0" stroke="#ddd" stroke-width="1" opacity="1" class="mark-rule role-axis-grid" pointer-events="none" aria-hidden="true" fill="none" stroke-miterlimit="10" role="graphics-object" aria-roledescription="group mark container" version="1.1" width="415" height="272" viewBox="0 0 415 272"/>
<path transform="translate(-5.478515625, 168.53152873335952) translate(35.0,34.0) translate(0,-29) translate(0,0) translate(0,0) translate(6,6)" d="M-5,0L5,0" stroke="#1c1c1c" stroke-width="1.5" opacity="1" class="mark-symbol role-legend-symbol" pointer-events="none" role="graphics-object" aria-roledescription="group mark container" aria-label="Symbol legend for stroke color with 2 values: 2015, 2016" fill="none" stroke-miterlimit="10" version="1.1" width="415" height="272" viewBox="0 0 415 272"/>
<text text-anchor="start" transform="translate(-5.478515625, 168.53152873335952) translate(35.0,34.0) translate(0,-29) translate(0,0) translate(0,0) translate(16,9)" font-family="sans-serif" font-size="10px" fill="#000" opacity="1" class="mark-text role-legend-label" pointer-events="none" role="graphics-object" aria-roledescription="group mark container" aria-label="Symbol legend for stroke color with 2 values: 2015, 2016" stroke-miterlimit="10" version="1.1" width="415" height="272" viewBox="0 0 415 272">2015
</text>
<path transform="translate(-5.478515625, 168.53152873335952) translate(35.0,34.0) translate(0,-29) translate(0,0) translate(50,0) translate(6,6)" d="M-5,0L5,0" stroke="#053a7d" stroke-width="1.5" opacity="1" class="mark-symbol role-legend-symbol" pointer-events="none" role="graphics-object" aria-roledescription="group mark container" aria-label="Symbol legend for stroke color with 2 values: 2015, 2016" fill="none" stroke-miterlimit="10" version="1.1" width="415" height="272" viewBox="0 0 415 272"/>
<text text-anchor="start" transform="translate(-5.478515625, 168.53152873335952) translate(35.0,34.0) translate(0,-29) translate(0,0) translate(50,0) translate(16,9)" font-family="sans-serif" font-size="10px" fill="#000" opacity="1" class="mark-text role-legend-label" pointer-events="none" role="graphics-object" aria-roledescription="group mark container" aria-label="Symbol legend for stroke color with 2 values: 2015, 2016" stroke-miterlimit="10" version="1.1" width="415" height="272" viewBox="0 0 415 272">2016
</text>
<line transform="translate(-5.478515625, 168.53152873335952) translate(35.0,34.0) translate(0.5,200.5) translate(21,0)" x2="0" y2="5" stroke="#0f223b" stroke-width="1" opacity="1" fill="none" stroke-miterlimit="10" class="mark-rule role-axis-tick" role="graphics-symbol" aria-roledescription="axis" version="1.1" width="415" height="272" viewBox="0 0 415 272" aria-label="X-axis for a discrete scale with 9 values: Apr, Aug, Feb, Jan, Jul, ending with Sep" pointer-events="none"/>
<line transform="translate(-5.478515625, 168.53152873335952) translate(35.0,34.0) translate(0.5,200.5) translate(63,0)" x2="0" y2="5" stroke="#0f223b" stroke-width="1" opacity="1" fill="none" stroke-miterlimit="10" class="mark-rule role-axis-tick" role="graphics-symbol" aria-roledescription="axis" version="1.1" width="415" height="272" viewBox="0 0 415 272" aria-label="X-axis for a discrete scale with 9 values: Apr, Aug, Feb, Jan, Jul, ending with Sep" pointer-events="none"/>
<line transform="translate(-5.478515625, 168.53152873335952) translate(35.0,34.0) translate(0.5,200.5) translate(104,0)" x2="0" y2="5" stroke="#0f223b" stroke-width="1" opacity="1" fill="none" stroke-miterlimit="10" class="mark-rule role-axis-tick" role="graphics-symbol" aria-roledescription="axis" version="1.1" width="415" height="272" viewBox="0 0 415 272" aria-label="X-axis for a discrete scale with 9 values: Apr, Aug, Feb, Jan, Jul, ending with Sep" pointer-events="none"/>
<line transform="translate(-5.478515625, 168.53152873335952) translate(35.0,34.0) translate(0.5,200.5) translate(146,0)" x2="0" y2="5" stroke="#0f223b" stroke-width="1" opacity="1" fill="none" stroke-miterlimit="10" class="mark-rule role-axis-tick" role="graphics-symbol" aria-roledescription="axis" version="1.1" width="415" height="272" viewBox="0 0 415 272" aria-label="X-axis for a discrete scale with 9 values: Apr, Aug, Feb, Jan, Jul, ending with Sep" pointer-events="none"/>
<line transform="translate(-5.478515625, 168.53152873335952) translate(35.0,34.0) translate(0.5,200.5) translate(188,0)" x2="0" y2="5" stroke="#0f223b" stroke-width="1" opacity="1" fill="none" stroke-miterlimit="10" class="mark-rule role-axis-tick" role="graphics-symbol" aria-roledescription="axis" version="1.1" width="415" height="272" viewBox="0 0 415 272" aria-label="X-axis for a discrete scale with 9 values: Apr, Aug, Feb, Jan, Jul, ending with Sep" pointer-events="none"/>
<line transform="translate(-5.478515625, 168.53152873335952) translate(35.0,34.0) translate(0.5,200.5) translate(229,0)" x2="0" y2="5" stroke="#0f223b" stroke-width="1" opacity="1" fill="none" stroke-miterlimit="10" class="mark-rule role-axis-tick" role="graphics-symbol" aria-roledescription="axis" version="1.1" width="415" height="272" viewBox="0 0 415 272" aria-label="X-axis for a discrete scale with 9 values: Apr, Aug, Feb, Jan, Jul, ending with Sep" pointer-events="none"/>
<line transform="translate(-5.478515625, 168.53152873335952) translate(35.0,34.0) translate(0.5,200.5) translate(271,0)" x2="0" y2="5" stroke="#0f223b" stroke-width="1" opacity="1" fill="none" stroke-miterlimit="10" class="mark-rule role-axis-tick" role="graphics-symbol" aria-roledescription="axis" version="1.1" width="415" height="272" viewBox="0 0 415 272" aria-label="X-axis for a discrete scale with 9 values: Apr, Aug, Feb, Jan, Jul, ending with Sep" pointer-events="none"/>
<line transform="translate(-5.478515625, 168.53152873335952) translate(35.0,34.0) translate(0.5,200.5) translate(313,0)" x2="0" y2="5" stroke="#0f223b" stroke-width="1" opacity="1" fill="none" stroke-miterlimit="10" class="mark-rule role-axis-tick" role="graphics-symbol" aria-roledescription="axis" version="1.1" width="415" height="272" viewBox="0 0 415 272" aria-label="X-axis for a discrete scale with 9 values: Apr, Aug, Feb, Jan, Jul, ending with Sep" pointer-events="none"/>
<line transform="translate(-5.478515625, 168.53152873335952) translate(35.0,34.0) translate(0.5,200.5) translate(354,0)" x2="0" y2="5" stroke="#0f223b" stroke-width="1" opacity="1" fill="none" stroke-miterlimit="10" class="mark-rule role-axis-tick" role="graphics-symbol" aria-roledescription="axis" version="1.1" width="415" height="272" viewBox="0 0 415 272" aria-label="X-axis for a discrete scale with 9 values: Apr, Aug, Feb, Jan, Jul, ending with Sep" pointer-events="none"/>
<text text-anchor="end" transform="translate(-5.478515625, 168.53152873335952) translate(35.0,34.0) translate(0.5,200.5) translate(20.833333333333343,10) rotate(270) translate(0,4)" font-family="sans-serif" font-size="12px" fill="#000d2a" opacity="1" stroke-miterlimit="10" class="mark-text role-axis-label" role="graphics-symbol" aria-roledescription="axis" version="1.1" width="415" height="272" viewBox="0 0 415 272" aria-label="X-axis for a discrete scale with 9 values: Apr, Aug, Feb, Jan, Jul, ending with Sep" pointer-events="none" x="0.0" y="0.0">Apr
</text>
<text text-anchor="end" transform="translate(-5.478515625, 168.53152873335952) translate(35.0,34.0) translate(0.5,200.5) translate(62.50000000000001,10) rotate(270) translate(0,4)" font-family="sans-serif" font-size="12px" fill="#000d2a" opacity="1" stroke-miterlimit="10" class="mark-text role-axis-label" role="graphics-symbol" aria-roledescription="axis" version="1.1" width="415" height="272" viewBox="0 0 415 272" aria-label="X-axis for a discrete scale with 9 values: Apr, Aug, Feb, Jan, Jul, ending with Sep" pointer-events="none" x="0.0" y="0.0">Aug
</text>
<text text-anchor="end" transform="translate(-5.478515625, 168.53152873335952) translate(35.0,34.0) translate(0.5,200.5) translate(104.16666666666667,10) rotate(270) translate(0,4)" font-family="sans-serif" font-size="12px" fill="#000d2a" opacity="1" stroke-miterlimit="10" class="mark-text role-axis-label" role="graphics-symbol" aria-roledescription="axis" version="1.1" width="415" height="272" viewBox="0 0 415 272" aria-label="X-axis for a discrete scale with 9 values: Apr, Aug, Feb, Jan, Jul, ending with Sep" pointer-events="none" x="0.0" y="0.0">Feb
</text>
<text text-anchor="end" transform="translate(-5.478515625, 168.53152873335952) translate(35.0,34.0) translate(0.5,200.5) translate(145.83333333333334,10) rotate(270) translate(0,4)" font-family="sans-serif" font-size="12px" fill="#000d2a" opacity="1" stroke-miterlimit="10" class="mark-text role-axis-label" role="graphics-symbol" aria-roledescription="axis" version="1.1" width="415" height="272" viewBox="0 0 415 272" aria-label="X-axis for a discrete scale with 9 values: Apr, Aug, Feb, Jan, Jul, ending with Sep" pointer-events="none" x="0.0" y="0.0">Jan
</text>
<text text-anchor="end" transform="translate(-5.478515625, 168.53152873335952) translate(35.0,34.0) translate(0.5,200.5) translate(187.5,10) rotate(270) translate(0,4)" font-family="sans-serif" font-size="12px" fill="#000d2a" opacity="1" stroke-miterlimit="10" class="mark-text role-axis-label" role="graphics-symbol" aria-roledescription="axis" version="1.1" width="415" height="272" viewBox="0 0 415 272" aria-label="X-axis for a discrete scale with 9 values: Apr, Aug, Feb, Jan, Jul, ending with Sep" pointer-events="none" x="0.0" y="0.0">Jul
</text>
<text text-anchor="end" transform="translate(-5.478515625, 168.53152873335952) translate(35.0,34.0) translate(0.5,200.5) translate(229.16666666666666,10) rotate(270) translate(0,4)" font-family="sans-serif" font-size="12px" fill="#000d2a" opacity="1" stroke-miterlimit="10" class="mark-text role-axis-label" role="graphics-symbol" aria-roledescription="axis" version="1.1" width="415" height="272" viewBox="0 0 415 272" aria-label="X-axis for a discrete scale with 9 values: Apr, Aug, Feb, Jan, Jul, ending with Sep" pointer-events="none" x="0.0" y="0.0">Jun
</text>
<text text-anchor="end" transform="translate(-5.478515625, 168.53152873335952) translate(35.0,34.0) translate(0.5,200.5) translate(270.83333333333337,10) rotate(270) translate(0,4)" font-family="sans-serif" font-size="12px" fill="#000d2a" opacity="1" stroke-miterlimit="10" class="mark-text role-axis-label" role="graphics-symbol" aria-roledescription="axis" version="1.1" width="415" height="272" viewBox="0 0 415 272" aria-label="X-axis for a discrete scale with 9 values: Apr, Aug, Feb, Jan, Jul, ending with Sep" pointer-events="none" x="0.0" y="0.0">Mar
</text>
<text text-anchor="end" transform="translate(-5.478515625, 168.53152873335952) translate(35.0,34.0) translate(0.5,200.5) translate(312.5,10) rotate(270) translate(0,4)" font-family="sans-serif" font-size="12px" fill="#000d2a" opacity="1" stroke-miterlimit="10" class="mark-text role-axis-label" role="graphics-symbol" aria-roledescription="axis" version="1.1" width="415" height="272" viewBox="0 0 415 272" aria-label="X-axis for a discrete scale with 9 values: Apr, Aug, Feb, Jan, Jul, ending with Sep" pointer-events="none" x="0.0" y="0.0">May
</text>
<text text-anchor="end" transform="translate(-5.478515625, 168.53152873335952) translate(35.0,34.0) translate(0.5,200.5) translate(354.16666666666663,10) rotate(270) translate(0,4)" font-family="sans-serif" font-size="12px" fill="#000d2a" opacity="1" stroke-miterlimit="10" class="mark-text role-axis-label" role="graphics-symbol" aria-roledescription="axis" version="1.1" width="415" height="272" viewBox="0 0 415 272" aria-label="X-axis for a discrete scale with 9 values: Apr, Aug, Feb, Jan, Jul, ending with Sep" pointer-events="none" x="0.0" y="0.0">Sep
</text>
<line transform="translate(-5.478515625, 168.53152873335952) translate(35.0,34.0) translate(0.5,200.5) translate(0,0)" x2="375" y2="0" stroke="#0f223b" stroke-width="1" opacity="1" fill="none" stroke-miterlimit="10" class="mark-rule role-axis-domain" role="graphics-symbol" aria-roledescription="axis" version="1.1" width="415" height="272" viewBox="0 0 415 272" aria-label="X-axis for a discrete scale with 9 values: Apr, Aug, Feb, Jan, Jul, ending with Sep" pointer-events="none"/>
<line transform="translate(-5.478515625, 168.53152873335952) translate(35.0,34.0) translate(0.5,0.5) translate(0,200)" x2="-5" y2="0" stroke="#0f223b" stroke-width="1" opacity="1" fill="none" stroke-miterlimit="10" class="mark-rule role-axis-tick" role="graphics-symbol" aria-roledescription="axis" version="1.1" width="415" height="272" viewBox="0 0 415 272" aria-label="Y-axis for a linear scale with values from 0 to 500" pointer-events="none"/>
<line transform="translate(-5.478515625, 168.53152873335952) translate(35.0,34.0) translate(0.5,0.5) translate(0,160)" x2="-5" y2="0" stroke="#0f223b" stroke-width="1" opacity="1" fill="none" stroke-miterlimit="10" class="mark-rule role-axis-tick" role="graphics-symbol" aria-roledescription="axis" version="1.1" width="415" height="272" viewBox="0 0 415 272" aria-label="Y-axis for a linear scale with values from 0 to 500" pointer-events="none"/>
<line transform="translate(-5.478515625, 168.53152873335952) translate(35.0,34.0) translate(0.5,0.5) translate(0,120)" x2="-5" y2="0" stroke="#0f223b" stroke-width="1" opacity="1" fill="none" stroke-miterlimit="10" class="mark-rule role-axis-tick" role="graphics-symbol" aria-roledescription="axis" version="1.1" width="415" height="272" viewBox="0 0 415 272" aria-label="Y-axis for a linear scale with values from 0 to 500" pointer-events="none"/>
<line transform="translate(-5.478515625, 168.53152873335952) translate(35.0,34.0) translate(0.5,0.5) translate(0,80)" x2="-5" y2="0" stroke="#0f223b" stroke-width="1" opacity="1" fill="none" stroke-miterlimit="10" class="mark-rule role-axis-tick" role="graphics-symbol" aria-roledescription="axis" version="1.1" width="415" height="272" viewBox="0 0 415 272" aria-label="Y-axis for a linear scale with values from 0 to 500" pointer-events="none"/>
<line transform="translate(-5.478515625, 168.53152873335952) translate(35.0,34.0) translate(0.5,0.5) translate(0,40)" x2="-5" y2="0" stroke="#0f223b" stroke-width="1" opacity="1" fill="none" stroke-miterlimit="10" class="mark-rule role-axis-tick" role="graphics-symbol" aria-roledescription="axis" version="1.1" width="415" height="272" viewBox="0 0 415 272" aria-label="Y-axis for a linear scale with values from 0 to 500" pointer-events="none"/>
<line transform="translate(-5.478515625, 168.53152873335952) translate(35.0,34.0) translate(0.5,0.5) translate(0,0)" x2="-5" y2="0" stroke="#0f223b" stroke-width="1" opacity="1" fill="none" stroke-miterlimit="10" class="mark-rule role-axis-tick" role="graphics-symbol" aria-roledescription="axis" version="1.1" width="415" height="272" viewBox="0 0 415 272" aria-label="Y-axis for a linear scale with values from 0 to 500" pointer-events="none"/>
<text text-anchor="end" transform="translate(-5.478515625, 168.53152873335952) translate(35.0,34.0) translate(0.5,0.5) translate(-10,204)" font-family="sans-serif" font-size="12px" fill="#000d2a" opacity="1" stroke-miterlimit="10" class="mark-text role-axis-label" role="graphics-symbol" aria-roledescription="axis" version="1.1" width="415" height="272" viewBox="0 0 415 272" aria-label="Y-axis for a linear scale with values from 0 to 500" pointer-events="none">0
</text>
<text text-anchor="end" transform="translate(-5.478515625, 168.53152873335952) translate(35.0,34.0) translate(0.5,0.5) translate(-10,164)" font-family="sans-serif" font-size="12px" fill="#000d2a" opacity="1" stroke-miterlimit="10" class="mark-text role-axis-label" role="graphics-symbol" aria-roledescription="axis" version="1.1" width="415" height="272" viewBox="0 0 415 272" aria-label="Y-axis for a linear scale with values from 0 to 500" pointer-events="none">100
</text>
<text text-anchor="end" transform="translate(-5.478515625, 168.53152873335952) translate(35.0,34.0) translate(0.5,0.5) translate(-10,124)" font-family="sans-serif" font-size="12px" fill="#000d2a" opacity="1" stroke-miterlimit="10" class="mark-text role-axis-label" role="graphics-symbol" aria-roledescription="axis" version="1.1" width="415" height="272" viewBox="0 0 415 272" aria-label="Y-axis for a linear scale with values from 0 to 500" pointer-events="none">200
</text>
<text text-anchor="end" transform="translate(-5.478515625, 168.53152873335952) translate(35.0,34.0) translate(0.5,0.5) translate(-10,84)" font-family="sans-serif" font-size="12px" fill="#000d2a" opacity="1" stroke-miterlimit="10" class="mark-text role-axis-label" role="graphics-symbol" aria-roledescription="axis" version="1.1" width="415" height="272" viewBox="0 0 415 272" aria-label="Y-axis for a linear scale with values from 0 to 500" pointer-events="none">300
</text>
<text text-anchor="end" transform="translate(-5.478515625, 168.53152873335952) translate(35.0,34.0) translate(0.5,0.5) translate(-10,43.99999999999999)" font-family="sans-serif" font-size="12px" fill="#000d2a" opacity="1" stroke-miterlimit="10" class="mark-text role-axis-label" role="graphics-symbol" aria-roledescription="axis" version="1.1" width="415" height="272" viewBox="0 0 415 272" aria-label="Y-axis for a linear scale with values from 0 to 500" pointer-events="none">400
</text>
<text text-anchor="end" transform="translate(-5.478515625, 168.53152873335952) translate(35.0,34.0) translate(0.5,0.5) translate(-10,4)" font-family="sans-serif" font-size="12px" fill="#000d2a" opacity="1" stroke-miterlimit="10" class="mark-text role-axis-label" role="graphics-symbol" aria-roledescription="axis" version="1.1" width="415" height="272" viewBox="0 0 415 272" aria-label="Y-axis for a linear scale with values from 0 to 500" pointer-events="none">500
</text>
<line transform="translate(-5.478515625, 168.53152873335952) translate(35.0,34.0) translate(0.5,0.5) translate(0,200)" x2="0" y2="-200" stroke="#0f223b" stroke-width="1" opacity="1" fill="none" stroke-miterlimit="10" class="mark-rule role-axis-domain" role="graphics-symbol" aria-roledescription="axis" version="1.1" width="415" height="272" viewBox="0 0 415 272" aria-label="Y-axis for a linear scale with values from 0 to 500" pointer-events="none"/>
<path aria-label="xlabel: Apr; ylabel: 379; group: 2015" role="graphics-symbol" aria-roledescription="line mark" d="M20.833,48.4C34.722,46.6,48.611,44.8,62.5,44.8C76.389,44.8,90.278,86.4,104.167,86.4C118.056,86.4,131.944,86.133,145.833,85.6C159.722,85.067,173.611,41.2,187.5,41.2C201.389,41.2,215.278,58,229.167,58C243.056,58,256.944,48.2,270.833,44.4C284.722,40.6,298.611,35.2,312.5,35.2C326.389,35.2,340.278,56.6,354.167,78" stroke-width="2" opacity="1" fill="none" stroke-miterlimit="10" class="mark-line role-mark marks" version="1.1" width="415" height="272" viewBox="0 0 415 272" transform="translate(-5.478515625, 168.53152873335952) translate(35.0,34.0) translate(0,0)"/>
<path aria-label="xlabel: Apr; ylabel: 447; group: 2016" role="graphics-symbol" aria-roledescription="line mark" d="M20.833,21.2C34.722,41,48.611,60.8,62.5,60.8C76.389,60.8,90.278,24.4,104.167,24.4C118.056,24.4,131.944,41.533,145.833,47.2C159.722,52.867,173.611,54.2,187.5,58.4C201.389,62.6,215.278,72.4,229.167,72.4C243.056,72.4,256.944,15.6,270.833,15.6C284.722,15.6,298.611,30,312.5,40.4C326.389,50.8,340.278,64.4,354.167,78" stroke-width="2" opacity="1" fill="none" stroke-miterlimit="10" class="mark-line role-mark marks" version="1.1" width="415" height="272" viewBox="0 0 415 272" transform="translate(-5.478515625, 168.53152873335952) translate(35.0,34.0) translate(0,0)"/></g></svg>