<svg version="1.1" class="marks" width="375.5" height="370.7874817220265" viewBox="0 0 475.5 470.7874817220265" xmlns="http://www.w3.org/2000/svg" xmlns:xlink="http://www.w3.org/1999/xlink"><rect width="100%" height="100%" fill="#ffffff"/>
<g transform="translate(50.0, 75.38002505983201)"><text class="chart-title-line" x="0" y="0" text-anchor="start" font-family="sans-serif" font-size="24" font-weight="700" fill="#0f2740" letter-spacing="0" transform="scale(1.147119776715571)">Sharp Fiscal Cuts: A Trend
</text>
<text class="chart-title-line" x="0" y="0" text-anchor="start" font-family="sans-serif" font-size="24" font-weight="700" fill="#0f2740" letter-spacing="0" transform="scale(1.147119776715571) translate(0.0, 27.1640625)">Through the Years
</text>
<text class="chart-subtitle-line" x="0" y="0" text-anchor="start" font-family="sans-serif" font-size="13" font-weight="400" fill="#445f7c" letter-spacing="0.25" transform="scale(1.147119776715571) translate(0.0, 54.1875)">"Exploring the sustained financial reductions
</text>
<text class="chart-subtitle-line" x="0" y="0" text-anchor="start" font-family="sans-serif" font-size="13" font-weight="400" fill="#445f7c" letter-spacing="0.25" transform="scale(1.147119776715571) translate(0.0, 54.1875) translate(0.0, 14.7138671875)">impacting economic stability over the past decade."
</text>
<path transform="translate(-7.0, 92.38792541219446) translate(7.0,36.0) translate(0,-31) translate(0,0) translate(0,0) translate(6,6)" d="M-5,0L5,0" stroke="#202024" stroke-width="1.5" opacity="1" class="mark-symbol role-legend-symbol" pointer-events="none" role="graphics-object" aria-roledescription="group mark container" aria-label="Symbol legend for stroke color with 1 value: value" fill="none" stroke-miterlimit="10" version="1.1" width="389" height="257" viewBox="0 0 389 257"/>
<text text-anchor="start" transform="translate(-7.0, 92.38792541219446) translate(7.0,36.0) translate(0,-31) translate(0,0) translate(0,0) translate(16,9)" font-family="sans-serif" font-size="10px" fill="#000" opacity="1" class="mark-text role-legend-label" pointer-events="none" role="graphics-object" aria-roledescription="group mark container" aria-label="Symbol legend for stroke color with 1 value: value" stroke-miterlimit="10" version="1.1" width="389" height="257" viewBox="0 0 389 257">value
</text>
<text text-anchor="start" transform="translate(-7.0, 92.38792541219446) translate(7.0,36.0) translate(0.5,200.5) translate(0,14)" font-family="sans-serif" font-size="12px" fill="#000d2a" opacity="1" stroke-miterlimit="10" class="mark-text role-axis-label" role="graphics-symbol" aria-roledescription="axis" version="1.1" width="389" height="257" viewBox="0 0 389 257" aria-label="X-axis for a linear scale with values from 2,006 to 2,015" pointer-events="none" x="0.0" y="0.0">2,006
</text>
<text text-anchor="middle" transform="translate(-7.0, 92.38792541219446) translate(7.0,36.0) translate(0.5,200.5) translate(41.666666666666664,14)" font-family="sans-serif" font-size="12px" fill="#000d2a" opacity="0" stroke-miterlimit="10" class="mark-text role-axis-label" role="graphics-symbol" aria-roledescription="axis" version="1.1" width="389" height="257" viewBox="0 0 389 257" aria-label="X-axis for a linear scale with values from 2,006 to 2,015" pointer-events="none" x="0.0" y="0.0">2,007
</text>
<text text-anchor="middle" transform="translate(-7.0, 92.38792541219446) translate(7.0,36.0) translate(0.5,200.5) translate(83.33333333333333,14)" font-family="sans-serif" font-size="12px" fill="#000d2a" opacity="1" stroke-miterlimit="10" class="mark-text role-axis-label" role="graphics-symbol" aria-roledescription="axis" version="1.1" width="389" height="257" viewBox="0 0 389 257" aria-label="X-axis for a linear scale with values from 2,006 to 2,015" pointer-events="none" x="0.0" y="0.0">2,008
</text>
<text text-anchor="middle" transform="translate(-7.0, 92.38792541219446) translate(7.0,36.0) translate(0.5,200.5) translate(125,14)" font-family="sans-serif" font-size="12px" fill="#000d2a" opacity="0" stroke-miterlimit="10" class="mark-text role-axis-label" role="graphics-symbol" aria-roledescription="axis" version="1.1" width="389" height="257" viewBox="0 0 389 257" aria-label="X-axis for a linear scale with values from 2,006 to 2,015" pointer-events="none" x="0.0" y="0.0">2,009
</text>
<text text-anchor="middle" transform="translate(-7.0, 92.38792541219446) translate(7.0,36.0) translate(0.5,200.5) translate(166.66666666666666,14)" font-family="sans-serif" font-size="12px" fill="#000d2a" opacity="1" stroke-miterlimit="10" class="mark-text role-axis-label" role="graphics-symbol" aria-roledescription="axis" version="1.1" width="389" height="257" viewBox="0 0 389 257" aria-label="X-axis for a linear scale with values from 2,006 to 2,015" pointer-events="none" x="0.0" y="0.0">2,010
</text>
<text text-anchor="middle" transform="translate(-7.0, 92.38792541219446) translate(7.0,36.0) translate(0.5,200.5) translate(208.33333333333334,14)" font-family="sans-serif" font-size="12px" fill="#000d2a" opacity="0" stroke-miterlimit="10" class="mark-text role-axis-label" role="graphics-symbol" aria-roledescription="axis" version="1.1" width="389" height="257" viewBox="0 0 389 257" aria-label="X-axis for a linear scale with values from 2,006 to 2,015" pointer-events="none" x="0.0" y="0.0">2,011
</text>
<text text-anchor="middle" transform="translate(-7.0, 92.38792541219446) translate(7.0,36.0) translate(0.5,200.5) translate(250,14)" font-family="sans-serif" font-size="12px" fill="#000d2a" opacity="1" stroke-miterlimit="10" class="mark-text role-axis-label" role="graphics-symbol" aria-roledescription="axis" version="1.1" width="389" height="257" viewBox="0 0 389 257" aria-label="X-axis for a linear scale with values from 2,006 to 2,015" pointer-events="none" x="0.0" y="0.0">2,012
</text>
<text text-anchor="middle" transform="translate(-7.0, 92.38792541219446) translate(7.0,36.0) translate(0.5,200.5) translate(291.6666666666667,14)" font-family="sans-serif" font-size="12px" fill="#000d2a" opacity="0" stroke-miterlimit="10" class="mark-text role-axis-label" role="graphics-symbol" aria-roledescription="axis" version="1.1" width="389" height="257" viewBox="0 0 389 257" aria-label="X-axis for a linear scale with values from 2,006 to 2,015" pointer-events="none" x="0.0" y="0.0">2,013
</text>
<text text-anchor="middle" transform="translate(-7.0, 92.38792541219446) translate(7.0,36.0) translate(0.5,200.5) translate(333.3333333333333,14)" font-family="sans-serif" font-size="12px" fill="#000d2a" opacity="1" stroke-miterlimit="10" class="mark-text role-axis-label" role="graphics-symbol" aria-roledescription="axis" version="1.1" width="389" height="257" viewBox="0 0 389 257" aria-label="X-axis for a linear scale with values from 2,006 to 2,015" pointer-events="none" x="0.0" y="0.0">2,014
</text>
<text text-anchor="end" transform="translate(-7.0, 92.38792541219446) translate(7.0,36.0) translate(0.5,200.5) translate(375,14)" font-family="sans-serif" font-size="12px" fill="#000d2a" opacity="0" stroke-miterlimit="10" class="mark-text role-axis-label" role="graphics-symbol" aria-roledescription="axis" version="1.1" width="389" height="257" viewBox="0 0 389 257" aria-label="X-axis for a linear scale with values from 2,006 to 2,015" pointer-events="none" x="0.0" y="0.0">2,015
</text>
<line transform="translate(-7.0, 92.38792541219446) translate(7.0,36.0) translate(0.5,200.5) translate(0,0)" x2="375" y2="0" stroke="#0f223b" stroke-width="1" opacity="1" fill="none" stroke-miterlimit="10" class="mark-rule role-axis-domain" role="graphics-symbol" aria-roledescription="axis" version="1.1" width="389" height="257" viewBox="0 0 389 257" aria-label="X-axis for a linear scale with values from 2,006 to 2,015" pointer-events="none"/>
<path aria-label="xlabel: 2006; Diferena em R milhes: 0; group: value" role="graphics-symbol" aria-roledescription="line mark" d="M0,0C13.889,12.375,27.778,24.75,41.667,24.75C55.556,24.75,69.444,9.75,83.333,9.75C97.222,9.75,111.111,35.646,125,54.75C138.889,73.854,152.778,124.375,166.667,124.375C180.556,124.375,194.444,76.875,208.333,76.875C236.111,76.875,263.889,199.75,291.667,199.75C305.556,199.75,319.444,180.167,333.333,165.75C347.222,151.333,361.111,132.292,375,113.25" stroke="#202024" stroke-width="2" opacity="1" fill="none" stroke-miterlimit="10" class="mark-line role-mark marks" version="1.1" width="389" height="257" viewBox="0 0 389 257" transform="translate(-7.0, 92.38792541219446) translate(7.0,36.0) translate(0,0)"/></g></svg>