<svg version="1.1" class="marks" width="375.5" height="339.56701866452187" viewBox="0 0 475.5 439.56701866452187" xmlns="http://www.w3.org/2000/svg" xmlns:xlink="http://www.w3.org/1999/xlink"><rect width="100%" height="100%" fill="#ffffff"/>
<g transform="translate(50.0, 71.92534964434212)"><text class="chart-title-line" x="0" y="0" text-anchor="start" font-family="sans-serif" font-size="24" font-weight="700" fill="#0f2740" letter-spacing="0" transform="scale(0.9909762551115083)">Rising Concern: Food Insecurity
</text>
<text class="chart-title-line" x="0" y="0" text-anchor="start" font-family="sans-serif" font-size="24" font-weight="700" fill="#0f2740" letter-spacing="0" transform="scale(0.9909762551115083) translate(0.0, 27.1640625)"> Among Households
</text>
<text class="chart-subtitle-line" x="0" y="0" text-anchor="start" font-family="sans-serif" font-size="13" font-weight="400" fill="#445f7c" letter-spacing="0.25" transform="scale(0.9909762551115083) translate(0.0, 54.1875)">"Examining trends in household food access over time"
</text>
<path transform="translate(-7.0, 66.62213777017973) translate(7.0,34.0) translate(0,-29) translate(0,0) translate(0,0) translate(6,6)" d="M-5,0L5,0" stroke="#544258" stroke-width="1.5" opacity="1" class="mark-symbol role-legend-symbol" pointer-events="none" role="graphics-object" aria-roledescription="group mark container" aria-label="Symbol legend for stroke color with 1 value: Precent" fill="none" stroke-miterlimit="10" version="1.1" width="389" height="255" viewBox="0 0 389 255"/>
<text text-anchor="start" transform="translate(-7.0, 66.62213777017973) translate(7.0,34.0) translate(0,-29) translate(0,0) translate(0,0) translate(16,9)" font-family="sans-serif" font-size="10px" fill="#000" opacity="1" class="mark-text role-legend-label" pointer-events="none" role="graphics-object" aria-roledescription="group mark container" aria-label="Symbol legend for stroke color with 1 value: Precent" stroke-miterlimit="10" version="1.1" width="389" height="255" viewBox="0 0 389 255">Precent
</text>
<text text-anchor="start" transform="translate(-7.0, 66.62213777017973) translate(7.0,34.0) translate(0.5,200.5) translate(0,14)" font-family="sans-serif" font-size="12px" fill="#000d2a" opacity="1" stroke-miterlimit="10" class="mark-text role-axis-label" role="graphics-symbol" aria-roledescription="axis" version="1.1" width="389" height="255" viewBox="0 0 389 255" aria-label="X-axis for a linear scale with values from 1,998 to 2,010" pointer-events="none" x="0.0" y="0.0">1,998
</text>
<text text-anchor="middle" transform="translate(-7.0, 66.62213777017973) translate(7.0,34.0) translate(0.5,200.5) translate(31.25,14)" font-family="sans-serif" font-size="12px" fill="#000d2a" opacity="0" stroke-miterlimit="10" class="mark-text role-axis-label" role="graphics-symbol" aria-roledescription="axis" version="1.1" width="389" height="255" viewBox="0 0 389 255" aria-label="X-axis for a linear scale with values from 1,998 to 2,010" pointer-events="none" x="0.0" y="0.0">1,999
</text>
<text text-anchor="middle" transform="translate(-7.0, 66.62213777017973) translate(7.0,34.0) translate(0.5,200.5) translate(62.5,14)" font-family="sans-serif" font-size="12px" fill="#000d2a" opacity="1" stroke-miterlimit="10" class="mark-text role-axis-label" role="graphics-symbol" aria-roledescription="axis" version="1.1" width="389" height="255" viewBox="0 0 389 255" aria-label="X-axis for a linear scale with values from 1,998 to 2,010" pointer-events="none" x="0.0" y="0.0">2,000
</text>
<text text-anchor="middle" transform="translate(-7.0, 66.62213777017973) translate(7.0,34.0) translate(0.5,200.5) translate(93.75,14)" font-family="sans-serif" font-size="12px" fill="#000d2a" opacity="0" stroke-miterlimit="10" class="mark-text role-axis-label" role="graphics-symbol" aria-roledescription="axis" version="1.1" width="389" height="255" viewBox="0 0 389 255" aria-label="X-axis for a linear scale with values from 1,998 to 2,010" pointer-events="none" x="0.0" y="0.0">2,001
</text>
<text text-anchor="middle" transform="translate(-7.0, 66.62213777017973) translate(7.0,34.0) translate(0.5,200.5) translate(125,14)" font-family="sans-serif" font-size="12px" fill="#000d2a" opacity="1" stroke-miterlimit="10" class="mark-text role-axis-label" role="graphics-symbol" aria-roledescription="axis" version="1.1" width="389" height="255" viewBox="0 0 389 255" aria-label="X-axis for a linear scale with values from 1,998 to 2,010" pointer-events="none" x="0.0" y="0.0">2,002
</text>
<text text-anchor="middle" transform="translate(-7.0, 66.62213777017973) translate(7.0,34.0) translate(0.5,200.5) translate(156.25,14)" font-family="sans-serif" font-size="12px" fill="#000d2a" opacity="0" stroke-miterlimit="10" class="mark-text role-axis-label" role="graphics-symbol" aria-roledescription="axis" version="1.1" width="389" height="255" viewBox="0 0 389 255" aria-label="X-axis for a linear scale with values from 1,998 to 2,010" pointer-events="none" x="0.0" y="0.0">2,003
</text>
<text text-anchor="middle" transform="translate(-7.0, 66.62213777017973) translate(7.0,34.0) translate(0.5,200.5) translate(187.5,14)" font-family="sans-serif" font-size="12px" fill="#000d2a" opacity="1" stroke-miterlimit="10" class="mark-text role-axis-label" role="graphics-symbol" aria-roledescription="axis" version="1.1" width="389" height="255" viewBox="0 0 389 255" aria-label="X-axis for a linear scale with values from 1,998 to 2,010" pointer-events="none" x="0.0" y="0.0">2,004
</text>
<text text-anchor="middle" transform="translate(-7.0, 66.62213777017973) translate(7.0,34.0) translate(0.5,200.5) translate(218.75,14)" font-family="sans-serif" font-size="12px" fill="#000d2a" opacity="0" stroke-miterlimit="10" class="mark-text role-axis-label" role="graphics-symbol" aria-roledescription="axis" version="1.1" width="389" height="255" viewBox="0 0 389 255" aria-label="X-axis for a linear scale with values from 1,998 to 2,010" pointer-events="none" x="0.0" y="0.0">2,005
</text>
<text text-anchor="middle" transform="translate(-7.0, 66.62213777017973) translate(7.0,34.0) translate(0.5,200.5) translate(250,14)" font-family="sans-serif" font-size="12px" fill="#000d2a" opacity="1" stroke-miterlimit="10" class="mark-text role-axis-label" role="graphics-symbol" aria-roledescription="axis" version="1.1" width="389" height="255" viewBox="0 0 389 255" aria-label="X-axis for a linear scale with values from 1,998 to 2,010" pointer-events="none" x="0.0" y="0.0">2,006
</text>
<text text-anchor="middle" transform="translate(-7.0, 66.62213777017973) translate(7.0,34.0) translate(0.5,200.5) translate(281.25,14)" font-family="sans-serif" font-size="12px" fill="#000d2a" opacity="0" stroke-miterlimit="10" class="mark-text role-axis-label" role="graphics-symbol" aria-roledescription="axis" version="1.1" width="389" height="255" viewBox="0 0 389 255" aria-label="X-axis for a linear scale with values from 1,998 to 2,010" pointer-events="none" x="0.0" y="0.0">2,007
</text>
<text text-anchor="middle" transform="translate(-7.0, 66.62213777017973) translate(7.0,34.0) translate(0.5,200.5) translate(312.5,14)" font-family="sans-serif" font-size="12px" fill="#000d2a" opacity="1" stroke-miterlimit="10" class="mark-text role-axis-label" role="graphics-symbol" aria-roledescription="axis" version="1.1" width="389" height="255" viewBox="0 0 389 255" aria-label="X-axis for a linear scale with values from 1,998 to 2,010" pointer-events="none" x="0.0" y="0.0">2,008
</text>
<text text-anchor="middle" transform="translate(-7.0, 66.62213777017973) translate(7.0,34.0) translate(0.5,200.5) translate(343.75,14)" font-family="sans-serif" font-size="12px" fill="#000d2a" opacity="0" stroke-miterlimit="10" class="mark-text role-axis-label" role="graphics-symbol" aria-roledescription="axis" version="1.1" width="389" height="255" viewBox="0 0 389 255" aria-label="X-axis for a linear scale with values from 1,998 to 2,010" pointer-events="none" x="0.0" y="0.0">2,009
</text>
<text text-anchor="end" transform="translate(-7.0, 66.62213777017973) translate(7.0,34.0) translate(0.5,200.5) translate(375,14)" font-family="sans-serif" font-size="12px" fill="#000d2a" opacity="1" stroke-miterlimit="10" class="mark-text role-axis-label" role="graphics-symbol" aria-roledescription="axis" version="1.1" width="389" height="255" viewBox="0 0 389 255" aria-label="X-axis for a linear scale with values from 1,998 to 2,010" pointer-events="none" x="0.0" y="0.0">2,010
</text>
<line transform="translate(-7.0, 66.62213777017973) translate(7.0,34.0) translate(0.5,200.5) translate(0,0)" x2="375" y2="0" stroke="#0f223b" stroke-width="1" opacity="1" fill="none" stroke-miterlimit="10" class="mark-rule role-axis-domain" role="graphics-symbol" aria-roledescription="axis" version="1.1" width="389" height="255" viewBox="0 0 389 255" aria-label="X-axis for a linear scale with values from 1,998 to 2,010" pointer-events="none"/>
<path aria-label="xlabel: 1998; ylabel: 11.8; group: Precent" role="graphics-symbol" aria-roledescription="line mark" d="M0,52.5C10.417,63.125,20.833,73.75,31.25,73.75C41.667,73.75,52.083,70,62.5,68.75C72.917,67.5,83.333,67.5,93.75,66.25C104.167,65,114.583,62.083,125,61.25C135.417,60.417,145.833,60.833,156.25,60C166.667,59.167,177.083,51.25,187.5,51.25C197.917,51.25,208.333,61.667,218.75,62.5C229.167,63.333,239.583,63.75,250,63.75C260.417,63.75,270.833,62.917,281.25,61.25C291.667,59.583,302.083,18.333,312.5,17.5C322.917,16.667,333.333,16.25,343.75,16.25C354.167,16.25,364.583,17.5,375,18.75" stroke="#544258" stroke-width="2" opacity="1" fill="none" stroke-miterlimit="10" class="mark-line role-mark marks" version="1.1" width="389" height="255" viewBox="0 0 389 255" transform="translate(-7.0, 66.62213777017973) translate(7.0,34.0) translate(0,0)"/></g></svg>