<svg version="1.1" class="marks" width="405.021484375" height="391.56746967678197" viewBox="0 0 505.021484375 491.56746967678197" xmlns="http://www.w3.org/2000/svg" xmlns:xlink="http://www.w3.org/1999/xlink"><rect width="100%" height="100%" fill="#ffffff"/>
<g transform="translate(50.0, 51.24376329283478)"><rect x="0" y="0" width="15" height="150" fill="#202024" transform="scale(1.258838000828089) scale(0.5137729492187499)"/>
<text class="chart-title-line" x="0" y="0" text-anchor="start" font-family="sans-serif" font-size="24" font-weight="700" fill="#0f2740" letter-spacing="0" transform="scale(1.258838000828089) translate(17.706594238281248, 21.136975097656247)">Shifting Patterns in National
</text>
<text class="chart-title-line" x="0" y="0" text-anchor="start" font-family="sans-serif" font-size="24" font-weight="700" fill="#0f2740" letter-spacing="0" transform="scale(1.258838000828089) translate(17.706594238281248, 21.136975097656247) translate(0.0, 27.1640625)">Balance of Payments
</text>
<text class="chart-subtitle-line" x="0" y="0" text-anchor="start" font-family="sans-serif" font-size="13" font-weight="400" fill="#445f7c" letter-spacing="0.25" transform="scale(1.258838000828089) translate(17.706594238281248, 21.136975097656247) translate(0.0, 54.1875)">"Analyzing years of fiscal deficits in payments"
</text>
<line transform="translate(-5.478515625, 108.47605013394715) translate(35.0,34.0) translate(0.5,200.5) translate(14,-200)" x2="0" y2="200" stroke="#ddd" stroke-width="1" opacity="1" class="mark-rule role-axis-grid" pointer-events="none" aria-hidden="true" fill="none" stroke-miterlimit="10" role="graphics-object" aria-roledescription="group mark container" version="1.1" width="415" height="283" viewBox="0 0 415 283"/>
<line transform="translate(-5.478515625, 108.47605013394715) translate(35.0,34.0) translate(0.5,200.5) translate(43,-200)" x2="0" y2="200" stroke="#ddd" stroke-width="1" opacity="1" class="mark-rule role-axis-grid" pointer-events="none" aria-hidden="true" fill="none" stroke-miterlimit="10" role="graphics-object" aria-roledescription="group mark container" version="1.1" width="415" height="283" viewBox="0 0 415 283"/>
<line transform="translate(-5.478515625, 108.47605013394715) translate(35.0,34.0) translate(0.5,200.5) translate(72,-200)" x2="0" y2="200" stroke="#ddd" stroke-width="1" opacity="1" class="mark-rule role-axis-grid" pointer-events="none" aria-hidden="true" fill="none" stroke-miterlimit="10" role="graphics-object" aria-roledescription="group mark container" version="1.1" width="415" height="283" viewBox="0 0 415 283"/>
<line transform="translate(-5.478515625, 108.47605013394715) translate(35.0,34.0) translate(0.5,200.5) translate(101,-200)" x2="0" y2="200" stroke="#ddd" stroke-width="1" opacity="1" class="mark-rule role-axis-grid" pointer-events="none" aria-hidden="true" fill="none" stroke-miterlimit="10" role="graphics-object" aria-roledescription="group mark container" version="1.1" width="415" height="283" viewBox="0 0 415 283"/>
<line transform="translate(-5.478515625, 108.47605013394715) translate(35.0,34.0) translate(0.5,200.5) translate(130,-200)" x2="0" y2="200" stroke="#ddd" stroke-width="1" opacity="1" class="mark-rule role-axis-grid" pointer-events="none" aria-hidden="true" fill="none" stroke-miterlimit="10" role="graphics-object" aria-roledescription="group mark container" version="1.1" width="415" height="283" viewBox="0 0 415 283"/>
<line transform="translate(-5.478515625, 108.47605013394715) translate(35.0,34.0) translate(0.5,200.5) translate(159,-200)" x2="0" y2="200" stroke="#ddd" stroke-width="1" opacity="1" class="mark-rule role-axis-grid" pointer-events="none" aria-hidden="true" fill="none" stroke-miterlimit="10" role="graphics-object" aria-roledescription="group mark container" version="1.1" width="415" height="283" viewBox="0 0 415 283"/>
<line transform="translate(-5.478515625, 108.47605013394715) translate(35.0,34.0) translate(0.5,200.5) translate(188,-200)" x2="0" y2="200" stroke="#ddd" stroke-width="1" opacity="1" class="mark-rule role-axis-grid" pointer-events="none" aria-hidden="true" fill="none" stroke-miterlimit="10" role="graphics-object" aria-roledescription="group mark container" version="1.1" width="415" height="283" viewBox="0 0 415 283"/>
<line transform="translate(-5.478515625, 108.47605013394715) translate(35.0,34.0) translate(0.5,200.5) translate(216,-200)" x2="0" y2="200" stroke="#ddd" stroke-width="1" opacity="1" class="mark-rule role-axis-grid" pointer-events="none" aria-hidden="true" fill="none" stroke-miterlimit="10" role="graphics-object" aria-roledescription="group mark container" version="1.1" width="415" height="283" viewBox="0 0 415 283"/>
<line transform="translate(-5.478515625, 108.47605013394715) translate(35.0,34.0) translate(0.5,200.5) translate(245,-200)" x2="0" y2="200" stroke="#ddd" stroke-width="1" opacity="1" class="mark-rule role-axis-grid" pointer-events="none" aria-hidden="true" fill="none" stroke-miterlimit="10" role="graphics-object" aria-roledescription="group mark container" version="1.1" width="415" height="283" viewBox="0 0 415 283"/>
<line transform="translate(-5.478515625, 108.47605013394715) translate(35.0,34.0) translate(0.5,200.5) translate(274,-200)" x2="0" y2="200" stroke="#ddd" stroke-width="1" opacity="1" class="mark-rule role-axis-grid" pointer-events="none" aria-hidden="true" fill="none" stroke-miterlimit="10" role="graphics-object" aria-roledescription="group mark container" version="1.1" width="415" height="283" viewBox="0 0 415 283"/>
<line transform="translate(-5.478515625, 108.47605013394715) translate(35.0,34.0) translate(0.5,200.5) translate(303,-200)" x2="0" y2="200" stroke="#ddd" stroke-width="1" opacity="1" class="mark-rule role-axis-grid" pointer-events="none" aria-hidden="true" fill="none" stroke-miterlimit="10" role="graphics-object" aria-roledescription="group mark container" version="1.1" width="415" height="283" viewBox="0 0 415 283"/>
<line transform="translate(-5.478515625, 108.47605013394715) translate(35.0,34.0) translate(0.5,200.5) translate(332,-200)" x2="0" y2="200" stroke="#ddd" stroke-width="1" opacity="1" class="mark-rule role-axis-grid" pointer-events="none" aria-hidden="true" fill="none" stroke-miterlimit="10" role="graphics-object" aria-roledescription="group mark container" version="1.1" width="415" height="283" viewBox="0 0 415 283"/>
<line transform="translate(-5.478515625, 108.47605013394715) translate(35.0,34.0) translate(0.5,200.5) translate(361,-200)" x2="0" y2="200" stroke="#ddd" stroke-width="1" opacity="1" class="mark-rule role-axis-grid" pointer-events="none" aria-hidden="true" fill="none" stroke-miterlimit="10" role="graphics-object" aria-roledescription="group mark container" version="1.1" width="415" height="283" viewBox="0 0 415 283"/>
<line transform="translate(-5.478515625, 108.47605013394715) translate(35.0,34.0) translate(0.5,0.5) translate(0,200)" x2="375" y2="0" stroke="#ddd" stroke-width="1" opacity="1" class="mark-rule role-axis-grid" pointer-events="none" aria-hidden="true" fill="none" stroke-miterlimit="10" role="graphics-object" aria-roledescription="group mark container" version="1.1" width="415" height="283" viewBox="0 0 415 283"/>
<line transform="translate(-5.478515625, 108.47605013394715) translate(35.0,34.0) translate(0.5,0.5) translate(0,171)" x2="375" y2="0" stroke="#ddd" stroke-width="1" opacity="1" class="mark-rule role-axis-grid" pointer-events="none" aria-hidden="true" fill="none" stroke-miterlimit="10" role="graphics-object" aria-roledescription="group mark container" version="1.1" width="415" height="283" viewBox="0 0 415 283"/>
<line transform="translate(-5.478515625, 108.47605013394715) translate(35.0,34.0) translate(0.5,0.5) translate(0,143)" x2="375" y2="0" stroke="#ddd" stroke-width="1" opacity="1" class="mark-rule role-axis-grid" pointer-events="none" aria-hidden="true" fill="none" stroke-miterlimit="10" role="graphics-object" aria-roledescription="group mark container" version="1.1" width="415" height="283" viewBox="0 0 415 283"/>
<line transform="translate(-5.478515625, 108.47605013394715) translate(35.0,34.0) translate(0.5,0.5) translate(0,114)" x2="375" y2="0" stroke="#ddd" stroke-width="1" opacity="1" class="mark-rule role-axis-grid" pointer-events="none" aria-hidden="true" fill="none" stroke-miterlimit="10" role="graphics-object" aria-roledescription="group mark container" version="1.1" width="415" height="283" viewBox="0 0 415 283"/>
<line transform="translate(-5.478515625, 108.47605013394715) translate(35.0,34.0) translate(0.5,0.5) translate(0,86)" x2="375" y2="0" stroke="#ddd" stroke-width="1" opacity="1" class="mark-rule role-axis-grid" pointer-events="none" aria-hidden="true" fill="none" stroke-miterlimit="10" role="graphics-object" aria-roledescription="group mark container" version="1.1" width="415" height="283" viewBox="0 0 415 283"/>
<line transform="translate(-5.478515625, 108.47605013394715) translate(35.0,34.0) translate(0.5,0.5) translate(0,57)" x2="375" y2="0" stroke="#ddd" stroke-width="1" opacity="1" class="mark-rule role-axis-grid" pointer-events="none" aria-hidden="true" fill="none" stroke-miterlimit="10" role="graphics-object" aria-roledescription="group mark container" version="1.1" width="415" height="283" viewBox="0 0 415 283"/>
<line transform="translate(-5.478515625, 108.47605013394715) translate(35.0,34.0) translate(0.5,0.5) translate(0,29)" x2="375" y2="0" stroke="#ddd" stroke-width="1" opacity="1" class="mark-rule role-axis-grid" pointer-events="none" aria-hidden="true" fill="none" stroke-miterlimit="10" role="graphics-object" aria-roledescription="group mark container" version="1.1" width="415" height="283" viewBox="0 0 415 283"/>
<line transform="translate(-5.478515625, 108.47605013394715) translate(35.0,34.0) translate(0.5,0.5) translate(0,0)" x2="375" y2="0" stroke="#ddd" stroke-width="1" opacity="1" class="mark-rule role-axis-grid" pointer-events="none" aria-hidden="true" fill="none" stroke-miterlimit="10" role="graphics-object" aria-roledescription="group mark container" version="1.1" width="415" height="283" viewBox="0 0 415 283"/>
<path transform="translate(-5.478515625, 108.47605013394715) translate(35.0,34.0) translate(0,-29) translate(0,0) translate(0,0) translate(6,6)" d="M-5,0L5,0" stroke="#202024" stroke-width="1.5" opacity="1" class="mark-symbol role-legend-symbol" pointer-events="none" role="graphics-object" aria-roledescription="group mark container" aria-label="Symbol legend for stroke color with 1 value: Balance of payments" fill="none" stroke-miterlimit="10" version="1.1" width="415" height="283" viewBox="0 0 415 283"/>
<text text-anchor="start" transform="translate(-5.478515625, 108.47605013394715) translate(35.0,34.0) translate(0,-29) translate(0,0) translate(0,0) translate(16,9)" font-family="sans-serif" font-size="10px" fill="#000" opacity="1" class="mark-text role-legend-label" pointer-events="none" role="graphics-object" aria-roledescription="group mark container" aria-label="Symbol legend for stroke color with 1 value: Balance of payments" stroke-miterlimit="10" version="1.1" width="415" height="283" viewBox="0 0 415 283">Balance of payments
</text>
<line transform="translate(-5.478515625, 108.47605013394715) translate(35.0,34.0) translate(0.5,200.5) translate(14,0)" x2="0" y2="5" stroke="#0f223b" stroke-width="1" opacity="1" fill="none" stroke-miterlimit="10" class="mark-rule role-axis-tick" role="graphics-symbol" aria-roledescription="axis" version="1.1" width="415" height="283" viewBox="0 0 415 283" aria-label="X-axis for a discrete scale with 13 values: FY10, FY11, FY12, FY13, FY14, ending with FY22" pointer-events="none"/>
<line transform="translate(-5.478515625, 108.47605013394715) translate(35.0,34.0) translate(0.5,200.5) translate(43,0)" x2="0" y2="5" stroke="#0f223b" stroke-width="1" opacity="1" fill="none" stroke-miterlimit="10" class="mark-rule role-axis-tick" role="graphics-symbol" aria-roledescription="axis" version="1.1" width="415" height="283" viewBox="0 0 415 283" aria-label="X-axis for a discrete scale with 13 values: FY10, FY11, FY12, FY13, FY14, ending with FY22" pointer-events="none"/>
<line transform="translate(-5.478515625, 108.47605013394715) translate(35.0,34.0) translate(0.5,200.5) translate(72,0)" x2="0" y2="5" stroke="#0f223b" stroke-width="1" opacity="1" fill="none" stroke-miterlimit="10" class="mark-rule role-axis-tick" role="graphics-symbol" aria-roledescription="axis" version="1.1" width="415" height="283" viewBox="0 0 415 283" aria-label="X-axis for a discrete scale with 13 values: FY10, FY11, FY12, FY13, FY14, ending with FY22" pointer-events="none"/>
<line transform="translate(-5.478515625, 108.47605013394715) translate(35.0,34.0) translate(0.5,200.5) translate(101,0)" x2="0" y2="5" stroke="#0f223b" stroke-width="1" opacity="1" fill="none" stroke-miterlimit="10" class="mark-rule role-axis-tick" role="graphics-symbol" aria-roledescription="axis" version="1.1" width="415" height="283" viewBox="0 0 415 283" aria-label="X-axis for a discrete scale with 13 values: FY10, FY11, FY12, FY13, FY14, ending with FY22" pointer-events="none"/>
<line transform="translate(-5.478515625, 108.47605013394715) translate(35.0,34.0) translate(0.5,200.5) translate(130,0)" x2="0" y2="5" stroke="#0f223b" stroke-width="1" opacity="1" fill="none" stroke-miterlimit="10" class="mark-rule role-axis-tick" role="graphics-symbol" aria-roledescription="axis" version="1.1" width="415" height="283" viewBox="0 0 415 283" aria-label="X-axis for a discrete scale with 13 values: FY10, FY11, FY12, FY13, FY14, ending with FY22" pointer-events="none"/>
<line transform="translate(-5.478515625, 108.47605013394715) translate(35.0,34.0) translate(0.5,200.5) translate(159,0)" x2="0" y2="5" stroke="#0f223b" stroke-width="1" opacity="1" fill="none" stroke-miterlimit="10" class="mark-rule role-axis-tick" role="graphics-symbol" aria-roledescription="axis" version="1.1" width="415" height="283" viewBox="0 0 415 283" aria-label="X-axis for a discrete scale with 13 values: FY10, FY11, FY12, FY13, FY14, ending with FY22" pointer-events="none"/>
<line transform="translate(-5.478515625, 108.47605013394715) translate(35.0,34.0) translate(0.5,200.5) translate(188,0)" x2="0" y2="5" stroke="#0f223b" stroke-width="1" opacity="1" fill="none" stroke-miterlimit="10" class="mark-rule role-axis-tick" role="graphics-symbol" aria-roledescription="axis" version="1.1" width="415" height="283" viewBox="0 0 415 283" aria-label="X-axis for a discrete scale with 13 values: FY10, FY11, FY12, FY13, FY14, ending with FY22" pointer-events="none"/>
<line transform="translate(-5.478515625, 108.47605013394715) translate(35.0,34.0) translate(0.5,200.5) translate(216,0)" x2="0" y2="5" stroke="#0f223b" stroke-width="1" opacity="1" fill="none" stroke-miterlimit="10" class="mark-rule role-axis-tick" role="graphics-symbol" aria-roledescription="axis" version="1.1" width="415" height="283" viewBox="0 0 415 283" aria-label="X-axis for a discrete scale with 13 values: FY10, FY11, FY12, FY13, FY14, ending with FY22" pointer-events="none"/>
<line transform="translate(-5.478515625, 108.47605013394715) translate(35.0,34.0) translate(0.5,200.5) translate(245,0)" x2="0" y2="5" stroke="#0f223b" stroke-width="1" opacity="1" fill="none" stroke-miterlimit="10" class="mark-rule role-axis-tick" role="graphics-symbol" aria-roledescription="axis" version="1.1" width="415" height="283" viewBox="0 0 415 283" aria-label="X-axis for a discrete scale with 13 values: FY10, FY11, FY12, FY13, FY14, ending with FY22" pointer-events="none"/>
<line transform="translate(-5.478515625, 108.47605013394715) translate(35.0,34.0) translate(0.5,200.5) translate(274,0)" x2="0" y2="5" stroke="#0f223b" stroke-width="1" opacity="1" fill="none" stroke-miterlimit="10" class="mark-rule role-axis-tick" role="graphics-symbol" aria-roledescription="axis" version="1.1" width="415" height="283" viewBox="0 0 415 283" aria-label="X-axis for a discrete scale with 13 values: FY10, FY11, FY12, FY13, FY14, ending with FY22" pointer-events="none"/>
<line transform="translate(-5.478515625, 108.47605013394715) translate(35.0,34.0) translate(0.5,200.5) translate(303,0)" x2="0" y2="5" stroke="#0f223b" stroke-width="1" opacity="1" fill="none" stroke-miterlimit="10" class="mark-rule role-axis-tick" role="graphics-symbol" aria-roledescription="axis" version="1.1" width="415" height="283" viewBox="0 0 415 283" aria-label="X-axis for a discrete scale with 13 values: FY10, FY11, FY12, FY13, FY14, ending with FY22" pointer-events="none"/>
<line transform="translate(-5.478515625, 108.47605013394715) translate(35.0,34.0) translate(0.5,200.5) translate(332,0)" x2="0" y2="5" stroke="#0f223b" stroke-width="1" opacity="1" fill="none" stroke-miterlimit="10" class="mark-rule role-axis-tick" role="graphics-symbol" aria-roledescription="axis" version="1.1" width="415" height="283" viewBox="0 0 415 283" aria-label="X-axis for a discrete scale with 13 values: FY10, FY11, FY12, FY13, FY14, ending with FY22" pointer-events="none"/>
<line transform="translate(-5.478515625, 108.47605013394715) translate(35.0,34.0) translate(0.5,200.5) translate(361,0)" x2="0" y2="5" stroke="#0f223b" stroke-width="1" opacity="1" fill="none" stroke-miterlimit="10" class="mark-rule role-axis-tick" role="graphics-symbol" aria-roledescription="axis" version="1.1" width="415" height="283" viewBox="0 0 415 283" aria-label="X-axis for a discrete scale with 13 values: FY10, FY11, FY12, FY13, FY14, ending with FY22" pointer-events="none"/>
<text text-anchor="end" transform="translate(-5.478515625, 108.47605013394715) translate(35.0,34.0) translate(0.5,200.5) translate(14.423076923076906,10) rotate(270) translate(0,4)" font-family="sans-serif" font-size="12px" fill="#000d2a" opacity="1" stroke-miterlimit="10" class="mark-text role-axis-label" role="graphics-symbol" aria-roledescription="axis" version="1.1" width="415" height="283" viewBox="0 0 415 283" aria-label="X-axis for a discrete scale with 13 values: FY10, FY11, FY12, FY13, FY14, ending with FY22" pointer-events="none" x="0.0" y="0.0">FY10
</text>
<text text-anchor="end" transform="translate(-5.478515625, 108.47605013394715) translate(35.0,34.0) translate(0.5,200.5) translate(43.26923076923075,10) rotate(270) translate(0,4)" font-family="sans-serif" font-size="12px" fill="#000d2a" opacity="1" stroke-miterlimit="10" class="mark-text role-axis-label" role="graphics-symbol" aria-roledescription="axis" version="1.1" width="415" height="283" viewBox="0 0 415 283" aria-label="X-axis for a discrete scale with 13 values: FY10, FY11, FY12, FY13, FY14, ending with FY22" pointer-events="none" x="0.0" y="0.0">FY11
</text>
<text text-anchor="end" transform="translate(-5.478515625, 108.47605013394715) translate(35.0,34.0) translate(0.5,200.5) translate(72.1153846153846,10) rotate(270) translate(0,4)" font-family="sans-serif" font-size="12px" fill="#000d2a" opacity="1" stroke-miterlimit="10" class="mark-text role-axis-label" role="graphics-symbol" aria-roledescription="axis" version="1.1" width="415" height="283" viewBox="0 0 415 283" aria-label="X-axis for a discrete scale with 13 values: FY10, FY11, FY12, FY13, FY14, ending with FY22" pointer-events="none" x="0.0" y="0.0">FY12
</text>
<text text-anchor="end" transform="translate(-5.478515625, 108.47605013394715) translate(35.0,34.0) translate(0.5,200.5) translate(100.96153846153845,10) rotate(270) translate(0,4)" font-family="sans-serif" font-size="12px" fill="#000d2a" opacity="1" stroke-miterlimit="10" class="mark-text role-axis-label" role="graphics-symbol" aria-roledescription="axis" version="1.1" width="415" height="283" viewBox="0 0 415 283" aria-label="X-axis for a discrete scale with 13 values: FY10, FY11, FY12, FY13, FY14, ending with FY22" pointer-events="none" x="0.0" y="0.0">FY13
</text>
<text text-anchor="end" transform="translate(-5.478515625, 108.47605013394715) translate(35.0,34.0) translate(0.5,200.5) translate(129.8076923076923,10) rotate(270) translate(0,4)" font-family="sans-serif" font-size="12px" fill="#000d2a" opacity="1" stroke-miterlimit="10" class="mark-text role-axis-label" role="graphics-symbol" aria-roledescription="axis" version="1.1" width="415" height="283" viewBox="0 0 415 283" aria-label="X-axis for a discrete scale with 13 values: FY10, FY11, FY12, FY13, FY14, ending with FY22" pointer-events="none" x="0.0" y="0.0">FY14
</text>
<text text-anchor="end" transform="translate(-5.478515625, 108.47605013394715) translate(35.0,34.0) translate(0.5,200.5) translate(158.65384615384613,10) rotate(270) translate(0,4)" font-family="sans-serif" font-size="12px" fill="#000d2a" opacity="1" stroke-miterlimit="10" class="mark-text role-axis-label" role="graphics-symbol" aria-roledescription="axis" version="1.1" width="415" height="283" viewBox="0 0 415 283" aria-label="X-axis for a discrete scale with 13 values: FY10, FY11, FY12, FY13, FY14, ending with FY22" pointer-events="none" x="0.0" y="0.0">FY15
</text>
<text text-anchor="end" transform="translate(-5.478515625, 108.47605013394715) translate(35.0,34.0) translate(0.5,200.5) translate(187.5,10) rotate(270) translate(0,4)" font-family="sans-serif" font-size="12px" fill="#000d2a" opacity="1" stroke-miterlimit="10" class="mark-text role-axis-label" role="graphics-symbol" aria-roledescription="axis" version="1.1" width="415" height="283" viewBox="0 0 415 283" aria-label="X-axis for a discrete scale with 13 values: FY10, FY11, FY12, FY13, FY14, ending with FY22" pointer-events="none" x="0.0" y="0.0">FY16
</text>
<text text-anchor="end" transform="translate(-5.478515625, 108.47605013394715) translate(35.0,34.0) translate(0.5,200.5) translate(216.34615384615384,10) rotate(270) translate(0,4)" font-family="sans-serif" font-size="12px" fill="#000d2a" opacity="1" stroke-miterlimit="10" class="mark-text role-axis-label" role="graphics-symbol" aria-roledescription="axis" version="1.1" width="415" height="283" viewBox="0 0 415 283" aria-label="X-axis for a discrete scale with 13 values: FY10, FY11, FY12, FY13, FY14, ending with FY22" pointer-events="none" x="0.0" y="0.0">FY17
</text>
<text text-anchor="end" transform="translate(-5.478515625, 108.47605013394715) translate(35.0,34.0) translate(0.5,200.5) translate(245.19230769230768,10) rotate(270) translate(0,4)" font-family="sans-serif" font-size="12px" fill="#000d2a" opacity="1" stroke-miterlimit="10" class="mark-text role-axis-label" role="graphics-symbol" aria-roledescription="axis" version="1.1" width="415" height="283" viewBox="0 0 415 283" aria-label="X-axis for a discrete scale with 13 values: FY10, FY11, FY12, FY13, FY14, ending with FY22" pointer-events="none" x="0.0" y="0.0">FY18
</text>
<text text-anchor="end" transform="translate(-5.478515625, 108.47605013394715) translate(35.0,34.0) translate(0.5,200.5) translate(274.03846153846155,10) rotate(270) translate(0,4)" font-family="sans-serif" font-size="12px" fill="#000d2a" opacity="1" stroke-miterlimit="10" class="mark-text role-axis-label" role="graphics-symbol" aria-roledescription="axis" version="1.1" width="415" height="283" viewBox="0 0 415 283" aria-label="X-axis for a discrete scale with 13 values: FY10, FY11, FY12, FY13, FY14, ending with FY22" pointer-events="none" x="0.0" y="0.0">FY19
</text>
<text text-anchor="end" transform="translate(-5.478515625, 108.47605013394715) translate(35.0,34.0) translate(0.5,200.5) translate(302.88461538461536,10) rotate(270) translate(0,4)" font-family="sans-serif" font-size="12px" fill="#000d2a" opacity="1" stroke-miterlimit="10" class="mark-text role-axis-label" role="graphics-symbol" aria-roledescription="axis" version="1.1" width="415" height="283" viewBox="0 0 415 283" aria-label="X-axis for a discrete scale with 13 values: FY10, FY11, FY12, FY13, FY14, ending with FY22" pointer-events="none" x="0.0" y="0.0">FY20R
</text>
<text text-anchor="end" transform="translate(-5.478515625, 108.47605013394715) translate(35.0,34.0) translate(0.5,200.5) translate(331.7307692307692,10) rotate(270) translate(0,4)" font-family="sans-serif" font-size="12px" fill="#000d2a" opacity="1" stroke-miterlimit="10" class="mark-text role-axis-label" role="graphics-symbol" aria-roledescription="axis" version="1.1" width="415" height="283" viewBox="0 0 415 283" aria-label="X-axis for a discrete scale with 13 values: FY10, FY11, FY12, FY13, FY14, ending with FY22" pointer-events="none" x="0.0" y="0.0">FY21P
</text>
<text text-anchor="end" transform="translate(-5.478515625, 108.47605013394715) translate(35.0,34.0) translate(0.5,200.5) translate(360.5769230769231,10) rotate(270) translate(0,4)" font-family="sans-serif" font-size="12px" fill="#000d2a" opacity="1" stroke-miterlimit="10" class="mark-text role-axis-label" role="graphics-symbol" aria-roledescription="axis" version="1.1" width="415" height="283" viewBox="0 0 415 283" aria-label="X-axis for a discrete scale with 13 values: FY10, FY11, FY12, FY13, FY14, ending with FY22" pointer-events="none" x="0.0" y="0.0">FY22
</text>
<line transform="translate(-5.478515625, 108.47605013394715) translate(35.0,34.0) translate(0.5,200.5) translate(0,0)" x2="375" y2="0" stroke="#0f223b" stroke-width="1" opacity="1" fill="none" stroke-miterlimit="10" class="mark-rule role-axis-domain" role="graphics-symbol" aria-roledescription="axis" version="1.1" width="415" height="283" viewBox="0 0 415 283" aria-label="X-axis for a discrete scale with 13 values: FY10, FY11, FY12, FY13, FY14, ending with FY22" pointer-events="none"/>
<line transform="translate(-5.478515625, 108.47605013394715) translate(35.0,34.0) translate(0.5,0.5) translate(0,200)" x2="-5" y2="0" stroke="#0f223b" stroke-width="1" opacity="1" fill="none" stroke-miterlimit="10" class="mark-rule role-axis-tick" role="graphics-symbol" aria-roledescription="axis" version="1.1" width="415" height="283" viewBox="0 0 415 283" aria-label="Y-axis for a linear scale with values from −35 to 0" pointer-events="none"/>
<line transform="translate(-5.478515625, 108.47605013394715) translate(35.0,34.0) translate(0.5,0.5) translate(0,171)" x2="-5" y2="0" stroke="#0f223b" stroke-width="1" opacity="1" fill="none" stroke-miterlimit="10" class="mark-rule role-axis-tick" role="graphics-symbol" aria-roledescription="axis" version="1.1" width="415" height="283" viewBox="0 0 415 283" aria-label="Y-axis for a linear scale with values from −35 to 0" pointer-events="none"/>
<line transform="translate(-5.478515625, 108.47605013394715) translate(35.0,34.0) translate(0.5,0.5) translate(0,143)" x2="-5" y2="0" stroke="#0f223b" stroke-width="1" opacity="1" fill="none" stroke-miterlimit="10" class="mark-rule role-axis-tick" role="graphics-symbol" aria-roledescription="axis" version="1.1" width="415" height="283" viewBox="0 0 415 283" aria-label="Y-axis for a linear scale with values from −35 to 0" pointer-events="none"/>
<line transform="translate(-5.478515625, 108.47605013394715) translate(35.0,34.0) translate(0.5,0.5) translate(0,114)" x2="-5" y2="0" stroke="#0f223b" stroke-width="1" opacity="1" fill="none" stroke-miterlimit="10" class="mark-rule role-axis-tick" role="graphics-symbol" aria-roledescription="axis" version="1.1" width="415" height="283" viewBox="0 0 415 283" aria-label="Y-axis for a linear scale with values from −35 to 0" pointer-events="none"/>
<line transform="translate(-5.478515625, 108.47605013394715) translate(35.0,34.0) translate(0.5,0.5) translate(0,86)" x2="-5" y2="0" stroke="#0f223b" stroke-width="1" opacity="1" fill="none" stroke-miterlimit="10" class="mark-rule role-axis-tick" role="graphics-symbol" aria-roledescription="axis" version="1.1" width="415" height="283" viewBox="0 0 415 283" aria-label="Y-axis for a linear scale with values from −35 to 0" pointer-events="none"/>
<line transform="translate(-5.478515625, 108.47605013394715) translate(35.0,34.0) translate(0.5,0.5) translate(0,57)" x2="-5" y2="0" stroke="#0f223b" stroke-width="1" opacity="1" fill="none" stroke-miterlimit="10" class="mark-rule role-axis-tick" role="graphics-symbol" aria-roledescription="axis" version="1.1" width="415" height="283" viewBox="0 0 415 283" aria-label="Y-axis for a linear scale with values from −35 to 0" pointer-events="none"/>
<line transform="translate(-5.478515625, 108.47605013394715) translate(35.0,34.0) translate(0.5,0.5) translate(0,29)" x2="-5" y2="0" stroke="#0f223b" stroke-width="1" opacity="1" fill="none" stroke-miterlimit="10" class="mark-rule role-axis-tick" role="graphics-symbol" aria-roledescription="axis" version="1.1" width="415" height="283" viewBox="0 0 415 283" aria-label="Y-axis for a linear scale with values from −35 to 0" pointer-events="none"/>
<line transform="translate(-5.478515625, 108.47605013394715) translate(35.0,34.0) translate(0.5,0.5) translate(0,0)" x2="-5" y2="0" stroke="#0f223b" stroke-width="1" opacity="1" fill="none" stroke-miterlimit="10" class="mark-rule role-axis-tick" role="graphics-symbol" aria-roledescription="axis" version="1.1" width="415" height="283" viewBox="0 0 415 283" aria-label="Y-axis for a linear scale with values from −35 to 0" pointer-events="none"/>
<text text-anchor="end" transform="translate(-5.478515625, 108.47605013394715) translate(35.0,34.0) translate(0.5,0.5) translate(-10,204)" font-family="sans-serif" font-size="12px" fill="#000d2a" opacity="1" stroke-miterlimit="10" class="mark-text role-axis-label" role="graphics-symbol" aria-roledescription="axis" version="1.1" width="415" height="283" viewBox="0 0 415 283" aria-label="Y-axis for a linear scale with values from −35 to 0" pointer-events="none">−35
</text>
<text text-anchor="end" transform="translate(-5.478515625, 108.47605013394715) translate(35.0,34.0) translate(0.5,0.5) translate(-10,175.42857142857144)" font-family="sans-serif" font-size="12px" fill="#000d2a" opacity="1" stroke-miterlimit="10" class="mark-text role-axis-label" role="graphics-symbol" aria-roledescription="axis" version="1.1" width="415" height="283" viewBox="0 0 415 283" aria-label="Y-axis for a linear scale with values from −35 to 0" pointer-events="none">−30
</text>
<text text-anchor="end" transform="translate(-5.478515625, 108.47605013394715) translate(35.0,34.0) translate(0.5,0.5) translate(-10,146.85714285714286)" font-family="sans-serif" font-size="12px" fill="#000d2a" opacity="1" stroke-miterlimit="10" class="mark-text role-axis-label" role="graphics-symbol" aria-roledescription="axis" version="1.1" width="415" height="283" viewBox="0 0 415 283" aria-label="Y-axis for a linear scale with values from −35 to 0" pointer-events="none">−25
</text>
<text text-anchor="end" transform="translate(-5.478515625, 108.47605013394715) translate(35.0,34.0) translate(0.5,0.5) translate(-10,118.28571428571428)" font-family="sans-serif" font-size="12px" fill="#000d2a" opacity="1" stroke-miterlimit="10" class="mark-text role-axis-label" role="graphics-symbol" aria-roledescription="axis" version="1.1" width="415" height="283" viewBox="0 0 415 283" aria-label="Y-axis for a linear scale with values from −35 to 0" pointer-events="none">−20
</text>
<text text-anchor="end" transform="translate(-5.478515625, 108.47605013394715) translate(35.0,34.0) translate(0.5,0.5) translate(-10,89.71428571428572)" font-family="sans-serif" font-size="12px" fill="#000d2a" opacity="1" stroke-miterlimit="10" class="mark-text role-axis-label" role="graphics-symbol" aria-roledescription="axis" version="1.1" width="415" height="283" viewBox="0 0 415 283" aria-label="Y-axis for a linear scale with values from −35 to 0" pointer-events="none">−15
</text>
<text text-anchor="end" transform="translate(-5.478515625, 108.47605013394715) translate(35.0,34.0) translate(0.5,0.5) translate(-10,61.14285714285714)" font-family="sans-serif" font-size="12px" fill="#000d2a" opacity="1" stroke-miterlimit="10" class="mark-text role-axis-label" role="graphics-symbol" aria-roledescription="axis" version="1.1" width="415" height="283" viewBox="0 0 415 283" aria-label="Y-axis for a linear scale with values from −35 to 0" pointer-events="none">−10
</text>
<text text-anchor="end" transform="translate(-5.478515625, 108.47605013394715) translate(35.0,34.0) translate(0.5,0.5) translate(-10,32.571428571428584)" font-family="sans-serif" font-size="12px" fill="#000d2a" opacity="1" stroke-miterlimit="10" class="mark-text role-axis-label" role="graphics-symbol" aria-roledescription="axis" version="1.1" width="415" height="283" viewBox="0 0 415 283" aria-label="Y-axis for a linear scale with values from −35 to 0" pointer-events="none">−5
</text>
<text text-anchor="end" transform="translate(-5.478515625, 108.47605013394715) translate(35.0,34.0) translate(0.5,0.5) translate(-10,4)" font-family="sans-serif" font-size="12px" fill="#000d2a" opacity="1" stroke-miterlimit="10" class="mark-text role-axis-label" role="graphics-symbol" aria-roledescription="axis" version="1.1" width="415" height="283" viewBox="0 0 415 283" aria-label="Y-axis for a linear scale with values from −35 to 0" pointer-events="none">0
</text>
<line transform="translate(-5.478515625, 108.47605013394715) translate(35.0,34.0) translate(0.5,0.5) translate(0,200)" x2="0" y2="-200" stroke="#0f223b" stroke-width="1" opacity="1" fill="none" stroke-miterlimit="10" class="mark-rule role-axis-domain" role="graphics-symbol" aria-roledescription="axis" version="1.1" width="415" height="283" viewBox="0 0 415 283" aria-label="Y-axis for a linear scale with values from −35 to 0" pointer-events="none"/>
<path aria-label="xlabel: FY10; ylabel: −5.16; group: Balance of payments" role="graphics-symbol" aria-roledescription="line mark" d="M14.423,29.486C24.038,43.143,33.654,56.8,43.269,56.8C52.885,56.8,62.5,55.619,72.115,53.257C81.731,50.895,91.346,40.895,100.962,40.057C110.577,39.219,120.192,38.8,129.808,38.8C139.423,38.8,149.038,39.829,158.654,39.829C168.269,39.829,177.885,36.914,187.5,36.914C197.115,36.914,206.731,42.952,216.346,54.114C225.962,65.276,235.577,103.886,245.192,103.886C254.808,103.886,264.423,90.514,274.038,90.514C283.654,90.514,293.269,98.552,302.885,106.114C312.5,113.676,322.115,120.886,331.731,135.886C341.346,150.886,350.962,173.5,360.577,196.114" stroke="#202024" stroke-width="2" opacity="1" fill="none" stroke-miterlimit="10" class="mark-line role-mark marks" version="1.1" width="415" height="283" viewBox="0 0 415 283" transform="translate(-5.478515625, 108.47605013394715) translate(35.0,34.0) translate(0,0)"/></g></svg>