<svg version="1.1" class="marks" width="375.0" height="387.21617559602913" viewBox="0 0 475.0 487.21617559602913" xmlns="http://www.w3.org/2000/svg" xmlns:xlink="http://www.w3.org/1999/xlink"><rect width="100%" height="100%" fill="#ffffff"/>
<g transform="translate(50.0, 77.09759727833298)"><text class="chart-title-line" x="0" y="0" text-anchor="start" font-family="sans-serif" font-size="24" font-weight="700" fill="#0f2740" letter-spacing="0" transform="scale(1.224750159472677)">Monthly Surge in Vehicle
</text>
<text class="chart-title-line" x="0" y="0" text-anchor="start" font-family="sans-serif" font-size="24" font-weight="700" fill="#0f2740" letter-spacing="0" transform="scale(1.224750159472677) translate(0.0, 27.1640625)">Recoveries Noted in 2015
</text>
<text class="chart-subtitle-line" x="0" y="0" text-anchor="start" font-family="sans-serif" font-size="13" font-weight="400" fill="#445f7c" letter-spacing="0.25" transform="scale(1.224750159472677) translate(0.0, 54.1875)">"Analysis of vehicle recovery patterns
</text>
<text class="chart-subtitle-line" x="0" y="0" text-anchor="start" font-family="sans-serif" font-size="13" font-weight="400" fill="#445f7c" letter-spacing="0.25" transform="scale(1.224750159472677) translate(0.0, 54.1875) translate(0.0, 14.7138671875)">throughout the year"
</text>
<path transform="translate(-5.5, 97.94865644269616) translate(5.0,34.0) translate(0,-29) translate(0,0) translate(0,0) translate(6,6)" d="M-5,0L5,0" stroke="#1c1c1c" stroke-width="1.5" opacity="1" class="mark-symbol role-legend-symbol" pointer-events="none" role="graphics-object" aria-roledescription="group mark container" aria-label="Symbol legend for stroke color with 2 values: 2015, 2016" fill="none" stroke-miterlimit="10" version="1.1" width="385" height="267" viewBox="0 0 385 267"/>
<text text-anchor="start" transform="translate(-5.5, 97.94865644269616) translate(5.0,34.0) translate(0,-29) translate(0,0) translate(0,0) translate(16,9)" font-family="sans-serif" font-size="10px" fill="#000" opacity="1" class="mark-text role-legend-label" pointer-events="none" role="graphics-object" aria-roledescription="group mark container" aria-label="Symbol legend for stroke color with 2 values: 2015, 2016" stroke-miterlimit="10" version="1.1" width="385" height="267" viewBox="0 0 385 267">2015
</text>
<path transform="translate(-5.5, 97.94865644269616) translate(5.0,34.0) translate(0,-29) translate(0,0) translate(50,0) translate(6,6)" d="M-5,0L5,0" stroke="#053a7d" stroke-width="1.5" opacity="1" class="mark-symbol role-legend-symbol" pointer-events="none" role="graphics-object" aria-roledescription="group mark container" aria-label="Symbol legend for stroke color with 2 values: 2015, 2016" fill="none" stroke-miterlimit="10" version="1.1" width="385" height="267" viewBox="0 0 385 267"/>
<text text-anchor="start" transform="translate(-5.5, 97.94865644269616) translate(5.0,34.0) translate(0,-29) translate(0,0) translate(50,0) translate(16,9)" font-family="sans-serif" font-size="10px" fill="#000" opacity="1" class="mark-text role-legend-label" pointer-events="none" role="graphics-object" aria-roledescription="group mark container" aria-label="Symbol legend for stroke color with 2 values: 2015, 2016" stroke-miterlimit="10" version="1.1" width="385" height="267" viewBox="0 0 385 267">2016
</text>
<text text-anchor="end" transform="translate(-5.5, 97.94865644269616) translate(5.0,34.0) translate(0.5,200.5) translate(20.833333333333343,5) rotate(270) translate(0,4)" font-family="sans-serif" font-size="12px" fill="#000d2a" opacity="1" stroke-miterlimit="10" class="mark-text role-axis-label" role="graphics-symbol" aria-roledescription="axis" version="1.1" width="385" height="267" viewBox="0 0 385 267" aria-label="X-axis for a discrete scale with 9 values: Apr, Aug, Feb, Jan, Jul, ending with Sep" pointer-events="none" x="0.0" y="0.0">Apr
</text>
<text text-anchor="end" transform="translate(-5.5, 97.94865644269616) translate(5.0,34.0) translate(0.5,200.5) translate(62.50000000000001,5) rotate(270) translate(0,4)" font-family="sans-serif" font-size="12px" fill="#000d2a" opacity="1" stroke-miterlimit="10" class="mark-text role-axis-label" role="graphics-symbol" aria-roledescription="axis" version="1.1" width="385" height="267" viewBox="0 0 385 267" aria-label="X-axis for a discrete scale with 9 values: Apr, Aug, Feb, Jan, Jul, ending with Sep" pointer-events="none" x="0.0" y="0.0">Aug
</text>
<text text-anchor="end" transform="translate(-5.5, 97.94865644269616) translate(5.0,34.0) translate(0.5,200.5) translate(104.16666666666667,5) rotate(270) translate(0,4)" font-family="sans-serif" font-size="12px" fill="#000d2a" opacity="1" stroke-miterlimit="10" class="mark-text role-axis-label" role="graphics-symbol" aria-roledescription="axis" version="1.1" width="385" height="267" viewBox="0 0 385 267" aria-label="X-axis for a discrete scale with 9 values: Apr, Aug, Feb, Jan, Jul, ending with Sep" pointer-events="none" x="0.0" y="0.0">Feb
</text>
<text text-anchor="end" transform="translate(-5.5, 97.94865644269616) translate(5.0,34.0) translate(0.5,200.5) translate(145.83333333333334,5) rotate(270) translate(0,4)" font-family="sans-serif" font-size="12px" fill="#000d2a" opacity="1" stroke-miterlimit="10" class="mark-text role-axis-label" role="graphics-symbol" aria-roledescription="axis" version="1.1" width="385" height="267" viewBox="0 0 385 267" aria-label="X-axis for a discrete scale with 9 values: Apr, Aug, Feb, Jan, Jul, ending with Sep" pointer-events="none" x="0.0" y="0.0">Jan
</text>
<text text-anchor="end" transform="translate(-5.5, 97.94865644269616) translate(5.0,34.0) translate(0.5,200.5) translate(187.5,5) rotate(270) translate(0,4)" font-family="sans-serif" font-size="12px" fill="#000d2a" opacity="1" stroke-miterlimit="10" class="mark-text role-axis-label" role="graphics-symbol" aria-roledescription="axis" version="1.1" width="385" height="267" viewBox="0 0 385 267" aria-label="X-axis for a discrete scale with 9 values: Apr, Aug, Feb, Jan, Jul, ending with Sep" pointer-events="none" x="0.0" y="0.0">Jul
</text>
<text text-anchor="end" transform="translate(-5.5, 97.94865644269616) translate(5.0,34.0) translate(0.5,200.5) translate(229.16666666666666,5) rotate(270) translate(0,4)" font-family="sans-serif" font-size="12px" fill="#000d2a" opacity="1" stroke-miterlimit="10" class="mark-text role-axis-label" role="graphics-symbol" aria-roledescription="axis" version="1.1" width="385" height="267" viewBox="0 0 385 267" aria-label="X-axis for a discrete scale with 9 values: Apr, Aug, Feb, Jan, Jul, ending with Sep" pointer-events="none" x="0.0" y="0.0">Jun
</text>
<text text-anchor="end" transform="translate(-5.5, 97.94865644269616) translate(5.0,34.0) translate(0.5,200.5) translate(270.83333333333337,5) rotate(270) translate(0,4)" font-family="sans-serif" font-size="12px" fill="#000d2a" opacity="1" stroke-miterlimit="10" class="mark-text role-axis-label" role="graphics-symbol" aria-roledescription="axis" version="1.1" width="385" height="267" viewBox="0 0 385 267" aria-label="X-axis for a discrete scale with 9 values: Apr, Aug, Feb, Jan, Jul, ending with Sep" pointer-events="none" x="0.0" y="0.0">Mar
</text>
<text text-anchor="end" transform="translate(-5.5, 97.94865644269616) translate(5.0,34.0) translate(0.5,200.5) translate(312.5,5) rotate(270) translate(0,4)" font-family="sans-serif" font-size="12px" fill="#000d2a" opacity="1" stroke-miterlimit="10" class="mark-text role-axis-label" role="graphics-symbol" aria-roledescription="axis" version="1.1" width="385" height="267" viewBox="0 0 385 267" aria-label="X-axis for a discrete scale with 9 values: Apr, Aug, Feb, Jan, Jul, ending with Sep" pointer-events="none" x="0.0" y="0.0">May
</text>
<text text-anchor="end" transform="translate(-5.5, 97.94865644269616) translate(5.0,34.0) translate(0.5,200.5) translate(354.16666666666663,5) rotate(270) translate(0,4)" font-family="sans-serif" font-size="12px" fill="#000d2a" opacity="1" stroke-miterlimit="10" class="mark-text role-axis-label" role="graphics-symbol" aria-roledescription="axis" version="1.1" width="385" height="267" viewBox="0 0 385 267" aria-label="X-axis for a discrete scale with 9 values: Apr, Aug, Feb, Jan, Jul, ending with Sep" pointer-events="none" x="0.0" y="0.0">Sep
</text>
<line transform="translate(-5.5, 97.94865644269616) translate(5.0,34.0) translate(0.5,200.5) translate(0,0)" x2="375" y2="0" stroke="#0f223b" stroke-width="1" opacity="1" fill="none" stroke-miterlimit="10" class="mark-rule role-axis-domain" role="graphics-symbol" aria-roledescription="axis" version="1.1" width="385" height="267" viewBox="0 0 385 267" aria-label="X-axis for a discrete scale with 9 values: Apr, Aug, Feb, Jan, Jul, ending with Sep" pointer-events="none"/>
<path aria-label="xlabel: Apr; ylabel: 379; group: 2015" role="graphics-symbol" aria-roledescription="line mark" d="M20.833,48.4C34.722,46.6,48.611,44.8,62.5,44.8C76.389,44.8,90.278,86.4,104.167,86.4C118.056,86.4,131.944,86.133,145.833,85.6C159.722,85.067,173.611,41.2,187.5,41.2C201.389,41.2,215.278,58,229.167,58C243.056,58,256.944,48.2,270.833,44.4C284.722,40.6,298.611,35.2,312.5,35.2C326.389,35.2,340.278,56.6,354.167,78" stroke-width="2" opacity="1" fill="none" stroke-miterlimit="10" class="mark-line role-mark marks" version="1.1" width="385" height="267" viewBox="0 0 385 267" transform="translate(-5.5, 97.94865644269616) translate(5.0,34.0) translate(0,0)"/>
<path aria-label="xlabel: Apr; ylabel: 447; group: 2016" role="graphics-symbol" aria-roledescription="line mark" d="M20.833,21.2C34.722,41,48.611,60.8,62.5,60.8C76.389,60.8,90.278,24.4,104.167,24.4C118.056,24.4,131.944,41.533,145.833,47.2C159.722,52.867,173.611,54.2,187.5,58.4C201.389,62.6,215.278,72.4,229.167,72.4C243.056,72.4,256.944,15.6,270.833,15.6C284.722,15.6,298.611,30,312.5,40.4C326.389,50.8,340.278,64.4,354.167,78" stroke-width="2" opacity="1" fill="none" stroke-miterlimit="10" class="mark-line role-mark marks" version="1.1" width="385" height="267" viewBox="0 0 385 267" transform="translate(-5.5, 97.94865644269616) translate(5.0,34.0) translate(0,0)"/></g></svg>