<svg version="1.1" class="marks" width="375.5" height="336.6092625514582" viewBox="0 0 475.5 436.6092625514582" xmlns="http://www.w3.org/2000/svg" xmlns:xlink="http://www.w3.org/1999/xlink"><rect width="100%" height="100%" fill="#ffffff"/>
<g transform="translate(50.0, 71.09743081043547)"><text class="chart-title-line" x="0" y="0" text-anchor="start" font-family="sans-serif" font-size="24" font-weight="700" fill="#0f2740" letter-spacing="0" transform="scale(0.9535561948219424)">Shifting Sands: Excavation Rates
</text>
<text class="chart-title-line" x="0" y="0" text-anchor="start" font-family="sans-serif" font-size="24" font-weight="700" fill="#0f2740" letter-spacing="0" transform="scale(0.9535561948219424) translate(0.0, 27.1640625)">Show Fluctuating Patterns
</text>
<text class="chart-subtitle-line" x="0" y="0" text-anchor="start" font-family="sans-serif" font-size="13" font-weight="400" fill="#445f7c" letter-spacing="0.25" transform="scale(0.9535561948219424) translate(0.0, 54.1875)">"Exploring the ebb and flow of excavation activities"
</text>
<path transform="translate(-7.0, 64.49230049102272) translate(7.0,34.0) translate(0,-29) translate(0,0) translate(0,0) translate(6,6)" d="M-5,0L5,0" stroke="#111d2b" stroke-width="1.5" opacity="1" class="mark-symbol role-legend-symbol" pointer-events="none" role="graphics-object" aria-roledescription="group mark container" aria-label="Symbol legend for stroke color with 1 value: EXCAVATIONS in thousands" fill="none" stroke-miterlimit="10" version="1.1" width="389" height="255" viewBox="0 0 389 255"/>
<text text-anchor="start" transform="translate(-7.0, 64.49230049102272) translate(7.0,34.0) translate(0,-29) translate(0,0) translate(0,0) translate(16,9)" font-family="sans-serif" font-size="10px" fill="#000" opacity="1" class="mark-text role-legend-label" pointer-events="none" role="graphics-object" aria-roledescription="group mark container" aria-label="Symbol legend for stroke color with 1 value: EXCAVATIONS in thousands" stroke-miterlimit="10" version="1.1" width="389" height="255" viewBox="0 0 389 255">EXCAVATIONS in thousands
</text>
<text text-anchor="start" transform="translate(-7.0, 64.49230049102272) translate(7.0,34.0) translate(0.5,200.5) translate(0,14)" font-family="sans-serif" font-size="12px" fill="#000d2a" opacity="1" stroke-miterlimit="10" class="mark-text role-axis-label" role="graphics-symbol" aria-roledescription="axis" version="1.1" width="389" height="255" viewBox="0 0 389 255" aria-label="X-axis for a linear scale with values from 2,006 to 2,016" pointer-events="none" x="0.0" y="0.0">2,006
</text>
<text text-anchor="middle" transform="translate(-7.0, 64.49230049102272) translate(7.0,34.0) translate(0.5,200.5) translate(37.5,14)" font-family="sans-serif" font-size="12px" fill="#000d2a" opacity="0" stroke-miterlimit="10" class="mark-text role-axis-label" role="graphics-symbol" aria-roledescription="axis" version="1.1" width="389" height="255" viewBox="0 0 389 255" aria-label="X-axis for a linear scale with values from 2,006 to 2,016" pointer-events="none" x="0.0" y="0.0">2,007
</text>
<text text-anchor="middle" transform="translate(-7.0, 64.49230049102272) translate(7.0,34.0) translate(0.5,200.5) translate(75,14)" font-family="sans-serif" font-size="12px" fill="#000d2a" opacity="1" stroke-miterlimit="10" class="mark-text role-axis-label" role="graphics-symbol" aria-roledescription="axis" version="1.1" width="389" height="255" viewBox="0 0 389 255" aria-label="X-axis for a linear scale with values from 2,006 to 2,016" pointer-events="none" x="0.0" y="0.0">2,008
</text>
<text text-anchor="middle" transform="translate(-7.0, 64.49230049102272) translate(7.0,34.0) translate(0.5,200.5) translate(112.5,14)" font-family="sans-serif" font-size="12px" fill="#000d2a" opacity="0" stroke-miterlimit="10" class="mark-text role-axis-label" role="graphics-symbol" aria-roledescription="axis" version="1.1" width="389" height="255" viewBox="0 0 389 255" aria-label="X-axis for a linear scale with values from 2,006 to 2,016" pointer-events="none" x="0.0" y="0.0">2,009
</text>
<text text-anchor="middle" transform="translate(-7.0, 64.49230049102272) translate(7.0,34.0) translate(0.5,200.5) translate(150,14)" font-family="sans-serif" font-size="12px" fill="#000d2a" opacity="1" stroke-miterlimit="10" class="mark-text role-axis-label" role="graphics-symbol" aria-roledescription="axis" version="1.1" width="389" height="255" viewBox="0 0 389 255" aria-label="X-axis for a linear scale with values from 2,006 to 2,016" pointer-events="none" x="0.0" y="0.0">2,010
</text>
<text text-anchor="middle" transform="translate(-7.0, 64.49230049102272) translate(7.0,34.0) translate(0.5,200.5) translate(187.5,14)" font-family="sans-serif" font-size="12px" fill="#000d2a" opacity="0" stroke-miterlimit="10" class="mark-text role-axis-label" role="graphics-symbol" aria-roledescription="axis" version="1.1" width="389" height="255" viewBox="0 0 389 255" aria-label="X-axis for a linear scale with values from 2,006 to 2,016" pointer-events="none" x="0.0" y="0.0">2,011
</text>
<text text-anchor="middle" transform="translate(-7.0, 64.49230049102272) translate(7.0,34.0) translate(0.5,200.5) translate(225,14)" font-family="sans-serif" font-size="12px" fill="#000d2a" opacity="1" stroke-miterlimit="10" class="mark-text role-axis-label" role="graphics-symbol" aria-roledescription="axis" version="1.1" width="389" height="255" viewBox="0 0 389 255" aria-label="X-axis for a linear scale with values from 2,006 to 2,016" pointer-events="none" x="0.0" y="0.0">2,012
</text>
<text text-anchor="middle" transform="translate(-7.0, 64.49230049102272) translate(7.0,34.0) translate(0.5,200.5) translate(262.5,14)" font-family="sans-serif" font-size="12px" fill="#000d2a" opacity="0" stroke-miterlimit="10" class="mark-text role-axis-label" role="graphics-symbol" aria-roledescription="axis" version="1.1" width="389" height="255" viewBox="0 0 389 255" aria-label="X-axis for a linear scale with values from 2,006 to 2,016" pointer-events="none" x="0.0" y="0.0">2,013
</text>
<text text-anchor="middle" transform="translate(-7.0, 64.49230049102272) translate(7.0,34.0) translate(0.5,200.5) translate(300,14)" font-family="sans-serif" font-size="12px" fill="#000d2a" opacity="1" stroke-miterlimit="10" class="mark-text role-axis-label" role="graphics-symbol" aria-roledescription="axis" version="1.1" width="389" height="255" viewBox="0 0 389 255" aria-label="X-axis for a linear scale with values from 2,006 to 2,016" pointer-events="none" x="0.0" y="0.0">2,014
</text>
<text text-anchor="middle" transform="translate(-7.0, 64.49230049102272) translate(7.0,34.0) translate(0.5,200.5) translate(337.5,14)" font-family="sans-serif" font-size="12px" fill="#000d2a" opacity="0" stroke-miterlimit="10" class="mark-text role-axis-label" role="graphics-symbol" aria-roledescription="axis" version="1.1" width="389" height="255" viewBox="0 0 389 255" aria-label="X-axis for a linear scale with values from 2,006 to 2,016" pointer-events="none" x="0.0" y="0.0">2,015
</text>
<text text-anchor="end" transform="translate(-7.0, 64.49230049102272) translate(7.0,34.0) translate(0.5,200.5) translate(375,14)" font-family="sans-serif" font-size="12px" fill="#000d2a" opacity="1" stroke-miterlimit="10" class="mark-text role-axis-label" role="graphics-symbol" aria-roledescription="axis" version="1.1" width="389" height="255" viewBox="0 0 389 255" aria-label="X-axis for a linear scale with values from 2,006 to 2,016" pointer-events="none" x="0.0" y="0.0">2,016
</text>
<line transform="translate(-7.0, 64.49230049102272) translate(7.0,34.0) translate(0.5,200.5) translate(0,0)" x2="375" y2="0" stroke="#0f223b" stroke-width="1" opacity="1" fill="none" stroke-miterlimit="10" class="mark-rule role-axis-domain" role="graphics-symbol" aria-roledescription="axis" version="1.1" width="389" height="255" viewBox="0 0 389 255" aria-label="X-axis for a linear scale with values from 2,006 to 2,016" pointer-events="none"/>
<path aria-label="xlabel: 2006; EXCAVATIONS in thousands: 1.7; group: EXCAVATIONS in thousands" role="graphics-symbol" aria-roledescription="line mark" d="M0,102.857C12.5,92.857,25,82.857,37.5,68.571C50,54.286,62.5,17.143,75,17.143C87.5,17.143,100,29.524,112.5,40C125,50.476,137.5,69.524,150,80C162.5,90.476,175,99.048,187.5,102.857C200,106.667,212.5,106.667,225,108.571C237.5,110.476,250,110.476,262.5,114.286C275,118.095,287.5,131.429,300,131.429C312.5,131.429,325,127.619,337.5,125.714C350,123.81,362.5,121.905,375,120" stroke="#111d2b" stroke-width="2" opacity="1" fill="none" stroke-miterlimit="10" class="mark-line role-mark marks" version="1.1" width="389" height="255" viewBox="0 0 389 255" transform="translate(-7.0, 64.49230049102272) translate(7.0,34.0) translate(0,0)"/></g></svg>