<svg version="1.1" class="marks" width="496" height="232" viewBox="-100,-100,1000,1000" xmlns="http://www.w3.org/2000/svg" xmlns:xlink="http://www.w3.org/1999/xlink"><g ><g version="1.1" class="marks" width="496" height="232" viewBox="0 0 496 232"><g fill="none" stroke-miterlimit="10" transform="translate(35,7)"><g class="mark-group role-frame root" role="graphics-object" aria-roledescription="group mark container"><g transform="translate(0,0)" class="mark-group role-axis" role="graphics-symbol" aria-roledescription="axis" aria-label="X-axis for a discrete scale with 14 values: Q1 2015, Q1 2016, Q1 2017, Q1 2018, Q2 2015, ending with Q4 2017"><g transform="translate(0.5,200.5)" class="mark-rule role-axis-tick" pointer-events="none"><line transform="translate(16,0)" x2="0" y2="5" stroke="#0f223b" stroke-opacity="0" stroke-width="1" opacity="1"/>
<line transform="translate(48,0)" x2="0" y2="5" stroke="#0f223b" stroke-opacity="0" stroke-width="1" opacity="1"/>
<line transform="translate(80,0)" x2="0" y2="5" stroke="#0f223b" stroke-opacity="0" stroke-width="1" opacity="1"/>
<line transform="translate(113,0)" x2="0" y2="5" stroke="#0f223b" stroke-opacity="0" stroke-width="1" opacity="1"/>
<line transform="translate(145,0)" x2="0" y2="5" stroke="#0f223b" stroke-opacity="0" stroke-width="1" opacity="1"/>
<line transform="translate(177,0)" x2="0" y2="5" stroke="#0f223b" stroke-opacity="0" stroke-width="1" opacity="1"/>
<line transform="translate(209,0)" x2="0" y2="5" stroke="#0f223b" stroke-opacity="0" stroke-width="1" opacity="1"/>
<line transform="translate(241,0)" x2="0" y2="5" stroke="#0f223b" stroke-opacity="0" stroke-width="1" opacity="1"/>
<line transform="translate(273,0)" x2="0" y2="5" stroke="#0f223b" stroke-opacity="0" stroke-width="1" opacity="1"/>
<line transform="translate(305,0)" x2="0" y2="5" stroke="#0f223b" stroke-opacity="0" stroke-width="1" opacity="1"/>
<line transform="translate(338,0)" x2="0" y2="5" stroke="#0f223b" stroke-opacity="0" stroke-width="1" opacity="1"/>
<line transform="translate(370,0)" x2="0" y2="5" stroke="#0f223b" stroke-opacity="0" stroke-width="1" opacity="1"/>
<line transform="translate(402,0)" x2="0" y2="5" stroke="#0f223b" stroke-opacity="0" stroke-width="1" opacity="1"/>
<line transform="translate(434,0)" x2="0" y2="5" stroke="#0f223b" stroke-opacity="0" stroke-width="1" opacity="1"/></g>
<g transform="translate(0.5,200.5)" class="mark-text role-axis-label" pointer-events="none"><text text-anchor="middle" transform="translate(16.071428571428555,18)" font-family="sans-serif" font-size="10px" fill="#000d2a" opacity="1">Q1 2015
</text>
<text text-anchor="middle" transform="translate(48.2142857142857,18)" font-family="sans-serif" font-size="10px" fill="#000d2a" opacity="1">Q1 2016
</text>
<text text-anchor="middle" transform="translate(80.35714285714285,18)" font-family="sans-serif" font-size="10px" fill="#000d2a" opacity="1">Q1 2017
</text>
<text text-anchor="middle" transform="translate(112.5,18)" font-family="sans-serif" font-size="10px" fill="#000d2a" opacity="1">Q1 2018
</text>
<text text-anchor="middle" transform="translate(144.64285714285714,18)" font-family="sans-serif" font-size="10px" fill="#000d2a" opacity="1">Q2 2015
</text>
<text text-anchor="middle" transform="translate(176.78571428571428,18)" font-family="sans-serif" font-size="10px" fill="#000d2a" opacity="1">Q2 2016
</text>
<text text-anchor="middle" transform="translate(208.92857142857144,18)" font-family="sans-serif" font-size="10px" fill="#000d2a" opacity="1">Q2 2017
</text>
<text text-anchor="middle" transform="translate(241.07142857142858,18)" font-family="sans-serif" font-size="10px" fill="#000d2a" opacity="1">Q2 2018
</text>
<text text-anchor="middle" transform="translate(273.2142857142857,18)" font-family="sans-serif" font-size="10px" fill="#000d2a" opacity="1">Q3 2015
</text>
<text text-anchor="middle" transform="translate(305.3571428571429,18)" font-family="sans-serif" font-size="10px" fill="#000d2a" opacity="1">Q3 2016
</text>
<text text-anchor="middle" transform="translate(337.5,18)" font-family="sans-serif" font-size="10px" fill="#000d2a" opacity="1">Q3 2017
</text>
<text text-anchor="middle" transform="translate(369.64285714285717,18)" font-family="sans-serif" font-size="10px" fill="#000d2a" opacity="1">Q4 2015
</text>
<text text-anchor="middle" transform="translate(401.78571428571433,18)" font-family="sans-serif" font-size="10px" fill="#000d2a" opacity="1">Q4 2016
</text>
<text text-anchor="middle" transform="translate(433.92857142857144,18)" font-family="sans-serif" font-size="10px" fill="#000d2a" opacity="1">Q4 2017
</text></g>
<g transform="translate(0.5,200.5)" class="mark-rule role-axis-domain" pointer-events="none"><line transform="translate(0,0)" x2="450" y2="0" stroke="#0f223b" stroke-opacity="0" stroke-width="1" opacity="1"/></g></g>
<g transform="translate(0,0)" class="mark-group role-axis" role="graphics-symbol" aria-roledescription="axis" aria-label="Y-axis for a linear scale with values from 0 to 180"><g transform="translate(0.5,0.5)" class="mark-rule role-axis-tick" pointer-events="none"><line transform="translate(0,200)" x2="-5" y2="0" stroke="#0f223b" stroke-opacity="0" stroke-width="1" opacity="1"/>
<line transform="translate(0,144)" x2="-5" y2="0" stroke="#0f223b" stroke-opacity="0" stroke-width="1" opacity="1"/>
<line transform="translate(0,89)" x2="-5" y2="0" stroke="#0f223b" stroke-opacity="0" stroke-width="1" opacity="1"/>
<line transform="translate(0,33)" x2="-5" y2="0" stroke="#0f223b" stroke-opacity="0" stroke-width="1" opacity="1"/></g>
<g transform="translate(0.5,0.5)" class="mark-text role-axis-label" pointer-events="none"><text text-anchor="end" transform="translate(-10,203)" font-family="sans-serif" font-size="10px" fill="#000d2a" opacity="1">0
</text>
<text text-anchor="end" transform="translate(-10,147.44444444444443)" font-family="sans-serif" font-size="10px" fill="#000d2a" opacity="1">50
</text>
<text text-anchor="end" transform="translate(-10,91.88888888888889)" font-family="sans-serif" font-size="10px" fill="#000d2a" opacity="1">100
</text>
<text text-anchor="end" transform="translate(-10,36.33333333333333)" font-family="sans-serif" font-size="10px" fill="#000d2a" opacity="1">150
</text></g>
<g transform="translate(0.5,0.5)" class="mark-rule role-axis-domain" pointer-events="none"><line transform="translate(0,200)" x2="0" y2="-200" stroke="#0f223b" stroke-opacity="0" stroke-width="1" opacity="1"/></g></g>
<g transform="translate(0,0)" class="mark-group role-scope pathgroup" role="graphics-object" aria-roledescription="group mark container"><g transform="translate(0,0)" class="mark-line role-mark marks" role="graphics-object" aria-roledescription="line mark container"><path aria-label="Quarter: Q1 2015; Percentage: 18; Metric: Premium Subscribers" role="graphics-symbol" aria-roledescription="line mark" d="M16.071,180L48.214,165.556L80.357,145.556L112.5,116.667L144.643,175.556L176.786,161.111L208.929,135.556L241.071,107.778L273.214,173.333L305.357,156.667L337.5,128.889L369.643,168.889L401.786,152.222L433.929,121.111" stroke="#8c564b" stroke-width="2" opacity="1"/></g>
<g transform="translate(0,0)" class="mark-line role-mark marks" role="graphics-object" aria-roledescription="line mark container"><path aria-label="Quarter: Q1 2015; Percentage: 68; Metric: MAUs" role="graphics-symbol" aria-roledescription="line mark" d="M16.071,124.444L48.214,90L80.357,58.889L112.5,11.111L144.643,116.667L176.786,88.889L208.929,35.556L241.071,0L273.214,107.778L305.357,76.667L337.5,35.556L369.643,98.889L401.786,62.222L433.929,13.333" stroke="#9edae5" stroke-width="2" opacity="1"/></g>
<g transform="translate(0,0)" class="mark-line role-mark marks" role="graphics-object" aria-roledescription="line mark container"><path aria-label="Quarter: Q1 2015; Percentage: 26; Metric: Subscribers/MAUs" role="graphics-symbol" aria-roledescription="line mark" d="M16.071,171.111L48.214,165.556L80.357,156.667L112.5,150L144.643,167.778L176.786,161.111L208.929,156.667L241.071,148.889L273.214,167.778L305.357,161.111L337.5,152.222L369.643,165.556L401.786,161.111L433.929,153.333" stroke="#1f77b4" stroke-width="2" opacity="1"/></g></g></g></g></g></g></svg>