<svg version="1.1" class="marks" width="487" height="235" viewBox="-100,-100,1000,1000" xmlns="http://www.w3.org/2000/svg" xmlns:xlink="http://www.w3.org/1999/xlink"><g ><g version="1.1" class="marks" width="487" height="235" viewBox="0 0 487 235"><g fill="none" stroke-miterlimit="10" transform="translate(28,10)"><g class="mark-group role-frame root" role="graphics-object" aria-roledescription="group mark container"><g transform="translate(0,0)" class="mark-group role-axis" role="graphics-symbol" aria-roledescription="axis" aria-label="X-axis for a discrete scale with 25 values: 1993, 1994, 1995, 1996, 1997, ending with 2017"><g transform="translate(0.5,200.5)" class="mark-rule role-axis-tick" pointer-events="none"><line transform="translate(9,0)" x2="0" y2="5" stroke="#0f223b" stroke-opacity="0" stroke-width="1" opacity="1"/>
<line transform="translate(27,0)" x2="0" y2="5" stroke="#0f223b" stroke-opacity="0" stroke-width="1" opacity="1"/>
<line transform="translate(45,0)" x2="0" y2="5" stroke="#0f223b" stroke-opacity="0" stroke-width="1" opacity="1"/>
<line transform="translate(63,0)" x2="0" y2="5" stroke="#0f223b" stroke-opacity="0" stroke-width="1" opacity="1"/>
<line transform="translate(81,0)" x2="0" y2="5" stroke="#0f223b" stroke-opacity="0" stroke-width="1" opacity="1"/>
<line transform="translate(99,0)" x2="0" y2="5" stroke="#0f223b" stroke-opacity="0" stroke-width="1" opacity="1"/>
<line transform="translate(117,0)" x2="0" y2="5" stroke="#0f223b" stroke-opacity="0" stroke-width="1" opacity="1"/>
<line transform="translate(135,0)" x2="0" y2="5" stroke="#0f223b" stroke-opacity="0" stroke-width="1" opacity="1"/>
<line transform="translate(153,0)" x2="0" y2="5" stroke="#0f223b" stroke-opacity="0" stroke-width="1" opacity="1"/>
<line transform="translate(171,0)" x2="0" y2="5" stroke="#0f223b" stroke-opacity="0" stroke-width="1" opacity="1"/>
<line transform="translate(189,0)" x2="0" y2="5" stroke="#0f223b" stroke-opacity="0" stroke-width="1" opacity="1"/>
<line transform="translate(207,0)" x2="0" y2="5" stroke="#0f223b" stroke-opacity="0" stroke-width="1" opacity="1"/>
<line transform="translate(225,0)" x2="0" y2="5" stroke="#0f223b" stroke-opacity="0" stroke-width="1" opacity="1"/>
<line transform="translate(243,0)" x2="0" y2="5" stroke="#0f223b" stroke-opacity="0" stroke-width="1" opacity="1"/>
<line transform="translate(261,0)" x2="0" y2="5" stroke="#0f223b" stroke-opacity="0" stroke-width="1" opacity="1"/>
<line transform="translate(279,0)" x2="0" y2="5" stroke="#0f223b" stroke-opacity="0" stroke-width="1" opacity="1"/>
<line transform="translate(297,0)" x2="0" y2="5" stroke="#0f223b" stroke-opacity="0" stroke-width="1" opacity="1"/>
<line transform="translate(315,0)" x2="0" y2="5" stroke="#0f223b" stroke-opacity="0" stroke-width="1" opacity="1"/>
<line transform="translate(333,0)" x2="0" y2="5" stroke="#0f223b" stroke-opacity="0" stroke-width="1" opacity="1"/>
<line transform="translate(351,0)" x2="0" y2="5" stroke="#0f223b" stroke-opacity="0" stroke-width="1" opacity="1"/>
<line transform="translate(369,0)" x2="0" y2="5" stroke="#0f223b" stroke-opacity="0" stroke-width="1" opacity="1"/>
<line transform="translate(387,0)" x2="0" y2="5" stroke="#0f223b" stroke-opacity="0" stroke-width="1" opacity="1"/>
<line transform="translate(405,0)" x2="0" y2="5" stroke="#0f223b" stroke-opacity="0" stroke-width="1" opacity="1"/>
<line transform="translate(423,0)" x2="0" y2="5" stroke="#0f223b" stroke-opacity="0" stroke-width="1" opacity="1"/>
<line transform="translate(441,0)" x2="0" y2="5" stroke="#0f223b" stroke-opacity="0" stroke-width="1" opacity="1"/></g>
<g transform="translate(0.5,200.5)" class="mark-text role-axis-label" pointer-events="none"><text text-anchor="middle" transform="translate(9,18)" font-family="sans-serif" font-size="10px" fill="#000d2a" opacity="1">1993
</text>
<text text-anchor="middle" transform="translate(27,18)" font-family="sans-serif" font-size="10px" fill="#000d2a" opacity="1">1994
</text>
<text text-anchor="middle" transform="translate(45,18)" font-family="sans-serif" font-size="10px" fill="#000d2a" opacity="1">1995
</text>
<text text-anchor="middle" transform="translate(63,18)" font-family="sans-serif" font-size="10px" fill="#000d2a" opacity="1">1996
</text>
<text text-anchor="middle" transform="translate(81,18)" font-family="sans-serif" font-size="10px" fill="#000d2a" opacity="1">1997
</text>
<text text-anchor="middle" transform="translate(99,18)" font-family="sans-serif" font-size="10px" fill="#000d2a" opacity="1">1998
</text>
<text text-anchor="middle" transform="translate(117,18)" font-family="sans-serif" font-size="10px" fill="#000d2a" opacity="1">1999
</text>
<text text-anchor="middle" transform="translate(135,18)" font-family="sans-serif" font-size="10px" fill="#000d2a" opacity="1">2000
</text>
<text text-anchor="middle" transform="translate(153,18)" font-family="sans-serif" font-size="10px" fill="#000d2a" opacity="1">2001
</text>
<text text-anchor="middle" transform="translate(171,18)" font-family="sans-serif" font-size="10px" fill="#000d2a" opacity="1">2002
</text>
<text text-anchor="middle" transform="translate(189,18)" font-family="sans-serif" font-size="10px" fill="#000d2a" opacity="1">2003
</text>
<text text-anchor="middle" transform="translate(207,18)" font-family="sans-serif" font-size="10px" fill="#000d2a" opacity="1">2004
</text>
<text text-anchor="middle" transform="translate(225,18)" font-family="sans-serif" font-size="10px" fill="#000d2a" opacity="1">2005
</text>
<text text-anchor="middle" transform="translate(243,18)" font-family="sans-serif" font-size="10px" fill="#000d2a" opacity="1">2006
</text>
<text text-anchor="middle" transform="translate(261,18)" font-family="sans-serif" font-size="10px" fill="#000d2a" opacity="1">2007
</text>
<text text-anchor="middle" transform="translate(279,18)" font-family="sans-serif" font-size="10px" fill="#000d2a" opacity="1">2008
</text>
<text text-anchor="middle" transform="translate(297,18)" font-family="sans-serif" font-size="10px" fill="#000d2a" opacity="1">2009
</text>
<text text-anchor="middle" transform="translate(315,18)" font-family="sans-serif" font-size="10px" fill="#000d2a" opacity="1">2010
</text>
<text text-anchor="middle" transform="translate(333,18)" font-family="sans-serif" font-size="10px" fill="#000d2a" opacity="1">2011
</text>
<text text-anchor="middle" transform="translate(351,18)" font-family="sans-serif" font-size="10px" fill="#000d2a" opacity="1">2012
</text>
<text text-anchor="middle" transform="translate(369,18)" font-family="sans-serif" font-size="10px" fill="#000d2a" opacity="1">2013
</text>
<text text-anchor="middle" transform="translate(387,18)" font-family="sans-serif" font-size="10px" fill="#000d2a" opacity="1">2014
</text>
<text text-anchor="middle" transform="translate(405,18)" font-family="sans-serif" font-size="10px" fill="#000d2a" opacity="1">2015
</text>
<text text-anchor="middle" transform="translate(423,18)" font-family="sans-serif" font-size="10px" fill="#000d2a" opacity="1">2016
</text>
<text text-anchor="middle" transform="translate(441,18)" font-family="sans-serif" font-size="10px" fill="#000d2a" opacity="1">2017
</text></g>
<g transform="translate(0.5,200.5)" class="mark-rule role-axis-domain" pointer-events="none"><line transform="translate(0,0)" x2="450" y2="0" stroke="#0f223b" stroke-opacity="0" stroke-width="1" opacity="1"/></g></g>
<g transform="translate(0,0)" class="mark-group role-axis" role="graphics-symbol" aria-roledescription="axis" aria-label="Y-axis for a linear scale with values from 0 to 70"><g transform="translate(0.5,0.5)" class="mark-rule role-axis-tick" pointer-events="none"><line transform="translate(0,200)" x2="-5" y2="0" stroke="#0f223b" stroke-opacity="0" stroke-width="1" opacity="1"/>
<line transform="translate(0,171)" x2="-5" y2="0" stroke="#0f223b" stroke-opacity="0" stroke-width="1" opacity="1"/>
<line transform="translate(0,143)" x2="-5" y2="0" stroke="#0f223b" stroke-opacity="0" stroke-width="1" opacity="1"/>
<line transform="translate(0,114)" x2="-5" y2="0" stroke="#0f223b" stroke-opacity="0" stroke-width="1" opacity="1"/>
<line transform="translate(0,86)" x2="-5" y2="0" stroke="#0f223b" stroke-opacity="0" stroke-width="1" opacity="1"/>
<line transform="translate(0,57)" x2="-5" y2="0" stroke="#0f223b" stroke-opacity="0" stroke-width="1" opacity="1"/>
<line transform="translate(0,29)" x2="-5" y2="0" stroke="#0f223b" stroke-opacity="0" stroke-width="1" opacity="1"/>
<line transform="translate(0,0)" x2="-5" y2="0" stroke="#0f223b" stroke-opacity="0" stroke-width="1" opacity="1"/></g>
<g transform="translate(0.5,0.5)" class="mark-text role-axis-label" pointer-events="none"><text text-anchor="end" transform="translate(-10,203)" font-family="sans-serif" font-size="10px" fill="#000d2a" opacity="1">0
</text>
<text text-anchor="end" transform="translate(-10,174.42857142857144)" font-family="sans-serif" font-size="10px" fill="#000d2a" opacity="1">10
</text>
<text text-anchor="end" transform="translate(-10,145.85714285714286)" font-family="sans-serif" font-size="10px" fill="#000d2a" opacity="1">20
</text>
<text text-anchor="end" transform="translate(-10,117.28571428571428)" font-family="sans-serif" font-size="10px" fill="#000d2a" opacity="1">30
</text>
<text text-anchor="end" transform="translate(-10,88.71428571428572)" font-family="sans-serif" font-size="10px" fill="#000d2a" opacity="1">40
</text>
<text text-anchor="end" transform="translate(-10,60.14285714285714)" font-family="sans-serif" font-size="10px" fill="#000d2a" opacity="1">50
</text>
<text text-anchor="end" transform="translate(-10,31.57142857142858)" font-family="sans-serif" font-size="10px" fill="#000d2a" opacity="1">60
</text>
<text text-anchor="end" transform="translate(-10,3)" font-family="sans-serif" font-size="10px" fill="#000d2a" opacity="1">70
</text></g>
<g transform="translate(0.5,0.5)" class="mark-rule role-axis-domain" pointer-events="none"><line transform="translate(0,200)" x2="0" y2="-200" stroke="#0f223b" stroke-opacity="0" stroke-width="1" opacity="1"/></g></g>
<g transform="translate(0,0)" class="mark-line role-mark marks" role="graphics-object" aria-roledescription="line mark container"><path aria-label="Year: 1993; Viewers: 66.9" role="graphics-symbol" aria-roledescription="line mark" d="M9,8.857L12,18.952C15,29.048,21,49.238,27,61.19C33,73.143,39,76.857,45,78.667C51,80.476,57,80.381,63,80.333C69,80.286,75,80.286,81,75.571C87,70.857,93,61.429,99,60.667C105,59.905,111,67.81,117,77.476C123,87.143,129,98.571,135,100.19C141,101.81,147,93.619,153,83.952C159,74.286,165,63.143,171,52.686C177,42.229,183,32.457,189,36.419C195,40.381,201,58.076,207,68.305C213,78.533,219,81.295,225,82.152C231,83.01,237,81.962,243,79.633C249,77.305,255,73.695,261,75.557C267,77.419,273,84.752,279,81.467C285,78.181,291,64.276,297,59.405C303,54.533,309,58.695,315,63.248C321,67.8,327,72.743,333,77.595C339,82.448,345,87.21,351,91.652C357,96.095,363,100.219,369,102.367C375,104.514,381,104.686,387,105.529C393,106.371,399,107.886,405,108.824C411,109.762,417,110.124,423,102.49C429,94.857,435,79.229,438,71.414L441,63.6" stroke="#4c78a8" stroke-width="2" opacity="1"/></g></g></g></g></g></svg>