<svg version="1.1" class="marks" width="494" height="232" viewBox="-100,-100,1000,1000" xmlns="http://www.w3.org/2000/svg" xmlns:xlink="http://www.w3.org/1999/xlink"><g ><g version="1.1" class="marks" width="494" height="232" viewBox="0 0 494 232"><g fill="none" stroke-miterlimit="10" transform="translate(35,7)"><g class="mark-group role-frame root" role="graphics-object" aria-roledescription="group mark container"><g transform="translate(0,0)" class="mark-group role-axis" role="graphics-symbol" aria-roledescription="axis" aria-label="X-axis for a discrete scale with 25 values: 2000, 2001, 2002, 2003, 2004, ending with 2024"><g transform="translate(0.5,200.5)" class="mark-rule role-axis-tick" pointer-events="none"><line transform="translate(9,0)" x2="0" y2="5" stroke="#0f223b" stroke-opacity="0" stroke-width="1" opacity="1"/>
<line transform="translate(27,0)" x2="0" y2="5" stroke="#0f223b" stroke-opacity="0" stroke-width="1" opacity="1"/>
<line transform="translate(45,0)" x2="0" y2="5" stroke="#0f223b" stroke-opacity="0" stroke-width="1" opacity="1"/>
<line transform="translate(63,0)" x2="0" y2="5" stroke="#0f223b" stroke-opacity="0" stroke-width="1" opacity="1"/>
<line transform="translate(81,0)" x2="0" y2="5" stroke="#0f223b" stroke-opacity="0" stroke-width="1" opacity="1"/>
<line transform="translate(99,0)" x2="0" y2="5" stroke="#0f223b" stroke-opacity="0" stroke-width="1" opacity="1"/>
<line transform="translate(117,0)" x2="0" y2="5" stroke="#0f223b" stroke-opacity="0" stroke-width="1" opacity="1"/>
<line transform="translate(135,0)" x2="0" y2="5" stroke="#0f223b" stroke-opacity="0" stroke-width="1" opacity="1"/>
<line transform="translate(153,0)" x2="0" y2="5" stroke="#0f223b" stroke-opacity="0" stroke-width="1" opacity="1"/>
<line transform="translate(171,0)" x2="0" y2="5" stroke="#0f223b" stroke-opacity="0" stroke-width="1" opacity="1"/>
<line transform="translate(189,0)" x2="0" y2="5" stroke="#0f223b" stroke-opacity="0" stroke-width="1" opacity="1"/>
<line transform="translate(207,0)" x2="0" y2="5" stroke="#0f223b" stroke-opacity="0" stroke-width="1" opacity="1"/>
<line transform="translate(225,0)" x2="0" y2="5" stroke="#0f223b" stroke-opacity="0" stroke-width="1" opacity="1"/>
<line transform="translate(243,0)" x2="0" y2="5" stroke="#0f223b" stroke-opacity="0" stroke-width="1" opacity="1"/>
<line transform="translate(261,0)" x2="0" y2="5" stroke="#0f223b" stroke-opacity="0" stroke-width="1" opacity="1"/>
<line transform="translate(279,0)" x2="0" y2="5" stroke="#0f223b" stroke-opacity="0" stroke-width="1" opacity="1"/>
<line transform="translate(297,0)" x2="0" y2="5" stroke="#0f223b" stroke-opacity="0" stroke-width="1" opacity="1"/>
<line transform="translate(315,0)" x2="0" y2="5" stroke="#0f223b" stroke-opacity="0" stroke-width="1" opacity="1"/>
<line transform="translate(333,0)" x2="0" y2="5" stroke="#0f223b" stroke-opacity="0" stroke-width="1" opacity="1"/>
<line transform="translate(351,0)" x2="0" y2="5" stroke="#0f223b" stroke-opacity="0" stroke-width="1" opacity="1"/>
<line transform="translate(369,0)" x2="0" y2="5" stroke="#0f223b" stroke-opacity="0" stroke-width="1" opacity="1"/>
<line transform="translate(387,0)" x2="0" y2="5" stroke="#0f223b" stroke-opacity="0" stroke-width="1" opacity="1"/>
<line transform="translate(405,0)" x2="0" y2="5" stroke="#0f223b" stroke-opacity="0" stroke-width="1" opacity="1"/>
<line transform="translate(423,0)" x2="0" y2="5" stroke="#0f223b" stroke-opacity="0" stroke-width="1" opacity="1"/>
<line transform="translate(441,0)" x2="0" y2="5" stroke="#0f223b" stroke-opacity="0" stroke-width="1" opacity="1"/></g>
<g transform="translate(0.5,200.5)" class="mark-text role-axis-label" pointer-events="none"><text text-anchor="middle" transform="translate(9,18)" font-family="sans-serif" font-size="10px" fill="#000d2a" opacity="1">2000
</text>
<text text-anchor="middle" transform="translate(27,18)" font-family="sans-serif" font-size="10px" fill="#000d2a" opacity="1">2001
</text>
<text text-anchor="middle" transform="translate(45,18)" font-family="sans-serif" font-size="10px" fill="#000d2a" opacity="1">2002
</text>
<text text-anchor="middle" transform="translate(63,18)" font-family="sans-serif" font-size="10px" fill="#000d2a" opacity="1">2003
</text>
<text text-anchor="middle" transform="translate(81,18)" font-family="sans-serif" font-size="10px" fill="#000d2a" opacity="1">2004
</text>
<text text-anchor="middle" transform="translate(99,18)" font-family="sans-serif" font-size="10px" fill="#000d2a" opacity="1">2005
</text>
<text text-anchor="middle" transform="translate(117,18)" font-family="sans-serif" font-size="10px" fill="#000d2a" opacity="1">2006
</text>
<text text-anchor="middle" transform="translate(135,18)" font-family="sans-serif" font-size="10px" fill="#000d2a" opacity="1">2007
</text>
<text text-anchor="middle" transform="translate(153,18)" font-family="sans-serif" font-size="10px" fill="#000d2a" opacity="1">2008
</text>
<text text-anchor="middle" transform="translate(171,18)" font-family="sans-serif" font-size="10px" fill="#000d2a" opacity="1">2009
</text>
<text text-anchor="middle" transform="translate(189,18)" font-family="sans-serif" font-size="10px" fill="#000d2a" opacity="1">2010
</text>
<text text-anchor="middle" transform="translate(207,18)" font-family="sans-serif" font-size="10px" fill="#000d2a" opacity="1">2011
</text>
<text text-anchor="middle" transform="translate(225,18)" font-family="sans-serif" font-size="10px" fill="#000d2a" opacity="1">2012
</text>
<text text-anchor="middle" transform="translate(243,18)" font-family="sans-serif" font-size="10px" fill="#000d2a" opacity="1">2013
</text>
<text text-anchor="middle" transform="translate(261,18)" font-family="sans-serif" font-size="10px" fill="#000d2a" opacity="1">2014
</text>
<text text-anchor="middle" transform="translate(279,18)" font-family="sans-serif" font-size="10px" fill="#000d2a" opacity="1">2015
</text>
<text text-anchor="middle" transform="translate(297,18)" font-family="sans-serif" font-size="10px" fill="#000d2a" opacity="1">2016
</text>
<text text-anchor="middle" transform="translate(315,18)" font-family="sans-serif" font-size="10px" fill="#000d2a" opacity="1">2017
</text>
<text text-anchor="middle" transform="translate(333,18)" font-family="sans-serif" font-size="10px" fill="#000d2a" opacity="1">2018
</text>
<text text-anchor="middle" transform="translate(351,18)" font-family="sans-serif" font-size="10px" fill="#000d2a" opacity="1">2019
</text>
<text text-anchor="middle" transform="translate(369,18)" font-family="sans-serif" font-size="10px" fill="#000d2a" opacity="1">2020
</text>
<text text-anchor="middle" transform="translate(387,18)" font-family="sans-serif" font-size="10px" fill="#000d2a" opacity="1">2021
</text>
<text text-anchor="middle" transform="translate(405,18)" font-family="sans-serif" font-size="10px" fill="#000d2a" opacity="1">2022
</text>
<text text-anchor="middle" transform="translate(423,18)" font-family="sans-serif" font-size="10px" fill="#000d2a" opacity="1">2023
</text>
<text text-anchor="middle" transform="translate(441,18)" font-family="sans-serif" font-size="10px" fill="#000d2a" opacity="1">2024
</text></g>
<g transform="translate(0.5,200.5)" class="mark-rule role-axis-domain" pointer-events="none"><line transform="translate(0,0)" x2="450" y2="0" stroke="#0f223b" stroke-opacity="0" stroke-width="1" opacity="1"/></g></g>
<g transform="translate(0,0)" class="mark-group role-axis" role="graphics-symbol" aria-roledescription="axis" aria-label="Y-axis for a linear scale with values from 0 to 110"><g transform="translate(0.5,0.5)" class="mark-rule role-axis-tick" pointer-events="none"><line transform="translate(0,200)" x2="-5" y2="0" stroke="#0f223b" stroke-opacity="0" stroke-width="1" opacity="1"/>
<line transform="translate(0,164)" x2="-5" y2="0" stroke="#0f223b" stroke-opacity="0" stroke-width="1" opacity="1"/>
<line transform="translate(0,127)" x2="-5" y2="0" stroke="#0f223b" stroke-opacity="0" stroke-width="1" opacity="1"/>
<line transform="translate(0,91)" x2="-5" y2="0" stroke="#0f223b" stroke-opacity="0" stroke-width="1" opacity="1"/>
<line transform="translate(0,55)" x2="-5" y2="0" stroke="#0f223b" stroke-opacity="0" stroke-width="1" opacity="1"/>
<line transform="translate(0,18)" x2="-5" y2="0" stroke="#0f223b" stroke-opacity="0" stroke-width="1" opacity="1"/></g>
<g transform="translate(0.5,0.5)" class="mark-text role-axis-label" pointer-events="none"><text text-anchor="end" transform="translate(-10,203)" font-family="sans-serif" font-size="10px" fill="#000d2a" opacity="1">0
</text>
<text text-anchor="end" transform="translate(-10,166.63636363636363)" font-family="sans-serif" font-size="10px" fill="#000d2a" opacity="1">20
</text>
<text text-anchor="end" transform="translate(-10,130.27272727272725)" font-family="sans-serif" font-size="10px" fill="#000d2a" opacity="1">40
</text>
<text text-anchor="end" transform="translate(-10,93.90909090909092)" font-family="sans-serif" font-size="10px" fill="#000d2a" opacity="1">60
</text>
<text text-anchor="end" transform="translate(-10,57.54545454545454)" font-family="sans-serif" font-size="10px" fill="#000d2a" opacity="1">80
</text>
<text text-anchor="end" transform="translate(-10,21.181818181818187)" font-family="sans-serif" font-size="10px" fill="#000d2a" opacity="1">100
</text></g>
<g transform="translate(0.5,0.5)" class="mark-rule role-axis-domain" pointer-events="none"><line transform="translate(0,200)" x2="0" y2="-200" stroke="#0f223b" stroke-opacity="0" stroke-width="1" opacity="1"/></g></g>
<g transform="translate(0,0)" class="mark-line role-mark marks" role="graphics-object" aria-roledescription="line mark container"><path aria-label="Year: 2000; Consumer Sentiment Index: 110" role="graphics-symbol" aria-roledescription="line mark" d="M9,0L18,0L18,0L36,0L36,36.364L54,36.364L54,27.273L72,27.273L72,18.182L90,18.182L90,27.273L108,27.273L108,27.273L126,27.273L126,36.364L144,36.364L144,90.909L162,90.909L162,72.727L180,72.727L180,63.636L198,63.636L198,72.727L216,72.727L216,54.545L234,54.545L234,45.455L252,45.455L252,45.455L270,45.455L270,27.273L288,27.273L288,27.273L306,27.273L306,18.182L324,18.182L324,18.182L342,18.182L342,21.818L360,21.818L360,54.545L378,54.545L378,72.727L396,72.727L396,90.909L414,90.909L414,72.727L432,72.727L432,54.545L441,54.545" stroke="#4c78a8" stroke-width="2" opacity="1"/></g></g></g></g></g></svg>