<svg version="1.1" class="marks" width="492" height="235" viewBox="-100,-100,1000,1000" xmlns="http://www.w3.org/2000/svg" xmlns:xlink="http://www.w3.org/1999/xlink"><g ><g version="1.1" class="marks" width="492" height="235" viewBox="0 0 492 235"><g fill="none" stroke-miterlimit="10" transform="translate(37,10)"><g class="mark-group role-frame root" role="graphics-object" aria-roledescription="group mark container"><g transform="translate(0,0)" class="mark-group role-axis" role="graphics-symbol" aria-roledescription="axis" aria-label="X-axis for a discrete scale with 5 values: 1980, 1990, 2000, 2010, 2020"><g transform="translate(0.5,200.5)" class="mark-rule role-axis-tick" pointer-events="none"><line transform="translate(45,0)" x2="0" y2="5" stroke="#0f223b" stroke-opacity="0" stroke-width="1" opacity="1"/>
<line transform="translate(135,0)" x2="0" y2="5" stroke="#0f223b" stroke-opacity="0" stroke-width="1" opacity="1"/>
<line transform="translate(225,0)" x2="0" y2="5" stroke="#0f223b" stroke-opacity="0" stroke-width="1" opacity="1"/>
<line transform="translate(315,0)" x2="0" y2="5" stroke="#0f223b" stroke-opacity="0" stroke-width="1" opacity="1"/>
<line transform="translate(405,0)" x2="0" y2="5" stroke="#0f223b" stroke-opacity="0" stroke-width="1" opacity="1"/></g>
<g transform="translate(0.5,200.5)" class="mark-text role-axis-label" pointer-events="none"><text text-anchor="middle" transform="translate(45,18)" font-family="sans-serif" font-size="10px" fill="#000d2a" opacity="1">1980
</text>
<text text-anchor="middle" transform="translate(135,18)" font-family="sans-serif" font-size="10px" fill="#000d2a" opacity="1">1990
</text>
<text text-anchor="middle" transform="translate(225,18)" font-family="sans-serif" font-size="10px" fill="#000d2a" opacity="1">2000
</text>
<text text-anchor="middle" transform="translate(315,18)" font-family="sans-serif" font-size="10px" fill="#000d2a" opacity="1">2010
</text>
<text text-anchor="middle" transform="translate(405,18)" font-family="sans-serif" font-size="10px" fill="#000d2a" opacity="1">2020
</text></g>
<g transform="translate(0.5,200.5)" class="mark-rule role-axis-domain" pointer-events="none"><line transform="translate(0,0)" x2="450" y2="0" stroke="#0f223b" stroke-opacity="0" stroke-width="1" opacity="1"/></g></g>
<g transform="translate(0,0)" class="mark-group role-axis" role="graphics-symbol" aria-roledescription="axis" aria-label="Y-axis for a linear scale with values from −24 to 0"><g transform="translate(0.5,0.5)" class="mark-rule role-axis-tick" pointer-events="none"><line transform="translate(0,167)" x2="-5" y2="0" stroke="#0f223b" stroke-opacity="0" stroke-width="1" opacity="1"/>
<line transform="translate(0,125)" x2="-5" y2="0" stroke="#0f223b" stroke-opacity="0" stroke-width="1" opacity="1"/>
<line transform="translate(0,83)" x2="-5" y2="0" stroke="#0f223b" stroke-opacity="0" stroke-width="1" opacity="1"/>
<line transform="translate(0,42)" x2="-5" y2="0" stroke="#0f223b" stroke-opacity="0" stroke-width="1" opacity="1"/>
<line transform="translate(0,0)" x2="-5" y2="0" stroke="#0f223b" stroke-opacity="0" stroke-width="1" opacity="1"/></g>
<g transform="translate(0.5,0.5)" class="mark-text role-axis-label" pointer-events="none"><text text-anchor="end" transform="translate(-10,169.66666666666669)" font-family="sans-serif" font-size="10px" fill="#000d2a" opacity="1">−20
</text>
<text text-anchor="end" transform="translate(-10,128)" font-family="sans-serif" font-size="10px" fill="#000d2a" opacity="1">−15
</text>
<text text-anchor="end" transform="translate(-10,86.33333333333333)" font-family="sans-serif" font-size="10px" fill="#000d2a" opacity="1">−10
</text>
<text text-anchor="end" transform="translate(-10,44.66666666666667)" font-family="sans-serif" font-size="10px" fill="#000d2a" opacity="1">−5
</text>
<text text-anchor="end" transform="translate(-10,3)" font-family="sans-serif" font-size="10px" fill="#000d2a" opacity="1">0
</text></g>
<g transform="translate(0.5,0.5)" class="mark-rule role-axis-domain" pointer-events="none"><line transform="translate(0,200)" x2="0" y2="-200" stroke="#0f223b" stroke-opacity="0" stroke-width="1" opacity="1"/></g></g>
<g transform="translate(0,0)" class="mark-line role-mark marks" role="graphics-object" aria-roledescription="line mark container"><path aria-label="Year: 1980; Wage Gap: −7.5" role="graphics-symbol" aria-roledescription="line mark" d="M45,62.5L60,62.5C75,62.5,105,62.5,135,83.333C165,104.167,195,145.833,225,152.778C255,159.722,285,131.944,315,127.361C345,122.778,375,141.389,390,150.694L405,160" stroke="#4c78a8" stroke-width="2" opacity="1"/></g></g></g></g></g></svg>