<svg version="1.1" class="marks" width="1000" height="1000" viewBox="0 0 1000 1000" xmlns="http://www.w3.org/2000/svg" xmlns:xlink="http://www.w3.org/1999/xlink"><g transform="translate(100,100)"><line transform="translate(51.0,5.0) translate(0.5,0.5) translate(0,200)" x2="240" y2="0" stroke="#ddd" stroke-width="1" opacity="1" class="mark-rule role-axis-grid" pointer-events="none" aria-hidden="true" fill="none" stroke-miterlimit="10" role="graphics-object" aria-roledescription="group mark container" version="1.1" width="296" height="376" viewBox="0 0 296 376"/>
<line transform="translate(51.0,5.0) translate(0.5,0.5) translate(0,156)" x2="240" y2="0" stroke="#ddd" stroke-width="1" opacity="1" class="mark-rule role-axis-grid" pointer-events="none" aria-hidden="true" fill="none" stroke-miterlimit="10" role="graphics-object" aria-roledescription="group mark container" version="1.1" width="296" height="376" viewBox="0 0 296 376"/>
<line transform="translate(51.0,5.0) translate(0.5,0.5) translate(0,111)" x2="240" y2="0" stroke="#ddd" stroke-width="1" opacity="1" class="mark-rule role-axis-grid" pointer-events="none" aria-hidden="true" fill="none" stroke-miterlimit="10" role="graphics-object" aria-roledescription="group mark container" version="1.1" width="296" height="376" viewBox="0 0 296 376"/>
<line transform="translate(51.0,5.0) translate(0.5,0.5) translate(0,67)" x2="240" y2="0" stroke="#ddd" stroke-width="1" opacity="1" class="mark-rule role-axis-grid" pointer-events="none" aria-hidden="true" fill="none" stroke-miterlimit="10" role="graphics-object" aria-roledescription="group mark container" version="1.1" width="296" height="376" viewBox="0 0 296 376"/>
<line transform="translate(51.0,5.0) translate(0.5,0.5) translate(0,22)" x2="240" y2="0" stroke="#ddd" stroke-width="1" opacity="1" class="mark-rule role-axis-grid" pointer-events="none" aria-hidden="true" fill="none" stroke-miterlimit="10" role="graphics-object" aria-roledescription="group mark container" version="1.1" width="296" height="376" viewBox="0 0 296 376"/>
<path class="foreground" aria-hidden="true" d="" pointer-events="none" display="none" transform="translate(51.0,5.0) translate(0.5,0.5)" fill="none" stroke-miterlimit="10" role="graphics-object" aria-roledescription="group mark container" version="1.1" width="296" height="376" viewBox="0 0 296 376"/>
<line transform="translate(51.0,5.0) translate(0.5,200.5) translate(10,0)" x2="0" y2="5" stroke="#888" stroke-width="1" opacity="1" class="mark-rule role-axis-tick" pointer-events="none" role="graphics-symbol" aria-roledescription="axis" aria-label="X-axis titled 'category' for a discrete scale with 12 values: Belgium/Luxembourg, Canada, China, France, Germany, ending with United States" fill="none" stroke-miterlimit="10" version="1.1" width="296" height="376" viewBox="0 0 296 376"/>
<line transform="translate(51.0,5.0) translate(0.5,200.5) translate(30,0)" x2="0" y2="5" stroke="#888" stroke-width="1" opacity="1" class="mark-rule role-axis-tick" pointer-events="none" role="graphics-symbol" aria-roledescription="axis" aria-label="X-axis titled 'category' for a discrete scale with 12 values: Belgium/Luxembourg, Canada, China, France, Germany, ending with United States" fill="none" stroke-miterlimit="10" version="1.1" width="296" height="376" viewBox="0 0 296 376"/>
<line transform="translate(51.0,5.0) translate(0.5,200.5) translate(50,0)" x2="0" y2="5" stroke="#888" stroke-width="1" opacity="1" class="mark-rule role-axis-tick" pointer-events="none" role="graphics-symbol" aria-roledescription="axis" aria-label="X-axis titled 'category' for a discrete scale with 12 values: Belgium/Luxembourg, Canada, China, France, Germany, ending with United States" fill="none" stroke-miterlimit="10" version="1.1" width="296" height="376" viewBox="0 0 296 376"/>
<line transform="translate(51.0,5.0) translate(0.5,200.5) translate(70,0)" x2="0" y2="5" stroke="#888" stroke-width="1" opacity="1" class="mark-rule role-axis-tick" pointer-events="none" role="graphics-symbol" aria-roledescription="axis" aria-label="X-axis titled 'category' for a discrete scale with 12 values: Belgium/Luxembourg, Canada, China, France, Germany, ending with United States" fill="none" stroke-miterlimit="10" version="1.1" width="296" height="376" viewBox="0 0 296 376"/>
<line transform="translate(51.0,5.0) translate(0.5,200.5) translate(90,0)" x2="0" y2="5" stroke="#888" stroke-width="1" opacity="1" class="mark-rule role-axis-tick" pointer-events="none" role="graphics-symbol" aria-roledescription="axis" aria-label="X-axis titled 'category' for a discrete scale with 12 values: Belgium/Luxembourg, Canada, China, France, Germany, ending with United States" fill="none" stroke-miterlimit="10" version="1.1" width="296" height="376" viewBox="0 0 296 376"/>
<line transform="translate(51.0,5.0) translate(0.5,200.5) translate(110,0)" x2="0" y2="5" stroke="#888" stroke-width="1" opacity="1" class="mark-rule role-axis-tick" pointer-events="none" role="graphics-symbol" aria-roledescription="axis" aria-label="X-axis titled 'category' for a discrete scale with 12 values: Belgium/Luxembourg, Canada, China, France, Germany, ending with United States" fill="none" stroke-miterlimit="10" version="1.1" width="296" height="376" viewBox="0 0 296 376"/>
<line transform="translate(51.0,5.0) translate(0.5,200.5) translate(130,0)" x2="0" y2="5" stroke="#888" stroke-width="1" opacity="1" class="mark-rule role-axis-tick" pointer-events="none" role="graphics-symbol" aria-roledescription="axis" aria-label="X-axis titled 'category' for a discrete scale with 12 values: Belgium/Luxembourg, Canada, China, France, Germany, ending with United States" fill="none" stroke-miterlimit="10" version="1.1" width="296" height="376" viewBox="0 0 296 376"/>
<line transform="translate(51.0,5.0) translate(0.5,200.5) translate(150,0)" x2="0" y2="5" stroke="#888" stroke-width="1" opacity="1" class="mark-rule role-axis-tick" pointer-events="none" role="graphics-symbol" aria-roledescription="axis" aria-label="X-axis titled 'category' for a discrete scale with 12 values: Belgium/Luxembourg, Canada, China, France, Germany, ending with United States" fill="none" stroke-miterlimit="10" version="1.1" width="296" height="376" viewBox="0 0 296 376"/>
<line transform="translate(51.0,5.0) translate(0.5,200.5) translate(170,0)" x2="0" y2="5" stroke="#888" stroke-width="1" opacity="1" class="mark-rule role-axis-tick" pointer-events="none" role="graphics-symbol" aria-roledescription="axis" aria-label="X-axis titled 'category' for a discrete scale with 12 values: Belgium/Luxembourg, Canada, China, France, Germany, ending with United States" fill="none" stroke-miterlimit="10" version="1.1" width="296" height="376" viewBox="0 0 296 376"/>
<line transform="translate(51.0,5.0) translate(0.5,200.5) translate(190,0)" x2="0" y2="5" stroke="#888" stroke-width="1" opacity="1" class="mark-rule role-axis-tick" pointer-events="none" role="graphics-symbol" aria-roledescription="axis" aria-label="X-axis titled 'category' for a discrete scale with 12 values: Belgium/Luxembourg, Canada, China, France, Germany, ending with United States" fill="none" stroke-miterlimit="10" version="1.1" width="296" height="376" viewBox="0 0 296 376"/>
<line transform="translate(51.0,5.0) translate(0.5,200.5) translate(210,0)" x2="0" y2="5" stroke="#888" stroke-width="1" opacity="1" class="mark-rule role-axis-tick" pointer-events="none" role="graphics-symbol" aria-roledescription="axis" aria-label="X-axis titled 'category' for a discrete scale with 12 values: Belgium/Luxembourg, Canada, China, France, Germany, ending with United States" fill="none" stroke-miterlimit="10" version="1.1" width="296" height="376" viewBox="0 0 296 376"/>
<line transform="translate(51.0,5.0) translate(0.5,200.5) translate(230,0)" x2="0" y2="5" stroke="#888" stroke-width="1" opacity="1" class="mark-rule role-axis-tick" pointer-events="none" role="graphics-symbol" aria-roledescription="axis" aria-label="X-axis titled 'category' for a discrete scale with 12 values: Belgium/Luxembourg, Canada, China, France, Germany, ending with United States" fill="none" stroke-miterlimit="10" version="1.1" width="296" height="376" viewBox="0 0 296 376"/>
<line transform="translate(51.0,5.0) translate(0.5,200.5) translate(0,0)" x2="240" y2="0" stroke="#888" stroke-width="1" opacity="1" class="mark-rule role-axis-domain" pointer-events="none" role="graphics-symbol" aria-roledescription="axis" aria-label="X-axis titled 'category' for a discrete scale with 12 values: Belgium/Luxembourg, Canada, China, France, Germany, ending with United States" fill="none" stroke-miterlimit="10" version="1.1" width="296" height="376" viewBox="0 0 296 376"/>
<text text-anchor="middle" transform="translate(51.0,5.0) translate(0.5,200.5) translate(120,164)" font-family="sans-serif" font-size="11px" font-weight="bold" fill="#000" opacity="1" class="mark-text role-axis-title" pointer-events="none" role="graphics-symbol" aria-roledescription="axis" aria-label="X-axis titled 'category' for a discrete scale with 12 values: Belgium/Luxembourg, Canada, China, France, Germany, ending with United States" stroke-miterlimit="10" version="1.1" width="296" height="376" viewBox="0 0 296 376">category
</text>
<path class="foreground" aria-hidden="true" d="" pointer-events="none" display="none" role="graphics-symbol" aria-roledescription="axis" aria-label="X-axis titled 'category' for a discrete scale with 12 values: Belgium/Luxembourg, Canada, China, France, Germany, ending with United States" transform="translate(51.0,5.0) translate(0.5,200.5)" fill="none" stroke-miterlimit="10" version="1.1" width="296" height="376" viewBox="0 0 296 376"/>
<line transform="translate(51.0,5.0) translate(0.5,0.5) translate(0,200)" x2="-5" y2="0" stroke="#888" stroke-width="1" opacity="1" class="mark-rule role-axis-tick" pointer-events="none" role="graphics-symbol" aria-roledescription="axis" aria-label="Y-axis titled 'value' for a linear scale with values from 0 to 900" fill="none" stroke-miterlimit="10" version="1.1" width="296" height="376" viewBox="0 0 296 376"/>
<line transform="translate(51.0,5.0) translate(0.5,0.5) translate(0,156)" x2="-5" y2="0" stroke="#888" stroke-width="1" opacity="1" class="mark-rule role-axis-tick" pointer-events="none" role="graphics-symbol" aria-roledescription="axis" aria-label="Y-axis titled 'value' for a linear scale with values from 0 to 900" fill="none" stroke-miterlimit="10" version="1.1" width="296" height="376" viewBox="0 0 296 376"/>
<line transform="translate(51.0,5.0) translate(0.5,0.5) translate(0,111)" x2="-5" y2="0" stroke="#888" stroke-width="1" opacity="1" class="mark-rule role-axis-tick" pointer-events="none" role="graphics-symbol" aria-roledescription="axis" aria-label="Y-axis titled 'value' for a linear scale with values from 0 to 900" fill="none" stroke-miterlimit="10" version="1.1" width="296" height="376" viewBox="0 0 296 376"/>
<line transform="translate(51.0,5.0) translate(0.5,0.5) translate(0,67)" x2="-5" y2="0" stroke="#888" stroke-width="1" opacity="1" class="mark-rule role-axis-tick" pointer-events="none" role="graphics-symbol" aria-roledescription="axis" aria-label="Y-axis titled 'value' for a linear scale with values from 0 to 900" fill="none" stroke-miterlimit="10" version="1.1" width="296" height="376" viewBox="0 0 296 376"/>
<line transform="translate(51.0,5.0) translate(0.5,0.5) translate(0,22)" x2="-5" y2="0" stroke="#888" stroke-width="1" opacity="1" class="mark-rule role-axis-tick" pointer-events="none" role="graphics-symbol" aria-roledescription="axis" aria-label="Y-axis titled 'value' for a linear scale with values from 0 to 900" fill="none" stroke-miterlimit="10" version="1.1" width="296" height="376" viewBox="0 0 296 376"/>
<line transform="translate(51.0,5.0) translate(0.5,0.5) translate(0,200)" x2="0" y2="-200" stroke="#888" stroke-width="1" opacity="1" class="mark-rule role-axis-domain" pointer-events="none" role="graphics-symbol" aria-roledescription="axis" aria-label="Y-axis titled 'value' for a linear scale with values from 0 to 900" fill="none" stroke-miterlimit="10" version="1.1" width="296" height="376" viewBox="0 0 296 376"/>
<text text-anchor="middle" transform="translate(51.0,5.0) translate(0.5,0.5) translate(-35,100) rotate(-90) translate(0,-2)" font-family="sans-serif" font-size="11px" font-weight="bold" fill="#000" opacity="1" class="mark-text role-axis-title" pointer-events="none" role="graphics-symbol" aria-roledescription="axis" aria-label="Y-axis titled 'value' for a linear scale with values from 0 to 900" stroke-miterlimit="10" version="1.1" width="296" height="376" viewBox="0 0 296 376">value
</text>
<path class="foreground" aria-hidden="true" d="" pointer-events="none" display="none" role="graphics-symbol" aria-roledescription="axis" aria-label="Y-axis titled 'value' for a linear scale with values from 0 to 900" transform="translate(51.0,5.0) translate(0.5,0.5)" fill="none" stroke-miterlimit="10" version="1.1" width="296" height="376" viewBox="0 0 296 376"/>
<path class="foreground" aria-hidden="true" d="" display="none" fill="none" stroke-miterlimit="10" role="graphics-object" aria-roledescription="group mark container" transform="translate(51.0,5.0)" version="1.1" width="296" height="376" viewBox="0 0 296 376"/>
<text text-anchor="end" transform="translate(61.0,212.5) rotate(270) translate(0,3)" font-family="sans-serif" font-size="10px" fill="#000" opacity="1" class="mark-text role-axis-label" pointer-events="none" version="1.1" width="296" height="376" viewBox="0 0 296 376">Belgium/Luxembourg
</text>
<text text-anchor="end" transform="translate(81.0,212.5) rotate(270) translate(0,3)" font-family="sans-serif" font-size="10px" fill="#000" opacity="1" class="mark-text role-axis-label" pointer-events="none" version="1.1" width="296" height="376" viewBox="0 0 296 376">Canada
</text>
<text text-anchor="end" transform="translate(101.0,212.5) rotate(270) translate(0,3)" font-family="sans-serif" font-size="10px" fill="#000" opacity="1" class="mark-text role-axis-label" pointer-events="none" version="1.1" width="296" height="376" viewBox="0 0 296 376">China
</text>
<text text-anchor="end" transform="translate(121.0,212.5) rotate(270) translate(0,3)" font-family="sans-serif" font-size="10px" fill="#000" opacity="1" class="mark-text role-axis-label" pointer-events="none" version="1.1" width="296" height="376" viewBox="0 0 296 376">France
</text>
<text text-anchor="end" transform="translate(141.0,212.5) rotate(270) translate(0,3)" font-family="sans-serif" font-size="10px" fill="#000" opacity="1" class="mark-text role-axis-label" pointer-events="none" version="1.1" width="296" height="376" viewBox="0 0 296 376">Germany
</text>
<text text-anchor="end" transform="translate(161.0,212.5) rotate(270) translate(0,3)" font-family="sans-serif" font-size="10px" fill="#000" opacity="1" class="mark-text role-axis-label" pointer-events="none" version="1.1" width="296" height="376" viewBox="0 0 296 376">Italy
</text>
<text text-anchor="end" transform="translate(181.0,212.5) rotate(270) translate(0,3)" font-family="sans-serif" font-size="10px" fill="#000" opacity="1" class="mark-text role-axis-label" pointer-events="none" version="1.1" width="296" height="376" viewBox="0 0 296 376">Japan
</text>
<text text-anchor="end" transform="translate(201.0,212.5) rotate(270) translate(0,3)" font-family="sans-serif" font-size="10px" fill="#000" opacity="1" class="mark-text role-axis-label" pointer-events="none" version="1.1" width="296" height="376" viewBox="0 0 296 376">South Korea
</text>
<text text-anchor="end" transform="translate(221.0,212.5) rotate(270) translate(0,3)" font-family="sans-serif" font-size="10px" fill="#000" opacity="1" class="mark-text role-axis-label" pointer-events="none" version="1.1" width="296" height="376" viewBox="0 0 296 376">Spain
</text>
<text text-anchor="end" transform="translate(241.0,212.5) rotate(270) translate(0,3)" font-family="sans-serif" font-size="10px" fill="#000" opacity="1" class="mark-text role-axis-label" pointer-events="none" version="1.1" width="296" height="376" viewBox="0 0 296 376">Sweden
</text>
<text text-anchor="end" transform="translate(261.0,212.5) rotate(270) translate(0,3)" font-family="sans-serif" font-size="10px" fill="#000" opacity="1" class="mark-text role-axis-label" pointer-events="none" version="1.1" width="296" height="376" viewBox="0 0 296 376">Switzerland
</text>
<text text-anchor="end" transform="translate(281.0,212.5) rotate(270) translate(0,3)" font-family="sans-serif" font-size="10px" fill="#000" opacity="1" class="mark-text role-axis-label" pointer-events="none" version="1.1" width="296" height="376" viewBox="0 0 296 376">United States
</text>
<text text-anchor="end" transform="translate(44.5,208.5)" font-family="sans-serif" font-size="10px" fill="#000" opacity="1" class="mark-text role-axis-label" pointer-events="none" version="1.1" width="296" height="376" viewBox="0 0 296 376">0
</text>
<text text-anchor="end" transform="translate(44.5,164.05555555555557)" font-family="sans-serif" font-size="10px" fill="#000" opacity="1" class="mark-text role-axis-label" pointer-events="none" version="1.1" width="296" height="376" viewBox="0 0 296 376">200
</text>
<text text-anchor="end" transform="translate(44.5,119.61111111111111)" font-family="sans-serif" font-size="10px" fill="#000" opacity="1" class="mark-text role-axis-label" pointer-events="none" version="1.1" width="296" height="376" viewBox="0 0 296 376">400
</text>
<text text-anchor="end" transform="translate(44.5,75.16666666666667)" font-family="sans-serif" font-size="10px" fill="#000" opacity="1" class="mark-text role-axis-label" pointer-events="none" version="1.1" width="296" height="376" viewBox="0 0 296 376">600
</text>
<text text-anchor="end" transform="translate(44.5,30.722222222222232)" font-family="sans-serif" font-size="10px" fill="#000" opacity="1" class="mark-text role-axis-label" pointer-events="none" version="1.1" width="296" height="376" viewBox="0 0 296 376">800
</text>
<path aria-label="category: South Korea; value: 855" role="graphics-symbol" aria-roledescription="bar" d="M141,10.000000000000009h18v190h-18Z" fill="#4c78a8" class="mark-rect role-mark marks" transform="translate(51.0,5.0)" version="1.1" width="296" height="376" viewBox="0 0 296 376"/>
<path aria-label="category: Japan; value: 364" role="graphics-symbol" aria-roledescription="bar" d="M121,119.11111111111113h18v80.88888888888887h-18Z" fill="#4c78a8" class="mark-rect role-mark marks" transform="translate(51.0,5.0)" version="1.1" width="296" height="376" viewBox="0 0 296 376"/>
<path aria-label="category: Germany; value: 346" role="graphics-symbol" aria-roledescription="bar" d="M81,123.11111111111113h18v76.88888888888887h-18Z" fill="#4c78a8" class="mark-rect role-mark marks" transform="translate(51.0,5.0)" version="1.1" width="296" height="376" viewBox="0 0 296 376"/>
<path aria-label="category: Sweden; value: 277" role="graphics-symbol" aria-roledescription="bar" d="M181,138.44444444444446h18v61.55555555555554h-18Z" fill="#4c78a8" class="mark-rect role-mark marks" transform="translate(51.0,5.0)" version="1.1" width="296" height="376" viewBox="0 0 296 376"/>
<path aria-label="category: United States; value: 228" role="graphics-symbol" aria-roledescription="bar" d="M221,149.33333333333331h18v50.666666666666686h-18Z" fill="#4c78a8" class="mark-rect role-mark marks" transform="translate(51.0,5.0)" version="1.1" width="296" height="376" viewBox="0 0 296 376"/>
<path aria-label="category: Italy; value: 212" role="graphics-symbol" aria-roledescription="bar" d="M101,152.88888888888889h18v47.111111111111114h-18Z" fill="#4c78a8" class="mark-rect role-mark marks" transform="translate(51.0,5.0)" version="1.1" width="296" height="376" viewBox="0 0 296 376"/>
<path aria-label="category: Belgium/Luxembourg; value: 211" role="graphics-symbol" aria-roledescription="bar" d="M1,153.11111111111111h18v46.888888888888886h-18Z" fill="#4c78a8" class="mark-rect role-mark marks" transform="translate(51.0,5.0)" version="1.1" width="296" height="376" viewBox="0 0 296 376"/>
<path aria-label="category: Spain; value: 191" role="graphics-symbol" aria-roledescription="bar" d="M161,157.55555555555557h18v42.44444444444443h-18Z" fill="#4c78a8" class="mark-rect role-mark marks" transform="translate(51.0,5.0)" version="1.1" width="296" height="376" viewBox="0 0 296 376"/>
<path aria-label="category: China; value: 187" role="graphics-symbol" aria-roledescription="bar" d="M41,158.44444444444443h18v41.55555555555557h-18Z" fill="#4c78a8" class="mark-rect role-mark marks" transform="translate(51.0,5.0)" version="1.1" width="296" height="376" viewBox="0 0 296 376"/>
<path aria-label="category: France; value: 177" role="graphics-symbol" aria-roledescription="bar" d="M61,160.66666666666666h18v39.33333333333334h-18Z" fill="#4c78a8" class="mark-rect role-mark marks" transform="translate(51.0,5.0)" version="1.1" width="296" height="376" viewBox="0 0 296 376"/>
<path aria-label="category: Canada; value: 165" role="graphics-symbol" aria-roledescription="bar" d="M21,163.33333333333334h18v36.66666666666666h-18Z" fill="#4c78a8" class="mark-rect role-mark marks" transform="translate(51.0,5.0)" version="1.1" width="296" height="376" viewBox="0 0 296 376"/>
<path aria-label="category: Switzerland; value: 161" role="graphics-symbol" aria-roledescription="bar" d="M201,164.22222222222223h18v35.77777777777777h-18Z" fill="#4c78a8" class="mark-rect role-mark marks" transform="translate(51.0,5.0)" version="1.1" width="296" height="376" viewBox="0 0 296 376"/>
<rect stroke="red" stroke-width="1" fill="none" x="51.5" y="205.0" width="240.0" height="1.0"/>
<rect stroke="red" stroke-width="1" fill="none" x="51.5" y="161.0" width="240.0" height="1.0"/>
<rect stroke="red" stroke-width="1" fill="none" x="51.5" y="116.0" width="240.0" height="1.0"/>
<rect stroke="red" stroke-width="1" fill="none" x="51.5" y="72.0" width="240.0" height="1.0"/>
<rect stroke="red" stroke-width="1" fill="none" x="51.5" y="27.0" width="240.0" height="1.0"/>
<rect stroke="red" stroke-width="1" fill="none" x="0" y="0" width="0" height="0"/>
<rect stroke="red" stroke-width="1" fill="none" x="61.0" y="205.5" width="1.0" height="5.0"/>
<rect stroke="red" stroke-width="1" fill="none" x="81.0" y="205.5" width="1.0" height="5.0"/>
<rect stroke="red" stroke-width="1" fill="none" x="101.0" y="205.5" width="1.0" height="5.0"/>
<rect stroke="red" stroke-width="1" fill="none" x="121.0" y="205.5" width="1.0" height="5.0"/>
<rect stroke="red" stroke-width="1" fill="none" x="141.0" y="205.5" width="1.0" height="5.0"/>
<rect stroke="red" stroke-width="1" fill="none" x="161.0" y="205.5" width="1.0" height="5.0"/>
<rect stroke="red" stroke-width="1" fill="none" x="181.0" y="205.5" width="1.0" height="5.0"/>
<rect stroke="red" stroke-width="1" fill="none" x="201.0" y="205.5" width="1.0" height="5.0"/>
<rect stroke="red" stroke-width="1" fill="none" x="221.0" y="205.5" width="1.0" height="5.0"/>
<rect stroke="red" stroke-width="1" fill="none" x="241.0" y="205.5" width="1.0" height="5.0"/>
<rect stroke="red" stroke-width="1" fill="none" x="261.0" y="205.5" width="1.0" height="5.0"/>
<rect stroke="red" stroke-width="1" fill="none" x="281.0" y="205.5" width="1.0" height="5.0"/>
<rect stroke="red" stroke-width="1" fill="none" x="51.5" y="205.0" width="240.0" height="1.0"/>
<rect stroke="red" stroke-width="1" fill="none" x="150.405029296875" y="359.359375" width="42.18994140625" height="12.4501953125"/>
<rect stroke="red" stroke-width="1" fill="none" x="0" y="0" width="0" height="0"/>
<rect stroke="red" stroke-width="1" fill="none" x="46.5" y="205.0" width="5.0" height="1.0"/>
<rect stroke="red" stroke-width="1" fill="none" x="46.5" y="161.0" width="5.0" height="1.0"/>
<rect stroke="red" stroke-width="1" fill="none" x="46.5" y="116.0" width="5.0" height="1.0"/>
<rect stroke="red" stroke-width="1" fill="none" x="46.5" y="72.0" width="5.0" height="1.0"/>
<rect stroke="red" stroke-width="1" fill="none" x="46.5" y="27.0" width="5.0" height="1.0"/>
<rect stroke="red" stroke-width="1" fill="none" x="51.0" y="5.5" width="1.0" height="200.0"/>
<rect stroke="red" stroke-width="1" fill="none" x="4.359375" y="92.3193359375" width="12.4501953125" height="26.361328125"/>
<rect stroke="red" stroke-width="1" fill="none" x="0" y="0" width="0" height="0"/>
<rect stroke="red" stroke-width="1" fill="none" x="0" y="0" width="0" height="0"/>
<rect stroke="red" stroke-width="1" fill="none" x="54.78125" y="212.5" width="11.318359375000014" height="97.3974609375"/>
<rect stroke="red" stroke-width="1" fill="none" x="74.78125" y="212.5" width="11.318359375" height="35.029296875"/>
<rect stroke="red" stroke-width="1" fill="none" x="94.78125" y="212.5" width="11.318359375" height="26.1865234375"/>
<rect stroke="red" stroke-width="1" fill="none" x="114.78125" y="212.5" width="11.318359375" height="31.123046875"/>
<rect stroke="red" stroke-width="1" fill="none" x="134.78125" y="212.5" width="11.318359375" height="41.123046875"/>
<rect stroke="red" stroke-width="1" fill="none" x="154.78125" y="212.5" width="11.318359375" height="18.3984375"/>
<rect stroke="red" stroke-width="1" fill="none" x="174.78125" y="212.5" width="11.318359375" height="27.24609375"/>
<rect stroke="red" stroke-width="1" fill="none" x="194.78125" y="212.5" width="11.318359375" height="60.0390625"/>
<rect stroke="red" stroke-width="1" fill="none" x="214.78125" y="212.5" width="11.318359375" height="25.634765625"/>
<rect stroke="red" stroke-width="1" fill="none" x="234.78125" y="212.5" width="11.318359375" height="36.1376953125"/>
<rect stroke="red" stroke-width="1" fill="none" x="254.78125" y="212.5" width="11.318359375" height="51.806640625"/>
<rect stroke="red" stroke-width="1" fill="none" x="274.78125" y="212.5" width="11.318359375" height="64.5361328125"/>
<rect stroke="red" stroke-width="1" fill="none" x="38.9384765625" y="199.28125" width="5.5615234375" height="11.318359375"/>
<rect stroke="red" stroke-width="1" fill="none" x="27.8154296875" y="154.83680555555557" width="16.6845703125" height="11.318359375"/>
<rect stroke="red" stroke-width="1" fill="none" x="27.8154296875" y="110.39236111111111" width="16.6845703125" height="11.318359375"/>
<rect stroke="red" stroke-width="1" fill="none" x="27.8154296875" y="65.94791666666667" width="16.6845703125" height="11.318359375"/>
<rect stroke="red" stroke-width="1" fill="none" x="27.8154296875" y="21.503472222222232" width="16.6845703125" height="11.318359374999996"/>
<rect stroke="red" stroke-width="1" fill="none" x="192.0" y="15.000000000000009" width="18.0" height="190.0"/>
<rect stroke="red" stroke-width="1" fill="none" x="172.0" y="124.11111111111113" width="18.0" height="80.88888888888887"/>
<rect stroke="red" stroke-width="1" fill="none" x="132.0" y="128.11111111111114" width="18.0" height="76.88888888888886"/>
<rect stroke="red" stroke-width="1" fill="none" x="232.0" y="143.44444444444446" width="18.0" height="61.55555555555554"/>
<rect stroke="red" stroke-width="1" fill="none" x="272.0" y="154.33333333333331" width="18.0" height="50.666666666666686"/>
<rect stroke="red" stroke-width="1" fill="none" x="152.0" y="157.88888888888889" width="18.0" height="47.111111111111114"/>
<rect stroke="red" stroke-width="1" fill="none" x="52.0" y="158.11111111111111" width="18.0" height="46.888888888888886"/>
<rect stroke="red" stroke-width="1" fill="none" x="212.0" y="162.55555555555557" width="18.0" height="42.44444444444443"/>
<rect stroke="red" stroke-width="1" fill="none" x="92.0" y="163.44444444444443" width="18.0" height="41.55555555555557"/>
<rect stroke="red" stroke-width="1" fill="none" x="112.0" y="165.66666666666666" width="18.0" height="39.33333333333334"/>
<rect stroke="red" stroke-width="1" fill="none" x="72.0" y="168.33333333333334" width="18.0" height="36.66666666666666"/>
<rect stroke="red" stroke-width="1" fill="none" x="252.0" y="169.22222222222223" width="18.0" height="35.77777777777777"/></g></svg>