<svg version="1.1" class="marks" width="460" height="216" viewBox="-100,-100,1000,1000" xmlns="http://www.w3.org/2000/svg" xmlns:xlink="http://www.w3.org/1999/xlink"><g ><g version="1.1" class="marks" width="460" height="216" viewBox="0 0 460 216"><g fill="none" stroke-miterlimit="10" transform="translate(5,8)"><g class="mark-group role-frame root" role="graphics-object" aria-roledescription="group mark container"><g transform="translate(0,0)" class="mark-arc role-mark marks" role="graphics-object" aria-roledescription="arc mark container"><path aria-label="Revenue Share: 36.5; Publisher: Marvel" role="graphics-symbol" aria-roledescription="arc mark" transform="translate(225,100)" d="M-81.214,-58.346A100,100,0,0,0,9.714,99.527L4.857,49.764A50,50,0,0,1,-40.607,-29.173Z" fill="#eeca3b" stroke="#ffffff" stroke-width="3" opacity="1"/>
<path aria-label="Revenue Share: 25.5; Publisher: DC" role="graphics-symbol" aria-roledescription="arc mark" transform="translate(225,100)" d="M94.77,31.915A100,100,0,0,0,29.075,-95.68L14.538,-47.84A50,50,0,0,1,47.385,15.957Z" fill="#f58518" stroke="#ffffff" stroke-width="3" opacity="1"/>
<path aria-label="Revenue Share: 10.6; Publisher: Image" role="graphics-symbol" aria-roledescription="arc mark" transform="translate(225,100)" d="M9.714,99.527A100,100,0,0,0,69.084,72.301L34.542,36.151A50,50,0,0,1,4.857,49.764Z" fill="#54a24b" stroke="#ffffff" stroke-width="3" opacity="1"/>
<path aria-label="Revenue Share: 4.7; Publisher: BOOM! Studios" role="graphics-symbol" aria-roledescription="arc mark" transform="translate(225,100)" d="M29.075,-95.68A100,100,0,0,0,0,-100L0,-50A50,50,0,0,1,14.538,-47.84Z" fill="#4c78a8" stroke="#ffffff" stroke-width="3" opacity="1"/>
<path aria-label="Revenue Share: 4.1; Publisher: Dark Horse Comics" role="graphics-symbol" aria-roledescription="arc mark" transform="translate(225,100)" d="M83.526,54.985A100,100,0,0,0,94.77,31.915L47.385,15.957A50,50,0,0,1,41.763,27.492Z" fill="#e45756" stroke="#ffffff" stroke-width="3" opacity="1"/>
<path aria-label="Revenue Share: 3.6; Publisher: IDW Publishing" role="graphics-symbol" aria-roledescription="arc mark" transform="translate(225,100)" d="M69.084,72.301A100,100,0,0,0,83.526,54.985L41.763,27.492A50,50,0,0,1,34.542,36.151Z" fill="#72b7b2" stroke="#ffffff" stroke-width="3" opacity="1"/>
<path aria-label="Revenue Share: 2.6; Publisher: VIZ Media" role="graphics-symbol" aria-roledescription="arc mark" transform="translate(225,100)" d="M0,-100A100,100,0,0,0,-16.248,-98.671L-8.124,-49.336A50,50,0,0,1,0,-50Z" fill="#ff9da6" stroke="#ffffff" stroke-width="3" opacity="1"/>
<path aria-label="Revenue Share: 12.5; Publisher: Others" role="graphics-symbol" aria-roledescription="arc mark" transform="translate(225,100)" d="M-16.248,-98.671A100,100,0,0,0,-81.214,-58.346L-40.607,-29.173A50,50,0,0,1,-8.124,-49.336Z" fill="#b279a2" stroke="#ffffff" stroke-width="3" opacity="1"/></g></g></g></g></g></svg>