<svg version="1.1" class="marks" width="485" height="230" viewBox="-100,-100,1000,1000" xmlns="http://www.w3.org/2000/svg" xmlns:xlink="http://www.w3.org/1999/xlink"><g ><g version="1.1" class="marks" width="485" height="230" viewBox="0 0 485 230"><g fill="none" stroke-miterlimit="10" transform="translate(28,5)"><g class="mark-group role-frame root" role="graphics-object" aria-roledescription="group mark container"><g transform="translate(0,0)" class="mark-group role-axis" role="graphics-symbol" aria-roledescription="axis" aria-label="X-axis for a discrete scale with 20 values: 2000, 2001, 2002, 2003, 2004, ending with 2019"><g transform="translate(0.5,200.5)" class="mark-rule role-axis-tick" pointer-events="none"><line transform="translate(11,0)" x2="0" y2="5" stroke="#0f223b" stroke-opacity="0" stroke-width="1" opacity="1"/>
<line transform="translate(34,0)" x2="0" y2="5" stroke="#0f223b" stroke-opacity="0" stroke-width="1" opacity="1"/>
<line transform="translate(56,0)" x2="0" y2="5" stroke="#0f223b" stroke-opacity="0" stroke-width="1" opacity="1"/>
<line transform="translate(79,0)" x2="0" y2="5" stroke="#0f223b" stroke-opacity="0" stroke-width="1" opacity="1"/>
<line transform="translate(101,0)" x2="0" y2="5" stroke="#0f223b" stroke-opacity="0" stroke-width="1" opacity="1"/>
<line transform="translate(124,0)" x2="0" y2="5" stroke="#0f223b" stroke-opacity="0" stroke-width="1" opacity="1"/>
<line transform="translate(146,0)" x2="0" y2="5" stroke="#0f223b" stroke-opacity="0" stroke-width="1" opacity="1"/>
<line transform="translate(169,0)" x2="0" y2="5" stroke="#0f223b" stroke-opacity="0" stroke-width="1" opacity="1"/>
<line transform="translate(191,0)" x2="0" y2="5" stroke="#0f223b" stroke-opacity="0" stroke-width="1" opacity="1"/>
<line transform="translate(214,0)" x2="0" y2="5" stroke="#0f223b" stroke-opacity="0" stroke-width="1" opacity="1"/>
<line transform="translate(236,0)" x2="0" y2="5" stroke="#0f223b" stroke-opacity="0" stroke-width="1" opacity="1"/>
<line transform="translate(259,0)" x2="0" y2="5" stroke="#0f223b" stroke-opacity="0" stroke-width="1" opacity="1"/>
<line transform="translate(281,0)" x2="0" y2="5" stroke="#0f223b" stroke-opacity="0" stroke-width="1" opacity="1"/>
<line transform="translate(304,0)" x2="0" y2="5" stroke="#0f223b" stroke-opacity="0" stroke-width="1" opacity="1"/>
<line transform="translate(326,0)" x2="0" y2="5" stroke="#0f223b" stroke-opacity="0" stroke-width="1" opacity="1"/>
<line transform="translate(349,0)" x2="0" y2="5" stroke="#0f223b" stroke-opacity="0" stroke-width="1" opacity="1"/>
<line transform="translate(371,0)" x2="0" y2="5" stroke="#0f223b" stroke-opacity="0" stroke-width="1" opacity="1"/>
<line transform="translate(394,0)" x2="0" y2="5" stroke="#0f223b" stroke-opacity="0" stroke-width="1" opacity="1"/>
<line transform="translate(416,0)" x2="0" y2="5" stroke="#0f223b" stroke-opacity="0" stroke-width="1" opacity="1"/>
<line transform="translate(439,0)" x2="0" y2="5" stroke="#0f223b" stroke-opacity="0" stroke-width="1" opacity="1"/></g>
<g transform="translate(0.5,200.5)" class="mark-text role-axis-label" pointer-events="none"><text text-anchor="middle" transform="translate(11.25,18)" font-family="sans-serif" font-size="10px" fill="#000d2a" opacity="1">2000
</text>
<text text-anchor="middle" transform="translate(33.75,18)" font-family="sans-serif" font-size="10px" fill="#000d2a" opacity="1">2001
</text>
<text text-anchor="middle" transform="translate(56.25,18)" font-family="sans-serif" font-size="10px" fill="#000d2a" opacity="1">2002
</text>
<text text-anchor="middle" transform="translate(78.75,18)" font-family="sans-serif" font-size="10px" fill="#000d2a" opacity="1">2003
</text>
<text text-anchor="middle" transform="translate(101.25,18)" font-family="sans-serif" font-size="10px" fill="#000d2a" opacity="1">2004
</text>
<text text-anchor="middle" transform="translate(123.75,18)" font-family="sans-serif" font-size="10px" fill="#000d2a" opacity="1">2005
</text>
<text text-anchor="middle" transform="translate(146.25,18)" font-family="sans-serif" font-size="10px" fill="#000d2a" opacity="1">2006
</text>
<text text-anchor="middle" transform="translate(168.75,18)" font-family="sans-serif" font-size="10px" fill="#000d2a" opacity="1">2007
</text>
<text text-anchor="middle" transform="translate(191.25,18)" font-family="sans-serif" font-size="10px" fill="#000d2a" opacity="1">2008
</text>
<text text-anchor="middle" transform="translate(213.75,18)" font-family="sans-serif" font-size="10px" fill="#000d2a" opacity="1">2009
</text>
<text text-anchor="middle" transform="translate(236.25,18)" font-family="sans-serif" font-size="10px" fill="#000d2a" opacity="1">2010
</text>
<text text-anchor="middle" transform="translate(258.75,18)" font-family="sans-serif" font-size="10px" fill="#000d2a" opacity="1">2011
</text>
<text text-anchor="middle" transform="translate(281.25,18)" font-family="sans-serif" font-size="10px" fill="#000d2a" opacity="1">2012
</text>
<text text-anchor="middle" transform="translate(303.75,18)" font-family="sans-serif" font-size="10px" fill="#000d2a" opacity="1">2013
</text>
<text text-anchor="middle" transform="translate(326.25,18)" font-family="sans-serif" font-size="10px" fill="#000d2a" opacity="1">2014
</text>
<text text-anchor="middle" transform="translate(348.75,18)" font-family="sans-serif" font-size="10px" fill="#000d2a" opacity="1">2015
</text>
<text text-anchor="middle" transform="translate(371.25,18)" font-family="sans-serif" font-size="10px" fill="#000d2a" opacity="1">2016
</text>
<text text-anchor="middle" transform="translate(393.75,18)" font-family="sans-serif" font-size="10px" fill="#000d2a" opacity="1">2017
</text>
<text text-anchor="middle" transform="translate(416.25,18)" font-family="sans-serif" font-size="10px" fill="#000d2a" opacity="1">2018
</text>
<text text-anchor="middle" transform="translate(438.75,18)" font-family="sans-serif" font-size="10px" fill="#000d2a" opacity="1">2019
</text></g>
<g transform="translate(0.5,200.5)" class="mark-rule role-axis-domain" pointer-events="none"><line transform="translate(0,0)" x2="450" y2="0" stroke="#0f223b" stroke-opacity="0" stroke-width="1" opacity="1"/></g></g>
<g transform="translate(0,0)" class="mark-group role-axis" role="graphics-symbol" aria-roledescription="axis" aria-label="Y-axis for a linear scale with values from 0 to 55"><g transform="translate(0.5,0.5)" class="mark-rule role-axis-tick" pointer-events="none"><line transform="translate(0,200)" x2="-5" y2="0" stroke="#0f223b" stroke-opacity="0" stroke-width="1" opacity="1"/>
<line transform="translate(0,164)" x2="-5" y2="0" stroke="#0f223b" stroke-opacity="0" stroke-width="1" opacity="1"/>
<line transform="translate(0,127)" x2="-5" y2="0" stroke="#0f223b" stroke-opacity="0" stroke-width="1" opacity="1"/>
<line transform="translate(0,91)" x2="-5" y2="0" stroke="#0f223b" stroke-opacity="0" stroke-width="1" opacity="1"/>
<line transform="translate(0,55)" x2="-5" y2="0" stroke="#0f223b" stroke-opacity="0" stroke-width="1" opacity="1"/>
<line transform="translate(0,18)" x2="-5" y2="0" stroke="#0f223b" stroke-opacity="0" stroke-width="1" opacity="1"/></g>
<g transform="translate(0.5,0.5)" class="mark-text role-axis-label" pointer-events="none"><text text-anchor="end" transform="translate(-10,203)" font-family="sans-serif" font-size="10px" fill="#000d2a" opacity="1">0
</text>
<text text-anchor="end" transform="translate(-10,166.63636363636363)" font-family="sans-serif" font-size="10px" fill="#000d2a" opacity="1">10
</text>
<text text-anchor="end" transform="translate(-10,130.27272727272725)" font-family="sans-serif" font-size="10px" fill="#000d2a" opacity="1">20
</text>
<text text-anchor="end" transform="translate(-10,93.90909090909092)" font-family="sans-serif" font-size="10px" fill="#000d2a" opacity="1">30
</text>
<text text-anchor="end" transform="translate(-10,57.54545454545454)" font-family="sans-serif" font-size="10px" fill="#000d2a" opacity="1">40
</text>
<text text-anchor="end" transform="translate(-10,21.181818181818187)" font-family="sans-serif" font-size="10px" fill="#000d2a" opacity="1">50
</text></g>
<g transform="translate(0.5,0.5)" class="mark-rule role-axis-domain" pointer-events="none"><line transform="translate(0,200)" x2="0" y2="-200" stroke="#0f223b" stroke-opacity="0" stroke-width="1" opacity="1"/></g></g>
<g transform="translate(0,0)" class="mark-group role-scope pathgroup" role="graphics-object" aria-roledescription="group mark container"><g transform="translate(0,0)" class="mark-line role-mark marks" role="graphics-object" aria-roledescription="line mark container"><path aria-label="Year: 2000; Score: 47; Location: Local Jails" role="graphics-symbol" aria-roledescription="line mark" d="M11.25,29.091L33.75,25.455L56.25,36.364L78.75,43.636L101.25,50.909L123.75,47.273L146.25,58.182L168.75,69.091L191.25,69.091L213.75,94.545L236.25,54.545L258.75,54.545L281.25,43.636L303.75,29.091L326.25,10.909L348.75,29.091L371.25,54.545L393.75,47.273L416.25,29.091L438.75,21.818" stroke="#66c2a5" stroke-width="2" opacity="1"/></g>
<g transform="translate(0,0)" class="mark-line role-mark marks" role="graphics-object" aria-roledescription="line mark container"><path aria-label="Year: 2000; Score: 14; Location: State Prisons" role="graphics-symbol" aria-roledescription="line mark" d="M11.25,149.091L33.75,145.455L56.25,149.091L78.75,145.455L101.25,145.455L123.75,141.818L146.25,141.818L168.75,141.818L191.25,141.818L213.75,149.091L236.25,138.182L258.75,149.091L281.25,145.455L303.75,152.727L326.25,145.455L348.75,134.545L371.25,130.909L393.75,120L416.25,112.727L438.75,101.818" stroke="#b3b3b3" stroke-width="2" opacity="1"/></g>
<g transform="translate(0,0)" class="mark-line role-mark marks" role="graphics-object" aria-roledescription="line mark container"><path aria-label="Year: 2000; Score: 11; Location: Federal Prisons" role="graphics-symbol" aria-roledescription="line mark" d="M11.25,160L33.75,152.727L56.25,181.818L78.75,174.545L101.25,181.818L123.75,167.273L146.25,167.273L168.75,160L191.25,170.909L213.75,185.455L236.25,160L258.75,167.273L281.25,149.091L303.75,145.455L326.25,160L348.75,163.636L371.25,156.364L393.75,152.727L416.25,141.818L438.75,127.273" stroke="#ffd92f" stroke-width="2" opacity="1"/></g>
<g transform="translate(0,0)" class="mark-line role-mark marks" role="graphics-object" aria-roledescription="line mark container"><path aria-label="Year: 2000; Score: 10; Location: Overall U.S. Population" role="graphics-symbol" aria-roledescription="line mark" d="M11.25,163.636L33.75,163.636L56.25,160L78.75,160L101.25,160L123.75,160L146.25,160L168.75,160L191.25,156.364L213.75,156.364L236.25,156.364L258.75,156.364L281.25,152.727L303.75,152.727L326.25,152.727L348.75,152.727L371.25,149.091L393.75,149.091L416.25,149.091L438.75,149.455" stroke="#8da0cb" stroke-width="2" opacity="1"/></g></g></g></g></g></g></svg>