<svg version="1.1" class="marks" width="477" height="235" viewBox="-100,-100,1000,1000" xmlns="http://www.w3.org/2000/svg" xmlns:xlink="http://www.w3.org/1999/xlink"><g ><g version="1.1" class="marks" width="477" height="235" viewBox="0 0 477 235"><g fill="none" stroke-miterlimit="10" transform="translate(22,10)"><g class="mark-group role-frame root" role="graphics-object" aria-roledescription="group mark container"><g transform="translate(0,0)" class="mark-group role-axis" role="graphics-symbol" aria-roledescription="axis" aria-label="X-axis for a discrete scale with 7 values: 2018, 2019, 2020, 2021, 2022, 2023, 2024"><g transform="translate(0.5,200.5)" class="mark-rule role-axis-tick" pointer-events="none"><line transform="translate(32,0)" x2="0" y2="5" stroke="#0f223b" stroke-opacity="0" stroke-width="1" opacity="1"/>
<line transform="translate(96,0)" x2="0" y2="5" stroke="#0f223b" stroke-opacity="0" stroke-width="1" opacity="1"/>
<line transform="translate(161,0)" x2="0" y2="5" stroke="#0f223b" stroke-opacity="0" stroke-width="1" opacity="1"/>
<line transform="translate(225,0)" x2="0" y2="5" stroke="#0f223b" stroke-opacity="0" stroke-width="1" opacity="1"/>
<line transform="translate(289,0)" x2="0" y2="5" stroke="#0f223b" stroke-opacity="0" stroke-width="1" opacity="1"/>
<line transform="translate(354,0)" x2="0" y2="5" stroke="#0f223b" stroke-opacity="0" stroke-width="1" opacity="1"/>
<line transform="translate(418,0)" x2="0" y2="5" stroke="#0f223b" stroke-opacity="0" stroke-width="1" opacity="1"/></g>
<g transform="translate(0.5,200.5)" class="mark-text role-axis-label" pointer-events="none"><text text-anchor="middle" transform="translate(32.14285714285711,18)" font-family="sans-serif" font-size="10px" fill="#000d2a" opacity="1">2018
</text>
<text text-anchor="middle" transform="translate(96.4285714285714,18)" font-family="sans-serif" font-size="10px" fill="#000d2a" opacity="1">2019
</text>
<text text-anchor="middle" transform="translate(160.7142857142857,18)" font-family="sans-serif" font-size="10px" fill="#000d2a" opacity="1">2020
</text>
<text text-anchor="middle" transform="translate(225,18)" font-family="sans-serif" font-size="10px" fill="#000d2a" opacity="1">2021
</text>
<text text-anchor="middle" transform="translate(289.2857142857143,18)" font-family="sans-serif" font-size="10px" fill="#000d2a" opacity="1">2022
</text>
<text text-anchor="middle" transform="translate(353.57142857142856,18)" font-family="sans-serif" font-size="10px" fill="#000d2a" opacity="1">2023
</text>
<text text-anchor="middle" transform="translate(417.8571428571429,18)" font-family="sans-serif" font-size="10px" fill="#000d2a" opacity="1">2024
</text></g>
<g transform="translate(0.5,200.5)" class="mark-rule role-axis-domain" pointer-events="none"><line transform="translate(0,0)" x2="450" y2="0" stroke="#0f223b" stroke-opacity="0" stroke-width="1" opacity="1"/></g></g>
<g transform="translate(0,0)" class="mark-group role-axis" role="graphics-symbol" aria-roledescription="axis" aria-label="Y-axis for a linear scale with values from 0 to 6"><g transform="translate(0.5,0.5)" class="mark-rule role-axis-tick" pointer-events="none"><line transform="translate(0,200)" x2="-5" y2="0" stroke="#0f223b" stroke-opacity="0" stroke-width="1" opacity="1"/>
<line transform="translate(0,167)" x2="-5" y2="0" stroke="#0f223b" stroke-opacity="0" stroke-width="1" opacity="1"/>
<line transform="translate(0,133)" x2="-5" y2="0" stroke="#0f223b" stroke-opacity="0" stroke-width="1" opacity="1"/>
<line transform="translate(0,100)" x2="-5" y2="0" stroke="#0f223b" stroke-opacity="0" stroke-width="1" opacity="1"/>
<line transform="translate(0,67)" x2="-5" y2="0" stroke="#0f223b" stroke-opacity="0" stroke-width="1" opacity="1"/>
<line transform="translate(0,33)" x2="-5" y2="0" stroke="#0f223b" stroke-opacity="0" stroke-width="1" opacity="1"/>
<line transform="translate(0,0)" x2="-5" y2="0" stroke="#0f223b" stroke-opacity="0" stroke-width="1" opacity="1"/></g>
<g transform="translate(0.5,0.5)" class="mark-text role-axis-label" pointer-events="none"><text text-anchor="end" transform="translate(-10,203)" font-family="sans-serif" font-size="10px" fill="#000d2a" opacity="1">0
</text>
<text text-anchor="end" transform="translate(-10,169.66666666666669)" font-family="sans-serif" font-size="10px" fill="#000d2a" opacity="1">1
</text>
<text text-anchor="end" transform="translate(-10,136.33333333333334)" font-family="sans-serif" font-size="10px" fill="#000d2a" opacity="1">2
</text>
<text text-anchor="end" transform="translate(-10,103)" font-family="sans-serif" font-size="10px" fill="#000d2a" opacity="1">3
</text>
<text text-anchor="end" transform="translate(-10,69.66666666666667)" font-family="sans-serif" font-size="10px" fill="#000d2a" opacity="1">4
</text>
<text text-anchor="end" transform="translate(-10,36.33333333333333)" font-family="sans-serif" font-size="10px" fill="#000d2a" opacity="1">5
</text>
<text text-anchor="end" transform="translate(-10,3)" font-family="sans-serif" font-size="10px" fill="#000d2a" opacity="1">6
</text></g>
<g transform="translate(0.5,0.5)" class="mark-rule role-axis-domain" pointer-events="none"><line transform="translate(0,200)" x2="0" y2="-200" stroke="#0f223b" stroke-opacity="0" stroke-width="1" opacity="1"/></g></g>
<g transform="translate(0,0)" class="mark-group role-scope pathgroup" role="graphics-object" aria-roledescription="group mark container"><g transform="translate(0,0)" class="mark-line role-mark marks" role="graphics-object" aria-roledescription="line mark container"><path aria-label="Year: 2018; Percentage: 2.8; Forecast Horizon: One year ahead" role="graphics-symbol" aria-roledescription="line mark" d="M32.143,106.667L42.857,107.222C53.571,107.778,75,108.889,96.429,107.778C117.857,106.667,139.286,103.333,160.714,90.556C182.143,77.778,203.571,55.556,225,40C246.429,24.444,267.857,15.556,289.286,21.111C310.714,26.667,332.143,46.667,353.571,62.222C375,77.778,396.429,88.889,407.143,94.444L417.857,100" stroke="#cccccc" stroke-width="2" opacity="1"/></g>
<g transform="translate(0,0)" class="mark-line role-mark marks" role="graphics-object" aria-roledescription="line mark container"><path aria-label="Year: 2018; Percentage: 2.9; Forecast Horizon: Three years ahead" role="graphics-symbol" aria-roledescription="line mark" d="M32.143,103.333L42.857,105C53.571,106.667,75,110,96.429,110.556C117.857,111.111,139.286,108.889,160.714,103.889C182.143,98.889,203.571,91.111,225,87.222C246.429,83.333,267.857,83.333,289.286,86.667C310.714,90,332.143,96.667,353.571,99.444C375,102.222,396.429,101.111,407.143,100.556L417.857,100" stroke="#b3e2cd" stroke-width="2" opacity="1"/></g></g></g></g></g></g></svg>