<svg version="1.1" class="marks" width="422.203125" height="349.05537219308724" viewBox="0 0 522.203125 449.05537219308724" xmlns="http://www.w3.org/2000/svg" xmlns:xlink="http://www.w3.org/1999/xlink"><rect width="100%" height="100%" fill="#ffffff"/>
<g transform="translate(50.0, 72.62187588686028)"><text class="chart-title-line" x="0" y="0" text-anchor="start" font-family="sans-serif" font-size="24" font-weight="700" fill="#0f2740" letter-spacing="0" transform="scale(1.0224576672027246)">Severe Budget Deficits Announced
</text>
<text class="chart-title-line" x="0" y="0" text-anchor="start" font-family="sans-serif" font-size="24" font-weight="700" fill="#0f2740" letter-spacing="0" transform="scale(1.0224576672027246) translate(0.0, 27.1640625)"> Over Four-Year Span
</text>
<text class="chart-subtitle-line" x="0" y="0" text-anchor="start" font-family="sans-serif" font-size="13" font-weight="400" fill="#445f7c" letter-spacing="0.25" transform="scale(1.0224576672027246) translate(0.0, 54.1875)">"A look at the significant financial losses since 2007"
</text>
<line transform="translate(-5.796875, 68.41396505622694) translate(52.0,36.0) translate(0.5,200.5) translate(0,-200)" x2="0" y2="200" stroke="#ddd" stroke-width="1" opacity="1" class="mark-rule role-axis-grid" pointer-events="none" aria-hidden="true" fill="none" stroke-miterlimit="10" role="graphics-object" aria-roledescription="group mark container" version="1.1" width="433" height="262" viewBox="0 0 433 262"/>
<line transform="translate(-5.796875, 68.41396505622694) translate(52.0,36.0) translate(0.5,200.5) translate(34,-200)" x2="0" y2="200" stroke="#ddd" stroke-width="1" opacity="1" class="mark-rule role-axis-grid" pointer-events="none" aria-hidden="true" fill="none" stroke-miterlimit="10" role="graphics-object" aria-roledescription="group mark container" version="1.1" width="433" height="262" viewBox="0 0 433 262"/>
<line transform="translate(-5.796875, 68.41396505622694) translate(52.0,36.0) translate(0.5,200.5) translate(68,-200)" x2="0" y2="200" stroke="#ddd" stroke-width="1" opacity="1" class="mark-rule role-axis-grid" pointer-events="none" aria-hidden="true" fill="none" stroke-miterlimit="10" role="graphics-object" aria-roledescription="group mark container" version="1.1" width="433" height="262" viewBox="0 0 433 262"/>
<line transform="translate(-5.796875, 68.41396505622694) translate(52.0,36.0) translate(0.5,200.5) translate(102,-200)" x2="0" y2="200" stroke="#ddd" stroke-width="1" opacity="1" class="mark-rule role-axis-grid" pointer-events="none" aria-hidden="true" fill="none" stroke-miterlimit="10" role="graphics-object" aria-roledescription="group mark container" version="1.1" width="433" height="262" viewBox="0 0 433 262"/>
<line transform="translate(-5.796875, 68.41396505622694) translate(52.0,36.0) translate(0.5,200.5) translate(136,-200)" x2="0" y2="200" stroke="#ddd" stroke-width="1" opacity="1" class="mark-rule role-axis-grid" pointer-events="none" aria-hidden="true" fill="none" stroke-miterlimit="10" role="graphics-object" aria-roledescription="group mark container" version="1.1" width="433" height="262" viewBox="0 0 433 262"/>
<line transform="translate(-5.796875, 68.41396505622694) translate(52.0,36.0) translate(0.5,200.5) translate(170,-200)" x2="0" y2="200" stroke="#ddd" stroke-width="1" opacity="1" class="mark-rule role-axis-grid" pointer-events="none" aria-hidden="true" fill="none" stroke-miterlimit="10" role="graphics-object" aria-roledescription="group mark container" version="1.1" width="433" height="262" viewBox="0 0 433 262"/>
<line transform="translate(-5.796875, 68.41396505622694) translate(52.0,36.0) translate(0.5,200.5) translate(205,-200)" x2="0" y2="200" stroke="#ddd" stroke-width="1" opacity="1" class="mark-rule role-axis-grid" pointer-events="none" aria-hidden="true" fill="none" stroke-miterlimit="10" role="graphics-object" aria-roledescription="group mark container" version="1.1" width="433" height="262" viewBox="0 0 433 262"/>
<line transform="translate(-5.796875, 68.41396505622694) translate(52.0,36.0) translate(0.5,200.5) translate(239,-200)" x2="0" y2="200" stroke="#ddd" stroke-width="1" opacity="1" class="mark-rule role-axis-grid" pointer-events="none" aria-hidden="true" fill="none" stroke-miterlimit="10" role="graphics-object" aria-roledescription="group mark container" version="1.1" width="433" height="262" viewBox="0 0 433 262"/>
<line transform="translate(-5.796875, 68.41396505622694) translate(52.0,36.0) translate(0.5,200.5) translate(273,-200)" x2="0" y2="200" stroke="#ddd" stroke-width="1" opacity="1" class="mark-rule role-axis-grid" pointer-events="none" aria-hidden="true" fill="none" stroke-miterlimit="10" role="graphics-object" aria-roledescription="group mark container" version="1.1" width="433" height="262" viewBox="0 0 433 262"/>
<line transform="translate(-5.796875, 68.41396505622694) translate(52.0,36.0) translate(0.5,200.5) translate(307,-200)" x2="0" y2="200" stroke="#ddd" stroke-width="1" opacity="1" class="mark-rule role-axis-grid" pointer-events="none" aria-hidden="true" fill="none" stroke-miterlimit="10" role="graphics-object" aria-roledescription="group mark container" version="1.1" width="433" height="262" viewBox="0 0 433 262"/>
<line transform="translate(-5.796875, 68.41396505622694) translate(52.0,36.0) translate(0.5,200.5) translate(341,-200)" x2="0" y2="200" stroke="#ddd" stroke-width="1" opacity="1" class="mark-rule role-axis-grid" pointer-events="none" aria-hidden="true" fill="none" stroke-miterlimit="10" role="graphics-object" aria-roledescription="group mark container" version="1.1" width="433" height="262" viewBox="0 0 433 262"/>
<line transform="translate(-5.796875, 68.41396505622694) translate(52.0,36.0) translate(0.5,200.5) translate(375,-200)" x2="0" y2="200" stroke="#ddd" stroke-width="1" opacity="1" class="mark-rule role-axis-grid" pointer-events="none" aria-hidden="true" fill="none" stroke-miterlimit="10" role="graphics-object" aria-roledescription="group mark container" version="1.1" width="433" height="262" viewBox="0 0 433 262"/>
<line transform="translate(-5.796875, 68.41396505622694) translate(52.0,36.0) translate(0.5,0.5) translate(0,188)" x2="375" y2="0" stroke="#ddd" stroke-width="1" opacity="1" class="mark-rule role-axis-grid" pointer-events="none" aria-hidden="true" fill="none" stroke-miterlimit="10" role="graphics-object" aria-roledescription="group mark container" version="1.1" width="433" height="262" viewBox="0 0 433 262"/>
<line transform="translate(-5.796875, 68.41396505622694) translate(52.0,36.0) translate(0.5,0.5) translate(0,125)" x2="375" y2="0" stroke="#ddd" stroke-width="1" opacity="1" class="mark-rule role-axis-grid" pointer-events="none" aria-hidden="true" fill="none" stroke-miterlimit="10" role="graphics-object" aria-roledescription="group mark container" version="1.1" width="433" height="262" viewBox="0 0 433 262"/>
<line transform="translate(-5.796875, 68.41396505622694) translate(52.0,36.0) translate(0.5,0.5) translate(0,63)" x2="375" y2="0" stroke="#ddd" stroke-width="1" opacity="1" class="mark-rule role-axis-grid" pointer-events="none" aria-hidden="true" fill="none" stroke-miterlimit="10" role="graphics-object" aria-roledescription="group mark container" version="1.1" width="433" height="262" viewBox="0 0 433 262"/>
<line transform="translate(-5.796875, 68.41396505622694) translate(52.0,36.0) translate(0.5,0.5) translate(0,0)" x2="375" y2="0" stroke="#ddd" stroke-width="1" opacity="1" class="mark-rule role-axis-grid" pointer-events="none" aria-hidden="true" fill="none" stroke-miterlimit="10" role="graphics-object" aria-roledescription="group mark container" version="1.1" width="433" height="262" viewBox="0 0 433 262"/>
<path transform="translate(-5.796875, 68.41396505622694) translate(52.0,36.0) translate(0,-31) translate(0,0) translate(0,0) translate(6,6)" d="M-5,-2L-5,2L-2,2L-2,5L2,5L2,2L5,2L5,-2L2,-2L2,-5L-2,-5L-2,-2Z" stroke="#5e98fb" stroke-width="1.5" opacity="1" class="mark-symbol role-legend-symbol" pointer-events="none" role="graphics-object" aria-roledescription="group mark container" aria-label="Symbol legend for shape and stroke color with 1 value: value" fill="none" stroke-miterlimit="10" version="1.1" width="433" height="262" viewBox="0 0 433 262"/>
<text text-anchor="start" transform="translate(-5.796875, 68.41396505622694) translate(52.0,36.0) translate(0,-31) translate(0,0) translate(0,0) translate(16,9)" font-family="sans-serif" font-size="10px" fill="#000" opacity="1" class="mark-text role-legend-label" pointer-events="none" role="graphics-object" aria-roledescription="group mark container" aria-label="Symbol legend for shape and stroke color with 1 value: value" stroke-miterlimit="10" version="1.1" width="433" height="262" viewBox="0 0 433 262">value
</text>
<line transform="translate(-5.796875, 68.41396505622694) translate(52.0,36.0) translate(0.5,200.5) translate(0,0)" x2="0" y2="5" stroke="#0f223b" stroke-width="1" opacity="1" fill="none" stroke-miterlimit="10" class="mark-rule role-axis-tick" role="graphics-symbol" aria-roledescription="axis" version="1.1" width="433" height="262" viewBox="0 0 433 262" aria-label="X-axis for a linear scale with values from 0 to 2,200" pointer-events="none"/>
<line transform="translate(-5.796875, 68.41396505622694) translate(52.0,36.0) translate(0.5,200.5) translate(34,0)" x2="0" y2="5" stroke="#0f223b" stroke-width="1" opacity="1" fill="none" stroke-miterlimit="10" class="mark-rule role-axis-tick" role="graphics-symbol" aria-roledescription="axis" version="1.1" width="433" height="262" viewBox="0 0 433 262" aria-label="X-axis for a linear scale with values from 0 to 2,200" pointer-events="none"/>
<line transform="translate(-5.796875, 68.41396505622694) translate(52.0,36.0) translate(0.5,200.5) translate(68,0)" x2="0" y2="5" stroke="#0f223b" stroke-width="1" opacity="1" fill="none" stroke-miterlimit="10" class="mark-rule role-axis-tick" role="graphics-symbol" aria-roledescription="axis" version="1.1" width="433" height="262" viewBox="0 0 433 262" aria-label="X-axis for a linear scale with values from 0 to 2,200" pointer-events="none"/>
<line transform="translate(-5.796875, 68.41396505622694) translate(52.0,36.0) translate(0.5,200.5) translate(102,0)" x2="0" y2="5" stroke="#0f223b" stroke-width="1" opacity="1" fill="none" stroke-miterlimit="10" class="mark-rule role-axis-tick" role="graphics-symbol" aria-roledescription="axis" version="1.1" width="433" height="262" viewBox="0 0 433 262" aria-label="X-axis for a linear scale with values from 0 to 2,200" pointer-events="none"/>
<line transform="translate(-5.796875, 68.41396505622694) translate(52.0,36.0) translate(0.5,200.5) translate(136,0)" x2="0" y2="5" stroke="#0f223b" stroke-width="1" opacity="1" fill="none" stroke-miterlimit="10" class="mark-rule role-axis-tick" role="graphics-symbol" aria-roledescription="axis" version="1.1" width="433" height="262" viewBox="0 0 433 262" aria-label="X-axis for a linear scale with values from 0 to 2,200" pointer-events="none"/>
<line transform="translate(-5.796875, 68.41396505622694) translate(52.0,36.0) translate(0.5,200.5) translate(170,0)" x2="0" y2="5" stroke="#0f223b" stroke-width="1" opacity="1" fill="none" stroke-miterlimit="10" class="mark-rule role-axis-tick" role="graphics-symbol" aria-roledescription="axis" version="1.1" width="433" height="262" viewBox="0 0 433 262" aria-label="X-axis for a linear scale with values from 0 to 2,200" pointer-events="none"/>
<line transform="translate(-5.796875, 68.41396505622694) translate(52.0,36.0) translate(0.5,200.5) translate(205,0)" x2="0" y2="5" stroke="#0f223b" stroke-width="1" opacity="1" fill="none" stroke-miterlimit="10" class="mark-rule role-axis-tick" role="graphics-symbol" aria-roledescription="axis" version="1.1" width="433" height="262" viewBox="0 0 433 262" aria-label="X-axis for a linear scale with values from 0 to 2,200" pointer-events="none"/>
<line transform="translate(-5.796875, 68.41396505622694) translate(52.0,36.0) translate(0.5,200.5) translate(239,0)" x2="0" y2="5" stroke="#0f223b" stroke-width="1" opacity="1" fill="none" stroke-miterlimit="10" class="mark-rule role-axis-tick" role="graphics-symbol" aria-roledescription="axis" version="1.1" width="433" height="262" viewBox="0 0 433 262" aria-label="X-axis for a linear scale with values from 0 to 2,200" pointer-events="none"/>
<line transform="translate(-5.796875, 68.41396505622694) translate(52.0,36.0) translate(0.5,200.5) translate(273,0)" x2="0" y2="5" stroke="#0f223b" stroke-width="1" opacity="1" fill="none" stroke-miterlimit="10" class="mark-rule role-axis-tick" role="graphics-symbol" aria-roledescription="axis" version="1.1" width="433" height="262" viewBox="0 0 433 262" aria-label="X-axis for a linear scale with values from 0 to 2,200" pointer-events="none"/>
<line transform="translate(-5.796875, 68.41396505622694) translate(52.0,36.0) translate(0.5,200.5) translate(307,0)" x2="0" y2="5" stroke="#0f223b" stroke-width="1" opacity="1" fill="none" stroke-miterlimit="10" class="mark-rule role-axis-tick" role="graphics-symbol" aria-roledescription="axis" version="1.1" width="433" height="262" viewBox="0 0 433 262" aria-label="X-axis for a linear scale with values from 0 to 2,200" pointer-events="none"/>
<line transform="translate(-5.796875, 68.41396505622694) translate(52.0,36.0) translate(0.5,200.5) translate(341,0)" x2="0" y2="5" stroke="#0f223b" stroke-width="1" opacity="1" fill="none" stroke-miterlimit="10" class="mark-rule role-axis-tick" role="graphics-symbol" aria-roledescription="axis" version="1.1" width="433" height="262" viewBox="0 0 433 262" aria-label="X-axis for a linear scale with values from 0 to 2,200" pointer-events="none"/>
<line transform="translate(-5.796875, 68.41396505622694) translate(52.0,36.0) translate(0.5,200.5) translate(375,0)" x2="0" y2="5" stroke="#0f223b" stroke-width="1" opacity="1" fill="none" stroke-miterlimit="10" class="mark-rule role-axis-tick" role="graphics-symbol" aria-roledescription="axis" version="1.1" width="433" height="262" viewBox="0 0 433 262" aria-label="X-axis for a linear scale with values from 0 to 2,200" pointer-events="none"/>
<text text-anchor="start" transform="translate(-5.796875, 68.41396505622694) translate(52.0,36.0) translate(0.5,200.5) translate(0,19)" font-family="sans-serif" font-size="12px" fill="#000d2a" opacity="1" stroke-miterlimit="10" class="mark-text role-axis-label" role="graphics-symbol" aria-roledescription="axis" version="1.1" width="433" height="262" viewBox="0 0 433 262" aria-label="X-axis for a linear scale with values from 0 to 2,200" pointer-events="none" x="0.0" y="0.0">0
</text>
<text text-anchor="middle" transform="translate(-5.796875, 68.41396505622694) translate(52.0,36.0) translate(0.5,200.5) translate(34.09090909090909,19)" font-family="sans-serif" font-size="12px" fill="#000d2a" opacity="0" stroke-miterlimit="10" class="mark-text role-axis-label" role="graphics-symbol" aria-roledescription="axis" version="1.1" width="433" height="262" viewBox="0 0 433 262" aria-label="X-axis for a linear scale with values from 0 to 2,200" pointer-events="none" x="0.0" y="0.0">200
</text>
<text text-anchor="middle" transform="translate(-5.796875, 68.41396505622694) translate(52.0,36.0) translate(0.5,200.5) translate(68.18181818181819,19)" font-family="sans-serif" font-size="12px" fill="#000d2a" opacity="1" stroke-miterlimit="10" class="mark-text role-axis-label" role="graphics-symbol" aria-roledescription="axis" version="1.1" width="433" height="262" viewBox="0 0 433 262" aria-label="X-axis for a linear scale with values from 0 to 2,200" pointer-events="none" x="0.0" y="0.0">400
</text>
<text text-anchor="middle" transform="translate(-5.796875, 68.41396505622694) translate(52.0,36.0) translate(0.5,200.5) translate(102.27272727272727,19)" font-family="sans-serif" font-size="12px" fill="#000d2a" opacity="0" stroke-miterlimit="10" class="mark-text role-axis-label" role="graphics-symbol" aria-roledescription="axis" version="1.1" width="433" height="262" viewBox="0 0 433 262" aria-label="X-axis for a linear scale with values from 0 to 2,200" pointer-events="none" x="0.0" y="0.0">600
</text>
<text text-anchor="middle" transform="translate(-5.796875, 68.41396505622694) translate(52.0,36.0) translate(0.5,200.5) translate(136.36363636363637,19)" font-family="sans-serif" font-size="12px" fill="#000d2a" opacity="1" stroke-miterlimit="10" class="mark-text role-axis-label" role="graphics-symbol" aria-roledescription="axis" version="1.1" width="433" height="262" viewBox="0 0 433 262" aria-label="X-axis for a linear scale with values from 0 to 2,200" pointer-events="none" x="0.0" y="0.0">800
</text>
<text text-anchor="middle" transform="translate(-5.796875, 68.41396505622694) translate(52.0,36.0) translate(0.5,200.5) translate(170.45454545454544,19)" font-family="sans-serif" font-size="12px" fill="#000d2a" opacity="0" stroke-miterlimit="10" class="mark-text role-axis-label" role="graphics-symbol" aria-roledescription="axis" version="1.1" width="433" height="262" viewBox="0 0 433 262" aria-label="X-axis for a linear scale with values from 0 to 2,200" pointer-events="none" x="0.0" y="0.0">1,000
</text>
<text text-anchor="middle" transform="translate(-5.796875, 68.41396505622694) translate(52.0,36.0) translate(0.5,200.5) translate(204.54545454545453,19)" font-family="sans-serif" font-size="12px" fill="#000d2a" opacity="1" stroke-miterlimit="10" class="mark-text role-axis-label" role="graphics-symbol" aria-roledescription="axis" version="1.1" width="433" height="262" viewBox="0 0 433 262" aria-label="X-axis for a linear scale with values from 0 to 2,200" pointer-events="none" x="0.0" y="0.0">1,200
</text>
<text text-anchor="middle" transform="translate(-5.796875, 68.41396505622694) translate(52.0,36.0) translate(0.5,200.5) translate(238.63636363636363,19)" font-family="sans-serif" font-size="12px" fill="#000d2a" opacity="0" stroke-miterlimit="10" class="mark-text role-axis-label" role="graphics-symbol" aria-roledescription="axis" version="1.1" width="433" height="262" viewBox="0 0 433 262" aria-label="X-axis for a linear scale with values from 0 to 2,200" pointer-events="none" x="0.0" y="0.0">1,400
</text>
<text text-anchor="middle" transform="translate(-5.796875, 68.41396505622694) translate(52.0,36.0) translate(0.5,200.5) translate(272.72727272727275,19)" font-family="sans-serif" font-size="12px" fill="#000d2a" opacity="1" stroke-miterlimit="10" class="mark-text role-axis-label" role="graphics-symbol" aria-roledescription="axis" version="1.1" width="433" height="262" viewBox="0 0 433 262" aria-label="X-axis for a linear scale with values from 0 to 2,200" pointer-events="none" x="0.0" y="0.0">1,600
</text>
<text text-anchor="middle" transform="translate(-5.796875, 68.41396505622694) translate(52.0,36.0) translate(0.5,200.5) translate(306.8181818181818,19)" font-family="sans-serif" font-size="12px" fill="#000d2a" opacity="0" stroke-miterlimit="10" class="mark-text role-axis-label" role="graphics-symbol" aria-roledescription="axis" version="1.1" width="433" height="262" viewBox="0 0 433 262" aria-label="X-axis for a linear scale with values from 0 to 2,200" pointer-events="none" x="0.0" y="0.0">1,800
</text>
<text text-anchor="middle" transform="translate(-5.796875, 68.41396505622694) translate(52.0,36.0) translate(0.5,200.5) translate(340.9090909090909,19)" font-family="sans-serif" font-size="12px" fill="#000d2a" opacity="1" stroke-miterlimit="10" class="mark-text role-axis-label" role="graphics-symbol" aria-roledescription="axis" version="1.1" width="433" height="262" viewBox="0 0 433 262" aria-label="X-axis for a linear scale with values from 0 to 2,200" pointer-events="none" x="0.0" y="0.0">2,000
</text>
<text text-anchor="end" transform="translate(-5.796875, 68.41396505622694) translate(52.0,36.0) translate(0.5,200.5) translate(375,19)" font-family="sans-serif" font-size="12px" fill="#000d2a" opacity="0" stroke-miterlimit="10" class="mark-text role-axis-label" role="graphics-symbol" aria-roledescription="axis" version="1.1" width="433" height="262" viewBox="0 0 433 262" aria-label="X-axis for a linear scale with values from 0 to 2,200" pointer-events="none" x="0.0" y="0.0">2,200
</text>
<line transform="translate(-5.796875, 68.41396505622694) translate(52.0,36.0) translate(0.5,200.5) translate(0,0)" x2="375" y2="0" stroke="#0f223b" stroke-width="1" opacity="1" fill="none" stroke-miterlimit="10" class="mark-rule role-axis-domain" role="graphics-symbol" aria-roledescription="axis" version="1.1" width="433" height="262" viewBox="0 0 433 262" aria-label="X-axis for a linear scale with values from 0 to 2,200" pointer-events="none"/>
<line transform="translate(-5.796875, 68.41396505622694) translate(52.0,36.0) translate(0.5,0.5) translate(0,188)" x2="-5" y2="0" stroke="#0f223b" stroke-width="1" opacity="1" fill="none" stroke-miterlimit="10" class="mark-rule role-axis-tick" role="graphics-symbol" aria-roledescription="axis" version="1.1" width="433" height="262" viewBox="0 0 433 262" aria-label="Y-axis for a linear scale with values from −1,600 to 0" pointer-events="none"/>
<line transform="translate(-5.796875, 68.41396505622694) translate(52.0,36.0) translate(0.5,0.5) translate(0,125)" x2="-5" y2="0" stroke="#0f223b" stroke-width="1" opacity="1" fill="none" stroke-miterlimit="10" class="mark-rule role-axis-tick" role="graphics-symbol" aria-roledescription="axis" version="1.1" width="433" height="262" viewBox="0 0 433 262" aria-label="Y-axis for a linear scale with values from −1,600 to 0" pointer-events="none"/>
<line transform="translate(-5.796875, 68.41396505622694) translate(52.0,36.0) translate(0.5,0.5) translate(0,63)" x2="-5" y2="0" stroke="#0f223b" stroke-width="1" opacity="1" fill="none" stroke-miterlimit="10" class="mark-rule role-axis-tick" role="graphics-symbol" aria-roledescription="axis" version="1.1" width="433" height="262" viewBox="0 0 433 262" aria-label="Y-axis for a linear scale with values from −1,600 to 0" pointer-events="none"/>
<line transform="translate(-5.796875, 68.41396505622694) translate(52.0,36.0) translate(0.5,0.5) translate(0,0)" x2="-5" y2="0" stroke="#0f223b" stroke-width="1" opacity="1" fill="none" stroke-miterlimit="10" class="mark-rule role-axis-tick" role="graphics-symbol" aria-roledescription="axis" version="1.1" width="433" height="262" viewBox="0 0 433 262" aria-label="Y-axis for a linear scale with values from −1,600 to 0" pointer-events="none"/>
<text text-anchor="end" transform="translate(-5.796875, 68.41396505622694) translate(52.0,36.0) translate(0.5,0.5) translate(-10,191.5)" font-family="sans-serif" font-size="12px" fill="#000d2a" opacity="1" stroke-miterlimit="10" class="mark-text role-axis-label" role="graphics-symbol" aria-roledescription="axis" version="1.1" width="433" height="262" viewBox="0 0 433 262" aria-label="Y-axis for a linear scale with values from −1,600 to 0" pointer-events="none">−1,500
</text>
<text text-anchor="end" transform="translate(-5.796875, 68.41396505622694) translate(52.0,36.0) translate(0.5,0.5) translate(-10,129)" font-family="sans-serif" font-size="12px" fill="#000d2a" opacity="1" stroke-miterlimit="10" class="mark-text role-axis-label" role="graphics-symbol" aria-roledescription="axis" version="1.1" width="433" height="262" viewBox="0 0 433 262" aria-label="Y-axis for a linear scale with values from −1,600 to 0" pointer-events="none">−1,000
</text>
<text text-anchor="end" transform="translate(-5.796875, 68.41396505622694) translate(52.0,36.0) translate(0.5,0.5) translate(-10,66.5)" font-family="sans-serif" font-size="12px" fill="#000d2a" opacity="1" stroke-miterlimit="10" class="mark-text role-axis-label" role="graphics-symbol" aria-roledescription="axis" version="1.1" width="433" height="262" viewBox="0 0 433 262" aria-label="Y-axis for a linear scale with values from −1,600 to 0" pointer-events="none">−500
</text>
<text text-anchor="end" transform="translate(-5.796875, 68.41396505622694) translate(52.0,36.0) translate(0.5,0.5) translate(-10,4)" font-family="sans-serif" font-size="12px" fill="#000d2a" opacity="1" stroke-miterlimit="10" class="mark-text role-axis-label" role="graphics-symbol" aria-roledescription="axis" version="1.1" width="433" height="262" viewBox="0 0 433 262" aria-label="Y-axis for a linear scale with values from −1,600 to 0" pointer-events="none">0
</text>
<line transform="translate(-5.796875, 68.41396505622694) translate(52.0,36.0) translate(0.5,0.5) translate(0,200)" x2="0" y2="-200" stroke="#0f223b" stroke-width="1" opacity="1" fill="none" stroke-miterlimit="10" class="mark-rule role-axis-domain" role="graphics-symbol" aria-roledescription="axis" version="1.1" width="433" height="262" viewBox="0 0 433 262" aria-label="Y-axis for a linear scale with values from −1,600 to 0" pointer-events="none"/>
<path aria-label="xlabel: 2006; Diferena em R milhes: 0; group: value" role="graphics-symbol" aria-roledescription="point" transform="translate(-5.796875, 68.41396505622694) translate(52.0,36.0) translate(341.9318181818182,0)" d="M-2.739,-1.095L-2.739,1.095L-1.095,1.095L-1.095,2.739L1.095,2.739L1.095,1.095L2.739,1.095L2.739,-1.095L1.095,-1.095L1.095,-2.739L-1.095,-2.739L-1.095,-1.095Z" stroke="#5e98fb" stroke-width="2" fill="none" stroke-miterlimit="10" class="mark-symbol role-mark marks" version="1.1" width="433" height="262" viewBox="0 0 433 262"/>
<path aria-label="xlabel: 2007; Diferena em R milhes: −198; group: value" role="graphics-symbol" aria-roledescription="point" transform="translate(-5.796875, 68.41396505622694) translate(52.0,36.0) translate(342.1022727272727,24.750000000000007)" d="M-2.739,-1.095L-2.739,1.095L-1.095,1.095L-1.095,2.739L1.095,2.739L1.095,1.095L2.739,1.095L2.739,-1.095L1.095,-1.095L1.095,-2.739L-1.095,-2.739L-1.095,-1.095Z" stroke="#5e98fb" stroke-width="2" fill="none" stroke-miterlimit="10" class="mark-symbol role-mark marks" version="1.1" width="433" height="262" viewBox="0 0 433 262"/>
<path aria-label="xlabel: 2008; Diferena em R milhes: −78; group: value" role="graphics-symbol" aria-roledescription="point" transform="translate(-5.796875, 68.41396505622694) translate(52.0,36.0) translate(342.27272727272725,9.749999999999993)" d="M-2.739,-1.095L-2.739,1.095L-1.095,1.095L-1.095,2.739L1.095,2.739L1.095,1.095L2.739,1.095L2.739,-1.095L1.095,-1.095L1.095,-2.739L-1.095,-2.739L-1.095,-1.095Z" stroke="#5e98fb" stroke-width="2" fill="none" stroke-miterlimit="10" class="mark-symbol role-mark marks" version="1.1" width="433" height="262" viewBox="0 0 433 262"/>
<path aria-label="xlabel: 2009; Diferena em R milhes: −438; group: value" role="graphics-symbol" aria-roledescription="point" transform="translate(-5.796875, 68.41396505622694) translate(52.0,36.0) translate(342.4431818181818,54.75000000000001)" d="M-2.739,-1.095L-2.739,1.095L-1.095,1.095L-1.095,2.739L1.095,2.739L1.095,1.095L2.739,1.095L2.739,-1.095L1.095,-1.095L1.095,-2.739L-1.095,-2.739L-1.095,-1.095Z" stroke="#5e98fb" stroke-width="2" fill="none" stroke-miterlimit="10" class="mark-symbol role-mark marks" version="1.1" width="433" height="262" viewBox="0 0 433 262"/>
<path aria-label="xlabel: 2010; Diferena em R milhes: −995; group: value" role="graphics-symbol" aria-roledescription="point" transform="translate(-5.796875, 68.41396505622694) translate(52.0,36.0) translate(342.6136363636364,124.37499999999999)" d="M-2.739,-1.095L-2.739,1.095L-1.095,1.095L-1.095,2.739L1.095,2.739L1.095,1.095L2.739,1.095L2.739,-1.095L1.095,-1.095L1.095,-2.739L-1.095,-2.739L-1.095,-1.095Z" stroke="#5e98fb" stroke-width="2" fill="none" stroke-miterlimit="10" class="mark-symbol role-mark marks" version="1.1" width="433" height="262" viewBox="0 0 433 262"/>
<path aria-label="xlabel: 2011; Diferena em R milhes: −615; group: value" role="graphics-symbol" aria-roledescription="point" transform="translate(-5.796875, 68.41396505622694) translate(52.0,36.0) translate(342.7840909090909,76.875)" d="M-2.739,-1.095L-2.739,1.095L-1.095,1.095L-1.095,2.739L1.095,2.739L1.095,1.095L2.739,1.095L2.739,-1.095L1.095,-1.095L1.095,-2.739L-1.095,-2.739L-1.095,-1.095Z" stroke="#5e98fb" stroke-width="2" fill="none" stroke-miterlimit="10" class="mark-symbol role-mark marks" version="1.1" width="433" height="262" viewBox="0 0 433 262"/>
<path aria-label="xlabel: 2013; Diferena em R milhes: −1598; group: value" role="graphics-symbol" aria-roledescription="point" transform="translate(-5.796875, 68.41396505622694) translate(52.0,36.0) translate(343.125,199.75)" d="M-2.739,-1.095L-2.739,1.095L-1.095,1.095L-1.095,2.739L1.095,2.739L1.095,1.095L2.739,1.095L2.739,-1.095L1.095,-1.095L1.095,-2.739L-1.095,-2.739L-1.095,-1.095Z" stroke="#5e98fb" stroke-width="2" fill="none" stroke-miterlimit="10" class="mark-symbol role-mark marks" version="1.1" width="433" height="262" viewBox="0 0 433 262"/>
<path aria-label="xlabel: 2014; Diferena em R milhes: −1326; group: value" role="graphics-symbol" aria-roledescription="point" transform="translate(-5.796875, 68.41396505622694) translate(52.0,36.0) translate(343.2954545454545,165.75)" d="M-2.739,-1.095L-2.739,1.095L-1.095,1.095L-1.095,2.739L1.095,2.739L1.095,1.095L2.739,1.095L2.739,-1.095L1.095,-1.095L1.095,-2.739L-1.095,-2.739L-1.095,-1.095Z" stroke="#5e98fb" stroke-width="2" fill="none" stroke-miterlimit="10" class="mark-symbol role-mark marks" version="1.1" width="433" height="262" viewBox="0 0 433 262"/>
<path aria-label="xlabel: 2015; Diferena em R milhes: −906; group: value" role="graphics-symbol" aria-roledescription="point" transform="translate(-5.796875, 68.41396505622694) translate(52.0,36.0) translate(343.46590909090907,113.24999999999999)" d="M-2.739,-1.095L-2.739,1.095L-1.095,1.095L-1.095,2.739L1.095,2.739L1.095,1.095L2.739,1.095L2.739,-1.095L1.095,-1.095L1.095,-2.739L-1.095,-2.739L-1.095,-1.095Z" stroke="#5e98fb" stroke-width="2" fill="none" stroke-miterlimit="10" class="mark-symbol role-mark marks" version="1.1" width="433" height="262" viewBox="0 0 433 262"/></g></svg>