<svg version="1.1" class="marks" width="375.0" height="331.35397257025227" viewBox="0 0 475.0 431.35397257025227" xmlns="http://www.w3.org/2000/svg" xmlns:xlink="http://www.w3.org/1999/xlink"><rect width="100%" height="100%" fill="#ffffff"/>
<g transform="translate(50.0, 69.0665699174889)"><text class="chart-title-line" x="0" y="0" text-anchor="start" font-family="sans-serif" font-size="24" font-weight="700" fill="#0f2740" letter-spacing="0" transform="scale(0.8617658719768999)">Government Faces Major Budget
</text>
<text class="chart-title-line" x="0" y="0" text-anchor="start" font-family="sans-serif" font-size="24" font-weight="700" fill="#0f2740" letter-spacing="0" transform="scale(0.8617658719768999) translate(0.0, 27.1640625)"> Deficits Over Recent  Years
</text>
<text class="chart-subtitle-line" x="0" y="0" text-anchor="start" font-family="sans-serif" font-size="13" font-weight="400" fill="#445f7c" letter-spacing="0.25" transform="scale(0.8617658719768999) translate(0.0, 54.1875)">"Significant financial losses highlight ongoing economic challenges."
</text>
<path transform="translate(-5.5, 59.26787140276335) translate(5.0,36.0) translate(0,-31) translate(0,0) translate(0,0) translate(6,6)" d="M-5,-5h10v10h-10Z" stroke="#202024" stroke-width="1.5" opacity="1" class="mark-symbol role-legend-symbol" pointer-events="none" role="graphics-object" aria-roledescription="group mark container" aria-label="Symbol legend for shape and stroke color with 1 value: value" fill="none" stroke-miterlimit="10" version="1.1" width="385" height="257" viewBox="0 0 385 257"/>
<text text-anchor="start" transform="translate(-5.5, 59.26787140276335) translate(5.0,36.0) translate(0,-31) translate(0,0) translate(0,0) translate(16,9)" font-family="sans-serif" font-size="10px" fill="#000" opacity="1" class="mark-text role-legend-label" pointer-events="none" role="graphics-object" aria-roledescription="group mark container" aria-label="Symbol legend for shape and stroke color with 1 value: value" stroke-miterlimit="10" version="1.1" width="385" height="257" viewBox="0 0 385 257">value
</text>
<text text-anchor="start" transform="translate(-5.5, 59.26787140276335) translate(5.0,36.0) translate(0.5,200.5) translate(0,14)" font-family="sans-serif" font-size="12px" fill="#000d2a" opacity="1" stroke-miterlimit="10" class="mark-text role-axis-label" role="graphics-symbol" aria-roledescription="axis" version="1.1" width="385" height="257" viewBox="0 0 385 257" aria-label="X-axis for a linear scale with values from 0 to 2,200" pointer-events="none" x="0.0" y="0.0">0
</text>
<text text-anchor="middle" transform="translate(-5.5, 59.26787140276335) translate(5.0,36.0) translate(0.5,200.5) translate(34.09090909090909,14)" font-family="sans-serif" font-size="12px" fill="#000d2a" opacity="0" stroke-miterlimit="10" class="mark-text role-axis-label" role="graphics-symbol" aria-roledescription="axis" version="1.1" width="385" height="257" viewBox="0 0 385 257" aria-label="X-axis for a linear scale with values from 0 to 2,200" pointer-events="none" x="0.0" y="0.0">200
</text>
<text text-anchor="middle" transform="translate(-5.5, 59.26787140276335) translate(5.0,36.0) translate(0.5,200.5) translate(68.18181818181819,14)" font-family="sans-serif" font-size="12px" fill="#000d2a" opacity="1" stroke-miterlimit="10" class="mark-text role-axis-label" role="graphics-symbol" aria-roledescription="axis" version="1.1" width="385" height="257" viewBox="0 0 385 257" aria-label="X-axis for a linear scale with values from 0 to 2,200" pointer-events="none" x="0.0" y="0.0">400
</text>
<text text-anchor="middle" transform="translate(-5.5, 59.26787140276335) translate(5.0,36.0) translate(0.5,200.5) translate(102.27272727272727,14)" font-family="sans-serif" font-size="12px" fill="#000d2a" opacity="0" stroke-miterlimit="10" class="mark-text role-axis-label" role="graphics-symbol" aria-roledescription="axis" version="1.1" width="385" height="257" viewBox="0 0 385 257" aria-label="X-axis for a linear scale with values from 0 to 2,200" pointer-events="none" x="0.0" y="0.0">600
</text>
<text text-anchor="middle" transform="translate(-5.5, 59.26787140276335) translate(5.0,36.0) translate(0.5,200.5) translate(136.36363636363637,14)" font-family="sans-serif" font-size="12px" fill="#000d2a" opacity="1" stroke-miterlimit="10" class="mark-text role-axis-label" role="graphics-symbol" aria-roledescription="axis" version="1.1" width="385" height="257" viewBox="0 0 385 257" aria-label="X-axis for a linear scale with values from 0 to 2,200" pointer-events="none" x="0.0" y="0.0">800
</text>
<text text-anchor="middle" transform="translate(-5.5, 59.26787140276335) translate(5.0,36.0) translate(0.5,200.5) translate(170.45454545454544,14)" font-family="sans-serif" font-size="12px" fill="#000d2a" opacity="0" stroke-miterlimit="10" class="mark-text role-axis-label" role="graphics-symbol" aria-roledescription="axis" version="1.1" width="385" height="257" viewBox="0 0 385 257" aria-label="X-axis for a linear scale with values from 0 to 2,200" pointer-events="none" x="0.0" y="0.0">1,000
</text>
<text text-anchor="middle" transform="translate(-5.5, 59.26787140276335) translate(5.0,36.0) translate(0.5,200.5) translate(204.54545454545453,14)" font-family="sans-serif" font-size="12px" fill="#000d2a" opacity="1" stroke-miterlimit="10" class="mark-text role-axis-label" role="graphics-symbol" aria-roledescription="axis" version="1.1" width="385" height="257" viewBox="0 0 385 257" aria-label="X-axis for a linear scale with values from 0 to 2,200" pointer-events="none" x="0.0" y="0.0">1,200
</text>
<text text-anchor="middle" transform="translate(-5.5, 59.26787140276335) translate(5.0,36.0) translate(0.5,200.5) translate(238.63636363636363,14)" font-family="sans-serif" font-size="12px" fill="#000d2a" opacity="0" stroke-miterlimit="10" class="mark-text role-axis-label" role="graphics-symbol" aria-roledescription="axis" version="1.1" width="385" height="257" viewBox="0 0 385 257" aria-label="X-axis for a linear scale with values from 0 to 2,200" pointer-events="none" x="0.0" y="0.0">1,400
</text>
<text text-anchor="middle" transform="translate(-5.5, 59.26787140276335) translate(5.0,36.0) translate(0.5,200.5) translate(272.72727272727275,14)" font-family="sans-serif" font-size="12px" fill="#000d2a" opacity="1" stroke-miterlimit="10" class="mark-text role-axis-label" role="graphics-symbol" aria-roledescription="axis" version="1.1" width="385" height="257" viewBox="0 0 385 257" aria-label="X-axis for a linear scale with values from 0 to 2,200" pointer-events="none" x="0.0" y="0.0">1,600
</text>
<text text-anchor="middle" transform="translate(-5.5, 59.26787140276335) translate(5.0,36.0) translate(0.5,200.5) translate(306.8181818181818,14)" font-family="sans-serif" font-size="12px" fill="#000d2a" opacity="0" stroke-miterlimit="10" class="mark-text role-axis-label" role="graphics-symbol" aria-roledescription="axis" version="1.1" width="385" height="257" viewBox="0 0 385 257" aria-label="X-axis for a linear scale with values from 0 to 2,200" pointer-events="none" x="0.0" y="0.0">1,800
</text>
<text text-anchor="middle" transform="translate(-5.5, 59.26787140276335) translate(5.0,36.0) translate(0.5,200.5) translate(340.9090909090909,14)" font-family="sans-serif" font-size="12px" fill="#000d2a" opacity="1" stroke-miterlimit="10" class="mark-text role-axis-label" role="graphics-symbol" aria-roledescription="axis" version="1.1" width="385" height="257" viewBox="0 0 385 257" aria-label="X-axis for a linear scale with values from 0 to 2,200" pointer-events="none" x="0.0" y="0.0">2,000
</text>
<text text-anchor="end" transform="translate(-5.5, 59.26787140276335) translate(5.0,36.0) translate(0.5,200.5) translate(375,14)" font-family="sans-serif" font-size="12px" fill="#000d2a" opacity="0" stroke-miterlimit="10" class="mark-text role-axis-label" role="graphics-symbol" aria-roledescription="axis" version="1.1" width="385" height="257" viewBox="0 0 385 257" aria-label="X-axis for a linear scale with values from 0 to 2,200" pointer-events="none" x="0.0" y="0.0">2,200
</text>
<line transform="translate(-5.5, 59.26787140276335) translate(5.0,36.0) translate(0.5,200.5) translate(0,0)" x2="375" y2="0" stroke="#0f223b" stroke-width="1" opacity="1" fill="none" stroke-miterlimit="10" class="mark-rule role-axis-domain" role="graphics-symbol" aria-roledescription="axis" version="1.1" width="385" height="257" viewBox="0 0 385 257" aria-label="X-axis for a linear scale with values from 0 to 2,200" pointer-events="none"/>
<path aria-label="xlabel: 2006; Diferena em R milhes: 0; group: value" role="graphics-symbol" aria-roledescription="point" transform="translate(-5.5, 59.26787140276335) translate(5.0,36.0) translate(341.9318181818182,0)" d="M-2.739,-2.739h5.477v5.477h-5.477Z" stroke="#202024" stroke-width="2" fill="none" stroke-miterlimit="10" class="mark-symbol role-mark marks" version="1.1" width="385" height="257" viewBox="0 0 385 257"/>
<path aria-label="xlabel: 2007; Diferena em R milhes: −198; group: value" role="graphics-symbol" aria-roledescription="point" transform="translate(-5.5, 59.26787140276335) translate(5.0,36.0) translate(342.1022727272727,24.750000000000007)" d="M-2.739,-2.739h5.477v5.477h-5.477Z" stroke="#202024" stroke-width="2" fill="none" stroke-miterlimit="10" class="mark-symbol role-mark marks" version="1.1" width="385" height="257" viewBox="0 0 385 257"/>
<path aria-label="xlabel: 2008; Diferena em R milhes: −78; group: value" role="graphics-symbol" aria-roledescription="point" transform="translate(-5.5, 59.26787140276335) translate(5.0,36.0) translate(342.27272727272725,9.749999999999993)" d="M-2.739,-2.739h5.477v5.477h-5.477Z" stroke="#202024" stroke-width="2" fill="none" stroke-miterlimit="10" class="mark-symbol role-mark marks" version="1.1" width="385" height="257" viewBox="0 0 385 257"/>
<path aria-label="xlabel: 2009; Diferena em R milhes: −438; group: value" role="graphics-symbol" aria-roledescription="point" transform="translate(-5.5, 59.26787140276335) translate(5.0,36.0) translate(342.4431818181818,54.75000000000001)" d="M-2.739,-2.739h5.477v5.477h-5.477Z" stroke="#202024" stroke-width="2" fill="none" stroke-miterlimit="10" class="mark-symbol role-mark marks" version="1.1" width="385" height="257" viewBox="0 0 385 257"/>
<path aria-label="xlabel: 2010; Diferena em R milhes: −995; group: value" role="graphics-symbol" aria-roledescription="point" transform="translate(-5.5, 59.26787140276335) translate(5.0,36.0) translate(342.6136363636364,124.37499999999999)" d="M-2.739,-2.739h5.477v5.477h-5.477Z" stroke="#202024" stroke-width="2" fill="none" stroke-miterlimit="10" class="mark-symbol role-mark marks" version="1.1" width="385" height="257" viewBox="0 0 385 257"/>
<path aria-label="xlabel: 2011; Diferena em R milhes: −615; group: value" role="graphics-symbol" aria-roledescription="point" transform="translate(-5.5, 59.26787140276335) translate(5.0,36.0) translate(342.7840909090909,76.875)" d="M-2.739,-2.739h5.477v5.477h-5.477Z" stroke="#202024" stroke-width="2" fill="none" stroke-miterlimit="10" class="mark-symbol role-mark marks" version="1.1" width="385" height="257" viewBox="0 0 385 257"/>
<path aria-label="xlabel: 2013; Diferena em R milhes: −1598; group: value" role="graphics-symbol" aria-roledescription="point" transform="translate(-5.5, 59.26787140276335) translate(5.0,36.0) translate(343.125,199.75)" d="M-2.739,-2.739h5.477v5.477h-5.477Z" stroke="#202024" stroke-width="2" fill="none" stroke-miterlimit="10" class="mark-symbol role-mark marks" version="1.1" width="385" height="257" viewBox="0 0 385 257"/>
<path aria-label="xlabel: 2014; Diferena em R milhes: −1326; group: value" role="graphics-symbol" aria-roledescription="point" transform="translate(-5.5, 59.26787140276335) translate(5.0,36.0) translate(343.2954545454545,165.75)" d="M-2.739,-2.739h5.477v5.477h-5.477Z" stroke="#202024" stroke-width="2" fill="none" stroke-miterlimit="10" class="mark-symbol role-mark marks" version="1.1" width="385" height="257" viewBox="0 0 385 257"/>
<path aria-label="xlabel: 2015; Diferena em R milhes: −906; group: value" role="graphics-symbol" aria-roledescription="point" transform="translate(-5.5, 59.26787140276335) translate(5.0,36.0) translate(343.46590909090907,113.24999999999999)" d="M-2.739,-2.739h5.477v5.477h-5.477Z" stroke="#202024" stroke-width="2" fill="none" stroke-miterlimit="10" class="mark-symbol role-mark marks" version="1.1" width="385" height="257" viewBox="0 0 385 257"/></g></svg>