<svg version="1.1" class="marks" width="466.283203125" height="401.59410587706543" viewBox="0 0 566.283203125 501.59410587706543" xmlns="http://www.w3.org/2000/svg" xmlns:xlink="http://www.w3.org/1999/xlink"><rect width="100%" height="100%" fill="#ffffff"/>
<g transform="translate(50.0, 82.70893030384346)"><text class="chart-title-line" x="0" y="0" text-anchor="start" font-family="sans-serif" font-size="24" font-weight="700" fill="#0f2740" letter-spacing="0" transform="scale(1.4783697312471618)">Uber Eats' Revenue Surge
</text>
<text class="chart-title-line" x="0" y="0" text-anchor="start" font-family="sans-serif" font-size="24" font-weight="700" fill="#0f2740" letter-spacing="0" transform="scale(1.4783697312471618) translate(0.0, 27.1640625)">Amid Rising Competition
</text>
<text class="chart-subtitle-line" x="0" y="0" text-anchor="start" font-family="sans-serif" font-size="13" font-weight="400" fill="#445f7c" letter-spacing="0.25" transform="scale(1.4783697312471618) translate(0.0, 54.1875)">"Exploring financial performance in the delivery
</text>
<text class="chart-subtitle-line" x="0" y="0" text-anchor="start" font-family="sans-serif" font-size="13" font-weight="400" fill="#445f7c" letter-spacing="0.25" transform="scale(1.4783697312471618) translate(0.0, 54.1875) translate(0.0, 14.7138671875)">service sector"
</text>
<path transform="translate(-5.5, 115.86564432322199) translate(5.0,36.0) translate(0,-31) translate(0,0) translate(0,0.25) translate(6,6)" d="M5,0A5,5,0,1,1,-5,0A5,5,0,1,1,5,0" stroke="#141715" stroke-width="1.5" opacity="1" class="mark-symbol role-legend-symbol" pointer-events="none" role="graphics-object" aria-roledescription="group mark container" aria-label="Symbol legend for stroke color with 2 values: Uber Eats, DOORDASH" fill="none" stroke-miterlimit="10" version="1.1" width="474" height="257" viewBox="0 0 474 257"/>
<text text-anchor="start" transform="translate(-5.5, 115.86564432322199) translate(5.0,36.0) translate(0,-31) translate(0,0) translate(0,0.25) translate(16,9)" font-family="sans-serif" font-size="10px" fill="#000" opacity="1" class="mark-text role-legend-label" pointer-events="none" role="graphics-object" aria-roledescription="group mark container" aria-label="Symbol legend for stroke color with 2 values: Uber Eats, DOORDASH" stroke-miterlimit="10" version="1.1" width="474" height="257" viewBox="0 0 474 257">Uber Eats
</text>
<path transform="translate(-5.5, 115.86564432322199) translate(5.0,36.0) translate(0,-31) translate(0,0) translate(72,0.25) translate(6,6)" d="M5,0A5,5,0,1,1,-5,0A5,5,0,1,1,5,0" stroke="#283849" stroke-width="1.5" opacity="1" class="mark-symbol role-legend-symbol" pointer-events="none" role="graphics-object" aria-roledescription="group mark container" aria-label="Symbol legend for stroke color with 2 values: Uber Eats, DOORDASH" fill="none" stroke-miterlimit="10" version="1.1" width="474" height="257" viewBox="0 0 474 257"/>
<text text-anchor="start" transform="translate(-5.5, 115.86564432322199) translate(5.0,36.0) translate(0,-31) translate(0,0) translate(72,0.25) translate(16,9)" font-family="sans-serif" font-size="10px" fill="#000" opacity="1" class="mark-text role-legend-label" pointer-events="none" role="graphics-object" aria-roledescription="group mark container" aria-label="Symbol legend for stroke color with 2 values: Uber Eats, DOORDASH" stroke-miterlimit="10" version="1.1" width="474" height="257" viewBox="0 0 474 257">DOORDASH
</text>
<path transform="translate(-5.5, 115.86564432322199) translate(5.0,36.0) translate(393,0) translate(0,16) translate(0,0) translate(6,6)" d="M-5,-5h10v10h-10Z" stroke="#888" stroke-width="1.5" opacity="1" class="mark-symbol role-legend-symbol" pointer-events="none" role="graphics-object" aria-roledescription="group mark container" aria-label="Symbol legend titled 'group' for shape with 2 values: DOORDASH, Uber Eats" fill="none" stroke-miterlimit="10" version="1.1" width="474" height="257" viewBox="0 0 474 257"/>
<text text-anchor="start" transform="translate(-5.5, 115.86564432322199) translate(5.0,36.0) translate(393,0) translate(0,16) translate(0,0) translate(16,9)" font-family="sans-serif" font-size="10px" fill="#000" opacity="1" class="mark-text role-legend-label" pointer-events="none" role="graphics-object" aria-roledescription="group mark container" aria-label="Symbol legend titled 'group' for shape with 2 values: DOORDASH, Uber Eats" stroke-miterlimit="10" version="1.1" width="474" height="257" viewBox="0 0 474 257">DOORDASH
</text>
<path transform="translate(-5.5, 115.86564432322199) translate(5.0,36.0) translate(393,0) translate(0,16) translate(0,16) translate(6,6)" d="M0,2.5L3,4L2.5,0.5L5,-1.5L1.5,-2L0,-5L-1.5,-2L-5,-1.5L-2.5,0.5L-3,4L0,2.5Z" stroke="#888" stroke-width="1.5" opacity="1" class="mark-symbol role-legend-symbol" pointer-events="none" role="graphics-object" aria-roledescription="group mark container" aria-label="Symbol legend titled 'group' for shape with 2 values: DOORDASH, Uber Eats" fill="none" stroke-miterlimit="10" version="1.1" width="474" height="257" viewBox="0 0 474 257"/>
<text text-anchor="start" transform="translate(-5.5, 115.86564432322199) translate(5.0,36.0) translate(393,0) translate(0,16) translate(0,16) translate(16,9)" font-family="sans-serif" font-size="10px" fill="#000" opacity="1" class="mark-text role-legend-label" pointer-events="none" role="graphics-object" aria-roledescription="group mark container" aria-label="Symbol legend titled 'group' for shape with 2 values: DOORDASH, Uber Eats" stroke-miterlimit="10" version="1.1" width="474" height="257" viewBox="0 0 474 257">Uber Eats
</text>
<text text-anchor="start" transform="translate(-5.5, 115.86564432322199) translate(5.0,36.0) translate(393,0) translate(0,9)" font-family="sans-serif" font-size="11px" font-weight="bold" fill="#000" opacity="1" class="mark-text role-legend-title" pointer-events="none" role="graphics-symbol" aria-roledescription="legend" aria-label="Symbol legend titled 'group' for shape with 2 values: DOORDASH, Uber Eats" stroke-miterlimit="10" version="1.1" width="474" height="257" viewBox="0 0 474 257">group
</text>
<text text-anchor="start" transform="translate(-5.5, 115.86564432322199) translate(5.0,36.0) translate(0.5,200.5) translate(0,14)" font-family="sans-serif" font-size="12px" fill="#000d2a" opacity="1" stroke-miterlimit="10" class="mark-text role-axis-label" role="graphics-symbol" aria-roledescription="axis" version="1.1" width="474" height="257" viewBox="0 0 474 257" aria-label="X-axis for a linear scale with values from 0 to 28" pointer-events="none" x="0.0" y="0.0">0
</text>
<text text-anchor="middle" transform="translate(-5.5, 115.86564432322199) translate(5.0,36.0) translate(0.5,200.5) translate(26.785714285714285,14)" font-family="sans-serif" font-size="12px" fill="#000d2a" opacity="1" stroke-miterlimit="10" class="mark-text role-axis-label" role="graphics-symbol" aria-roledescription="axis" version="1.1" width="474" height="257" viewBox="0 0 474 257" aria-label="X-axis for a linear scale with values from 0 to 28" pointer-events="none" x="0.0" y="0.0">2
</text>
<text text-anchor="middle" transform="translate(-5.5, 115.86564432322199) translate(5.0,36.0) translate(0.5,200.5) translate(53.57142857142857,14)" font-family="sans-serif" font-size="12px" fill="#000d2a" opacity="1" stroke-miterlimit="10" class="mark-text role-axis-label" role="graphics-symbol" aria-roledescription="axis" version="1.1" width="474" height="257" viewBox="0 0 474 257" aria-label="X-axis for a linear scale with values from 0 to 28" pointer-events="none" x="0.0" y="0.0">4
</text>
<text text-anchor="middle" transform="translate(-5.5, 115.86564432322199) translate(5.0,36.0) translate(0.5,200.5) translate(80.35714285714285,14)" font-family="sans-serif" font-size="12px" fill="#000d2a" opacity="1" stroke-miterlimit="10" class="mark-text role-axis-label" role="graphics-symbol" aria-roledescription="axis" version="1.1" width="474" height="257" viewBox="0 0 474 257" aria-label="X-axis for a linear scale with values from 0 to 28" pointer-events="none" x="0.0" y="0.0">6
</text>
<text text-anchor="middle" transform="translate(-5.5, 115.86564432322199) translate(5.0,36.0) translate(0.5,200.5) translate(107.14285714285714,14)" font-family="sans-serif" font-size="12px" fill="#000d2a" opacity="1" stroke-miterlimit="10" class="mark-text role-axis-label" role="graphics-symbol" aria-roledescription="axis" version="1.1" width="474" height="257" viewBox="0 0 474 257" aria-label="X-axis for a linear scale with values from 0 to 28" pointer-events="none" x="0.0" y="0.0">8
</text>
<text text-anchor="middle" transform="translate(-5.5, 115.86564432322199) translate(5.0,36.0) translate(0.5,200.5) translate(133.92857142857144,14)" font-family="sans-serif" font-size="12px" fill="#000d2a" opacity="1" stroke-miterlimit="10" class="mark-text role-axis-label" role="graphics-symbol" aria-roledescription="axis" version="1.1" width="474" height="257" viewBox="0 0 474 257" aria-label="X-axis for a linear scale with values from 0 to 28" pointer-events="none" x="0.0" y="0.0">10
</text>
<text text-anchor="middle" transform="translate(-5.5, 115.86564432322199) translate(5.0,36.0) translate(0.5,200.5) translate(160.7142857142857,14)" font-family="sans-serif" font-size="12px" fill="#000d2a" opacity="1" stroke-miterlimit="10" class="mark-text role-axis-label" role="graphics-symbol" aria-roledescription="axis" version="1.1" width="474" height="257" viewBox="0 0 474 257" aria-label="X-axis for a linear scale with values from 0 to 28" pointer-events="none" x="0.0" y="0.0">12
</text>
<text text-anchor="middle" transform="translate(-5.5, 115.86564432322199) translate(5.0,36.0) translate(0.5,200.5) translate(187.5,14)" font-family="sans-serif" font-size="12px" fill="#000d2a" opacity="1" stroke-miterlimit="10" class="mark-text role-axis-label" role="graphics-symbol" aria-roledescription="axis" version="1.1" width="474" height="257" viewBox="0 0 474 257" aria-label="X-axis for a linear scale with values from 0 to 28" pointer-events="none" x="0.0" y="0.0">14
</text>
<text text-anchor="middle" transform="translate(-5.5, 115.86564432322199) translate(5.0,36.0) translate(0.5,200.5) translate(214.28571428571428,14)" font-family="sans-serif" font-size="12px" fill="#000d2a" opacity="1" stroke-miterlimit="10" class="mark-text role-axis-label" role="graphics-symbol" aria-roledescription="axis" version="1.1" width="474" height="257" viewBox="0 0 474 257" aria-label="X-axis for a linear scale with values from 0 to 28" pointer-events="none" x="0.0" y="0.0">16
</text>
<text text-anchor="middle" transform="translate(-5.5, 115.86564432322199) translate(5.0,36.0) translate(0.5,200.5) translate(241.07142857142858,14)" font-family="sans-serif" font-size="12px" fill="#000d2a" opacity="1" stroke-miterlimit="10" class="mark-text role-axis-label" role="graphics-symbol" aria-roledescription="axis" version="1.1" width="474" height="257" viewBox="0 0 474 257" aria-label="X-axis for a linear scale with values from 0 to 28" pointer-events="none" x="0.0" y="0.0">18
</text>
<text text-anchor="middle" transform="translate(-5.5, 115.86564432322199) translate(5.0,36.0) translate(0.5,200.5) translate(267.8571428571429,14)" font-family="sans-serif" font-size="12px" fill="#000d2a" opacity="1" stroke-miterlimit="10" class="mark-text role-axis-label" role="graphics-symbol" aria-roledescription="axis" version="1.1" width="474" height="257" viewBox="0 0 474 257" aria-label="X-axis for a linear scale with values from 0 to 28" pointer-events="none" x="0.0" y="0.0">20
</text>
<text text-anchor="middle" transform="translate(-5.5, 115.86564432322199) translate(5.0,36.0) translate(0.5,200.5) translate(294.6428571428571,14)" font-family="sans-serif" font-size="12px" fill="#000d2a" opacity="1" stroke-miterlimit="10" class="mark-text role-axis-label" role="graphics-symbol" aria-roledescription="axis" version="1.1" width="474" height="257" viewBox="0 0 474 257" aria-label="X-axis for a linear scale with values from 0 to 28" pointer-events="none" x="0.0" y="0.0">22
</text>
<text text-anchor="middle" transform="translate(-5.5, 115.86564432322199) translate(5.0,36.0) translate(0.5,200.5) translate(321.4285714285714,14)" font-family="sans-serif" font-size="12px" fill="#000d2a" opacity="1" stroke-miterlimit="10" class="mark-text role-axis-label" role="graphics-symbol" aria-roledescription="axis" version="1.1" width="474" height="257" viewBox="0 0 474 257" aria-label="X-axis for a linear scale with values from 0 to 28" pointer-events="none" x="0.0" y="0.0">24
</text>
<text text-anchor="middle" transform="translate(-5.5, 115.86564432322199) translate(5.0,36.0) translate(0.5,200.5) translate(348.2142857142857,14)" font-family="sans-serif" font-size="12px" fill="#000d2a" opacity="1" stroke-miterlimit="10" class="mark-text role-axis-label" role="graphics-symbol" aria-roledescription="axis" version="1.1" width="474" height="257" viewBox="0 0 474 257" aria-label="X-axis for a linear scale with values from 0 to 28" pointer-events="none" x="0.0" y="0.0">26
</text>
<text text-anchor="end" transform="translate(-5.5, 115.86564432322199) translate(5.0,36.0) translate(0.5,200.5) translate(375,14)" font-family="sans-serif" font-size="12px" fill="#000d2a" opacity="1" stroke-miterlimit="10" class="mark-text role-axis-label" role="graphics-symbol" aria-roledescription="axis" version="1.1" width="474" height="257" viewBox="0 0 474 257" aria-label="X-axis for a linear scale with values from 0 to 28" pointer-events="none" x="0.0" y="0.0">28
</text>
<line transform="translate(-5.5, 115.86564432322199) translate(5.0,36.0) translate(0.5,200.5) translate(0,0)" x2="375" y2="0" stroke="#0f223b" stroke-width="1" opacity="1" fill="none" stroke-miterlimit="10" class="mark-rule role-axis-domain" role="graphics-symbol" aria-roledescription="axis" version="1.1" width="474" height="257" viewBox="0 0 474 257" aria-label="X-axis for a linear scale with values from 0 to 28" pointer-events="none"/>
<path aria-label="Height: 4; Revenue M: 168.390061755; group: Uber Eats" role="graphics-symbol" aria-roledescription="point" transform="translate(-5.5, 115.86564432322199) translate(5.0,36.0) translate(53.57142857142857,187.97213844607205)" d="M0,1.369L1.643,2.191L1.369,0.274L2.739,-0.822L0.822,-1.095L0,-2.739L-0.822,-1.095L-2.739,-0.822L-1.369,0.274L-1.643,2.191L0,1.369Z" stroke="#141715" stroke-width="2" fill="none" stroke-miterlimit="10" class="mark-symbol role-mark marks" version="1.1" width="474" height="257" viewBox="0 0 474 257"/>
<path aria-label="Height: 6.23380726698; Revenue M: 203.758829136; group: Uber Eats" role="graphics-symbol" aria-roledescription="point" transform="translate(-5.5, 115.86564432322199) translate(5.0,36.0) translate(83.48849018280133,185.44579791886986)" d="M0,1.369L1.643,2.191L1.369,0.274L2.739,-0.822L0.822,-1.095L0,-2.739L-0.822,-1.095L-2.739,-0.822L-1.369,0.274L-1.643,2.191L0,1.369Z" stroke="#141715" stroke-width="2" fill="none" stroke-miterlimit="10" class="mark-symbol role-mark marks" version="1.1" width="474" height="257" viewBox="0 0 474 257"/>
<path aria-label="Height: 5.70774091627; Revenue M: 153.06359589; group: Uber Eats" role="graphics-symbol" aria-roledescription="point" transform="translate(-5.5, 115.86564432322199) translate(5.0,36.0) translate(76.44295870007143,189.0668860078597)" d="M0,1.369L1.643,2.191L1.369,0.274L2.739,-0.822L0.822,-1.095L0,-2.739L-0.822,-1.095L-2.739,-0.822L-1.369,0.274L-1.643,2.191L0,1.369Z" stroke="#141715" stroke-width="2" fill="none" stroke-miterlimit="10" class="mark-symbol role-mark marks" version="1.1" width="474" height="257" viewBox="0 0 474 257"/>
<path aria-label="Height: 27; Revenue M: 234.768190305; group: Uber Eats" role="graphics-symbol" aria-roledescription="point" transform="translate(-5.5, 115.86564432322199) translate(5.0,36.0) translate(361.6071428571429,183.23084354967162)" d="M0,1.369L1.643,2.191L1.369,0.274L2.739,-0.822L0.822,-1.095L0,-2.739L-0.822,-1.095L-2.739,-0.822L-1.369,0.274L-1.643,2.191L0,1.369Z" stroke="#141715" stroke-width="2" fill="none" stroke-miterlimit="10" class="mark-symbol role-mark marks" version="1.1" width="474" height="257" viewBox="0 0 474 257"/>
<path aria-label="Height: 14; Revenue M: 327.969918922; group: Uber Eats" role="graphics-symbol" aria-roledescription="point" transform="translate(-5.5, 115.86564432322199) translate(5.0,36.0) translate(187.5,176.57357721985036)" d="M0,1.369L1.643,2.191L1.369,0.274L2.739,-0.822L0.822,-1.095L0,-2.739L-0.822,-1.095L-2.739,-0.822L-1.369,0.274L-1.643,2.191L0,1.369Z" stroke="#141715" stroke-width="2" fill="none" stroke-miterlimit="10" class="mark-symbol role-mark marks" version="1.1" width="474" height="257" viewBox="0 0 474 257"/>
<path aria-label="Height: 25; Revenue M: 386.534017469; group: Uber Eats" role="graphics-symbol" aria-roledescription="point" transform="translate(-5.5, 115.86564432322199) translate(5.0,36.0) translate(334.8214285714286,172.39042732364572)" d="M0,1.369L1.643,2.191L1.369,0.274L2.739,-0.822L0.822,-1.095L0,-2.739L-0.822,-1.095L-2.739,-0.822L-1.369,0.274L-1.643,2.191L0,1.369Z" stroke="#141715" stroke-width="2" fill="none" stroke-miterlimit="10" class="mark-symbol role-mark marks" version="1.1" width="474" height="257" viewBox="0 0 474 257"/>
<path aria-label="Height: 17; Revenue M: 404.529134516; group: Uber Eats" role="graphics-symbol" aria-roledescription="point" transform="translate(-5.5, 115.86564432322199) translate(5.0,36.0) translate(227.67857142857142,171.10506182027078)" d="M0,1.369L1.643,2.191L1.369,0.274L2.739,-0.822L0.822,-1.095L0,-2.739L-0.822,-1.095L-2.739,-0.822L-1.369,0.274L-1.643,2.191L0,1.369Z" stroke="#141715" stroke-width="2" fill="none" stroke-miterlimit="10" class="mark-symbol role-mark marks" version="1.1" width="474" height="257" viewBox="0 0 474 257"/>
<path aria-label="Height: 8; Revenue M: 515.141070333; group: Uber Eats" role="graphics-symbol" aria-roledescription="point" transform="translate(-5.5, 115.86564432322199) translate(5.0,36.0) translate(107.14285714285714,163.20420926194296)" d="M0,1.369L1.643,2.191L1.369,0.274L2.739,-0.822L0.822,-1.095L0,-2.739L-0.822,-1.095L-2.739,-0.822L-1.369,0.274L-1.643,2.191L0,1.369Z" stroke="#141715" stroke-width="2" fill="none" stroke-miterlimit="10" class="mark-symbol role-mark marks" version="1.1" width="474" height="257" viewBox="0 0 474 257"/>
<path aria-label="Height: 3; Revenue M: 874.495058295; group: Uber Eats" role="graphics-symbol" aria-roledescription="point" transform="translate(-5.5, 115.86564432322199) translate(5.0,36.0) translate(40.17857142857142,137.5360672646325)" d="M0,1.369L1.643,2.191L1.369,0.274L2.739,-0.822L0.822,-1.095L0,-2.739L-0.822,-1.095L-2.739,-0.822L-1.369,0.274L-1.643,2.191L0,1.369Z" stroke="#141715" stroke-width="2" fill="none" stroke-miterlimit="10" class="mark-symbol role-mark marks" version="1.1" width="474" height="257" viewBox="0 0 474 257"/>
<path aria-label="Height: 16; Revenue M: 1123.91341245; group: Uber Eats" role="graphics-symbol" aria-roledescription="point" transform="translate(-5.5, 115.86564432322199) translate(5.0,36.0) translate(214.28571428571428,119.72047053908317)" d="M0,1.369L1.643,2.191L1.369,0.274L2.739,-0.822L0.822,-1.095L0,-2.739L-0.822,-1.095L-2.739,-0.822L-1.369,0.274L-1.643,2.191L0,1.369Z" stroke="#141715" stroke-width="2" fill="none" stroke-miterlimit="10" class="mark-symbol role-mark marks" version="1.1" width="474" height="257" viewBox="0 0 474 257"/>
<path aria-label="Height: 17; Revenue M: 1344.44270364; group: Uber Eats" role="graphics-symbol" aria-roledescription="point" transform="translate(-5.5, 115.86564432322199) translate(5.0,36.0) translate(227.67857142857142,103.96837831133392)" d="M0,1.369L1.643,2.191L1.369,0.274L2.739,-0.822L0.822,-1.095L0,-2.739L-0.822,-1.095L-2.739,-0.822L-1.369,0.274L-1.643,2.191L0,1.369Z" stroke="#141715" stroke-width="2" fill="none" stroke-miterlimit="10" class="mark-symbol role-mark marks" version="1.1" width="474" height="257" viewBox="0 0 474 257"/>
<path aria-label="Height: 17; Revenue M: 1738.52571384; group: Uber Eats" role="graphics-symbol" aria-roledescription="point" transform="translate(-5.5, 115.86564432322199) translate(5.0,36.0) translate(227.67857142857142,75.81959186870859)" d="M0,1.369L1.643,2.191L1.369,0.274L2.739,-0.822L0.822,-1.095L0,-2.739L-0.822,-1.095L-2.739,-0.822L-1.369,0.274L-1.643,2.191L0,1.369Z" stroke="#141715" stroke-width="2" fill="none" stroke-miterlimit="10" class="mark-symbol role-mark marks" version="1.1" width="474" height="257" viewBox="0 0 474 257"/>
<path aria-label="Height: 19; Revenue M: 1953.23332419; group: Uber Eats" role="graphics-symbol" aria-roledescription="point" transform="translate(-5.5, 115.86564432322199) translate(5.0,36.0) translate(254.46428571428572,60.483333986134504)" d="M0,1.369L1.643,2.191L1.369,0.274L2.739,-0.822L0.822,-1.095L0,-2.739L-0.822,-1.095L-2.739,-0.822L-1.369,0.274L-1.643,2.191L0,1.369Z" stroke="#141715" stroke-width="2" fill="none" stroke-miterlimit="10" class="mark-symbol role-mark marks" version="1.1" width="474" height="257" viewBox="0 0 474 257"/>
<path aria-label="Height: 20; Revenue M: 2231.61385505; group: Uber Eats" role="graphics-symbol" aria-roledescription="point" transform="translate(-5.5, 115.86564432322199) translate(5.0,36.0) translate(267.8571428571429,40.5990103534265)" d="M0,1.369L1.643,2.191L1.369,0.274L2.739,-0.822L0.822,-1.095L0,-2.739L-0.822,-1.095L-2.739,-0.822L-1.369,0.274L-1.643,2.191L0,1.369Z" stroke="#141715" stroke-width="2" fill="none" stroke-miterlimit="10" class="mark-symbol role-mark marks" version="1.1" width="474" height="257" viewBox="0 0 474 257"/>
<path aria-label="Height: 21; Revenue M: 2417.43240244; group: Uber Eats" role="graphics-symbol" aria-roledescription="point" transform="translate(-5.5, 115.86564432322199) translate(5.0,36.0) translate(281.25,27.32625696865245)" d="M0,1.369L1.643,2.191L1.369,0.274L2.739,-0.822L0.822,-1.095L0,-2.739L-0.822,-1.095L-2.739,-0.822L-1.369,0.274L-1.643,2.191L0,1.369Z" stroke="#141715" stroke-width="2" fill="none" stroke-miterlimit="10" class="mark-symbol role-mark marks" version="1.1" width="474" height="257" viewBox="0 0 474 257"/>
<path aria-label="Height: 22; Revenue M: 2510.67068792; group: Uber Eats" role="graphics-symbol" aria-roledescription="point" transform="translate(-5.5, 115.86564432322199) translate(5.0,36.0) translate(294.6428571428571,20.66637943415188)" d="M0,1.369L1.643,2.191L1.369,0.274L2.739,-0.822L0.822,-1.095L0,-2.739L-0.822,-1.095L-2.739,-0.822L-1.369,0.274L-1.643,2.191L0,1.369Z" stroke="#141715" stroke-width="2" fill="none" stroke-miterlimit="10" class="mark-symbol role-mark marks" version="1.1" width="474" height="257" viewBox="0 0 474 257"/>
<path aria-label="Height: 23; Revenue M: 2684.90070894; group: Uber Eats" role="graphics-symbol" aria-roledescription="point" transform="translate(-5.5, 115.86564432322199) translate(5.0,36.0) translate(308.0357142857143,8.221377932709206)" d="M0,1.369L1.643,2.191L1.369,0.274L2.739,-0.822L0.822,-1.095L0,-2.739L-0.822,-1.095L-2.739,-0.822L-1.369,0.274L-1.643,2.191L0,1.369Z" stroke="#141715" stroke-width="2" fill="none" stroke-miterlimit="10" class="mark-symbol role-mark marks" version="1.1" width="474" height="257" viewBox="0 0 474 257"/>
<path aria-label="Height: 24; Revenue M: 288.84493361; group: DOORDASH" role="graphics-symbol" aria-roledescription="point" transform="translate(-5.5, 115.86564432322199) translate(5.0,36.0) translate(321.4285714285714,179.3682190278485)" d="M-2.739,-2.739h5.477v5.477h-5.477Z" stroke="#283849" stroke-width="2" fill="none" stroke-miterlimit="10" class="mark-symbol role-mark marks" version="1.1" width="474" height="257" viewBox="0 0 474 257"/>
<path aria-label="Height: 25; Revenue M: 353.157599258; group: DOORDASH" role="graphics-symbol" aria-roledescription="point" transform="translate(-5.5, 115.86564432322199) translate(5.0,36.0) translate(334.8214285714286,174.77445719582724)" d="M-2.739,-2.739h5.477v5.477h-5.477Z" stroke="#283849" stroke-width="2" fill="none" stroke-miterlimit="10" class="mark-symbol role-mark marks" version="1.1" width="474" height="257" viewBox="0 0 474 257"/>
<path aria-label="Height: 26; Revenue M: 676.230595485; group: DOORDASH" role="graphics-symbol" aria-roledescription="point" transform="translate(-5.5, 115.86564432322199) translate(5.0,36.0) translate(348.2142857142857,151.69781460819803)" d="M-2.739,-2.739h5.477v5.477h-5.477Z" stroke="#283849" stroke-width="2" fill="none" stroke-miterlimit="10" class="mark-symbol role-mark marks" version="1.1" width="474" height="257" viewBox="0 0 474 257"/>
<path aria-label="Height: 11; Revenue M: 869.38623634; group: DOORDASH" role="graphics-symbol" aria-roledescription="point" transform="translate(-5.5, 115.86564432322199) translate(5.0,36.0) translate(147.32142857142856,137.90098311856173)" d="M-2.739,-2.739h5.477v5.477h-5.477Z" stroke="#283849" stroke-width="2" fill="none" stroke-miterlimit="10" class="mark-symbol role-mark marks" version="1.1" width="474" height="257" viewBox="0 0 474 257"/>
<path aria-label="Height: 10; Revenue M: 1067.45133367; group: DOORDASH" role="graphics-symbol" aria-roledescription="point" transform="translate(-5.5, 115.86564432322199) translate(5.0,36.0) translate(133.92857142857144,123.75347616622925)" d="M-2.739,-2.739h5.477v5.477h-5.477Z" stroke="#283849" stroke-width="2" fill="none" stroke-miterlimit="10" class="mark-symbol role-mark marks" version="1.1" width="474" height="257" viewBox="0 0 474 257"/>
<path aria-label="Height: 9; Revenue M: 1230.11110676; group: DOORDASH" role="graphics-symbol" aria-roledescription="point" transform="translate(-5.5, 115.86564432322199) translate(5.0,36.0) translate(120.53571428571429,112.1349209457783)" d="M-2.739,-2.739h5.477v5.477h-5.477Z" stroke="#283849" stroke-width="2" fill="none" stroke-miterlimit="10" class="mark-symbol role-mark marks" version="1.1" width="474" height="257" viewBox="0 0 474 257"/>
<path aria-label="Height: 7; Revenue M: 1271.30155497; group: DOORDASH" role="graphics-symbol" aria-roledescription="point" transform="translate(-5.5, 115.86564432322199) translate(5.0,36.0) translate(93.75,109.1927460734009)" d="M-2.739,-2.739h5.477v5.477h-5.477Z" stroke="#283849" stroke-width="2" fill="none" stroke-miterlimit="10" class="mark-symbol role-mark marks" version="1.1" width="474" height="257" viewBox="0 0 474 257"/>
<path aria-label="Height: 6; Revenue M: 1295.10007442; group: DOORDASH" role="graphics-symbol" aria-roledescription="point" transform="translate(-5.5, 115.86564432322199) translate(5.0,36.0) translate(80.35714285714285,107.49285182719044)" d="M-2.739,-2.739h5.477v5.477h-5.477Z" stroke="#283849" stroke-width="2" fill="none" stroke-miterlimit="10" class="mark-symbol role-mark marks" version="1.1" width="474" height="257" viewBox="0 0 474 257"/>
<path aria-label="Height: 5; Revenue M: 1603.08252712; group: DOORDASH" role="graphics-symbol" aria-roledescription="point" transform="translate(-5.5, 115.86564432322199) translate(5.0,36.0) translate(66.96428571428572,85.4941052054365)" d="M-2.739,-2.739h5.477v5.477h-5.477Z" stroke="#283849" stroke-width="2" fill="none" stroke-miterlimit="10" class="mark-symbol role-mark marks" version="1.1" width="474" height="257" viewBox="0 0 474 257"/></g></svg>