<svg version="1.1" class="marks" width="576.1982421875" height="491.03563532472856" viewBox="0 0 676.1982421875 591.0356353247286" xmlns="http://www.w3.org/2000/svg" xmlns:xlink="http://www.w3.org/1999/xlink"><rect width="100%" height="100%" fill="#ffffff"/>
<g transform="translate(50.0, 52.788091925934104)"><rect x="0" y="0" width="15" height="150" fill="#080908" transform="scale(1.8445873154408912) scale(0.7859794921875)"/>
<text class="chart-title-line" x="0" y="0" text-anchor="start" font-family="sans-serif" font-size="24" font-weight="700" fill="#0f2740" letter-spacing="0" transform="scale(1.8445873154408912) translate(21.789692382812497, 20.6135009765625)">Surging Sales of Battery
</text>
<text class="chart-title-line" x="0" y="0" text-anchor="start" font-family="sans-serif" font-size="24" font-weight="700" fill="#0f2740" letter-spacing="0" transform="scale(1.8445873154408912) translate(21.789692382812497, 20.6135009765625) translate(0.0, 27.1640625)">Electric Vehicles Expected
</text>
<text class="chart-title-line" x="0" y="0" text-anchor="start" font-family="sans-serif" font-size="24" font-weight="700" fill="#0f2740" letter-spacing="0" transform="scale(1.8445873154408912) translate(21.789692382812497, 20.6135009765625) translate(0.0, 54.328125)">by 2040
</text>
<text class="chart-subtitle-line" x="0" y="0" text-anchor="start" font-family="sans-serif" font-size="13" font-weight="400" fill="#445f7c" letter-spacing="0.25" transform="scale(1.8445873154408912) translate(21.789692382812497, 20.6135009765625) translate(0.0, 81.3515625)">"Growing demand signals a shift in the
</text>
<text class="chart-subtitle-line" x="0" y="0" text-anchor="start" font-family="sans-serif" font-size="13" font-weight="400" fill="#445f7c" letter-spacing="0.25" transform="scale(1.8445873154408912) translate(21.789692382812497, 20.6135009765625) translate(0.0, 81.3515625) translate(0.0, 14.7138671875)">automotive market"
</text>
<line transform="translate(-6.15234375, 230.22801214879445) translate(29.0,36.0) translate(0.5,200.5) translate(0,-200)" x2="0" y2="200" stroke="#ddd" stroke-width="1" opacity="1" class="mark-rule role-axis-grid" pointer-events="none" aria-hidden="true" fill="none" stroke-miterlimit="10" role="graphics-object" aria-roledescription="group mark container" version="1.1" width="602" height="262" viewBox="0 0 602 262"/>
<line transform="translate(-6.15234375, 230.22801214879445) translate(29.0,36.0) translate(0.5,200.5) translate(34,-200)" x2="0" y2="200" stroke="#ddd" stroke-width="1" opacity="1" class="mark-rule role-axis-grid" pointer-events="none" aria-hidden="true" fill="none" stroke-miterlimit="10" role="graphics-object" aria-roledescription="group mark container" version="1.1" width="602" height="262" viewBox="0 0 602 262"/>
<line transform="translate(-6.15234375, 230.22801214879445) translate(29.0,36.0) translate(0.5,200.5) translate(68,-200)" x2="0" y2="200" stroke="#ddd" stroke-width="1" opacity="1" class="mark-rule role-axis-grid" pointer-events="none" aria-hidden="true" fill="none" stroke-miterlimit="10" role="graphics-object" aria-roledescription="group mark container" version="1.1" width="602" height="262" viewBox="0 0 602 262"/>
<line transform="translate(-6.15234375, 230.22801214879445) translate(29.0,36.0) translate(0.5,200.5) translate(102,-200)" x2="0" y2="200" stroke="#ddd" stroke-width="1" opacity="1" class="mark-rule role-axis-grid" pointer-events="none" aria-hidden="true" fill="none" stroke-miterlimit="10" role="graphics-object" aria-roledescription="group mark container" version="1.1" width="602" height="262" viewBox="0 0 602 262"/>
<line transform="translate(-6.15234375, 230.22801214879445) translate(29.0,36.0) translate(0.5,200.5) translate(136,-200)" x2="0" y2="200" stroke="#ddd" stroke-width="1" opacity="1" class="mark-rule role-axis-grid" pointer-events="none" aria-hidden="true" fill="none" stroke-miterlimit="10" role="graphics-object" aria-roledescription="group mark container" version="1.1" width="602" height="262" viewBox="0 0 602 262"/>
<line transform="translate(-6.15234375, 230.22801214879445) translate(29.0,36.0) translate(0.5,200.5) translate(170,-200)" x2="0" y2="200" stroke="#ddd" stroke-width="1" opacity="1" class="mark-rule role-axis-grid" pointer-events="none" aria-hidden="true" fill="none" stroke-miterlimit="10" role="graphics-object" aria-roledescription="group mark container" version="1.1" width="602" height="262" viewBox="0 0 602 262"/>
<line transform="translate(-6.15234375, 230.22801214879445) translate(29.0,36.0) translate(0.5,200.5) translate(205,-200)" x2="0" y2="200" stroke="#ddd" stroke-width="1" opacity="1" class="mark-rule role-axis-grid" pointer-events="none" aria-hidden="true" fill="none" stroke-miterlimit="10" role="graphics-object" aria-roledescription="group mark container" version="1.1" width="602" height="262" viewBox="0 0 602 262"/>
<line transform="translate(-6.15234375, 230.22801214879445) translate(29.0,36.0) translate(0.5,200.5) translate(239,-200)" x2="0" y2="200" stroke="#ddd" stroke-width="1" opacity="1" class="mark-rule role-axis-grid" pointer-events="none" aria-hidden="true" fill="none" stroke-miterlimit="10" role="graphics-object" aria-roledescription="group mark container" version="1.1" width="602" height="262" viewBox="0 0 602 262"/>
<line transform="translate(-6.15234375, 230.22801214879445) translate(29.0,36.0) translate(0.5,200.5) translate(273,-200)" x2="0" y2="200" stroke="#ddd" stroke-width="1" opacity="1" class="mark-rule role-axis-grid" pointer-events="none" aria-hidden="true" fill="none" stroke-miterlimit="10" role="graphics-object" aria-roledescription="group mark container" version="1.1" width="602" height="262" viewBox="0 0 602 262"/>
<line transform="translate(-6.15234375, 230.22801214879445) translate(29.0,36.0) translate(0.5,200.5) translate(307,-200)" x2="0" y2="200" stroke="#ddd" stroke-width="1" opacity="1" class="mark-rule role-axis-grid" pointer-events="none" aria-hidden="true" fill="none" stroke-miterlimit="10" role="graphics-object" aria-roledescription="group mark container" version="1.1" width="602" height="262" viewBox="0 0 602 262"/>
<line transform="translate(-6.15234375, 230.22801214879445) translate(29.0,36.0) translate(0.5,200.5) translate(341,-200)" x2="0" y2="200" stroke="#ddd" stroke-width="1" opacity="1" class="mark-rule role-axis-grid" pointer-events="none" aria-hidden="true" fill="none" stroke-miterlimit="10" role="graphics-object" aria-roledescription="group mark container" version="1.1" width="602" height="262" viewBox="0 0 602 262"/>
<line transform="translate(-6.15234375, 230.22801214879445) translate(29.0,36.0) translate(0.5,200.5) translate(375,-200)" x2="0" y2="200" stroke="#ddd" stroke-width="1" opacity="1" class="mark-rule role-axis-grid" pointer-events="none" aria-hidden="true" fill="none" stroke-miterlimit="10" role="graphics-object" aria-roledescription="group mark container" version="1.1" width="602" height="262" viewBox="0 0 602 262"/>
<line transform="translate(-6.15234375, 230.22801214879445) translate(29.0,36.0) translate(0.5,0.5) translate(0,200)" x2="375" y2="0" stroke="#ddd" stroke-width="1" opacity="1" class="mark-rule role-axis-grid" pointer-events="none" aria-hidden="true" fill="none" stroke-miterlimit="10" role="graphics-object" aria-roledescription="group mark container" version="1.1" width="602" height="262" viewBox="0 0 602 262"/>
<line transform="translate(-6.15234375, 230.22801214879445) translate(29.0,36.0) translate(0.5,0.5) translate(0,156)" x2="375" y2="0" stroke="#ddd" stroke-width="1" opacity="1" class="mark-rule role-axis-grid" pointer-events="none" aria-hidden="true" fill="none" stroke-miterlimit="10" role="graphics-object" aria-roledescription="group mark container" version="1.1" width="602" height="262" viewBox="0 0 602 262"/>
<line transform="translate(-6.15234375, 230.22801214879445) translate(29.0,36.0) translate(0.5,0.5) translate(0,111)" x2="375" y2="0" stroke="#ddd" stroke-width="1" opacity="1" class="mark-rule role-axis-grid" pointer-events="none" aria-hidden="true" fill="none" stroke-miterlimit="10" role="graphics-object" aria-roledescription="group mark container" version="1.1" width="602" height="262" viewBox="0 0 602 262"/>
<line transform="translate(-6.15234375, 230.22801214879445) translate(29.0,36.0) translate(0.5,0.5) translate(0,67)" x2="375" y2="0" stroke="#ddd" stroke-width="1" opacity="1" class="mark-rule role-axis-grid" pointer-events="none" aria-hidden="true" fill="none" stroke-miterlimit="10" role="graphics-object" aria-roledescription="group mark container" version="1.1" width="602" height="262" viewBox="0 0 602 262"/>
<line transform="translate(-6.15234375, 230.22801214879445) translate(29.0,36.0) translate(0.5,0.5) translate(0,22)" x2="375" y2="0" stroke="#ddd" stroke-width="1" opacity="1" class="mark-rule role-axis-grid" pointer-events="none" aria-hidden="true" fill="none" stroke-miterlimit="10" role="graphics-object" aria-roledescription="group mark container" version="1.1" width="602" height="262" viewBox="0 0 602 262"/>
<path transform="translate(-6.15234375, 230.22801214879445) translate(29.0,36.0) translate(0,-31) translate(0,0) translate(0,0.25) translate(6,6)" d="M5,0A5,5,0,1,1,-5,0A5,5,0,1,1,5,0" stroke="#080908" stroke-width="1.5" opacity="1" class="mark-symbol role-legend-symbol" pointer-events="none" role="graphics-object" aria-roledescription="group mark container" aria-label="Symbol legend for stroke color with 2 values: Battery electric vehicles, Internal combustion engine vehicles" fill="none" stroke-miterlimit="10" version="1.1" width="602" height="262" viewBox="0 0 602 262"/>
<text text-anchor="start" transform="translate(-6.15234375, 230.22801214879445) translate(29.0,36.0) translate(0,-31) translate(0,0) translate(0,0.25) translate(16,9)" font-family="sans-serif" font-size="10px" fill="#000" opacity="1" class="mark-text role-legend-label" pointer-events="none" role="graphics-object" aria-roledescription="group mark container" aria-label="Symbol legend for stroke color with 2 values: Battery electric vehicles, Internal combustion engine vehicles" stroke-miterlimit="10" version="1.1" width="602" height="262" viewBox="0 0 602 262">Battery electric vehicles
</text>
<path transform="translate(-6.15234375, 230.22801214879445) translate(29.0,36.0) translate(0,-31) translate(0,0) translate(138,0.25) translate(6,6)" d="M5,0A5,5,0,1,1,-5,0A5,5,0,1,1,5,0" stroke="#122740" stroke-width="1.5" opacity="1" class="mark-symbol role-legend-symbol" pointer-events="none" role="graphics-object" aria-roledescription="group mark container" aria-label="Symbol legend for stroke color with 2 values: Battery electric vehicles, Internal combustion engine vehicles" fill="none" stroke-miterlimit="10" version="1.1" width="602" height="262" viewBox="0 0 602 262"/>
<text text-anchor="start" transform="translate(-6.15234375, 230.22801214879445) translate(29.0,36.0) translate(0,-31) translate(0,0) translate(138,0.25) translate(16,9)" font-family="sans-serif" font-size="10px" fill="#000" opacity="1" class="mark-text role-legend-label" pointer-events="none" role="graphics-object" aria-roledescription="group mark container" aria-label="Symbol legend for stroke color with 2 values: Battery electric vehicles, Internal combustion engine vehicles" stroke-miterlimit="10" version="1.1" width="602" height="262" viewBox="0 0 602 262">Internal combustion engine veh…
</text>
<path transform="translate(-6.15234375, 230.22801214879445) translate(29.0,36.0) translate(393,0) translate(0,16) translate(0,0) translate(6,6)" d="M-5,-5h10v10h-10Z" stroke="#888" stroke-width="1.5" opacity="1" class="mark-symbol role-legend-symbol" pointer-events="none" role="graphics-object" aria-roledescription="group mark container" aria-label="Symbol legend titled 'group' for shape with 2 values: Internal combustion engine vehicles, Battery electric vehicles" fill="none" stroke-miterlimit="10" version="1.1" width="602" height="262" viewBox="0 0 602 262"/>
<text text-anchor="start" transform="translate(-6.15234375, 230.22801214879445) translate(29.0,36.0) translate(393,0) translate(0,16) translate(0,0) translate(16,9)" font-family="sans-serif" font-size="10px" fill="#000" opacity="1" class="mark-text role-legend-label" pointer-events="none" role="graphics-object" aria-roledescription="group mark container" aria-label="Symbol legend titled 'group' for shape with 2 values: Internal combustion engine vehicles, Battery electric vehicles" stroke-miterlimit="10" version="1.1" width="602" height="262" viewBox="0 0 602 262">Internal combustion engine veh…
</text>
<path transform="translate(-6.15234375, 230.22801214879445) translate(29.0,36.0) translate(393,0) translate(0,16) translate(0,17) translate(6,6)" d="M0,-5.774L-5,2.887L5,2.887Z" stroke="#888" stroke-width="1.5" opacity="1" class="mark-symbol role-legend-symbol" pointer-events="none" role="graphics-object" aria-roledescription="group mark container" aria-label="Symbol legend titled 'group' for shape with 2 values: Internal combustion engine vehicles, Battery electric vehicles" fill="none" stroke-miterlimit="10" version="1.1" width="602" height="262" viewBox="0 0 602 262"/>
<text text-anchor="start" transform="translate(-6.15234375, 230.22801214879445) translate(29.0,36.0) translate(393,0) translate(0,16) translate(0,17) translate(16,9)" font-family="sans-serif" font-size="10px" fill="#000" opacity="1" class="mark-text role-legend-label" pointer-events="none" role="graphics-object" aria-roledescription="group mark container" aria-label="Symbol legend titled 'group' for shape with 2 values: Internal combustion engine vehicles, Battery electric vehicles" stroke-miterlimit="10" version="1.1" width="602" height="262" viewBox="0 0 602 262">Battery electric vehicles
</text>
<text text-anchor="start" transform="translate(-6.15234375, 230.22801214879445) translate(29.0,36.0) translate(393,0) translate(0,9)" font-family="sans-serif" font-size="11px" font-weight="bold" fill="#000" opacity="1" class="mark-text role-legend-title" pointer-events="none" role="graphics-symbol" aria-roledescription="legend" aria-label="Symbol legend titled 'group' for shape with 2 values: Internal combustion engine vehicles, Battery electric vehicles" stroke-miterlimit="10" version="1.1" width="602" height="262" viewBox="0 0 602 262">group
</text>
<line transform="translate(-6.15234375, 230.22801214879445) translate(29.0,36.0) translate(0.5,200.5) translate(0,0)" x2="0" y2="5" stroke="#0f223b" stroke-width="1" opacity="1" fill="none" stroke-miterlimit="10" class="mark-rule role-axis-tick" role="graphics-symbol" aria-roledescription="axis" version="1.1" width="602" height="262" viewBox="0 0 602 262" aria-label="X-axis for a linear scale with values from 0 to 2,200" pointer-events="none"/>
<line transform="translate(-6.15234375, 230.22801214879445) translate(29.0,36.0) translate(0.5,200.5) translate(34,0)" x2="0" y2="5" stroke="#0f223b" stroke-width="1" opacity="1" fill="none" stroke-miterlimit="10" class="mark-rule role-axis-tick" role="graphics-symbol" aria-roledescription="axis" version="1.1" width="602" height="262" viewBox="0 0 602 262" aria-label="X-axis for a linear scale with values from 0 to 2,200" pointer-events="none"/>
<line transform="translate(-6.15234375, 230.22801214879445) translate(29.0,36.0) translate(0.5,200.5) translate(68,0)" x2="0" y2="5" stroke="#0f223b" stroke-width="1" opacity="1" fill="none" stroke-miterlimit="10" class="mark-rule role-axis-tick" role="graphics-symbol" aria-roledescription="axis" version="1.1" width="602" height="262" viewBox="0 0 602 262" aria-label="X-axis for a linear scale with values from 0 to 2,200" pointer-events="none"/>
<line transform="translate(-6.15234375, 230.22801214879445) translate(29.0,36.0) translate(0.5,200.5) translate(102,0)" x2="0" y2="5" stroke="#0f223b" stroke-width="1" opacity="1" fill="none" stroke-miterlimit="10" class="mark-rule role-axis-tick" role="graphics-symbol" aria-roledescription="axis" version="1.1" width="602" height="262" viewBox="0 0 602 262" aria-label="X-axis for a linear scale with values from 0 to 2,200" pointer-events="none"/>
<line transform="translate(-6.15234375, 230.22801214879445) translate(29.0,36.0) translate(0.5,200.5) translate(136,0)" x2="0" y2="5" stroke="#0f223b" stroke-width="1" opacity="1" fill="none" stroke-miterlimit="10" class="mark-rule role-axis-tick" role="graphics-symbol" aria-roledescription="axis" version="1.1" width="602" height="262" viewBox="0 0 602 262" aria-label="X-axis for a linear scale with values from 0 to 2,200" pointer-events="none"/>
<line transform="translate(-6.15234375, 230.22801214879445) translate(29.0,36.0) translate(0.5,200.5) translate(170,0)" x2="0" y2="5" stroke="#0f223b" stroke-width="1" opacity="1" fill="none" stroke-miterlimit="10" class="mark-rule role-axis-tick" role="graphics-symbol" aria-roledescription="axis" version="1.1" width="602" height="262" viewBox="0 0 602 262" aria-label="X-axis for a linear scale with values from 0 to 2,200" pointer-events="none"/>
<line transform="translate(-6.15234375, 230.22801214879445) translate(29.0,36.0) translate(0.5,200.5) translate(205,0)" x2="0" y2="5" stroke="#0f223b" stroke-width="1" opacity="1" fill="none" stroke-miterlimit="10" class="mark-rule role-axis-tick" role="graphics-symbol" aria-roledescription="axis" version="1.1" width="602" height="262" viewBox="0 0 602 262" aria-label="X-axis for a linear scale with values from 0 to 2,200" pointer-events="none"/>
<line transform="translate(-6.15234375, 230.22801214879445) translate(29.0,36.0) translate(0.5,200.5) translate(239,0)" x2="0" y2="5" stroke="#0f223b" stroke-width="1" opacity="1" fill="none" stroke-miterlimit="10" class="mark-rule role-axis-tick" role="graphics-symbol" aria-roledescription="axis" version="1.1" width="602" height="262" viewBox="0 0 602 262" aria-label="X-axis for a linear scale with values from 0 to 2,200" pointer-events="none"/>
<line transform="translate(-6.15234375, 230.22801214879445) translate(29.0,36.0) translate(0.5,200.5) translate(273,0)" x2="0" y2="5" stroke="#0f223b" stroke-width="1" opacity="1" fill="none" stroke-miterlimit="10" class="mark-rule role-axis-tick" role="graphics-symbol" aria-roledescription="axis" version="1.1" width="602" height="262" viewBox="0 0 602 262" aria-label="X-axis for a linear scale with values from 0 to 2,200" pointer-events="none"/>
<line transform="translate(-6.15234375, 230.22801214879445) translate(29.0,36.0) translate(0.5,200.5) translate(307,0)" x2="0" y2="5" stroke="#0f223b" stroke-width="1" opacity="1" fill="none" stroke-miterlimit="10" class="mark-rule role-axis-tick" role="graphics-symbol" aria-roledescription="axis" version="1.1" width="602" height="262" viewBox="0 0 602 262" aria-label="X-axis for a linear scale with values from 0 to 2,200" pointer-events="none"/>
<line transform="translate(-6.15234375, 230.22801214879445) translate(29.0,36.0) translate(0.5,200.5) translate(341,0)" x2="0" y2="5" stroke="#0f223b" stroke-width="1" opacity="1" fill="none" stroke-miterlimit="10" class="mark-rule role-axis-tick" role="graphics-symbol" aria-roledescription="axis" version="1.1" width="602" height="262" viewBox="0 0 602 262" aria-label="X-axis for a linear scale with values from 0 to 2,200" pointer-events="none"/>
<line transform="translate(-6.15234375, 230.22801214879445) translate(29.0,36.0) translate(0.5,200.5) translate(375,0)" x2="0" y2="5" stroke="#0f223b" stroke-width="1" opacity="1" fill="none" stroke-miterlimit="10" class="mark-rule role-axis-tick" role="graphics-symbol" aria-roledescription="axis" version="1.1" width="602" height="262" viewBox="0 0 602 262" aria-label="X-axis for a linear scale with values from 0 to 2,200" pointer-events="none"/>
<text text-anchor="start" transform="translate(-6.15234375, 230.22801214879445) translate(29.0,36.0) translate(0.5,200.5) translate(0,19)" font-family="sans-serif" font-size="12px" fill="#000d2a" opacity="1" stroke-miterlimit="10" class="mark-text role-axis-label" role="graphics-symbol" aria-roledescription="axis" version="1.1" width="602" height="262" viewBox="0 0 602 262" aria-label="X-axis for a linear scale with values from 0 to 2,200" pointer-events="none" x="0.0" y="0.0">0
</text>
<text text-anchor="middle" transform="translate(-6.15234375, 230.22801214879445) translate(29.0,36.0) translate(0.5,200.5) translate(34.09090909090909,19)" font-family="sans-serif" font-size="12px" fill="#000d2a" opacity="0" stroke-miterlimit="10" class="mark-text role-axis-label" role="graphics-symbol" aria-roledescription="axis" version="1.1" width="602" height="262" viewBox="0 0 602 262" aria-label="X-axis for a linear scale with values from 0 to 2,200" pointer-events="none" x="0.0" y="0.0">200
</text>
<text text-anchor="middle" transform="translate(-6.15234375, 230.22801214879445) translate(29.0,36.0) translate(0.5,200.5) translate(68.18181818181819,19)" font-family="sans-serif" font-size="12px" fill="#000d2a" opacity="1" stroke-miterlimit="10" class="mark-text role-axis-label" role="graphics-symbol" aria-roledescription="axis" version="1.1" width="602" height="262" viewBox="0 0 602 262" aria-label="X-axis for a linear scale with values from 0 to 2,200" pointer-events="none" x="0.0" y="0.0">400
</text>
<text text-anchor="middle" transform="translate(-6.15234375, 230.22801214879445) translate(29.0,36.0) translate(0.5,200.5) translate(102.27272727272727,19)" font-family="sans-serif" font-size="12px" fill="#000d2a" opacity="0" stroke-miterlimit="10" class="mark-text role-axis-label" role="graphics-symbol" aria-roledescription="axis" version="1.1" width="602" height="262" viewBox="0 0 602 262" aria-label="X-axis for a linear scale with values from 0 to 2,200" pointer-events="none" x="0.0" y="0.0">600
</text>
<text text-anchor="middle" transform="translate(-6.15234375, 230.22801214879445) translate(29.0,36.0) translate(0.5,200.5) translate(136.36363636363637,19)" font-family="sans-serif" font-size="12px" fill="#000d2a" opacity="1" stroke-miterlimit="10" class="mark-text role-axis-label" role="graphics-symbol" aria-roledescription="axis" version="1.1" width="602" height="262" viewBox="0 0 602 262" aria-label="X-axis for a linear scale with values from 0 to 2,200" pointer-events="none" x="0.0" y="0.0">800
</text>
<text text-anchor="middle" transform="translate(-6.15234375, 230.22801214879445) translate(29.0,36.0) translate(0.5,200.5) translate(170.45454545454544,19)" font-family="sans-serif" font-size="12px" fill="#000d2a" opacity="0" stroke-miterlimit="10" class="mark-text role-axis-label" role="graphics-symbol" aria-roledescription="axis" version="1.1" width="602" height="262" viewBox="0 0 602 262" aria-label="X-axis for a linear scale with values from 0 to 2,200" pointer-events="none" x="0.0" y="0.0">1,000
</text>
<text text-anchor="middle" transform="translate(-6.15234375, 230.22801214879445) translate(29.0,36.0) translate(0.5,200.5) translate(204.54545454545453,19)" font-family="sans-serif" font-size="12px" fill="#000d2a" opacity="1" stroke-miterlimit="10" class="mark-text role-axis-label" role="graphics-symbol" aria-roledescription="axis" version="1.1" width="602" height="262" viewBox="0 0 602 262" aria-label="X-axis for a linear scale with values from 0 to 2,200" pointer-events="none" x="0.0" y="0.0">1,200
</text>
<text text-anchor="middle" transform="translate(-6.15234375, 230.22801214879445) translate(29.0,36.0) translate(0.5,200.5) translate(238.63636363636363,19)" font-family="sans-serif" font-size="12px" fill="#000d2a" opacity="0" stroke-miterlimit="10" class="mark-text role-axis-label" role="graphics-symbol" aria-roledescription="axis" version="1.1" width="602" height="262" viewBox="0 0 602 262" aria-label="X-axis for a linear scale with values from 0 to 2,200" pointer-events="none" x="0.0" y="0.0">1,400
</text>
<text text-anchor="middle" transform="translate(-6.15234375, 230.22801214879445) translate(29.0,36.0) translate(0.5,200.5) translate(272.72727272727275,19)" font-family="sans-serif" font-size="12px" fill="#000d2a" opacity="1" stroke-miterlimit="10" class="mark-text role-axis-label" role="graphics-symbol" aria-roledescription="axis" version="1.1" width="602" height="262" viewBox="0 0 602 262" aria-label="X-axis for a linear scale with values from 0 to 2,200" pointer-events="none" x="0.0" y="0.0">1,600
</text>
<text text-anchor="middle" transform="translate(-6.15234375, 230.22801214879445) translate(29.0,36.0) translate(0.5,200.5) translate(306.8181818181818,19)" font-family="sans-serif" font-size="12px" fill="#000d2a" opacity="0" stroke-miterlimit="10" class="mark-text role-axis-label" role="graphics-symbol" aria-roledescription="axis" version="1.1" width="602" height="262" viewBox="0 0 602 262" aria-label="X-axis for a linear scale with values from 0 to 2,200" pointer-events="none" x="0.0" y="0.0">1,800
</text>
<text text-anchor="middle" transform="translate(-6.15234375, 230.22801214879445) translate(29.0,36.0) translate(0.5,200.5) translate(340.9090909090909,19)" font-family="sans-serif" font-size="12px" fill="#000d2a" opacity="1" stroke-miterlimit="10" class="mark-text role-axis-label" role="graphics-symbol" aria-roledescription="axis" version="1.1" width="602" height="262" viewBox="0 0 602 262" aria-label="X-axis for a linear scale with values from 0 to 2,200" pointer-events="none" x="0.0" y="0.0">2,000
</text>
<text text-anchor="end" transform="translate(-6.15234375, 230.22801214879445) translate(29.0,36.0) translate(0.5,200.5) translate(375,19)" font-family="sans-serif" font-size="12px" fill="#000d2a" opacity="0" stroke-miterlimit="10" class="mark-text role-axis-label" role="graphics-symbol" aria-roledescription="axis" version="1.1" width="602" height="262" viewBox="0 0 602 262" aria-label="X-axis for a linear scale with values from 0 to 2,200" pointer-events="none" x="0.0" y="0.0">2,200
</text>
<line transform="translate(-6.15234375, 230.22801214879445) translate(29.0,36.0) translate(0.5,200.5) translate(0,0)" x2="375" y2="0" stroke="#0f223b" stroke-width="1" opacity="1" fill="none" stroke-miterlimit="10" class="mark-rule role-axis-domain" role="graphics-symbol" aria-roledescription="axis" version="1.1" width="602" height="262" viewBox="0 0 602 262" aria-label="X-axis for a linear scale with values from 0 to 2,200" pointer-events="none"/>
<line transform="translate(-6.15234375, 230.22801214879445) translate(29.0,36.0) translate(0.5,0.5) translate(0,200)" x2="-5" y2="0" stroke="#0f223b" stroke-width="1" opacity="1" fill="none" stroke-miterlimit="10" class="mark-rule role-axis-tick" role="graphics-symbol" aria-roledescription="axis" version="1.1" width="602" height="262" viewBox="0 0 602 262" aria-label="Y-axis for a linear scale with values from 0 to 90" pointer-events="none"/>
<line transform="translate(-6.15234375, 230.22801214879445) translate(29.0,36.0) translate(0.5,0.5) translate(0,156)" x2="-5" y2="0" stroke="#0f223b" stroke-width="1" opacity="1" fill="none" stroke-miterlimit="10" class="mark-rule role-axis-tick" role="graphics-symbol" aria-roledescription="axis" version="1.1" width="602" height="262" viewBox="0 0 602 262" aria-label="Y-axis for a linear scale with values from 0 to 90" pointer-events="none"/>
<line transform="translate(-6.15234375, 230.22801214879445) translate(29.0,36.0) translate(0.5,0.5) translate(0,111)" x2="-5" y2="0" stroke="#0f223b" stroke-width="1" opacity="1" fill="none" stroke-miterlimit="10" class="mark-rule role-axis-tick" role="graphics-symbol" aria-roledescription="axis" version="1.1" width="602" height="262" viewBox="0 0 602 262" aria-label="Y-axis for a linear scale with values from 0 to 90" pointer-events="none"/>
<line transform="translate(-6.15234375, 230.22801214879445) translate(29.0,36.0) translate(0.5,0.5) translate(0,67)" x2="-5" y2="0" stroke="#0f223b" stroke-width="1" opacity="1" fill="none" stroke-miterlimit="10" class="mark-rule role-axis-tick" role="graphics-symbol" aria-roledescription="axis" version="1.1" width="602" height="262" viewBox="0 0 602 262" aria-label="Y-axis for a linear scale with values from 0 to 90" pointer-events="none"/>
<line transform="translate(-6.15234375, 230.22801214879445) translate(29.0,36.0) translate(0.5,0.5) translate(0,22)" x2="-5" y2="0" stroke="#0f223b" stroke-width="1" opacity="1" fill="none" stroke-miterlimit="10" class="mark-rule role-axis-tick" role="graphics-symbol" aria-roledescription="axis" version="1.1" width="602" height="262" viewBox="0 0 602 262" aria-label="Y-axis for a linear scale with values from 0 to 90" pointer-events="none"/>
<text text-anchor="end" transform="translate(-6.15234375, 230.22801214879445) translate(29.0,36.0) translate(0.5,0.5) translate(-10,204)" font-family="sans-serif" font-size="12px" fill="#000d2a" opacity="1" stroke-miterlimit="10" class="mark-text role-axis-label" role="graphics-symbol" aria-roledescription="axis" version="1.1" width="602" height="262" viewBox="0 0 602 262" aria-label="Y-axis for a linear scale with values from 0 to 90" pointer-events="none">0
</text>
<text text-anchor="end" transform="translate(-6.15234375, 230.22801214879445) translate(29.0,36.0) translate(0.5,0.5) translate(-10,159.55555555555557)" font-family="sans-serif" font-size="12px" fill="#000d2a" opacity="1" stroke-miterlimit="10" class="mark-text role-axis-label" role="graphics-symbol" aria-roledescription="axis" version="1.1" width="602" height="262" viewBox="0 0 602 262" aria-label="Y-axis for a linear scale with values from 0 to 90" pointer-events="none">20
</text>
<text text-anchor="end" transform="translate(-6.15234375, 230.22801214879445) translate(29.0,36.0) translate(0.5,0.5) translate(-10,115.11111111111111)" font-family="sans-serif" font-size="12px" fill="#000d2a" opacity="1" stroke-miterlimit="10" class="mark-text role-axis-label" role="graphics-symbol" aria-roledescription="axis" version="1.1" width="602" height="262" viewBox="0 0 602 262" aria-label="Y-axis for a linear scale with values from 0 to 90" pointer-events="none">40
</text>
<text text-anchor="end" transform="translate(-6.15234375, 230.22801214879445) translate(29.0,36.0) translate(0.5,0.5) translate(-10,70.66666666666667)" font-family="sans-serif" font-size="12px" fill="#000d2a" opacity="1" stroke-miterlimit="10" class="mark-text role-axis-label" role="graphics-symbol" aria-roledescription="axis" version="1.1" width="602" height="262" viewBox="0 0 602 262" aria-label="Y-axis for a linear scale with values from 0 to 90" pointer-events="none">60
</text>
<text text-anchor="end" transform="translate(-6.15234375, 230.22801214879445) translate(29.0,36.0) translate(0.5,0.5) translate(-10,26.222222222222232)" font-family="sans-serif" font-size="12px" fill="#000d2a" opacity="1" stroke-miterlimit="10" class="mark-text role-axis-label" role="graphics-symbol" aria-roledescription="axis" version="1.1" width="602" height="262" viewBox="0 0 602 262" aria-label="Y-axis for a linear scale with values from 0 to 90" pointer-events="none">80
</text>
<line transform="translate(-6.15234375, 230.22801214879445) translate(29.0,36.0) translate(0.5,0.5) translate(0,200)" x2="0" y2="-200" stroke="#0f223b" stroke-width="1" opacity="1" fill="none" stroke-miterlimit="10" class="mark-rule role-axis-domain" role="graphics-symbol" aria-roledescription="axis" version="1.1" width="602" height="262" viewBox="0 0 602 262" aria-label="Y-axis for a linear scale with values from 0 to 90" pointer-events="none"/>
<path aria-label="xlabel: 2015; ylabel: 0; group: Battery electric vehicles" role="graphics-symbol" aria-roledescription="point" transform="translate(-6.15234375, 230.22801214879445) translate(29.0,36.0) translate(343.46590909090907,200)" d="M0,-3.162L-2.739,1.581L2.739,1.581Z" stroke="#080908" stroke-width="2" fill="none" stroke-miterlimit="10" class="mark-symbol role-mark marks" version="1.1" width="602" height="262" viewBox="0 0 602 262"/>
<path aria-label="xlabel: 2020; ylabel: 1.686703105; group: Battery electric vehicles" role="graphics-symbol" aria-roledescription="point" transform="translate(-6.15234375, 230.22801214879445) translate(29.0,36.0) translate(344.3181818181818,196.2517708777778)" d="M0,-3.162L-2.739,1.581L2.739,1.581Z" stroke="#080908" stroke-width="2" fill="none" stroke-miterlimit="10" class="mark-symbol role-mark marks" version="1.1" width="602" height="262" viewBox="0 0 602 262"/>
<path aria-label="xlabel: 2030; ylabel: 21.7213422; group: Battery electric vehicles" role="graphics-symbol" aria-roledescription="point" transform="translate(-6.15234375, 230.22801214879445) translate(29.0,36.0) translate(346.02272727272725,151.73035066666668)" d="M0,-3.162L-2.739,1.581L2.739,1.581Z" stroke="#080908" stroke-width="2" fill="none" stroke-miterlimit="10" class="mark-symbol role-mark marks" version="1.1" width="602" height="262" viewBox="0 0 602 262"/>
<path aria-label="xlabel: 2035; ylabel: 35.15420511; group: Battery electric vehicles" role="graphics-symbol" aria-roledescription="point" transform="translate(-6.15234375, 230.22801214879445) translate(29.0,36.0) translate(346.875,121.8795442)" d="M0,-3.162L-2.739,1.581L2.739,1.581Z" stroke="#080908" stroke-width="2" fill="none" stroke-miterlimit="10" class="mark-symbol role-mark marks" version="1.1" width="602" height="262" viewBox="0 0 602 262"/>
<path aria-label="xlabel: 2040; ylabel: 48.91232092; group: Battery electric vehicles" role="graphics-symbol" aria-roledescription="point" transform="translate(-6.15234375, 230.22801214879445) translate(29.0,36.0) translate(347.7272727272727,91.3059535111111)" d="M0,-3.162L-2.739,1.581L2.739,1.581Z" stroke="#080908" stroke-width="2" fill="none" stroke-miterlimit="10" class="mark-symbol role-mark marks" version="1.1" width="602" height="262" viewBox="0 0 602 262"/>
<path aria-label="xlabel: 2025; ylabel: 6.14389291; group: Battery electric vehicles" role="graphics-symbol" aria-roledescription="point" transform="translate(-6.15234375, 230.22801214879445) translate(29.0,36.0) translate(345.1704545454545,186.34690464444446)" d="M0,-3.162L-2.739,1.581L2.739,1.581Z" stroke="#080908" stroke-width="2" fill="none" stroke-miterlimit="10" class="mark-symbol role-mark marks" version="1.1" width="602" height="262" viewBox="0 0 602 262"/>
<path aria-label="xlabel: 2015; ylabel: 78.73582012; group: Internal combustion engine vehicles" role="graphics-symbol" aria-roledescription="point" transform="translate(-6.15234375, 230.22801214879445) translate(29.0,36.0) translate(343.46590909090907,25.031510844444437)" d="M-2.739,-2.739h5.477v5.477h-5.477Z" stroke="#122740" stroke-width="2" fill="none" stroke-miterlimit="10" class="mark-symbol role-mark marks" version="1.1" width="602" height="262" viewBox="0 0 602 262"/>
<path aria-label="xlabel: 2016; ylabel: 82.56496168; group: Internal combustion engine vehicles" role="graphics-symbol" aria-roledescription="point" transform="translate(-6.15234375, 230.22801214879445) translate(29.0,36.0) translate(343.6363636363636,16.52230737777778)" d="M-2.739,-2.739h5.477v5.477h-5.477Z" stroke="#122740" stroke-width="2" fill="none" stroke-miterlimit="10" class="mark-symbol role-mark marks" version="1.1" width="602" height="262" viewBox="0 0 602 262"/>
<path aria-label="xlabel: 2017; ylabel: 84.50883078; group: Internal combustion engine vehicles" role="graphics-symbol" aria-roledescription="point" transform="translate(-6.15234375, 230.22801214879445) translate(29.0,36.0) translate(343.8068181818182,12.202598266666676)" d="M-2.739,-2.739h5.477v5.477h-5.477Z" stroke="#122740" stroke-width="2" fill="none" stroke-miterlimit="10" class="mark-symbol role-mark marks" version="1.1" width="602" height="262" viewBox="0 0 602 262"/>
<path aria-label="xlabel: 2018; ylabel: 83.58170518; group: Internal combustion engine vehicles" role="graphics-symbol" aria-roledescription="point" transform="translate(-6.15234375, 230.22801214879445) translate(29.0,36.0) translate(343.9772727272727,14.262877377777784)" d="M-2.739,-2.739h5.477v5.477h-5.477Z" stroke="#122740" stroke-width="2" fill="none" stroke-miterlimit="10" class="mark-symbol role-mark marks" version="1.1" width="602" height="262" viewBox="0 0 602 262"/>
<path aria-label="xlabel: 2019; ylabel: 81.04787627; group: Internal combustion engine vehicles" role="graphics-symbol" aria-roledescription="point" transform="translate(-6.15234375, 230.22801214879445) translate(29.0,36.0) translate(344.14772727272725,19.893608288888885)" d="M-2.739,-2.739h5.477v5.477h-5.477Z" stroke="#122740" stroke-width="2" fill="none" stroke-miterlimit="10" class="mark-symbol role-mark marks" version="1.1" width="602" height="262" viewBox="0 0 602 262"/>
<path aria-label="xlabel: 2020; ylabel: 81.48163467; group: Internal combustion engine vehicles" role="graphics-symbol" aria-roledescription="point" transform="translate(-6.15234375, 230.22801214879445) translate(29.0,36.0) translate(344.3181818181818,18.929700733333334)" d="M-2.739,-2.739h5.477v5.477h-5.477Z" stroke="#122740" stroke-width="2" fill="none" stroke-miterlimit="10" class="mark-symbol role-mark marks" version="1.1" width="602" height="262" viewBox="0 0 602 262"/>
<path aria-label="xlabel: 2025; ylabel: 78.54761945; group: Internal combustion engine vehicles" role="graphics-symbol" aria-roledescription="point" transform="translate(-6.15234375, 230.22801214879445) translate(29.0,36.0) translate(345.1704545454545,25.449734555555548)" d="M-2.739,-2.739h5.477v5.477h-5.477Z" stroke="#122740" stroke-width="2" fill="none" stroke-miterlimit="10" class="mark-symbol role-mark marks" version="1.1" width="602" height="262" viewBox="0 0 602 262"/>
<path aria-label="xlabel: 2030; ylabel: 62.04393923; group: Internal combustion engine vehicles" role="graphics-symbol" aria-roledescription="point" transform="translate(-6.15234375, 230.22801214879445) translate(29.0,36.0) translate(346.02272727272725,62.1245794888889)" d="M-2.739,-2.739h5.477v5.477h-5.477Z" stroke="#122740" stroke-width="2" fill="none" stroke-miterlimit="10" class="mark-symbol role-mark marks" version="1.1" width="602" height="262" viewBox="0 0 602 262"/>
<path aria-label="xlabel: 2032; ylabel: 58.60162673; group: Internal combustion engine vehicles" role="graphics-symbol" aria-roledescription="point" transform="translate(-6.15234375, 230.22801214879445) translate(29.0,36.0) translate(346.3636363636364,69.77416282222222)" d="M-2.739,-2.739h5.477v5.477h-5.477Z" stroke="#122740" stroke-width="2" fill="none" stroke-miterlimit="10" class="mark-symbol role-mark marks" version="1.1" width="602" height="262" viewBox="0 0 602 262"/>
<path aria-label="xlabel: 2035; ylabel: 50.64294599; group: Internal combustion engine vehicles" role="graphics-symbol" aria-roledescription="point" transform="translate(-6.15234375, 230.22801214879445) translate(29.0,36.0) translate(346.875,87.46012002222221)" d="M-2.739,-2.739h5.477v5.477h-5.477Z" stroke="#122740" stroke-width="2" fill="none" stroke-miterlimit="10" class="mark-symbol role-mark marks" version="1.1" width="602" height="262" viewBox="0 0 602 262"/>
<path aria-label="xlabel: 2040; ylabel: 38.65268483; group: Internal combustion engine vehicles" role="graphics-symbol" aria-roledescription="point" transform="translate(-6.15234375, 230.22801214879445) translate(29.0,36.0) translate(347.7272727272727,114.10514482222223)" d="M-2.739,-2.739h5.477v5.477h-5.477Z" stroke="#122740" stroke-width="2" fill="none" stroke-miterlimit="10" class="mark-symbol role-mark marks" version="1.1" width="602" height="262" viewBox="0 0 602 262"/></g></svg>