<svg version="1.1" class="marks" width="491" height="230" viewBox="-100,-100,1000,1000" xmlns="http://www.w3.org/2000/svg" xmlns:xlink="http://www.w3.org/1999/xlink"><g ><g version="1.1" class="marks" width="491" height="230" viewBox="0 0 491 230"><g fill="none" stroke-miterlimit="10" transform="translate(28,5)"><g class="mark-group role-frame root" role="graphics-object" aria-roledescription="group mark container"><g transform="translate(0,0)" class="mark-group role-axis" role="graphics-symbol" aria-roledescription="axis" aria-label="X-axis for a discrete scale with 43 values: 1980, 1981, 1982, 1983, 1984, ending with 2022"><g transform="translate(0.5,200.5)" class="mark-rule role-axis-tick" pointer-events="none"><line transform="translate(5,0)" x2="0" y2="5" stroke="#0f223b" stroke-opacity="0" stroke-width="1" opacity="1"/>
<line transform="translate(16,0)" x2="0" y2="5" stroke="#0f223b" stroke-opacity="0" stroke-width="1" opacity="1"/>
<line transform="translate(26,0)" x2="0" y2="5" stroke="#0f223b" stroke-opacity="0" stroke-width="1" opacity="1"/>
<line transform="translate(37,0)" x2="0" y2="5" stroke="#0f223b" stroke-opacity="0" stroke-width="1" opacity="1"/>
<line transform="translate(47,0)" x2="0" y2="5" stroke="#0f223b" stroke-opacity="0" stroke-width="1" opacity="1"/>
<line transform="translate(58,0)" x2="0" y2="5" stroke="#0f223b" stroke-opacity="0" stroke-width="1" opacity="1"/>
<line transform="translate(68,0)" x2="0" y2="5" stroke="#0f223b" stroke-opacity="0" stroke-width="1" opacity="1"/>
<line transform="translate(78,0)" x2="0" y2="5" stroke="#0f223b" stroke-opacity="0" stroke-width="1" opacity="1"/>
<line transform="translate(89,0)" x2="0" y2="5" stroke="#0f223b" stroke-opacity="0" stroke-width="1" opacity="1"/>
<line transform="translate(99,0)" x2="0" y2="5" stroke="#0f223b" stroke-opacity="0" stroke-width="1" opacity="1"/>
<line transform="translate(110,0)" x2="0" y2="5" stroke="#0f223b" stroke-opacity="0" stroke-width="1" opacity="1"/>
<line transform="translate(120,0)" x2="0" y2="5" stroke="#0f223b" stroke-opacity="0" stroke-width="1" opacity="1"/>
<line transform="translate(131,0)" x2="0" y2="5" stroke="#0f223b" stroke-opacity="0" stroke-width="1" opacity="1"/>
<line transform="translate(141,0)" x2="0" y2="5" stroke="#0f223b" stroke-opacity="0" stroke-width="1" opacity="1"/>
<line transform="translate(152,0)" x2="0" y2="5" stroke="#0f223b" stroke-opacity="0" stroke-width="1" opacity="1"/>
<line transform="translate(162,0)" x2="0" y2="5" stroke="#0f223b" stroke-opacity="0" stroke-width="1" opacity="1"/>
<line transform="translate(173,0)" x2="0" y2="5" stroke="#0f223b" stroke-opacity="0" stroke-width="1" opacity="1"/>
<line transform="translate(183,0)" x2="0" y2="5" stroke="#0f223b" stroke-opacity="0" stroke-width="1" opacity="1"/>
<line transform="translate(194,0)" x2="0" y2="5" stroke="#0f223b" stroke-opacity="0" stroke-width="1" opacity="1"/>
<line transform="translate(204,0)" x2="0" y2="5" stroke="#0f223b" stroke-opacity="0" stroke-width="1" opacity="1"/>
<line transform="translate(215,0)" x2="0" y2="5" stroke="#0f223b" stroke-opacity="0" stroke-width="1" opacity="1"/>
<line transform="translate(225,0)" x2="0" y2="5" stroke="#0f223b" stroke-opacity="0" stroke-width="1" opacity="1"/>
<line transform="translate(235,0)" x2="0" y2="5" stroke="#0f223b" stroke-opacity="0" stroke-width="1" opacity="1"/>
<line transform="translate(246,0)" x2="0" y2="5" stroke="#0f223b" stroke-opacity="0" stroke-width="1" opacity="1"/>
<line transform="translate(256,0)" x2="0" y2="5" stroke="#0f223b" stroke-opacity="0" stroke-width="1" opacity="1"/>
<line transform="translate(267,0)" x2="0" y2="5" stroke="#0f223b" stroke-opacity="0" stroke-width="1" opacity="1"/>
<line transform="translate(277,0)" x2="0" y2="5" stroke="#0f223b" stroke-opacity="0" stroke-width="1" opacity="1"/>
<line transform="translate(288,0)" x2="0" y2="5" stroke="#0f223b" stroke-opacity="0" stroke-width="1" opacity="1"/>
<line transform="translate(298,0)" x2="0" y2="5" stroke="#0f223b" stroke-opacity="0" stroke-width="1" opacity="1"/>
<line transform="translate(309,0)" x2="0" y2="5" stroke="#0f223b" stroke-opacity="0" stroke-width="1" opacity="1"/>
<line transform="translate(319,0)" x2="0" y2="5" stroke="#0f223b" stroke-opacity="0" stroke-width="1" opacity="1"/>
<line transform="translate(330,0)" x2="0" y2="5" stroke="#0f223b" stroke-opacity="0" stroke-width="1" opacity="1"/>
<line transform="translate(340,0)" x2="0" y2="5" stroke="#0f223b" stroke-opacity="0" stroke-width="1" opacity="1"/>
<line transform="translate(351,0)" x2="0" y2="5" stroke="#0f223b" stroke-opacity="0" stroke-width="1" opacity="1"/>
<line transform="translate(361,0)" x2="0" y2="5" stroke="#0f223b" stroke-opacity="0" stroke-width="1" opacity="1"/>
<line transform="translate(372,0)" x2="0" y2="5" stroke="#0f223b" stroke-opacity="0" stroke-width="1" opacity="1"/>
<line transform="translate(382,0)" x2="0" y2="5" stroke="#0f223b" stroke-opacity="0" stroke-width="1" opacity="1"/>
<line transform="translate(392,0)" x2="0" y2="5" stroke="#0f223b" stroke-opacity="0" stroke-width="1" opacity="1"/>
<line transform="translate(403,0)" x2="0" y2="5" stroke="#0f223b" stroke-opacity="0" stroke-width="1" opacity="1"/>
<line transform="translate(413,0)" x2="0" y2="5" stroke="#0f223b" stroke-opacity="0" stroke-width="1" opacity="1"/>
<line transform="translate(424,0)" x2="0" y2="5" stroke="#0f223b" stroke-opacity="0" stroke-width="1" opacity="1"/>
<line transform="translate(434,0)" x2="0" y2="5" stroke="#0f223b" stroke-opacity="0" stroke-width="1" opacity="1"/>
<line transform="translate(445,0)" x2="0" y2="5" stroke="#0f223b" stroke-opacity="0" stroke-width="1" opacity="1"/></g>
<g transform="translate(0.5,200.5)" class="mark-text role-axis-label" pointer-events="none"><text text-anchor="middle" transform="translate(5.232558139534859,18)" font-family="sans-serif" font-size="10px" fill="#000d2a" opacity="1">1980
</text>
<text text-anchor="middle" transform="translate(15.697674418604628,18)" font-family="sans-serif" font-size="10px" fill="#000d2a" opacity="1">1981
</text>
<text text-anchor="middle" transform="translate(26.162790697674396,18)" font-family="sans-serif" font-size="10px" fill="#000d2a" opacity="1">1982
</text>
<text text-anchor="middle" transform="translate(36.627906976744164,18)" font-family="sans-serif" font-size="10px" fill="#000d2a" opacity="1">1983
</text>
<text text-anchor="middle" transform="translate(47.09302325581393,18)" font-family="sans-serif" font-size="10px" fill="#000d2a" opacity="1">1984
</text>
<text text-anchor="middle" transform="translate(57.5581395348837,18)" font-family="sans-serif" font-size="10px" fill="#000d2a" opacity="1">1985
</text>
<text text-anchor="middle" transform="translate(68.02325581395347,18)" font-family="sans-serif" font-size="10px" fill="#000d2a" opacity="1">1986
</text>
<text text-anchor="middle" transform="translate(78.48837209302323,18)" font-family="sans-serif" font-size="10px" fill="#000d2a" opacity="1">1987
</text>
<text text-anchor="middle" transform="translate(88.953488372093,18)" font-family="sans-serif" font-size="10px" fill="#000d2a" opacity="1">1988
</text>
<text text-anchor="middle" transform="translate(99.41860465116278,18)" font-family="sans-serif" font-size="10px" fill="#000d2a" opacity="1">1989
</text>
<text text-anchor="middle" transform="translate(109.88372093023254,18)" font-family="sans-serif" font-size="10px" fill="#000d2a" opacity="1">1990
</text>
<text text-anchor="middle" transform="translate(120.3488372093023,18)" font-family="sans-serif" font-size="10px" fill="#000d2a" opacity="1">1991
</text>
<text text-anchor="middle" transform="translate(130.81395348837208,18)" font-family="sans-serif" font-size="10px" fill="#000d2a" opacity="1">1992
</text>
<text text-anchor="middle" transform="translate(141.27906976744185,18)" font-family="sans-serif" font-size="10px" fill="#000d2a" opacity="1">1993
</text>
<text text-anchor="middle" transform="translate(151.7441860465116,18)" font-family="sans-serif" font-size="10px" fill="#000d2a" opacity="1">1994
</text>
<text text-anchor="middle" transform="translate(162.20930232558138,18)" font-family="sans-serif" font-size="10px" fill="#000d2a" opacity="1">1995
</text>
<text text-anchor="middle" transform="translate(172.67441860465115,18)" font-family="sans-serif" font-size="10px" fill="#000d2a" opacity="1">1996
</text>
<text text-anchor="middle" transform="translate(183.13953488372093,18)" font-family="sans-serif" font-size="10px" fill="#000d2a" opacity="1">1997
</text>
<text text-anchor="middle" transform="translate(193.6046511627907,18)" font-family="sans-serif" font-size="10px" fill="#000d2a" opacity="1">1998
</text>
<text text-anchor="middle" transform="translate(204.06976744186045,18)" font-family="sans-serif" font-size="10px" fill="#000d2a" opacity="1">1999
</text>
<text text-anchor="middle" transform="translate(214.53488372093022,18)" font-family="sans-serif" font-size="10px" fill="#000d2a" opacity="1">2000
</text>
<text text-anchor="middle" transform="translate(225,18)" font-family="sans-serif" font-size="10px" fill="#000d2a" opacity="1">2001
</text>
<text text-anchor="middle" transform="translate(235.46511627906975,18)" font-family="sans-serif" font-size="10px" fill="#000d2a" opacity="1">2002
</text>
<text text-anchor="middle" transform="translate(245.93023255813952,18)" font-family="sans-serif" font-size="10px" fill="#000d2a" opacity="1">2003
</text>
<text text-anchor="middle" transform="translate(256.3953488372093,18)" font-family="sans-serif" font-size="10px" fill="#000d2a" opacity="1">2004
</text>
<text text-anchor="middle" transform="translate(266.8604651162791,18)" font-family="sans-serif" font-size="10px" fill="#000d2a" opacity="1">2005
</text>
<text text-anchor="middle" transform="translate(277.3255813953489,18)" font-family="sans-serif" font-size="10px" fill="#000d2a" opacity="1">2006
</text>
<text text-anchor="middle" transform="translate(287.79069767441865,18)" font-family="sans-serif" font-size="10px" fill="#000d2a" opacity="1">2007
</text>
<text text-anchor="middle" transform="translate(298.2558139534883,18)" font-family="sans-serif" font-size="10px" fill="#000d2a" opacity="1">2008
</text>
<text text-anchor="middle" transform="translate(308.7209302325581,18)" font-family="sans-serif" font-size="10px" fill="#000d2a" opacity="1">2009
</text>
<text text-anchor="middle" transform="translate(319.18604651162786,18)" font-family="sans-serif" font-size="10px" fill="#000d2a" opacity="1">2010
</text>
<text text-anchor="middle" transform="translate(329.65116279069764,18)" font-family="sans-serif" font-size="10px" fill="#000d2a" opacity="1">2011
</text>
<text text-anchor="middle" transform="translate(340.1162790697674,18)" font-family="sans-serif" font-size="10px" fill="#000d2a" opacity="1">2012
</text>
<text text-anchor="middle" transform="translate(350.5813953488372,18)" font-family="sans-serif" font-size="10px" fill="#000d2a" opacity="1">2013
</text>
<text text-anchor="middle" transform="translate(361.04651162790697,18)" font-family="sans-serif" font-size="10px" fill="#000d2a" opacity="1">2014
</text>
<text text-anchor="middle" transform="translate(371.51162790697674,18)" font-family="sans-serif" font-size="10px" fill="#000d2a" opacity="1">2015
</text>
<text text-anchor="middle" transform="translate(381.9767441860465,18)" font-family="sans-serif" font-size="10px" fill="#000d2a" opacity="1">2016
</text>
<text text-anchor="middle" transform="translate(392.4418604651163,18)" font-family="sans-serif" font-size="10px" fill="#000d2a" opacity="1">2017
</text>
<text text-anchor="middle" transform="translate(402.90697674418607,18)" font-family="sans-serif" font-size="10px" fill="#000d2a" opacity="1">2018
</text>
<text text-anchor="middle" transform="translate(413.37209302325584,18)" font-family="sans-serif" font-size="10px" fill="#000d2a" opacity="1">2019
</text>
<text text-anchor="middle" transform="translate(423.8372093023256,18)" font-family="sans-serif" font-size="10px" fill="#000d2a" opacity="1">2020
</text>
<text text-anchor="middle" transform="translate(434.3023255813954,18)" font-family="sans-serif" font-size="10px" fill="#000d2a" opacity="1">2021
</text>
<text text-anchor="middle" transform="translate(444.76744186046517,18)" font-family="sans-serif" font-size="10px" fill="#000d2a" opacity="1">2022
</text></g>
<g transform="translate(0.5,200.5)" class="mark-rule role-axis-domain" pointer-events="none"><line transform="translate(0,0)" x2="450" y2="0" stroke="#0f223b" stroke-opacity="0" stroke-width="1" opacity="1"/></g></g>
<g transform="translate(0,0)" class="mark-group role-axis" role="graphics-symbol" aria-roledescription="axis" aria-label="Y-axis for a linear scale with values from 0 to 16"><g transform="translate(0.5,0.5)" class="mark-rule role-axis-tick" pointer-events="none"><line transform="translate(0,200)" x2="-5" y2="0" stroke="#0f223b" stroke-opacity="0" stroke-width="1" opacity="1"/>
<line transform="translate(0,138)" x2="-5" y2="0" stroke="#0f223b" stroke-opacity="0" stroke-width="1" opacity="1"/>
<line transform="translate(0,75)" x2="-5" y2="0" stroke="#0f223b" stroke-opacity="0" stroke-width="1" opacity="1"/>
<line transform="translate(0,13)" x2="-5" y2="0" stroke="#0f223b" stroke-opacity="0" stroke-width="1" opacity="1"/></g>
<g transform="translate(0.5,0.5)" class="mark-text role-axis-label" pointer-events="none"><text text-anchor="end" transform="translate(-10,203)" font-family="sans-serif" font-size="10px" fill="#000d2a" opacity="1">0
</text>
<text text-anchor="end" transform="translate(-10,140.5)" font-family="sans-serif" font-size="10px" fill="#000d2a" opacity="1">5
</text>
<text text-anchor="end" transform="translate(-10,78)" font-family="sans-serif" font-size="10px" fill="#000d2a" opacity="1">10
</text>
<text text-anchor="end" transform="translate(-10,15.5)" font-family="sans-serif" font-size="10px" fill="#000d2a" opacity="1">15
</text></g>
<g transform="translate(0.5,0.5)" class="mark-rule role-axis-domain" pointer-events="none"><line transform="translate(0,200)" x2="0" y2="-200" stroke="#0f223b" stroke-opacity="0" stroke-width="1" opacity="1"/></g></g>
<g transform="translate(0,0)" class="mark-line role-mark marks" role="graphics-object" aria-roledescription="line mark container"><path aria-label="Year: 1980; Real GDP Growth: 7.9" role="graphics-symbol" aria-roledescription="line mark" d="M5.233,101.25C8.721,118.75,12.209,136.25,15.698,136.25C19.186,136.25,22.674,99.375,26.163,87.5C29.651,75.625,33.14,77.917,36.628,65C40.116,52.083,43.605,10,47.093,10C50.581,10,54.07,18.125,57.558,31.25C61.047,44.375,64.535,88.75,68.023,88.75C71.512,88.75,75,55,78.488,55C81.977,55,85.465,56.25,88.953,58.75C92.442,61.25,95.93,145,99.419,147.5C102.907,150,106.395,151.25,109.884,151.25C113.372,151.25,116.86,105.208,120.349,83.75C123.837,62.292,127.326,22.5,130.814,22.5C134.302,22.5,137.791,23.333,141.279,25C144.767,26.667,148.256,29.792,151.744,36.25C155.233,42.708,158.721,57.292,162.209,63.75C165.698,70.208,169.186,71.667,172.674,75C176.163,78.333,179.651,79.167,183.14,83.75C186.628,88.333,190.116,101.667,193.605,102.5C197.093,103.333,200.581,103.75,204.07,103.75C207.558,103.75,211.047,93.75,214.535,93.75C218.023,93.75,221.512,96.25,225,96.25C228.488,96.25,231.977,89.792,235.465,86.25C238.953,82.708,242.442,75.833,245.93,75C249.419,74.167,252.907,74.583,256.395,73.75C259.884,72.917,263.372,62.917,266.86,57.5C270.349,52.083,273.837,47.083,277.326,41.25C280.814,35.417,284.302,22.5,287.791,22.5C291.279,22.5,294.767,76.25,298.256,78.75C301.744,81.25,305.233,82.5,308.721,82.5C312.209,82.5,315.698,67.5,319.186,67.5C322.674,67.5,326.163,74.375,329.651,80C333.14,85.625,336.628,100.417,340.116,101.25C343.605,102.083,347.093,101.667,350.581,102.5C354.07,103.333,357.558,105.833,361.047,107.5C364.535,109.167,368.023,111.667,371.512,112.5C375,113.333,378.488,113.75,381.977,113.75C385.465,113.75,388.953,113.75,392.442,113.75C395.93,113.75,399.419,114.167,402.907,115C406.395,115.833,409.884,118.333,413.372,125C416.86,131.667,420.349,172.5,423.837,172.5C427.326,172.5,430.814,95,434.302,95C437.791,95,441.279,128.75,444.767,162.5" stroke="#4c78a8" stroke-width="2" opacity="1"/></g></g></g></g></g></svg>