<svg version="1.1" class="marks" width="421.703125" height="490.94911178319535" viewBox="0 0 521.703125 590.9491117831953" xmlns="http://www.w3.org/2000/svg" xmlns:xlink="http://www.w3.org/1999/xlink"><rect width="100%" height="100%" fill="#ffffff"/>
<g transform="translate(50.0, 51.54260120197745)"><rect x="0" y="0" width="15" height="150" fill="#175a77" transform="scale(1.3162707587649942) scale(0.6094130859375)"/>
<text class="chart-title-line" x="0" y="0" text-anchor="start" font-family="sans-serif" font-size="24" font-weight="700" fill="#0f2740" letter-spacing="0" transform="scale(1.3162707587649942) translate(19.1411962890625, 20.953051757812496)">Surge in First-Time Medical
</text>
<text class="chart-title-line" x="0" y="0" text-anchor="start" font-family="sans-serif" font-size="24" font-weight="700" fill="#0f2740" letter-spacing="0" transform="scale(1.3162707587649942) translate(19.1411962890625, 20.953051757812496) translate(0.0, 27.1640625)"> School Applicants
</text>
<text class="chart-subtitle-line" x="0" y="0" text-anchor="start" font-family="sans-serif" font-size="13" font-weight="400" fill="#445f7c" letter-spacing="0.25" transform="scale(1.3162707587649942) translate(19.1411962890625, 20.953051757812496) translate(0.0, 54.1875)">"Growing interest in medical education reflects
</text>
<text class="chart-subtitle-line" x="0" y="0" text-anchor="start" font-family="sans-serif" font-size="13" font-weight="400" fill="#445f7c" letter-spacing="0.25" transform="scale(1.3162707587649942) translate(19.1411962890625, 20.953051757812496) translate(0.0, 54.1875) translate(0.0, 14.7138671875)">changing demographics and career aspirations."
</text>
<line transform="translate(-5.796875, 132.0842449562179) translate(52.0,34.0) translate(0.5,200.5) translate(66,-200)" x2="0" y2="200" stroke="#ddd" stroke-width="1" opacity="1" class="mark-rule role-axis-grid" pointer-events="none" aria-hidden="true" fill="none" stroke-miterlimit="10" role="graphics-object" aria-roledescription="group mark container" version="1.1" width="432" height="367" viewBox="0 0 432 367"/>
<line transform="translate(-5.796875, 132.0842449562179) translate(52.0,34.0) translate(0.5,200.5) translate(187,-200)" x2="0" y2="200" stroke="#ddd" stroke-width="1" opacity="1" class="mark-rule role-axis-grid" pointer-events="none" aria-hidden="true" fill="none" stroke-miterlimit="10" role="graphics-object" aria-roledescription="group mark container" version="1.1" width="432" height="367" viewBox="0 0 432 367"/>
<line transform="translate(-5.796875, 132.0842449562179) translate(52.0,34.0) translate(0.5,200.5) translate(308,-200)" x2="0" y2="200" stroke="#ddd" stroke-width="1" opacity="1" class="mark-rule role-axis-grid" pointer-events="none" aria-hidden="true" fill="none" stroke-miterlimit="10" role="graphics-object" aria-roledescription="group mark container" version="1.1" width="432" height="367" viewBox="0 0 432 367"/>
<line transform="translate(-5.796875, 132.0842449562179) translate(52.0,34.0) translate(0.5,0.5) translate(0,200)" x2="375" y2="0" stroke="#ddd" stroke-width="1" opacity="1" class="mark-rule role-axis-grid" pointer-events="none" aria-hidden="true" fill="none" stroke-miterlimit="10" role="graphics-object" aria-roledescription="group mark container" version="1.1" width="432" height="367" viewBox="0 0 432 367"/>
<line transform="translate(-5.796875, 132.0842449562179) translate(52.0,34.0) translate(0.5,0.5) translate(0,160)" x2="375" y2="0" stroke="#ddd" stroke-width="1" opacity="1" class="mark-rule role-axis-grid" pointer-events="none" aria-hidden="true" fill="none" stroke-miterlimit="10" role="graphics-object" aria-roledescription="group mark container" version="1.1" width="432" height="367" viewBox="0 0 432 367"/>
<line transform="translate(-5.796875, 132.0842449562179) translate(52.0,34.0) translate(0.5,0.5) translate(0,120)" x2="375" y2="0" stroke="#ddd" stroke-width="1" opacity="1" class="mark-rule role-axis-grid" pointer-events="none" aria-hidden="true" fill="none" stroke-miterlimit="10" role="graphics-object" aria-roledescription="group mark container" version="1.1" width="432" height="367" viewBox="0 0 432 367"/>
<line transform="translate(-5.796875, 132.0842449562179) translate(52.0,34.0) translate(0.5,0.5) translate(0,80)" x2="375" y2="0" stroke="#ddd" stroke-width="1" opacity="1" class="mark-rule role-axis-grid" pointer-events="none" aria-hidden="true" fill="none" stroke-miterlimit="10" role="graphics-object" aria-roledescription="group mark container" version="1.1" width="432" height="367" viewBox="0 0 432 367"/>
<line transform="translate(-5.796875, 132.0842449562179) translate(52.0,34.0) translate(0.5,0.5) translate(0,40)" x2="375" y2="0" stroke="#ddd" stroke-width="1" opacity="1" class="mark-rule role-axis-grid" pointer-events="none" aria-hidden="true" fill="none" stroke-miterlimit="10" role="graphics-object" aria-roledescription="group mark container" version="1.1" width="432" height="367" viewBox="0 0 432 367"/>
<line transform="translate(-5.796875, 132.0842449562179) translate(52.0,34.0) translate(0.5,0.5) translate(0,0)" x2="375" y2="0" stroke="#ddd" stroke-width="1" opacity="1" class="mark-rule role-axis-grid" pointer-events="none" aria-hidden="true" fill="none" stroke-miterlimit="10" role="graphics-object" aria-roledescription="group mark container" version="1.1" width="432" height="367" viewBox="0 0 432 367"/>
<path transform="translate(-5.796875, 132.0842449562179) translate(52.0,34.0) translate(0,-29) translate(0,0) translate(0,0) translate(6,6)" d="M-5,-5h10v10h-10Z" fill="#175a77" stroke-width="1.5" opacity="1" class="mark-symbol role-legend-symbol" pointer-events="none" role="graphics-object" aria-roledescription="group mark container" aria-label="Symbol legend for fill color with 3 values: Total Applicants, First-Time Applicants, First-Time Enrollees" stroke-miterlimit="10" version="1.1" width="432" height="367" viewBox="0 0 432 367"/>
<text text-anchor="start" transform="translate(-5.796875, 132.0842449562179) translate(52.0,34.0) translate(0,-29) translate(0,0) translate(0,0) translate(16,9)" font-family="sans-serif" font-size="10px" fill="#000" opacity="1" class="mark-text role-legend-label" pointer-events="none" role="graphics-object" aria-roledescription="group mark container" aria-label="Symbol legend for fill color with 3 values: Total Applicants, First-Time Applicants, First-Time Enrollees" stroke-miterlimit="10" version="1.1" width="432" height="367" viewBox="0 0 432 367">Total Applicants
</text>
<path transform="translate(-5.796875, 132.0842449562179) translate(52.0,34.0) translate(0,-29) translate(0,0) translate(101,0) translate(6,6)" d="M-5,-5h10v10h-10Z" fill="#175a77" stroke-width="1.5" opacity="1" class="mark-symbol role-legend-symbol" pointer-events="none" role="graphics-object" aria-roledescription="group mark container" aria-label="Symbol legend for fill color with 3 values: Total Applicants, First-Time Applicants, First-Time Enrollees" stroke-miterlimit="10" version="1.1" width="432" height="367" viewBox="0 0 432 367"/>
<text text-anchor="start" transform="translate(-5.796875, 132.0842449562179) translate(52.0,34.0) translate(0,-29) translate(0,0) translate(101,0) translate(16,9)" font-family="sans-serif" font-size="10px" fill="#000" opacity="1" class="mark-text role-legend-label" pointer-events="none" role="graphics-object" aria-roledescription="group mark container" aria-label="Symbol legend for fill color with 3 values: Total Applicants, First-Time Applicants, First-Time Enrollees" stroke-miterlimit="10" version="1.1" width="432" height="367" viewBox="0 0 432 367">First-Time Applicants
</text>
<path transform="translate(-5.796875, 132.0842449562179) translate(52.0,34.0) translate(0,-29) translate(0,0) translate(225,0) translate(6,6)" d="M-5,-5h10v10h-10Z" fill="#175a77" stroke-width="1.5" opacity="1" class="mark-symbol role-legend-symbol" pointer-events="none" role="graphics-object" aria-roledescription="group mark container" aria-label="Symbol legend for fill color with 3 values: Total Applicants, First-Time Applicants, First-Time Enrollees" stroke-miterlimit="10" version="1.1" width="432" height="367" viewBox="0 0 432 367"/>
<text text-anchor="start" transform="translate(-5.796875, 132.0842449562179) translate(52.0,34.0) translate(0,-29) translate(0,0) translate(225,0) translate(16,9)" font-family="sans-serif" font-size="10px" fill="#000" opacity="1" class="mark-text role-legend-label" pointer-events="none" role="graphics-object" aria-roledescription="group mark container" aria-label="Symbol legend for fill color with 3 values: Total Applicants, First-Time Applicants, First-Time Enrollees" stroke-miterlimit="10" version="1.1" width="432" height="367" viewBox="0 0 432 367">First-Time Enrollees
</text>
<line transform="translate(-5.796875, 132.0842449562179) translate(52.0,34.0) translate(0.5,200.5) translate(66,0)" x2="0" y2="5" stroke="#0f223b" stroke-width="1" opacity="1" fill="none" stroke-miterlimit="10" class="mark-rule role-axis-tick" role="graphics-symbol" aria-roledescription="axis" version="1.1" width="432" height="367" viewBox="0 0 432 367" aria-label="X-axis for a discrete scale with 3 values: First-Time Applicants, First-Time Enrollees, Total Applicants" pointer-events="none"/>
<line transform="translate(-5.796875, 132.0842449562179) translate(52.0,34.0) translate(0.5,200.5) translate(187,0)" x2="0" y2="5" stroke="#0f223b" stroke-width="1" opacity="1" fill="none" stroke-miterlimit="10" class="mark-rule role-axis-tick" role="graphics-symbol" aria-roledescription="axis" version="1.1" width="432" height="367" viewBox="0 0 432 367" aria-label="X-axis for a discrete scale with 3 values: First-Time Applicants, First-Time Enrollees, Total Applicants" pointer-events="none"/>
<line transform="translate(-5.796875, 132.0842449562179) translate(52.0,34.0) translate(0.5,200.5) translate(308,0)" x2="0" y2="5" stroke="#0f223b" stroke-width="1" opacity="1" fill="none" stroke-miterlimit="10" class="mark-rule role-axis-tick" role="graphics-symbol" aria-roledescription="axis" version="1.1" width="432" height="367" viewBox="0 0 432 367" aria-label="X-axis for a discrete scale with 3 values: First-Time Applicants, First-Time Enrollees, Total Applicants" pointer-events="none"/>
<text text-anchor="end" transform="translate(-5.796875, 132.0842449562179) translate(52.0,34.0) translate(0.5,200.5) translate(66.03225806451613,10) rotate(270) translate(0,4)" font-family="sans-serif" font-size="12px" fill="#000d2a" opacity="1" stroke-miterlimit="10" class="mark-text role-axis-label" role="graphics-symbol" aria-roledescription="axis" version="1.1" width="432" height="367" viewBox="0 0 432 367" aria-label="X-axis for a discrete scale with 3 values: First-Time Applicants, First-Time Enrollees, Total Applicants" pointer-events="none" x="0.0" y="0.0">First-Time Applicants
</text>
<text text-anchor="end" transform="translate(-5.796875, 132.0842449562179) translate(52.0,34.0) translate(0.5,200.5) translate(187,10) rotate(270) translate(0,4)" font-family="sans-serif" font-size="12px" fill="#000d2a" opacity="1" stroke-miterlimit="10" class="mark-text role-axis-label" role="graphics-symbol" aria-roledescription="axis" version="1.1" width="432" height="367" viewBox="0 0 432 367" aria-label="X-axis for a discrete scale with 3 values: First-Time Applicants, First-Time Enrollees, Total Applicants" pointer-events="none" x="0.0" y="0.0">First-Time Enrollees
</text>
<text text-anchor="end" transform="translate(-5.796875, 132.0842449562179) translate(52.0,34.0) translate(0.5,200.5) translate(307.9677419354839,10) rotate(270) translate(0,4)" font-family="sans-serif" font-size="12px" fill="#000d2a" opacity="1" stroke-miterlimit="10" class="mark-text role-axis-label" role="graphics-symbol" aria-roledescription="axis" version="1.1" width="432" height="367" viewBox="0 0 432 367" aria-label="X-axis for a discrete scale with 3 values: First-Time Applicants, First-Time Enrollees, Total Applicants" pointer-events="none" x="0.0" y="0.0">Total Applicants
</text>
<line transform="translate(-5.796875, 132.0842449562179) translate(52.0,34.0) translate(0.5,200.5) translate(0,0)" x2="375" y2="0" stroke="#0f223b" stroke-width="1" opacity="1" fill="none" stroke-miterlimit="10" class="mark-rule role-axis-domain" role="graphics-symbol" aria-roledescription="axis" version="1.1" width="432" height="367" viewBox="0 0 432 367" aria-label="X-axis for a discrete scale with 3 values: First-Time Applicants, First-Time Enrollees, Total Applicants" pointer-events="none"/>
<line transform="translate(-5.796875, 132.0842449562179) translate(52.0,34.0) translate(0.5,0.5) translate(0,200)" x2="-5" y2="0" stroke="#0f223b" stroke-width="1" opacity="1" fill="none" stroke-miterlimit="10" class="mark-rule role-axis-tick" role="graphics-symbol" aria-roledescription="axis" version="1.1" width="432" height="367" viewBox="0 0 432 367" aria-label="Y-axis for a linear scale with values from 0 to 50,000" pointer-events="none"/>
<line transform="translate(-5.796875, 132.0842449562179) translate(52.0,34.0) translate(0.5,0.5) translate(0,160)" x2="-5" y2="0" stroke="#0f223b" stroke-width="1" opacity="1" fill="none" stroke-miterlimit="10" class="mark-rule role-axis-tick" role="graphics-symbol" aria-roledescription="axis" version="1.1" width="432" height="367" viewBox="0 0 432 367" aria-label="Y-axis for a linear scale with values from 0 to 50,000" pointer-events="none"/>
<line transform="translate(-5.796875, 132.0842449562179) translate(52.0,34.0) translate(0.5,0.5) translate(0,120)" x2="-5" y2="0" stroke="#0f223b" stroke-width="1" opacity="1" fill="none" stroke-miterlimit="10" class="mark-rule role-axis-tick" role="graphics-symbol" aria-roledescription="axis" version="1.1" width="432" height="367" viewBox="0 0 432 367" aria-label="Y-axis for a linear scale with values from 0 to 50,000" pointer-events="none"/>
<line transform="translate(-5.796875, 132.0842449562179) translate(52.0,34.0) translate(0.5,0.5) translate(0,80)" x2="-5" y2="0" stroke="#0f223b" stroke-width="1" opacity="1" fill="none" stroke-miterlimit="10" class="mark-rule role-axis-tick" role="graphics-symbol" aria-roledescription="axis" version="1.1" width="432" height="367" viewBox="0 0 432 367" aria-label="Y-axis for a linear scale with values from 0 to 50,000" pointer-events="none"/>
<line transform="translate(-5.796875, 132.0842449562179) translate(52.0,34.0) translate(0.5,0.5) translate(0,40)" x2="-5" y2="0" stroke="#0f223b" stroke-width="1" opacity="1" fill="none" stroke-miterlimit="10" class="mark-rule role-axis-tick" role="graphics-symbol" aria-roledescription="axis" version="1.1" width="432" height="367" viewBox="0 0 432 367" aria-label="Y-axis for a linear scale with values from 0 to 50,000" pointer-events="none"/>
<line transform="translate(-5.796875, 132.0842449562179) translate(52.0,34.0) translate(0.5,0.5) translate(0,0)" x2="-5" y2="0" stroke="#0f223b" stroke-width="1" opacity="1" fill="none" stroke-miterlimit="10" class="mark-rule role-axis-tick" role="graphics-symbol" aria-roledescription="axis" version="1.1" width="432" height="367" viewBox="0 0 432 367" aria-label="Y-axis for a linear scale with values from 0 to 50,000" pointer-events="none"/>
<text text-anchor="end" transform="translate(-5.796875, 132.0842449562179) translate(52.0,34.0) translate(0.5,0.5) translate(-10,204)" font-family="sans-serif" font-size="12px" fill="#000d2a" opacity="1" stroke-miterlimit="10" class="mark-text role-axis-label" role="graphics-symbol" aria-roledescription="axis" version="1.1" width="432" height="367" viewBox="0 0 432 367" aria-label="Y-axis for a linear scale with values from 0 to 50,000" pointer-events="none">0
</text>
<text text-anchor="end" transform="translate(-5.796875, 132.0842449562179) translate(52.0,34.0) translate(0.5,0.5) translate(-10,164)" font-family="sans-serif" font-size="12px" fill="#000d2a" opacity="1" stroke-miterlimit="10" class="mark-text role-axis-label" role="graphics-symbol" aria-roledescription="axis" version="1.1" width="432" height="367" viewBox="0 0 432 367" aria-label="Y-axis for a linear scale with values from 0 to 50,000" pointer-events="none">10,000
</text>
<text text-anchor="end" transform="translate(-5.796875, 132.0842449562179) translate(52.0,34.0) translate(0.5,0.5) translate(-10,124)" font-family="sans-serif" font-size="12px" fill="#000d2a" opacity="1" stroke-miterlimit="10" class="mark-text role-axis-label" role="graphics-symbol" aria-roledescription="axis" version="1.1" width="432" height="367" viewBox="0 0 432 367" aria-label="Y-axis for a linear scale with values from 0 to 50,000" pointer-events="none">20,000
</text>
<text text-anchor="end" transform="translate(-5.796875, 132.0842449562179) translate(52.0,34.0) translate(0.5,0.5) translate(-10,84)" font-family="sans-serif" font-size="12px" fill="#000d2a" opacity="1" stroke-miterlimit="10" class="mark-text role-axis-label" role="graphics-symbol" aria-roledescription="axis" version="1.1" width="432" height="367" viewBox="0 0 432 367" aria-label="Y-axis for a linear scale with values from 0 to 50,000" pointer-events="none">30,000
</text>
<text text-anchor="end" transform="translate(-5.796875, 132.0842449562179) translate(52.0,34.0) translate(0.5,0.5) translate(-10,43.99999999999999)" font-family="sans-serif" font-size="12px" fill="#000d2a" opacity="1" stroke-miterlimit="10" class="mark-text role-axis-label" role="graphics-symbol" aria-roledescription="axis" version="1.1" width="432" height="367" viewBox="0 0 432 367" aria-label="Y-axis for a linear scale with values from 0 to 50,000" pointer-events="none">40,000
</text>
<text text-anchor="end" transform="translate(-5.796875, 132.0842449562179) translate(52.0,34.0) translate(0.5,0.5) translate(-10,4)" font-family="sans-serif" font-size="12px" fill="#000d2a" opacity="1" stroke-miterlimit="10" class="mark-text role-axis-label" role="graphics-symbol" aria-roledescription="axis" version="1.1" width="432" height="367" viewBox="0 0 432 367" aria-label="Y-axis for a linear scale with values from 0 to 50,000" pointer-events="none">50,000
</text>
<line transform="translate(-5.796875, 132.0842449562179) translate(52.0,34.0) translate(0.5,0.5) translate(0,200)" x2="0" y2="-200" stroke="#0f223b" stroke-width="1" opacity="1" fill="none" stroke-miterlimit="10" class="mark-rule role-axis-domain" role="graphics-symbol" aria-roledescription="axis" version="1.1" width="432" height="367" viewBox="0 0 432 367" aria-label="Y-axis for a linear scale with values from 0 to 50,000" pointer-events="none"/>
<path aria-label="First-Time Applicants: First-Time Applicants; Number: 36697" role="graphics-symbol" aria-roledescription="bar" d="M22.98387096774193,53.21199999999999h87.0967741935484v146.788h-87.0967741935484Z" fill="#175a77" opacity="1" stroke-miterlimit="10" class="mark-rect role-mark layer_0_marks" version="1.1" width="432" height="367" viewBox="0 0 432 367" transform="translate(-5.796875, 132.0842449562179) translate(52.0,34.0)"/>
<path aria-label="First-Time Applicants: Total Applicants; Number: 49480" role="graphics-symbol" aria-roledescription="bar" d="M264.9193548387097,2.079999999999993h87.0967741935484v197.92000000000002h-87.0967741935484Z" fill="#175a77" opacity="1" stroke-miterlimit="10" class="mark-rect role-mark layer_0_marks" version="1.1" width="432" height="367" viewBox="0 0 432 367" transform="translate(-5.796875, 132.0842449562179) translate(52.0,34.0)"/>
<path aria-label="First-Time Applicants: First-Time Enrollees; Number: 20343" role="graphics-symbol" aria-roledescription="bar" d="M143.9516129032258,118.628h87.0967741935484v81.372h-87.0967741935484Z" fill="#175a77" opacity="1" stroke-miterlimit="10" class="mark-rect role-mark layer_0_marks" version="1.1" width="432" height="367" viewBox="0 0 432 367" transform="translate(-5.796875, 132.0842449562179) translate(52.0,34.0)"/></g></svg>