<svg version="1.1" class="marks" width="805.5" height="638.1790787166028" viewBox="0 0 905.5 738.1790787166028" xmlns="http://www.w3.org/2000/svg" xmlns:xlink="http://www.w3.org/1999/xlink"><rect width="100%" height="100%" fill="#ffffff"/>
<g transform="translate(50.0, 118.09819393999702)"><text class="chart-title-line" x="0" y="0" text-anchor="start" font-family="sans-serif" font-size="24" font-weight="700" fill="#0f2740" letter-spacing="0" transform="scale(3.077884471864272)">Battle of the Batteries:
</text>
<text class="chart-title-line" x="0" y="0" text-anchor="start" font-family="sans-serif" font-size="24" font-weight="700" fill="#0f2740" letter-spacing="0" transform="scale(3.077884471864272) translate(0.0, 27.1640625)">Which Lasts Longer?
</text>
<text class="chart-subtitle-line" x="0" y="0" text-anchor="start" font-family="sans-serif" font-size="13" font-weight="400" fill="#445f7c" letter-spacing="0.25" transform="scale(3.077884471864272) translate(0.0, 54.1875)">"A look at the longevity of popular
</text>
<text class="chart-subtitle-line" x="0" y="0" text-anchor="start" font-family="sans-serif" font-size="13" font-weight="400" fill="#445f7c" letter-spacing="0.25" transform="scale(3.077884471864272) translate(0.0, 54.1875) translate(0.0, 14.7138671875)">battery brands."
</text>
<path transform="translate(-5.5, 230.6902597766058) translate(5.0,34.0) translate(0,-29) translate(0,0) translate(0,0) translate(6,6)" d="M5,0A5,5,0,1,1,-5,0A5,5,0,1,1,5,0" fill="#3c3c3c" stroke-width="1.5" opacity="1" class="mark-symbol role-legend-symbol" pointer-events="none" role="graphics-object" aria-roledescription="group mark container" aria-label="Symbol legend for fill color with 11 values: DURACELL, Energizer, Alkaline, RAYOVAC, ALKALINE, ending with HOME" stroke-miterlimit="10" version="1.1" width="815" height="334" viewBox="0 0 815 334"/>
<text text-anchor="start" transform="translate(-5.5, 230.6902597766058) translate(5.0,34.0) translate(0,-29) translate(0,0) translate(0,0) translate(16,9)" font-family="sans-serif" font-size="10px" fill="#000" opacity="1" class="mark-text role-legend-label" pointer-events="none" role="graphics-object" aria-roledescription="group mark container" aria-label="Symbol legend for fill color with 11 values: DURACELL, Energizer, Alkaline, RAYOVAC, ALKALINE, ending with HOME" stroke-miterlimit="10" version="1.1" width="815" height="334" viewBox="0 0 815 334">DURACELL
</text>
<path transform="translate(-5.5, 230.6902597766058) translate(5.0,34.0) translate(0,-29) translate(0,0) translate(76,0) translate(6,6)" d="M5,0A5,5,0,1,1,-5,0A5,5,0,1,1,5,0" fill="#3c3c3c" stroke-width="1.5" opacity="1" class="mark-symbol role-legend-symbol" pointer-events="none" role="graphics-object" aria-roledescription="group mark container" aria-label="Symbol legend for fill color with 11 values: DURACELL, Energizer, Alkaline, RAYOVAC, ALKALINE, ending with HOME" stroke-miterlimit="10" version="1.1" width="815" height="334" viewBox="0 0 815 334"/>
<text text-anchor="start" transform="translate(-5.5, 230.6902597766058) translate(5.0,34.0) translate(0,-29) translate(0,0) translate(76,0) translate(16,9)" font-family="sans-serif" font-size="10px" fill="#000" opacity="1" class="mark-text role-legend-label" pointer-events="none" role="graphics-object" aria-roledescription="group mark container" aria-label="Symbol legend for fill color with 11 values: DURACELL, Energizer, Alkaline, RAYOVAC, ALKALINE, ending with HOME" stroke-miterlimit="10" version="1.1" width="815" height="334" viewBox="0 0 815 334">Energizer
</text>
<path transform="translate(-5.5, 230.6902597766058) translate(5.0,34.0) translate(0,-29) translate(0,0) translate(146,0) translate(6,6)" d="M5,0A5,5,0,1,1,-5,0A5,5,0,1,1,5,0" fill="#3c3c3c" stroke-width="1.5" opacity="1" class="mark-symbol role-legend-symbol" pointer-events="none" role="graphics-object" aria-roledescription="group mark container" aria-label="Symbol legend for fill color with 11 values: DURACELL, Energizer, Alkaline, RAYOVAC, ALKALINE, ending with HOME" stroke-miterlimit="10" version="1.1" width="815" height="334" viewBox="0 0 815 334"/>
<text text-anchor="start" transform="translate(-5.5, 230.6902597766058) translate(5.0,34.0) translate(0,-29) translate(0,0) translate(146,0) translate(16,9)" font-family="sans-serif" font-size="10px" fill="#000" opacity="1" class="mark-text role-legend-label" pointer-events="none" role="graphics-object" aria-roledescription="group mark container" aria-label="Symbol legend for fill color with 11 values: DURACELL, Energizer, Alkaline, RAYOVAC, ALKALINE, ending with HOME" stroke-miterlimit="10" version="1.1" width="815" height="334" viewBox="0 0 815 334">Alkaline
</text>
<path transform="translate(-5.5, 230.6902597766058) translate(5.0,34.0) translate(0,-29) translate(0,0) translate(210,0) translate(6,6)" d="M5,0A5,5,0,1,1,-5,0A5,5,0,1,1,5,0" fill="#3c3c3c" stroke-width="1.5" opacity="1" class="mark-symbol role-legend-symbol" pointer-events="none" role="graphics-object" aria-roledescription="group mark container" aria-label="Symbol legend for fill color with 11 values: DURACELL, Energizer, Alkaline, RAYOVAC, ALKALINE, ending with HOME" stroke-miterlimit="10" version="1.1" width="815" height="334" viewBox="0 0 815 334"/>
<text text-anchor="start" transform="translate(-5.5, 230.6902597766058) translate(5.0,34.0) translate(0,-29) translate(0,0) translate(210,0) translate(16,9)" font-family="sans-serif" font-size="10px" fill="#000" opacity="1" class="mark-text role-legend-label" pointer-events="none" role="graphics-object" aria-roledescription="group mark container" aria-label="Symbol legend for fill color with 11 values: DURACELL, Energizer, Alkaline, RAYOVAC, ALKALINE, ending with HOME" stroke-miterlimit="10" version="1.1" width="815" height="334" viewBox="0 0 815 334">RAYOVAC
</text>
<path transform="translate(-5.5, 230.6902597766058) translate(5.0,34.0) translate(0,-29) translate(0,0) translate(279,0) translate(6,6)" d="M5,0A5,5,0,1,1,-5,0A5,5,0,1,1,5,0" fill="#3c3c3c" stroke-width="1.5" opacity="1" class="mark-symbol role-legend-symbol" pointer-events="none" role="graphics-object" aria-roledescription="group mark container" aria-label="Symbol legend for fill color with 11 values: DURACELL, Energizer, Alkaline, RAYOVAC, ALKALINE, ending with HOME" stroke-miterlimit="10" version="1.1" width="815" height="334" viewBox="0 0 815 334"/>
<text text-anchor="start" transform="translate(-5.5, 230.6902597766058) translate(5.0,34.0) translate(0,-29) translate(0,0) translate(279,0) translate(16,9)" font-family="sans-serif" font-size="10px" fill="#000" opacity="1" class="mark-text role-legend-label" pointer-events="none" role="graphics-object" aria-roledescription="group mark container" aria-label="Symbol legend for fill color with 11 values: DURACELL, Energizer, Alkaline, RAYOVAC, ALKALINE, ending with HOME" stroke-miterlimit="10" version="1.1" width="815" height="334" viewBox="0 0 815 334">ALKALINE
</text>
<path transform="translate(-5.5, 230.6902597766058) translate(5.0,34.0) translate(0,-29) translate(0,0) translate(351,0) translate(6,6)" d="M5,0A5,5,0,1,1,-5,0A5,5,0,1,1,5,0" fill="#3c3c3c" stroke-width="1.5" opacity="1" class="mark-symbol role-legend-symbol" pointer-events="none" role="graphics-object" aria-roledescription="group mark container" aria-label="Symbol legend for fill color with 11 values: DURACELL, Energizer, Alkaline, RAYOVAC, ALKALINE, ending with HOME" stroke-miterlimit="10" version="1.1" width="815" height="334" viewBox="0 0 815 334"/>
<text text-anchor="start" transform="translate(-5.5, 230.6902597766058) translate(5.0,34.0) translate(0,-29) translate(0,0) translate(351,0) translate(16,9)" font-family="sans-serif" font-size="10px" fill="#000" opacity="1" class="mark-text role-legend-label" pointer-events="none" role="graphics-object" aria-roledescription="group mark container" aria-label="Symbol legend for fill color with 11 values: DURACELL, Energizer, Alkaline, RAYOVAC, ALKALINE, ending with HOME" stroke-miterlimit="10" version="1.1" width="815" height="334" viewBox="0 0 815 334">Panasonic AA
</text>
<path transform="translate(-5.5, 230.6902597766058) translate(5.0,34.0) translate(0,-29) translate(0,0) translate(440,0) translate(6,6)" d="M5,0A5,5,0,1,1,-5,0A5,5,0,1,1,5,0" fill="#3c3c3c" stroke-width="1.5" opacity="1" class="mark-symbol role-legend-symbol" pointer-events="none" role="graphics-object" aria-roledescription="group mark container" aria-label="Symbol legend for fill color with 11 values: DURACELL, Energizer, Alkaline, RAYOVAC, ALKALINE, ending with HOME" stroke-miterlimit="10" version="1.1" width="815" height="334" viewBox="0 0 815 334"/>
<text text-anchor="start" transform="translate(-5.5, 230.6902597766058) translate(5.0,34.0) translate(0,-29) translate(0,0) translate(440,0) translate(16,9)" font-family="sans-serif" font-size="10px" fill="#000" opacity="1" class="mark-text role-legend-label" pointer-events="none" role="graphics-object" aria-roledescription="group mark container" aria-label="Symbol legend for fill color with 11 values: DURACELL, Energizer, Alkaline, RAYOVAC, ALKALINE, ending with HOME" stroke-miterlimit="10" version="1.1" width="815" height="334" viewBox="0 0 815 334">Panasonic
</text>
<path transform="translate(-5.5, 230.6902597766058) translate(5.0,34.0) translate(0,-29) translate(0,0) translate(514,0) translate(6,6)" d="M5,0A5,5,0,1,1,-5,0A5,5,0,1,1,5,0" fill="#3c3c3c" stroke-width="1.5" opacity="1" class="mark-symbol role-legend-symbol" pointer-events="none" role="graphics-object" aria-roledescription="group mark container" aria-label="Symbol legend for fill color with 11 values: DURACELL, Energizer, Alkaline, RAYOVAC, ALKALINE, ending with HOME" stroke-miterlimit="10" version="1.1" width="815" height="334" viewBox="0 0 815 334"/>
<text text-anchor="start" transform="translate(-5.5, 230.6902597766058) translate(5.0,34.0) translate(0,-29) translate(0,0) translate(514,0) translate(16,9)" font-family="sans-serif" font-size="10px" fill="#000" opacity="1" class="mark-text role-legend-label" pointer-events="none" role="graphics-object" aria-roledescription="group mark container" aria-label="Symbol legend for fill color with 11 values: DURACELL, Energizer, Alkaline, RAYOVAC, ALKALINE, ending with HOME" stroke-miterlimit="10" version="1.1" width="815" height="334" viewBox="0 0 815 334">Sunbeam
</text>
<path transform="translate(-5.5, 230.6902597766058) translate(5.0,34.0) translate(0,-29) translate(0,0) translate(585,0) translate(6,6)" d="M5,0A5,5,0,1,1,-5,0A5,5,0,1,1,5,0" fill="#3c3c3c" stroke-width="1.5" opacity="1" class="mark-symbol role-legend-symbol" pointer-events="none" role="graphics-object" aria-roledescription="group mark container" aria-label="Symbol legend for fill color with 11 values: DURACELL, Energizer, Alkaline, RAYOVAC, ALKALINE, ending with HOME" stroke-miterlimit="10" version="1.1" width="815" height="334" viewBox="0 0 815 334"/>
<text text-anchor="start" transform="translate(-5.5, 230.6902597766058) translate(5.0,34.0) translate(0,-29) translate(0,0) translate(585,0) translate(16,9)" font-family="sans-serif" font-size="10px" fill="#000" opacity="1" class="mark-text role-legend-label" pointer-events="none" role="graphics-object" aria-roledescription="group mark container" aria-label="Symbol legend for fill color with 11 values: DURACELL, Energizer, Alkaline, RAYOVAC, ALKALINE, ending with HOME" stroke-miterlimit="10" version="1.1" width="815" height="334" viewBox="0 0 815 334">KIRKLAND
</text>
<path transform="translate(-5.5, 230.6902597766058) translate(5.0,34.0) translate(0,-29) translate(0,0) translate(659,0) translate(6,6)" d="M5,0A5,5,0,1,1,-5,0A5,5,0,1,1,5,0" fill="#3c3c3c" stroke-width="1.5" opacity="1" class="mark-symbol role-legend-symbol" pointer-events="none" role="graphics-object" aria-roledescription="group mark container" aria-label="Symbol legend for fill color with 11 values: DURACELL, Energizer, Alkaline, RAYOVAC, ALKALINE, ending with HOME" stroke-miterlimit="10" version="1.1" width="815" height="334" viewBox="0 0 815 334"/>
<text text-anchor="start" transform="translate(-5.5, 230.6902597766058) translate(5.0,34.0) translate(0,-29) translate(0,0) translate(659,0) translate(16,9)" font-family="sans-serif" font-size="10px" fill="#000" opacity="1" class="mark-text role-legend-label" pointer-events="none" role="graphics-object" aria-roledescription="group mark container" aria-label="Symbol legend for fill color with 11 values: DURACELL, Energizer, Alkaline, RAYOVAC, ALKALINE, ending with HOME" stroke-miterlimit="10" version="1.1" width="815" height="334" viewBox="0 0 815 334">EVEREALY DLOD
</text>
<path transform="translate(-5.5, 230.6902597766058) translate(5.0,34.0) translate(0,-29) translate(0,0) translate(760,0) translate(6,6)" d="M5,0A5,5,0,1,1,-5,0A5,5,0,1,1,5,0" fill="#3c3c3c" stroke-width="1.5" opacity="1" class="mark-symbol role-legend-symbol" pointer-events="none" role="graphics-object" aria-roledescription="group mark container" aria-label="Symbol legend for fill color with 11 values: DURACELL, Energizer, Alkaline, RAYOVAC, ALKALINE, ending with HOME" stroke-miterlimit="10" version="1.1" width="815" height="334" viewBox="0 0 815 334"/>
<text text-anchor="start" transform="translate(-5.5, 230.6902597766058) translate(5.0,34.0) translate(0,-29) translate(0,0) translate(760,0) translate(16,9)" font-family="sans-serif" font-size="10px" fill="#000" opacity="1" class="mark-text role-legend-label" pointer-events="none" role="graphics-object" aria-roledescription="group mark container" aria-label="Symbol legend for fill color with 11 values: DURACELL, Energizer, Alkaline, RAYOVAC, ALKALINE, ending with HOME" stroke-miterlimit="10" version="1.1" width="815" height="334" viewBox="0 0 815 334">HOME
</text>
<text text-anchor="end" transform="translate(-5.5, 230.6902597766058) translate(5.0,34.0) translate(0.5,200.5) translate(18.081081081081088,5) rotate(270) translate(0,4)" font-family="sans-serif" font-size="12px" fill="#000d2a" opacity="1" stroke-miterlimit="10" class="mark-text role-axis-label" role="graphics-symbol" aria-roledescription="axis" version="1.1" width="815" height="334" viewBox="0 0 815 334" aria-label="X-axis for a discrete scale with 11 values: ALKALINE, Alkaline, DURACELL, EVEREALY DLOD, Energizer, ending with Sunbeam" pointer-events="none" x="0.0" y="0.0">ALKALINE
</text>
<text text-anchor="end" transform="translate(-5.5, 230.6902597766058) translate(5.0,34.0) translate(0.5,200.5) translate(51.86486486486487,5) rotate(270) translate(0,4)" font-family="sans-serif" font-size="12px" fill="#000d2a" opacity="1" stroke-miterlimit="10" class="mark-text role-axis-label" role="graphics-symbol" aria-roledescription="axis" version="1.1" width="815" height="334" viewBox="0 0 815 334" aria-label="X-axis for a discrete scale with 11 values: ALKALINE, Alkaline, DURACELL, EVEREALY DLOD, Energizer, ending with Sunbeam" pointer-events="none" x="0.0" y="0.0">Alkaline
</text>
<text text-anchor="end" transform="translate(-5.5, 230.6902597766058) translate(5.0,34.0) translate(0.5,200.5) translate(85.64864864864865,5) rotate(270) translate(0,4)" font-family="sans-serif" font-size="12px" fill="#000d2a" opacity="1" stroke-miterlimit="10" class="mark-text role-axis-label" role="graphics-symbol" aria-roledescription="axis" version="1.1" width="815" height="334" viewBox="0 0 815 334" aria-label="X-axis for a discrete scale with 11 values: ALKALINE, Alkaline, DURACELL, EVEREALY DLOD, Energizer, ending with Sunbeam" pointer-events="none" x="0.0" y="0.0">DURACELL
</text>
<text text-anchor="end" transform="translate(-5.5, 230.6902597766058) translate(5.0,34.0) translate(0.5,200.5) translate(119.43243243243245,5) rotate(270) translate(0,4)" font-family="sans-serif" font-size="12px" fill="#000d2a" opacity="1" stroke-miterlimit="10" class="mark-text role-axis-label" role="graphics-symbol" aria-roledescription="axis" version="1.1" width="815" height="334" viewBox="0 0 815 334" aria-label="X-axis for a discrete scale with 11 values: ALKALINE, Alkaline, DURACELL, EVEREALY DLOD, Energizer, ending with Sunbeam" pointer-events="none" x="0.0" y="0.0">EVEREALY DLOD
</text>
<text text-anchor="end" transform="translate(-5.5, 230.6902597766058) translate(5.0,34.0) translate(0.5,200.5) translate(153.21621621621622,5) rotate(270) translate(0,4)" font-family="sans-serif" font-size="12px" fill="#000d2a" opacity="1" stroke-miterlimit="10" class="mark-text role-axis-label" role="graphics-symbol" aria-roledescription="axis" version="1.1" width="815" height="334" viewBox="0 0 815 334" aria-label="X-axis for a discrete scale with 11 values: ALKALINE, Alkaline, DURACELL, EVEREALY DLOD, Energizer, ending with Sunbeam" pointer-events="none" x="0.0" y="0.0">Energizer
</text>
<text text-anchor="end" transform="translate(-5.5, 230.6902597766058) translate(5.0,34.0) translate(0.5,200.5) translate(187,5) rotate(270) translate(0,4)" font-family="sans-serif" font-size="12px" fill="#000d2a" opacity="1" stroke-miterlimit="10" class="mark-text role-axis-label" role="graphics-symbol" aria-roledescription="axis" version="1.1" width="815" height="334" viewBox="0 0 815 334" aria-label="X-axis for a discrete scale with 11 values: ALKALINE, Alkaline, DURACELL, EVEREALY DLOD, Energizer, ending with Sunbeam" pointer-events="none" x="0.0" y="0.0">HOME
</text>
<text text-anchor="end" transform="translate(-5.5, 230.6902597766058) translate(5.0,34.0) translate(0.5,200.5) translate(220.7837837837838,5) rotate(270) translate(0,4)" font-family="sans-serif" font-size="12px" fill="#000d2a" opacity="1" stroke-miterlimit="10" class="mark-text role-axis-label" role="graphics-symbol" aria-roledescription="axis" version="1.1" width="815" height="334" viewBox="0 0 815 334" aria-label="X-axis for a discrete scale with 11 values: ALKALINE, Alkaline, DURACELL, EVEREALY DLOD, Energizer, ending with Sunbeam" pointer-events="none" x="0.0" y="0.0">KIRKLAND
</text>
<text text-anchor="end" transform="translate(-5.5, 230.6902597766058) translate(5.0,34.0) translate(0.5,200.5) translate(254.56756756756758,5) rotate(270) translate(0,4)" font-family="sans-serif" font-size="12px" fill="#000d2a" opacity="1" stroke-miterlimit="10" class="mark-text role-axis-label" role="graphics-symbol" aria-roledescription="axis" version="1.1" width="815" height="334" viewBox="0 0 815 334" aria-label="X-axis for a discrete scale with 11 values: ALKALINE, Alkaline, DURACELL, EVEREALY DLOD, Energizer, ending with Sunbeam" pointer-events="none" x="0.0" y="0.0">Panasonic
</text>
<text text-anchor="end" transform="translate(-5.5, 230.6902597766058) translate(5.0,34.0) translate(0.5,200.5) translate(288.35135135135135,5) rotate(270) translate(0,4)" font-family="sans-serif" font-size="12px" fill="#000d2a" opacity="1" stroke-miterlimit="10" class="mark-text role-axis-label" role="graphics-symbol" aria-roledescription="axis" version="1.1" width="815" height="334" viewBox="0 0 815 334" aria-label="X-axis for a discrete scale with 11 values: ALKALINE, Alkaline, DURACELL, EVEREALY DLOD, Energizer, ending with Sunbeam" pointer-events="none" x="0.0" y="0.0">Panasonic AA
</text>
<text text-anchor="end" transform="translate(-5.5, 230.6902597766058) translate(5.0,34.0) translate(0.5,200.5) translate(322.13513513513516,5) rotate(270) translate(0,4)" font-family="sans-serif" font-size="12px" fill="#000d2a" opacity="1" stroke-miterlimit="10" class="mark-text role-axis-label" role="graphics-symbol" aria-roledescription="axis" version="1.1" width="815" height="334" viewBox="0 0 815 334" aria-label="X-axis for a discrete scale with 11 values: ALKALINE, Alkaline, DURACELL, EVEREALY DLOD, Energizer, ending with Sunbeam" pointer-events="none" x="0.0" y="0.0">RAYOVAC
</text>
<text text-anchor="end" transform="translate(-5.5, 230.6902597766058) translate(5.0,34.0) translate(0.5,200.5) translate(355.9189189189189,5) rotate(270) translate(0,4)" font-family="sans-serif" font-size="12px" fill="#000d2a" opacity="1" stroke-miterlimit="10" class="mark-text role-axis-label" role="graphics-symbol" aria-roledescription="axis" version="1.1" width="815" height="334" viewBox="0 0 815 334" aria-label="X-axis for a discrete scale with 11 values: ALKALINE, Alkaline, DURACELL, EVEREALY DLOD, Energizer, ending with Sunbeam" pointer-events="none" x="0.0" y="0.0">Sunbeam
</text>
<line transform="translate(-5.5, 230.6902597766058) translate(5.0,34.0) translate(0.5,200.5) translate(0,0)" x2="375" y2="0" stroke="#0f223b" stroke-width="1" opacity="1" fill="none" stroke-miterlimit="10" class="mark-rule role-axis-domain" role="graphics-symbol" aria-roledescription="axis" version="1.1" width="815" height="334" viewBox="0 0 815 334" aria-label="X-axis for a discrete scale with 11 values: ALKALINE, Alkaline, DURACELL, EVEREALY DLOD, Energizer, ending with Sunbeam" pointer-events="none"/>
<path aria-label="kind: DURACELL; Hours lasted: 5.9" role="graphics-symbol" aria-roledescription="bar" d="M73.98648648648648,3.3333333333333215h24.324324324324323v196.66666666666669h-24.324324324324323Z" fill="#3c3c3c" opacity="1" stroke-miterlimit="10" class="mark-rect role-mark layer_0_marks" version="1.1" width="815" height="334" viewBox="0 0 815 334" transform="translate(-5.5, 230.6902597766058) translate(5.0,34.0)"/>
<path aria-label="kind: KIRKLAND; Hours lasted: 5.8" role="graphics-symbol" aria-roledescription="bar" d="M209.12162162162164,6.666666666666665h24.324324324324323v193.33333333333334h-24.324324324324323Z" fill="#3c3c3c" opacity="1" stroke-miterlimit="10" class="mark-rect role-mark layer_0_marks" version="1.1" width="815" height="334" viewBox="0 0 815 334" transform="translate(-5.5, 230.6902597766058) translate(5.0,34.0)"/>
<path aria-label="kind: HOME; Hours lasted: 5.4" role="graphics-symbol" aria-roledescription="bar" d="M175.33783783783784,19.999999999999996h24.324324324324323v180h-24.324324324324323Z" fill="#3c3c3c" opacity="1" stroke-miterlimit="10" class="mark-rect role-mark layer_0_marks" version="1.1" width="815" height="334" viewBox="0 0 815 334" transform="translate(-5.5, 230.6902597766058) translate(5.0,34.0)"/>
<path aria-label="kind: Energizer; Hours lasted: 5.2" role="graphics-symbol" aria-roledescription="bar" d="M141.55405405405406,26.66666666666666h24.324324324324323v173.33333333333334h-24.324324324324323Z" fill="#3c3c3c" opacity="1" stroke-miterlimit="10" class="mark-rect role-mark layer_0_marks" version="1.1" width="815" height="334" viewBox="0 0 815 334" transform="translate(-5.5, 230.6902597766058) translate(5.0,34.0)"/>
<path aria-label="kind: ALKALINE; Hours lasted: 5.18" role="graphics-symbol" aria-roledescription="bar" d="M6.4189189189189255,27.333333333333343h24.324324324324323v172.66666666666666h-24.324324324324323Z" fill="#3c3c3c" opacity="1" stroke-miterlimit="10" class="mark-rect role-mark layer_0_marks" version="1.1" width="815" height="334" viewBox="0 0 815 334" transform="translate(-5.5, 230.6902597766058) translate(5.0,34.0)"/>
<path aria-label="kind: Alkaline; Hours lasted: 4.6" role="graphics-symbol" aria-roledescription="bar" d="M40.20270270270271,46.66666666666668h24.324324324324323v153.33333333333331h-24.324324324324323Z" fill="#3c3c3c" opacity="1" stroke-miterlimit="10" class="mark-rect role-mark layer_0_marks" version="1.1" width="815" height="334" viewBox="0 0 815 334" transform="translate(-5.5, 230.6902597766058) translate(5.0,34.0)"/>
<path aria-label="kind: Sunbeam; Hours lasted: 4.5" role="graphics-symbol" aria-roledescription="bar" d="M344.2567567567567,50h24.324324324324323v150h-24.324324324324323Z" fill="#3c3c3c" opacity="1" stroke-miterlimit="10" class="mark-rect role-mark layer_0_marks" version="1.1" width="815" height="334" viewBox="0 0 815 334" transform="translate(-5.5, 230.6902597766058) translate(5.0,34.0)"/>
<path aria-label="kind: EVEREALY DLOD; Hours lasted: 3.6" role="graphics-symbol" aria-roledescription="bar" d="M107.77027027027027,80h24.324324324324323v120h-24.324324324324323Z" fill="#3c3c3c" opacity="1" stroke-miterlimit="10" class="mark-rect role-mark layer_0_marks" version="1.1" width="815" height="334" viewBox="0 0 815 334" transform="translate(-5.5, 230.6902597766058) translate(5.0,34.0)"/>
<path aria-label="kind: Panasonic AA; Hours lasted: 2.7" role="graphics-symbol" aria-roledescription="bar" d="M276.68918918918916,110.00000000000001h24.324324324324323v89.99999999999999h-24.324324324324323Z" fill="#3c3c3c" opacity="1" stroke-miterlimit="10" class="mark-rect role-mark layer_0_marks" version="1.1" width="815" height="334" viewBox="0 0 815 334" transform="translate(-5.5, 230.6902597766058) translate(5.0,34.0)"/>
<path aria-label="kind: RAYOVAC; Hours lasted: 2.2" role="graphics-symbol" aria-roledescription="bar" d="M310.47297297297297,126.66666666666666h24.324324324324323v73.33333333333334h-24.324324324324323Z" fill="#3c3c3c" opacity="1" stroke-miterlimit="10" class="mark-rect role-mark layer_0_marks" version="1.1" width="815" height="334" viewBox="0 0 815 334" transform="translate(-5.5, 230.6902597766058) translate(5.0,34.0)"/>
<path aria-label="kind: Panasonic; Hours lasted: 1.9" role="graphics-symbol" aria-roledescription="bar" d="M242.90540540540542,136.66666666666666h24.324324324324323v63.33333333333334h-24.324324324324323Z" fill="#3c3c3c" opacity="1" stroke-miterlimit="10" class="mark-rect role-mark layer_0_marks" version="1.1" width="815" height="334" viewBox="0 0 815 334" transform="translate(-5.5, 230.6902597766058) translate(5.0,34.0)"/>
<text aria-label="kind: DURACELL; Hours lasted: 5.9" role="graphics-symbol" aria-roledescription="text mark" text-anchor="middle" transform="translate(-5.5, 230.6902597766058) translate(5.0,34.0) translate(86.14864864864865,-4.6666666666666785)" font-family="sans-serif" font-size="12px" font-weight="500" fill="#3c3c3c" stroke-miterlimit="10" class="mark-text role-mark layer_1_marks" version="1.1" width="815" height="334" viewBox="0 0 815 334">5.9
</text>
<text aria-label="kind: KIRKLAND; Hours lasted: 5.8" role="graphics-symbol" aria-roledescription="text mark" text-anchor="middle" transform="translate(-5.5, 230.6902597766058) translate(5.0,34.0) translate(221.2837837837838,-1.3333333333333348)" font-family="sans-serif" font-size="12px" font-weight="500" fill="#3c3c3c" stroke-miterlimit="10" class="mark-text role-mark layer_1_marks" version="1.1" width="815" height="334" viewBox="0 0 815 334">5.8
</text>
<text aria-label="kind: HOME; Hours lasted: 5.4" role="graphics-symbol" aria-roledescription="text mark" text-anchor="middle" transform="translate(-5.5, 230.6902597766058) translate(5.0,34.0) translate(187.5,11.999999999999996)" font-family="sans-serif" font-size="12px" font-weight="500" fill="#3c3c3c" stroke-miterlimit="10" class="mark-text role-mark layer_1_marks" version="1.1" width="815" height="334" viewBox="0 0 815 334">5.4
</text>
<text aria-label="kind: Energizer; Hours lasted: 5.2" role="graphics-symbol" aria-roledescription="text mark" text-anchor="middle" transform="translate(-5.5, 230.6902597766058) translate(5.0,34.0) translate(153.71621621621622,18.66666666666666)" font-family="sans-serif" font-size="12px" font-weight="500" fill="#3c3c3c" stroke-miterlimit="10" class="mark-text role-mark layer_1_marks" version="1.1" width="815" height="334" viewBox="0 0 815 334">5.2
</text>
<text aria-label="kind: ALKALINE; Hours lasted: 5.18" role="graphics-symbol" aria-roledescription="text mark" text-anchor="middle" transform="translate(-5.5, 230.6902597766058) translate(5.0,34.0) translate(18.581081081081088,19.333333333333343)" font-family="sans-serif" font-size="12px" font-weight="500" fill="#3c3c3c" stroke-miterlimit="10" class="mark-text role-mark layer_1_marks" version="1.1" width="815" height="334" viewBox="0 0 815 334">5.18
</text>
<text aria-label="kind: Alkaline; Hours lasted: 4.6" role="graphics-symbol" aria-roledescription="text mark" text-anchor="middle" transform="translate(-5.5, 230.6902597766058) translate(5.0,34.0) translate(52.36486486486487,38.66666666666668)" font-family="sans-serif" font-size="12px" font-weight="500" fill="#3c3c3c" stroke-miterlimit="10" class="mark-text role-mark layer_1_marks" version="1.1" width="815" height="334" viewBox="0 0 815 334">4.6
</text>
<text aria-label="kind: Sunbeam; Hours lasted: 4.5" role="graphics-symbol" aria-roledescription="text mark" text-anchor="middle" transform="translate(-5.5, 230.6902597766058) translate(5.0,34.0) translate(356.4189189189189,42)" font-family="sans-serif" font-size="12px" font-weight="500" fill="#3c3c3c" stroke-miterlimit="10" class="mark-text role-mark layer_1_marks" version="1.1" width="815" height="334" viewBox="0 0 815 334">4.5
</text>
<text aria-label="kind: EVEREALY DLOD; Hours lasted: 3.6" role="graphics-symbol" aria-roledescription="text mark" text-anchor="middle" transform="translate(-5.5, 230.6902597766058) translate(5.0,34.0) translate(119.93243243243245,72)" font-family="sans-serif" font-size="12px" font-weight="500" fill="#3c3c3c" stroke-miterlimit="10" class="mark-text role-mark layer_1_marks" version="1.1" width="815" height="334" viewBox="0 0 815 334">3.6
</text>
<text aria-label="kind: Panasonic AA; Hours lasted: 2.7" role="graphics-symbol" aria-roledescription="text mark" text-anchor="middle" transform="translate(-5.5, 230.6902597766058) translate(5.0,34.0) translate(288.85135135135135,102.00000000000001)" font-family="sans-serif" font-size="12px" font-weight="500" fill="#3c3c3c" stroke-miterlimit="10" class="mark-text role-mark layer_1_marks" version="1.1" width="815" height="334" viewBox="0 0 815 334">2.7
</text>
<text aria-label="kind: RAYOVAC; Hours lasted: 2.2" role="graphics-symbol" aria-roledescription="text mark" text-anchor="middle" transform="translate(-5.5, 230.6902597766058) translate(5.0,34.0) translate(322.63513513513516,118.66666666666666)" font-family="sans-serif" font-size="12px" font-weight="500" fill="#3c3c3c" stroke-miterlimit="10" class="mark-text role-mark layer_1_marks" version="1.1" width="815" height="334" viewBox="0 0 815 334">2.2
</text>
<text aria-label="kind: Panasonic; Hours lasted: 1.9" role="graphics-symbol" aria-roledescription="text mark" text-anchor="middle" transform="translate(-5.5, 230.6902597766058) translate(5.0,34.0) translate(255.06756756756758,128.66666666666666)" font-family="sans-serif" font-size="12px" font-weight="500" fill="#3c3c3c" stroke-miterlimit="10" class="mark-text role-mark layer_1_marks" version="1.1" width="815" height="334" viewBox="0 0 815 334">1.9
</text></g></svg>