<svg version="1.1" class="marks" width="508.767578125" height="404.80834215318043" viewBox="0 0 608.767578125 504.80834215318043" xmlns="http://www.w3.org/2000/svg" xmlns:xlink="http://www.w3.org/1999/xlink"><rect width="100%" height="100%" fill="#ffffff"/>
<g transform="translate(50.0, 84.53984852571017)"><text class="chart-title-line" x="0" y="0" text-anchor="start" font-family="sans-serif" font-size="24" font-weight="700" fill="#0f2740" letter-spacing="0" transform="scale(1.5611230972072396)">Unit Sales Show Significant
</text>
<text class="chart-title-line" x="0" y="0" text-anchor="start" font-family="sans-serif" font-size="24" font-weight="700" fill="#0f2740" letter-spacing="0" transform="scale(1.5611230972072396) translate(0.0, 27.1640625)">Yearly Variability
</text>
<text class="chart-subtitle-line" x="0" y="0" text-anchor="start" font-family="sans-serif" font-size="13" font-weight="400" fill="#445f7c" letter-spacing="0.25" transform="scale(1.5611230972072396) translate(0.0, 54.1875)">"Analyzing sales performance across five years"
</text>
<line transform="translate(-5.478515625, 99.07318112747026) translate(35.0,34.0) translate(0.5,200.5) translate(20,-200)" x2="0" y2="200" stroke="#ddd" stroke-width="1" opacity="1" class="mark-rule role-axis-grid" pointer-events="none" aria-hidden="true" fill="none" stroke-miterlimit="10" role="graphics-object" aria-roledescription="group mark container" version="1.1" width="520" height="276" viewBox="0 0 520 276"/>
<line transform="translate(-5.478515625, 99.07318112747026) translate(35.0,34.0) translate(0.5,200.5) translate(57,-200)" x2="0" y2="200" stroke="#ddd" stroke-width="1" opacity="1" class="mark-rule role-axis-grid" pointer-events="none" aria-hidden="true" fill="none" stroke-miterlimit="10" role="graphics-object" aria-roledescription="group mark container" version="1.1" width="520" height="276" viewBox="0 0 520 276"/>
<line transform="translate(-5.478515625, 99.07318112747026) translate(35.0,34.0) translate(0.5,200.5) translate(94,-200)" x2="0" y2="200" stroke="#ddd" stroke-width="1" opacity="1" class="mark-rule role-axis-grid" pointer-events="none" aria-hidden="true" fill="none" stroke-miterlimit="10" role="graphics-object" aria-roledescription="group mark container" version="1.1" width="520" height="276" viewBox="0 0 520 276"/>
<line transform="translate(-5.478515625, 99.07318112747026) translate(35.0,34.0) translate(0.5,200.5) translate(131,-200)" x2="0" y2="200" stroke="#ddd" stroke-width="1" opacity="1" class="mark-rule role-axis-grid" pointer-events="none" aria-hidden="true" fill="none" stroke-miterlimit="10" role="graphics-object" aria-roledescription="group mark container" version="1.1" width="520" height="276" viewBox="0 0 520 276"/>
<line transform="translate(-5.478515625, 99.07318112747026) translate(35.0,34.0) translate(0.5,200.5) translate(168,-200)" x2="0" y2="200" stroke="#ddd" stroke-width="1" opacity="1" class="mark-rule role-axis-grid" pointer-events="none" aria-hidden="true" fill="none" stroke-miterlimit="10" role="graphics-object" aria-roledescription="group mark container" version="1.1" width="520" height="276" viewBox="0 0 520 276"/>
<line transform="translate(-5.478515625, 99.07318112747026) translate(35.0,34.0) translate(0.5,200.5) translate(206,-200)" x2="0" y2="200" stroke="#ddd" stroke-width="1" opacity="1" class="mark-rule role-axis-grid" pointer-events="none" aria-hidden="true" fill="none" stroke-miterlimit="10" role="graphics-object" aria-roledescription="group mark container" version="1.1" width="520" height="276" viewBox="0 0 520 276"/>
<line transform="translate(-5.478515625, 99.07318112747026) translate(35.0,34.0) translate(0.5,200.5) translate(243,-200)" x2="0" y2="200" stroke="#ddd" stroke-width="1" opacity="1" class="mark-rule role-axis-grid" pointer-events="none" aria-hidden="true" fill="none" stroke-miterlimit="10" role="graphics-object" aria-roledescription="group mark container" version="1.1" width="520" height="276" viewBox="0 0 520 276"/>
<line transform="translate(-5.478515625, 99.07318112747026) translate(35.0,34.0) translate(0.5,200.5) translate(280,-200)" x2="0" y2="200" stroke="#ddd" stroke-width="1" opacity="1" class="mark-rule role-axis-grid" pointer-events="none" aria-hidden="true" fill="none" stroke-miterlimit="10" role="graphics-object" aria-roledescription="group mark container" version="1.1" width="520" height="276" viewBox="0 0 520 276"/>
<line transform="translate(-5.478515625, 99.07318112747026) translate(35.0,34.0) translate(0.5,200.5) translate(317,-200)" x2="0" y2="200" stroke="#ddd" stroke-width="1" opacity="1" class="mark-rule role-axis-grid" pointer-events="none" aria-hidden="true" fill="none" stroke-miterlimit="10" role="graphics-object" aria-roledescription="group mark container" version="1.1" width="520" height="276" viewBox="0 0 520 276"/>
<line transform="translate(-5.478515625, 99.07318112747026) translate(35.0,34.0) translate(0.5,200.5) translate(354,-200)" x2="0" y2="200" stroke="#ddd" stroke-width="1" opacity="1" class="mark-rule role-axis-grid" pointer-events="none" aria-hidden="true" fill="none" stroke-miterlimit="10" role="graphics-object" aria-roledescription="group mark container" version="1.1" width="520" height="276" viewBox="0 0 520 276"/>
<line transform="translate(-5.478515625, 99.07318112747026) translate(35.0,34.0) translate(0.5,0.5) translate(0,200)" x2="375" y2="0" stroke="#ddd" stroke-width="1" opacity="1" class="mark-rule role-axis-grid" pointer-events="none" aria-hidden="true" fill="none" stroke-miterlimit="10" role="graphics-object" aria-roledescription="group mark container" version="1.1" width="520" height="276" viewBox="0 0 520 276"/>
<line transform="translate(-5.478515625, 99.07318112747026) translate(35.0,34.0) translate(0.5,0.5) translate(0,164)" x2="375" y2="0" stroke="#ddd" stroke-width="1" opacity="1" class="mark-rule role-axis-grid" pointer-events="none" aria-hidden="true" fill="none" stroke-miterlimit="10" role="graphics-object" aria-roledescription="group mark container" version="1.1" width="520" height="276" viewBox="0 0 520 276"/>
<line transform="translate(-5.478515625, 99.07318112747026) translate(35.0,34.0) translate(0.5,0.5) translate(0,127)" x2="375" y2="0" stroke="#ddd" stroke-width="1" opacity="1" class="mark-rule role-axis-grid" pointer-events="none" aria-hidden="true" fill="none" stroke-miterlimit="10" role="graphics-object" aria-roledescription="group mark container" version="1.1" width="520" height="276" viewBox="0 0 520 276"/>
<line transform="translate(-5.478515625, 99.07318112747026) translate(35.0,34.0) translate(0.5,0.5) translate(0,91)" x2="375" y2="0" stroke="#ddd" stroke-width="1" opacity="1" class="mark-rule role-axis-grid" pointer-events="none" aria-hidden="true" fill="none" stroke-miterlimit="10" role="graphics-object" aria-roledescription="group mark container" version="1.1" width="520" height="276" viewBox="0 0 520 276"/>
<line transform="translate(-5.478515625, 99.07318112747026) translate(35.0,34.0) translate(0.5,0.5) translate(0,55)" x2="375" y2="0" stroke="#ddd" stroke-width="1" opacity="1" class="mark-rule role-axis-grid" pointer-events="none" aria-hidden="true" fill="none" stroke-miterlimit="10" role="graphics-object" aria-roledescription="group mark container" version="1.1" width="520" height="276" viewBox="0 0 520 276"/>
<line transform="translate(-5.478515625, 99.07318112747026) translate(35.0,34.0) translate(0.5,0.5) translate(0,18)" x2="375" y2="0" stroke="#ddd" stroke-width="1" opacity="1" class="mark-rule role-axis-grid" pointer-events="none" aria-hidden="true" fill="none" stroke-miterlimit="10" role="graphics-object" aria-roledescription="group mark container" version="1.1" width="520" height="276" viewBox="0 0 520 276"/>
<path transform="translate(-5.478515625, 99.07318112747026) translate(35.0,34.0) translate(0,-29) translate(0,0) translate(0,0) translate(6,6)" d="M-5,-5h10v10h-10Z" fill="#ff8a97" stroke-width="1.5" opacity="1" class="mark-symbol role-legend-symbol" pointer-events="none" role="graphics-object" aria-roledescription="group mark container" aria-label="Symbol legend for fill color with 10 values: 2005, 2006, 2007, 2008, 2009, ending with 2014" stroke-miterlimit="10" version="1.1" width="520" height="276" viewBox="0 0 520 276"/>
<text text-anchor="start" transform="translate(-5.478515625, 99.07318112747026) translate(35.0,34.0) translate(0,-29) translate(0,0) translate(0,0) translate(16,9)" font-family="sans-serif" font-size="10px" fill="#000" opacity="1" class="mark-text role-legend-label" pointer-events="none" role="graphics-object" aria-roledescription="group mark container" aria-label="Symbol legend for fill color with 10 values: 2005, 2006, 2007, 2008, 2009, ending with 2014" stroke-miterlimit="10" version="1.1" width="520" height="276" viewBox="0 0 520 276">2005
</text>
<path transform="translate(-5.478515625, 99.07318112747026) translate(35.0,34.0) translate(0,-29) translate(0,0) translate(49,0) translate(6,6)" d="M-5,-5h10v10h-10Z" fill="#ff8a97" stroke-width="1.5" opacity="1" class="mark-symbol role-legend-symbol" pointer-events="none" role="graphics-object" aria-roledescription="group mark container" aria-label="Symbol legend for fill color with 10 values: 2005, 2006, 2007, 2008, 2009, ending with 2014" stroke-miterlimit="10" version="1.1" width="520" height="276" viewBox="0 0 520 276"/>
<text text-anchor="start" transform="translate(-5.478515625, 99.07318112747026) translate(35.0,34.0) translate(0,-29) translate(0,0) translate(49,0) translate(16,9)" font-family="sans-serif" font-size="10px" fill="#000" opacity="1" class="mark-text role-legend-label" pointer-events="none" role="graphics-object" aria-roledescription="group mark container" aria-label="Symbol legend for fill color with 10 values: 2005, 2006, 2007, 2008, 2009, ending with 2014" stroke-miterlimit="10" version="1.1" width="520" height="276" viewBox="0 0 520 276">2006
</text>
<path transform="translate(-5.478515625, 99.07318112747026) translate(35.0,34.0) translate(0,-29) translate(0,0) translate(98,0) translate(6,6)" d="M-5,-5h10v10h-10Z" fill="#ff8a97" stroke-width="1.5" opacity="1" class="mark-symbol role-legend-symbol" pointer-events="none" role="graphics-object" aria-roledescription="group mark container" aria-label="Symbol legend for fill color with 10 values: 2005, 2006, 2007, 2008, 2009, ending with 2014" stroke-miterlimit="10" version="1.1" width="520" height="276" viewBox="0 0 520 276"/>
<text text-anchor="start" transform="translate(-5.478515625, 99.07318112747026) translate(35.0,34.0) translate(0,-29) translate(0,0) translate(98,0) translate(16,9)" font-family="sans-serif" font-size="10px" fill="#000" opacity="1" class="mark-text role-legend-label" pointer-events="none" role="graphics-object" aria-roledescription="group mark container" aria-label="Symbol legend for fill color with 10 values: 2005, 2006, 2007, 2008, 2009, ending with 2014" stroke-miterlimit="10" version="1.1" width="520" height="276" viewBox="0 0 520 276">2007
</text>
<path transform="translate(-5.478515625, 99.07318112747026) translate(35.0,34.0) translate(0,-29) translate(0,0) translate(147,0) translate(6,6)" d="M-5,-5h10v10h-10Z" fill="#ff8a97" stroke-width="1.5" opacity="1" class="mark-symbol role-legend-symbol" pointer-events="none" role="graphics-object" aria-roledescription="group mark container" aria-label="Symbol legend for fill color with 10 values: 2005, 2006, 2007, 2008, 2009, ending with 2014" stroke-miterlimit="10" version="1.1" width="520" height="276" viewBox="0 0 520 276"/>
<text text-anchor="start" transform="translate(-5.478515625, 99.07318112747026) translate(35.0,34.0) translate(0,-29) translate(0,0) translate(147,0) translate(16,9)" font-family="sans-serif" font-size="10px" fill="#000" opacity="1" class="mark-text role-legend-label" pointer-events="none" role="graphics-object" aria-roledescription="group mark container" aria-label="Symbol legend for fill color with 10 values: 2005, 2006, 2007, 2008, 2009, ending with 2014" stroke-miterlimit="10" version="1.1" width="520" height="276" viewBox="0 0 520 276">2008
</text>
<path transform="translate(-5.478515625, 99.07318112747026) translate(35.0,34.0) translate(0,-29) translate(0,0) translate(196,0) translate(6,6)" d="M-5,-5h10v10h-10Z" fill="#ff8a97" stroke-width="1.5" opacity="1" class="mark-symbol role-legend-symbol" pointer-events="none" role="graphics-object" aria-roledescription="group mark container" aria-label="Symbol legend for fill color with 10 values: 2005, 2006, 2007, 2008, 2009, ending with 2014" stroke-miterlimit="10" version="1.1" width="520" height="276" viewBox="0 0 520 276"/>
<text text-anchor="start" transform="translate(-5.478515625, 99.07318112747026) translate(35.0,34.0) translate(0,-29) translate(0,0) translate(196,0) translate(16,9)" font-family="sans-serif" font-size="10px" fill="#000" opacity="1" class="mark-text role-legend-label" pointer-events="none" role="graphics-object" aria-roledescription="group mark container" aria-label="Symbol legend for fill color with 10 values: 2005, 2006, 2007, 2008, 2009, ending with 2014" stroke-miterlimit="10" version="1.1" width="520" height="276" viewBox="0 0 520 276">2009
</text>
<path transform="translate(-5.478515625, 99.07318112747026) translate(35.0,34.0) translate(0,-29) translate(0,0) translate(245,0) translate(6,6)" d="M-5,-5h10v10h-10Z" fill="#ff8a97" stroke-width="1.5" opacity="1" class="mark-symbol role-legend-symbol" pointer-events="none" role="graphics-object" aria-roledescription="group mark container" aria-label="Symbol legend for fill color with 10 values: 2005, 2006, 2007, 2008, 2009, ending with 2014" stroke-miterlimit="10" version="1.1" width="520" height="276" viewBox="0 0 520 276"/>
<text text-anchor="start" transform="translate(-5.478515625, 99.07318112747026) translate(35.0,34.0) translate(0,-29) translate(0,0) translate(245,0) translate(16,9)" font-family="sans-serif" font-size="10px" fill="#000" opacity="1" class="mark-text role-legend-label" pointer-events="none" role="graphics-object" aria-roledescription="group mark container" aria-label="Symbol legend for fill color with 10 values: 2005, 2006, 2007, 2008, 2009, ending with 2014" stroke-miterlimit="10" version="1.1" width="520" height="276" viewBox="0 0 520 276">2010
</text>
<path transform="translate(-5.478515625, 99.07318112747026) translate(35.0,34.0) translate(0,-29) translate(0,0) translate(294,0) translate(6,6)" d="M-5,-5h10v10h-10Z" fill="#ff8a97" stroke-width="1.5" opacity="1" class="mark-symbol role-legend-symbol" pointer-events="none" role="graphics-object" aria-roledescription="group mark container" aria-label="Symbol legend for fill color with 10 values: 2005, 2006, 2007, 2008, 2009, ending with 2014" stroke-miterlimit="10" version="1.1" width="520" height="276" viewBox="0 0 520 276"/>
<text text-anchor="start" transform="translate(-5.478515625, 99.07318112747026) translate(35.0,34.0) translate(0,-29) translate(0,0) translate(294,0) translate(16,9)" font-family="sans-serif" font-size="10px" fill="#000" opacity="1" class="mark-text role-legend-label" pointer-events="none" role="graphics-object" aria-roledescription="group mark container" aria-label="Symbol legend for fill color with 10 values: 2005, 2006, 2007, 2008, 2009, ending with 2014" stroke-miterlimit="10" version="1.1" width="520" height="276" viewBox="0 0 520 276">2011
</text>
<path transform="translate(-5.478515625, 99.07318112747026) translate(35.0,34.0) translate(0,-29) translate(0,0) translate(343,0) translate(6,6)" d="M-5,-5h10v10h-10Z" fill="#ff8a97" stroke-width="1.5" opacity="1" class="mark-symbol role-legend-symbol" pointer-events="none" role="graphics-object" aria-roledescription="group mark container" aria-label="Symbol legend for fill color with 10 values: 2005, 2006, 2007, 2008, 2009, ending with 2014" stroke-miterlimit="10" version="1.1" width="520" height="276" viewBox="0 0 520 276"/>
<text text-anchor="start" transform="translate(-5.478515625, 99.07318112747026) translate(35.0,34.0) translate(0,-29) translate(0,0) translate(343,0) translate(16,9)" font-family="sans-serif" font-size="10px" fill="#000" opacity="1" class="mark-text role-legend-label" pointer-events="none" role="graphics-object" aria-roledescription="group mark container" aria-label="Symbol legend for fill color with 10 values: 2005, 2006, 2007, 2008, 2009, ending with 2014" stroke-miterlimit="10" version="1.1" width="520" height="276" viewBox="0 0 520 276">2012
</text>
<path transform="translate(-5.478515625, 99.07318112747026) translate(35.0,34.0) translate(0,-29) translate(0,0) translate(392,0) translate(6,6)" d="M-5,-5h10v10h-10Z" fill="#ff8a97" stroke-width="1.5" opacity="1" class="mark-symbol role-legend-symbol" pointer-events="none" role="graphics-object" aria-roledescription="group mark container" aria-label="Symbol legend for fill color with 10 values: 2005, 2006, 2007, 2008, 2009, ending with 2014" stroke-miterlimit="10" version="1.1" width="520" height="276" viewBox="0 0 520 276"/>
<text text-anchor="start" transform="translate(-5.478515625, 99.07318112747026) translate(35.0,34.0) translate(0,-29) translate(0,0) translate(392,0) translate(16,9)" font-family="sans-serif" font-size="10px" fill="#000" opacity="1" class="mark-text role-legend-label" pointer-events="none" role="graphics-object" aria-roledescription="group mark container" aria-label="Symbol legend for fill color with 10 values: 2005, 2006, 2007, 2008, 2009, ending with 2014" stroke-miterlimit="10" version="1.1" width="520" height="276" viewBox="0 0 520 276">2013
</text>
<path transform="translate(-5.478515625, 99.07318112747026) translate(35.0,34.0) translate(0,-29) translate(0,0) translate(441,0) translate(6,6)" d="M-5,-5h10v10h-10Z" fill="#ff8a97" stroke-width="1.5" opacity="1" class="mark-symbol role-legend-symbol" pointer-events="none" role="graphics-object" aria-roledescription="group mark container" aria-label="Symbol legend for fill color with 10 values: 2005, 2006, 2007, 2008, 2009, ending with 2014" stroke-miterlimit="10" version="1.1" width="520" height="276" viewBox="0 0 520 276"/>
<text text-anchor="start" transform="translate(-5.478515625, 99.07318112747026) translate(35.0,34.0) translate(0,-29) translate(0,0) translate(441,0) translate(16,9)" font-family="sans-serif" font-size="10px" fill="#000" opacity="1" class="mark-text role-legend-label" pointer-events="none" role="graphics-object" aria-roledescription="group mark container" aria-label="Symbol legend for fill color with 10 values: 2005, 2006, 2007, 2008, 2009, ending with 2014" stroke-miterlimit="10" version="1.1" width="520" height="276" viewBox="0 0 520 276">2014
</text>
<line transform="translate(-5.478515625, 99.07318112747026) translate(35.0,34.0) translate(0.5,200.5) translate(20,0)" x2="0" y2="5" stroke="#0f223b" stroke-width="1" opacity="1" fill="none" stroke-miterlimit="10" class="mark-rule role-axis-tick" role="graphics-symbol" aria-roledescription="axis" version="1.1" width="520" height="276" viewBox="0 0 520 276" aria-label="X-axis for a discrete scale with 10 values: 2005, 2006, 2007, 2008, 2009, ending with 2014" pointer-events="none"/>
<line transform="translate(-5.478515625, 99.07318112747026) translate(35.0,34.0) translate(0.5,200.5) translate(57,0)" x2="0" y2="5" stroke="#0f223b" stroke-width="1" opacity="1" fill="none" stroke-miterlimit="10" class="mark-rule role-axis-tick" role="graphics-symbol" aria-roledescription="axis" version="1.1" width="520" height="276" viewBox="0 0 520 276" aria-label="X-axis for a discrete scale with 10 values: 2005, 2006, 2007, 2008, 2009, ending with 2014" pointer-events="none"/>
<line transform="translate(-5.478515625, 99.07318112747026) translate(35.0,34.0) translate(0.5,200.5) translate(94,0)" x2="0" y2="5" stroke="#0f223b" stroke-width="1" opacity="1" fill="none" stroke-miterlimit="10" class="mark-rule role-axis-tick" role="graphics-symbol" aria-roledescription="axis" version="1.1" width="520" height="276" viewBox="0 0 520 276" aria-label="X-axis for a discrete scale with 10 values: 2005, 2006, 2007, 2008, 2009, ending with 2014" pointer-events="none"/>
<line transform="translate(-5.478515625, 99.07318112747026) translate(35.0,34.0) translate(0.5,200.5) translate(131,0)" x2="0" y2="5" stroke="#0f223b" stroke-width="1" opacity="1" fill="none" stroke-miterlimit="10" class="mark-rule role-axis-tick" role="graphics-symbol" aria-roledescription="axis" version="1.1" width="520" height="276" viewBox="0 0 520 276" aria-label="X-axis for a discrete scale with 10 values: 2005, 2006, 2007, 2008, 2009, ending with 2014" pointer-events="none"/>
<line transform="translate(-5.478515625, 99.07318112747026) translate(35.0,34.0) translate(0.5,200.5) translate(168,0)" x2="0" y2="5" stroke="#0f223b" stroke-width="1" opacity="1" fill="none" stroke-miterlimit="10" class="mark-rule role-axis-tick" role="graphics-symbol" aria-roledescription="axis" version="1.1" width="520" height="276" viewBox="0 0 520 276" aria-label="X-axis for a discrete scale with 10 values: 2005, 2006, 2007, 2008, 2009, ending with 2014" pointer-events="none"/>
<line transform="translate(-5.478515625, 99.07318112747026) translate(35.0,34.0) translate(0.5,200.5) translate(206,0)" x2="0" y2="5" stroke="#0f223b" stroke-width="1" opacity="1" fill="none" stroke-miterlimit="10" class="mark-rule role-axis-tick" role="graphics-symbol" aria-roledescription="axis" version="1.1" width="520" height="276" viewBox="0 0 520 276" aria-label="X-axis for a discrete scale with 10 values: 2005, 2006, 2007, 2008, 2009, ending with 2014" pointer-events="none"/>
<line transform="translate(-5.478515625, 99.07318112747026) translate(35.0,34.0) translate(0.5,200.5) translate(243,0)" x2="0" y2="5" stroke="#0f223b" stroke-width="1" opacity="1" fill="none" stroke-miterlimit="10" class="mark-rule role-axis-tick" role="graphics-symbol" aria-roledescription="axis" version="1.1" width="520" height="276" viewBox="0 0 520 276" aria-label="X-axis for a discrete scale with 10 values: 2005, 2006, 2007, 2008, 2009, ending with 2014" pointer-events="none"/>
<line transform="translate(-5.478515625, 99.07318112747026) translate(35.0,34.0) translate(0.5,200.5) translate(280,0)" x2="0" y2="5" stroke="#0f223b" stroke-width="1" opacity="1" fill="none" stroke-miterlimit="10" class="mark-rule role-axis-tick" role="graphics-symbol" aria-roledescription="axis" version="1.1" width="520" height="276" viewBox="0 0 520 276" aria-label="X-axis for a discrete scale with 10 values: 2005, 2006, 2007, 2008, 2009, ending with 2014" pointer-events="none"/>
<line transform="translate(-5.478515625, 99.07318112747026) translate(35.0,34.0) translate(0.5,200.5) translate(317,0)" x2="0" y2="5" stroke="#0f223b" stroke-width="1" opacity="1" fill="none" stroke-miterlimit="10" class="mark-rule role-axis-tick" role="graphics-symbol" aria-roledescription="axis" version="1.1" width="520" height="276" viewBox="0 0 520 276" aria-label="X-axis for a discrete scale with 10 values: 2005, 2006, 2007, 2008, 2009, ending with 2014" pointer-events="none"/>
<line transform="translate(-5.478515625, 99.07318112747026) translate(35.0,34.0) translate(0.5,200.5) translate(354,0)" x2="0" y2="5" stroke="#0f223b" stroke-width="1" opacity="1" fill="none" stroke-miterlimit="10" class="mark-rule role-axis-tick" role="graphics-symbol" aria-roledescription="axis" version="1.1" width="520" height="276" viewBox="0 0 520 276" aria-label="X-axis for a discrete scale with 10 values: 2005, 2006, 2007, 2008, 2009, ending with 2014" pointer-events="none"/>
<text text-anchor="end" transform="translate(-5.478515625, 99.07318112747026) translate(35.0,34.0) translate(0.5,200.5) translate(19.920792079207914,10) rotate(270) translate(0,4)" font-family="sans-serif" font-size="12px" fill="#000d2a" opacity="1" stroke-miterlimit="10" class="mark-text role-axis-label" role="graphics-symbol" aria-roledescription="axis" version="1.1" width="520" height="276" viewBox="0 0 520 276" aria-label="X-axis for a discrete scale with 10 values: 2005, 2006, 2007, 2008, 2009, ending with 2014" pointer-events="none" x="0.0" y="0.0">2005
</text>
<text text-anchor="end" transform="translate(-5.478515625, 99.07318112747026) translate(35.0,34.0) translate(0.5,200.5) translate(57.04950495049504,10) rotate(270) translate(0,4)" font-family="sans-serif" font-size="12px" fill="#000d2a" opacity="1" stroke-miterlimit="10" class="mark-text role-axis-label" role="graphics-symbol" aria-roledescription="axis" version="1.1" width="520" height="276" viewBox="0 0 520 276" aria-label="X-axis for a discrete scale with 10 values: 2005, 2006, 2007, 2008, 2009, ending with 2014" pointer-events="none" x="0.0" y="0.0">2006
</text>
<text text-anchor="end" transform="translate(-5.478515625, 99.07318112747026) translate(35.0,34.0) translate(0.5,200.5) translate(94.17821782178217,10) rotate(270) translate(0,4)" font-family="sans-serif" font-size="12px" fill="#000d2a" opacity="1" stroke-miterlimit="10" class="mark-text role-axis-label" role="graphics-symbol" aria-roledescription="axis" version="1.1" width="520" height="276" viewBox="0 0 520 276" aria-label="X-axis for a discrete scale with 10 values: 2005, 2006, 2007, 2008, 2009, ending with 2014" pointer-events="none" x="0.0" y="0.0">2007
</text>
<text text-anchor="end" transform="translate(-5.478515625, 99.07318112747026) translate(35.0,34.0) translate(0.5,200.5) translate(131.30693069306932,10) rotate(270) translate(0,4)" font-family="sans-serif" font-size="12px" fill="#000d2a" opacity="1" stroke-miterlimit="10" class="mark-text role-axis-label" role="graphics-symbol" aria-roledescription="axis" version="1.1" width="520" height="276" viewBox="0 0 520 276" aria-label="X-axis for a discrete scale with 10 values: 2005, 2006, 2007, 2008, 2009, ending with 2014" pointer-events="none" x="0.0" y="0.0">2008
</text>
<text text-anchor="end" transform="translate(-5.478515625, 99.07318112747026) translate(35.0,34.0) translate(0.5,200.5) translate(168.43564356435644,10) rotate(270) translate(0,4)" font-family="sans-serif" font-size="12px" fill="#000d2a" opacity="1" stroke-miterlimit="10" class="mark-text role-axis-label" role="graphics-symbol" aria-roledescription="axis" version="1.1" width="520" height="276" viewBox="0 0 520 276" aria-label="X-axis for a discrete scale with 10 values: 2005, 2006, 2007, 2008, 2009, ending with 2014" pointer-events="none" x="0.0" y="0.0">2009
</text>
<text text-anchor="end" transform="translate(-5.478515625, 99.07318112747026) translate(35.0,34.0) translate(0.5,200.5) translate(205.56435643564356,10) rotate(270) translate(0,4)" font-family="sans-serif" font-size="12px" fill="#000d2a" opacity="1" stroke-miterlimit="10" class="mark-text role-axis-label" role="graphics-symbol" aria-roledescription="axis" version="1.1" width="520" height="276" viewBox="0 0 520 276" aria-label="X-axis for a discrete scale with 10 values: 2005, 2006, 2007, 2008, 2009, ending with 2014" pointer-events="none" x="0.0" y="0.0">2010
</text>
<text text-anchor="end" transform="translate(-5.478515625, 99.07318112747026) translate(35.0,34.0) translate(0.5,200.5) translate(242.69306930693068,10) rotate(270) translate(0,4)" font-family="sans-serif" font-size="12px" fill="#000d2a" opacity="1" stroke-miterlimit="10" class="mark-text role-axis-label" role="graphics-symbol" aria-roledescription="axis" version="1.1" width="520" height="276" viewBox="0 0 520 276" aria-label="X-axis for a discrete scale with 10 values: 2005, 2006, 2007, 2008, 2009, ending with 2014" pointer-events="none" x="0.0" y="0.0">2011
</text>
<text text-anchor="end" transform="translate(-5.478515625, 99.07318112747026) translate(35.0,34.0) translate(0.5,200.5) translate(279.82178217821786,10) rotate(270) translate(0,4)" font-family="sans-serif" font-size="12px" fill="#000d2a" opacity="1" stroke-miterlimit="10" class="mark-text role-axis-label" role="graphics-symbol" aria-roledescription="axis" version="1.1" width="520" height="276" viewBox="0 0 520 276" aria-label="X-axis for a discrete scale with 10 values: 2005, 2006, 2007, 2008, 2009, ending with 2014" pointer-events="none" x="0.0" y="0.0">2012
</text>
<text text-anchor="end" transform="translate(-5.478515625, 99.07318112747026) translate(35.0,34.0) translate(0.5,200.5) translate(316.950495049505,10) rotate(270) translate(0,4)" font-family="sans-serif" font-size="12px" fill="#000d2a" opacity="1" stroke-miterlimit="10" class="mark-text role-axis-label" role="graphics-symbol" aria-roledescription="axis" version="1.1" width="520" height="276" viewBox="0 0 520 276" aria-label="X-axis for a discrete scale with 10 values: 2005, 2006, 2007, 2008, 2009, ending with 2014" pointer-events="none" x="0.0" y="0.0">2013
</text>
<text text-anchor="end" transform="translate(-5.478515625, 99.07318112747026) translate(35.0,34.0) translate(0.5,200.5) translate(354.0792079207921,10) rotate(270) translate(0,4)" font-family="sans-serif" font-size="12px" fill="#000d2a" opacity="1" stroke-miterlimit="10" class="mark-text role-axis-label" role="graphics-symbol" aria-roledescription="axis" version="1.1" width="520" height="276" viewBox="0 0 520 276" aria-label="X-axis for a discrete scale with 10 values: 2005, 2006, 2007, 2008, 2009, ending with 2014" pointer-events="none" x="0.0" y="0.0">2014
</text>
<line transform="translate(-5.478515625, 99.07318112747026) translate(35.0,34.0) translate(0.5,200.5) translate(0,0)" x2="375" y2="0" stroke="#0f223b" stroke-width="1" opacity="1" fill="none" stroke-miterlimit="10" class="mark-rule role-axis-domain" role="graphics-symbol" aria-roledescription="axis" version="1.1" width="520" height="276" viewBox="0 0 520 276" aria-label="X-axis for a discrete scale with 10 values: 2005, 2006, 2007, 2008, 2009, ending with 2014" pointer-events="none"/>
<line transform="translate(-5.478515625, 99.07318112747026) translate(35.0,34.0) translate(0.5,0.5) translate(0,200)" x2="-5" y2="0" stroke="#0f223b" stroke-width="1" opacity="1" fill="none" stroke-miterlimit="10" class="mark-rule role-axis-tick" role="graphics-symbol" aria-roledescription="axis" version="1.1" width="520" height="276" viewBox="0 0 520 276" aria-label="Y-axis for a linear scale with values from 0 to 550" pointer-events="none"/>
<line transform="translate(-5.478515625, 99.07318112747026) translate(35.0,34.0) translate(0.5,0.5) translate(0,164)" x2="-5" y2="0" stroke="#0f223b" stroke-width="1" opacity="1" fill="none" stroke-miterlimit="10" class="mark-rule role-axis-tick" role="graphics-symbol" aria-roledescription="axis" version="1.1" width="520" height="276" viewBox="0 0 520 276" aria-label="Y-axis for a linear scale with values from 0 to 550" pointer-events="none"/>
<line transform="translate(-5.478515625, 99.07318112747026) translate(35.0,34.0) translate(0.5,0.5) translate(0,127)" x2="-5" y2="0" stroke="#0f223b" stroke-width="1" opacity="1" fill="none" stroke-miterlimit="10" class="mark-rule role-axis-tick" role="graphics-symbol" aria-roledescription="axis" version="1.1" width="520" height="276" viewBox="0 0 520 276" aria-label="Y-axis for a linear scale with values from 0 to 550" pointer-events="none"/>
<line transform="translate(-5.478515625, 99.07318112747026) translate(35.0,34.0) translate(0.5,0.5) translate(0,91)" x2="-5" y2="0" stroke="#0f223b" stroke-width="1" opacity="1" fill="none" stroke-miterlimit="10" class="mark-rule role-axis-tick" role="graphics-symbol" aria-roledescription="axis" version="1.1" width="520" height="276" viewBox="0 0 520 276" aria-label="Y-axis for a linear scale with values from 0 to 550" pointer-events="none"/>
<line transform="translate(-5.478515625, 99.07318112747026) translate(35.0,34.0) translate(0.5,0.5) translate(0,55)" x2="-5" y2="0" stroke="#0f223b" stroke-width="1" opacity="1" fill="none" stroke-miterlimit="10" class="mark-rule role-axis-tick" role="graphics-symbol" aria-roledescription="axis" version="1.1" width="520" height="276" viewBox="0 0 520 276" aria-label="Y-axis for a linear scale with values from 0 to 550" pointer-events="none"/>
<line transform="translate(-5.478515625, 99.07318112747026) translate(35.0,34.0) translate(0.5,0.5) translate(0,18)" x2="-5" y2="0" stroke="#0f223b" stroke-width="1" opacity="1" fill="none" stroke-miterlimit="10" class="mark-rule role-axis-tick" role="graphics-symbol" aria-roledescription="axis" version="1.1" width="520" height="276" viewBox="0 0 520 276" aria-label="Y-axis for a linear scale with values from 0 to 550" pointer-events="none"/>
<text text-anchor="end" transform="translate(-5.478515625, 99.07318112747026) translate(35.0,34.0) translate(0.5,0.5) translate(-10,204)" font-family="sans-serif" font-size="12px" fill="#000d2a" opacity="1" stroke-miterlimit="10" class="mark-text role-axis-label" role="graphics-symbol" aria-roledescription="axis" version="1.1" width="520" height="276" viewBox="0 0 520 276" aria-label="Y-axis for a linear scale with values from 0 to 550" pointer-events="none">0
</text>
<text text-anchor="end" transform="translate(-5.478515625, 99.07318112747026) translate(35.0,34.0) translate(0.5,0.5) translate(-10,167.63636363636363)" font-family="sans-serif" font-size="12px" fill="#000d2a" opacity="1" stroke-miterlimit="10" class="mark-text role-axis-label" role="graphics-symbol" aria-roledescription="axis" version="1.1" width="520" height="276" viewBox="0 0 520 276" aria-label="Y-axis for a linear scale with values from 0 to 550" pointer-events="none">100
</text>
<text text-anchor="end" transform="translate(-5.478515625, 99.07318112747026) translate(35.0,34.0) translate(0.5,0.5) translate(-10,131.27272727272725)" font-family="sans-serif" font-size="12px" fill="#000d2a" opacity="1" stroke-miterlimit="10" class="mark-text role-axis-label" role="graphics-symbol" aria-roledescription="axis" version="1.1" width="520" height="276" viewBox="0 0 520 276" aria-label="Y-axis for a linear scale with values from 0 to 550" pointer-events="none">200
</text>
<text text-anchor="end" transform="translate(-5.478515625, 99.07318112747026) translate(35.0,34.0) translate(0.5,0.5) translate(-10,94.90909090909092)" font-family="sans-serif" font-size="12px" fill="#000d2a" opacity="1" stroke-miterlimit="10" class="mark-text role-axis-label" role="graphics-symbol" aria-roledescription="axis" version="1.1" width="520" height="276" viewBox="0 0 520 276" aria-label="Y-axis for a linear scale with values from 0 to 550" pointer-events="none">300
</text>
<text text-anchor="end" transform="translate(-5.478515625, 99.07318112747026) translate(35.0,34.0) translate(0.5,0.5) translate(-10,58.54545454545454)" font-family="sans-serif" font-size="12px" fill="#000d2a" opacity="1" stroke-miterlimit="10" class="mark-text role-axis-label" role="graphics-symbol" aria-roledescription="axis" version="1.1" width="520" height="276" viewBox="0 0 520 276" aria-label="Y-axis for a linear scale with values from 0 to 550" pointer-events="none">400
</text>
<text text-anchor="end" transform="translate(-5.478515625, 99.07318112747026) translate(35.0,34.0) translate(0.5,0.5) translate(-10,22.181818181818187)" font-family="sans-serif" font-size="12px" fill="#000d2a" opacity="1" stroke-miterlimit="10" class="mark-text role-axis-label" role="graphics-symbol" aria-roledescription="axis" version="1.1" width="520" height="276" viewBox="0 0 520 276" aria-label="Y-axis for a linear scale with values from 0 to 550" pointer-events="none">500
</text>
<line transform="translate(-5.478515625, 99.07318112747026) translate(35.0,34.0) translate(0.5,0.5) translate(0,200)" x2="0" y2="-200" stroke="#0f223b" stroke-width="1" opacity="1" fill="none" stroke-miterlimit="10" class="mark-rule role-axis-domain" role="graphics-symbol" aria-roledescription="axis" version="1.1" width="520" height="276" viewBox="0 0 520 276" aria-label="Y-axis for a linear scale with values from 0 to 550" pointer-events="none"/>
<path aria-label="Year: 2005; Units: 491" role="graphics-symbol" aria-roledescription="bar" d="M7.054455445544547,21.45454545454546h26.73267326732673v178.54545454545453h-26.73267326732673Z" fill="#ff8a97" opacity="1" stroke-miterlimit="10" class="mark-rect role-mark layer_0_marks" version="1.1" width="520" height="276" viewBox="0 0 520 276" transform="translate(-5.478515625, 99.07318112747026) translate(35.0,34.0)"/>
<path aria-label="Year: 2006; Units: 463" role="graphics-symbol" aria-roledescription="bar" d="M44.183168316831676,31.63636363636364h26.73267326732673v168.36363636363637h-26.73267326732673Z" fill="#ff8a97" opacity="1" stroke-miterlimit="10" class="mark-rect role-mark layer_0_marks" version="1.1" width="520" height="276" viewBox="0 0 520 276" transform="translate(-5.478515625, 99.07318112747026) translate(35.0,34.0)"/>
<path aria-label="Year: 2007; Units: 514" role="graphics-symbol" aria-roledescription="bar" d="M81.3118811881188,13.090909090909086h26.73267326732673v186.9090909090909h-26.73267326732673Z" fill="#ff8a97" opacity="1" stroke-miterlimit="10" class="mark-rect role-mark layer_0_marks" version="1.1" width="520" height="276" viewBox="0 0 520 276" transform="translate(-5.478515625, 99.07318112747026) translate(35.0,34.0)"/>
<path aria-label="Year: 2008; Units: 515" role="graphics-symbol" aria-roledescription="bar" d="M118.44059405940594,12.72727272727272h26.73267326732673v187.27272727272728h-26.73267326732673Z" fill="#ff8a97" opacity="1" stroke-miterlimit="10" class="mark-rect role-mark layer_0_marks" version="1.1" width="520" height="276" viewBox="0 0 520 276" transform="translate(-5.478515625, 99.07318112747026) translate(35.0,34.0)"/>
<path aria-label="Year: 2009; Units: 348" role="graphics-symbol" aria-roledescription="bar" d="M155.56930693069305,73.45454545454547h26.73267326732673v126.54545454545453h-26.73267326732673Z" fill="#ff8a97" opacity="1" stroke-miterlimit="10" class="mark-rect role-mark layer_0_marks" version="1.1" width="520" height="276" viewBox="0 0 520 276" transform="translate(-5.478515625, 99.07318112747026) translate(35.0,34.0)"/>
<path aria-label="Year: 2010; Units: 510" role="graphics-symbol" aria-roledescription="bar" d="M192.69801980198017,14.54545454545455h26.73267326732673v185.45454545454544h-26.73267326732673Z" fill="#ff8a97" opacity="1" stroke-miterlimit="10" class="mark-rect role-mark layer_0_marks" version="1.1" width="520" height="276" viewBox="0 0 520 276" transform="translate(-5.478515625, 99.07318112747026) translate(35.0,34.0)"/>
<path aria-label="Year: 2011; Units: 521" role="graphics-symbol" aria-roledescription="bar" d="M229.82673267326732,10.545454545454547h26.73267326732673v189.45454545454544h-26.73267326732673Z" fill="#ff8a97" opacity="1" stroke-miterlimit="10" class="mark-rect role-mark layer_0_marks" version="1.1" width="520" height="276" viewBox="0 0 520 276" transform="translate(-5.478515625, 99.07318112747026) translate(35.0,34.0)"/>
<path aria-label="Year: 2012; Units: 482" role="graphics-symbol" aria-roledescription="bar" d="M266.9554455445545,24.72727272727273h26.73267326732673v175.27272727272728h-26.73267326732673Z" fill="#ff8a97" opacity="1" stroke-miterlimit="10" class="mark-rect role-mark layer_0_marks" version="1.1" width="520" height="276" viewBox="0 0 520 276" transform="translate(-5.478515625, 99.07318112747026) translate(35.0,34.0)"/>
<path aria-label="Year: 2013; Units: 507" role="graphics-symbol" aria-roledescription="bar" d="M304.0841584158416,15.636363636363626h26.73267326732673v184.36363636363637h-26.73267326732673Z" fill="#ff8a97" opacity="1" stroke-miterlimit="10" class="mark-rect role-mark layer_0_marks" version="1.1" width="520" height="276" viewBox="0 0 520 276" transform="translate(-5.478515625, 99.07318112747026) translate(35.0,34.0)"/>
<path aria-label="Year: 2014; Units: 523" role="graphics-symbol" aria-roledescription="bar" d="M341.21287128712873,9.818181818181815h26.73267326732673v190.1818181818182h-26.73267326732673Z" fill="#ff8a97" opacity="1" stroke-miterlimit="10" class="mark-rect role-mark layer_0_marks" version="1.1" width="520" height="276" viewBox="0 0 520 276" transform="translate(-5.478515625, 99.07318112747026) translate(35.0,34.0)"/></g></svg>