<svg version="1.1" class="marks" width="375.0" height="442.0980799520596" viewBox="0 0 475.0 542.0980799520596" xmlns="http://www.w3.org/2000/svg" xmlns:xlink="http://www.w3.org/1999/xlink"><rect width="100%" height="100%" fill="#ffffff"/>
<g transform="translate(50.0, 72.26917616221922)"><text class="chart-title-line" x="0" y="0" text-anchor="start" font-family="sans-serif" font-size="24" font-weight="700" fill="#0f2740" letter-spacing="0" transform="scale(1.0065164367104735)">Surge in First-Time Applicants
</text>
<text class="chart-title-line" x="0" y="0" text-anchor="start" font-family="sans-serif" font-size="24" font-weight="700" fill="#0f2740" letter-spacing="0" transform="scale(1.0065164367104735) translate(0.0, 27.1640625)">to U.S. Medical Schools
</text>
<text class="chart-subtitle-line" x="0" y="0" text-anchor="start" font-family="sans-serif" font-size="13" font-weight="400" fill="#445f7c" letter-spacing="0.25" transform="scale(1.0065164367104735) translate(0.0, 54.1875)">"Trends in medical school admissions for aspiring doctors"
</text>
<path transform="translate(-5.5, 67.50663816484035) translate(5.0,34.0) translate(0,-29) translate(0,0) translate(0,0) translate(6,6)" d="M5,0A5,5,0,1,1,-5,0A5,5,0,1,1,5,0" fill="#175a77" stroke-width="1.5" opacity="1" class="mark-symbol role-legend-symbol" pointer-events="none" role="graphics-object" aria-roledescription="group mark container" aria-label="Symbol legend for fill color with 3 values: Total Applicants, First-Time Applicants, First-Time Enrollees" stroke-miterlimit="10" version="1.1" width="385" height="362" viewBox="0 0 385 362"/>
<text text-anchor="start" transform="translate(-5.5, 67.50663816484035) translate(5.0,34.0) translate(0,-29) translate(0,0) translate(0,0) translate(16,9)" font-family="sans-serif" font-size="10px" fill="#000" opacity="1" class="mark-text role-legend-label" pointer-events="none" role="graphics-object" aria-roledescription="group mark container" aria-label="Symbol legend for fill color with 3 values: Total Applicants, First-Time Applicants, First-Time Enrollees" stroke-miterlimit="10" version="1.1" width="385" height="362" viewBox="0 0 385 362">Total Applicants
</text>
<path transform="translate(-5.5, 67.50663816484035) translate(5.0,34.0) translate(0,-29) translate(0,0) translate(101,0) translate(6,6)" d="M5,0A5,5,0,1,1,-5,0A5,5,0,1,1,5,0" fill="#175a77" stroke-width="1.5" opacity="1" class="mark-symbol role-legend-symbol" pointer-events="none" role="graphics-object" aria-roledescription="group mark container" aria-label="Symbol legend for fill color with 3 values: Total Applicants, First-Time Applicants, First-Time Enrollees" stroke-miterlimit="10" version="1.1" width="385" height="362" viewBox="0 0 385 362"/>
<text text-anchor="start" transform="translate(-5.5, 67.50663816484035) translate(5.0,34.0) translate(0,-29) translate(0,0) translate(101,0) translate(16,9)" font-family="sans-serif" font-size="10px" fill="#000" opacity="1" class="mark-text role-legend-label" pointer-events="none" role="graphics-object" aria-roledescription="group mark container" aria-label="Symbol legend for fill color with 3 values: Total Applicants, First-Time Applicants, First-Time Enrollees" stroke-miterlimit="10" version="1.1" width="385" height="362" viewBox="0 0 385 362">First-Time Applicants
</text>
<path transform="translate(-5.5, 67.50663816484035) translate(5.0,34.0) translate(0,-29) translate(0,0) translate(225,0) translate(6,6)" d="M5,0A5,5,0,1,1,-5,0A5,5,0,1,1,5,0" fill="#175a77" stroke-width="1.5" opacity="1" class="mark-symbol role-legend-symbol" pointer-events="none" role="graphics-object" aria-roledescription="group mark container" aria-label="Symbol legend for fill color with 3 values: Total Applicants, First-Time Applicants, First-Time Enrollees" stroke-miterlimit="10" version="1.1" width="385" height="362" viewBox="0 0 385 362"/>
<text text-anchor="start" transform="translate(-5.5, 67.50663816484035) translate(5.0,34.0) translate(0,-29) translate(0,0) translate(225,0) translate(16,9)" font-family="sans-serif" font-size="10px" fill="#000" opacity="1" class="mark-text role-legend-label" pointer-events="none" role="graphics-object" aria-roledescription="group mark container" aria-label="Symbol legend for fill color with 3 values: Total Applicants, First-Time Applicants, First-Time Enrollees" stroke-miterlimit="10" version="1.1" width="385" height="362" viewBox="0 0 385 362">First-Time Enrollees
</text>
<text text-anchor="end" transform="translate(-5.5, 67.50663816484035) translate(5.0,34.0) translate(0.5,200.5) translate(66.03225806451613,5) rotate(270) translate(0,4)" font-family="sans-serif" font-size="12px" fill="#000d2a" opacity="1" stroke-miterlimit="10" class="mark-text role-axis-label" role="graphics-symbol" aria-roledescription="axis" version="1.1" width="385" height="362" viewBox="0 0 385 362" aria-label="X-axis for a discrete scale with 3 values: First-Time Applicants, First-Time Enrollees, Total Applicants" pointer-events="none" x="0.0" y="0.0">First-Time Applicants
</text>
<text text-anchor="end" transform="translate(-5.5, 67.50663816484035) translate(5.0,34.0) translate(0.5,200.5) translate(187,5) rotate(270) translate(0,4)" font-family="sans-serif" font-size="12px" fill="#000d2a" opacity="1" stroke-miterlimit="10" class="mark-text role-axis-label" role="graphics-symbol" aria-roledescription="axis" version="1.1" width="385" height="362" viewBox="0 0 385 362" aria-label="X-axis for a discrete scale with 3 values: First-Time Applicants, First-Time Enrollees, Total Applicants" pointer-events="none" x="0.0" y="0.0">First-Time Enrollees
</text>
<text text-anchor="end" transform="translate(-5.5, 67.50663816484035) translate(5.0,34.0) translate(0.5,200.5) translate(307.9677419354839,5) rotate(270) translate(0,4)" font-family="sans-serif" font-size="12px" fill="#000d2a" opacity="1" stroke-miterlimit="10" class="mark-text role-axis-label" role="graphics-symbol" aria-roledescription="axis" version="1.1" width="385" height="362" viewBox="0 0 385 362" aria-label="X-axis for a discrete scale with 3 values: First-Time Applicants, First-Time Enrollees, Total Applicants" pointer-events="none" x="0.0" y="0.0">Total Applicants
</text>
<line transform="translate(-5.5, 67.50663816484035) translate(5.0,34.0) translate(0.5,200.5) translate(0,0)" x2="375" y2="0" stroke="#0f223b" stroke-width="1" opacity="1" fill="none" stroke-miterlimit="10" class="mark-rule role-axis-domain" role="graphics-symbol" aria-roledescription="axis" version="1.1" width="385" height="362" viewBox="0 0 385 362" aria-label="X-axis for a discrete scale with 3 values: First-Time Applicants, First-Time Enrollees, Total Applicants" pointer-events="none"/>
<path aria-label="First-Time Applicants: First-Time Applicants; Number: 36697" role="graphics-symbol" aria-roledescription="bar" d="M22.98387096774193,53.21199999999999h87.0967741935484v146.788h-87.0967741935484Z" fill="#175a77" opacity="1" stroke-miterlimit="10" class="mark-rect role-mark layer_0_marks" version="1.1" width="385" height="362" viewBox="0 0 385 362" transform="translate(-5.5, 67.50663816484035) translate(5.0,34.0)"/>
<path aria-label="First-Time Applicants: Total Applicants; Number: 49480" role="graphics-symbol" aria-roledescription="bar" d="M264.9193548387097,2.079999999999993h87.0967741935484v197.92000000000002h-87.0967741935484Z" fill="#175a77" opacity="1" stroke-miterlimit="10" class="mark-rect role-mark layer_0_marks" version="1.1" width="385" height="362" viewBox="0 0 385 362" transform="translate(-5.5, 67.50663816484035) translate(5.0,34.0)"/>
<path aria-label="First-Time Applicants: First-Time Enrollees; Number: 20343" role="graphics-symbol" aria-roledescription="bar" d="M143.9516129032258,118.628h87.0967741935484v81.372h-87.0967741935484Z" fill="#175a77" opacity="1" stroke-miterlimit="10" class="mark-rect role-mark layer_0_marks" version="1.1" width="385" height="362" viewBox="0 0 385 362" transform="translate(-5.5, 67.50663816484035) translate(5.0,34.0)"/>
<text aria-label="First-Time Applicants: First-Time Applicants; Number: 36697" role="graphics-symbol" aria-roledescription="text mark" text-anchor="middle" transform="translate(-5.5, 67.50663816484035) translate(5.0,34.0) translate(66.53225806451613,45.21199999999999)" font-family="sans-serif" font-size="12px" font-weight="500" fill="#175a77" stroke-miterlimit="10" class="mark-text role-mark layer_1_marks" version="1.1" width="385" height="362" viewBox="0 0 385 362">36697
</text>
<text aria-label="First-Time Applicants: Total Applicants; Number: 49480" role="graphics-symbol" aria-roledescription="text mark" text-anchor="middle" transform="translate(-5.5, 67.50663816484035) translate(5.0,34.0) translate(308.4677419354839,-5.920000000000007)" font-family="sans-serif" font-size="12px" font-weight="500" fill="#175a77" stroke-miterlimit="10" class="mark-text role-mark layer_1_marks" version="1.1" width="385" height="362" viewBox="0 0 385 362">49480
</text>
<text aria-label="First-Time Applicants: First-Time Enrollees; Number: 20343" role="graphics-symbol" aria-roledescription="text mark" text-anchor="middle" transform="translate(-5.5, 67.50663816484035) translate(5.0,34.0) translate(187.5,110.628)" font-family="sans-serif" font-size="12px" font-weight="500" fill="#175a77" stroke-miterlimit="10" class="mark-text role-mark layer_1_marks" version="1.1" width="385" height="362" viewBox="0 0 385 362">20343
</text></g></svg>