<svg version="1.1" class="marks" width="498.322265625" height="401.53998706803327" viewBox="0 0 598.322265625 501.53998706803327" xmlns="http://www.w3.org/2000/svg" xmlns:xlink="http://www.w3.org/1999/xlink"><rect width="100%" height="100%" fill="#ffffff"/>
<g transform="translate(50.0, 51.672765463350416)"><rect x="0" y="0" width="15" height="150" fill="#175a77" transform="scale(1.4273373201431794) scale(0.6094130859375)"/>
<text class="chart-title-line" x="0" y="0" text-anchor="start" font-family="sans-serif" font-size="24" font-weight="700" fill="#0f2740" letter-spacing="0" transform="scale(1.4273373201431794) translate(19.1411962890625, 20.953051757812496)">Surge in First-Time Applicants
</text>
<text class="chart-title-line" x="0" y="0" text-anchor="start" font-family="sans-serif" font-size="24" font-weight="700" fill="#0f2740" letter-spacing="0" transform="scale(1.4273373201431794) translate(19.1411962890625, 20.953051757812496) translate(0.0, 27.1640625)">at U.S. Medical Schools
</text>
<text class="chart-subtitle-line" x="0" y="0" text-anchor="start" font-family="sans-serif" font-size="13" font-weight="400" fill="#445f7c" letter-spacing="0.25" transform="scale(1.4273373201431794) translate(19.1411962890625, 20.953051757812496) translate(0.0, 54.1875)">"Analysis reveals shifts in medical school application
</text>
<text class="chart-subtitle-line" x="0" y="0" text-anchor="start" font-family="sans-serif" font-size="13" font-weight="400" fill="#445f7c" letter-spacing="0.25" transform="scale(1.4273373201431794) translate(19.1411962890625, 20.953051757812496) translate(0.0, 54.1875) translate(0.0, 14.7138671875)">and enrollment trends for the latest admissions cycle."
</text>
<line transform="translate(-10.677734375, 142.36722160468284) translate(133.0,57.0) translate(0.5,0.5) translate(0,0)" x2="0" y2="200" stroke="#ddd" stroke-width="1" opacity="1" class="mark-rule role-axis-grid" pointer-events="none" aria-hidden="true" fill="none" stroke-miterlimit="10" role="graphics-object" aria-roledescription="group mark container" version="1.1" width="514" height="262" viewBox="0 0 514 262"/>
<line transform="translate(-10.677734375, 142.36722160468284) translate(133.0,57.0) translate(0.5,0.5) translate(38,0)" x2="0" y2="200" stroke="#ddd" stroke-width="1" opacity="1" class="mark-rule role-axis-grid" pointer-events="none" aria-hidden="true" fill="none" stroke-miterlimit="10" role="graphics-object" aria-roledescription="group mark container" version="1.1" width="514" height="262" viewBox="0 0 514 262"/>
<line transform="translate(-10.677734375, 142.36722160468284) translate(133.0,57.0) translate(0.5,0.5) translate(75,0)" x2="0" y2="200" stroke="#ddd" stroke-width="1" opacity="1" class="mark-rule role-axis-grid" pointer-events="none" aria-hidden="true" fill="none" stroke-miterlimit="10" role="graphics-object" aria-roledescription="group mark container" version="1.1" width="514" height="262" viewBox="0 0 514 262"/>
<line transform="translate(-10.677734375, 142.36722160468284) translate(133.0,57.0) translate(0.5,0.5) translate(113,0)" x2="0" y2="200" stroke="#ddd" stroke-width="1" opacity="1" class="mark-rule role-axis-grid" pointer-events="none" aria-hidden="true" fill="none" stroke-miterlimit="10" role="graphics-object" aria-roledescription="group mark container" version="1.1" width="514" height="262" viewBox="0 0 514 262"/>
<line transform="translate(-10.677734375, 142.36722160468284) translate(133.0,57.0) translate(0.5,0.5) translate(150,0)" x2="0" y2="200" stroke="#ddd" stroke-width="1" opacity="1" class="mark-rule role-axis-grid" pointer-events="none" aria-hidden="true" fill="none" stroke-miterlimit="10" role="graphics-object" aria-roledescription="group mark container" version="1.1" width="514" height="262" viewBox="0 0 514 262"/>
<line transform="translate(-10.677734375, 142.36722160468284) translate(133.0,57.0) translate(0.5,0.5) translate(188,0)" x2="0" y2="200" stroke="#ddd" stroke-width="1" opacity="1" class="mark-rule role-axis-grid" pointer-events="none" aria-hidden="true" fill="none" stroke-miterlimit="10" role="graphics-object" aria-roledescription="group mark container" version="1.1" width="514" height="262" viewBox="0 0 514 262"/>
<line transform="translate(-10.677734375, 142.36722160468284) translate(133.0,57.0) translate(0.5,0.5) translate(225,0)" x2="0" y2="200" stroke="#ddd" stroke-width="1" opacity="1" class="mark-rule role-axis-grid" pointer-events="none" aria-hidden="true" fill="none" stroke-miterlimit="10" role="graphics-object" aria-roledescription="group mark container" version="1.1" width="514" height="262" viewBox="0 0 514 262"/>
<line transform="translate(-10.677734375, 142.36722160468284) translate(133.0,57.0) translate(0.5,0.5) translate(263,0)" x2="0" y2="200" stroke="#ddd" stroke-width="1" opacity="1" class="mark-rule role-axis-grid" pointer-events="none" aria-hidden="true" fill="none" stroke-miterlimit="10" role="graphics-object" aria-roledescription="group mark container" version="1.1" width="514" height="262" viewBox="0 0 514 262"/>
<line transform="translate(-10.677734375, 142.36722160468284) translate(133.0,57.0) translate(0.5,0.5) translate(300,0)" x2="0" y2="200" stroke="#ddd" stroke-width="1" opacity="1" class="mark-rule role-axis-grid" pointer-events="none" aria-hidden="true" fill="none" stroke-miterlimit="10" role="graphics-object" aria-roledescription="group mark container" version="1.1" width="514" height="262" viewBox="0 0 514 262"/>
<line transform="translate(-10.677734375, 142.36722160468284) translate(133.0,57.0) translate(0.5,0.5) translate(338,0)" x2="0" y2="200" stroke="#ddd" stroke-width="1" opacity="1" class="mark-rule role-axis-grid" pointer-events="none" aria-hidden="true" fill="none" stroke-miterlimit="10" role="graphics-object" aria-roledescription="group mark container" version="1.1" width="514" height="262" viewBox="0 0 514 262"/>
<line transform="translate(-10.677734375, 142.36722160468284) translate(133.0,57.0) translate(0.5,0.5) translate(375,0)" x2="0" y2="200" stroke="#ddd" stroke-width="1" opacity="1" class="mark-rule role-axis-grid" pointer-events="none" aria-hidden="true" fill="none" stroke-miterlimit="10" role="graphics-object" aria-roledescription="group mark container" version="1.1" width="514" height="262" viewBox="0 0 514 262"/>
<line transform="translate(-10.677734375, 142.36722160468284) translate(133.0,57.0) translate(0.5,0.5) translate(0,35)" x2="375" y2="0" stroke="#ddd" stroke-width="1" opacity="1" class="mark-rule role-axis-grid" pointer-events="none" aria-hidden="true" fill="none" stroke-miterlimit="10" role="graphics-object" aria-roledescription="group mark container" version="1.1" width="514" height="262" viewBox="0 0 514 262"/>
<line transform="translate(-10.677734375, 142.36722160468284) translate(133.0,57.0) translate(0.5,0.5) translate(0,100)" x2="375" y2="0" stroke="#ddd" stroke-width="1" opacity="1" class="mark-rule role-axis-grid" pointer-events="none" aria-hidden="true" fill="none" stroke-miterlimit="10" role="graphics-object" aria-roledescription="group mark container" version="1.1" width="514" height="262" viewBox="0 0 514 262"/>
<line transform="translate(-10.677734375, 142.36722160468284) translate(133.0,57.0) translate(0.5,0.5) translate(0,164)" x2="375" y2="0" stroke="#ddd" stroke-width="1" opacity="1" class="mark-rule role-axis-grid" pointer-events="none" aria-hidden="true" fill="none" stroke-miterlimit="10" role="graphics-object" aria-roledescription="group mark container" version="1.1" width="514" height="262" viewBox="0 0 514 262"/>
<path transform="translate(-10.677734375, 142.36722160468284) translate(133.0,57.0) translate(0,-52) translate(0,0) translate(0,0) translate(6,6)" d="M-5,-5h10v10h-10Z" fill="#175a77" stroke-width="1.5" opacity="1" class="mark-symbol role-legend-symbol" pointer-events="none" role="graphics-object" aria-roledescription="group mark container" aria-label="Symbol legend for fill color with 3 values: Total Applicants, First-Time Applicants, First-Time Enrollees" stroke-miterlimit="10" version="1.1" width="514" height="262" viewBox="0 0 514 262"/>
<text text-anchor="start" transform="translate(-10.677734375, 142.36722160468284) translate(133.0,57.0) translate(0,-52) translate(0,0) translate(0,0) translate(16,9)" font-family="sans-serif" font-size="10px" fill="#000" opacity="1" class="mark-text role-legend-label" pointer-events="none" role="graphics-object" aria-roledescription="group mark container" aria-label="Symbol legend for fill color with 3 values: Total Applicants, First-Time Applicants, First-Time Enrollees" stroke-miterlimit="10" version="1.1" width="514" height="262" viewBox="0 0 514 262">Total Applicants
</text>
<path transform="translate(-10.677734375, 142.36722160468284) translate(133.0,57.0) translate(0,-52) translate(0,0) translate(101,0) translate(6,6)" d="M-5,-5h10v10h-10Z" fill="#175a77" stroke-width="1.5" opacity="1" class="mark-symbol role-legend-symbol" pointer-events="none" role="graphics-object" aria-roledescription="group mark container" aria-label="Symbol legend for fill color with 3 values: Total Applicants, First-Time Applicants, First-Time Enrollees" stroke-miterlimit="10" version="1.1" width="514" height="262" viewBox="0 0 514 262"/>
<text text-anchor="start" transform="translate(-10.677734375, 142.36722160468284) translate(133.0,57.0) translate(0,-52) translate(0,0) translate(101,0) translate(16,9)" font-family="sans-serif" font-size="10px" fill="#000" opacity="1" class="mark-text role-legend-label" pointer-events="none" role="graphics-object" aria-roledescription="group mark container" aria-label="Symbol legend for fill color with 3 values: Total Applicants, First-Time Applicants, First-Time Enrollees" stroke-miterlimit="10" version="1.1" width="514" height="262" viewBox="0 0 514 262">First-Time Applicants
</text>
<path transform="translate(-10.677734375, 142.36722160468284) translate(133.0,57.0) translate(0,-52) translate(0,0) translate(225,0) translate(6,6)" d="M-5,-5h10v10h-10Z" fill="#175a77" stroke-width="1.5" opacity="1" class="mark-symbol role-legend-symbol" pointer-events="none" role="graphics-object" aria-roledescription="group mark container" aria-label="Symbol legend for fill color with 3 values: Total Applicants, First-Time Applicants, First-Time Enrollees" stroke-miterlimit="10" version="1.1" width="514" height="262" viewBox="0 0 514 262"/>
<text text-anchor="start" transform="translate(-10.677734375, 142.36722160468284) translate(133.0,57.0) translate(0,-52) translate(0,0) translate(225,0) translate(16,9)" font-family="sans-serif" font-size="10px" fill="#000" opacity="1" class="mark-text role-legend-label" pointer-events="none" role="graphics-object" aria-roledescription="group mark container" aria-label="Symbol legend for fill color with 3 values: Total Applicants, First-Time Applicants, First-Time Enrollees" stroke-miterlimit="10" version="1.1" width="514" height="262" viewBox="0 0 514 262">First-Time Enrollees
</text>
<line transform="translate(-10.677734375, 142.36722160468284) translate(133.0,57.0) translate(0.5,0.5) translate(0,0)" x2="0" y2="-5" stroke="#0f223b" stroke-width="1" opacity="1" fill="none" stroke-miterlimit="10" class="mark-rule role-axis-tick" role="graphics-symbol" aria-roledescription="axis" version="1.1" width="514" height="262" viewBox="0 0 514 262" aria-label="X-axis for a linear scale with values from 0 to 50,000" pointer-events="none"/>
<line transform="translate(-10.677734375, 142.36722160468284) translate(133.0,57.0) translate(0.5,0.5) translate(38,0)" x2="0" y2="-5" stroke="#0f223b" stroke-width="1" opacity="1" fill="none" stroke-miterlimit="10" class="mark-rule role-axis-tick" role="graphics-symbol" aria-roledescription="axis" version="1.1" width="514" height="262" viewBox="0 0 514 262" aria-label="X-axis for a linear scale with values from 0 to 50,000" pointer-events="none"/>
<line transform="translate(-10.677734375, 142.36722160468284) translate(133.0,57.0) translate(0.5,0.5) translate(75,0)" x2="0" y2="-5" stroke="#0f223b" stroke-width="1" opacity="1" fill="none" stroke-miterlimit="10" class="mark-rule role-axis-tick" role="graphics-symbol" aria-roledescription="axis" version="1.1" width="514" height="262" viewBox="0 0 514 262" aria-label="X-axis for a linear scale with values from 0 to 50,000" pointer-events="none"/>
<line transform="translate(-10.677734375, 142.36722160468284) translate(133.0,57.0) translate(0.5,0.5) translate(113,0)" x2="0" y2="-5" stroke="#0f223b" stroke-width="1" opacity="1" fill="none" stroke-miterlimit="10" class="mark-rule role-axis-tick" role="graphics-symbol" aria-roledescription="axis" version="1.1" width="514" height="262" viewBox="0 0 514 262" aria-label="X-axis for a linear scale with values from 0 to 50,000" pointer-events="none"/>
<line transform="translate(-10.677734375, 142.36722160468284) translate(133.0,57.0) translate(0.5,0.5) translate(150,0)" x2="0" y2="-5" stroke="#0f223b" stroke-width="1" opacity="1" fill="none" stroke-miterlimit="10" class="mark-rule role-axis-tick" role="graphics-symbol" aria-roledescription="axis" version="1.1" width="514" height="262" viewBox="0 0 514 262" aria-label="X-axis for a linear scale with values from 0 to 50,000" pointer-events="none"/>
<line transform="translate(-10.677734375, 142.36722160468284) translate(133.0,57.0) translate(0.5,0.5) translate(188,0)" x2="0" y2="-5" stroke="#0f223b" stroke-width="1" opacity="1" fill="none" stroke-miterlimit="10" class="mark-rule role-axis-tick" role="graphics-symbol" aria-roledescription="axis" version="1.1" width="514" height="262" viewBox="0 0 514 262" aria-label="X-axis for a linear scale with values from 0 to 50,000" pointer-events="none"/>
<line transform="translate(-10.677734375, 142.36722160468284) translate(133.0,57.0) translate(0.5,0.5) translate(225,0)" x2="0" y2="-5" stroke="#0f223b" stroke-width="1" opacity="1" fill="none" stroke-miterlimit="10" class="mark-rule role-axis-tick" role="graphics-symbol" aria-roledescription="axis" version="1.1" width="514" height="262" viewBox="0 0 514 262" aria-label="X-axis for a linear scale with values from 0 to 50,000" pointer-events="none"/>
<line transform="translate(-10.677734375, 142.36722160468284) translate(133.0,57.0) translate(0.5,0.5) translate(263,0)" x2="0" y2="-5" stroke="#0f223b" stroke-width="1" opacity="1" fill="none" stroke-miterlimit="10" class="mark-rule role-axis-tick" role="graphics-symbol" aria-roledescription="axis" version="1.1" width="514" height="262" viewBox="0 0 514 262" aria-label="X-axis for a linear scale with values from 0 to 50,000" pointer-events="none"/>
<line transform="translate(-10.677734375, 142.36722160468284) translate(133.0,57.0) translate(0.5,0.5) translate(300,0)" x2="0" y2="-5" stroke="#0f223b" stroke-width="1" opacity="1" fill="none" stroke-miterlimit="10" class="mark-rule role-axis-tick" role="graphics-symbol" aria-roledescription="axis" version="1.1" width="514" height="262" viewBox="0 0 514 262" aria-label="X-axis for a linear scale with values from 0 to 50,000" pointer-events="none"/>
<line transform="translate(-10.677734375, 142.36722160468284) translate(133.0,57.0) translate(0.5,0.5) translate(338,0)" x2="0" y2="-5" stroke="#0f223b" stroke-width="1" opacity="1" fill="none" stroke-miterlimit="10" class="mark-rule role-axis-tick" role="graphics-symbol" aria-roledescription="axis" version="1.1" width="514" height="262" viewBox="0 0 514 262" aria-label="X-axis for a linear scale with values from 0 to 50,000" pointer-events="none"/>
<line transform="translate(-10.677734375, 142.36722160468284) translate(133.0,57.0) translate(0.5,0.5) translate(375,0)" x2="0" y2="-5" stroke="#0f223b" stroke-width="1" opacity="1" fill="none" stroke-miterlimit="10" class="mark-rule role-axis-tick" role="graphics-symbol" aria-roledescription="axis" version="1.1" width="514" height="262" viewBox="0 0 514 262" aria-label="X-axis for a linear scale with values from 0 to 50,000" pointer-events="none"/>
<text text-anchor="start" transform="translate(-10.677734375, 142.36722160468284) translate(133.0,57.0) translate(0.5,0.5) translate(0,-13)" font-family="sans-serif" font-size="12px" fill="#000d2a" opacity="1" stroke-miterlimit="10" class="mark-text role-axis-label" role="graphics-symbol" aria-roledescription="axis" version="1.1" width="514" height="262" viewBox="0 0 514 262" aria-label="X-axis for a linear scale with values from 0 to 50,000" pointer-events="none">0
</text>
<text text-anchor="middle" transform="translate(-10.677734375, 142.36722160468284) translate(133.0,57.0) translate(0.5,0.5) translate(37.5,-13)" font-family="sans-serif" font-size="12px" fill="#000d2a" opacity="0" stroke-miterlimit="10" class="mark-text role-axis-label" role="graphics-symbol" aria-roledescription="axis" version="1.1" width="514" height="262" viewBox="0 0 514 262" aria-label="X-axis for a linear scale with values from 0 to 50,000" pointer-events="none">5,000
</text>
<text text-anchor="middle" transform="translate(-10.677734375, 142.36722160468284) translate(133.0,57.0) translate(0.5,0.5) translate(75,-13)" font-family="sans-serif" font-size="12px" fill="#000d2a" opacity="1" stroke-miterlimit="10" class="mark-text role-axis-label" role="graphics-symbol" aria-roledescription="axis" version="1.1" width="514" height="262" viewBox="0 0 514 262" aria-label="X-axis for a linear scale with values from 0 to 50,000" pointer-events="none">10,000
</text>
<text text-anchor="middle" transform="translate(-10.677734375, 142.36722160468284) translate(133.0,57.0) translate(0.5,0.5) translate(112.5,-13)" font-family="sans-serif" font-size="12px" fill="#000d2a" opacity="0" stroke-miterlimit="10" class="mark-text role-axis-label" role="graphics-symbol" aria-roledescription="axis" version="1.1" width="514" height="262" viewBox="0 0 514 262" aria-label="X-axis for a linear scale with values from 0 to 50,000" pointer-events="none">15,000
</text>
<text text-anchor="middle" transform="translate(-10.677734375, 142.36722160468284) translate(133.0,57.0) translate(0.5,0.5) translate(150,-13)" font-family="sans-serif" font-size="12px" fill="#000d2a" opacity="1" stroke-miterlimit="10" class="mark-text role-axis-label" role="graphics-symbol" aria-roledescription="axis" version="1.1" width="514" height="262" viewBox="0 0 514 262" aria-label="X-axis for a linear scale with values from 0 to 50,000" pointer-events="none">20,000
</text>
<text text-anchor="middle" transform="translate(-10.677734375, 142.36722160468284) translate(133.0,57.0) translate(0.5,0.5) translate(187.5,-13)" font-family="sans-serif" font-size="12px" fill="#000d2a" opacity="0" stroke-miterlimit="10" class="mark-text role-axis-label" role="graphics-symbol" aria-roledescription="axis" version="1.1" width="514" height="262" viewBox="0 0 514 262" aria-label="X-axis for a linear scale with values from 0 to 50,000" pointer-events="none">25,000
</text>
<text text-anchor="middle" transform="translate(-10.677734375, 142.36722160468284) translate(133.0,57.0) translate(0.5,0.5) translate(225,-13)" font-family="sans-serif" font-size="12px" fill="#000d2a" opacity="1" stroke-miterlimit="10" class="mark-text role-axis-label" role="graphics-symbol" aria-roledescription="axis" version="1.1" width="514" height="262" viewBox="0 0 514 262" aria-label="X-axis for a linear scale with values from 0 to 50,000" pointer-events="none">30,000
</text>
<text text-anchor="middle" transform="translate(-10.677734375, 142.36722160468284) translate(133.0,57.0) translate(0.5,0.5) translate(262.5,-13)" font-family="sans-serif" font-size="12px" fill="#000d2a" opacity="0" stroke-miterlimit="10" class="mark-text role-axis-label" role="graphics-symbol" aria-roledescription="axis" version="1.1" width="514" height="262" viewBox="0 0 514 262" aria-label="X-axis for a linear scale with values from 0 to 50,000" pointer-events="none">35,000
</text>
<text text-anchor="middle" transform="translate(-10.677734375, 142.36722160468284) translate(133.0,57.0) translate(0.5,0.5) translate(300,-13)" font-family="sans-serif" font-size="12px" fill="#000d2a" opacity="1" stroke-miterlimit="10" class="mark-text role-axis-label" role="graphics-symbol" aria-roledescription="axis" version="1.1" width="514" height="262" viewBox="0 0 514 262" aria-label="X-axis for a linear scale with values from 0 to 50,000" pointer-events="none">40,000
</text>
<text text-anchor="middle" transform="translate(-10.677734375, 142.36722160468284) translate(133.0,57.0) translate(0.5,0.5) translate(337.5,-13)" font-family="sans-serif" font-size="12px" fill="#000d2a" opacity="0" stroke-miterlimit="10" class="mark-text role-axis-label" role="graphics-symbol" aria-roledescription="axis" version="1.1" width="514" height="262" viewBox="0 0 514 262" aria-label="X-axis for a linear scale with values from 0 to 50,000" pointer-events="none">45,000
</text>
<text text-anchor="end" transform="translate(-10.677734375, 142.36722160468284) translate(133.0,57.0) translate(0.5,0.5) translate(375,-13)" font-family="sans-serif" font-size="12px" fill="#000d2a" opacity="1" stroke-miterlimit="10" class="mark-text role-axis-label" role="graphics-symbol" aria-roledescription="axis" version="1.1" width="514" height="262" viewBox="0 0 514 262" aria-label="X-axis for a linear scale with values from 0 to 50,000" pointer-events="none">50,000
</text>
<line transform="translate(-10.677734375, 142.36722160468284) translate(133.0,57.0) translate(0.5,0.5) translate(0,0)" x2="375" y2="0" stroke="#0f223b" stroke-width="1" opacity="1" fill="none" stroke-miterlimit="10" class="mark-rule role-axis-domain" role="graphics-symbol" aria-roledescription="axis" version="1.1" width="514" height="262" viewBox="0 0 514 262" aria-label="X-axis for a linear scale with values from 0 to 50,000" pointer-events="none"/>
<line transform="translate(-10.677734375, 142.36722160468284) translate(133.0,57.0) translate(0.5,0.5) translate(0,35)" x2="-5" y2="0" stroke="#0f223b" stroke-width="1" opacity="1" fill="none" stroke-miterlimit="10" class="mark-rule role-axis-tick" role="graphics-symbol" aria-roledescription="axis" version="1.1" width="514" height="262" viewBox="0 0 514 262" aria-label="Y-axis for a discrete scale with 3 values: First-Time Applicants, First-Time Enrollees, Total Applicants" pointer-events="none"/>
<line transform="translate(-10.677734375, 142.36722160468284) translate(133.0,57.0) translate(0.5,0.5) translate(0,100)" x2="-5" y2="0" stroke="#0f223b" stroke-width="1" opacity="1" fill="none" stroke-miterlimit="10" class="mark-rule role-axis-tick" role="graphics-symbol" aria-roledescription="axis" version="1.1" width="514" height="262" viewBox="0 0 514 262" aria-label="Y-axis for a discrete scale with 3 values: First-Time Applicants, First-Time Enrollees, Total Applicants" pointer-events="none"/>
<line transform="translate(-10.677734375, 142.36722160468284) translate(133.0,57.0) translate(0.5,0.5) translate(0,164)" x2="-5" y2="0" stroke="#0f223b" stroke-width="1" opacity="1" fill="none" stroke-miterlimit="10" class="mark-rule role-axis-tick" role="graphics-symbol" aria-roledescription="axis" version="1.1" width="514" height="262" viewBox="0 0 514 262" aria-label="Y-axis for a discrete scale with 3 values: First-Time Applicants, First-Time Enrollees, Total Applicants" pointer-events="none"/>
<text text-anchor="end" transform="translate(-10.677734375, 142.36722160468284) translate(133.0,57.0) translate(0.5,0.5) translate(-10,38.983870967741936)" font-family="sans-serif" font-size="12px" fill="#000d2a" opacity="1" stroke-miterlimit="10" class="mark-text role-axis-label" role="graphics-symbol" aria-roledescription="axis" version="1.1" width="514" height="262" viewBox="0 0 514 262" aria-label="Y-axis for a discrete scale with 3 values: First-Time Applicants, First-Time Enrollees, Total Applicants" pointer-events="none" x="0.0" y="0.0">First-Time Applicants
</text>
<text text-anchor="end" transform="translate(-10.677734375, 142.36722160468284) translate(133.0,57.0) translate(0.5,0.5) translate(-10,103.5)" font-family="sans-serif" font-size="12px" fill="#000d2a" opacity="1" stroke-miterlimit="10" class="mark-text role-axis-label" role="graphics-symbol" aria-roledescription="axis" version="1.1" width="514" height="262" viewBox="0 0 514 262" aria-label="Y-axis for a discrete scale with 3 values: First-Time Applicants, First-Time Enrollees, Total Applicants" pointer-events="none" x="0.0" y="0.0">First-Time Enrollees
</text>
<text text-anchor="end" transform="translate(-10.677734375, 142.36722160468284) translate(133.0,57.0) translate(0.5,0.5) translate(-10,168.01612903225808)" font-family="sans-serif" font-size="12px" fill="#000d2a" opacity="1" stroke-miterlimit="10" class="mark-text role-axis-label" role="graphics-symbol" aria-roledescription="axis" version="1.1" width="514" height="262" viewBox="0 0 514 262" aria-label="Y-axis for a discrete scale with 3 values: First-Time Applicants, First-Time Enrollees, Total Applicants" pointer-events="none" x="0.0" y="0.0">Total Applicants
</text>
<line transform="translate(-10.677734375, 142.36722160468284) translate(133.0,57.0) translate(0.5,0.5) translate(0,0)" x2="0" y2="200" stroke="#0f223b" stroke-width="1" opacity="1" fill="none" stroke-miterlimit="10" class="mark-rule role-axis-domain" role="graphics-symbol" aria-roledescription="axis" version="1.1" width="514" height="262" viewBox="0 0 514 262" aria-label="Y-axis for a discrete scale with 3 values: First-Time Applicants, First-Time Enrollees, Total Applicants" pointer-events="none"/>
<path aria-label="Number: 36697; First-Time Applicants: First-Time Applicants" role="graphics-symbol" aria-roledescription="bar" d="M0,12.258064516129032h275.2275v46.45161290322581h-275.2275Z" fill="#175a77" opacity="1" stroke-miterlimit="10" class="mark-rect role-mark layer_0_marks" version="1.1" width="514" height="262" viewBox="0 0 514 262" transform="translate(-10.677734375, 142.36722160468284) translate(133.0,57.0)"/>
<path aria-label="Number: 49480; First-Time Applicants: Total Applicants" role="graphics-symbol" aria-roledescription="bar" d="M0,141.29032258064518h371.1v46.45161290322581h-371.1Z" fill="#175a77" opacity="1" stroke-miterlimit="10" class="mark-rect role-mark layer_0_marks" version="1.1" width="514" height="262" viewBox="0 0 514 262" transform="translate(-10.677734375, 142.36722160468284) translate(133.0,57.0)"/>
<path aria-label="Number: 20343; First-Time Applicants: First-Time Enrollees" role="graphics-symbol" aria-roledescription="bar" d="M0,76.7741935483871h152.5725v46.45161290322581h-152.5725Z" fill="#175a77" opacity="1" stroke-miterlimit="10" class="mark-rect role-mark layer_0_marks" version="1.1" width="514" height="262" viewBox="0 0 514 262" transform="translate(-10.677734375, 142.36722160468284) translate(133.0,57.0)"/></g></svg>