<svg version="1.1" class="marks" width="515.44140625" height="380.78784219613675" viewBox="0 0 615.44140625 480.78784219613675" xmlns="http://www.w3.org/2000/svg" xmlns:xlink="http://www.w3.org/1999/xlink"><rect width="100%" height="100%" fill="#ffffff"/>
<g transform="translate(50.0, 51.41336365245171)"><rect x="0" y="0" width="15" height="150" fill="#1c4562" transform="scale(1.430493957286895) scale(0.5137729492187499)"/>
<text class="chart-title-line" x="0" y="0" text-anchor="start" font-family="sans-serif" font-size="24" font-weight="700" fill="#0f2740" letter-spacing="0" transform="scale(1.430493957286895) translate(17.706594238281248, 21.136975097656247)">Fluctuating Unit Sales Highlight
</text>
<text class="chart-title-line" x="0" y="0" text-anchor="start" font-family="sans-serif" font-size="24" font-weight="700" fill="#0f2740" letter-spacing="0" transform="scale(1.430493957286895) translate(17.706594238281248, 21.136975097656247) translate(0.0, 27.1640625)"> Market Volatility
</text>
<text class="chart-subtitle-line" x="0" y="0" text-anchor="start" font-family="sans-serif" font-size="13" font-weight="400" fill="#445f7c" letter-spacing="0.25" transform="scale(1.430493957286895) translate(17.706594238281248, 21.136975097656247) translate(0.0, 54.1875)">"Annual unit sales exhibit significant variability over time."
</text>
<line transform="translate(-5.8046875, 121.87447854368502) translate(42.0,57.0) translate(0.5,0.5) translate(0,0)" x2="0" y2="200" stroke="#ddd" stroke-width="1" opacity="1" class="mark-rule role-axis-grid" pointer-events="none" aria-hidden="true" fill="none" stroke-miterlimit="10" role="graphics-object" aria-roledescription="group mark container" version="1.1" width="527" height="262" viewBox="0 0 527 262"/>
<line transform="translate(-5.8046875, 121.87447854368502) translate(42.0,57.0) translate(0.5,0.5) translate(34,0)" x2="0" y2="200" stroke="#ddd" stroke-width="1" opacity="1" class="mark-rule role-axis-grid" pointer-events="none" aria-hidden="true" fill="none" stroke-miterlimit="10" role="graphics-object" aria-roledescription="group mark container" version="1.1" width="527" height="262" viewBox="0 0 527 262"/>
<line transform="translate(-5.8046875, 121.87447854368502) translate(42.0,57.0) translate(0.5,0.5) translate(68,0)" x2="0" y2="200" stroke="#ddd" stroke-width="1" opacity="1" class="mark-rule role-axis-grid" pointer-events="none" aria-hidden="true" fill="none" stroke-miterlimit="10" role="graphics-object" aria-roledescription="group mark container" version="1.1" width="527" height="262" viewBox="0 0 527 262"/>
<line transform="translate(-5.8046875, 121.87447854368502) translate(42.0,57.0) translate(0.5,0.5) translate(102,0)" x2="0" y2="200" stroke="#ddd" stroke-width="1" opacity="1" class="mark-rule role-axis-grid" pointer-events="none" aria-hidden="true" fill="none" stroke-miterlimit="10" role="graphics-object" aria-roledescription="group mark container" version="1.1" width="527" height="262" viewBox="0 0 527 262"/>
<line transform="translate(-5.8046875, 121.87447854368502) translate(42.0,57.0) translate(0.5,0.5) translate(136,0)" x2="0" y2="200" stroke="#ddd" stroke-width="1" opacity="1" class="mark-rule role-axis-grid" pointer-events="none" aria-hidden="true" fill="none" stroke-miterlimit="10" role="graphics-object" aria-roledescription="group mark container" version="1.1" width="527" height="262" viewBox="0 0 527 262"/>
<line transform="translate(-5.8046875, 121.87447854368502) translate(42.0,57.0) translate(0.5,0.5) translate(170,0)" x2="0" y2="200" stroke="#ddd" stroke-width="1" opacity="1" class="mark-rule role-axis-grid" pointer-events="none" aria-hidden="true" fill="none" stroke-miterlimit="10" role="graphics-object" aria-roledescription="group mark container" version="1.1" width="527" height="262" viewBox="0 0 527 262"/>
<line transform="translate(-5.8046875, 121.87447854368502) translate(42.0,57.0) translate(0.5,0.5) translate(205,0)" x2="0" y2="200" stroke="#ddd" stroke-width="1" opacity="1" class="mark-rule role-axis-grid" pointer-events="none" aria-hidden="true" fill="none" stroke-miterlimit="10" role="graphics-object" aria-roledescription="group mark container" version="1.1" width="527" height="262" viewBox="0 0 527 262"/>
<line transform="translate(-5.8046875, 121.87447854368502) translate(42.0,57.0) translate(0.5,0.5) translate(239,0)" x2="0" y2="200" stroke="#ddd" stroke-width="1" opacity="1" class="mark-rule role-axis-grid" pointer-events="none" aria-hidden="true" fill="none" stroke-miterlimit="10" role="graphics-object" aria-roledescription="group mark container" version="1.1" width="527" height="262" viewBox="0 0 527 262"/>
<line transform="translate(-5.8046875, 121.87447854368502) translate(42.0,57.0) translate(0.5,0.5) translate(273,0)" x2="0" y2="200" stroke="#ddd" stroke-width="1" opacity="1" class="mark-rule role-axis-grid" pointer-events="none" aria-hidden="true" fill="none" stroke-miterlimit="10" role="graphics-object" aria-roledescription="group mark container" version="1.1" width="527" height="262" viewBox="0 0 527 262"/>
<line transform="translate(-5.8046875, 121.87447854368502) translate(42.0,57.0) translate(0.5,0.5) translate(307,0)" x2="0" y2="200" stroke="#ddd" stroke-width="1" opacity="1" class="mark-rule role-axis-grid" pointer-events="none" aria-hidden="true" fill="none" stroke-miterlimit="10" role="graphics-object" aria-roledescription="group mark container" version="1.1" width="527" height="262" viewBox="0 0 527 262"/>
<line transform="translate(-5.8046875, 121.87447854368502) translate(42.0,57.0) translate(0.5,0.5) translate(341,0)" x2="0" y2="200" stroke="#ddd" stroke-width="1" opacity="1" class="mark-rule role-axis-grid" pointer-events="none" aria-hidden="true" fill="none" stroke-miterlimit="10" role="graphics-object" aria-roledescription="group mark container" version="1.1" width="527" height="262" viewBox="0 0 527 262"/>
<line transform="translate(-5.8046875, 121.87447854368502) translate(42.0,57.0) translate(0.5,0.5) translate(375,0)" x2="0" y2="200" stroke="#ddd" stroke-width="1" opacity="1" class="mark-rule role-axis-grid" pointer-events="none" aria-hidden="true" fill="none" stroke-miterlimit="10" role="graphics-object" aria-roledescription="group mark container" version="1.1" width="527" height="262" viewBox="0 0 527 262"/>
<line transform="translate(-5.8046875, 121.87447854368502) translate(42.0,57.0) translate(0.5,0.5) translate(0,10)" x2="375" y2="0" stroke="#ddd" stroke-width="1" opacity="1" class="mark-rule role-axis-grid" pointer-events="none" aria-hidden="true" fill="none" stroke-miterlimit="10" role="graphics-object" aria-roledescription="group mark container" version="1.1" width="527" height="262" viewBox="0 0 527 262"/>
<line transform="translate(-5.8046875, 121.87447854368502) translate(42.0,57.0) translate(0.5,0.5) translate(0,30)" x2="375" y2="0" stroke="#ddd" stroke-width="1" opacity="1" class="mark-rule role-axis-grid" pointer-events="none" aria-hidden="true" fill="none" stroke-miterlimit="10" role="graphics-object" aria-roledescription="group mark container" version="1.1" width="527" height="262" viewBox="0 0 527 262"/>
<line transform="translate(-5.8046875, 121.87447854368502) translate(42.0,57.0) translate(0.5,0.5) translate(0,50)" x2="375" y2="0" stroke="#ddd" stroke-width="1" opacity="1" class="mark-rule role-axis-grid" pointer-events="none" aria-hidden="true" fill="none" stroke-miterlimit="10" role="graphics-object" aria-roledescription="group mark container" version="1.1" width="527" height="262" viewBox="0 0 527 262"/>
<line transform="translate(-5.8046875, 121.87447854368502) translate(42.0,57.0) translate(0.5,0.5) translate(0,70)" x2="375" y2="0" stroke="#ddd" stroke-width="1" opacity="1" class="mark-rule role-axis-grid" pointer-events="none" aria-hidden="true" fill="none" stroke-miterlimit="10" role="graphics-object" aria-roledescription="group mark container" version="1.1" width="527" height="262" viewBox="0 0 527 262"/>
<line transform="translate(-5.8046875, 121.87447854368502) translate(42.0,57.0) translate(0.5,0.5) translate(0,90)" x2="375" y2="0" stroke="#ddd" stroke-width="1" opacity="1" class="mark-rule role-axis-grid" pointer-events="none" aria-hidden="true" fill="none" stroke-miterlimit="10" role="graphics-object" aria-roledescription="group mark container" version="1.1" width="527" height="262" viewBox="0 0 527 262"/>
<line transform="translate(-5.8046875, 121.87447854368502) translate(42.0,57.0) translate(0.5,0.5) translate(0,109)" x2="375" y2="0" stroke="#ddd" stroke-width="1" opacity="1" class="mark-rule role-axis-grid" pointer-events="none" aria-hidden="true" fill="none" stroke-miterlimit="10" role="graphics-object" aria-roledescription="group mark container" version="1.1" width="527" height="262" viewBox="0 0 527 262"/>
<line transform="translate(-5.8046875, 121.87447854368502) translate(42.0,57.0) translate(0.5,0.5) translate(0,129)" x2="375" y2="0" stroke="#ddd" stroke-width="1" opacity="1" class="mark-rule role-axis-grid" pointer-events="none" aria-hidden="true" fill="none" stroke-miterlimit="10" role="graphics-object" aria-roledescription="group mark container" version="1.1" width="527" height="262" viewBox="0 0 527 262"/>
<line transform="translate(-5.8046875, 121.87447854368502) translate(42.0,57.0) translate(0.5,0.5) translate(0,149)" x2="375" y2="0" stroke="#ddd" stroke-width="1" opacity="1" class="mark-rule role-axis-grid" pointer-events="none" aria-hidden="true" fill="none" stroke-miterlimit="10" role="graphics-object" aria-roledescription="group mark container" version="1.1" width="527" height="262" viewBox="0 0 527 262"/>
<line transform="translate(-5.8046875, 121.87447854368502) translate(42.0,57.0) translate(0.5,0.5) translate(0,169)" x2="375" y2="0" stroke="#ddd" stroke-width="1" opacity="1" class="mark-rule role-axis-grid" pointer-events="none" aria-hidden="true" fill="none" stroke-miterlimit="10" role="graphics-object" aria-roledescription="group mark container" version="1.1" width="527" height="262" viewBox="0 0 527 262"/>
<line transform="translate(-5.8046875, 121.87447854368502) translate(42.0,57.0) translate(0.5,0.5) translate(0,189)" x2="375" y2="0" stroke="#ddd" stroke-width="1" opacity="1" class="mark-rule role-axis-grid" pointer-events="none" aria-hidden="true" fill="none" stroke-miterlimit="10" role="graphics-object" aria-roledescription="group mark container" version="1.1" width="527" height="262" viewBox="0 0 527 262"/>
<path transform="translate(-5.8046875, 121.87447854368502) translate(42.0,57.0) translate(0,-52) translate(0,0) translate(0,0) translate(6,6)" d="M-5,-5h10v10h-10Z" fill="#1c4562" stroke-width="1.5" opacity="1" class="mark-symbol role-legend-symbol" pointer-events="none" role="graphics-object" aria-roledescription="group mark container" aria-label="Symbol legend for fill color with 10 values: 2005, 2006, 2007, 2008, 2009, ending with 2014" stroke-miterlimit="10" version="1.1" width="527" height="262" viewBox="0 0 527 262"/>
<text text-anchor="start" transform="translate(-5.8046875, 121.87447854368502) translate(42.0,57.0) translate(0,-52) translate(0,0) translate(0,0) translate(16,9)" font-family="sans-serif" font-size="10px" fill="#000" opacity="1" class="mark-text role-legend-label" pointer-events="none" role="graphics-object" aria-roledescription="group mark container" aria-label="Symbol legend for fill color with 10 values: 2005, 2006, 2007, 2008, 2009, ending with 2014" stroke-miterlimit="10" version="1.1" width="527" height="262" viewBox="0 0 527 262">2005
</text>
<path transform="translate(-5.8046875, 121.87447854368502) translate(42.0,57.0) translate(0,-52) translate(0,0) translate(49,0) translate(6,6)" d="M-5,-5h10v10h-10Z" fill="#1c4562" stroke-width="1.5" opacity="1" class="mark-symbol role-legend-symbol" pointer-events="none" role="graphics-object" aria-roledescription="group mark container" aria-label="Symbol legend for fill color with 10 values: 2005, 2006, 2007, 2008, 2009, ending with 2014" stroke-miterlimit="10" version="1.1" width="527" height="262" viewBox="0 0 527 262"/>
<text text-anchor="start" transform="translate(-5.8046875, 121.87447854368502) translate(42.0,57.0) translate(0,-52) translate(0,0) translate(49,0) translate(16,9)" font-family="sans-serif" font-size="10px" fill="#000" opacity="1" class="mark-text role-legend-label" pointer-events="none" role="graphics-object" aria-roledescription="group mark container" aria-label="Symbol legend for fill color with 10 values: 2005, 2006, 2007, 2008, 2009, ending with 2014" stroke-miterlimit="10" version="1.1" width="527" height="262" viewBox="0 0 527 262">2006
</text>
<path transform="translate(-5.8046875, 121.87447854368502) translate(42.0,57.0) translate(0,-52) translate(0,0) translate(98,0) translate(6,6)" d="M-5,-5h10v10h-10Z" fill="#1c4562" stroke-width="1.5" opacity="1" class="mark-symbol role-legend-symbol" pointer-events="none" role="graphics-object" aria-roledescription="group mark container" aria-label="Symbol legend for fill color with 10 values: 2005, 2006, 2007, 2008, 2009, ending with 2014" stroke-miterlimit="10" version="1.1" width="527" height="262" viewBox="0 0 527 262"/>
<text text-anchor="start" transform="translate(-5.8046875, 121.87447854368502) translate(42.0,57.0) translate(0,-52) translate(0,0) translate(98,0) translate(16,9)" font-family="sans-serif" font-size="10px" fill="#000" opacity="1" class="mark-text role-legend-label" pointer-events="none" role="graphics-object" aria-roledescription="group mark container" aria-label="Symbol legend for fill color with 10 values: 2005, 2006, 2007, 2008, 2009, ending with 2014" stroke-miterlimit="10" version="1.1" width="527" height="262" viewBox="0 0 527 262">2007
</text>
<path transform="translate(-5.8046875, 121.87447854368502) translate(42.0,57.0) translate(0,-52) translate(0,0) translate(147,0) translate(6,6)" d="M-5,-5h10v10h-10Z" fill="#1c4562" stroke-width="1.5" opacity="1" class="mark-symbol role-legend-symbol" pointer-events="none" role="graphics-object" aria-roledescription="group mark container" aria-label="Symbol legend for fill color with 10 values: 2005, 2006, 2007, 2008, 2009, ending with 2014" stroke-miterlimit="10" version="1.1" width="527" height="262" viewBox="0 0 527 262"/>
<text text-anchor="start" transform="translate(-5.8046875, 121.87447854368502) translate(42.0,57.0) translate(0,-52) translate(0,0) translate(147,0) translate(16,9)" font-family="sans-serif" font-size="10px" fill="#000" opacity="1" class="mark-text role-legend-label" pointer-events="none" role="graphics-object" aria-roledescription="group mark container" aria-label="Symbol legend for fill color with 10 values: 2005, 2006, 2007, 2008, 2009, ending with 2014" stroke-miterlimit="10" version="1.1" width="527" height="262" viewBox="0 0 527 262">2008
</text>
<path transform="translate(-5.8046875, 121.87447854368502) translate(42.0,57.0) translate(0,-52) translate(0,0) translate(196,0) translate(6,6)" d="M-5,-5h10v10h-10Z" fill="#1c4562" stroke-width="1.5" opacity="1" class="mark-symbol role-legend-symbol" pointer-events="none" role="graphics-object" aria-roledescription="group mark container" aria-label="Symbol legend for fill color with 10 values: 2005, 2006, 2007, 2008, 2009, ending with 2014" stroke-miterlimit="10" version="1.1" width="527" height="262" viewBox="0 0 527 262"/>
<text text-anchor="start" transform="translate(-5.8046875, 121.87447854368502) translate(42.0,57.0) translate(0,-52) translate(0,0) translate(196,0) translate(16,9)" font-family="sans-serif" font-size="10px" fill="#000" opacity="1" class="mark-text role-legend-label" pointer-events="none" role="graphics-object" aria-roledescription="group mark container" aria-label="Symbol legend for fill color with 10 values: 2005, 2006, 2007, 2008, 2009, ending with 2014" stroke-miterlimit="10" version="1.1" width="527" height="262" viewBox="0 0 527 262">2009
</text>
<path transform="translate(-5.8046875, 121.87447854368502) translate(42.0,57.0) translate(0,-52) translate(0,0) translate(245,0) translate(6,6)" d="M-5,-5h10v10h-10Z" fill="#1c4562" stroke-width="1.5" opacity="1" class="mark-symbol role-legend-symbol" pointer-events="none" role="graphics-object" aria-roledescription="group mark container" aria-label="Symbol legend for fill color with 10 values: 2005, 2006, 2007, 2008, 2009, ending with 2014" stroke-miterlimit="10" version="1.1" width="527" height="262" viewBox="0 0 527 262"/>
<text text-anchor="start" transform="translate(-5.8046875, 121.87447854368502) translate(42.0,57.0) translate(0,-52) translate(0,0) translate(245,0) translate(16,9)" font-family="sans-serif" font-size="10px" fill="#000" opacity="1" class="mark-text role-legend-label" pointer-events="none" role="graphics-object" aria-roledescription="group mark container" aria-label="Symbol legend for fill color with 10 values: 2005, 2006, 2007, 2008, 2009, ending with 2014" stroke-miterlimit="10" version="1.1" width="527" height="262" viewBox="0 0 527 262">2010
</text>
<path transform="translate(-5.8046875, 121.87447854368502) translate(42.0,57.0) translate(0,-52) translate(0,0) translate(294,0) translate(6,6)" d="M-5,-5h10v10h-10Z" fill="#1c4562" stroke-width="1.5" opacity="1" class="mark-symbol role-legend-symbol" pointer-events="none" role="graphics-object" aria-roledescription="group mark container" aria-label="Symbol legend for fill color with 10 values: 2005, 2006, 2007, 2008, 2009, ending with 2014" stroke-miterlimit="10" version="1.1" width="527" height="262" viewBox="0 0 527 262"/>
<text text-anchor="start" transform="translate(-5.8046875, 121.87447854368502) translate(42.0,57.0) translate(0,-52) translate(0,0) translate(294,0) translate(16,9)" font-family="sans-serif" font-size="10px" fill="#000" opacity="1" class="mark-text role-legend-label" pointer-events="none" role="graphics-object" aria-roledescription="group mark container" aria-label="Symbol legend for fill color with 10 values: 2005, 2006, 2007, 2008, 2009, ending with 2014" stroke-miterlimit="10" version="1.1" width="527" height="262" viewBox="0 0 527 262">2011
</text>
<path transform="translate(-5.8046875, 121.87447854368502) translate(42.0,57.0) translate(0,-52) translate(0,0) translate(343,0) translate(6,6)" d="M-5,-5h10v10h-10Z" fill="#1c4562" stroke-width="1.5" opacity="1" class="mark-symbol role-legend-symbol" pointer-events="none" role="graphics-object" aria-roledescription="group mark container" aria-label="Symbol legend for fill color with 10 values: 2005, 2006, 2007, 2008, 2009, ending with 2014" stroke-miterlimit="10" version="1.1" width="527" height="262" viewBox="0 0 527 262"/>
<text text-anchor="start" transform="translate(-5.8046875, 121.87447854368502) translate(42.0,57.0) translate(0,-52) translate(0,0) translate(343,0) translate(16,9)" font-family="sans-serif" font-size="10px" fill="#000" opacity="1" class="mark-text role-legend-label" pointer-events="none" role="graphics-object" aria-roledescription="group mark container" aria-label="Symbol legend for fill color with 10 values: 2005, 2006, 2007, 2008, 2009, ending with 2014" stroke-miterlimit="10" version="1.1" width="527" height="262" viewBox="0 0 527 262">2012
</text>
<path transform="translate(-5.8046875, 121.87447854368502) translate(42.0,57.0) translate(0,-52) translate(0,0) translate(392,0) translate(6,6)" d="M-5,-5h10v10h-10Z" fill="#1c4562" stroke-width="1.5" opacity="1" class="mark-symbol role-legend-symbol" pointer-events="none" role="graphics-object" aria-roledescription="group mark container" aria-label="Symbol legend for fill color with 10 values: 2005, 2006, 2007, 2008, 2009, ending with 2014" stroke-miterlimit="10" version="1.1" width="527" height="262" viewBox="0 0 527 262"/>
<text text-anchor="start" transform="translate(-5.8046875, 121.87447854368502) translate(42.0,57.0) translate(0,-52) translate(0,0) translate(392,0) translate(16,9)" font-family="sans-serif" font-size="10px" fill="#000" opacity="1" class="mark-text role-legend-label" pointer-events="none" role="graphics-object" aria-roledescription="group mark container" aria-label="Symbol legend for fill color with 10 values: 2005, 2006, 2007, 2008, 2009, ending with 2014" stroke-miterlimit="10" version="1.1" width="527" height="262" viewBox="0 0 527 262">2013
</text>
<path transform="translate(-5.8046875, 121.87447854368502) translate(42.0,57.0) translate(0,-52) translate(0,0) translate(441,0) translate(6,6)" d="M-5,-5h10v10h-10Z" fill="#1c4562" stroke-width="1.5" opacity="1" class="mark-symbol role-legend-symbol" pointer-events="none" role="graphics-object" aria-roledescription="group mark container" aria-label="Symbol legend for fill color with 10 values: 2005, 2006, 2007, 2008, 2009, ending with 2014" stroke-miterlimit="10" version="1.1" width="527" height="262" viewBox="0 0 527 262"/>
<text text-anchor="start" transform="translate(-5.8046875, 121.87447854368502) translate(42.0,57.0) translate(0,-52) translate(0,0) translate(441,0) translate(16,9)" font-family="sans-serif" font-size="10px" fill="#000" opacity="1" class="mark-text role-legend-label" pointer-events="none" role="graphics-object" aria-roledescription="group mark container" aria-label="Symbol legend for fill color with 10 values: 2005, 2006, 2007, 2008, 2009, ending with 2014" stroke-miterlimit="10" version="1.1" width="527" height="262" viewBox="0 0 527 262">2014
</text>
<line transform="translate(-5.8046875, 121.87447854368502) translate(42.0,57.0) translate(0.5,0.5) translate(0,0)" x2="0" y2="-5" stroke="#0f223b" stroke-width="1" opacity="1" fill="none" stroke-miterlimit="10" class="mark-rule role-axis-tick" role="graphics-symbol" aria-roledescription="axis" version="1.1" width="527" height="262" viewBox="0 0 527 262" aria-label="X-axis for a linear scale with values from 0 to 550" pointer-events="none"/>
<line transform="translate(-5.8046875, 121.87447854368502) translate(42.0,57.0) translate(0.5,0.5) translate(34,0)" x2="0" y2="-5" stroke="#0f223b" stroke-width="1" opacity="1" fill="none" stroke-miterlimit="10" class="mark-rule role-axis-tick" role="graphics-symbol" aria-roledescription="axis" version="1.1" width="527" height="262" viewBox="0 0 527 262" aria-label="X-axis for a linear scale with values from 0 to 550" pointer-events="none"/>
<line transform="translate(-5.8046875, 121.87447854368502) translate(42.0,57.0) translate(0.5,0.5) translate(68,0)" x2="0" y2="-5" stroke="#0f223b" stroke-width="1" opacity="1" fill="none" stroke-miterlimit="10" class="mark-rule role-axis-tick" role="graphics-symbol" aria-roledescription="axis" version="1.1" width="527" height="262" viewBox="0 0 527 262" aria-label="X-axis for a linear scale with values from 0 to 550" pointer-events="none"/>
<line transform="translate(-5.8046875, 121.87447854368502) translate(42.0,57.0) translate(0.5,0.5) translate(102,0)" x2="0" y2="-5" stroke="#0f223b" stroke-width="1" opacity="1" fill="none" stroke-miterlimit="10" class="mark-rule role-axis-tick" role="graphics-symbol" aria-roledescription="axis" version="1.1" width="527" height="262" viewBox="0 0 527 262" aria-label="X-axis for a linear scale with values from 0 to 550" pointer-events="none"/>
<line transform="translate(-5.8046875, 121.87447854368502) translate(42.0,57.0) translate(0.5,0.5) translate(136,0)" x2="0" y2="-5" stroke="#0f223b" stroke-width="1" opacity="1" fill="none" stroke-miterlimit="10" class="mark-rule role-axis-tick" role="graphics-symbol" aria-roledescription="axis" version="1.1" width="527" height="262" viewBox="0 0 527 262" aria-label="X-axis for a linear scale with values from 0 to 550" pointer-events="none"/>
<line transform="translate(-5.8046875, 121.87447854368502) translate(42.0,57.0) translate(0.5,0.5) translate(170,0)" x2="0" y2="-5" stroke="#0f223b" stroke-width="1" opacity="1" fill="none" stroke-miterlimit="10" class="mark-rule role-axis-tick" role="graphics-symbol" aria-roledescription="axis" version="1.1" width="527" height="262" viewBox="0 0 527 262" aria-label="X-axis for a linear scale with values from 0 to 550" pointer-events="none"/>
<line transform="translate(-5.8046875, 121.87447854368502) translate(42.0,57.0) translate(0.5,0.5) translate(205,0)" x2="0" y2="-5" stroke="#0f223b" stroke-width="1" opacity="1" fill="none" stroke-miterlimit="10" class="mark-rule role-axis-tick" role="graphics-symbol" aria-roledescription="axis" version="1.1" width="527" height="262" viewBox="0 0 527 262" aria-label="X-axis for a linear scale with values from 0 to 550" pointer-events="none"/>
<line transform="translate(-5.8046875, 121.87447854368502) translate(42.0,57.0) translate(0.5,0.5) translate(239,0)" x2="0" y2="-5" stroke="#0f223b" stroke-width="1" opacity="1" fill="none" stroke-miterlimit="10" class="mark-rule role-axis-tick" role="graphics-symbol" aria-roledescription="axis" version="1.1" width="527" height="262" viewBox="0 0 527 262" aria-label="X-axis for a linear scale with values from 0 to 550" pointer-events="none"/>
<line transform="translate(-5.8046875, 121.87447854368502) translate(42.0,57.0) translate(0.5,0.5) translate(273,0)" x2="0" y2="-5" stroke="#0f223b" stroke-width="1" opacity="1" fill="none" stroke-miterlimit="10" class="mark-rule role-axis-tick" role="graphics-symbol" aria-roledescription="axis" version="1.1" width="527" height="262" viewBox="0 0 527 262" aria-label="X-axis for a linear scale with values from 0 to 550" pointer-events="none"/>
<line transform="translate(-5.8046875, 121.87447854368502) translate(42.0,57.0) translate(0.5,0.5) translate(307,0)" x2="0" y2="-5" stroke="#0f223b" stroke-width="1" opacity="1" fill="none" stroke-miterlimit="10" class="mark-rule role-axis-tick" role="graphics-symbol" aria-roledescription="axis" version="1.1" width="527" height="262" viewBox="0 0 527 262" aria-label="X-axis for a linear scale with values from 0 to 550" pointer-events="none"/>
<line transform="translate(-5.8046875, 121.87447854368502) translate(42.0,57.0) translate(0.5,0.5) translate(341,0)" x2="0" y2="-5" stroke="#0f223b" stroke-width="1" opacity="1" fill="none" stroke-miterlimit="10" class="mark-rule role-axis-tick" role="graphics-symbol" aria-roledescription="axis" version="1.1" width="527" height="262" viewBox="0 0 527 262" aria-label="X-axis for a linear scale with values from 0 to 550" pointer-events="none"/>
<line transform="translate(-5.8046875, 121.87447854368502) translate(42.0,57.0) translate(0.5,0.5) translate(375,0)" x2="0" y2="-5" stroke="#0f223b" stroke-width="1" opacity="1" fill="none" stroke-miterlimit="10" class="mark-rule role-axis-tick" role="graphics-symbol" aria-roledescription="axis" version="1.1" width="527" height="262" viewBox="0 0 527 262" aria-label="X-axis for a linear scale with values from 0 to 550" pointer-events="none"/>
<text text-anchor="start" transform="translate(-5.8046875, 121.87447854368502) translate(42.0,57.0) translate(0.5,0.5) translate(0,-13)" font-family="sans-serif" font-size="12px" fill="#000d2a" opacity="1" stroke-miterlimit="10" class="mark-text role-axis-label" role="graphics-symbol" aria-roledescription="axis" version="1.1" width="527" height="262" viewBox="0 0 527 262" aria-label="X-axis for a linear scale with values from 0 to 550" pointer-events="none">0
</text>
<text text-anchor="middle" transform="translate(-5.8046875, 121.87447854368502) translate(42.0,57.0) translate(0.5,0.5) translate(34.09090909090909,-13)" font-family="sans-serif" font-size="12px" fill="#000d2a" opacity="1" stroke-miterlimit="10" class="mark-text role-axis-label" role="graphics-symbol" aria-roledescription="axis" version="1.1" width="527" height="262" viewBox="0 0 527 262" aria-label="X-axis for a linear scale with values from 0 to 550" pointer-events="none">50
</text>
<text text-anchor="middle" transform="translate(-5.8046875, 121.87447854368502) translate(42.0,57.0) translate(0.5,0.5) translate(68.18181818181819,-13)" font-family="sans-serif" font-size="12px" fill="#000d2a" opacity="1" stroke-miterlimit="10" class="mark-text role-axis-label" role="graphics-symbol" aria-roledescription="axis" version="1.1" width="527" height="262" viewBox="0 0 527 262" aria-label="X-axis for a linear scale with values from 0 to 550" pointer-events="none">100
</text>
<text text-anchor="middle" transform="translate(-5.8046875, 121.87447854368502) translate(42.0,57.0) translate(0.5,0.5) translate(102.27272727272727,-13)" font-family="sans-serif" font-size="12px" fill="#000d2a" opacity="1" stroke-miterlimit="10" class="mark-text role-axis-label" role="graphics-symbol" aria-roledescription="axis" version="1.1" width="527" height="262" viewBox="0 0 527 262" aria-label="X-axis for a linear scale with values from 0 to 550" pointer-events="none">150
</text>
<text text-anchor="middle" transform="translate(-5.8046875, 121.87447854368502) translate(42.0,57.0) translate(0.5,0.5) translate(136.36363636363637,-13)" font-family="sans-serif" font-size="12px" fill="#000d2a" opacity="1" stroke-miterlimit="10" class="mark-text role-axis-label" role="graphics-symbol" aria-roledescription="axis" version="1.1" width="527" height="262" viewBox="0 0 527 262" aria-label="X-axis for a linear scale with values from 0 to 550" pointer-events="none">200
</text>
<text text-anchor="middle" transform="translate(-5.8046875, 121.87447854368502) translate(42.0,57.0) translate(0.5,0.5) translate(170.45454545454544,-13)" font-family="sans-serif" font-size="12px" fill="#000d2a" opacity="1" stroke-miterlimit="10" class="mark-text role-axis-label" role="graphics-symbol" aria-roledescription="axis" version="1.1" width="527" height="262" viewBox="0 0 527 262" aria-label="X-axis for a linear scale with values from 0 to 550" pointer-events="none">250
</text>
<text text-anchor="middle" transform="translate(-5.8046875, 121.87447854368502) translate(42.0,57.0) translate(0.5,0.5) translate(204.54545454545453,-13)" font-family="sans-serif" font-size="12px" fill="#000d2a" opacity="1" stroke-miterlimit="10" class="mark-text role-axis-label" role="graphics-symbol" aria-roledescription="axis" version="1.1" width="527" height="262" viewBox="0 0 527 262" aria-label="X-axis for a linear scale with values from 0 to 550" pointer-events="none">300
</text>
<text text-anchor="middle" transform="translate(-5.8046875, 121.87447854368502) translate(42.0,57.0) translate(0.5,0.5) translate(238.63636363636363,-13)" font-family="sans-serif" font-size="12px" fill="#000d2a" opacity="1" stroke-miterlimit="10" class="mark-text role-axis-label" role="graphics-symbol" aria-roledescription="axis" version="1.1" width="527" height="262" viewBox="0 0 527 262" aria-label="X-axis for a linear scale with values from 0 to 550" pointer-events="none">350
</text>
<text text-anchor="middle" transform="translate(-5.8046875, 121.87447854368502) translate(42.0,57.0) translate(0.5,0.5) translate(272.72727272727275,-13)" font-family="sans-serif" font-size="12px" fill="#000d2a" opacity="1" stroke-miterlimit="10" class="mark-text role-axis-label" role="graphics-symbol" aria-roledescription="axis" version="1.1" width="527" height="262" viewBox="0 0 527 262" aria-label="X-axis for a linear scale with values from 0 to 550" pointer-events="none">400
</text>
<text text-anchor="middle" transform="translate(-5.8046875, 121.87447854368502) translate(42.0,57.0) translate(0.5,0.5) translate(306.8181818181818,-13)" font-family="sans-serif" font-size="12px" fill="#000d2a" opacity="1" stroke-miterlimit="10" class="mark-text role-axis-label" role="graphics-symbol" aria-roledescription="axis" version="1.1" width="527" height="262" viewBox="0 0 527 262" aria-label="X-axis for a linear scale with values from 0 to 550" pointer-events="none">450
</text>
<text text-anchor="middle" transform="translate(-5.8046875, 121.87447854368502) translate(42.0,57.0) translate(0.5,0.5) translate(340.9090909090909,-13)" font-family="sans-serif" font-size="12px" fill="#000d2a" opacity="1" stroke-miterlimit="10" class="mark-text role-axis-label" role="graphics-symbol" aria-roledescription="axis" version="1.1" width="527" height="262" viewBox="0 0 527 262" aria-label="X-axis for a linear scale with values from 0 to 550" pointer-events="none">500
</text>
<text text-anchor="end" transform="translate(-5.8046875, 121.87447854368502) translate(42.0,57.0) translate(0.5,0.5) translate(375,-13)" font-family="sans-serif" font-size="12px" fill="#000d2a" opacity="1" stroke-miterlimit="10" class="mark-text role-axis-label" role="graphics-symbol" aria-roledescription="axis" version="1.1" width="527" height="262" viewBox="0 0 527 262" aria-label="X-axis for a linear scale with values from 0 to 550" pointer-events="none">550
</text>
<line transform="translate(-5.8046875, 121.87447854368502) translate(42.0,57.0) translate(0.5,0.5) translate(0,0)" x2="375" y2="0" stroke="#0f223b" stroke-width="1" opacity="1" fill="none" stroke-miterlimit="10" class="mark-rule role-axis-domain" role="graphics-symbol" aria-roledescription="axis" version="1.1" width="527" height="262" viewBox="0 0 527 262" aria-label="X-axis for a linear scale with values from 0 to 550" pointer-events="none"/>
<line transform="translate(-5.8046875, 121.87447854368502) translate(42.0,57.0) translate(0.5,0.5) translate(0,10)" x2="-5" y2="0" stroke="#0f223b" stroke-width="1" opacity="1" fill="none" stroke-miterlimit="10" class="mark-rule role-axis-tick" role="graphics-symbol" aria-roledescription="axis" version="1.1" width="527" height="262" viewBox="0 0 527 262" aria-label="Y-axis for a discrete scale with 10 values: 2005, 2006, 2007, 2008, 2009, ending with 2014" pointer-events="none"/>
<line transform="translate(-5.8046875, 121.87447854368502) translate(42.0,57.0) translate(0.5,0.5) translate(0,30)" x2="-5" y2="0" stroke="#0f223b" stroke-width="1" opacity="1" fill="none" stroke-miterlimit="10" class="mark-rule role-axis-tick" role="graphics-symbol" aria-roledescription="axis" version="1.1" width="527" height="262" viewBox="0 0 527 262" aria-label="Y-axis for a discrete scale with 10 values: 2005, 2006, 2007, 2008, 2009, ending with 2014" pointer-events="none"/>
<line transform="translate(-5.8046875, 121.87447854368502) translate(42.0,57.0) translate(0.5,0.5) translate(0,50)" x2="-5" y2="0" stroke="#0f223b" stroke-width="1" opacity="1" fill="none" stroke-miterlimit="10" class="mark-rule role-axis-tick" role="graphics-symbol" aria-roledescription="axis" version="1.1" width="527" height="262" viewBox="0 0 527 262" aria-label="Y-axis for a discrete scale with 10 values: 2005, 2006, 2007, 2008, 2009, ending with 2014" pointer-events="none"/>
<line transform="translate(-5.8046875, 121.87447854368502) translate(42.0,57.0) translate(0.5,0.5) translate(0,70)" x2="-5" y2="0" stroke="#0f223b" stroke-width="1" opacity="1" fill="none" stroke-miterlimit="10" class="mark-rule role-axis-tick" role="graphics-symbol" aria-roledescription="axis" version="1.1" width="527" height="262" viewBox="0 0 527 262" aria-label="Y-axis for a discrete scale with 10 values: 2005, 2006, 2007, 2008, 2009, ending with 2014" pointer-events="none"/>
<line transform="translate(-5.8046875, 121.87447854368502) translate(42.0,57.0) translate(0.5,0.5) translate(0,90)" x2="-5" y2="0" stroke="#0f223b" stroke-width="1" opacity="1" fill="none" stroke-miterlimit="10" class="mark-rule role-axis-tick" role="graphics-symbol" aria-roledescription="axis" version="1.1" width="527" height="262" viewBox="0 0 527 262" aria-label="Y-axis for a discrete scale with 10 values: 2005, 2006, 2007, 2008, 2009, ending with 2014" pointer-events="none"/>
<line transform="translate(-5.8046875, 121.87447854368502) translate(42.0,57.0) translate(0.5,0.5) translate(0,109)" x2="-5" y2="0" stroke="#0f223b" stroke-width="1" opacity="1" fill="none" stroke-miterlimit="10" class="mark-rule role-axis-tick" role="graphics-symbol" aria-roledescription="axis" version="1.1" width="527" height="262" viewBox="0 0 527 262" aria-label="Y-axis for a discrete scale with 10 values: 2005, 2006, 2007, 2008, 2009, ending with 2014" pointer-events="none"/>
<line transform="translate(-5.8046875, 121.87447854368502) translate(42.0,57.0) translate(0.5,0.5) translate(0,129)" x2="-5" y2="0" stroke="#0f223b" stroke-width="1" opacity="1" fill="none" stroke-miterlimit="10" class="mark-rule role-axis-tick" role="graphics-symbol" aria-roledescription="axis" version="1.1" width="527" height="262" viewBox="0 0 527 262" aria-label="Y-axis for a discrete scale with 10 values: 2005, 2006, 2007, 2008, 2009, ending with 2014" pointer-events="none"/>
<line transform="translate(-5.8046875, 121.87447854368502) translate(42.0,57.0) translate(0.5,0.5) translate(0,149)" x2="-5" y2="0" stroke="#0f223b" stroke-width="1" opacity="1" fill="none" stroke-miterlimit="10" class="mark-rule role-axis-tick" role="graphics-symbol" aria-roledescription="axis" version="1.1" width="527" height="262" viewBox="0 0 527 262" aria-label="Y-axis for a discrete scale with 10 values: 2005, 2006, 2007, 2008, 2009, ending with 2014" pointer-events="none"/>
<line transform="translate(-5.8046875, 121.87447854368502) translate(42.0,57.0) translate(0.5,0.5) translate(0,169)" x2="-5" y2="0" stroke="#0f223b" stroke-width="1" opacity="1" fill="none" stroke-miterlimit="10" class="mark-rule role-axis-tick" role="graphics-symbol" aria-roledescription="axis" version="1.1" width="527" height="262" viewBox="0 0 527 262" aria-label="Y-axis for a discrete scale with 10 values: 2005, 2006, 2007, 2008, 2009, ending with 2014" pointer-events="none"/>
<line transform="translate(-5.8046875, 121.87447854368502) translate(42.0,57.0) translate(0.5,0.5) translate(0,189)" x2="-5" y2="0" stroke="#0f223b" stroke-width="1" opacity="1" fill="none" stroke-miterlimit="10" class="mark-rule role-axis-tick" role="graphics-symbol" aria-roledescription="axis" version="1.1" width="527" height="262" viewBox="0 0 527 262" aria-label="Y-axis for a discrete scale with 10 values: 2005, 2006, 2007, 2008, 2009, ending with 2014" pointer-events="none"/>
<text text-anchor="end" transform="translate(-5.8046875, 121.87447854368502) translate(42.0,57.0) translate(0.5,0.5) translate(-10,14.391089108910887)" font-family="sans-serif" font-size="12px" fill="#000d2a" opacity="1" stroke-miterlimit="10" class="mark-text role-axis-label" role="graphics-symbol" aria-roledescription="axis" version="1.1" width="527" height="262" viewBox="0 0 527 262" aria-label="Y-axis for a discrete scale with 10 values: 2005, 2006, 2007, 2008, 2009, ending with 2014" pointer-events="none" x="0.0" y="0.0">2005
</text>
<text text-anchor="end" transform="translate(-5.8046875, 121.87447854368502) translate(42.0,57.0) translate(0.5,0.5) translate(-10,34.19306930693069)" font-family="sans-serif" font-size="12px" fill="#000d2a" opacity="1" stroke-miterlimit="10" class="mark-text role-axis-label" role="graphics-symbol" aria-roledescription="axis" version="1.1" width="527" height="262" viewBox="0 0 527 262" aria-label="Y-axis for a discrete scale with 10 values: 2005, 2006, 2007, 2008, 2009, ending with 2014" pointer-events="none" x="0.0" y="0.0">2006
</text>
<text text-anchor="end" transform="translate(-5.8046875, 121.87447854368502) translate(42.0,57.0) translate(0.5,0.5) translate(-10,53.99504950495049)" font-family="sans-serif" font-size="12px" fill="#000d2a" opacity="1" stroke-miterlimit="10" class="mark-text role-axis-label" role="graphics-symbol" aria-roledescription="axis" version="1.1" width="527" height="262" viewBox="0 0 527 262" aria-label="Y-axis for a discrete scale with 10 values: 2005, 2006, 2007, 2008, 2009, ending with 2014" pointer-events="none" x="0.0" y="0.0">2007
</text>
<text text-anchor="end" transform="translate(-5.8046875, 121.87447854368502) translate(42.0,57.0) translate(0.5,0.5) translate(-10,73.79702970297029)" font-family="sans-serif" font-size="12px" fill="#000d2a" opacity="1" stroke-miterlimit="10" class="mark-text role-axis-label" role="graphics-symbol" aria-roledescription="axis" version="1.1" width="527" height="262" viewBox="0 0 527 262" aria-label="Y-axis for a discrete scale with 10 values: 2005, 2006, 2007, 2008, 2009, ending with 2014" pointer-events="none" x="0.0" y="0.0">2008
</text>
<text text-anchor="end" transform="translate(-5.8046875, 121.87447854368502) translate(42.0,57.0) translate(0.5,0.5) translate(-10,93.5990099009901)" font-family="sans-serif" font-size="12px" fill="#000d2a" opacity="1" stroke-miterlimit="10" class="mark-text role-axis-label" role="graphics-symbol" aria-roledescription="axis" version="1.1" width="527" height="262" viewBox="0 0 527 262" aria-label="Y-axis for a discrete scale with 10 values: 2005, 2006, 2007, 2008, 2009, ending with 2014" pointer-events="none" x="0.0" y="0.0">2009
</text>
<text text-anchor="end" transform="translate(-5.8046875, 121.87447854368502) translate(42.0,57.0) translate(0.5,0.5) translate(-10,113.4009900990099)" font-family="sans-serif" font-size="12px" fill="#000d2a" opacity="1" stroke-miterlimit="10" class="mark-text role-axis-label" role="graphics-symbol" aria-roledescription="axis" version="1.1" width="527" height="262" viewBox="0 0 527 262" aria-label="Y-axis for a discrete scale with 10 values: 2005, 2006, 2007, 2008, 2009, ending with 2014" pointer-events="none" x="0.0" y="0.0">2010
</text>
<text text-anchor="end" transform="translate(-5.8046875, 121.87447854368502) translate(42.0,57.0) translate(0.5,0.5) translate(-10,133.20297029702968)" font-family="sans-serif" font-size="12px" fill="#000d2a" opacity="1" stroke-miterlimit="10" class="mark-text role-axis-label" role="graphics-symbol" aria-roledescription="axis" version="1.1" width="527" height="262" viewBox="0 0 527 262" aria-label="Y-axis for a discrete scale with 10 values: 2005, 2006, 2007, 2008, 2009, ending with 2014" pointer-events="none" x="0.0" y="0.0">2011
</text>
<text text-anchor="end" transform="translate(-5.8046875, 121.87447854368502) translate(42.0,57.0) translate(0.5,0.5) translate(-10,153.00495049504948)" font-family="sans-serif" font-size="12px" fill="#000d2a" opacity="1" stroke-miterlimit="10" class="mark-text role-axis-label" role="graphics-symbol" aria-roledescription="axis" version="1.1" width="527" height="262" viewBox="0 0 527 262" aria-label="Y-axis for a discrete scale with 10 values: 2005, 2006, 2007, 2008, 2009, ending with 2014" pointer-events="none" x="0.0" y="0.0">2012
</text>
<text text-anchor="end" transform="translate(-5.8046875, 121.87447854368502) translate(42.0,57.0) translate(0.5,0.5) translate(-10,172.8069306930693)" font-family="sans-serif" font-size="12px" fill="#000d2a" opacity="1" stroke-miterlimit="10" class="mark-text role-axis-label" role="graphics-symbol" aria-roledescription="axis" version="1.1" width="527" height="262" viewBox="0 0 527 262" aria-label="Y-axis for a discrete scale with 10 values: 2005, 2006, 2007, 2008, 2009, ending with 2014" pointer-events="none" x="0.0" y="0.0">2013
</text>
<text text-anchor="end" transform="translate(-5.8046875, 121.87447854368502) translate(42.0,57.0) translate(0.5,0.5) translate(-10,192.6089108910891)" font-family="sans-serif" font-size="12px" fill="#000d2a" opacity="1" stroke-miterlimit="10" class="mark-text role-axis-label" role="graphics-symbol" aria-roledescription="axis" version="1.1" width="527" height="262" viewBox="0 0 527 262" aria-label="Y-axis for a discrete scale with 10 values: 2005, 2006, 2007, 2008, 2009, ending with 2014" pointer-events="none" x="0.0" y="0.0">2014
</text>
<line transform="translate(-5.8046875, 121.87447854368502) translate(42.0,57.0) translate(0.5,0.5) translate(0,0)" x2="0" y2="200" stroke="#0f223b" stroke-width="1" opacity="1" fill="none" stroke-miterlimit="10" class="mark-rule role-axis-domain" role="graphics-symbol" aria-roledescription="axis" version="1.1" width="527" height="262" viewBox="0 0 527 262" aria-label="Y-axis for a discrete scale with 10 values: 2005, 2006, 2007, 2008, 2009, ending with 2014" pointer-events="none"/>
<path aria-label="Units: 491; Year: 2005" role="graphics-symbol" aria-roledescription="bar" d="M0,3.762376237623757h334.77272727272725v14.25742574257426h-334.77272727272725Z" fill="#1c4562" opacity="1" stroke-miterlimit="10" class="mark-rect role-mark layer_0_marks" version="1.1" width="527" height="262" viewBox="0 0 527 262" transform="translate(-5.8046875, 121.87447854368502) translate(42.0,57.0)"/>
<path aria-label="Units: 463; Year: 2006" role="graphics-symbol" aria-roledescription="bar" d="M0,23.56435643564356h315.6818181818182v14.25742574257426h-315.6818181818182Z" fill="#1c4562" opacity="1" stroke-miterlimit="10" class="mark-rect role-mark layer_0_marks" version="1.1" width="527" height="262" viewBox="0 0 527 262" transform="translate(-5.8046875, 121.87447854368502) translate(42.0,57.0)"/>
<path aria-label="Units: 514; Year: 2007" role="graphics-symbol" aria-roledescription="bar" d="M0,43.36633663366336h350.45454545454544v14.25742574257426h-350.45454545454544Z" fill="#1c4562" opacity="1" stroke-miterlimit="10" class="mark-rect role-mark layer_0_marks" version="1.1" width="527" height="262" viewBox="0 0 527 262" transform="translate(-5.8046875, 121.87447854368502) translate(42.0,57.0)"/>
<path aria-label="Units: 515; Year: 2008" role="graphics-symbol" aria-roledescription="bar" d="M0,63.16831683168316h351.1363636363636v14.25742574257426h-351.1363636363636Z" fill="#1c4562" opacity="1" stroke-miterlimit="10" class="mark-rect role-mark layer_0_marks" version="1.1" width="527" height="262" viewBox="0 0 527 262" transform="translate(-5.8046875, 121.87447854368502) translate(42.0,57.0)"/>
<path aria-label="Units: 348; Year: 2009" role="graphics-symbol" aria-roledescription="bar" d="M0,82.97029702970296h237.27272727272725v14.25742574257426h-237.27272727272725Z" fill="#1c4562" opacity="1" stroke-miterlimit="10" class="mark-rect role-mark layer_0_marks" version="1.1" width="527" height="262" viewBox="0 0 527 262" transform="translate(-5.8046875, 121.87447854368502) translate(42.0,57.0)"/>
<path aria-label="Units: 510; Year: 2010" role="graphics-symbol" aria-roledescription="bar" d="M0,102.77227722772277h347.7272727272727v14.25742574257426h-347.7272727272727Z" fill="#1c4562" opacity="1" stroke-miterlimit="10" class="mark-rect role-mark layer_0_marks" version="1.1" width="527" height="262" viewBox="0 0 527 262" transform="translate(-5.8046875, 121.87447854368502) translate(42.0,57.0)"/>
<path aria-label="Units: 521; Year: 2011" role="graphics-symbol" aria-roledescription="bar" d="M0,122.57425742574256h355.22727272727275v14.25742574257426h-355.22727272727275Z" fill="#1c4562" opacity="1" stroke-miterlimit="10" class="mark-rect role-mark layer_0_marks" version="1.1" width="527" height="262" viewBox="0 0 527 262" transform="translate(-5.8046875, 121.87447854368502) translate(42.0,57.0)"/>
<path aria-label="Units: 482; Year: 2012" role="graphics-symbol" aria-roledescription="bar" d="M0,142.37623762376236h328.6363636363636v14.25742574257426h-328.6363636363636Z" fill="#1c4562" opacity="1" stroke-miterlimit="10" class="mark-rect role-mark layer_0_marks" version="1.1" width="527" height="262" viewBox="0 0 527 262" transform="translate(-5.8046875, 121.87447854368502) translate(42.0,57.0)"/>
<path aria-label="Units: 507; Year: 2013" role="graphics-symbol" aria-roledescription="bar" d="M0,162.17821782178217h345.6818181818182v14.25742574257426h-345.6818181818182Z" fill="#1c4562" opacity="1" stroke-miterlimit="10" class="mark-rect role-mark layer_0_marks" version="1.1" width="527" height="262" viewBox="0 0 527 262" transform="translate(-5.8046875, 121.87447854368502) translate(42.0,57.0)"/>
<path aria-label="Units: 523; Year: 2014" role="graphics-symbol" aria-roledescription="bar" d="M0,181.98019801980197h356.5909090909091v14.25742574257426h-356.5909090909091Z" fill="#1c4562" opacity="1" stroke-miterlimit="10" class="mark-rect role-mark layer_0_marks" version="1.1" width="527" height="262" viewBox="0 0 527 262" transform="translate(-5.8046875, 121.87447854368502) translate(42.0,57.0)"/></g></svg>