<svg width="600" height="600" xmlns="http://www.w3.org/2000/svg" xmlns:xlink="http://www.w3.org/1999/xlink" version="1.1" baseProfile="full" viewBox="0 0 600 600">
<rect width="600" height="600" x="0" y="0" id="0" fill="none"></rect>
<path d="M113.3333 180A33.3333 33.3333 0 0 1 136.1752 237.61L129.3227 230.327A23.3333 23.3333 0 0 0 113.3333 190Z" fill="#4269d0" stroke="none" stroke-width="0" stroke-linejoin="round"></path>
<path d="M136.1752 237.61A33.3333 33.3333 0 0 1 81.7853 224.096L91.2497 220.8672A23.3333 23.3333 0 0 0 129.3227 230.327Z" fill="#3ca951" stroke="none" stroke-width="0" stroke-linejoin="round"></path>
<path d="M81.7853 224.096A33.3333 33.3333 0 0 1 113.3333 180L113.3333 190A23.3333 23.3333 0 0 0 91.2497 220.8672Z" fill="#ff725c" stroke="none" stroke-width="0" stroke-linejoin="round"></path>
<path d="M300 180A33.3333 33.3333 0 0 1 329.3635 229.1097L320.5545 224.3768A23.3333 23.3333 0 0 0 300 190Z" fill="#4269d0" stroke="none" stroke-width="0" stroke-linejoin="round"></path>
<path d="M329.3635 229.1097A33.3333 33.3333 0 0 1 274.9912 235.3713L282.4939 228.7599A23.3333 23.3333 0 0 0 320.5545 224.3768Z" fill="#3ca951" stroke="none" stroke-width="0" stroke-linejoin="round"></path>
<path d="M274.9912 235.3713A33.3333 33.3333 0 0 1 300 180L300 190A23.3333 23.3333 0 0 0 282.4939 228.7599Z" fill="#ff725c" stroke="none" stroke-width="0" stroke-linejoin="round"></path>
<path d="M486.6667 180A33.3333 33.3333 0 0 1 519.9342 211.2403L509.954 211.8682A23.3333 23.3333 0 0 0 486.6667 190Z" fill="#4269d0" stroke="none" stroke-width="0" stroke-linejoin="round"></path>
<path d="M519.9342 211.2403A33.3333 33.3333 0 0 1 475.7044 244.8125L478.9931 235.3688A23.3333 23.3333 0 0 0 509.954 211.8682Z" fill="#3ca951" stroke="none" stroke-width="0" stroke-linejoin="round"></path>
<path d="M475.7044 244.8125A33.3333 33.3333 0 0 1 486.6667 180L486.6667 190A23.3333 23.3333 0 0 0 478.9931 235.3688Z" fill="#ff725c" stroke="none" stroke-width="0" stroke-linejoin="round"></path>
<path d="M113.3333 326.6667A33.3333 33.3333 0 0 1 146.212 354.5135L136.3484 356.1595A23.3333 23.3333 0 0 0 113.3333 336.6667Z" fill="#4269d0" stroke="none" stroke-width="0" stroke-linejoin="round"></path>
<path d="M146.212 354.5135A33.3333 33.3333 0 0 1 91.79 385.4361L98.253 377.8053A23.3333 23.3333 0 0 0 136.3484 356.1595Z" fill="#3ca951" stroke="none" stroke-width="0" stroke-linejoin="round"></path>
<path d="M91.79 385.4361A33.3333 33.3333 0 0 1 113.3333 326.6667L113.3333 336.6667A23.3333 23.3333 0 0 0 98.253 377.8053Z" fill="#ff725c" stroke="none" stroke-width="0" stroke-linejoin="round"></path>
<path d="M300 326.6667A33.3333 33.3333 0 0 1 326.9222 379.6546L318.8456 373.7582A23.3333 23.3333 0 0 0 300 336.6667Z" fill="#4269d0" stroke="none" stroke-width="0" stroke-linejoin="round"></path>
<path d="M326.9222 379.6546A33.3333 33.3333 0 0 1 274.0072 380.8683L281.805 374.6078A23.3333 23.3333 0 0 0 318.8456 373.7582Z" fill="#3ca951" stroke="none" stroke-width="0" stroke-linejoin="round"></path>
<path d="M274.0072 380.8683A33.3333 33.3333 0 0 1 300 326.6667L300 336.6667A23.3333 23.3333 0 0 0 281.805 374.6078Z" fill="#ff725c" stroke="none" stroke-width="0" stroke-linejoin="round"></path>
<path d="M486.6667 326.6667A33.3333 33.3333 0 0 1 503.9342 388.5121L498.754 379.9585A23.3333 23.3333 0 0 0 486.6667 336.6667Z" fill="#4269d0" stroke="none" stroke-width="0" stroke-linejoin="round"></path>
<path d="M503.9342 388.5121A33.3333 33.3333 0 0 1 453.5159 356.5157L463.4612 357.561A23.3333 23.3333 0 0 0 498.754 379.9585Z" fill="#3ca951" stroke="none" stroke-width="0" stroke-linejoin="round"></path>
<path d="M453.5159 356.5157A33.3333 33.3333 0 0 1 486.6667 326.6667L486.6667 336.6667A23.3333 23.3333 0 0 0 463.4612 357.561Z" fill="#ff725c" stroke="none" stroke-width="0" stroke-linejoin="round"></path>
<path d="M113.3333 473.3333A33.3333 33.3333 0 0 1 137.757 529.3514L130.4299 522.5459A23.3333 23.3333 0 0 0 113.3333 483.3333Z" fill="#4269d0" stroke="none" stroke-width="0" stroke-linejoin="round"></path>
<path d="M137.757 529.3514A33.3333 33.3333 0 0 1 80.1499 503.5087L90.1049 504.4561A23.3333 23.3333 0 0 0 130.4299 522.5459Z" fill="#3ca951" stroke="none" stroke-width="0" stroke-linejoin="round"></path>
<path d="M80.1499 503.5087A33.3333 33.3333 0 0 1 113.3333 473.3333L113.3333 483.3333A23.3333 23.3333 0 0 0 90.1049 504.4561Z" fill="#ff725c" stroke="none" stroke-width="0" stroke-linejoin="round"></path>
<path d="M300 473.3333A33.3333 33.3333 0 0 1 320.1895 533.1902L314.1326 525.2331A23.3333 23.3333 0 0 0 300 483.3333Z" fill="#4269d0" stroke="none" stroke-width="0" stroke-linejoin="round"></path>
<path d="M320.1895 533.1902A33.3333 33.3333 0 0 1 266.6681 506.3568L276.6677 506.4498A23.3333 23.3333 0 0 0 314.1326 525.2331Z" fill="#3ca951" stroke="none" stroke-width="0" stroke-linejoin="round"></path>
<path d="M266.6681 506.3568A33.3333 33.3333 0 0 1 300 473.3333L300 483.3333A23.3333 23.3333 0 0 0 276.6677 506.4498Z" fill="#ff725c" stroke="none" stroke-width="0" stroke-linejoin="round"></path>
<path d="M486.6667 473.3333A33.3333 33.3333 0 0 1 508.4954 531.8583L501.9468 524.3008A23.3333 23.3333 0 0 0 486.6667 483.3333Z" fill="#4269d0" stroke="none" stroke-width="0" stroke-linejoin="round"></path>
<path d="M508.4954 531.8583A33.3333 33.3333 0 0 1 454.6836 516.0578L464.2785 513.2404A23.3333 23.3333 0 0 0 501.9468 524.3008Z" fill="#3ca951" stroke="none" stroke-width="0" stroke-linejoin="round"></path>
<path d="M454.6836 516.0578A33.3333 33.3333 0 0 1 486.6667 473.3333L486.6667 483.3333A23.3333 23.3333 0 0 0 464.2785 513.2404Z" fill="#ff725c" stroke="none" stroke-width="0" stroke-linejoin="round"></path>
<text dominant-baseline="central" text-anchor="middle" style="font-size:16px;font-family:Arial;" transform="translate(142.4607 201.7846)" fill="white">4.9</text>
<text dominant-baseline="central" text-anchor="middle" style="font-size:16px;font-family:Arial;" transform="translate(105.7778 243.7421)" fill="white">4.1</text>
<text dominant-baseline="central" text-anchor="middle" style="font-size:16px;font-family:Arial;" transform="translate(87.8503 195.1018)" fill="white">3.9</text>
<text dominant-baseline="central" text-anchor="middle" style="font-size:16px;font-family:Arial;" transform="translate(326.8928 197.2537)" fill="white">4.5</text>
<text dominant-baseline="central" text-anchor="middle" style="font-size:16px;font-family:Arial;" transform="translate(303.5847 244.4609)" fill="white">4.2</text>
<text dominant-baseline="central" text-anchor="middle" style="font-size:16px;font-family:Arial;" transform="translate(271.4442 200.4359)" fill="white">5</text>
<text dominant-baseline="central" text-anchor="middle" style="font-size:16px;font-family:Arial;" transform="translate(508.1158 190.4923)" fill="white">3.6</text>
<text dominant-baseline="central" text-anchor="middle" style="font-size:16px;font-family:Arial;" transform="translate(505.6108 238.2913)" fill="white">4.7</text>
<text dominant-baseline="central" text-anchor="middle" style="font-size:16px;font-family:Arial;" transform="translate(455.7721 208.1079)" fill="white">6.7</text>
<text dominant-baseline="central" text-anchor="middle" style="font-size:16px;font-family:Arial;" transform="translate(133.584 336.09)" fill="white">3.4</text>
<text dominant-baseline="central" text-anchor="middle" style="font-size:16px;font-family:Arial;" transform="translate(128.8127 387.2428)" fill="white">5.9</text>
<text dominant-baseline="central" text-anchor="middle" style="font-size:16px;font-family:Arial;" transform="translate(83.9143 349.2158)" fill="white">5.9</text>
<text dominant-baseline="central" text-anchor="middle" style="font-size:16px;font-family:Arial;" transform="translate(327.9345 345.807)" fill="white">4.8</text>
<text dominant-baseline="central" text-anchor="middle" style="font-size:16px;font-family:Arial;" transform="translate(300.7185 391.3251)" fill="white">4</text>
<text dominant-baseline="central" text-anchor="middle" style="font-size:16px;font-family:Arial;" transform="translate(271.7474 346.4512)" fill="white">4.9</text>
<text dominant-baseline="central" text-anchor="middle" style="font-size:16px;font-family:Arial;" transform="translate(516.8458 351.5738)" fill="white">6.2</text>
<text dominant-baseline="central" text-anchor="middle" style="font-size:16px;font-family:Arial;" transform="translate(469.8774 386.4556)" fill="white">5.3</text>
<text dominant-baseline="central" text-anchor="middle" style="font-size:16px;font-family:Arial;" transform="translate(465.7006 336.7148)" fill="white">3.5</text>
<text dominant-baseline="central" text-anchor="middle" style="font-size:16px;font-family:Arial;" transform="translate(142.0554 494.1439)" fill="white">5.5</text>
<text dominant-baseline="central" text-anchor="middle" style="font-size:16px;font-family:Arial;" transform="translate(100.5085 535.2551)" fill="white">5.9</text>
<text dominant-baseline="central" text-anchor="middle" style="font-size:16px;font-family:Arial;" transform="translate(92.2529 483.4849)" fill="white">3.5</text>
<text dominant-baseline="central" text-anchor="middle" style="font-size:16px;font-family:Arial;" transform="translate(329.6899 496.6524)" fill="white">6.7</text>
<text dominant-baseline="central" text-anchor="middle" style="font-size:16px;font-family:Arial;" transform="translate(285.9569 534.6768)" fill="white">6</text>
<text dominant-baseline="central" text-anchor="middle" style="font-size:16px;font-family:Arial;" transform="translate(277.9472 484.4079)" fill="white">4.2</text>
<text dominant-baseline="central" text-anchor="middle" style="font-size:16px;font-family:Arial;" transform="translate(516.0244 495.7168)" fill="white">5.1</text>
<text dominant-baseline="central" text-anchor="middle" style="font-size:16px;font-family:Arial;" transform="translate(477.839 536.7308)" fill="white">4.2</text>
<text dominant-baseline="central" text-anchor="middle" style="font-size:16px;font-family:Arial;" transform="translate(461.583 487.8893)" fill="white">3.9</text>
<path d="M-5 -5l410.8359 0l0 26l-410.8359 0Z" transform="translate(99.582 65)" fill="rgb(0,0,0)" fill-opacity="0" stroke="#ccc" stroke-width="0"></path>
<path d="M3.5 0L21.5 0A3.5 3.5 0 0 1 25 3.5L25 10.5A3.5 3.5 0 0 1 21.5 14L3.5 14A3.5 3.5 0 0 1 0 10.5L0 3.5A3.5 3.5 0 0 1 3.5 0" transform="translate(99.582 66)" fill="#4269d0" stroke="none" stroke-width="0" stroke-linecap="butt" stroke-miterlimit="10" stroke-linejoin="round"></path>
<text dominant-baseline="central" text-anchor="start" style="font-size:16px;font-family:Arial;" x="30" y="7" transform="translate(99.582 66)" fill="#000000">General</text>
<path d="M3.5 0L21.5 0A3.5 3.5 0 0 1 25 3.5L25 10.5A3.5 3.5 0 0 1 21.5 14L3.5 14A3.5 3.5 0 0 1 0 10.5L0 3.5A3.5 3.5 0 0 1 3.5 0" transform="translate(196.5039 66)" fill="#3ca951" stroke="none" stroke-width="0" stroke-linecap="butt" stroke-miterlimit="10" stroke-linejoin="round"></path>
<text dominant-baseline="central" text-anchor="start" style="font-size:16px;font-family:Arial;" xml:space="preserve" x="30" y="7" transform="translate(196.5039 66)" fill="#000000">General excl. food &amp; fuel</text>
<path d="M3.5 0L21.5 0A3.5 3.5 0 0 1 25 3.5L25 10.5A3.5 3.5 0 0 1 21.5 14L3.5 14A3.5 3.5 0 0 1 0 10.5L0 3.5A3.5 3.5 0 0 1 3.5 0" transform="translate(411.7148 66)" fill="#ff725c" stroke="none" stroke-width="0" stroke-linecap="butt" stroke-miterlimit="10" stroke-linejoin="round"></path>
<text dominant-baseline="central" text-anchor="start" style="font-size:16px;font-family:Arial;" x="30" y="7" transform="translate(411.7148 66)" fill="#000000">Housing</text>
<path d="M-85.876 -5l171.752 0l0 38.0001l-171.752 0Z" transform="translate(300 15)" fill="rgb(0,0,0)" fill-opacity="0" stroke="#ccc" stroke-width="0"></path>
<path d="M-26 -29l51.4609 0l0 58l-51.4609 0Z" transform="translate(118.3333 218.3333)" fill="rgb(0,0,0)" fill-opacity="0" stroke="#ccc" stroke-width="0"></path>
<path d="M-26 -29l51.4609 0l0 58l-51.4609 0Z" transform="translate(305 218.3333)" fill="rgb(0,0,0)" fill-opacity="0" stroke="#ccc" stroke-width="0"></path>
<path d="M-26 -29l51.4609 0l0 58l-51.4609 0Z" transform="translate(491.6667 218.3333)" fill="rgb(0,0,0)" fill-opacity="0" stroke="#ccc" stroke-width="0"></path>
<path d="M-26 -29l51.4609 0l0 58l-51.4609 0Z" transform="translate(118.3333 365)" fill="rgb(0,0,0)" fill-opacity="0" stroke="#ccc" stroke-width="0"></path>
<path d="M-26 -29l51.4609 0l0 58l-51.4609 0Z" transform="translate(305 365)" fill="rgb(0,0,0)" fill-opacity="0" stroke="#ccc" stroke-width="0"></path>
<path d="M-26 -29l51.4609 0l0 58l-51.4609 0Z" transform="translate(491.6667 365)" fill="rgb(0,0,0)" fill-opacity="0" stroke="#ccc" stroke-width="0"></path>
<path d="M-26 -29l51.4609 0l0 58l-51.4609 0Z" transform="translate(118.3333 511.6667)" fill="rgb(0,0,0)" fill-opacity="0" stroke="#ccc" stroke-width="0"></path>
<path d="M-26 -29l51.4609 0l0 58l-51.4609 0Z" transform="translate(305 511.6667)" fill="rgb(0,0,0)" fill-opacity="0" stroke="#ccc" stroke-width="0"></path>
<path d="M-26 -29l51.4609 0l0 58l-51.4609 0Z" transform="translate(491.6667 511.6667)" fill="rgb(0,0,0)" fill-opacity="0" stroke="#ccc" stroke-width="0"></path>
<text dominant-baseline="central" text-anchor="middle" style="font-size:28px;font-family:Arial;font-weight:700;" xml:space="preserve" y="14.00006103515625" transform="translate(300 15)" fill="#000000">Donut Chart</text>
<path d="M-20.4609 -24l40.9219 0l0 48l-40.9219 0Z" transform="translate(118.3333 218.3333)" fill="none"></path>
<text dominant-baseline="central" text-anchor="middle" style="font-size:16px;font-family:Arial;font-weight:500;" y="-12" transform="translate(118.3333 218.3333)" fill="#000000">2015-</text>
<text dominant-baseline="central" text-anchor="middle" style="font-size:16px;font-family:Arial;font-weight:500;" y="12" transform="translate(118.3333 218.3333)" fill="#000000">2016</text>
<path d="M-20.4609 -24l40.9219 0l0 48l-40.9219 0Z" transform="translate(305 218.3333)" fill="none"></path>
<text dominant-baseline="central" text-anchor="middle" style="font-size:16px;font-family:Arial;font-weight:500;" y="-12" transform="translate(305 218.3333)" fill="#000000">2016-</text>
<text dominant-baseline="central" text-anchor="middle" style="font-size:16px;font-family:Arial;font-weight:500;" y="12" transform="translate(305 218.3333)" fill="#000000">2017</text>
<path d="M-20.4609 -24l40.9219 0l0 48l-40.9219 0Z" transform="translate(491.6667 218.3333)" fill="none"></path>
<text dominant-baseline="central" text-anchor="middle" style="font-size:16px;font-family:Arial;font-weight:500;" y="-12" transform="translate(491.6667 218.3333)" fill="#000000">2017-</text>
<text dominant-baseline="central" text-anchor="middle" style="font-size:16px;font-family:Arial;font-weight:500;" y="12" transform="translate(491.6667 218.3333)" fill="#000000">2018</text>
<path d="M-20.4609 -24l40.9219 0l0 48l-40.9219 0Z" transform="translate(118.3333 365)" fill="none"></path>
<text dominant-baseline="central" text-anchor="middle" style="font-size:16px;font-family:Arial;font-weight:500;" y="-12" transform="translate(118.3333 365)" fill="#000000">2018-</text>
<text dominant-baseline="central" text-anchor="middle" style="font-size:16px;font-family:Arial;font-weight:500;" y="12" transform="translate(118.3333 365)" fill="#000000">2019</text>
<path d="M-20.4609 -24l40.9219 0l0 48l-40.9219 0Z" transform="translate(305 365)" fill="none"></path>
<text dominant-baseline="central" text-anchor="middle" style="font-size:16px;font-family:Arial;font-weight:500;" y="-12" transform="translate(305 365)" fill="#000000">2019-</text>
<text dominant-baseline="central" text-anchor="middle" style="font-size:16px;font-family:Arial;font-weight:500;" y="12" transform="translate(305 365)" fill="#000000">2020</text>
<path d="M-20.4609 -24l40.9219 0l0 48l-40.9219 0Z" transform="translate(491.6667 365)" fill="none"></path>
<text dominant-baseline="central" text-anchor="middle" style="font-size:16px;font-family:Arial;font-weight:500;" y="-12" transform="translate(491.6667 365)" fill="#000000">2020-</text>
<text dominant-baseline="central" text-anchor="middle" style="font-size:16px;font-family:Arial;font-weight:500;" y="12" transform="translate(491.6667 365)" fill="#000000">2021</text>
<path d="M-20.4609 -24l40.9219 0l0 48l-40.9219 0Z" transform="translate(118.3333 511.6667)" fill="none"></path>
<text dominant-baseline="central" text-anchor="middle" style="font-size:16px;font-family:Arial;font-weight:500;" y="-12" transform="translate(118.3333 511.6667)" fill="#000000">2021-</text>
<text dominant-baseline="central" text-anchor="middle" style="font-size:16px;font-family:Arial;font-weight:500;" y="12" transform="translate(118.3333 511.6667)" fill="#000000">2022</text>
<path d="M-20.4609 -24l40.9219 0l0 48l-40.9219 0Z" transform="translate(305 511.6667)" fill="none"></path>
<text dominant-baseline="central" text-anchor="middle" style="font-size:16px;font-family:Arial;font-weight:500;" y="-12" transform="translate(305 511.6667)" fill="#000000">2022-</text>
<text dominant-baseline="central" text-anchor="middle" style="font-size:16px;font-family:Arial;font-weight:500;" y="12" transform="translate(305 511.6667)" fill="#000000">2023</text>
<path d="M-20.4609 -24l40.9219 0l0 48l-40.9219 0Z" transform="translate(491.6667 511.6667)" fill="none"></path>
<text dominant-baseline="central" text-anchor="middle" style="font-size:16px;font-family:Arial;font-weight:500;" y="-12" transform="translate(491.6667 511.6667)" fill="#000000">2023-</text>
<text dominant-baseline="central" text-anchor="middle" style="font-size:16px;font-family:Arial;font-weight:500;" y="12" transform="translate(491.6667 511.6667)" fill="#000000">2024</text>
</svg>