<svg version="1.1" class="marks" width="477" height="230" viewBox="-100,-100,1000,1000" xmlns="http://www.w3.org/2000/svg" xmlns:xlink="http://www.w3.org/1999/xlink"><g ><g version="1.1" class="marks" width="477" height="230" viewBox="0 0 477 230"><g fill="none" stroke-miterlimit="10" transform="translate(22,5)"><g class="mark-group role-frame root" role="graphics-object" aria-roledescription="group mark container"><g transform="translate(0,0)" class="mark-group role-axis" role="graphics-symbol" aria-roledescription="axis" aria-label="X-axis for a discrete scale with 5 values: 2020, 2021, 2022, 2023, 2024"><g transform="translate(0.5,200.5)" class="mark-rule role-axis-tick" pointer-events="none"><line transform="translate(45,0)" x2="0" y2="5" stroke="#0f223b" stroke-opacity="0" stroke-width="1" opacity="1"/>
<line transform="translate(135,0)" x2="0" y2="5" stroke="#0f223b" stroke-opacity="0" stroke-width="1" opacity="1"/>
<line transform="translate(225,0)" x2="0" y2="5" stroke="#0f223b" stroke-opacity="0" stroke-width="1" opacity="1"/>
<line transform="translate(315,0)" x2="0" y2="5" stroke="#0f223b" stroke-opacity="0" stroke-width="1" opacity="1"/>
<line transform="translate(405,0)" x2="0" y2="5" stroke="#0f223b" stroke-opacity="0" stroke-width="1" opacity="1"/></g>
<g transform="translate(0.5,200.5)" class="mark-text role-axis-label" pointer-events="none"><text text-anchor="middle" transform="translate(45,18)" font-family="sans-serif" font-size="10px" fill="#000d2a" opacity="1">2020
</text>
<text text-anchor="middle" transform="translate(135,18)" font-family="sans-serif" font-size="10px" fill="#000d2a" opacity="1">2021
</text>
<text text-anchor="middle" transform="translate(225,18)" font-family="sans-serif" font-size="10px" fill="#000d2a" opacity="1">2022
</text>
<text text-anchor="middle" transform="translate(315,18)" font-family="sans-serif" font-size="10px" fill="#000d2a" opacity="1">2023
</text>
<text text-anchor="middle" transform="translate(405,18)" font-family="sans-serif" font-size="10px" fill="#000d2a" opacity="1">2024
</text></g>
<g transform="translate(0.5,200.5)" class="mark-rule role-axis-domain" pointer-events="none"><line transform="translate(0,0)" x2="450" y2="0" stroke="#0f223b" stroke-opacity="0" stroke-width="1" opacity="1"/></g></g>
<g transform="translate(0,0)" class="mark-group role-axis" role="graphics-symbol" aria-roledescription="axis" aria-label="Y-axis for a linear scale with values from 0 to 6"><g transform="translate(0.5,0.5)" class="mark-rule role-axis-tick" pointer-events="none"><line transform="translate(0,200)" x2="-5" y2="0" stroke="#0f223b" stroke-opacity="0" stroke-width="1" opacity="1"/>
<line transform="translate(0,164)" x2="-5" y2="0" stroke="#0f223b" stroke-opacity="0" stroke-width="1" opacity="1"/>
<line transform="translate(0,127)" x2="-5" y2="0" stroke="#0f223b" stroke-opacity="0" stroke-width="1" opacity="1"/>
<line transform="translate(0,91)" x2="-5" y2="0" stroke="#0f223b" stroke-opacity="0" stroke-width="1" opacity="1"/>
<line transform="translate(0,55)" x2="-5" y2="0" stroke="#0f223b" stroke-opacity="0" stroke-width="1" opacity="1"/>
<line transform="translate(0,18)" x2="-5" y2="0" stroke="#0f223b" stroke-opacity="0" stroke-width="1" opacity="1"/></g>
<g transform="translate(0.5,0.5)" class="mark-text role-axis-label" pointer-events="none"><text text-anchor="end" transform="translate(-10,203)" font-family="sans-serif" font-size="10px" fill="#000d2a" opacity="1">0
</text>
<text text-anchor="end" transform="translate(-10,166.63636363636363)" font-family="sans-serif" font-size="10px" fill="#000d2a" opacity="1">1
</text>
<text text-anchor="end" transform="translate(-10,130.27272727272725)" font-family="sans-serif" font-size="10px" fill="#000d2a" opacity="1">2
</text>
<text text-anchor="end" transform="translate(-10,93.90909090909092)" font-family="sans-serif" font-size="10px" fill="#000d2a" opacity="1">3
</text>
<text text-anchor="end" transform="translate(-10,57.54545454545454)" font-family="sans-serif" font-size="10px" fill="#000d2a" opacity="1">4
</text>
<text text-anchor="end" transform="translate(-10,21.181818181818187)" font-family="sans-serif" font-size="10px" fill="#000d2a" opacity="1">5
</text></g>
<g transform="translate(0.5,0.5)" class="mark-rule role-axis-domain" pointer-events="none"><line transform="translate(0,200)" x2="0" y2="-200" stroke="#0f223b" stroke-opacity="0" stroke-width="1" opacity="1"/></g></g>
<g transform="translate(0,0)" class="mark-group role-scope pathgroup" role="graphics-object" aria-roledescription="group mark container"><g transform="translate(0,0)" class="mark-line role-mark marks" role="graphics-object" aria-roledescription="line mark container"><path aria-label="Year: 2020; Score: 4.02; Energy Prices: 30 kWh of electricity" role="graphics-symbol" aria-roledescription="line mark" d="M45,53.818L90,53.818L90,45.455L180,45.455L180,27.273L270,27.273L270,18.182L360,18.182L360,11.273L405,11.273" stroke="#386cb0" stroke-width="2" opacity="1"/></g>
<g transform="translate(0,0)" class="mark-line role-mark marks" role="graphics-object" aria-roledescription="line mark container"><path aria-label="Year: 2020; Score: 2.63; Energy Prices: Gasoline per gallon" role="graphics-symbol" aria-roledescription="line mark" d="M45,104.364L90,104.364L90,81.818L180,81.818L180,36.364L270,36.364L270,72.727L360,72.727L360,78.182L405,78.182" stroke="#666666" stroke-width="2" opacity="1"/></g>
<g transform="translate(0,0)" class="mark-line role-mark marks" role="graphics-object" aria-roledescription="line mark container"><path aria-label="Year: 2020; Score: 1.07; Energy Prices: Piped gas per therm" role="graphics-symbol" aria-roledescription="line mark" d="M45,161.091L90,161.091L90,154.545L180,154.545L180,145.455L270,145.455L270,149.091L360,149.091L360,147.273L405,147.273" stroke="#7fc97f" stroke-width="2" opacity="1"/></g></g></g></g></g></g></svg>