<svg version="1.1" class="marks" width="492" height="235" viewBox="-100,-100,1000,1000" xmlns="http://www.w3.org/2000/svg" xmlns:xlink="http://www.w3.org/1999/xlink"><g ><g version="1.1" class="marks" width="492" height="235" viewBox="0 0 492 235"><g fill="none" stroke-miterlimit="10" transform="translate(28,10)"><g class="mark-group role-frame root" role="graphics-object" aria-roledescription="group mark container"><g transform="translate(0,0)" class="mark-group role-axis" role="graphics-symbol" aria-roledescription="axis" aria-label="X-axis for a discrete scale with 15 values: Apr 2018, Apr 2019, Aug 2018, Dec 2018, Feb 2019, ending with Sep 2018"><g transform="translate(0.5,200.5)" class="mark-rule role-axis-tick" pointer-events="none"><line transform="translate(15,0)" x2="0" y2="5" stroke="#0f223b" stroke-opacity="0" stroke-width="1" opacity="1"/>
<line transform="translate(45,0)" x2="0" y2="5" stroke="#0f223b" stroke-opacity="0" stroke-width="1" opacity="1"/>
<line transform="translate(75,0)" x2="0" y2="5" stroke="#0f223b" stroke-opacity="0" stroke-width="1" opacity="1"/>
<line transform="translate(105,0)" x2="0" y2="5" stroke="#0f223b" stroke-opacity="0" stroke-width="1" opacity="1"/>
<line transform="translate(135,0)" x2="0" y2="5" stroke="#0f223b" stroke-opacity="0" stroke-width="1" opacity="1"/>
<line transform="translate(165,0)" x2="0" y2="5" stroke="#0f223b" stroke-opacity="0" stroke-width="1" opacity="1"/>
<line transform="translate(195,0)" x2="0" y2="5" stroke="#0f223b" stroke-opacity="0" stroke-width="1" opacity="1"/>
<line transform="translate(225,0)" x2="0" y2="5" stroke="#0f223b" stroke-opacity="0" stroke-width="1" opacity="1"/>
<line transform="translate(255,0)" x2="0" y2="5" stroke="#0f223b" stroke-opacity="0" stroke-width="1" opacity="1"/>
<line transform="translate(285,0)" x2="0" y2="5" stroke="#0f223b" stroke-opacity="0" stroke-width="1" opacity="1"/>
<line transform="translate(315,0)" x2="0" y2="5" stroke="#0f223b" stroke-opacity="0" stroke-width="1" opacity="1"/>
<line transform="translate(345,0)" x2="0" y2="5" stroke="#0f223b" stroke-opacity="0" stroke-width="1" opacity="1"/>
<line transform="translate(375,0)" x2="0" y2="5" stroke="#0f223b" stroke-opacity="0" stroke-width="1" opacity="1"/>
<line transform="translate(405,0)" x2="0" y2="5" stroke="#0f223b" stroke-opacity="0" stroke-width="1" opacity="1"/>
<line transform="translate(435,0)" x2="0" y2="5" stroke="#0f223b" stroke-opacity="0" stroke-width="1" opacity="1"/></g>
<g transform="translate(0.5,200.5)" class="mark-text role-axis-label" pointer-events="none"><text text-anchor="middle" transform="translate(15,18)" font-family="sans-serif" font-size="10px" fill="#000d2a" opacity="1">Apr 2018
</text>
<text text-anchor="middle" transform="translate(45,18)" font-family="sans-serif" font-size="10px" fill="#000d2a" opacity="1">Apr 2019
</text>
<text text-anchor="middle" transform="translate(75,18)" font-family="sans-serif" font-size="10px" fill="#000d2a" opacity="1">Aug 2018
</text>
<text text-anchor="middle" transform="translate(105,18)" font-family="sans-serif" font-size="10px" fill="#000d2a" opacity="1">Dec 2018
</text>
<text text-anchor="middle" transform="translate(135,18)" font-family="sans-serif" font-size="10px" fill="#000d2a" opacity="1">Feb 2019
</text>
<text text-anchor="middle" transform="translate(165,18)" font-family="sans-serif" font-size="10px" fill="#000d2a" opacity="1">Jan 2019
</text>
<text text-anchor="middle" transform="translate(195,18)" font-family="sans-serif" font-size="10px" fill="#000d2a" opacity="1">Jul 2018
</text>
<text text-anchor="middle" transform="translate(225,18)" font-family="sans-serif" font-size="10px" fill="#000d2a" opacity="1">Jun 2018
</text>
<text text-anchor="middle" transform="translate(255,18)" font-family="sans-serif" font-size="10px" fill="#000d2a" opacity="1">Mar 2018
</text>
<text text-anchor="middle" transform="translate(285,18)" font-family="sans-serif" font-size="10px" fill="#000d2a" opacity="1">Mar 2019
</text>
<text text-anchor="middle" transform="translate(315,18)" font-family="sans-serif" font-size="10px" fill="#000d2a" opacity="1">May 2018
</text>
<text text-anchor="middle" transform="translate(345,18)" font-family="sans-serif" font-size="10px" fill="#000d2a" opacity="1">May 2019
</text>
<text text-anchor="middle" transform="translate(375,18)" font-family="sans-serif" font-size="10px" fill="#000d2a" opacity="1">Nov 2018
</text>
<text text-anchor="middle" transform="translate(405,18)" font-family="sans-serif" font-size="10px" fill="#000d2a" opacity="1">Oct 2018
</text>
<text text-anchor="middle" transform="translate(435,18)" font-family="sans-serif" font-size="10px" fill="#000d2a" opacity="1">Sep 2018
</text></g>
<g transform="translate(0.5,200.5)" class="mark-rule role-axis-domain" pointer-events="none"><line transform="translate(0,0)" x2="450" y2="0" stroke="#0f223b" stroke-opacity="0" stroke-width="1" opacity="1"/></g></g>
<g transform="translate(0,0)" class="mark-group role-axis" role="graphics-symbol" aria-roledescription="axis" aria-label="Y-axis for a linear scale with values from 0 to 40"><g transform="translate(0.5,0.5)" class="mark-rule role-axis-tick" pointer-events="none"><line transform="translate(0,200)" x2="-5" y2="0" stroke="#0f223b" stroke-opacity="0" stroke-width="1" opacity="1"/>
<line transform="translate(0,150)" x2="-5" y2="0" stroke="#0f223b" stroke-opacity="0" stroke-width="1" opacity="1"/>
<line transform="translate(0,100)" x2="-5" y2="0" stroke="#0f223b" stroke-opacity="0" stroke-width="1" opacity="1"/>
<line transform="translate(0,50)" x2="-5" y2="0" stroke="#0f223b" stroke-opacity="0" stroke-width="1" opacity="1"/>
<line transform="translate(0,0)" x2="-5" y2="0" stroke="#0f223b" stroke-opacity="0" stroke-width="1" opacity="1"/></g>
<g transform="translate(0.5,0.5)" class="mark-text role-axis-label" pointer-events="none"><text text-anchor="end" transform="translate(-10,203)" font-family="sans-serif" font-size="10px" fill="#000d2a" opacity="1">0
</text>
<text text-anchor="end" transform="translate(-10,153)" font-family="sans-serif" font-size="10px" fill="#000d2a" opacity="1">10
</text>
<text text-anchor="end" transform="translate(-10,103)" font-family="sans-serif" font-size="10px" fill="#000d2a" opacity="1">20
</text>
<text text-anchor="end" transform="translate(-10,53)" font-family="sans-serif" font-size="10px" fill="#000d2a" opacity="1">30
</text>
<text text-anchor="end" transform="translate(-10,3)" font-family="sans-serif" font-size="10px" fill="#000d2a" opacity="1">40
</text></g>
<g transform="translate(0.5,0.5)" class="mark-rule role-axis-domain" pointer-events="none"><line transform="translate(0,200)" x2="0" y2="-200" stroke="#0f223b" stroke-opacity="0" stroke-width="1" opacity="1"/></g></g>
<g transform="translate(0,0)" class="mark-line role-mark marks" role="graphics-object" aria-roledescription="line mark container"><path aria-label="Month: Apr 2018; Satisfaction: 38" role="graphics-symbol" aria-roledescription="line mark" d="M15,10L20,19.167C25,28.333,35,46.667,45,45C55,43.333,65,21.667,75,15C85,8.333,95,16.667,105,29.167C115,41.667,125,58.333,135,61.667C145,65,155,55,165,43.333C175,31.667,185,18.333,195,12.5C205,6.667,215,8.333,225,9.167C235,10,245,10,255,20.833C265,31.667,275,53.333,285,53.333C295,53.333,305,31.667,315,29.167C325,26.667,335,43.333,345,44.167C355,45,365,30,375,21.667C385,13.333,395,11.667,405,10.833C415,10,425,10,430,10L435,10" stroke="#4c78a8" stroke-width="2" opacity="1"/></g></g></g></g></g></svg>