<svg version="1.1" class="marks" width="490" height="235" viewBox="-100,-100,1000,1000" xmlns="http://www.w3.org/2000/svg" xmlns:xlink="http://www.w3.org/1999/xlink"><g ><g version="1.1" class="marks" width="490" height="235" viewBox="0 0 490 235"><g fill="none" stroke-miterlimit="10" transform="translate(35,10)"><g class="mark-group role-frame root" role="graphics-object" aria-roledescription="group mark container"><g transform="translate(0,0)" class="mark-group role-axis" role="graphics-symbol" aria-roledescription="axis" aria-label="X-axis for a discrete scale with 15 values: Feb 27, Mar 1, Mar 11, Mar 13, Mar 15, ending with Mar 9"><g transform="translate(0.5,200.5)" class="mark-rule role-axis-tick" pointer-events="none"><line transform="translate(15,0)" x2="0" y2="5" stroke="#0f223b" stroke-opacity="0" stroke-width="1" opacity="1"/>
<line transform="translate(45,0)" x2="0" y2="5" stroke="#0f223b" stroke-opacity="0" stroke-width="1" opacity="1"/>
<line transform="translate(75,0)" x2="0" y2="5" stroke="#0f223b" stroke-opacity="0" stroke-width="1" opacity="1"/>
<line transform="translate(105,0)" x2="0" y2="5" stroke="#0f223b" stroke-opacity="0" stroke-width="1" opacity="1"/>
<line transform="translate(135,0)" x2="0" y2="5" stroke="#0f223b" stroke-opacity="0" stroke-width="1" opacity="1"/>
<line transform="translate(165,0)" x2="0" y2="5" stroke="#0f223b" stroke-opacity="0" stroke-width="1" opacity="1"/>
<line transform="translate(195,0)" x2="0" y2="5" stroke="#0f223b" stroke-opacity="0" stroke-width="1" opacity="1"/>
<line transform="translate(225,0)" x2="0" y2="5" stroke="#0f223b" stroke-opacity="0" stroke-width="1" opacity="1"/>
<line transform="translate(255,0)" x2="0" y2="5" stroke="#0f223b" stroke-opacity="0" stroke-width="1" opacity="1"/>
<line transform="translate(285,0)" x2="0" y2="5" stroke="#0f223b" stroke-opacity="0" stroke-width="1" opacity="1"/>
<line transform="translate(315,0)" x2="0" y2="5" stroke="#0f223b" stroke-opacity="0" stroke-width="1" opacity="1"/>
<line transform="translate(345,0)" x2="0" y2="5" stroke="#0f223b" stroke-opacity="0" stroke-width="1" opacity="1"/>
<line transform="translate(375,0)" x2="0" y2="5" stroke="#0f223b" stroke-opacity="0" stroke-width="1" opacity="1"/>
<line transform="translate(405,0)" x2="0" y2="5" stroke="#0f223b" stroke-opacity="0" stroke-width="1" opacity="1"/>
<line transform="translate(435,0)" x2="0" y2="5" stroke="#0f223b" stroke-opacity="0" stroke-width="1" opacity="1"/></g>
<g transform="translate(0.5,200.5)" class="mark-text role-axis-label" pointer-events="none"><text text-anchor="middle" transform="translate(15,18)" font-family="sans-serif" font-size="10px" fill="#000d2a" opacity="1">Feb 27
</text>
<text text-anchor="middle" transform="translate(45,18)" font-family="sans-serif" font-size="10px" fill="#000d2a" opacity="1">Mar 1
</text>
<text text-anchor="middle" transform="translate(75,18)" font-family="sans-serif" font-size="10px" fill="#000d2a" opacity="1">Mar 11
</text>
<text text-anchor="middle" transform="translate(105,18)" font-family="sans-serif" font-size="10px" fill="#000d2a" opacity="1">Mar 13
</text>
<text text-anchor="middle" transform="translate(135,18)" font-family="sans-serif" font-size="10px" fill="#000d2a" opacity="1">Mar 15
</text>
<text text-anchor="middle" transform="translate(165,18)" font-family="sans-serif" font-size="10px" fill="#000d2a" opacity="1">Mar 17
</text>
<text text-anchor="middle" transform="translate(195,18)" font-family="sans-serif" font-size="10px" fill="#000d2a" opacity="1">Mar 19
</text>
<text text-anchor="middle" transform="translate(225,18)" font-family="sans-serif" font-size="10px" fill="#000d2a" opacity="1">Mar 21
</text>
<text text-anchor="middle" transform="translate(255,18)" font-family="sans-serif" font-size="10px" fill="#000d2a" opacity="1">Mar 23
</text>
<text text-anchor="middle" transform="translate(285,18)" font-family="sans-serif" font-size="10px" fill="#000d2a" opacity="1">Mar 25
</text>
<text text-anchor="middle" transform="translate(315,18)" font-family="sans-serif" font-size="10px" fill="#000d2a" opacity="1">Mar 27
</text>
<text text-anchor="middle" transform="translate(345,18)" font-family="sans-serif" font-size="10px" fill="#000d2a" opacity="1">Mar 3
</text>
<text text-anchor="middle" transform="translate(375,18)" font-family="sans-serif" font-size="10px" fill="#000d2a" opacity="1">Mar 5
</text>
<text text-anchor="middle" transform="translate(405,18)" font-family="sans-serif" font-size="10px" fill="#000d2a" opacity="1">Mar 7
</text>
<text text-anchor="middle" transform="translate(435,18)" font-family="sans-serif" font-size="10px" fill="#000d2a" opacity="1">Mar 9
</text></g>
<g transform="translate(0.5,200.5)" class="mark-rule role-axis-domain" pointer-events="none"><line transform="translate(0,0)" x2="450" y2="0" stroke="#0f223b" stroke-opacity="0" stroke-width="1" opacity="1"/></g></g>
<g transform="translate(0,0)" class="mark-group role-axis" role="graphics-symbol" aria-roledescription="axis" aria-label="Y-axis for a linear scale with values from 0 to 600"><g transform="translate(0.5,0.5)" class="mark-rule role-axis-tick" pointer-events="none"><line transform="translate(0,200)" x2="-5" y2="0" stroke="#0f223b" stroke-opacity="0" stroke-width="1" opacity="1"/>
<line transform="translate(0,167)" x2="-5" y2="0" stroke="#0f223b" stroke-opacity="0" stroke-width="1" opacity="1"/>
<line transform="translate(0,133)" x2="-5" y2="0" stroke="#0f223b" stroke-opacity="0" stroke-width="1" opacity="1"/>
<line transform="translate(0,100)" x2="-5" y2="0" stroke="#0f223b" stroke-opacity="0" stroke-width="1" opacity="1"/>
<line transform="translate(0,67)" x2="-5" y2="0" stroke="#0f223b" stroke-opacity="0" stroke-width="1" opacity="1"/>
<line transform="translate(0,33)" x2="-5" y2="0" stroke="#0f223b" stroke-opacity="0" stroke-width="1" opacity="1"/>
<line transform="translate(0,0)" x2="-5" y2="0" stroke="#0f223b" stroke-opacity="0" stroke-width="1" opacity="1"/></g>
<g transform="translate(0.5,0.5)" class="mark-text role-axis-label" pointer-events="none"><text text-anchor="end" transform="translate(-10,203)" font-family="sans-serif" font-size="10px" fill="#000d2a" opacity="1">0
</text>
<text text-anchor="end" transform="translate(-10,169.66666666666669)" font-family="sans-serif" font-size="10px" fill="#000d2a" opacity="1">100
</text>
<text text-anchor="end" transform="translate(-10,136.33333333333334)" font-family="sans-serif" font-size="10px" fill="#000d2a" opacity="1">200
</text>
<text text-anchor="end" transform="translate(-10,103)" font-family="sans-serif" font-size="10px" fill="#000d2a" opacity="1">300
</text>
<text text-anchor="end" transform="translate(-10,69.66666666666667)" font-family="sans-serif" font-size="10px" fill="#000d2a" opacity="1">400
</text>
<text text-anchor="end" transform="translate(-10,36.33333333333333)" font-family="sans-serif" font-size="10px" fill="#000d2a" opacity="1">500
</text>
<text text-anchor="end" transform="translate(-10,3)" font-family="sans-serif" font-size="10px" fill="#000d2a" opacity="1">600
</text></g>
<g transform="translate(0.5,0.5)" class="mark-rule role-axis-domain" pointer-events="none"><line transform="translate(0,200)" x2="0" y2="-200" stroke="#0f223b" stroke-opacity="0" stroke-width="1" opacity="1"/></g></g>
<g transform="translate(0,0)" class="mark-line role-mark marks" role="graphics-object" aria-roledescription="line mark container"><path aria-label="Date: Feb 27; Market Capitalization (Billion USD): 573.4" role="graphics-symbol" aria-roledescription="line mark" d="M15,8.867L30,8.867L30,10.133L60,10.133L60,5.733L90,5.733L90,5.467L120,5.467L120,5.167L150,5.167L150,3.6L180,3.6L180,4.667L210,4.667L210,7.933L240,7.933L240,10.333L270,10.333L270,12.3L300,12.3L300,11.133L330,11.133L330,9.133L360,9.133L360,9.167L390,9.167L390,9.067L420,9.067L420,7L435,7" stroke="#4c78a8" stroke-width="2" opacity="1"/></g></g></g></g></g></svg>