<svg version="1.1" class="marks" width="501" height="230" viewBox="-100,-100,1000,1000" xmlns="http://www.w3.org/2000/svg" xmlns:xlink="http://www.w3.org/1999/xlink"><g ><g version="1.1" class="marks" width="501" height="230" viewBox="0 0 501 230"><g fill="none" stroke-miterlimit="10" transform="translate(44,5)"><g class="mark-group role-frame root" role="graphics-object" aria-roledescription="group mark container"><g transform="translate(0,0)" class="mark-group role-axis" role="graphics-symbol" aria-roledescription="axis" aria-label="X-axis for a linear scale with values from 2,011 to 2,022"><g transform="translate(0.5,200.5)" class="mark-rule role-axis-tick" pointer-events="none"><line transform="translate(0,0)" x2="0" y2="5" stroke="#0f223b" stroke-opacity="0" stroke-width="1" opacity="1"/>
<line transform="translate(41,0)" x2="0" y2="5" stroke="#0f223b" stroke-opacity="0" stroke-width="1" opacity="1"/>
<line transform="translate(82,0)" x2="0" y2="5" stroke="#0f223b" stroke-opacity="0" stroke-width="1" opacity="1"/>
<line transform="translate(123,0)" x2="0" y2="5" stroke="#0f223b" stroke-opacity="0" stroke-width="1" opacity="1"/>
<line transform="translate(164,0)" x2="0" y2="5" stroke="#0f223b" stroke-opacity="0" stroke-width="1" opacity="1"/>
<line transform="translate(205,0)" x2="0" y2="5" stroke="#0f223b" stroke-opacity="0" stroke-width="1" opacity="1"/>
<line transform="translate(245,0)" x2="0" y2="5" stroke="#0f223b" stroke-opacity="0" stroke-width="1" opacity="1"/>
<line transform="translate(286,0)" x2="0" y2="5" stroke="#0f223b" stroke-opacity="0" stroke-width="1" opacity="1"/>
<line transform="translate(327,0)" x2="0" y2="5" stroke="#0f223b" stroke-opacity="0" stroke-width="1" opacity="1"/>
<line transform="translate(368,0)" x2="0" y2="5" stroke="#0f223b" stroke-opacity="0" stroke-width="1" opacity="1"/>
<line transform="translate(409,0)" x2="0" y2="5" stroke="#0f223b" stroke-opacity="0" stroke-width="1" opacity="1"/>
<line transform="translate(450,0)" x2="0" y2="5" stroke="#0f223b" stroke-opacity="0" stroke-width="1" opacity="1"/></g>
<g transform="translate(0.5,200.5)" class="mark-text role-axis-label" pointer-events="none"><text text-anchor="start" transform="translate(0,18)" font-family="sans-serif" font-size="10px" fill="#000d2a" opacity="1">2,011
</text>
<text text-anchor="middle" transform="translate(40.909090909090914,18)" font-family="sans-serif" font-size="10px" fill="#000d2a" opacity="0">2,012
</text>
<text text-anchor="middle" transform="translate(81.81818181818183,18)" font-family="sans-serif" font-size="10px" fill="#000d2a" opacity="1">2,013
</text>
<text text-anchor="middle" transform="translate(122.72727272727272,18)" font-family="sans-serif" font-size="10px" fill="#000d2a" opacity="0">2,014
</text>
<text text-anchor="middle" transform="translate(163.63636363636365,18)" font-family="sans-serif" font-size="10px" fill="#000d2a" opacity="1">2,015
</text>
<text text-anchor="middle" transform="translate(204.54545454545453,18)" font-family="sans-serif" font-size="10px" fill="#000d2a" opacity="0">2,016
</text>
<text text-anchor="middle" transform="translate(245.45454545454544,18)" font-family="sans-serif" font-size="10px" fill="#000d2a" opacity="1">2,017
</text>
<text text-anchor="middle" transform="translate(286.3636363636364,18)" font-family="sans-serif" font-size="10px" fill="#000d2a" opacity="0">2,018
</text>
<text text-anchor="middle" transform="translate(327.2727272727273,18)" font-family="sans-serif" font-size="10px" fill="#000d2a" opacity="1">2,019
</text>
<text text-anchor="middle" transform="translate(368.1818181818182,18)" font-family="sans-serif" font-size="10px" fill="#000d2a" opacity="0">2,020
</text>
<text text-anchor="middle" transform="translate(409.09090909090907,18)" font-family="sans-serif" font-size="10px" fill="#000d2a" opacity="1">2,021
</text>
<text text-anchor="end" transform="translate(450,18)" font-family="sans-serif" font-size="10px" fill="#000d2a" opacity="0">2,022
</text></g>
<g transform="translate(0.5,200.5)" class="mark-rule role-axis-domain" pointer-events="none"><line transform="translate(0,0)" x2="450" y2="0" stroke="#0f223b" stroke-opacity="0" stroke-width="1" opacity="1"/></g></g>
<g transform="translate(0,0)" class="mark-group role-axis" role="graphics-symbol" aria-roledescription="axis" aria-label="Y-axis for a linear scale with values from 0 to 1,600"><g transform="translate(0.5,0.5)" class="mark-rule role-axis-tick" pointer-events="none"><line transform="translate(0,200)" x2="-5" y2="0" stroke="#0f223b" stroke-opacity="0" stroke-width="1" opacity="1"/>
<line transform="translate(0,138)" x2="-5" y2="0" stroke="#0f223b" stroke-opacity="0" stroke-width="1" opacity="1"/>
<line transform="translate(0,75)" x2="-5" y2="0" stroke="#0f223b" stroke-opacity="0" stroke-width="1" opacity="1"/>
<line transform="translate(0,13)" x2="-5" y2="0" stroke="#0f223b" stroke-opacity="0" stroke-width="1" opacity="1"/></g>
<g transform="translate(0.5,0.5)" class="mark-text role-axis-label" pointer-events="none"><text text-anchor="end" transform="translate(-10,203)" font-family="sans-serif" font-size="10px" fill="#000d2a" opacity="1">0
</text>
<text text-anchor="end" transform="translate(-10,140.5)" font-family="sans-serif" font-size="10px" fill="#000d2a" opacity="1">500
</text>
<text text-anchor="end" transform="translate(-10,78)" font-family="sans-serif" font-size="10px" fill="#000d2a" opacity="1">1,000
</text>
<text text-anchor="end" transform="translate(-10,15.5)" font-family="sans-serif" font-size="10px" fill="#000d2a" opacity="1">1,500
</text></g>
<g transform="translate(0.5,0.5)" class="mark-rule role-axis-domain" pointer-events="none"><line transform="translate(0,200)" x2="0" y2="-200" stroke="#0f223b" stroke-opacity="0" stroke-width="1" opacity="1"/></g></g>
<g transform="translate(0,0)" class="mark-group role-scope pathgroup" role="graphics-object" aria-roledescription="group mark container"><g transform="translate(0,0)" class="mark-line role-mark marks" role="graphics-object" aria-roledescription="line mark container"><path aria-label="Year: 2011; Units: 450; Rappers: Jay-Z" role="graphics-symbol" aria-roledescription="line mark" d="M0,143.75L40.909,140.625L81.818,137.5L122.727,135L163.636,131.25L204.545,123.75L245.455,98.75L286.364,87.5L327.273,75L368.182,75L409.091,37.5L450,12.5" stroke="#ffed6f" stroke-width="2" opacity="1"/></g>
<g transform="translate(0,0)" class="mark-line role-mark marks" role="graphics-object" aria-roledescription="line mark container"><path aria-label="Year: 2011; Units: 500; Rappers: Sean Diddy Combs" role="graphics-symbol" aria-roledescription="line mark" d="M0,137.5L40.909,131.25L81.818,127.5L122.727,112.5L163.636,108.125L204.545,106.25L245.455,97.5L286.364,96.875L327.273,107.5L368.182,112.5L409.091,100L450,75" stroke="#8dd3c7" stroke-width="2" opacity="1"/></g>
<g transform="translate(0,0)" class="mark-line role-mark marks" role="graphics-object" aria-roledescription="line mark container"><path aria-label="Year: 2011; Units: 125; Rappers: Dr. Dre" role="graphics-symbol" aria-roledescription="line mark" d="M0,184.375L40.909,166.25L81.818,156.25L122.727,131.25L163.636,112.5L204.545,111.25L245.455,107.5L286.364,103.75L327.273,100L368.182,137.5L409.091,137.5L450,137.5" stroke="#d9d9d9" stroke-width="2" opacity="1"/></g>
<g transform="translate(0,0)" class="mark-line role-mark marks" role="graphics-object" aria-roledescription="line mark container"><path aria-label="Year: 2019; Units: 240; Rappers: Kanye West" role="graphics-symbol" aria-roledescription="line mark" d="M327.273,170L368.182,37.5L409.091,75L450,150" stroke="#80b1d3" stroke-width="2" opacity="1"/></g></g></g></g></g></g></svg>