<svg version="1.1" class="marks" width="494" height="235" viewBox="-100,-100,1000,1000" xmlns="http://www.w3.org/2000/svg" xmlns:xlink="http://www.w3.org/1999/xlink"><g ><g version="1.1" class="marks" width="494" height="235" viewBox="0 0 494 235"><g fill="none" stroke-miterlimit="10" transform="translate(35,10)"><g class="mark-group role-frame root" role="graphics-object" aria-roledescription="group mark container"><g transform="translate(0,0)" class="mark-group role-axis" role="graphics-symbol" aria-roledescription="axis" aria-label="X-axis for a discrete scale with 14 values: February 16, February 18, February 20, February 22, February 24, ending with March 9"><g transform="translate(0.5,200.5)" class="mark-rule role-axis-tick" pointer-events="none"><line transform="translate(16,0)" x2="0" y2="5" stroke="#0f223b" stroke-opacity="0" stroke-width="1" opacity="1"/>
<line transform="translate(48,0)" x2="0" y2="5" stroke="#0f223b" stroke-opacity="0" stroke-width="1" opacity="1"/>
<line transform="translate(80,0)" x2="0" y2="5" stroke="#0f223b" stroke-opacity="0" stroke-width="1" opacity="1"/>
<line transform="translate(113,0)" x2="0" y2="5" stroke="#0f223b" stroke-opacity="0" stroke-width="1" opacity="1"/>
<line transform="translate(145,0)" x2="0" y2="5" stroke="#0f223b" stroke-opacity="0" stroke-width="1" opacity="1"/>
<line transform="translate(177,0)" x2="0" y2="5" stroke="#0f223b" stroke-opacity="0" stroke-width="1" opacity="1"/>
<line transform="translate(209,0)" x2="0" y2="5" stroke="#0f223b" stroke-opacity="0" stroke-width="1" opacity="1"/>
<line transform="translate(241,0)" x2="0" y2="5" stroke="#0f223b" stroke-opacity="0" stroke-width="1" opacity="1"/>
<line transform="translate(273,0)" x2="0" y2="5" stroke="#0f223b" stroke-opacity="0" stroke-width="1" opacity="1"/>
<line transform="translate(305,0)" x2="0" y2="5" stroke="#0f223b" stroke-opacity="0" stroke-width="1" opacity="1"/>
<line transform="translate(338,0)" x2="0" y2="5" stroke="#0f223b" stroke-opacity="0" stroke-width="1" opacity="1"/>
<line transform="translate(370,0)" x2="0" y2="5" stroke="#0f223b" stroke-opacity="0" stroke-width="1" opacity="1"/>
<line transform="translate(402,0)" x2="0" y2="5" stroke="#0f223b" stroke-opacity="0" stroke-width="1" opacity="1"/>
<line transform="translate(434,0)" x2="0" y2="5" stroke="#0f223b" stroke-opacity="0" stroke-width="1" opacity="1"/></g>
<g transform="translate(0.5,200.5)" class="mark-text role-axis-label" pointer-events="none"><text text-anchor="middle" transform="translate(16.071428571428555,18)" font-family="sans-serif" font-size="10px" fill="#000d2a" opacity="1">February 16
</text>
<text text-anchor="middle" transform="translate(48.2142857142857,18)" font-family="sans-serif" font-size="10px" fill="#000d2a" opacity="1">February 18
</text>
<text text-anchor="middle" transform="translate(80.35714285714285,18)" font-family="sans-serif" font-size="10px" fill="#000d2a" opacity="1">February 20
</text>
<text text-anchor="middle" transform="translate(112.5,18)" font-family="sans-serif" font-size="10px" fill="#000d2a" opacity="1">February 22
</text>
<text text-anchor="middle" transform="translate(144.64285714285714,18)" font-family="sans-serif" font-size="10px" fill="#000d2a" opacity="1">February 24
</text>
<text text-anchor="middle" transform="translate(176.78571428571428,18)" font-family="sans-serif" font-size="10px" fill="#000d2a" opacity="1">February 26
</text>
<text text-anchor="middle" transform="translate(208.92857142857144,18)" font-family="sans-serif" font-size="10px" fill="#000d2a" opacity="1">February 28
</text>
<text text-anchor="middle" transform="translate(241.07142857142858,18)" font-family="sans-serif" font-size="10px" fill="#000d2a" opacity="1">March 1
</text>
<text text-anchor="middle" transform="translate(273.2142857142857,18)" font-family="sans-serif" font-size="10px" fill="#000d2a" opacity="1">March 11
</text>
<text text-anchor="middle" transform="translate(305.3571428571429,18)" font-family="sans-serif" font-size="10px" fill="#000d2a" opacity="1">March 13
</text>
<text text-anchor="middle" transform="translate(337.5,18)" font-family="sans-serif" font-size="10px" fill="#000d2a" opacity="1">March 3
</text>
<text text-anchor="middle" transform="translate(369.64285714285717,18)" font-family="sans-serif" font-size="10px" fill="#000d2a" opacity="1">March 5
</text>
<text text-anchor="middle" transform="translate(401.78571428571433,18)" font-family="sans-serif" font-size="10px" fill="#000d2a" opacity="1">March 7
</text>
<text text-anchor="middle" transform="translate(433.92857142857144,18)" font-family="sans-serif" font-size="10px" fill="#000d2a" opacity="1">March 9
</text></g>
<g transform="translate(0.5,200.5)" class="mark-rule role-axis-domain" pointer-events="none"><line transform="translate(0,0)" x2="450" y2="0" stroke="#0f223b" stroke-opacity="0" stroke-width="1" opacity="1"/></g></g>
<g transform="translate(0,0)" class="mark-group role-axis" role="graphics-symbol" aria-roledescription="axis" aria-label="Y-axis for a linear scale with values from 0 to 100"><g transform="translate(0.5,0.5)" class="mark-rule role-axis-tick" pointer-events="none"><line transform="translate(0,200)" x2="-5" y2="0" stroke="#0f223b" stroke-opacity="0" stroke-width="1" opacity="1"/>
<line transform="translate(0,160)" x2="-5" y2="0" stroke="#0f223b" stroke-opacity="0" stroke-width="1" opacity="1"/>
<line transform="translate(0,120)" x2="-5" y2="0" stroke="#0f223b" stroke-opacity="0" stroke-width="1" opacity="1"/>
<line transform="translate(0,80)" x2="-5" y2="0" stroke="#0f223b" stroke-opacity="0" stroke-width="1" opacity="1"/>
<line transform="translate(0,40)" x2="-5" y2="0" stroke="#0f223b" stroke-opacity="0" stroke-width="1" opacity="1"/>
<line transform="translate(0,0)" x2="-5" y2="0" stroke="#0f223b" stroke-opacity="0" stroke-width="1" opacity="1"/></g>
<g transform="translate(0.5,0.5)" class="mark-text role-axis-label" pointer-events="none"><text text-anchor="end" transform="translate(-10,203)" font-family="sans-serif" font-size="10px" fill="#000d2a" opacity="1">0
</text>
<text text-anchor="end" transform="translate(-10,163)" font-family="sans-serif" font-size="10px" fill="#000d2a" opacity="1">20
</text>
<text text-anchor="end" transform="translate(-10,123)" font-family="sans-serif" font-size="10px" fill="#000d2a" opacity="1">40
</text>
<text text-anchor="end" transform="translate(-10,83)" font-family="sans-serif" font-size="10px" fill="#000d2a" opacity="1">60
</text>
<text text-anchor="end" transform="translate(-10,42.99999999999999)" font-family="sans-serif" font-size="10px" fill="#000d2a" opacity="1">80
</text>
<text text-anchor="end" transform="translate(-10,3)" font-family="sans-serif" font-size="10px" fill="#000d2a" opacity="1">100
</text></g>
<g transform="translate(0.5,0.5)" class="mark-rule role-axis-domain" pointer-events="none"><line transform="translate(0,200)" x2="0" y2="-200" stroke="#0f223b" stroke-opacity="0" stroke-width="1" opacity="1"/></g></g>
<g transform="translate(0,0)" class="mark-line role-mark marks" role="graphics-object" aria-roledescription="line mark container"><path aria-label="Date: February 16; Search Interest: 1" role="graphics-symbol" aria-roledescription="line mark" d="M16.071,198L21.429,198C26.786,198,37.5,198,48.214,198C58.929,198,69.643,198,80.357,198C91.071,198,101.786,198,112.5,197.667C123.214,197.333,133.929,196.667,144.643,196.333C155.357,196,166.071,196,176.786,196C187.5,196,198.214,196,208.929,195.667C219.643,195.333,230.357,194.667,241.071,179.333C251.786,164,262.5,134,273.214,101.667C283.929,69.333,294.643,34.667,305.357,49.667C316.071,64.667,326.786,129.333,337.5,161C348.214,192.667,358.929,191.333,369.643,189.333C380.357,187.333,391.071,184.667,401.786,179.333C412.5,174,423.214,166,428.571,162L433.929,158" stroke="#4c78a8" stroke-width="2" opacity="1"/></g></g></g></g></g></svg>