<svg width="600" height="600" xmlns="http://www.w3.org/2000/svg" xmlns:xlink="http://www.w3.org/1999/xlink" version="1.1" baseProfile="full" viewBox="0 0 600 600">
<rect width="600" height="600" x="0" y="0" id="0" fill="#FFFFFF"></rect>
<path d="M43.7969 522.5L576 522.5" fill="none" stroke="#eee"></path>
<path d="M43.7969 451.5L576 451.5" fill="none" stroke="#eee"></path>
<path d="M43.7969 381.5L576 381.5" fill="none" stroke="#eee"></path>
<path d="M43.7969 311.5L576 311.5" fill="none" stroke="#eee"></path>
<path d="M43.7969 240.5L576 240.5" fill="none" stroke="#eee"></path>
<path d="M43.7969 170.5L576 170.5" fill="none" stroke="#eee"></path>
<path d="M43.7969 100.5L576 100.5" fill="none" stroke="#eee"></path>
<path d="M44.5 521.8858L44.5 100" fill="none" stroke="#000000" stroke-linecap="round"></path>
<text dominant-baseline="central" text-anchor="middle" style="font-size:16px;font-family:Arial;" x="20" y="-8.000015258789062" transform="translate(43.7969 85)" fill="#000000">Units</text>
<path d="M43.7969 522.5L576 522.5" fill="none" stroke="#000000" stroke-linecap="round"></path>
<path d="M44.5 521.8858L44.5 526.8858" fill="none" stroke="#000000"></path>
<path d="M103.5 521.8858L103.5 526.8858" fill="none" stroke="#000000"></path>
<path d="M162.5 521.8858L162.5 526.8858" fill="none" stroke="#000000"></path>
<path d="M221.5 521.8858L221.5 526.8858" fill="none" stroke="#000000"></path>
<path d="M280.5 521.8858L280.5 526.8858" fill="none" stroke="#000000"></path>
<path d="M339.5 521.8858L339.5 526.8858" fill="none" stroke="#000000"></path>
<path d="M398.5 521.8858L398.5 526.8858" fill="none" stroke="#000000"></path>
<path d="M457.5 521.8858L457.5 526.8858" fill="none" stroke="#000000"></path>
<path d="M517.5 521.8858L517.5 526.8858" fill="none" stroke="#000000"></path>
<path d="M576.5 521.8858L576.5 526.8858" fill="none" stroke="#000000"></path>
<text dominant-baseline="central" text-anchor="end" style="font-size:16px;font-family:Arial;" transform="translate(35.7969 521.8858)" fill="#000000">0</text>
<text dominant-baseline="central" text-anchor="end" style="font-size:16px;font-family:Arial;" transform="translate(35.7969 451.5715)" fill="#000000">3</text>
<text dominant-baseline="central" text-anchor="end" style="font-size:16px;font-family:Arial;" transform="translate(35.7969 381.2572)" fill="#000000">6</text>
<text dominant-baseline="central" text-anchor="end" style="font-size:16px;font-family:Arial;" transform="translate(35.7969 310.9429)" fill="#000000">9</text>
<text dominant-baseline="central" text-anchor="end" style="font-size:16px;font-family:Arial;" transform="translate(35.7969 240.6286)" fill="#000000">12</text>
<text dominant-baseline="central" text-anchor="end" style="font-size:16px;font-family:Arial;" transform="translate(35.7969 170.3143)" fill="#000000">15</text>
<text dominant-baseline="central" text-anchor="end" style="font-size:16px;font-family:Arial;" transform="translate(35.7969 100)" fill="#000000">18</text>
<text dominant-baseline="central" text-anchor="end" style="font: normal normal 16px Arial" transform="matrix(0.866,-0.5,0.5,0.866,73.3637,529.8858)" fill="#000000">2015-2016</text>
<text dominant-baseline="central" text-anchor="end" style="font: normal normal 16px Arial" transform="matrix(0.866,-0.5,0.5,0.866,132.4974,529.8858)" fill="#000000">2016-2017</text>
<text dominant-baseline="central" text-anchor="end" style="font: normal normal 16px Arial" transform="matrix(0.866,-0.5,0.5,0.866,191.6311,529.8858)" fill="#000000">2017-2018</text>
<text dominant-baseline="central" text-anchor="end" style="font: normal normal 16px Arial" transform="matrix(0.866,-0.5,0.5,0.866,250.7648,529.8858)" fill="#000000">2018-2019</text>
<text dominant-baseline="central" text-anchor="end" style="font: normal normal 16px Arial" transform="matrix(0.866,-0.5,0.5,0.866,309.8984,529.8858)" fill="#000000">2019-2020</text>
<text dominant-baseline="central" text-anchor="end" style="font: normal normal 16px Arial" transform="matrix(0.866,-0.5,0.5,0.866,369.0321,529.8858)" fill="#000000">2020-2021</text>
<text dominant-baseline="central" text-anchor="end" style="font: normal normal 16px Arial" transform="matrix(0.866,-0.5,0.5,0.866,428.1658,529.8858)" fill="#000000">2021-2022</text>
<text dominant-baseline="central" text-anchor="end" style="font: normal normal 16px Arial" transform="matrix(0.866,-0.5,0.5,0.866,487.2995,529.8858)" fill="#000000">2022-2023</text>
<text dominant-baseline="central" text-anchor="end" style="font: normal normal 16px Arial" transform="matrix(0.866,-0.5,0.5,0.866,546.4332,529.8858)" fill="#000000">2023-2024</text>
<path d="M52.9626 521.8858l40.8022 0l0 -114.8467l-40.8022 0Z" fill="#4269d0" stroke="#fff" stroke-width="0"></path>
<path d="M112.0963 521.8858l40.8022 0l0 -105.4714l-40.8022 0Z" fill="#4269d0" stroke="#fff" stroke-width="0"></path>
<path d="M171.23 521.8858l40.8022 0l0 -84.3772l-40.8022 0Z" fill="#4269d0" stroke="#fff" stroke-width="0"></path>
<path d="M230.3636 521.8858l40.8022 0l0 -79.6895l-40.8022 0Z" fill="#4269d0" stroke="#fff" stroke-width="0"></path>
<path d="M289.4973 521.8858l40.8022 0l0 -112.5029l-40.8022 0Z" fill="#4269d0" stroke="#fff" stroke-width="0"></path>
<path d="M348.631 521.8858l40.8022 0l0 -145.3162l-40.8022 0Z" fill="#4269d0" stroke="#fff" stroke-width="0"></path>
<path d="M407.7647 521.8858l40.8022 0l0 -128.9095l-40.8022 0Z" fill="#4269d0" stroke="#fff" stroke-width="0"></path>
<path d="M466.8984 521.8858l40.8022 0l0 -157.0353l-40.8022 0Z" fill="#4269d0" stroke="#fff" stroke-width="0"></path>
<path d="M526.032 521.8858l40.8022 0l0 -119.5343l-40.8022 0Z" fill="#4269d0" stroke="#fff" stroke-width="0"></path>
<path d="M52.9626 407.0391l40.8022 0l0 -96.0962l-40.8022 0Z" fill="#3ca951" stroke="#fff" stroke-width="0"></path>
<path d="M112.0963 416.4143l40.8022 0l0 -98.44l-40.8022 0Z" fill="#3ca951" stroke="#fff" stroke-width="0"></path>
<path d="M171.23 437.5086l40.8022 0l0 -110.1591l-40.8022 0Z" fill="#3ca951" stroke="#fff" stroke-width="0"></path>
<path d="M230.3636 442.1962l40.8022 0l0 -138.2848l-40.8022 0Z" fill="#3ca951" stroke="#fff" stroke-width="0"></path>
<path d="M289.4973 409.3829l40.8022 0l0 -93.7524l-40.8022 0Z" fill="#3ca951" stroke="#fff" stroke-width="0"></path>
<path d="M348.631 376.5696l40.8022 0l0 -124.2219l-40.8022 0Z" fill="#3ca951" stroke="#fff" stroke-width="0"></path>
<path d="M407.7647 392.9762l40.8022 0l0 -138.2848l-40.8022 0Z" fill="#3ca951" stroke="#fff" stroke-width="0"></path>
<path d="M466.8984 364.8505l40.8022 0l0 -140.6286l-40.8022 0Z" fill="#3ca951" stroke="#fff" stroke-width="0"></path>
<path d="M526.032 402.3515l40.8022 0l0 -98.44l-40.8022 0Z" fill="#3ca951" stroke="#fff" stroke-width="0"></path>
<path d="M52.9626 310.9429l40.8022 0l0 -91.4086l-40.8022 0Z" fill="#ff725c" stroke="#fff" stroke-width="0"></path>
<path d="M112.0963 317.9743l40.8022 0l0 -117.1905l-40.8022 0Z" fill="#ff725c" stroke="#fff" stroke-width="0"></path>
<path d="M171.23 327.3495l40.8022 0l0 -157.0353l-40.8022 0Z" fill="#ff725c" stroke="#fff" stroke-width="0"></path>
<path d="M230.3636 303.9114l40.8022 0l0 -138.2848l-40.8022 0Z" fill="#ff725c" stroke="#fff" stroke-width="0"></path>
<path d="M289.4973 315.6305l40.8022 0l0 -114.8467l-40.8022 0Z" fill="#ff725c" stroke="#fff" stroke-width="0"></path>
<path d="M348.631 252.3476l40.8022 0l0 -82.0333l-40.8022 0Z" fill="#ff725c" stroke="#fff" stroke-width="0"></path>
<path d="M407.7647 254.6914l40.8022 0l0 -82.0333l-40.8022 0Z" fill="#ff725c" stroke="#fff" stroke-width="0"></path>
<path d="M466.8984 224.2219l40.8022 0l0 -98.44l-40.8022 0Z" fill="#ff725c" stroke="#fff" stroke-width="0"></path>
<path d="M526.032 303.9114l40.8022 0l0 -91.4086l-40.8022 0Z" fill="#ff725c" stroke="#fff" stroke-width="0"></path>
<text dominant-baseline="central" text-anchor="middle" style="font-size:16px;font-family:Arial;" transform="translate(73.3637 464.4624)" fill="#fff">4.9</text>
<text dominant-baseline="central" text-anchor="middle" style="font-size:16px;font-family:Arial;" transform="translate(132.4974 469.15)" fill="#fff">4.5</text>
<text dominant-baseline="central" text-anchor="middle" style="font-size:16px;font-family:Arial;" transform="translate(191.6311 479.6972)" fill="#fff">3.6</text>
<text dominant-baseline="central" text-anchor="middle" style="font-size:16px;font-family:Arial;" transform="translate(250.7648 482.041)" fill="#fff">3.4</text>
<text dominant-baseline="central" text-anchor="middle" style="font-size:16px;font-family:Arial;" transform="translate(309.8984 465.6343)" fill="#fff">4.8</text>
<text dominant-baseline="central" text-anchor="middle" style="font-size:16px;font-family:Arial;" transform="translate(369.0321 449.2277)" fill="#fff">6.2</text>
<text dominant-baseline="central" text-anchor="middle" style="font-size:16px;font-family:Arial;" transform="translate(428.1658 457.431)" fill="#fff">5.5</text>
<text dominant-baseline="central" text-anchor="middle" style="font-size:16px;font-family:Arial;" transform="translate(487.2995 443.3681)" fill="#fff">6.7</text>
<text dominant-baseline="central" text-anchor="middle" style="font-size:16px;font-family:Arial;" transform="translate(546.4332 462.1186)" fill="#fff">5.1</text>
<text dominant-baseline="central" text-anchor="middle" style="font-size:16px;font-family:Arial;" transform="translate(73.3637 358.991)" fill="#fff">4.1</text>
<text dominant-baseline="central" text-anchor="middle" style="font-size:16px;font-family:Arial;" transform="translate(132.4974 367.1943)" fill="#fff">4.2</text>
<text dominant-baseline="central" text-anchor="middle" style="font-size:16px;font-family:Arial;" transform="translate(191.6311 382.4291)" fill="#fff">4.7</text>
<text dominant-baseline="central" text-anchor="middle" style="font-size:16px;font-family:Arial;" transform="translate(250.7648 373.0538)" fill="#fff">5.9</text>
<text dominant-baseline="central" text-anchor="middle" style="font-size:16px;font-family:Arial;" transform="translate(309.8984 362.5067)" fill="#fff">4</text>
<text dominant-baseline="central" text-anchor="middle" style="font-size:16px;font-family:Arial;" transform="translate(369.0321 314.4586)" fill="#fff">5.3</text>
<text dominant-baseline="central" text-anchor="middle" style="font-size:16px;font-family:Arial;" transform="translate(428.1658 323.8338)" fill="#fff">5.9</text>
<text dominant-baseline="central" text-anchor="middle" style="font-size:16px;font-family:Arial;" transform="translate(487.2995 294.5362)" fill="#fff">6</text>
<text dominant-baseline="central" text-anchor="middle" style="font-size:16px;font-family:Arial;" transform="translate(546.4332 353.1315)" fill="#fff">4.2</text>
<text dominant-baseline="central" text-anchor="middle" style="font-size:16px;font-family:Arial;" transform="translate(73.3637 265.2386)" fill="#fff">3.9</text>
<text dominant-baseline="central" text-anchor="middle" style="font-size:16px;font-family:Arial;" transform="translate(132.4974 259.3791)" fill="#fff">5</text>
<text dominant-baseline="central" text-anchor="middle" style="font-size:16px;font-family:Arial;" transform="translate(191.6311 248.8319)" fill="#fff">6.7</text>
<text dominant-baseline="central" text-anchor="middle" style="font-size:16px;font-family:Arial;" transform="translate(250.7648 234.7691)" fill="#fff">5.9</text>
<text dominant-baseline="central" text-anchor="middle" style="font-size:16px;font-family:Arial;" transform="translate(309.8984 258.2072)" fill="#fff">4.9</text>
<text dominant-baseline="central" text-anchor="middle" style="font-size:16px;font-family:Arial;" transform="translate(369.0321 211.331)" fill="#fff">3.5</text>
<text dominant-baseline="central" text-anchor="middle" style="font-size:16px;font-family:Arial;" transform="translate(428.1658 213.6748)" fill="#fff">3.5</text>
<text dominant-baseline="central" text-anchor="middle" style="font-size:16px;font-family:Arial;" transform="translate(487.2995 175.0019)" fill="#fff">4.2</text>
<text dominant-baseline="central" text-anchor="middle" style="font-size:16px;font-family:Arial;" transform="translate(546.4332 258.2072)" fill="#fff">3.9</text>
<path d="M-5 -5l410.8359 0l0 26l-410.8359 0Z" transform="translate(99.582 45)" fill="rgb(0,0,0)" fill-opacity="0" stroke="#ccc" stroke-width="0"></path>
<path d="M3.5 0L21.5 0A3.5 3.5 0 0 1 25 3.5L25 10.5A3.5 3.5 0 0 1 21.5 14L3.5 14A3.5 3.5 0 0 1 0 10.5L0 3.5A3.5 3.5 0 0 1 3.5 0" transform="translate(99.582 46)" fill="#4269d0" stroke="#fff" stroke-width="0" stroke-linecap="butt" stroke-miterlimit="10"></path>
<text dominant-baseline="central" text-anchor="start" style="font-size:16px;font-family:Arial;" x="30" y="7" transform="translate(99.582 46)" fill="#000000">General</text>
<path d="M3.5 0L21.5 0A3.5 3.5 0 0 1 25 3.5L25 10.5A3.5 3.5 0 0 1 21.5 14L3.5 14A3.5 3.5 0 0 1 0 10.5L0 3.5A3.5 3.5 0 0 1 3.5 0" transform="translate(196.5039 46)" fill="#3ca951" stroke="#fff" stroke-width="0" stroke-linecap="butt" stroke-miterlimit="10"></path>
<text dominant-baseline="central" text-anchor="start" style="font-size:16px;font-family:Arial;" xml:space="preserve" x="30" y="7" transform="translate(196.5039 46)" fill="#000000">General excl. food &amp; fuel</text>
<path d="M3.5 0L21.5 0A3.5 3.5 0 0 1 25 3.5L25 10.5A3.5 3.5 0 0 1 21.5 14L3.5 14A3.5 3.5 0 0 1 0 10.5L0 3.5A3.5 3.5 0 0 1 3.5 0" transform="translate(411.7148 46)" fill="#ff725c" stroke="#fff" stroke-width="0" stroke-linecap="butt" stroke-miterlimit="10"></path>
<text dominant-baseline="central" text-anchor="start" style="font-size:16px;font-family:Arial;" x="30" y="7" transform="translate(411.7148 46)" fill="#000000">Housing</text>
<path d="M-68.793 -5l137.5859 0l0 38.0001l-137.5859 0Z" transform="translate(300 15)" fill="rgb(0,0,0)" fill-opacity="0" stroke="#ccc" stroke-width="0"></path>
<text dominant-baseline="central" text-anchor="middle" style="font-size:28px;font-family:Arial;font-weight:700;" xml:space="preserve" y="14.00006103515625" transform="translate(300 15)" fill="#000000">Bar Chart</text>
</svg>