<svg version="1.1" class="marks" width="538" height="215" viewBox="-100,-100,1000,1000" xmlns="http://www.w3.org/2000/svg" xmlns:xlink="http://www.w3.org/1999/xlink"><g ><g version="1.1" class="marks" width="538" height="215" viewBox="0 0 538 215"><g fill="none" stroke-miterlimit="10" transform="translate(83,10)"><g class="mark-group role-frame root" role="graphics-object" aria-roledescription="group mark container"><g transform="translate(0,0)" class="mark-group role-axis" role="graphics-symbol" aria-roledescription="axis" aria-label="X-axis for a linear scale with values from 0 to 30"><g transform="translate(0.5,0.5)" class="mark-rule role-axis-tick" pointer-events="none"><line transform="translate(0,0)" x2="0" y2="-5" stroke="#0f223b" stroke-opacity="0" stroke-width="1" opacity="1"/>
<line transform="translate(30,0)" x2="0" y2="-5" stroke="#0f223b" stroke-opacity="0" stroke-width="1" opacity="1"/>
<line transform="translate(60,0)" x2="0" y2="-5" stroke="#0f223b" stroke-opacity="0" stroke-width="1" opacity="1"/>
<line transform="translate(90,0)" x2="0" y2="-5" stroke="#0f223b" stroke-opacity="0" stroke-width="1" opacity="1"/>
<line transform="translate(120,0)" x2="0" y2="-5" stroke="#0f223b" stroke-opacity="0" stroke-width="1" opacity="1"/>
<line transform="translate(150,0)" x2="0" y2="-5" stroke="#0f223b" stroke-opacity="0" stroke-width="1" opacity="1"/>
<line transform="translate(180,0)" x2="0" y2="-5" stroke="#0f223b" stroke-opacity="0" stroke-width="1" opacity="1"/>
<line transform="translate(210,0)" x2="0" y2="-5" stroke="#0f223b" stroke-opacity="0" stroke-width="1" opacity="1"/>
<line transform="translate(240,0)" x2="0" y2="-5" stroke="#0f223b" stroke-opacity="0" stroke-width="1" opacity="1"/>
<line transform="translate(270,0)" x2="0" y2="-5" stroke="#0f223b" stroke-opacity="0" stroke-width="1" opacity="1"/>
<line transform="translate(300,0)" x2="0" y2="-5" stroke="#0f223b" stroke-opacity="0" stroke-width="1" opacity="1"/>
<line transform="translate(330,0)" x2="0" y2="-5" stroke="#0f223b" stroke-opacity="0" stroke-width="1" opacity="1"/>
<line transform="translate(360,0)" x2="0" y2="-5" stroke="#0f223b" stroke-opacity="0" stroke-width="1" opacity="1"/>
<line transform="translate(390,0)" x2="0" y2="-5" stroke="#0f223b" stroke-opacity="0" stroke-width="1" opacity="1"/>
<line transform="translate(420,0)" x2="0" y2="-5" stroke="#0f223b" stroke-opacity="0" stroke-width="1" opacity="1"/>
<line transform="translate(450,0)" x2="0" y2="-5" stroke="#0f223b" stroke-opacity="0" stroke-width="1" opacity="1"/></g>
<g transform="translate(0.5,0.5)" class="mark-rule role-axis-domain" pointer-events="none"><line transform="translate(0,0)" x2="450" y2="0" stroke="#0f223b" stroke-opacity="0" stroke-width="1" opacity="1"/></g></g>
<g transform="translate(0,0)" class="mark-group role-axis" role="graphics-symbol" aria-roledescription="axis" aria-label="Y-axis for a discrete scale with 5 values: China, India, Japan, USSR, United States"><g transform="translate(0.5,0.5)" class="mark-rule role-axis-tick" pointer-events="none"><line transform="translate(0,21)" x2="-5" y2="0" stroke="#0f223b" stroke-opacity="0" stroke-width="1" opacity="1"/>
<line transform="translate(0,60)" x2="-5" y2="0" stroke="#0f223b" stroke-opacity="0" stroke-width="1" opacity="1"/>
<line transform="translate(0,99)" x2="-5" y2="0" stroke="#0f223b" stroke-opacity="0" stroke-width="1" opacity="1"/>
<line transform="translate(0,139)" x2="-5" y2="0" stroke="#0f223b" stroke-opacity="0" stroke-width="1" opacity="1"/>
<line transform="translate(0,178)" x2="-5" y2="0" stroke="#0f223b" stroke-opacity="0" stroke-width="1" opacity="1"/></g>
<g transform="translate(0.5,0.5)" class="mark-text role-axis-label" pointer-events="none"><text text-anchor="end" transform="translate(-10,24.06862745098039)" font-family="sans-serif" font-size="10px" fill="#000d2a" opacity="1">China
</text>
<text text-anchor="end" transform="translate(-10,63.28431372549019)" font-family="sans-serif" font-size="10px" fill="#000d2a" opacity="1">India
</text>
<text text-anchor="end" transform="translate(-10,102.49999999999999)" font-family="sans-serif" font-size="10px" fill="#000d2a" opacity="1">Japan
</text>
<text text-anchor="end" transform="translate(-10,141.71568627450978)" font-family="sans-serif" font-size="10px" fill="#000d2a" opacity="1">USSR
</text>
<text text-anchor="end" transform="translate(-10,180.93137254901958)" font-family="sans-serif" font-size="10px" fill="#000d2a" opacity="1">United States
</text></g>
<g transform="translate(0.5,0.5)" class="mark-rule role-axis-domain" pointer-events="none"><line transform="translate(0,0)" x2="0" y2="200" stroke="#0f223b" stroke-opacity="0" stroke-width="1" opacity="1"/></g></g>
<g transform="translate(0,0)" class="mark-rect role-mark layer_0_marks" role="graphics-object" aria-roledescription="rect mark container"><path aria-label="Score: 11; Country: United States; Mission Type: Lander" role="graphics-symbol" aria-roledescription="bar" d="M60,166.78431372549016h165v23.294117647058822h-165Z" fill="#393b79" opacity="1"/>
<path aria-label="Score: 4; Country: United States; Mission Type: Impactor" role="graphics-symbol" aria-roledescription="bar" d="M0,166.78431372549016h60v23.294117647058822h-60Z" fill="#de9ed6" opacity="1"/>
<path aria-label="Score: 15; Country: United States; Mission Type: Total" role="graphics-symbol" aria-roledescription="bar" d="M225,166.78431372549016h225v23.294117647058822h-225Z" fill="#e7ba52" opacity="1"/>
<path aria-label="Score: 7; Country: USSR; Mission Type: Lander" role="graphics-symbol" aria-roledescription="bar" d="M15,127.56862745098037h105v23.294117647058822h-105Z" fill="#393b79" opacity="1"/>
<path aria-label="Score: 1; Country: USSR; Mission Type: Impactor" role="graphics-symbol" aria-roledescription="bar" d="M0,127.56862745098037h15v23.294117647058822h-15Z" fill="#de9ed6" opacity="1"/>
<path aria-label="Score: 8; Country: USSR; Mission Type: Total" role="graphics-symbol" aria-roledescription="bar" d="M120,127.56862745098037h120v23.294117647058822h-120Z" fill="#e7ba52" opacity="1"/>
<path aria-label="Score: 3; Country: China; Mission Type: Lander" role="graphics-symbol" aria-roledescription="bar" d="M0,9.92156862745098h45v23.294117647058822h-45Z" fill="#393b79" opacity="1"/>
<path aria-label="Score: 3; Country: China; Mission Type: Total" role="graphics-symbol" aria-roledescription="bar" d="M45,9.92156862745098h45v23.294117647058822h-45Z" fill="#e7ba52" opacity="1"/>
<path aria-label="Score: 1; Country: India; Mission Type: Lander" role="graphics-symbol" aria-roledescription="bar" d="M15,49.13725490196078h15v23.294117647058822h-15Z" fill="#393b79" opacity="1"/>
<path aria-label="Score: 1; Country: India; Mission Type: Impactor" role="graphics-symbol" aria-roledescription="bar" d="M0,49.13725490196078h15v23.294117647058822h-15Z" fill="#de9ed6" opacity="1"/>
<path aria-label="Score: 2; Country: India; Mission Type: Total" role="graphics-symbol" aria-roledescription="bar" d="M30,49.13725490196078h30v23.294117647058822h-30Z" fill="#e7ba52" opacity="1"/>
<path aria-label="Score: 1; Country: Japan; Mission Type: Lander" role="graphics-symbol" aria-roledescription="bar" d="M0,88.35294117647058h15v23.294117647058822h-15Z" fill="#393b79" opacity="1"/>
<path aria-label="Score: 1; Country: Japan; Mission Type: Total" role="graphics-symbol" aria-roledescription="bar" d="M15,88.35294117647058h15v23.294117647058822h-15Z" fill="#e7ba52" opacity="1"/></g></g></g></g></g></svg>