<svg version="1.1" class="marks" width="499" height="235" viewBox="-100,-100,1000,1000" xmlns="http://www.w3.org/2000/svg" xmlns:xlink="http://www.w3.org/1999/xlink"><g ><g version="1.1" class="marks" width="499" height="235" viewBox="0 0 499 235"><g fill="none" stroke-miterlimit="10" transform="translate(44,10)"><g class="mark-group role-frame root" role="graphics-object" aria-roledescription="group mark container"><g transform="translate(0,0)" class="mark-group role-axis" role="graphics-symbol" aria-roledescription="axis" aria-label="X-axis for a discrete scale with 11 values: 2007, 2008, 2009, 2010, 2011, ending with 2017"><g transform="translate(0.5,200.5)" class="mark-rule role-axis-tick" pointer-events="none"><line transform="translate(20,0)" x2="0" y2="5" stroke="#0f223b" stroke-opacity="0" stroke-width="1" opacity="1"/>
<line transform="translate(61,0)" x2="0" y2="5" stroke="#0f223b" stroke-opacity="0" stroke-width="1" opacity="1"/>
<line transform="translate(102,0)" x2="0" y2="5" stroke="#0f223b" stroke-opacity="0" stroke-width="1" opacity="1"/>
<line transform="translate(143,0)" x2="0" y2="5" stroke="#0f223b" stroke-opacity="0" stroke-width="1" opacity="1"/>
<line transform="translate(184,0)" x2="0" y2="5" stroke="#0f223b" stroke-opacity="0" stroke-width="1" opacity="1"/>
<line transform="translate(225,0)" x2="0" y2="5" stroke="#0f223b" stroke-opacity="0" stroke-width="1" opacity="1"/>
<line transform="translate(266,0)" x2="0" y2="5" stroke="#0f223b" stroke-opacity="0" stroke-width="1" opacity="1"/>
<line transform="translate(307,0)" x2="0" y2="5" stroke="#0f223b" stroke-opacity="0" stroke-width="1" opacity="1"/>
<line transform="translate(348,0)" x2="0" y2="5" stroke="#0f223b" stroke-opacity="0" stroke-width="1" opacity="1"/>
<line transform="translate(389,0)" x2="0" y2="5" stroke="#0f223b" stroke-opacity="0" stroke-width="1" opacity="1"/>
<line transform="translate(430,0)" x2="0" y2="5" stroke="#0f223b" stroke-opacity="0" stroke-width="1" opacity="1"/></g>
<g transform="translate(0.5,200.5)" class="mark-text role-axis-label" pointer-events="none"><text text-anchor="middle" transform="translate(20.454545454545467,18)" font-family="sans-serif" font-size="10px" fill="#000d2a" opacity="1">2007
</text>
<text text-anchor="middle" transform="translate(61.363636363636374,18)" font-family="sans-serif" font-size="10px" fill="#000d2a" opacity="1">2008
</text>
<text text-anchor="middle" transform="translate(102.27272727272728,18)" font-family="sans-serif" font-size="10px" fill="#000d2a" opacity="1">2009
</text>
<text text-anchor="middle" transform="translate(143.1818181818182,18)" font-family="sans-serif" font-size="10px" fill="#000d2a" opacity="1">2010
</text>
<text text-anchor="middle" transform="translate(184.0909090909091,18)" font-family="sans-serif" font-size="10px" fill="#000d2a" opacity="1">2011
</text>
<text text-anchor="middle" transform="translate(225,18)" font-family="sans-serif" font-size="10px" fill="#000d2a" opacity="1">2012
</text>
<text text-anchor="middle" transform="translate(265.9090909090909,18)" font-family="sans-serif" font-size="10px" fill="#000d2a" opacity="1">2013
</text>
<text text-anchor="middle" transform="translate(306.81818181818187,18)" font-family="sans-serif" font-size="10px" fill="#000d2a" opacity="1">2014
</text>
<text text-anchor="middle" transform="translate(347.72727272727275,18)" font-family="sans-serif" font-size="10px" fill="#000d2a" opacity="1">2015
</text>
<text text-anchor="middle" transform="translate(388.6363636363636,18)" font-family="sans-serif" font-size="10px" fill="#000d2a" opacity="1">2016
</text>
<text text-anchor="middle" transform="translate(429.5454545454545,18)" font-family="sans-serif" font-size="10px" fill="#000d2a" opacity="1">2017
</text></g>
<g transform="translate(0.5,200.5)" class="mark-rule role-axis-domain" pointer-events="none"><line transform="translate(0,0)" x2="450" y2="0" stroke="#0f223b" stroke-opacity="0" stroke-width="1" opacity="1"/></g></g>
<g transform="translate(0,0)" class="mark-group role-axis" role="graphics-symbol" aria-roledescription="axis" aria-label="Y-axis for a linear scale with values from 0 to 1,000"><g transform="translate(0.5,0.5)" class="mark-rule role-axis-tick" pointer-events="none"><line transform="translate(0,200)" x2="-5" y2="0" stroke="#0f223b" stroke-opacity="0" stroke-width="1" opacity="1"/>
<line transform="translate(0,160)" x2="-5" y2="0" stroke="#0f223b" stroke-opacity="0" stroke-width="1" opacity="1"/>
<line transform="translate(0,120)" x2="-5" y2="0" stroke="#0f223b" stroke-opacity="0" stroke-width="1" opacity="1"/>
<line transform="translate(0,80)" x2="-5" y2="0" stroke="#0f223b" stroke-opacity="0" stroke-width="1" opacity="1"/>
<line transform="translate(0,40)" x2="-5" y2="0" stroke="#0f223b" stroke-opacity="0" stroke-width="1" opacity="1"/>
<line transform="translate(0,0)" x2="-5" y2="0" stroke="#0f223b" stroke-opacity="0" stroke-width="1" opacity="1"/></g>
<g transform="translate(0.5,0.5)" class="mark-text role-axis-label" pointer-events="none"><text text-anchor="end" transform="translate(-10,203)" font-family="sans-serif" font-size="10px" fill="#000d2a" opacity="1">0
</text>
<text text-anchor="end" transform="translate(-10,163)" font-family="sans-serif" font-size="10px" fill="#000d2a" opacity="1">200
</text>
<text text-anchor="end" transform="translate(-10,123)" font-family="sans-serif" font-size="10px" fill="#000d2a" opacity="1">400
</text>
<text text-anchor="end" transform="translate(-10,83)" font-family="sans-serif" font-size="10px" fill="#000d2a" opacity="1">600
</text>
<text text-anchor="end" transform="translate(-10,42.99999999999999)" font-family="sans-serif" font-size="10px" fill="#000d2a" opacity="1">800
</text>
<text text-anchor="end" transform="translate(-10,3)" font-family="sans-serif" font-size="10px" fill="#000d2a" opacity="1">1,000
</text></g>
<g transform="translate(0.5,0.5)" class="mark-rule role-axis-domain" pointer-events="none"><line transform="translate(0,200)" x2="0" y2="-200" stroke="#0f223b" stroke-opacity="0" stroke-width="1" opacity="1"/></g></g>
<g transform="translate(0,0)" class="mark-line role-mark marks" role="graphics-object" aria-roledescription="line mark container"><path aria-label="Year: 2007; S&P 500 Information Technology Sector Index: 400" role="graphics-symbol" aria-roledescription="line mark" d="M20.455,120L40.909,120L40.909,140L81.818,140L81.818,130L122.727,130L122.727,120L163.636,120L163.636,110L204.545,110L204.545,100L245.455,100L245.455,80L286.364,80L286.364,60L327.273,60L327.273,50L368.182,50L368.182,40L409.091,40L409.091,1.542L429.545,1.542" stroke="#4c78a8" stroke-width="2" opacity="1"/></g></g></g></g></g></svg>