<svg version="1.1" class="marks" width="483" height="235" viewBox="-100,-100,1000,1000" xmlns="http://www.w3.org/2000/svg" xmlns:xlink="http://www.w3.org/1999/xlink"><g ><g version="1.1" class="marks" width="483" height="235" viewBox="0 0 483 235"><g fill="none" stroke-miterlimit="10" transform="translate(28,10)"><g class="mark-group role-frame root" role="graphics-object" aria-roledescription="group mark container"><g transform="translate(0,0)" class="mark-group role-axis" role="graphics-symbol" aria-roledescription="axis" aria-label="X-axis for a discrete scale with 12 values: Apr, Aug, Dec, Feb, Jan, ending with Sep"><g transform="translate(0.5,200.5)" class="mark-rule role-axis-tick" pointer-events="none"><line transform="translate(19,0)" x2="0" y2="5" stroke="#0f223b" stroke-opacity="0" stroke-width="1" opacity="1"/>
<line transform="translate(56,0)" x2="0" y2="5" stroke="#0f223b" stroke-opacity="0" stroke-width="1" opacity="1"/>
<line transform="translate(94,0)" x2="0" y2="5" stroke="#0f223b" stroke-opacity="0" stroke-width="1" opacity="1"/>
<line transform="translate(131,0)" x2="0" y2="5" stroke="#0f223b" stroke-opacity="0" stroke-width="1" opacity="1"/>
<line transform="translate(169,0)" x2="0" y2="5" stroke="#0f223b" stroke-opacity="0" stroke-width="1" opacity="1"/>
<line transform="translate(206,0)" x2="0" y2="5" stroke="#0f223b" stroke-opacity="0" stroke-width="1" opacity="1"/>
<line transform="translate(244,0)" x2="0" y2="5" stroke="#0f223b" stroke-opacity="0" stroke-width="1" opacity="1"/>
<line transform="translate(281,0)" x2="0" y2="5" stroke="#0f223b" stroke-opacity="0" stroke-width="1" opacity="1"/>
<line transform="translate(319,0)" x2="0" y2="5" stroke="#0f223b" stroke-opacity="0" stroke-width="1" opacity="1"/>
<line transform="translate(356,0)" x2="0" y2="5" stroke="#0f223b" stroke-opacity="0" stroke-width="1" opacity="1"/>
<line transform="translate(394,0)" x2="0" y2="5" stroke="#0f223b" stroke-opacity="0" stroke-width="1" opacity="1"/>
<line transform="translate(431,0)" x2="0" y2="5" stroke="#0f223b" stroke-opacity="0" stroke-width="1" opacity="1"/></g>
<g transform="translate(0.5,200.5)" class="mark-text role-axis-label" pointer-events="none"><text text-anchor="middle" transform="translate(18.75,18)" font-family="sans-serif" font-size="10px" fill="#000d2a" opacity="1">Apr
</text>
<text text-anchor="middle" transform="translate(56.25,18)" font-family="sans-serif" font-size="10px" fill="#000d2a" opacity="1">Aug
</text>
<text text-anchor="middle" transform="translate(93.75,18)" font-family="sans-serif" font-size="10px" fill="#000d2a" opacity="1">Dec
</text>
<text text-anchor="middle" transform="translate(131.25,18)" font-family="sans-serif" font-size="10px" fill="#000d2a" opacity="1">Feb
</text>
<text text-anchor="middle" transform="translate(168.75,18)" font-family="sans-serif" font-size="10px" fill="#000d2a" opacity="1">Jan
</text>
<text text-anchor="middle" transform="translate(206.25,18)" font-family="sans-serif" font-size="10px" fill="#000d2a" opacity="1">Jul
</text>
<text text-anchor="middle" transform="translate(243.75,18)" font-family="sans-serif" font-size="10px" fill="#000d2a" opacity="1">Jun
</text>
<text text-anchor="middle" transform="translate(281.25,18)" font-family="sans-serif" font-size="10px" fill="#000d2a" opacity="1">Mar
</text>
<text text-anchor="middle" transform="translate(318.75,18)" font-family="sans-serif" font-size="10px" fill="#000d2a" opacity="1">May
</text>
<text text-anchor="middle" transform="translate(356.25,18)" font-family="sans-serif" font-size="10px" fill="#000d2a" opacity="1">Nov
</text>
<text text-anchor="middle" transform="translate(393.75,18)" font-family="sans-serif" font-size="10px" fill="#000d2a" opacity="1">Oct
</text>
<text text-anchor="middle" transform="translate(431.25,18)" font-family="sans-serif" font-size="10px" fill="#000d2a" opacity="1">Sep
</text></g>
<g transform="translate(0.5,200.5)" class="mark-rule role-axis-domain" pointer-events="none"><line transform="translate(0,0)" x2="450" y2="0" stroke="#0f223b" stroke-opacity="0" stroke-width="1" opacity="1"/></g></g>
<g transform="translate(0,0)" class="mark-group role-axis" role="graphics-symbol" aria-roledescription="axis" aria-label="Y-axis for a linear scale with values from 0 to 80"><g transform="translate(0.5,0.5)" class="mark-rule role-axis-tick" pointer-events="none"><line transform="translate(0,200)" x2="-5" y2="0" stroke="#0f223b" stroke-opacity="0" stroke-width="1" opacity="1"/>
<line transform="translate(0,150)" x2="-5" y2="0" stroke="#0f223b" stroke-opacity="0" stroke-width="1" opacity="1"/>
<line transform="translate(0,100)" x2="-5" y2="0" stroke="#0f223b" stroke-opacity="0" stroke-width="1" opacity="1"/>
<line transform="translate(0,50)" x2="-5" y2="0" stroke="#0f223b" stroke-opacity="0" stroke-width="1" opacity="1"/>
<line transform="translate(0,0)" x2="-5" y2="0" stroke="#0f223b" stroke-opacity="0" stroke-width="1" opacity="1"/></g>
<g transform="translate(0.5,0.5)" class="mark-text role-axis-label" pointer-events="none"><text text-anchor="end" transform="translate(-10,203)" font-family="sans-serif" font-size="10px" fill="#000d2a" opacity="1">0
</text>
<text text-anchor="end" transform="translate(-10,153)" font-family="sans-serif" font-size="10px" fill="#000d2a" opacity="1">20
</text>
<text text-anchor="end" transform="translate(-10,103)" font-family="sans-serif" font-size="10px" fill="#000d2a" opacity="1">40
</text>
<text text-anchor="end" transform="translate(-10,53)" font-family="sans-serif" font-size="10px" fill="#000d2a" opacity="1">60
</text>
<text text-anchor="end" transform="translate(-10,3)" font-family="sans-serif" font-size="10px" fill="#000d2a" opacity="1">80
</text></g>
<g transform="translate(0.5,0.5)" class="mark-rule role-axis-domain" pointer-events="none"><line transform="translate(0,200)" x2="0" y2="-200" stroke="#0f223b" stroke-opacity="0" stroke-width="1" opacity="1"/></g></g>
<g transform="translate(0,0)" class="mark-group role-scope pathgroup" role="graphics-object" aria-roledescription="group mark container"><g transform="translate(0,0)" class="mark-line role-mark marks" role="graphics-object" aria-roledescription="line mark container"><path aria-label="Month: Apr; Score: 45; Platform: Twitter" role="graphics-symbol" aria-roledescription="line mark" d="M18.75,87.5L37.5,87.5L37.5,70L75,70L75,105L112.5,105L112.5,37.5L150,37.5L150,50L187.5,50L187.5,80L225,80L225,87.5L262.5,87.5L262.5,62.5L300,62.5L300,100L337.5,100L337.5,105L375,105L375,87.5L412.5,87.5L412.5,75L431.25,75" stroke="#66c2a5" stroke-width="2" opacity="1"/></g>
<g transform="translate(0,0)" class="mark-line role-mark marks" role="graphics-object" aria-roledescription="line mark container"><path aria-label="Month: Apr; Score: 60; Platform: Facebook" role="graphics-symbol" aria-roledescription="line mark" d="M18.75,50L37.5,50L37.5,12.5L75,12.5L75,0L112.5,0L112.5,37.5L150,37.5L150,62.5L187.5,62.5L187.5,25L225,25L225,37.5L262.5,37.5L262.5,12.5L300,12.5L300,50L337.5,50L337.5,12.5L375,12.5L375,12.5L412.5,12.5L412.5,5L431.25,5" stroke="#b3b3b3" stroke-width="2" opacity="1"/></g></g></g></g></g></g></svg>