<svg version="1.1" class="marks" width="428.82267333808784" height="359.02090248978544" viewBox="0 0 528.8226733380878 459.02090248978544" xmlns="http://www.w3.org/2000/svg" xmlns:xlink="http://www.w3.org/1999/xlink"><rect width="100%" height="100%" fill="#ffffff"/>
<g transform="translate(50.0, 51.79674862622685)"><rect x="0" y="0" width="15" height="150" fill="#414854" transform="scale(1.5331296737756315) scale(0.6094130859375)"/>
<text class="chart-title-line" x="0" y="0" text-anchor="start" font-family="sans-serif" font-size="24" font-weight="700" fill="#0f2740" letter-spacing="0" transform="scale(1.5331296737756315) translate(19.1411962890625, 20.953051757812496)">Shifts in Global Satellite
</text>
<text class="chart-title-line" x="0" y="0" text-anchor="start" font-family="sans-serif" font-size="24" font-weight="700" fill="#0f2740" letter-spacing="0" transform="scale(1.5331296737756315) translate(19.1411962890625, 20.953051757812496) translate(0.0, 27.1640625)">Ownership Landscape
</text>
<text class="chart-subtitle-line" x="0" y="0" text-anchor="start" font-family="sans-serif" font-size="13" font-weight="400" fill="#445f7c" letter-spacing="0.25" transform="scale(1.5331296737756315) translate(19.1411962890625, 20.953051757812496) translate(0.0, 54.1875)">"Investments in communication and earth
</text>
<text class="chart-subtitle-line" x="0" y="0" text-anchor="start" font-family="sans-serif" font-size="13" font-weight="400" fill="#445f7c" letter-spacing="0.25" transform="scale(1.5331296737756315) translate(19.1411962890625, 20.953051757812496) translate(0.0, 54.1875) translate(0.0, 14.7138671875)">observation satellites grow."
</text>
<path transform="translate(-92.54549072441218, 150.08376647192085) translate(5.0,8.0) translate(393,0) translate(0,16) translate(0,0) translate(6,6)" d="M5,0A5,5,0,1,1,-5,0A5,5,0,1,1,5,0" fill="#4c78a8" stroke="#ffffff" stroke-width="1.5" opacity="1" class="mark-symbol role-legend-symbol" pointer-events="none" role="graphics-object" aria-roledescription="group mark container" aria-label="Symbol legend titled 'Owner' for fill color with 10 values: Chinese Government, Iridium Communications, OneWeb Satellites, Other, Planet Labs Inc, ending with US Government" stroke-miterlimit="10" version="1.1" width="535" height="216" viewBox="0 0 535 216"/>
<text text-anchor="start" transform="translate(-92.54549072441218, 150.08376647192085) translate(5.0,8.0) translate(393,0) translate(0,16) translate(0,0) translate(16,9)" font-family="sans-serif" font-size="10px" fill="#000" opacity="1" class="mark-text role-legend-label" pointer-events="none" role="graphics-object" aria-roledescription="group mark container" aria-label="Symbol legend titled 'Owner' for fill color with 10 values: Chinese Government, Iridium Communications, OneWeb Satellites, Other, Planet Labs Inc, ending with US Government" stroke-miterlimit="10" version="1.1" width="535" height="216" viewBox="0 0 535 216">Chinese Government
</text>
<path transform="translate(-92.54549072441218, 150.08376647192085) translate(5.0,8.0) translate(393,0) translate(0,16) translate(0,16) translate(6,6)" d="M5,0A5,5,0,1,1,-5,0A5,5,0,1,1,5,0" fill="#f58518" stroke="#ffffff" stroke-width="1.5" opacity="1" class="mark-symbol role-legend-symbol" pointer-events="none" role="graphics-object" aria-roledescription="group mark container" aria-label="Symbol legend titled 'Owner' for fill color with 10 values: Chinese Government, Iridium Communications, OneWeb Satellites, Other, Planet Labs Inc, ending with US Government" stroke-miterlimit="10" version="1.1" width="535" height="216" viewBox="0 0 535 216"/>
<text text-anchor="start" transform="translate(-92.54549072441218, 150.08376647192085) translate(5.0,8.0) translate(393,0) translate(0,16) translate(0,16) translate(16,9)" font-family="sans-serif" font-size="10px" fill="#000" opacity="1" class="mark-text role-legend-label" pointer-events="none" role="graphics-object" aria-roledescription="group mark container" aria-label="Symbol legend titled 'Owner' for fill color with 10 values: Chinese Government, Iridium Communications, OneWeb Satellites, Other, Planet Labs Inc, ending with US Government" stroke-miterlimit="10" version="1.1" width="535" height="216" viewBox="0 0 535 216">Iridium Communications
</text>
<path transform="translate(-92.54549072441218, 150.08376647192085) translate(5.0,8.0) translate(393,0) translate(0,16) translate(0,32) translate(6,6)" d="M5,0A5,5,0,1,1,-5,0A5,5,0,1,1,5,0" fill="#e45756" stroke="#ffffff" stroke-width="1.5" opacity="1" class="mark-symbol role-legend-symbol" pointer-events="none" role="graphics-object" aria-roledescription="group mark container" aria-label="Symbol legend titled 'Owner' for fill color with 10 values: Chinese Government, Iridium Communications, OneWeb Satellites, Other, Planet Labs Inc, ending with US Government" stroke-miterlimit="10" version="1.1" width="535" height="216" viewBox="0 0 535 216"/>
<text text-anchor="start" transform="translate(-92.54549072441218, 150.08376647192085) translate(5.0,8.0) translate(393,0) translate(0,16) translate(0,32) translate(16,9)" font-family="sans-serif" font-size="10px" fill="#000" opacity="1" class="mark-text role-legend-label" pointer-events="none" role="graphics-object" aria-roledescription="group mark container" aria-label="Symbol legend titled 'Owner' for fill color with 10 values: Chinese Government, Iridium Communications, OneWeb Satellites, Other, Planet Labs Inc, ending with US Government" stroke-miterlimit="10" version="1.1" width="535" height="216" viewBox="0 0 535 216">OneWeb Satellites
</text>
<path transform="translate(-92.54549072441218, 150.08376647192085) translate(5.0,8.0) translate(393,0) translate(0,16) translate(0,48) translate(6,6)" d="M5,0A5,5,0,1,1,-5,0A5,5,0,1,1,5,0" fill="#72b7b2" stroke="#ffffff" stroke-width="1.5" opacity="1" class="mark-symbol role-legend-symbol" pointer-events="none" role="graphics-object" aria-roledescription="group mark container" aria-label="Symbol legend titled 'Owner' for fill color with 10 values: Chinese Government, Iridium Communications, OneWeb Satellites, Other, Planet Labs Inc, ending with US Government" stroke-miterlimit="10" version="1.1" width="535" height="216" viewBox="0 0 535 216"/>
<text text-anchor="start" transform="translate(-92.54549072441218, 150.08376647192085) translate(5.0,8.0) translate(393,0) translate(0,16) translate(0,48) translate(16,9)" font-family="sans-serif" font-size="10px" fill="#000" opacity="1" class="mark-text role-legend-label" pointer-events="none" role="graphics-object" aria-roledescription="group mark container" aria-label="Symbol legend titled 'Owner' for fill color with 10 values: Chinese Government, Iridium Communications, OneWeb Satellites, Other, Planet Labs Inc, ending with US Government" stroke-miterlimit="10" version="1.1" width="535" height="216" viewBox="0 0 535 216">Other
</text>
<path transform="translate(-92.54549072441218, 150.08376647192085) translate(5.0,8.0) translate(393,0) translate(0,16) translate(0,64) translate(6,6)" d="M5,0A5,5,0,1,1,-5,0A5,5,0,1,1,5,0" fill="#54a24b" stroke="#ffffff" stroke-width="1.5" opacity="1" class="mark-symbol role-legend-symbol" pointer-events="none" role="graphics-object" aria-roledescription="group mark container" aria-label="Symbol legend titled 'Owner' for fill color with 10 values: Chinese Government, Iridium Communications, OneWeb Satellites, Other, Planet Labs Inc, ending with US Government" stroke-miterlimit="10" version="1.1" width="535" height="216" viewBox="0 0 535 216"/>
<text text-anchor="start" transform="translate(-92.54549072441218, 150.08376647192085) translate(5.0,8.0) translate(393,0) translate(0,16) translate(0,64) translate(16,9)" font-family="sans-serif" font-size="10px" fill="#000" opacity="1" class="mark-text role-legend-label" pointer-events="none" role="graphics-object" aria-roledescription="group mark container" aria-label="Symbol legend titled 'Owner' for fill color with 10 values: Chinese Government, Iridium Communications, OneWeb Satellites, Other, Planet Labs Inc, ending with US Government" stroke-miterlimit="10" version="1.1" width="535" height="216" viewBox="0 0 535 216">Planet Labs Inc
</text>
<path transform="translate(-92.54549072441218, 150.08376647192085) translate(5.0,8.0) translate(393,0) translate(0,16) translate(0,80) translate(6,6)" d="M5,0A5,5,0,1,1,-5,0A5,5,0,1,1,5,0" fill="#eeca3b" stroke="#ffffff" stroke-width="1.5" opacity="1" class="mark-symbol role-legend-symbol" pointer-events="none" role="graphics-object" aria-roledescription="group mark container" aria-label="Symbol legend titled 'Owner' for fill color with 10 values: Chinese Government, Iridium Communications, OneWeb Satellites, Other, Planet Labs Inc, ending with US Government" stroke-miterlimit="10" version="1.1" width="535" height="216" viewBox="0 0 535 216"/>
<text text-anchor="start" transform="translate(-92.54549072441218, 150.08376647192085) translate(5.0,8.0) translate(393,0) translate(0,16) translate(0,80) translate(16,9)" font-family="sans-serif" font-size="10px" fill="#000" opacity="1" class="mark-text role-legend-label" pointer-events="none" role="graphics-object" aria-roledescription="group mark container" aria-label="Symbol legend titled 'Owner' for fill color with 10 values: Chinese Government, Iridium Communications, OneWeb Satellites, Other, Planet Labs Inc, ending with US Government" stroke-miterlimit="10" version="1.1" width="535" height="216" viewBox="0 0 535 216">Russian Federation
</text>
<path transform="translate(-92.54549072441218, 150.08376647192085) translate(5.0,8.0) translate(393,0) translate(0,16) translate(0,96) translate(6,6)" d="M5,0A5,5,0,1,1,-5,0A5,5,0,1,1,5,0" fill="#b279a2" stroke="#ffffff" stroke-width="1.5" opacity="1" class="mark-symbol role-legend-symbol" pointer-events="none" role="graphics-object" aria-roledescription="group mark container" aria-label="Symbol legend titled 'Owner' for fill color with 10 values: Chinese Government, Iridium Communications, OneWeb Satellites, Other, Planet Labs Inc, ending with US Government" stroke-miterlimit="10" version="1.1" width="535" height="216" viewBox="0 0 535 216"/>
<text text-anchor="start" transform="translate(-92.54549072441218, 150.08376647192085) translate(5.0,8.0) translate(393,0) translate(0,16) translate(0,96) translate(16,9)" font-family="sans-serif" font-size="10px" fill="#000" opacity="1" class="mark-text role-legend-label" pointer-events="none" role="graphics-object" aria-roledescription="group mark container" aria-label="Symbol legend titled 'Owner' for fill color with 10 values: Chinese Government, Iridium Communications, OneWeb Satellites, Other, Planet Labs Inc, ending with US Government" stroke-miterlimit="10" version="1.1" width="535" height="216" viewBox="0 0 535 216">SpaceX
</text>
<path transform="translate(-92.54549072441218, 150.08376647192085) translate(5.0,8.0) translate(393,0) translate(0,16) translate(0,112) translate(6,6)" d="M5,0A5,5,0,1,1,-5,0A5,5,0,1,1,5,0" fill="#ff9da6" stroke="#ffffff" stroke-width="1.5" opacity="1" class="mark-symbol role-legend-symbol" pointer-events="none" role="graphics-object" aria-roledescription="group mark container" aria-label="Symbol legend titled 'Owner' for fill color with 10 values: Chinese Government, Iridium Communications, OneWeb Satellites, Other, Planet Labs Inc, ending with US Government" stroke-miterlimit="10" version="1.1" width="535" height="216" viewBox="0 0 535 216"/>
<text text-anchor="start" transform="translate(-92.54549072441218, 150.08376647192085) translate(5.0,8.0) translate(393,0) translate(0,16) translate(0,112) translate(16,9)" font-family="sans-serif" font-size="10px" fill="#000" opacity="1" class="mark-text role-legend-label" pointer-events="none" role="graphics-object" aria-roledescription="group mark container" aria-label="Symbol legend titled 'Owner' for fill color with 10 values: Chinese Government, Iridium Communications, OneWeb Satellites, Other, Planet Labs Inc, ending with US Government" stroke-miterlimit="10" version="1.1" width="535" height="216" viewBox="0 0 535 216">Spire Global Inc
</text>
<path transform="translate(-92.54549072441218, 150.08376647192085) translate(5.0,8.0) translate(393,0) translate(0,16) translate(0,128) translate(6,6)" d="M5,0A5,5,0,1,1,-5,0A5,5,0,1,1,5,0" fill="#9d755d" stroke="#ffffff" stroke-width="1.5" opacity="1" class="mark-symbol role-legend-symbol" pointer-events="none" role="graphics-object" aria-roledescription="group mark container" aria-label="Symbol legend titled 'Owner' for fill color with 10 values: Chinese Government, Iridium Communications, OneWeb Satellites, Other, Planet Labs Inc, ending with US Government" stroke-miterlimit="10" version="1.1" width="535" height="216" viewBox="0 0 535 216"/>
<text text-anchor="start" transform="translate(-92.54549072441218, 150.08376647192085) translate(5.0,8.0) translate(393,0) translate(0,16) translate(0,128) translate(16,9)" font-family="sans-serif" font-size="10px" fill="#000" opacity="1" class="mark-text role-legend-label" pointer-events="none" role="graphics-object" aria-roledescription="group mark container" aria-label="Symbol legend titled 'Owner' for fill color with 10 values: Chinese Government, Iridium Communications, OneWeb Satellites, Other, Planet Labs Inc, ending with US Government" stroke-miterlimit="10" version="1.1" width="535" height="216" viewBox="0 0 535 216">Swarm Technologies
</text>
<path transform="translate(-92.54549072441218, 150.08376647192085) translate(5.0,8.0) translate(393,0) translate(0,16) translate(0,144) translate(6,6)" d="M5,0A5,5,0,1,1,-5,0A5,5,0,1,1,5,0" fill="#bab0ac" stroke="#ffffff" stroke-width="1.5" opacity="1" class="mark-symbol role-legend-symbol" pointer-events="none" role="graphics-object" aria-roledescription="group mark container" aria-label="Symbol legend titled 'Owner' for fill color with 10 values: Chinese Government, Iridium Communications, OneWeb Satellites, Other, Planet Labs Inc, ending with US Government" stroke-miterlimit="10" version="1.1" width="535" height="216" viewBox="0 0 535 216"/>
<text text-anchor="start" transform="translate(-92.54549072441218, 150.08376647192085) translate(5.0,8.0) translate(393,0) translate(0,16) translate(0,144) translate(16,9)" font-family="sans-serif" font-size="10px" fill="#000" opacity="1" class="mark-text role-legend-label" pointer-events="none" role="graphics-object" aria-roledescription="group mark container" aria-label="Symbol legend titled 'Owner' for fill color with 10 values: Chinese Government, Iridium Communications, OneWeb Satellites, Other, Planet Labs Inc, ending with US Government" stroke-miterlimit="10" version="1.1" width="535" height="216" viewBox="0 0 535 216">US Government
</text>
<text text-anchor="start" transform="translate(-92.54549072441218, 150.08376647192085) translate(5.0,8.0) translate(393,0) translate(0,9)" font-family="sans-serif" font-size="11px" font-weight="bold" fill="#000" opacity="1" class="mark-text role-legend-title" pointer-events="none" role="graphics-symbol" aria-roledescription="legend" aria-label="Symbol legend titled 'Owner' for fill color with 10 values: Chinese Government, Iridium Communications, OneWeb Satellites, Other, Planet Labs Inc, ending with US Government" stroke-miterlimit="10" version="1.1" width="535" height="216" viewBox="0 0 535 216">Owner
</text>
<path aria-label="Total: 3395.5; Owner: SpaceX" role="graphics-symbol" aria-roledescription="arc mark" transform="translate(-92.54549072441218, 150.08376647192085) translate(5.0,8.0) translate(187.5,100)" d="M-46.53,-88.515A100,100,0,1,0,49.401,86.946L24.701,43.473A50,50,0,1,1,-23.265,-44.258Z" fill="#b279a2" stroke="#ffffff" stroke-width="3" opacity="1" stroke-miterlimit="10" class="mark-arc role-mark marks" version="1.1" width="535" height="216" viewBox="0 0 535 216"/>
<path aria-label="Total: 502.7; Owner: OneWeb Satellites" role="graphics-symbol" aria-roledescription="arc mark" transform="translate(-92.54549072441218, 150.08376647192085) translate(5.0,8.0) translate(187.5,100)" d="M77.429,-63.283A100,100,0,0,0,40.377,-91.486L20.189,-45.743A50,50,0,0,1,38.714,-31.642Z" fill="#e45756" stroke="#ffffff" stroke-width="3" opacity="1" stroke-miterlimit="10" class="mark-arc role-mark marks" version="1.1" width="535" height="216" viewBox="0 0 535 216"/>
<path aria-label="Total: 369.5; Owner: Chinese Government" role="graphics-symbol" aria-roledescription="arc mark" transform="translate(-92.54549072441218, 150.08376647192085) translate(5.0,8.0) translate(187.5,100)" d="M33.86,-94.093A100,100,0,0,0,0,-100L0,-50A50,50,0,0,1,16.93,-47.046Z" fill="#4c78a8" stroke="#ffffff" stroke-width="3" opacity="1" stroke-miterlimit="10" class="mark-arc role-mark marks" version="1.1" width="535" height="216" viewBox="0 0 535 216"/>
<path aria-label="Total: 306.4; Owner: US Government" role="graphics-symbol" aria-roledescription="arc mark" transform="translate(-92.54549072441218, 150.08376647192085) translate(5.0,8.0) translate(187.5,100)" d="M0,-100A100,100,0,0,0,-28.254,-95.926L-14.127,-47.963A50,50,0,0,1,0,-50Z" fill="#bab0ac" stroke="#ffffff" stroke-width="3" opacity="1" stroke-miterlimit="10" class="mark-arc role-mark marks" version="1.1" width="535" height="216" viewBox="0 0 535 216"/>
<path aria-label="Total: 195.3; Owner: Planet Labs Inc" role="graphics-symbol" aria-roledescription="arc mark" transform="translate(-92.54549072441218, 150.08376647192085) translate(5.0,8.0) translate(187.5,100)" d="M60.117,79.912A100,100,0,0,0,73.627,67.669L36.813,33.835A50,50,0,0,1,30.058,39.956Z" fill="#54a24b" stroke="#ffffff" stroke-width="3" opacity="1" stroke-miterlimit="10" class="mark-arc role-mark marks" version="1.1" width="535" height="216" viewBox="0 0 535 216"/>
<path aria-label="Total: 137.2; Owner: Russian Federation" role="graphics-symbol" aria-roledescription="arc mark" transform="translate(-92.54549072441218, 150.08376647192085) translate(5.0,8.0) translate(187.5,100)" d="M49.401,86.946A100,100,0,0,0,60.117,79.912L30.058,39.956A50,50,0,0,1,24.701,43.473Z" fill="#eeca3b" stroke="#ffffff" stroke-width="3" opacity="1" stroke-miterlimit="10" class="mark-arc role-mark marks" version="1.1" width="535" height="216" viewBox="0 0 535 216"/>
<path aria-label="Total: 127.2; Owner: Spire Global Inc" role="graphics-symbol" aria-roledescription="arc mark" transform="translate(-92.54549072441218, 150.08376647192085) translate(5.0,8.0) translate(187.5,100)" d="M-35.701,-93.41A100,100,0,0,0,-46.53,-88.515L-23.265,-44.258A50,50,0,0,1,-17.85,-46.705Z" fill="#ff9da6" stroke="#ffffff" stroke-width="3" opacity="1" stroke-miterlimit="10" class="mark-arc role-mark marks" version="1.1" width="535" height="216" viewBox="0 0 535 216"/>
<path aria-label="Total: 84.1; Owner: Swarm Technologies" role="graphics-symbol" aria-roledescription="arc mark" transform="translate(-92.54549072441218, 150.08376647192085) translate(5.0,8.0) translate(187.5,100)" d="M-28.254,-95.926A100,100,0,0,0,-35.701,-93.41L-17.85,-46.705A50,50,0,0,1,-14.127,-47.963Z" fill="#9d755d" stroke="#ffffff" stroke-width="3" opacity="1" stroke-miterlimit="10" class="mark-arc role-mark marks" version="1.1" width="535" height="216" viewBox="0 0 535 216"/>
<path aria-label="Total: 75.1; Owner: Iridium Communications" role="graphics-symbol" aria-roledescription="arc mark" transform="translate(-92.54549072441218, 150.08376647192085) translate(5.0,8.0) translate(187.5,100)" d="M40.377,-91.486A100,100,0,0,0,33.86,-94.093L16.93,-47.046A50,50,0,0,1,20.189,-45.743Z" fill="#f58518" stroke="#ffffff" stroke-width="3" opacity="1" stroke-miterlimit="10" class="mark-arc role-mark marks" version="1.1" width="535" height="216" viewBox="0 0 535 216"/>
<path aria-label="Total: 1528; Owner: Other" role="graphics-symbol" aria-roledescription="arc mark" transform="translate(-92.54549072441218, 150.08376647192085) translate(5.0,8.0) translate(187.5,100)" d="M73.627,67.669A100,100,0,0,0,77.429,-63.283L38.714,-31.642A50,50,0,0,1,36.813,33.835Z" fill="#72b7b2" stroke="#ffffff" stroke-width="3" opacity="1" stroke-miterlimit="10" class="mark-arc role-mark marks" version="1.1" width="535" height="216" viewBox="0 0 535 216"/></g></svg>