<svg version="1.1" class="marks" width="418.695578125" height="341.97384480348103" viewBox="0 0 518.695578125 441.97384480348103" xmlns="http://www.w3.org/2000/svg" xmlns:xlink="http://www.w3.org/1999/xlink"><rect width="100%" height="100%" fill="#ffffff"/>
<g transform="translate(50.0, 79.70057302955665)"><text class="chart-title-line" x="0" y="0" text-anchor="start" font-family="sans-serif" font-size="24" font-weight="700" fill="#0f2740" letter-spacing="0" transform="scale(1.342398780996911)">Top Causes of Under-Five
</text>
<text class="chart-title-line" x="0" y="0" text-anchor="start" font-family="sans-serif" font-size="24" font-weight="700" fill="#0f2740" letter-spacing="0" transform="scale(1.342398780996911) translate(0.0, 27.1640625)">Deaths Revealed
</text>
<text class="chart-subtitle-line" x="0" y="0" text-anchor="start" font-family="sans-serif" font-size="13" font-weight="400" fill="#445f7c" letter-spacing="0.25" transform="scale(1.342398780996911) translate(0.0, 54.1875)">"A closer look at the leading health threats to
</text>
<text class="chart-subtitle-line" x="0" y="0" text-anchor="start" font-family="sans-serif" font-size="13" font-weight="400" fill="#445f7c" letter-spacing="0.25" transform="scale(1.342398780996911) translate(0.0, 54.1875) translate(0.0, 14.7138671875)">children worldwide."
</text>
<path transform="translate(-92.697, 104.29780330676115) translate(5.0,8.0) translate(393,0) translate(0,16) translate(0,0) translate(6,6)" d="M5,0A5,5,0,1,1,-5,0A5,5,0,1,1,5,0" fill="#4c78a8" stroke="#ffffff" stroke-width="1.5" opacity="1" class="mark-symbol role-legend-symbol" pointer-events="none" role="graphics-object" aria-roledescription="group mark container" aria-label="Symbol legend titled 'Cause' for fill color with 10 values: Birth Asphyxia, Congenital Anomalies, Diarrhea, Injuries, Malaria, ending with Tuberculosis" stroke-miterlimit="10" version="1.1" width="521" height="216" viewBox="0 0 521 216"/>
<text text-anchor="start" transform="translate(-92.697, 104.29780330676115) translate(5.0,8.0) translate(393,0) translate(0,16) translate(0,0) translate(16,9)" font-family="sans-serif" font-size="10px" fill="#000" opacity="1" class="mark-text role-legend-label" pointer-events="none" role="graphics-object" aria-roledescription="group mark container" aria-label="Symbol legend titled 'Cause' for fill color with 10 values: Birth Asphyxia, Congenital Anomalies, Diarrhea, Injuries, Malaria, ending with Tuberculosis" stroke-miterlimit="10" version="1.1" width="521" height="216" viewBox="0 0 521 216">Birth Asphyxia
</text>
<path transform="translate(-92.697, 104.29780330676115) translate(5.0,8.0) translate(393,0) translate(0,16) translate(0,16) translate(6,6)" d="M5,0A5,5,0,1,1,-5,0A5,5,0,1,1,5,0" fill="#f58518" stroke="#ffffff" stroke-width="1.5" opacity="1" class="mark-symbol role-legend-symbol" pointer-events="none" role="graphics-object" aria-roledescription="group mark container" aria-label="Symbol legend titled 'Cause' for fill color with 10 values: Birth Asphyxia, Congenital Anomalies, Diarrhea, Injuries, Malaria, ending with Tuberculosis" stroke-miterlimit="10" version="1.1" width="521" height="216" viewBox="0 0 521 216"/>
<text text-anchor="start" transform="translate(-92.697, 104.29780330676115) translate(5.0,8.0) translate(393,0) translate(0,16) translate(0,16) translate(16,9)" font-family="sans-serif" font-size="10px" fill="#000" opacity="1" class="mark-text role-legend-label" pointer-events="none" role="graphics-object" aria-roledescription="group mark container" aria-label="Symbol legend titled 'Cause' for fill color with 10 values: Birth Asphyxia, Congenital Anomalies, Diarrhea, Injuries, Malaria, ending with Tuberculosis" stroke-miterlimit="10" version="1.1" width="521" height="216" viewBox="0 0 521 216">Congenital Anomalies
</text>
<path transform="translate(-92.697, 104.29780330676115) translate(5.0,8.0) translate(393,0) translate(0,16) translate(0,32) translate(6,6)" d="M5,0A5,5,0,1,1,-5,0A5,5,0,1,1,5,0" fill="#e45756" stroke="#ffffff" stroke-width="1.5" opacity="1" class="mark-symbol role-legend-symbol" pointer-events="none" role="graphics-object" aria-roledescription="group mark container" aria-label="Symbol legend titled 'Cause' for fill color with 10 values: Birth Asphyxia, Congenital Anomalies, Diarrhea, Injuries, Malaria, ending with Tuberculosis" stroke-miterlimit="10" version="1.1" width="521" height="216" viewBox="0 0 521 216"/>
<text text-anchor="start" transform="translate(-92.697, 104.29780330676115) translate(5.0,8.0) translate(393,0) translate(0,16) translate(0,32) translate(16,9)" font-family="sans-serif" font-size="10px" fill="#000" opacity="1" class="mark-text role-legend-label" pointer-events="none" role="graphics-object" aria-roledescription="group mark container" aria-label="Symbol legend titled 'Cause' for fill color with 10 values: Birth Asphyxia, Congenital Anomalies, Diarrhea, Injuries, Malaria, ending with Tuberculosis" stroke-miterlimit="10" version="1.1" width="521" height="216" viewBox="0 0 521 216">Diarrhea
</text>
<path transform="translate(-92.697, 104.29780330676115) translate(5.0,8.0) translate(393,0) translate(0,16) translate(0,48) translate(6,6)" d="M5,0A5,5,0,1,1,-5,0A5,5,0,1,1,5,0" fill="#72b7b2" stroke="#ffffff" stroke-width="1.5" opacity="1" class="mark-symbol role-legend-symbol" pointer-events="none" role="graphics-object" aria-roledescription="group mark container" aria-label="Symbol legend titled 'Cause' for fill color with 10 values: Birth Asphyxia, Congenital Anomalies, Diarrhea, Injuries, Malaria, ending with Tuberculosis" stroke-miterlimit="10" version="1.1" width="521" height="216" viewBox="0 0 521 216"/>
<text text-anchor="start" transform="translate(-92.697, 104.29780330676115) translate(5.0,8.0) translate(393,0) translate(0,16) translate(0,48) translate(16,9)" font-family="sans-serif" font-size="10px" fill="#000" opacity="1" class="mark-text role-legend-label" pointer-events="none" role="graphics-object" aria-roledescription="group mark container" aria-label="Symbol legend titled 'Cause' for fill color with 10 values: Birth Asphyxia, Congenital Anomalies, Diarrhea, Injuries, Malaria, ending with Tuberculosis" stroke-miterlimit="10" version="1.1" width="521" height="216" viewBox="0 0 521 216">Injuries
</text>
<path transform="translate(-92.697, 104.29780330676115) translate(5.0,8.0) translate(393,0) translate(0,16) translate(0,64) translate(6,6)" d="M5,0A5,5,0,1,1,-5,0A5,5,0,1,1,5,0" fill="#54a24b" stroke="#ffffff" stroke-width="1.5" opacity="1" class="mark-symbol role-legend-symbol" pointer-events="none" role="graphics-object" aria-roledescription="group mark container" aria-label="Symbol legend titled 'Cause' for fill color with 10 values: Birth Asphyxia, Congenital Anomalies, Diarrhea, Injuries, Malaria, ending with Tuberculosis" stroke-miterlimit="10" version="1.1" width="521" height="216" viewBox="0 0 521 216"/>
<text text-anchor="start" transform="translate(-92.697, 104.29780330676115) translate(5.0,8.0) translate(393,0) translate(0,16) translate(0,64) translate(16,9)" font-family="sans-serif" font-size="10px" fill="#000" opacity="1" class="mark-text role-legend-label" pointer-events="none" role="graphics-object" aria-roledescription="group mark container" aria-label="Symbol legend titled 'Cause' for fill color with 10 values: Birth Asphyxia, Congenital Anomalies, Diarrhea, Injuries, Malaria, ending with Tuberculosis" stroke-miterlimit="10" version="1.1" width="521" height="216" viewBox="0 0 521 216">Malaria
</text>
<path transform="translate(-92.697, 104.29780330676115) translate(5.0,8.0) translate(393,0) translate(0,16) translate(0,80) translate(6,6)" d="M5,0A5,5,0,1,1,-5,0A5,5,0,1,1,5,0" fill="#eeca3b" stroke="#ffffff" stroke-width="1.5" opacity="1" class="mark-symbol role-legend-symbol" pointer-events="none" role="graphics-object" aria-roledescription="group mark container" aria-label="Symbol legend titled 'Cause' for fill color with 10 values: Birth Asphyxia, Congenital Anomalies, Diarrhea, Injuries, Malaria, ending with Tuberculosis" stroke-miterlimit="10" version="1.1" width="521" height="216" viewBox="0 0 521 216"/>
<text text-anchor="start" transform="translate(-92.697, 104.29780330676115) translate(5.0,8.0) translate(393,0) translate(0,16) translate(0,80) translate(16,9)" font-family="sans-serif" font-size="10px" fill="#000" opacity="1" class="mark-text role-legend-label" pointer-events="none" role="graphics-object" aria-roledescription="group mark container" aria-label="Symbol legend titled 'Cause' for fill color with 10 values: Birth Asphyxia, Congenital Anomalies, Diarrhea, Injuries, Malaria, ending with Tuberculosis" stroke-miterlimit="10" version="1.1" width="521" height="216" viewBox="0 0 521 216">Other
</text>
<path transform="translate(-92.697, 104.29780330676115) translate(5.0,8.0) translate(393,0) translate(0,16) translate(0,96) translate(6,6)" d="M5,0A5,5,0,1,1,-5,0A5,5,0,1,1,5,0" fill="#b279a2" stroke="#ffffff" stroke-width="1.5" opacity="1" class="mark-symbol role-legend-symbol" pointer-events="none" role="graphics-object" aria-roledescription="group mark container" aria-label="Symbol legend titled 'Cause' for fill color with 10 values: Birth Asphyxia, Congenital Anomalies, Diarrhea, Injuries, Malaria, ending with Tuberculosis" stroke-miterlimit="10" version="1.1" width="521" height="216" viewBox="0 0 521 216"/>
<text text-anchor="start" transform="translate(-92.697, 104.29780330676115) translate(5.0,8.0) translate(393,0) translate(0,16) translate(0,96) translate(16,9)" font-family="sans-serif" font-size="10px" fill="#000" opacity="1" class="mark-text role-legend-label" pointer-events="none" role="graphics-object" aria-roledescription="group mark container" aria-label="Symbol legend titled 'Cause' for fill color with 10 values: Birth Asphyxia, Congenital Anomalies, Diarrhea, Injuries, Malaria, ending with Tuberculosis" stroke-miterlimit="10" version="1.1" width="521" height="216" viewBox="0 0 521 216">Pneumonia
</text>
<path transform="translate(-92.697, 104.29780330676115) translate(5.0,8.0) translate(393,0) translate(0,16) translate(0,112) translate(6,6)" d="M5,0A5,5,0,1,1,-5,0A5,5,0,1,1,5,0" fill="#ff9da6" stroke="#ffffff" stroke-width="1.5" opacity="1" class="mark-symbol role-legend-symbol" pointer-events="none" role="graphics-object" aria-roledescription="group mark container" aria-label="Symbol legend titled 'Cause' for fill color with 10 values: Birth Asphyxia, Congenital Anomalies, Diarrhea, Injuries, Malaria, ending with Tuberculosis" stroke-miterlimit="10" version="1.1" width="521" height="216" viewBox="0 0 521 216"/>
<text text-anchor="start" transform="translate(-92.697, 104.29780330676115) translate(5.0,8.0) translate(393,0) translate(0,16) translate(0,112) translate(16,9)" font-family="sans-serif" font-size="10px" fill="#000" opacity="1" class="mark-text role-legend-label" pointer-events="none" role="graphics-object" aria-roledescription="group mark container" aria-label="Symbol legend titled 'Cause' for fill color with 10 values: Birth Asphyxia, Congenital Anomalies, Diarrhea, Injuries, Malaria, ending with Tuberculosis" stroke-miterlimit="10" version="1.1" width="521" height="216" viewBox="0 0 521 216">Prematurity
</text>
<path transform="translate(-92.697, 104.29780330676115) translate(5.0,8.0) translate(393,0) translate(0,16) translate(0,128) translate(6,6)" d="M5,0A5,5,0,1,1,-5,0A5,5,0,1,1,5,0" fill="#9d755d" stroke="#ffffff" stroke-width="1.5" opacity="1" class="mark-symbol role-legend-symbol" pointer-events="none" role="graphics-object" aria-roledescription="group mark container" aria-label="Symbol legend titled 'Cause' for fill color with 10 values: Birth Asphyxia, Congenital Anomalies, Diarrhea, Injuries, Malaria, ending with Tuberculosis" stroke-miterlimit="10" version="1.1" width="521" height="216" viewBox="0 0 521 216"/>
<text text-anchor="start" transform="translate(-92.697, 104.29780330676115) translate(5.0,8.0) translate(393,0) translate(0,16) translate(0,128) translate(16,9)" font-family="sans-serif" font-size="10px" fill="#000" opacity="1" class="mark-text role-legend-label" pointer-events="none" role="graphics-object" aria-roledescription="group mark container" aria-label="Symbol legend titled 'Cause' for fill color with 10 values: Birth Asphyxia, Congenital Anomalies, Diarrhea, Injuries, Malaria, ending with Tuberculosis" stroke-miterlimit="10" version="1.1" width="521" height="216" viewBox="0 0 521 216">Sepsis
</text>
<path transform="translate(-92.697, 104.29780330676115) translate(5.0,8.0) translate(393,0) translate(0,16) translate(0,144) translate(6,6)" d="M5,0A5,5,0,1,1,-5,0A5,5,0,1,1,5,0" fill="#bab0ac" stroke="#ffffff" stroke-width="1.5" opacity="1" class="mark-symbol role-legend-symbol" pointer-events="none" role="graphics-object" aria-roledescription="group mark container" aria-label="Symbol legend titled 'Cause' for fill color with 10 values: Birth Asphyxia, Congenital Anomalies, Diarrhea, Injuries, Malaria, ending with Tuberculosis" stroke-miterlimit="10" version="1.1" width="521" height="216" viewBox="0 0 521 216"/>
<text text-anchor="start" transform="translate(-92.697, 104.29780330676115) translate(5.0,8.0) translate(393,0) translate(0,16) translate(0,144) translate(16,9)" font-family="sans-serif" font-size="10px" fill="#000" opacity="1" class="mark-text role-legend-label" pointer-events="none" role="graphics-object" aria-roledescription="group mark container" aria-label="Symbol legend titled 'Cause' for fill color with 10 values: Birth Asphyxia, Congenital Anomalies, Diarrhea, Injuries, Malaria, ending with Tuberculosis" stroke-miterlimit="10" version="1.1" width="521" height="216" viewBox="0 0 521 216">Tuberculosis
</text>
<text text-anchor="start" transform="translate(-92.697, 104.29780330676115) translate(5.0,8.0) translate(393,0) translate(0,9)" font-family="sans-serif" font-size="11px" font-weight="bold" fill="#000" opacity="1" class="mark-text role-legend-title" pointer-events="none" role="graphics-symbol" aria-roledescription="legend" aria-label="Symbol legend titled 'Cause' for fill color with 10 values: Birth Asphyxia, Congenital Anomalies, Diarrhea, Injuries, Malaria, ending with Tuberculosis" stroke-miterlimit="10" version="1.1" width="521" height="216" viewBox="0 0 521 216">Cause
</text>
<path aria-label="Percentage of Global Under-Five Deaths 2022: 18; Cause: Prematurity" role="graphics-symbol" aria-roledescription="arc mark" transform="translate(-92.697, 104.29780330676115) translate(5.0,8.0) translate(187.5,100)" d="M-36.812,-92.978A100,100,0,0,0,-99.803,-6.279L-4.99,-0.314A5,5,0,0,1,-1.841,-4.649Z" fill="#ff9da6" stroke="#ffffff" stroke-width="3" opacity="1" stroke-miterlimit="10" class="mark-arc role-mark marks" version="1.1" width="521" height="216" viewBox="0 0 521 216"/>
<path aria-label="Percentage of Global Under-Five Deaths 2022: 14; Cause: Pneumonia" role="graphics-symbol" aria-roledescription="arc mark" transform="translate(-92.697, 104.29780330676115) translate(5.0,8.0) translate(187.5,100)" d="M-99.803,-6.279A100,100,0,0,0,-68.455,72.897L-3.423,3.645A5,5,0,0,1,-4.99,-0.314Z" fill="#b279a2" stroke="#ffffff" stroke-width="3" opacity="1" stroke-miterlimit="10" class="mark-arc role-mark marks" version="1.1" width="521" height="216" viewBox="0 0 521 216"/>
<path aria-label="Percentage of Global Under-Five Deaths 2022: 12; Cause: Birth Asphyxia" role="graphics-symbol" aria-roledescription="arc mark" transform="translate(-92.697, 104.29780330676115) translate(5.0,8.0) translate(187.5,100)" d="M68.455,-72.897A100,100,0,0,0,0,-100L0,-5A5,5,0,0,1,3.423,-3.645Z" fill="#4c78a8" stroke="#ffffff" stroke-width="3" opacity="1" stroke-miterlimit="10" class="mark-arc role-mark marks" version="1.1" width="521" height="216" viewBox="0 0 521 216"/>
<path aria-label="Percentage of Global Under-Five Deaths 2022: 9; Cause: Malaria" role="graphics-symbol" aria-roledescription="arc mark" transform="translate(-92.697, 104.29780330676115) translate(5.0,8.0) translate(187.5,100)" d="M42.578,90.483A100,100,0,0,0,84.433,53.583L4.222,2.679A5,5,0,0,1,2.129,4.524Z" fill="#54a24b" stroke="#ffffff" stroke-width="3" opacity="1" stroke-miterlimit="10" class="mark-arc role-mark marks" version="1.1" width="521" height="216" viewBox="0 0 521 216"/>
<path aria-label="Percentage of Global Under-Five Deaths 2022: 9; Cause: Diarrhea" role="graphics-symbol" aria-roledescription="arc mark" transform="translate(-92.697, 104.29780330676115) translate(5.0,8.0) translate(187.5,100)" d="M96.858,24.869A100,100,0,0,0,95.106,-30.902L4.755,-1.545A5,5,0,0,1,4.843,1.243Z" fill="#e45756" stroke="#ffffff" stroke-width="3" opacity="1" stroke-miterlimit="10" class="mark-arc role-mark marks" version="1.1" width="521" height="216" viewBox="0 0 521 216"/>
<path aria-label="Percentage of Global Under-Five Deaths 2022: 8; Cause: Congenital Anomalies" role="graphics-symbol" aria-roledescription="arc mark" transform="translate(-92.697, 104.29780330676115) translate(5.0,8.0) translate(187.5,100)" d="M95.106,-30.902A100,100,0,0,0,68.455,-72.897L3.423,-3.645A5,5,0,0,1,4.755,-1.545Z" fill="#f58518" stroke="#ffffff" stroke-width="3" opacity="1" stroke-miterlimit="10" class="mark-arc role-mark marks" version="1.1" width="521" height="216" viewBox="0 0 521 216"/>
<path aria-label="Percentage of Global Under-Five Deaths 2022: 5; Cause: Injuries" role="graphics-symbol" aria-roledescription="arc mark" transform="translate(-92.697, 104.29780330676115) translate(5.0,8.0) translate(187.5,100)" d="M84.433,53.583A100,100,0,0,0,96.858,24.869L4.843,1.243A5,5,0,0,1,4.222,2.679Z" fill="#72b7b2" stroke="#ffffff" stroke-width="3" opacity="1" stroke-miterlimit="10" class="mark-arc role-mark marks" version="1.1" width="521" height="216" viewBox="0 0 521 216"/>
<path aria-label="Percentage of Global Under-Five Deaths 2022: 3; Cause: Sepsis" role="graphics-symbol" aria-roledescription="arc mark" transform="translate(-92.697, 104.29780330676115) translate(5.0,8.0) translate(187.5,100)" d="M-18.738,-98.229A100,100,0,0,0,-36.812,-92.978L-1.841,-4.649A5,5,0,0,1,-0.937,-4.911Z" fill="#9d755d" stroke="#ffffff" stroke-width="3" opacity="1" stroke-miterlimit="10" class="mark-arc role-mark marks" version="1.1" width="521" height="216" viewBox="0 0 521 216"/>
<path aria-label="Percentage of Global Under-Five Deaths 2022: 3; Cause: Tuberculosis" role="graphics-symbol" aria-roledescription="arc mark" transform="translate(-92.697, 104.29780330676115) translate(5.0,8.0) translate(187.5,100)" d="M0,-100A100,100,0,0,0,-18.738,-98.229L-0.937,-4.911A5,5,0,0,1,0,-5Z" fill="#bab0ac" stroke="#ffffff" stroke-width="3" opacity="1" stroke-miterlimit="10" class="mark-arc role-mark marks" version="1.1" width="521" height="216" viewBox="0 0 521 216"/>
<path aria-label="Percentage of Global Under-Five Deaths 2022: 19; Cause: Other" role="graphics-symbol" aria-roledescription="arc mark" transform="translate(-92.697, 104.29780330676115) translate(5.0,8.0) translate(187.5,100)" d="M-68.455,72.897A100,100,0,0,0,42.578,90.483L2.129,4.524A5,5,0,0,1,-3.423,3.645Z" fill="#eeca3b" stroke="#ffffff" stroke-width="3" opacity="1" stroke-miterlimit="10" class="mark-arc role-mark marks" version="1.1" width="521" height="216" viewBox="0 0 521 216"/></g></svg>