<svg version="1.1" class="marks" width="418.695578125" height="317.57861964112834" viewBox="0 0 518.695578125 417.57861964112834" xmlns="http://www.w3.org/2000/svg" xmlns:xlink="http://www.w3.org/1999/xlink"><rect width="100%" height="100%" fill="#ffffff"/>
<g transform="translate(50.0, 51.26828157717457)"><rect x="0" y="0" width="15" height="150" fill="#5f514e" transform="scale(1.2836534526265497) scale(0.5137729492187499)"/>
<text class="chart-title-line" x="0" y="0" text-anchor="start" font-family="sans-serif" font-size="24" font-weight="700" fill="#0f2740" letter-spacing="0" transform="scale(1.2836534526265497) translate(17.706594238281248, 21.136975097656247)">Top Causes of Under-Five
</text>
<text class="chart-title-line" x="0" y="0" text-anchor="start" font-family="sans-serif" font-size="24" font-weight="700" fill="#0f2740" letter-spacing="0" transform="scale(1.2836534526265497) translate(17.706594238281248, 21.136975097656247) translate(0.0, 27.1640625)">Deaths Revealed
</text>
<text class="chart-subtitle-line" x="0" y="0" text-anchor="start" font-family="sans-serif" font-size="13" font-weight="400" fill="#445f7c" letter-spacing="0.25" transform="scale(1.2836534526265497) translate(17.706594238281248, 21.136975097656247) translate(0.0, 54.1875)">"Main contributors to global child mortality identified"
</text>
<path transform="translate(-92.697, 108.33486959679058) translate(5.0,8.0) translate(393,0) translate(0,16) translate(0,0) translate(6,6)" d="M5,0A5,5,0,1,1,-5,0A5,5,0,1,1,5,0" fill="#4c78a8" stroke="#ffffff" stroke-width="1.5" opacity="1" class="mark-symbol role-legend-symbol" pointer-events="none" role="graphics-object" aria-roledescription="group mark container" aria-label="Symbol legend titled 'Cause' for fill color with 10 values: Birth Asphyxia, Congenital Anomalies, Diarrhea, Injuries, Malaria, ending with Tuberculosis" stroke-miterlimit="10" version="1.1" width="521" height="216" viewBox="0 0 521 216"/>
<text text-anchor="start" transform="translate(-92.697, 108.33486959679058) translate(5.0,8.0) translate(393,0) translate(0,16) translate(0,0) translate(16,9)" font-family="sans-serif" font-size="10px" fill="#000" opacity="1" class="mark-text role-legend-label" pointer-events="none" role="graphics-object" aria-roledescription="group mark container" aria-label="Symbol legend titled 'Cause' for fill color with 10 values: Birth Asphyxia, Congenital Anomalies, Diarrhea, Injuries, Malaria, ending with Tuberculosis" stroke-miterlimit="10" version="1.1" width="521" height="216" viewBox="0 0 521 216">Birth Asphyxia
</text>
<path transform="translate(-92.697, 108.33486959679058) translate(5.0,8.0) translate(393,0) translate(0,16) translate(0,16) translate(6,6)" d="M5,0A5,5,0,1,1,-5,0A5,5,0,1,1,5,0" fill="#f58518" stroke="#ffffff" stroke-width="1.5" opacity="1" class="mark-symbol role-legend-symbol" pointer-events="none" role="graphics-object" aria-roledescription="group mark container" aria-label="Symbol legend titled 'Cause' for fill color with 10 values: Birth Asphyxia, Congenital Anomalies, Diarrhea, Injuries, Malaria, ending with Tuberculosis" stroke-miterlimit="10" version="1.1" width="521" height="216" viewBox="0 0 521 216"/>
<text text-anchor="start" transform="translate(-92.697, 108.33486959679058) translate(5.0,8.0) translate(393,0) translate(0,16) translate(0,16) translate(16,9)" font-family="sans-serif" font-size="10px" fill="#000" opacity="1" class="mark-text role-legend-label" pointer-events="none" role="graphics-object" aria-roledescription="group mark container" aria-label="Symbol legend titled 'Cause' for fill color with 10 values: Birth Asphyxia, Congenital Anomalies, Diarrhea, Injuries, Malaria, ending with Tuberculosis" stroke-miterlimit="10" version="1.1" width="521" height="216" viewBox="0 0 521 216">Congenital Anomalies
</text>
<path transform="translate(-92.697, 108.33486959679058) translate(5.0,8.0) translate(393,0) translate(0,16) translate(0,32) translate(6,6)" d="M5,0A5,5,0,1,1,-5,0A5,5,0,1,1,5,0" fill="#e45756" stroke="#ffffff" stroke-width="1.5" opacity="1" class="mark-symbol role-legend-symbol" pointer-events="none" role="graphics-object" aria-roledescription="group mark container" aria-label="Symbol legend titled 'Cause' for fill color with 10 values: Birth Asphyxia, Congenital Anomalies, Diarrhea, Injuries, Malaria, ending with Tuberculosis" stroke-miterlimit="10" version="1.1" width="521" height="216" viewBox="0 0 521 216"/>
<text text-anchor="start" transform="translate(-92.697, 108.33486959679058) translate(5.0,8.0) translate(393,0) translate(0,16) translate(0,32) translate(16,9)" font-family="sans-serif" font-size="10px" fill="#000" opacity="1" class="mark-text role-legend-label" pointer-events="none" role="graphics-object" aria-roledescription="group mark container" aria-label="Symbol legend titled 'Cause' for fill color with 10 values: Birth Asphyxia, Congenital Anomalies, Diarrhea, Injuries, Malaria, ending with Tuberculosis" stroke-miterlimit="10" version="1.1" width="521" height="216" viewBox="0 0 521 216">Diarrhea
</text>
<path transform="translate(-92.697, 108.33486959679058) translate(5.0,8.0) translate(393,0) translate(0,16) translate(0,48) translate(6,6)" d="M5,0A5,5,0,1,1,-5,0A5,5,0,1,1,5,0" fill="#72b7b2" stroke="#ffffff" stroke-width="1.5" opacity="1" class="mark-symbol role-legend-symbol" pointer-events="none" role="graphics-object" aria-roledescription="group mark container" aria-label="Symbol legend titled 'Cause' for fill color with 10 values: Birth Asphyxia, Congenital Anomalies, Diarrhea, Injuries, Malaria, ending with Tuberculosis" stroke-miterlimit="10" version="1.1" width="521" height="216" viewBox="0 0 521 216"/>
<text text-anchor="start" transform="translate(-92.697, 108.33486959679058) translate(5.0,8.0) translate(393,0) translate(0,16) translate(0,48) translate(16,9)" font-family="sans-serif" font-size="10px" fill="#000" opacity="1" class="mark-text role-legend-label" pointer-events="none" role="graphics-object" aria-roledescription="group mark container" aria-label="Symbol legend titled 'Cause' for fill color with 10 values: Birth Asphyxia, Congenital Anomalies, Diarrhea, Injuries, Malaria, ending with Tuberculosis" stroke-miterlimit="10" version="1.1" width="521" height="216" viewBox="0 0 521 216">Injuries
</text>
<path transform="translate(-92.697, 108.33486959679058) translate(5.0,8.0) translate(393,0) translate(0,16) translate(0,64) translate(6,6)" d="M5,0A5,5,0,1,1,-5,0A5,5,0,1,1,5,0" fill="#54a24b" stroke="#ffffff" stroke-width="1.5" opacity="1" class="mark-symbol role-legend-symbol" pointer-events="none" role="graphics-object" aria-roledescription="group mark container" aria-label="Symbol legend titled 'Cause' for fill color with 10 values: Birth Asphyxia, Congenital Anomalies, Diarrhea, Injuries, Malaria, ending with Tuberculosis" stroke-miterlimit="10" version="1.1" width="521" height="216" viewBox="0 0 521 216"/>
<text text-anchor="start" transform="translate(-92.697, 108.33486959679058) translate(5.0,8.0) translate(393,0) translate(0,16) translate(0,64) translate(16,9)" font-family="sans-serif" font-size="10px" fill="#000" opacity="1" class="mark-text role-legend-label" pointer-events="none" role="graphics-object" aria-roledescription="group mark container" aria-label="Symbol legend titled 'Cause' for fill color with 10 values: Birth Asphyxia, Congenital Anomalies, Diarrhea, Injuries, Malaria, ending with Tuberculosis" stroke-miterlimit="10" version="1.1" width="521" height="216" viewBox="0 0 521 216">Malaria
</text>
<path transform="translate(-92.697, 108.33486959679058) translate(5.0,8.0) translate(393,0) translate(0,16) translate(0,80) translate(6,6)" d="M5,0A5,5,0,1,1,-5,0A5,5,0,1,1,5,0" fill="#eeca3b" stroke="#ffffff" stroke-width="1.5" opacity="1" class="mark-symbol role-legend-symbol" pointer-events="none" role="graphics-object" aria-roledescription="group mark container" aria-label="Symbol legend titled 'Cause' for fill color with 10 values: Birth Asphyxia, Congenital Anomalies, Diarrhea, Injuries, Malaria, ending with Tuberculosis" stroke-miterlimit="10" version="1.1" width="521" height="216" viewBox="0 0 521 216"/>
<text text-anchor="start" transform="translate(-92.697, 108.33486959679058) translate(5.0,8.0) translate(393,0) translate(0,16) translate(0,80) translate(16,9)" font-family="sans-serif" font-size="10px" fill="#000" opacity="1" class="mark-text role-legend-label" pointer-events="none" role="graphics-object" aria-roledescription="group mark container" aria-label="Symbol legend titled 'Cause' for fill color with 10 values: Birth Asphyxia, Congenital Anomalies, Diarrhea, Injuries, Malaria, ending with Tuberculosis" stroke-miterlimit="10" version="1.1" width="521" height="216" viewBox="0 0 521 216">Other
</text>
<path transform="translate(-92.697, 108.33486959679058) translate(5.0,8.0) translate(393,0) translate(0,16) translate(0,96) translate(6,6)" d="M5,0A5,5,0,1,1,-5,0A5,5,0,1,1,5,0" fill="#b279a2" stroke="#ffffff" stroke-width="1.5" opacity="1" class="mark-symbol role-legend-symbol" pointer-events="none" role="graphics-object" aria-roledescription="group mark container" aria-label="Symbol legend titled 'Cause' for fill color with 10 values: Birth Asphyxia, Congenital Anomalies, Diarrhea, Injuries, Malaria, ending with Tuberculosis" stroke-miterlimit="10" version="1.1" width="521" height="216" viewBox="0 0 521 216"/>
<text text-anchor="start" transform="translate(-92.697, 108.33486959679058) translate(5.0,8.0) translate(393,0) translate(0,16) translate(0,96) translate(16,9)" font-family="sans-serif" font-size="10px" fill="#000" opacity="1" class="mark-text role-legend-label" pointer-events="none" role="graphics-object" aria-roledescription="group mark container" aria-label="Symbol legend titled 'Cause' for fill color with 10 values: Birth Asphyxia, Congenital Anomalies, Diarrhea, Injuries, Malaria, ending with Tuberculosis" stroke-miterlimit="10" version="1.1" width="521" height="216" viewBox="0 0 521 216">Pneumonia
</text>
<path transform="translate(-92.697, 108.33486959679058) translate(5.0,8.0) translate(393,0) translate(0,16) translate(0,112) translate(6,6)" d="M5,0A5,5,0,1,1,-5,0A5,5,0,1,1,5,0" fill="#ff9da6" stroke="#ffffff" stroke-width="1.5" opacity="1" class="mark-symbol role-legend-symbol" pointer-events="none" role="graphics-object" aria-roledescription="group mark container" aria-label="Symbol legend titled 'Cause' for fill color with 10 values: Birth Asphyxia, Congenital Anomalies, Diarrhea, Injuries, Malaria, ending with Tuberculosis" stroke-miterlimit="10" version="1.1" width="521" height="216" viewBox="0 0 521 216"/>
<text text-anchor="start" transform="translate(-92.697, 108.33486959679058) translate(5.0,8.0) translate(393,0) translate(0,16) translate(0,112) translate(16,9)" font-family="sans-serif" font-size="10px" fill="#000" opacity="1" class="mark-text role-legend-label" pointer-events="none" role="graphics-object" aria-roledescription="group mark container" aria-label="Symbol legend titled 'Cause' for fill color with 10 values: Birth Asphyxia, Congenital Anomalies, Diarrhea, Injuries, Malaria, ending with Tuberculosis" stroke-miterlimit="10" version="1.1" width="521" height="216" viewBox="0 0 521 216">Prematurity
</text>
<path transform="translate(-92.697, 108.33486959679058) translate(5.0,8.0) translate(393,0) translate(0,16) translate(0,128) translate(6,6)" d="M5,0A5,5,0,1,1,-5,0A5,5,0,1,1,5,0" fill="#9d755d" stroke="#ffffff" stroke-width="1.5" opacity="1" class="mark-symbol role-legend-symbol" pointer-events="none" role="graphics-object" aria-roledescription="group mark container" aria-label="Symbol legend titled 'Cause' for fill color with 10 values: Birth Asphyxia, Congenital Anomalies, Diarrhea, Injuries, Malaria, ending with Tuberculosis" stroke-miterlimit="10" version="1.1" width="521" height="216" viewBox="0 0 521 216"/>
<text text-anchor="start" transform="translate(-92.697, 108.33486959679058) translate(5.0,8.0) translate(393,0) translate(0,16) translate(0,128) translate(16,9)" font-family="sans-serif" font-size="10px" fill="#000" opacity="1" class="mark-text role-legend-label" pointer-events="none" role="graphics-object" aria-roledescription="group mark container" aria-label="Symbol legend titled 'Cause' for fill color with 10 values: Birth Asphyxia, Congenital Anomalies, Diarrhea, Injuries, Malaria, ending with Tuberculosis" stroke-miterlimit="10" version="1.1" width="521" height="216" viewBox="0 0 521 216">Sepsis
</text>
<path transform="translate(-92.697, 108.33486959679058) translate(5.0,8.0) translate(393,0) translate(0,16) translate(0,144) translate(6,6)" d="M5,0A5,5,0,1,1,-5,0A5,5,0,1,1,5,0" fill="#bab0ac" stroke="#ffffff" stroke-width="1.5" opacity="1" class="mark-symbol role-legend-symbol" pointer-events="none" role="graphics-object" aria-roledescription="group mark container" aria-label="Symbol legend titled 'Cause' for fill color with 10 values: Birth Asphyxia, Congenital Anomalies, Diarrhea, Injuries, Malaria, ending with Tuberculosis" stroke-miterlimit="10" version="1.1" width="521" height="216" viewBox="0 0 521 216"/>
<text text-anchor="start" transform="translate(-92.697, 108.33486959679058) translate(5.0,8.0) translate(393,0) translate(0,16) translate(0,144) translate(16,9)" font-family="sans-serif" font-size="10px" fill="#000" opacity="1" class="mark-text role-legend-label" pointer-events="none" role="graphics-object" aria-roledescription="group mark container" aria-label="Symbol legend titled 'Cause' for fill color with 10 values: Birth Asphyxia, Congenital Anomalies, Diarrhea, Injuries, Malaria, ending with Tuberculosis" stroke-miterlimit="10" version="1.1" width="521" height="216" viewBox="0 0 521 216">Tuberculosis
</text>
<text text-anchor="start" transform="translate(-92.697, 108.33486959679058) translate(5.0,8.0) translate(393,0) translate(0,9)" font-family="sans-serif" font-size="11px" font-weight="bold" fill="#000" opacity="1" class="mark-text role-legend-title" pointer-events="none" role="graphics-symbol" aria-roledescription="legend" aria-label="Symbol legend titled 'Cause' for fill color with 10 values: Birth Asphyxia, Congenital Anomalies, Diarrhea, Injuries, Malaria, ending with Tuberculosis" stroke-miterlimit="10" version="1.1" width="521" height="216" viewBox="0 0 521 216">Cause
</text>
<path aria-label="Percentage of Global Under-Five Deaths 2022: 18; Cause: Prematurity" role="graphics-symbol" aria-roledescription="arc mark" transform="translate(-92.697, 108.33486959679058) translate(5.0,8.0) translate(187.5,100)" d="M-36.812,-92.978A100,100,0,0,0,-99.803,-6.279L-49.901,-3.14A50,50,0,0,1,-18.406,-46.489Z" fill="#ff9da6" stroke="#ffffff" stroke-width="3" opacity="1" stroke-miterlimit="10" class="mark-arc role-mark marks" version="1.1" width="521" height="216" viewBox="0 0 521 216"/>
<path aria-label="Percentage of Global Under-Five Deaths 2022: 14; Cause: Pneumonia" role="graphics-symbol" aria-roledescription="arc mark" transform="translate(-92.697, 108.33486959679058) translate(5.0,8.0) translate(187.5,100)" d="M-99.803,-6.279A100,100,0,0,0,-68.455,72.897L-34.227,36.448A50,50,0,0,1,-49.901,-3.14Z" fill="#b279a2" stroke="#ffffff" stroke-width="3" opacity="1" stroke-miterlimit="10" class="mark-arc role-mark marks" version="1.1" width="521" height="216" viewBox="0 0 521 216"/>
<path aria-label="Percentage of Global Under-Five Deaths 2022: 12; Cause: Birth Asphyxia" role="graphics-symbol" aria-roledescription="arc mark" transform="translate(-92.697, 108.33486959679058) translate(5.0,8.0) translate(187.5,100)" d="M68.455,-72.897A100,100,0,0,0,0,-100L0,-50A50,50,0,0,1,34.227,-36.448Z" fill="#4c78a8" stroke="#ffffff" stroke-width="3" opacity="1" stroke-miterlimit="10" class="mark-arc role-mark marks" version="1.1" width="521" height="216" viewBox="0 0 521 216"/>
<path aria-label="Percentage of Global Under-Five Deaths 2022: 9; Cause: Malaria" role="graphics-symbol" aria-roledescription="arc mark" transform="translate(-92.697, 108.33486959679058) translate(5.0,8.0) translate(187.5,100)" d="M42.578,90.483A100,100,0,0,0,84.433,53.583L42.216,26.791A50,50,0,0,1,21.289,45.241Z" fill="#54a24b" stroke="#ffffff" stroke-width="3" opacity="1" stroke-miterlimit="10" class="mark-arc role-mark marks" version="1.1" width="521" height="216" viewBox="0 0 521 216"/>
<path aria-label="Percentage of Global Under-Five Deaths 2022: 9; Cause: Diarrhea" role="graphics-symbol" aria-roledescription="arc mark" transform="translate(-92.697, 108.33486959679058) translate(5.0,8.0) translate(187.5,100)" d="M96.858,24.869A100,100,0,0,0,95.106,-30.902L47.553,-15.451A50,50,0,0,1,48.429,12.434Z" fill="#e45756" stroke="#ffffff" stroke-width="3" opacity="1" stroke-miterlimit="10" class="mark-arc role-mark marks" version="1.1" width="521" height="216" viewBox="0 0 521 216"/>
<path aria-label="Percentage of Global Under-Five Deaths 2022: 8; Cause: Congenital Anomalies" role="graphics-symbol" aria-roledescription="arc mark" transform="translate(-92.697, 108.33486959679058) translate(5.0,8.0) translate(187.5,100)" d="M95.106,-30.902A100,100,0,0,0,68.455,-72.897L34.227,-36.448A50,50,0,0,1,47.553,-15.451Z" fill="#f58518" stroke="#ffffff" stroke-width="3" opacity="1" stroke-miterlimit="10" class="mark-arc role-mark marks" version="1.1" width="521" height="216" viewBox="0 0 521 216"/>
<path aria-label="Percentage of Global Under-Five Deaths 2022: 5; Cause: Injuries" role="graphics-symbol" aria-roledescription="arc mark" transform="translate(-92.697, 108.33486959679058) translate(5.0,8.0) translate(187.5,100)" d="M84.433,53.583A100,100,0,0,0,96.858,24.869L48.429,12.434A50,50,0,0,1,42.216,26.791Z" fill="#72b7b2" stroke="#ffffff" stroke-width="3" opacity="1" stroke-miterlimit="10" class="mark-arc role-mark marks" version="1.1" width="521" height="216" viewBox="0 0 521 216"/>
<path aria-label="Percentage of Global Under-Five Deaths 2022: 3; Cause: Sepsis" role="graphics-symbol" aria-roledescription="arc mark" transform="translate(-92.697, 108.33486959679058) translate(5.0,8.0) translate(187.5,100)" d="M-18.738,-98.229A100,100,0,0,0,-36.812,-92.978L-18.406,-46.489A50,50,0,0,1,-9.369,-49.114Z" fill="#9d755d" stroke="#ffffff" stroke-width="3" opacity="1" stroke-miterlimit="10" class="mark-arc role-mark marks" version="1.1" width="521" height="216" viewBox="0 0 521 216"/>
<path aria-label="Percentage of Global Under-Five Deaths 2022: 3; Cause: Tuberculosis" role="graphics-symbol" aria-roledescription="arc mark" transform="translate(-92.697, 108.33486959679058) translate(5.0,8.0) translate(187.5,100)" d="M0,-100A100,100,0,0,0,-18.738,-98.229L-9.369,-49.114A50,50,0,0,1,0,-50Z" fill="#bab0ac" stroke="#ffffff" stroke-width="3" opacity="1" stroke-miterlimit="10" class="mark-arc role-mark marks" version="1.1" width="521" height="216" viewBox="0 0 521 216"/>
<path aria-label="Percentage of Global Under-Five Deaths 2022: 19; Cause: Other" role="graphics-symbol" aria-roledescription="arc mark" transform="translate(-92.697, 108.33486959679058) translate(5.0,8.0) translate(187.5,100)" d="M-68.455,72.897A100,100,0,0,0,42.578,90.483L21.289,45.241A50,50,0,0,1,-34.227,36.448Z" fill="#eeca3b" stroke="#ffffff" stroke-width="3" opacity="1" stroke-miterlimit="10" class="mark-arc role-mark marks" version="1.1" width="521" height="216" viewBox="0 0 521 216"/></g></svg>