<svg xmlns="http://www.w3.org/2000/svg" xmlns:xlink="http://www.w3.org/1999/xlink" version="1.1" class="marks" width="385" height="239" viewBox="0 0 385 239"><g fill="none" stroke-miterlimit="10" transform="translate(5,34)"><g class="mark-group role-frame root" role="graphics-object" aria-roledescription="group mark container"><g transform="translate(0,0)"><path class="background" aria-hidden="true" d="M0,0h375v200h-375Z"/><g><g class="mark-arc role-mark marks" role="graphics-object" aria-roledescription="arc mark container"><path aria-label="Number: 191; Type: Trader joes" role="graphics-symbol" aria-roledescription="arc mark" transform="translate(187.5,100)" d="M-37.343,70.749A80,80,0,0,0,53.259,-59.695L0,0Z" fill="#122740" opacity="1"/><path aria-label="Number: 98; Type: publix" role="graphics-symbol" aria-roledescription="arc mark" transform="translate(187.5,100)" d="M-73.617,-31.314A80,80,0,0,0,-37.343,70.749L0,0Z" fill="#122740" opacity="1"/><path aria-label="Number: 77; Type: stopshop" role="graphics-symbol" aria-roledescription="arc mark" transform="translate(187.5,100)" d="M0,-80A80,80,0,0,0,-73.617,-31.314L0,0Z" fill="#122740" opacity="1"/><path aria-label="Number: 48; Type: Shaws" role="graphics-symbol" aria-roledescription="arc mark" transform="translate(187.5,100)" d="M53.259,-59.695A80,80,0,0,0,0,-80L0,0Z" fill="#122740" opacity="1"/></g><g class="mark-group role-legend" role="graphics-symbol" aria-roledescription="legend" aria-label="Symbol legend for fill color with 4 values: Trader joes, Shaws, stopshop, publix"><g transform="translate(0,-29)"><path class="background" aria-hidden="true" d="M0,0h259v11h-259Z" pointer-events="none"/><g><g class="mark-group role-legend-entry"><g transform="translate(0,0)"><path class="background" aria-hidden="true" d="M0,0h0v0h0Z" pointer-events="none"/><g><g class="mark-group role-scope" role="graphics-object" aria-roledescription="group mark container"><g transform="translate(0,0)"><path class="background" aria-hidden="true" d="M0,0h70.9267578125v11h-70.9267578125Z" pointer-events="none" opacity="1"/><g><g class="mark-symbol role-legend-symbol" pointer-events="none"><path transform="translate(6,6)" d="M5,0A5,5,0,1,1,-5,0A5,5,0,1,1,5,0" fill="#122740" stroke-width="1.5" opacity="1"/></g><g class="mark-text role-legend-label" pointer-events="none"><text text-anchor="start" transform="translate(16,9)" font-family="sans-serif" font-size="10px" fill="#000" opacity="1">Trader joes</text></g></g><path class="foreground" aria-hidden="true" d="" pointer-events="none" display="none"/></g><g transform="translate(81,0)"><path class="background" aria-hidden="true" d="M0,0h48.2021484375v11h-48.2021484375Z" pointer-events="none" opacity="1"/><g><g class="mark-symbol role-legend-symbol" pointer-events="none"><path transform="translate(6,6)" d="M5,0A5,5,0,1,1,-5,0A5,5,0,1,1,5,0" fill="#122740" stroke-width="1.5" opacity="1"/></g><g class="mark-text role-legend-label" pointer-events="none"><text text-anchor="start" transform="translate(16,9)" font-family="sans-serif" font-size="10px" fill="#000" opacity="1">Shaws</text></g></g><path class="foreground" aria-hidden="true" d="" pointer-events="none" display="none"/></g><g transform="translate(140,0)"><path class="background" aria-hidden="true" d="M0,0h61.6103515625v11h-61.6103515625Z" pointer-events="none" opacity="1"/><g><g class="mark-symbol role-legend-symbol" pointer-events="none"><path transform="translate(6,6)" d="M5,0A5,5,0,1,1,-5,0A5,5,0,1,1,5,0" fill="#122740" stroke-width="1.5" opacity="1"/></g><g class="mark-text role-legend-label" pointer-events="none"><text text-anchor="start" transform="translate(16,9)" font-family="sans-serif" font-size="10px" fill="#000" opacity="1">stopshop</text></g></g><path class="foreground" aria-hidden="true" d="" pointer-events="none" display="none"/></g><g transform="translate(212,0)"><path class="background" aria-hidden="true" d="M0,0h46.5078125v11h-46.5078125Z" pointer-events="none" opacity="1"/><g><g class="mark-symbol role-legend-symbol" pointer-events="none"><path transform="translate(6,6)" d="M5,0A5,5,0,1,1,-5,0A5,5,0,1,1,5,0" fill="#122740" stroke-width="1.5" opacity="1"/></g><g class="mark-text role-legend-label" pointer-events="none"><text text-anchor="start" transform="translate(16,9)" font-family="sans-serif" font-size="10px" fill="#000" opacity="1">publix</text></g></g><path class="foreground" aria-hidden="true" d="" pointer-events="none" display="none"/></g></g></g><path class="foreground" aria-hidden="true" d="" pointer-events="none" display="none"/></g></g></g><path class="foreground" aria-hidden="true" d="" pointer-events="none" display="none"/></g></g></g><path class="foreground" aria-hidden="true" d="" display="none"/></g></g></g></svg>
