<svg version="1.1" class="marks" width="490" height="235" viewBox="-100,-100,1000,1000" xmlns="http://www.w3.org/2000/svg" xmlns:xlink="http://www.w3.org/1999/xlink"><g ><g version="1.1" class="marks" width="490" height="235" viewBox="0 0 490 235"><g fill="none" stroke-miterlimit="10" transform="translate(35,10)"><g class="mark-group role-frame root" role="graphics-object" aria-roledescription="group mark container"><g transform="translate(0,0)" class="mark-group role-axis" role="graphics-symbol" aria-roledescription="axis" aria-label="X-axis for a discrete scale with 8 values: Aug 2020, Dec 2020, Feb 2021, Jan 2021, Jul 2020, ending with Sep 2020"><g transform="translate(0.5,200.5)" class="mark-rule role-axis-tick" pointer-events="none"><line transform="translate(28,0)" x2="0" y2="5" stroke="#0f223b" stroke-opacity="0" stroke-width="1" opacity="1"/>
<line transform="translate(84,0)" x2="0" y2="5" stroke="#0f223b" stroke-opacity="0" stroke-width="1" opacity="1"/>
<line transform="translate(141,0)" x2="0" y2="5" stroke="#0f223b" stroke-opacity="0" stroke-width="1" opacity="1"/>
<line transform="translate(197,0)" x2="0" y2="5" stroke="#0f223b" stroke-opacity="0" stroke-width="1" opacity="1"/>
<line transform="translate(253,0)" x2="0" y2="5" stroke="#0f223b" stroke-opacity="0" stroke-width="1" opacity="1"/>
<line transform="translate(309,0)" x2="0" y2="5" stroke="#0f223b" stroke-opacity="0" stroke-width="1" opacity="1"/>
<line transform="translate(366,0)" x2="0" y2="5" stroke="#0f223b" stroke-opacity="0" stroke-width="1" opacity="1"/>
<line transform="translate(422,0)" x2="0" y2="5" stroke="#0f223b" stroke-opacity="0" stroke-width="1" opacity="1"/></g>
<g transform="translate(0.5,200.5)" class="mark-text role-axis-label" pointer-events="none"><text text-anchor="middle" transform="translate(28.125,18)" font-family="sans-serif" font-size="10px" fill="#000d2a" opacity="1">Aug 2020
</text>
<text text-anchor="middle" transform="translate(84.375,18)" font-family="sans-serif" font-size="10px" fill="#000d2a" opacity="1">Dec 2020
</text>
<text text-anchor="middle" transform="translate(140.625,18)" font-family="sans-serif" font-size="10px" fill="#000d2a" opacity="1">Feb 2021
</text>
<text text-anchor="middle" transform="translate(196.875,18)" font-family="sans-serif" font-size="10px" fill="#000d2a" opacity="1">Jan 2021
</text>
<text text-anchor="middle" transform="translate(253.125,18)" font-family="sans-serif" font-size="10px" fill="#000d2a" opacity="1">Jul 2020
</text>
<text text-anchor="middle" transform="translate(309.375,18)" font-family="sans-serif" font-size="10px" fill="#000d2a" opacity="1">Nov 2020
</text>
<text text-anchor="middle" transform="translate(365.625,18)" font-family="sans-serif" font-size="10px" fill="#000d2a" opacity="1">Oct 2020
</text>
<text text-anchor="middle" transform="translate(421.875,18)" font-family="sans-serif" font-size="10px" fill="#000d2a" opacity="1">Sep 2020
</text></g>
<g transform="translate(0.5,200.5)" class="mark-rule role-axis-domain" pointer-events="none"><line transform="translate(0,0)" x2="450" y2="0" stroke="#0f223b" stroke-opacity="0" stroke-width="1" opacity="1"/></g></g>
<g transform="translate(0,0)" class="mark-group role-axis" role="graphics-symbol" aria-roledescription="axis" aria-label="Y-axis for a linear scale with values from 0 to 140"><g transform="translate(0.5,0.5)" class="mark-rule role-axis-tick" pointer-events="none"><line transform="translate(0,200)" x2="-5" y2="0" stroke="#0f223b" stroke-opacity="0" stroke-width="1" opacity="1"/>
<line transform="translate(0,171)" x2="-5" y2="0" stroke="#0f223b" stroke-opacity="0" stroke-width="1" opacity="1"/>
<line transform="translate(0,143)" x2="-5" y2="0" stroke="#0f223b" stroke-opacity="0" stroke-width="1" opacity="1"/>
<line transform="translate(0,114)" x2="-5" y2="0" stroke="#0f223b" stroke-opacity="0" stroke-width="1" opacity="1"/>
<line transform="translate(0,86)" x2="-5" y2="0" stroke="#0f223b" stroke-opacity="0" stroke-width="1" opacity="1"/>
<line transform="translate(0,57)" x2="-5" y2="0" stroke="#0f223b" stroke-opacity="0" stroke-width="1" opacity="1"/>
<line transform="translate(0,29)" x2="-5" y2="0" stroke="#0f223b" stroke-opacity="0" stroke-width="1" opacity="1"/>
<line transform="translate(0,0)" x2="-5" y2="0" stroke="#0f223b" stroke-opacity="0" stroke-width="1" opacity="1"/></g>
<g transform="translate(0.5,0.5)" class="mark-text role-axis-label" pointer-events="none"><text text-anchor="end" transform="translate(-10,203)" font-family="sans-serif" font-size="10px" fill="#000d2a" opacity="1">0
</text>
<text text-anchor="end" transform="translate(-10,174.42857142857144)" font-family="sans-serif" font-size="10px" fill="#000d2a" opacity="1">20
</text>
<text text-anchor="end" transform="translate(-10,145.85714285714286)" font-family="sans-serif" font-size="10px" fill="#000d2a" opacity="1">40
</text>
<text text-anchor="end" transform="translate(-10,117.28571428571428)" font-family="sans-serif" font-size="10px" fill="#000d2a" opacity="1">60
</text>
<text text-anchor="end" transform="translate(-10,88.71428571428572)" font-family="sans-serif" font-size="10px" fill="#000d2a" opacity="1">80
</text>
<text text-anchor="end" transform="translate(-10,60.14285714285714)" font-family="sans-serif" font-size="10px" fill="#000d2a" opacity="1">100
</text>
<text text-anchor="end" transform="translate(-10,31.57142857142858)" font-family="sans-serif" font-size="10px" fill="#000d2a" opacity="1">120
</text>
<text text-anchor="end" transform="translate(-10,3)" font-family="sans-serif" font-size="10px" fill="#000d2a" opacity="1">140
</text></g>
<g transform="translate(0.5,0.5)" class="mark-rule role-axis-domain" pointer-events="none"><line transform="translate(0,200)" x2="0" y2="-200" stroke="#0f223b" stroke-opacity="0" stroke-width="1" opacity="1"/></g></g>
<g transform="translate(0,0)" class="mark-line role-mark marks" role="graphics-object" aria-roledescription="line mark container"><path aria-label="Month: Aug 2020; Positive Cases per 1000 Tests: 7" role="graphics-symbol" aria-roledescription="line mark" d="M28.125,190L56.25,190L56.25,71.429L112.5,71.429L112.5,174.143L168.75,174.143L168.75,0L225,0L225,192.857L281.25,192.857L281.25,121.429L337.5,121.429L337.5,107.143L393.75,107.143L393.75,164.286L421.875,164.286" stroke="#4c78a8" stroke-width="2" opacity="1"/></g></g></g></g></g></svg>