<svg version="1.1" class="marks" width="387.4893408203125" height="311.73450489822255" viewBox="0 0 487.4893408203125 411.73450489822255" xmlns="http://www.w3.org/2000/svg" xmlns:xlink="http://www.w3.org/1999/xlink"><rect width="100%" height="100%" fill="#ffffff"/>
<g transform="translate(50.0, 51.171948242187504)"><rect x="0" y="0" width="15" height="150" fill="#e31a1c" transform="scale(0.6094130859375)"/>
<text class="chart-title-line" x="0" y="0" text-anchor="start" font-family="sans-serif" font-size="24" font-weight="700" fill="#0f2740" letter-spacing="0" transform="translate(19.1411962890625, 20.953051757812496)">Marvel and DC Dominate The
</text>
<text class="chart-title-line" x="0" y="0" text-anchor="start" font-family="sans-serif" font-size="24" font-weight="700" fill="#0f2740" letter-spacing="0" transform="translate(19.1411962890625, 20.953051757812496) translate(0.0, 27.1640625)"> Comic Market
</text>
<text class="chart-subtitle-line" x="0" y="0" text-anchor="start" font-family="sans-serif" font-size="13" font-weight="400" fill="#445f7c" letter-spacing="0.25" transform="translate(19.1411962890625, 20.953051757812496) translate(0.0, 54.1875)">Revenue share of comic book publishers in specialty store sales
</text>
<text class="chart-subtitle-line" x="0" y="0" text-anchor="start" font-family="sans-serif" font-size="13" font-weight="400" fill="#445f7c" letter-spacing="0.25" transform="translate(19.1411962890625, 20.953051757812496) translate(0.0, 54.1875) translate(0.0, 14.7138671875)">worldwide in Q1 2023 (in %)
</text>
<path aria-label="Revenue Share: 36.5; Publisher: Marvel" role="graphics-symbol" aria-roledescription="arc mark" transform="translate(-36.25675410347435, 101.08391113281249) translate(5.0,8.0) translate(225,100)" d="M-81.214,-58.346A100,100,0,0,0,9.714,99.527L4.857,49.764A50,50,0,0,1,-40.607,-29.173Z" fill="#eeca3b" stroke="#ffffff" stroke-width="3" opacity="1" class="arc" version="1.1" width="460" height="216" viewBox="0 0 460 216" stroke-miterlimit="10"/>
<path aria-label="Revenue Share: 25.5; Publisher: DC" role="graphics-symbol" aria-roledescription="arc mark" transform="translate(-36.25675410347435, 101.08391113281249) translate(5.0,8.0) translate(225,100)" d="M94.77,31.915A100,100,0,0,0,29.075,-95.68L14.538,-47.84A50,50,0,0,1,47.385,15.957Z" fill="#f58518" stroke="#ffffff" stroke-width="3" opacity="1" class="arc" version="1.1" width="460" height="216" viewBox="0 0 460 216" stroke-miterlimit="10"/>
<path aria-label="Revenue Share: 10.6; Publisher: Image" role="graphics-symbol" aria-roledescription="arc mark" transform="translate(-36.25675410347435, 101.08391113281249) translate(5.0,8.0) translate(225,100)" d="M9.714,99.527A100,100,0,0,0,69.084,72.301L34.542,36.151A50,50,0,0,1,4.857,49.764Z" fill="#54a24b" stroke="#ffffff" stroke-width="3" opacity="1" class="arc" version="1.1" width="460" height="216" viewBox="0 0 460 216" stroke-miterlimit="10"/>
<path aria-label="Revenue Share: 4.7; Publisher: BOOM! Studios" role="graphics-symbol" aria-roledescription="arc mark" transform="translate(-36.25675410347435, 101.08391113281249) translate(5.0,8.0) translate(225,100)" d="M29.075,-95.68A100,100,0,0,0,0,-100L0,-50A50,50,0,0,1,14.538,-47.84Z" fill="#4c78a8" stroke="#ffffff" stroke-width="3" opacity="1" class="arc" version="1.1" width="460" height="216" viewBox="0 0 460 216" stroke-miterlimit="10"/>
<path aria-label="Revenue Share: 4.1; Publisher: Dark Horse Comics" role="graphics-symbol" aria-roledescription="arc mark" transform="translate(-36.25675410347435, 101.08391113281249) translate(5.0,8.0) translate(225,100)" d="M83.526,54.985A100,100,0,0,0,94.77,31.915L47.385,15.957A50,50,0,0,1,41.763,27.492Z" fill="#e45756" stroke="#ffffff" stroke-width="3" opacity="1" class="arc" version="1.1" width="460" height="216" viewBox="0 0 460 216" stroke-miterlimit="10"/>
<path aria-label="Revenue Share: 3.6; Publisher: IDW Publishing" role="graphics-symbol" aria-roledescription="arc mark" transform="translate(-36.25675410347435, 101.08391113281249) translate(5.0,8.0) translate(225,100)" d="M69.084,72.301A100,100,0,0,0,83.526,54.985L41.763,27.492A50,50,0,0,1,34.542,36.151Z" fill="#72b7b2" stroke="#ffffff" stroke-width="3" opacity="1" class="arc" version="1.1" width="460" height="216" viewBox="0 0 460 216" stroke-miterlimit="10"/>
<path aria-label="Revenue Share: 2.6; Publisher: VIZ Media" role="graphics-symbol" aria-roledescription="arc mark" transform="translate(-36.25675410347435, 101.08391113281249) translate(5.0,8.0) translate(225,100)" d="M0,-100A100,100,0,0,0,-16.248,-98.671L-8.124,-49.336A50,50,0,0,1,0,-50Z" fill="#ff9da6" stroke="#ffffff" stroke-width="3" opacity="1" class="arc" version="1.1" width="460" height="216" viewBox="0 0 460 216" stroke-miterlimit="10"/>
<path aria-label="Revenue Share: 12.5; Publisher: Others" role="graphics-symbol" aria-roledescription="arc mark" transform="translate(-36.25675410347435, 101.08391113281249) translate(5.0,8.0) translate(225,100)" d="M-16.248,-98.671A100,100,0,0,0,-81.214,-58.346L-40.607,-29.173A50,50,0,0,1,-8.124,-49.336Z" fill="#b279a2" stroke="#ffffff" stroke-width="3" opacity="1" class="arc" version="1.1" width="460" height="216" viewBox="0 0 460 216" stroke-miterlimit="10"/></g></svg>