<svg version="1.1" class="marks" width="473.9013671875" height="328.85546875" viewBox="0 0 573.9013671875 428.85546875" xmlns="http://www.w3.org/2000/svg" xmlns:xlink="http://www.w3.org/1999/xlink"><rect width="100%" height="100%" fill="#ffffff"/>
<g transform="translate(104.32393310546874, 51.171948242187504)"><rect x="0" y="0" width="15" height="150" fill="#bc80bd" transform="scale(0.6094130859375)"/>
<text class="chart-title-line" x="0" y="0" text-anchor="start" font-family="sans-serif" font-size="24" font-weight="700" fill="#0f2740" letter-spacing="0" transform="translate(19.1411962890625, 20.953051757812496)">The French Tradition of
</text>
<text class="chart-title-line" x="0" y="0" text-anchor="start" font-family="sans-serif" font-size="24" font-weight="700" fill="#0f2740" letter-spacing="0" transform="translate(19.1411962890625, 20.953051757812496) translate(0.0, 27.1640625)">Protesting Pension Reforms
</text>
<text class="chart-subtitle-line" x="0" y="0" text-anchor="start" font-family="sans-serif" font-size="13" font-weight="400" fill="#445f7c" letter-spacing="0.25" transform="translate(19.1411962890625, 20.953051757812496) translate(0.0, 54.1875)">Government figures for protesters at demonstrations against
</text>
<text class="chart-subtitle-line" x="0" y="0" text-anchor="start" font-family="sans-serif" font-size="13" font-weight="400" fill="#445f7c" letter-spacing="0.25" transform="translate(19.1411962890625, 20.953051757812496) translate(0.0, 54.1875) translate(0.0, 14.7138671875)">pension reforms in France (1995-2023)
</text>
<line transform="translate(-61.92256591796874, 102.08391113281249) translate(31.0,5.0) translate(0.5,200.5) translate(75,0)" x2="0" y2="5" stroke="#0f223b" stroke-opacity="0" stroke-width="1" opacity="1" class="axis-tick" pointer-events="none" version="1.1" width="486" height="230" viewBox="0 0 486 230" fill="none" stroke-miterlimit="10" role="graphics-symbol" aria-roledescription="axis" aria-label="X-axis for a discrete scale with 3 values: 13th, 1st, 6th"/>
<line transform="translate(-61.92256591796874, 102.08391113281249) translate(31.0,5.0) translate(0.5,200.5) translate(225,0)" x2="0" y2="5" stroke="#0f223b" stroke-opacity="0" stroke-width="1" opacity="1" class="axis-tick" pointer-events="none" version="1.1" width="486" height="230" viewBox="0 0 486 230" fill="none" stroke-miterlimit="10" role="graphics-symbol" aria-roledescription="axis" aria-label="X-axis for a discrete scale with 3 values: 13th, 1st, 6th"/>
<line transform="translate(-61.92256591796874, 102.08391113281249) translate(31.0,5.0) translate(0.5,200.5) translate(375,0)" x2="0" y2="5" stroke="#0f223b" stroke-opacity="0" stroke-width="1" opacity="1" class="axis-tick" pointer-events="none" version="1.1" width="486" height="230" viewBox="0 0 486 230" fill="none" stroke-miterlimit="10" role="graphics-symbol" aria-roledescription="axis" aria-label="X-axis for a discrete scale with 3 values: 13th, 1st, 6th"/>
<text text-anchor="middle" transform="translate(-61.92256591796874, 102.08391113281249) translate(31.0,5.0) translate(0.5,200.5) translate(0.0,0.0) translate(75,18)" font-family="sans-serif" font-size="10.0px" fill="#000d2a" opacity="1" class="axis-label" pointer-events="none" version="1.1" width="486" height="230" viewBox="0 0 486 230" stroke-miterlimit="10" role="graphics-symbol" aria-roledescription="axis" aria-label="X-axis for a discrete scale with 3 values: 13th, 1st, 6th">13th
</text>
<text text-anchor="middle" transform="translate(-61.92256591796874, 102.08391113281249) translate(31.0,5.0) translate(0.5,200.5) translate(0.0,0.0) translate(225,18)" font-family="sans-serif" font-size="10.0px" fill="#000d2a" opacity="1" class="axis-label" pointer-events="none" version="1.1" width="486" height="230" viewBox="0 0 486 230" stroke-miterlimit="10" role="graphics-symbol" aria-roledescription="axis" aria-label="X-axis for a discrete scale with 3 values: 13th, 1st, 6th">1st
</text>
<text text-anchor="middle" transform="translate(-61.92256591796874, 102.08391113281249) translate(31.0,5.0) translate(0.5,200.5) translate(0.0,0.0) translate(375,18)" font-family="sans-serif" font-size="10.0px" fill="#000d2a" opacity="1" class="axis-label" pointer-events="none" version="1.1" width="486" height="230" viewBox="0 0 486 230" stroke-miterlimit="10" role="graphics-symbol" aria-roledescription="axis" aria-label="X-axis for a discrete scale with 3 values: 13th, 1st, 6th">6th
</text>
<line transform="translate(-61.92256591796874, 102.08391113281249) translate(31.0,5.0) translate(0.5,200.5) translate(0,0)" x2="450" y2="0" stroke="#0f223b" stroke-opacity="0" stroke-width="1" opacity="1" class="axis-domain" pointer-events="none" version="1.1" width="486" height="230" viewBox="0 0 486 230" fill="none" stroke-miterlimit="10" role="graphics-symbol" aria-roledescription="axis" aria-label="X-axis for a discrete scale with 3 values: 13th, 1st, 6th"/>
<line transform="translate(-61.92256591796874, 102.08391113281249) translate(31.0,5.0) translate(0.5,0.5) translate(0,200)" x2="-5" y2="0" stroke="#0f223b" stroke-opacity="0" stroke-width="1" opacity="1" class="axis-tick" pointer-events="none" version="1.1" width="486" height="230" viewBox="0 0 486 230" fill="none" stroke-miterlimit="10" role="graphics-symbol" aria-roledescription="axis" aria-label="Y-axis for a linear scale with values from 0.0 to 1.3"/>
<line transform="translate(-61.92256591796874, 102.08391113281249) translate(31.0,5.0) translate(0.5,0.5) translate(0,169)" x2="-5" y2="0" stroke="#0f223b" stroke-opacity="0" stroke-width="1" opacity="1" class="axis-tick" pointer-events="none" version="1.1" width="486" height="230" viewBox="0 0 486 230" fill="none" stroke-miterlimit="10" role="graphics-symbol" aria-roledescription="axis" aria-label="Y-axis for a linear scale with values from 0.0 to 1.3"/>
<line transform="translate(-61.92256591796874, 102.08391113281249) translate(31.0,5.0) translate(0.5,0.5) translate(0,138)" x2="-5" y2="0" stroke="#0f223b" stroke-opacity="0" stroke-width="1" opacity="1" class="axis-tick" pointer-events="none" version="1.1" width="486" height="230" viewBox="0 0 486 230" fill="none" stroke-miterlimit="10" role="graphics-symbol" aria-roledescription="axis" aria-label="Y-axis for a linear scale with values from 0.0 to 1.3"/>
<line transform="translate(-61.92256591796874, 102.08391113281249) translate(31.0,5.0) translate(0.5,0.5) translate(0,108)" x2="-5" y2="0" stroke="#0f223b" stroke-opacity="0" stroke-width="1" opacity="1" class="axis-tick" pointer-events="none" version="1.1" width="486" height="230" viewBox="0 0 486 230" fill="none" stroke-miterlimit="10" role="graphics-symbol" aria-roledescription="axis" aria-label="Y-axis for a linear scale with values from 0.0 to 1.3"/>
<line transform="translate(-61.92256591796874, 102.08391113281249) translate(31.0,5.0) translate(0.5,0.5) translate(0,77)" x2="-5" y2="0" stroke="#0f223b" stroke-opacity="0" stroke-width="1" opacity="1" class="axis-tick" pointer-events="none" version="1.1" width="486" height="230" viewBox="0 0 486 230" fill="none" stroke-miterlimit="10" role="graphics-symbol" aria-roledescription="axis" aria-label="Y-axis for a linear scale with values from 0.0 to 1.3"/>
<line transform="translate(-61.92256591796874, 102.08391113281249) translate(31.0,5.0) translate(0.5,0.5) translate(0,46)" x2="-5" y2="0" stroke="#0f223b" stroke-opacity="0" stroke-width="1" opacity="1" class="axis-tick" pointer-events="none" version="1.1" width="486" height="230" viewBox="0 0 486 230" fill="none" stroke-miterlimit="10" role="graphics-symbol" aria-roledescription="axis" aria-label="Y-axis for a linear scale with values from 0.0 to 1.3"/>
<line transform="translate(-61.92256591796874, 102.08391113281249) translate(31.0,5.0) translate(0.5,0.5) translate(0,15)" x2="-5" y2="0" stroke="#0f223b" stroke-opacity="0" stroke-width="1" opacity="1" class="axis-tick" pointer-events="none" version="1.1" width="486" height="230" viewBox="0 0 486 230" fill="none" stroke-miterlimit="10" role="graphics-symbol" aria-roledescription="axis" aria-label="Y-axis for a linear scale with values from 0.0 to 1.3"/>
<text text-anchor="end" transform="translate(-61.92256591796874, 102.08391113281249) translate(31.0,5.0) translate(0.5,0.5) translate(-10,203)" font-family="sans-serif" font-size="10px" fill="#000d2a" opacity="1" class="axis-label" pointer-events="none" version="1.1" width="486" height="230" viewBox="0 0 486 230" stroke-miterlimit="10" role="graphics-symbol" aria-roledescription="axis" aria-label="Y-axis for a linear scale with values from 0.0 to 1.3">0.0
</text>
<text text-anchor="end" transform="translate(-61.92256591796874, 102.08391113281249) translate(31.0,5.0) translate(0.5,0.5) translate(-10,172.23076923076923)" font-family="sans-serif" font-size="10px" fill="#000d2a" opacity="1" class="axis-label" pointer-events="none" version="1.1" width="486" height="230" viewBox="0 0 486 230" stroke-miterlimit="10" role="graphics-symbol" aria-roledescription="axis" aria-label="Y-axis for a linear scale with values from 0.0 to 1.3">0.2
</text>
<text text-anchor="end" transform="translate(-61.92256591796874, 102.08391113281249) translate(31.0,5.0) translate(0.5,0.5) translate(-10,141.46153846153845)" font-family="sans-serif" font-size="10px" fill="#000d2a" opacity="1" class="axis-label" pointer-events="none" version="1.1" width="486" height="230" viewBox="0 0 486 230" stroke-miterlimit="10" role="graphics-symbol" aria-roledescription="axis" aria-label="Y-axis for a linear scale with values from 0.0 to 1.3">0.4
</text>
<text text-anchor="end" transform="translate(-61.92256591796874, 102.08391113281249) translate(31.0,5.0) translate(0.5,0.5) translate(-10,110.69230769230771)" font-family="sans-serif" font-size="10px" fill="#000d2a" opacity="1" class="axis-label" pointer-events="none" version="1.1" width="486" height="230" viewBox="0 0 486 230" stroke-miterlimit="10" role="graphics-symbol" aria-roledescription="axis" aria-label="Y-axis for a linear scale with values from 0.0 to 1.3">0.6
</text>
<text text-anchor="end" transform="translate(-61.92256591796874, 102.08391113281249) translate(31.0,5.0) translate(0.5,0.5) translate(-10,79.92307692307692)" font-family="sans-serif" font-size="10px" fill="#000d2a" opacity="1" class="axis-label" pointer-events="none" version="1.1" width="486" height="230" viewBox="0 0 486 230" stroke-miterlimit="10" role="graphics-symbol" aria-roledescription="axis" aria-label="Y-axis for a linear scale with values from 0.0 to 1.3">0.8
</text>
<text text-anchor="end" transform="translate(-61.92256591796874, 102.08391113281249) translate(31.0,5.0) translate(0.5,0.5) translate(-10,49.15384615384617)" font-family="sans-serif" font-size="10px" fill="#000d2a" opacity="1" class="axis-label" pointer-events="none" version="1.1" width="486" height="230" viewBox="0 0 486 230" stroke-miterlimit="10" role="graphics-symbol" aria-roledescription="axis" aria-label="Y-axis for a linear scale with values from 0.0 to 1.3">1.0
</text>
<text text-anchor="end" transform="translate(-61.92256591796874, 102.08391113281249) translate(31.0,5.0) translate(0.5,0.5) translate(-10,18.384615384615397)" font-family="sans-serif" font-size="10px" fill="#000d2a" opacity="1" class="axis-label" pointer-events="none" version="1.1" width="486" height="230" viewBox="0 0 486 230" stroke-miterlimit="10" role="graphics-symbol" aria-roledescription="axis" aria-label="Y-axis for a linear scale with values from 0.0 to 1.3">1.2
</text>
<line transform="translate(-61.92256591796874, 102.08391113281249) translate(31.0,5.0) translate(0.5,0.5) translate(0,200)" x2="0" y2="-200" stroke="#0f223b" stroke-opacity="0" stroke-width="1" opacity="1" class="axis-domain" pointer-events="none" version="1.1" width="486" height="230" viewBox="0 0 486 230" fill="none" stroke-miterlimit="10" role="graphics-symbol" aria-roledescription="axis" aria-label="Y-axis for a linear scale with values from 0.0 to 1.3"/>
<path aria-label="Day of protest: 13th; Ratio: 0.78; Year: 2023" role="graphics-symbol" aria-roledescription="line mark" d="M75,80L150,80L150,32.308L300,32.308L300,3.077L375,3.077" stroke="#b3de69" stroke-width="2" opacity="1" class="line" version="1.1" width="486" height="230" viewBox="0 0 486 230" fill="none" stroke-miterlimit="10" transform="translate(-61.92256591796874, 102.08391113281249) translate(31.0,5.0)"/>
<path aria-label="Day of protest: 13th; Ratio: 0.38; Year: 2010" role="graphics-symbol" aria-roledescription="line mark" d="M75,141.538L150,141.538L150,76.923L300,76.923L300,10.769L375,10.769" stroke="#8dd3c7" stroke-width="2" opacity="1" class="line" version="1.1" width="486" height="230" viewBox="0 0 486 230" fill="none" stroke-miterlimit="10" transform="translate(-61.92256591796874, 102.08391113281249) translate(31.0,5.0)"/>
<path aria-label="Day of protest: 13th; Ratio: 0.07; Year: 2019-2020" role="graphics-symbol" aria-roledescription="line mark" d="M75,189.231L150,189.231L150,75.385L300,75.385L300,176.923L375,176.923" stroke="#bc80bd" stroke-width="2" opacity="1" class="line" version="1.1" width="486" height="230" viewBox="0 0 486 230" fill="none" stroke-miterlimit="10" transform="translate(-61.92256591796874, 102.08391113281249) translate(31.0,5.0)"/>
<path aria-label="Day of protest: 1st; Ratio: 0.45; Year: 1995" role="graphics-symbol" aria-roledescription="line mark" d="M225,130.769L300,130.769L300,153.846L375,153.846" stroke="#fb8072" stroke-width="2" opacity="1" class="line" version="1.1" width="486" height="230" viewBox="0 0 486 230" fill="none" stroke-miterlimit="10" transform="translate(-61.92256591796874, 102.08391113281249) translate(31.0,5.0)"/>
<path aria-label="Day of protest: 1st; Ratio: 1; Year: 2003" role="graphics-symbol" aria-roledescription="line mark" d="M225,46.154L300,46.154L300,133.846L375,133.846" stroke="#ffed6f" stroke-width="2" opacity="1" class="line" version="1.1" width="486" height="230" viewBox="0 0 486 230" fill="none" stroke-miterlimit="10" transform="translate(-61.92256591796874, 102.08391113281249) translate(31.0,5.0)"/></g></svg>