<svg version="1.1" class="marks" width="471.123046875" height="328.85546875" viewBox="0 0 571.123046875 428.85546875" xmlns="http://www.w3.org/2000/svg" xmlns:xlink="http://www.w3.org/1999/xlink"><rect width="100%" height="100%" fill="#ffffff"/>
<g transform="translate(103.89326904296874, 51.171948242187504)"><rect x="0" y="0" width="15" height="150" fill="#8da0cb" transform="scale(0.6094130859375)"/>
<text class="chart-title-line" x="0" y="0" text-anchor="start" font-family="sans-serif" font-size="24" font-weight="700" fill="#0f2740" letter-spacing="0" transform="translate(19.1411962890625, 20.953051757812496)">The U.S. Has a Jails Suicide
</text>
<text class="chart-title-line" x="0" y="0" text-anchor="start" font-family="sans-serif" font-size="24" font-weight="700" fill="#0f2740" letter-spacing="0" transform="translate(19.1411962890625, 20.953051757812496) translate(0.0, 27.1640625)">Crisis on Its Hands
</text>
<text class="chart-subtitle-line" x="0" y="0" text-anchor="start" font-family="sans-serif" font-size="13" font-weight="400" fill="#445f7c" letter-spacing="0.25" transform="translate(19.1411962890625, 20.953051757812496) translate(0.0, 54.1875)">U.S. suicide rates in jails/prisons and the general population
</text>
<text class="chart-subtitle-line" x="0" y="0" text-anchor="start" font-family="sans-serif" font-size="13" font-weight="400" fill="#445f7c" letter-spacing="0.25" transform="translate(19.1411962890625, 20.953051757812496) translate(0.0, 54.1875) translate(0.0, 14.7138671875)">(per 100,000 persons)
</text>
<line transform="translate(-61.27022216796874, 102.08391113281249) translate(28.0,5.0) translate(0.5,200.5) translate(11,0)" x2="0" y2="5" stroke="#0f223b" stroke-opacity="0" stroke-width="1" opacity="1" class="axis-tick" pointer-events="none" version="1.1" width="485" height="230" viewBox="0 0 485 230" fill="none" stroke-miterlimit="10" role="graphics-symbol" aria-roledescription="axis" aria-label="X-axis for a discrete scale with 20 values: 2000, 2001, 2002, 2003, 2004, ending with 2019"/>
<line transform="translate(-61.27022216796874, 102.08391113281249) translate(28.0,5.0) translate(0.5,200.5) translate(34,0)" x2="0" y2="5" stroke="#0f223b" stroke-opacity="0" stroke-width="1" opacity="1" class="axis-tick" pointer-events="none" version="1.1" width="485" height="230" viewBox="0 0 485 230" fill="none" stroke-miterlimit="10" role="graphics-symbol" aria-roledescription="axis" aria-label="X-axis for a discrete scale with 20 values: 2000, 2001, 2002, 2003, 2004, ending with 2019"/>
<line transform="translate(-61.27022216796874, 102.08391113281249) translate(28.0,5.0) translate(0.5,200.5) translate(56,0)" x2="0" y2="5" stroke="#0f223b" stroke-opacity="0" stroke-width="1" opacity="1" class="axis-tick" pointer-events="none" version="1.1" width="485" height="230" viewBox="0 0 485 230" fill="none" stroke-miterlimit="10" role="graphics-symbol" aria-roledescription="axis" aria-label="X-axis for a discrete scale with 20 values: 2000, 2001, 2002, 2003, 2004, ending with 2019"/>
<line transform="translate(-61.27022216796874, 102.08391113281249) translate(28.0,5.0) translate(0.5,200.5) translate(79,0)" x2="0" y2="5" stroke="#0f223b" stroke-opacity="0" stroke-width="1" opacity="1" class="axis-tick" pointer-events="none" version="1.1" width="485" height="230" viewBox="0 0 485 230" fill="none" stroke-miterlimit="10" role="graphics-symbol" aria-roledescription="axis" aria-label="X-axis for a discrete scale with 20 values: 2000, 2001, 2002, 2003, 2004, ending with 2019"/>
<line transform="translate(-61.27022216796874, 102.08391113281249) translate(28.0,5.0) translate(0.5,200.5) translate(101,0)" x2="0" y2="5" stroke="#0f223b" stroke-opacity="0" stroke-width="1" opacity="1" class="axis-tick" pointer-events="none" version="1.1" width="485" height="230" viewBox="0 0 485 230" fill="none" stroke-miterlimit="10" role="graphics-symbol" aria-roledescription="axis" aria-label="X-axis for a discrete scale with 20 values: 2000, 2001, 2002, 2003, 2004, ending with 2019"/>
<line transform="translate(-61.27022216796874, 102.08391113281249) translate(28.0,5.0) translate(0.5,200.5) translate(124,0)" x2="0" y2="5" stroke="#0f223b" stroke-opacity="0" stroke-width="1" opacity="1" class="axis-tick" pointer-events="none" version="1.1" width="485" height="230" viewBox="0 0 485 230" fill="none" stroke-miterlimit="10" role="graphics-symbol" aria-roledescription="axis" aria-label="X-axis for a discrete scale with 20 values: 2000, 2001, 2002, 2003, 2004, ending with 2019"/>
<line transform="translate(-61.27022216796874, 102.08391113281249) translate(28.0,5.0) translate(0.5,200.5) translate(146,0)" x2="0" y2="5" stroke="#0f223b" stroke-opacity="0" stroke-width="1" opacity="1" class="axis-tick" pointer-events="none" version="1.1" width="485" height="230" viewBox="0 0 485 230" fill="none" stroke-miterlimit="10" role="graphics-symbol" aria-roledescription="axis" aria-label="X-axis for a discrete scale with 20 values: 2000, 2001, 2002, 2003, 2004, ending with 2019"/>
<line transform="translate(-61.27022216796874, 102.08391113281249) translate(28.0,5.0) translate(0.5,200.5) translate(169,0)" x2="0" y2="5" stroke="#0f223b" stroke-opacity="0" stroke-width="1" opacity="1" class="axis-tick" pointer-events="none" version="1.1" width="485" height="230" viewBox="0 0 485 230" fill="none" stroke-miterlimit="10" role="graphics-symbol" aria-roledescription="axis" aria-label="X-axis for a discrete scale with 20 values: 2000, 2001, 2002, 2003, 2004, ending with 2019"/>
<line transform="translate(-61.27022216796874, 102.08391113281249) translate(28.0,5.0) translate(0.5,200.5) translate(191,0)" x2="0" y2="5" stroke="#0f223b" stroke-opacity="0" stroke-width="1" opacity="1" class="axis-tick" pointer-events="none" version="1.1" width="485" height="230" viewBox="0 0 485 230" fill="none" stroke-miterlimit="10" role="graphics-symbol" aria-roledescription="axis" aria-label="X-axis for a discrete scale with 20 values: 2000, 2001, 2002, 2003, 2004, ending with 2019"/>
<line transform="translate(-61.27022216796874, 102.08391113281249) translate(28.0,5.0) translate(0.5,200.5) translate(214,0)" x2="0" y2="5" stroke="#0f223b" stroke-opacity="0" stroke-width="1" opacity="1" class="axis-tick" pointer-events="none" version="1.1" width="485" height="230" viewBox="0 0 485 230" fill="none" stroke-miterlimit="10" role="graphics-symbol" aria-roledescription="axis" aria-label="X-axis for a discrete scale with 20 values: 2000, 2001, 2002, 2003, 2004, ending with 2019"/>
<line transform="translate(-61.27022216796874, 102.08391113281249) translate(28.0,5.0) translate(0.5,200.5) translate(236,0)" x2="0" y2="5" stroke="#0f223b" stroke-opacity="0" stroke-width="1" opacity="1" class="axis-tick" pointer-events="none" version="1.1" width="485" height="230" viewBox="0 0 485 230" fill="none" stroke-miterlimit="10" role="graphics-symbol" aria-roledescription="axis" aria-label="X-axis for a discrete scale with 20 values: 2000, 2001, 2002, 2003, 2004, ending with 2019"/>
<line transform="translate(-61.27022216796874, 102.08391113281249) translate(28.0,5.0) translate(0.5,200.5) translate(259,0)" x2="0" y2="5" stroke="#0f223b" stroke-opacity="0" stroke-width="1" opacity="1" class="axis-tick" pointer-events="none" version="1.1" width="485" height="230" viewBox="0 0 485 230" fill="none" stroke-miterlimit="10" role="graphics-symbol" aria-roledescription="axis" aria-label="X-axis for a discrete scale with 20 values: 2000, 2001, 2002, 2003, 2004, ending with 2019"/>
<line transform="translate(-61.27022216796874, 102.08391113281249) translate(28.0,5.0) translate(0.5,200.5) translate(281,0)" x2="0" y2="5" stroke="#0f223b" stroke-opacity="0" stroke-width="1" opacity="1" class="axis-tick" pointer-events="none" version="1.1" width="485" height="230" viewBox="0 0 485 230" fill="none" stroke-miterlimit="10" role="graphics-symbol" aria-roledescription="axis" aria-label="X-axis for a discrete scale with 20 values: 2000, 2001, 2002, 2003, 2004, ending with 2019"/>
<line transform="translate(-61.27022216796874, 102.08391113281249) translate(28.0,5.0) translate(0.5,200.5) translate(304,0)" x2="0" y2="5" stroke="#0f223b" stroke-opacity="0" stroke-width="1" opacity="1" class="axis-tick" pointer-events="none" version="1.1" width="485" height="230" viewBox="0 0 485 230" fill="none" stroke-miterlimit="10" role="graphics-symbol" aria-roledescription="axis" aria-label="X-axis for a discrete scale with 20 values: 2000, 2001, 2002, 2003, 2004, ending with 2019"/>
<line transform="translate(-61.27022216796874, 102.08391113281249) translate(28.0,5.0) translate(0.5,200.5) translate(326,0)" x2="0" y2="5" stroke="#0f223b" stroke-opacity="0" stroke-width="1" opacity="1" class="axis-tick" pointer-events="none" version="1.1" width="485" height="230" viewBox="0 0 485 230" fill="none" stroke-miterlimit="10" role="graphics-symbol" aria-roledescription="axis" aria-label="X-axis for a discrete scale with 20 values: 2000, 2001, 2002, 2003, 2004, ending with 2019"/>
<line transform="translate(-61.27022216796874, 102.08391113281249) translate(28.0,5.0) translate(0.5,200.5) translate(349,0)" x2="0" y2="5" stroke="#0f223b" stroke-opacity="0" stroke-width="1" opacity="1" class="axis-tick" pointer-events="none" version="1.1" width="485" height="230" viewBox="0 0 485 230" fill="none" stroke-miterlimit="10" role="graphics-symbol" aria-roledescription="axis" aria-label="X-axis for a discrete scale with 20 values: 2000, 2001, 2002, 2003, 2004, ending with 2019"/>
<line transform="translate(-61.27022216796874, 102.08391113281249) translate(28.0,5.0) translate(0.5,200.5) translate(371,0)" x2="0" y2="5" stroke="#0f223b" stroke-opacity="0" stroke-width="1" opacity="1" class="axis-tick" pointer-events="none" version="1.1" width="485" height="230" viewBox="0 0 485 230" fill="none" stroke-miterlimit="10" role="graphics-symbol" aria-roledescription="axis" aria-label="X-axis for a discrete scale with 20 values: 2000, 2001, 2002, 2003, 2004, ending with 2019"/>
<line transform="translate(-61.27022216796874, 102.08391113281249) translate(28.0,5.0) translate(0.5,200.5) translate(394,0)" x2="0" y2="5" stroke="#0f223b" stroke-opacity="0" stroke-width="1" opacity="1" class="axis-tick" pointer-events="none" version="1.1" width="485" height="230" viewBox="0 0 485 230" fill="none" stroke-miterlimit="10" role="graphics-symbol" aria-roledescription="axis" aria-label="X-axis for a discrete scale with 20 values: 2000, 2001, 2002, 2003, 2004, ending with 2019"/>
<line transform="translate(-61.27022216796874, 102.08391113281249) translate(28.0,5.0) translate(0.5,200.5) translate(416,0)" x2="0" y2="5" stroke="#0f223b" stroke-opacity="0" stroke-width="1" opacity="1" class="axis-tick" pointer-events="none" version="1.1" width="485" height="230" viewBox="0 0 485 230" fill="none" stroke-miterlimit="10" role="graphics-symbol" aria-roledescription="axis" aria-label="X-axis for a discrete scale with 20 values: 2000, 2001, 2002, 2003, 2004, ending with 2019"/>
<line transform="translate(-61.27022216796874, 102.08391113281249) translate(28.0,5.0) translate(0.5,200.5) translate(439,0)" x2="0" y2="5" stroke="#0f223b" stroke-opacity="0" stroke-width="1" opacity="1" class="axis-tick" pointer-events="none" version="1.1" width="485" height="230" viewBox="0 0 485 230" fill="none" stroke-miterlimit="10" role="graphics-symbol" aria-roledescription="axis" aria-label="X-axis for a discrete scale with 20 values: 2000, 2001, 2002, 2003, 2004, ending with 2019"/>
<text text-anchor="middle" transform="translate(-61.27022216796874, 102.08391113281249) translate(28.0,5.0) translate(0.5,200.5) translate(0.0,0.0) translate(11.25,18)" font-family="sans-serif" font-size="10.0px" fill="#000d2a" opacity="1" class="axis-label" pointer-events="none" version="1.1" width="485" height="230" viewBox="0 0 485 230" stroke-miterlimit="10" role="graphics-symbol" aria-roledescription="axis" aria-label="X-axis for a discrete scale with 20 values: 2000, 2001, 2002, 2003, 2004, ending with 2019">'00
</text>
<text text-anchor="middle" transform="translate(-61.27022216796874, 102.08391113281249) translate(28.0,5.0) translate(0.5,200.5) translate(0.0,0.0) translate(33.75,18)" font-family="sans-serif" font-size="10.0px" fill="#000d2a" opacity="1" class="axis-label" pointer-events="none" version="1.1" width="485" height="230" viewBox="0 0 485 230" stroke-miterlimit="10" role="graphics-symbol" aria-roledescription="axis" aria-label="X-axis for a discrete scale with 20 values: 2000, 2001, 2002, 2003, 2004, ending with 2019">'01
</text>
<text text-anchor="middle" transform="translate(-61.27022216796874, 102.08391113281249) translate(28.0,5.0) translate(0.5,200.5) translate(0.0,0.0) translate(56.25,18)" font-family="sans-serif" font-size="10.0px" fill="#000d2a" opacity="1" class="axis-label" pointer-events="none" version="1.1" width="485" height="230" viewBox="0 0 485 230" stroke-miterlimit="10" role="graphics-symbol" aria-roledescription="axis" aria-label="X-axis for a discrete scale with 20 values: 2000, 2001, 2002, 2003, 2004, ending with 2019">'02
</text>
<text text-anchor="middle" transform="translate(-61.27022216796874, 102.08391113281249) translate(28.0,5.0) translate(0.5,200.5) translate(0.0,0.0) translate(78.75,18)" font-family="sans-serif" font-size="10.0px" fill="#000d2a" opacity="1" class="axis-label" pointer-events="none" version="1.1" width="485" height="230" viewBox="0 0 485 230" stroke-miterlimit="10" role="graphics-symbol" aria-roledescription="axis" aria-label="X-axis for a discrete scale with 20 values: 2000, 2001, 2002, 2003, 2004, ending with 2019">'03
</text>
<text text-anchor="middle" transform="translate(-61.27022216796874, 102.08391113281249) translate(28.0,5.0) translate(0.5,200.5) translate(0.0,0.0) translate(101.25,18)" font-family="sans-serif" font-size="10.0px" fill="#000d2a" opacity="1" class="axis-label" pointer-events="none" version="1.1" width="485" height="230" viewBox="0 0 485 230" stroke-miterlimit="10" role="graphics-symbol" aria-roledescription="axis" aria-label="X-axis for a discrete scale with 20 values: 2000, 2001, 2002, 2003, 2004, ending with 2019">'04
</text>
<text text-anchor="middle" transform="translate(-61.27022216796874, 102.08391113281249) translate(28.0,5.0) translate(0.5,200.5) translate(0.0,0.0) translate(123.75,18)" font-family="sans-serif" font-size="10.0px" fill="#000d2a" opacity="1" class="axis-label" pointer-events="none" version="1.1" width="485" height="230" viewBox="0 0 485 230" stroke-miterlimit="10" role="graphics-symbol" aria-roledescription="axis" aria-label="X-axis for a discrete scale with 20 values: 2000, 2001, 2002, 2003, 2004, ending with 2019">'05
</text>
<text text-anchor="middle" transform="translate(-61.27022216796874, 102.08391113281249) translate(28.0,5.0) translate(0.5,200.5) translate(0.0,0.0) translate(146.25,18)" font-family="sans-serif" font-size="10.0px" fill="#000d2a" opacity="1" class="axis-label" pointer-events="none" version="1.1" width="485" height="230" viewBox="0 0 485 230" stroke-miterlimit="10" role="graphics-symbol" aria-roledescription="axis" aria-label="X-axis for a discrete scale with 20 values: 2000, 2001, 2002, 2003, 2004, ending with 2019">'06
</text>
<text text-anchor="middle" transform="translate(-61.27022216796874, 102.08391113281249) translate(28.0,5.0) translate(0.5,200.5) translate(0.0,0.0) translate(168.75,18)" font-family="sans-serif" font-size="10.0px" fill="#000d2a" opacity="1" class="axis-label" pointer-events="none" version="1.1" width="485" height="230" viewBox="0 0 485 230" stroke-miterlimit="10" role="graphics-symbol" aria-roledescription="axis" aria-label="X-axis for a discrete scale with 20 values: 2000, 2001, 2002, 2003, 2004, ending with 2019">'07
</text>
<text text-anchor="middle" transform="translate(-61.27022216796874, 102.08391113281249) translate(28.0,5.0) translate(0.5,200.5) translate(0.0,0.0) translate(191.25,18)" font-family="sans-serif" font-size="10.0px" fill="#000d2a" opacity="1" class="axis-label" pointer-events="none" version="1.1" width="485" height="230" viewBox="0 0 485 230" stroke-miterlimit="10" role="graphics-symbol" aria-roledescription="axis" aria-label="X-axis for a discrete scale with 20 values: 2000, 2001, 2002, 2003, 2004, ending with 2019">'08
</text>
<text text-anchor="middle" transform="translate(-61.27022216796874, 102.08391113281249) translate(28.0,5.0) translate(0.5,200.5) translate(0.0,0.0) translate(213.75,18)" font-family="sans-serif" font-size="10.0px" fill="#000d2a" opacity="1" class="axis-label" pointer-events="none" version="1.1" width="485" height="230" viewBox="0 0 485 230" stroke-miterlimit="10" role="graphics-symbol" aria-roledescription="axis" aria-label="X-axis for a discrete scale with 20 values: 2000, 2001, 2002, 2003, 2004, ending with 2019">'09
</text>
<text text-anchor="middle" transform="translate(-61.27022216796874, 102.08391113281249) translate(28.0,5.0) translate(0.5,200.5) translate(0.0,0.0) translate(236.25,18)" font-family="sans-serif" font-size="10.0px" fill="#000d2a" opacity="1" class="axis-label" pointer-events="none" version="1.1" width="485" height="230" viewBox="0 0 485 230" stroke-miterlimit="10" role="graphics-symbol" aria-roledescription="axis" aria-label="X-axis for a discrete scale with 20 values: 2000, 2001, 2002, 2003, 2004, ending with 2019">'10
</text>
<text text-anchor="middle" transform="translate(-61.27022216796874, 102.08391113281249) translate(28.0,5.0) translate(0.5,200.5) translate(0.0,0.0) translate(258.75,18)" font-family="sans-serif" font-size="10.0px" fill="#000d2a" opacity="1" class="axis-label" pointer-events="none" version="1.1" width="485" height="230" viewBox="0 0 485 230" stroke-miterlimit="10" role="graphics-symbol" aria-roledescription="axis" aria-label="X-axis for a discrete scale with 20 values: 2000, 2001, 2002, 2003, 2004, ending with 2019">'11
</text>
<text text-anchor="middle" transform="translate(-61.27022216796874, 102.08391113281249) translate(28.0,5.0) translate(0.5,200.5) translate(0.0,0.0) translate(281.25,18)" font-family="sans-serif" font-size="10.0px" fill="#000d2a" opacity="1" class="axis-label" pointer-events="none" version="1.1" width="485" height="230" viewBox="0 0 485 230" stroke-miterlimit="10" role="graphics-symbol" aria-roledescription="axis" aria-label="X-axis for a discrete scale with 20 values: 2000, 2001, 2002, 2003, 2004, ending with 2019">'12
</text>
<text text-anchor="middle" transform="translate(-61.27022216796874, 102.08391113281249) translate(28.0,5.0) translate(0.5,200.5) translate(0.0,0.0) translate(303.75,18)" font-family="sans-serif" font-size="10.0px" fill="#000d2a" opacity="1" class="axis-label" pointer-events="none" version="1.1" width="485" height="230" viewBox="0 0 485 230" stroke-miterlimit="10" role="graphics-symbol" aria-roledescription="axis" aria-label="X-axis for a discrete scale with 20 values: 2000, 2001, 2002, 2003, 2004, ending with 2019">'13
</text>
<text text-anchor="middle" transform="translate(-61.27022216796874, 102.08391113281249) translate(28.0,5.0) translate(0.5,200.5) translate(0.0,0.0) translate(326.25,18)" font-family="sans-serif" font-size="10.0px" fill="#000d2a" opacity="1" class="axis-label" pointer-events="none" version="1.1" width="485" height="230" viewBox="0 0 485 230" stroke-miterlimit="10" role="graphics-symbol" aria-roledescription="axis" aria-label="X-axis for a discrete scale with 20 values: 2000, 2001, 2002, 2003, 2004, ending with 2019">'14
</text>
<text text-anchor="middle" transform="translate(-61.27022216796874, 102.08391113281249) translate(28.0,5.0) translate(0.5,200.5) translate(0.0,0.0) translate(348.75,18)" font-family="sans-serif" font-size="10.0px" fill="#000d2a" opacity="1" class="axis-label" pointer-events="none" version="1.1" width="485" height="230" viewBox="0 0 485 230" stroke-miterlimit="10" role="graphics-symbol" aria-roledescription="axis" aria-label="X-axis for a discrete scale with 20 values: 2000, 2001, 2002, 2003, 2004, ending with 2019">'15
</text>
<text text-anchor="middle" transform="translate(-61.27022216796874, 102.08391113281249) translate(28.0,5.0) translate(0.5,200.5) translate(0.0,0.0) translate(371.25,18)" font-family="sans-serif" font-size="10.0px" fill="#000d2a" opacity="1" class="axis-label" pointer-events="none" version="1.1" width="485" height="230" viewBox="0 0 485 230" stroke-miterlimit="10" role="graphics-symbol" aria-roledescription="axis" aria-label="X-axis for a discrete scale with 20 values: 2000, 2001, 2002, 2003, 2004, ending with 2019">'16
</text>
<text text-anchor="middle" transform="translate(-61.27022216796874, 102.08391113281249) translate(28.0,5.0) translate(0.5,200.5) translate(0.0,0.0) translate(393.75,18)" font-family="sans-serif" font-size="10.0px" fill="#000d2a" opacity="1" class="axis-label" pointer-events="none" version="1.1" width="485" height="230" viewBox="0 0 485 230" stroke-miterlimit="10" role="graphics-symbol" aria-roledescription="axis" aria-label="X-axis for a discrete scale with 20 values: 2000, 2001, 2002, 2003, 2004, ending with 2019">'17
</text>
<text text-anchor="middle" transform="translate(-61.27022216796874, 102.08391113281249) translate(28.0,5.0) translate(0.5,200.5) translate(0.0,0.0) translate(416.25,18)" font-family="sans-serif" font-size="10.0px" fill="#000d2a" opacity="1" class="axis-label" pointer-events="none" version="1.1" width="485" height="230" viewBox="0 0 485 230" stroke-miterlimit="10" role="graphics-symbol" aria-roledescription="axis" aria-label="X-axis for a discrete scale with 20 values: 2000, 2001, 2002, 2003, 2004, ending with 2019">'18
</text>
<text text-anchor="middle" transform="translate(-61.27022216796874, 102.08391113281249) translate(28.0,5.0) translate(0.5,200.5) translate(0.0,0.0) translate(438.75,18)" font-family="sans-serif" font-size="10.0px" fill="#000d2a" opacity="1" class="axis-label" pointer-events="none" version="1.1" width="485" height="230" viewBox="0 0 485 230" stroke-miterlimit="10" role="graphics-symbol" aria-roledescription="axis" aria-label="X-axis for a discrete scale with 20 values: 2000, 2001, 2002, 2003, 2004, ending with 2019">'19
</text>
<line transform="translate(-61.27022216796874, 102.08391113281249) translate(28.0,5.0) translate(0.5,200.5) translate(0,0)" x2="450" y2="0" stroke="#0f223b" stroke-opacity="0" stroke-width="1" opacity="1" class="axis-domain" pointer-events="none" version="1.1" width="485" height="230" viewBox="0 0 485 230" fill="none" stroke-miterlimit="10" role="graphics-symbol" aria-roledescription="axis" aria-label="X-axis for a discrete scale with 20 values: 2000, 2001, 2002, 2003, 2004, ending with 2019"/>
<line transform="translate(-61.27022216796874, 102.08391113281249) translate(28.0,5.0) translate(0.5,0.5) translate(0,200)" x2="-5" y2="0" stroke="#0f223b" stroke-opacity="0" stroke-width="1" opacity="1" class="axis-tick" pointer-events="none" version="1.1" width="485" height="230" viewBox="0 0 485 230" fill="none" stroke-miterlimit="10" role="graphics-symbol" aria-roledescription="axis" aria-label="Y-axis for a linear scale with values from 0 to 55"/>
<line transform="translate(-61.27022216796874, 102.08391113281249) translate(28.0,5.0) translate(0.5,0.5) translate(0,164)" x2="-5" y2="0" stroke="#0f223b" stroke-opacity="0" stroke-width="1" opacity="1" class="axis-tick" pointer-events="none" version="1.1" width="485" height="230" viewBox="0 0 485 230" fill="none" stroke-miterlimit="10" role="graphics-symbol" aria-roledescription="axis" aria-label="Y-axis for a linear scale with values from 0 to 55"/>
<line transform="translate(-61.27022216796874, 102.08391113281249) translate(28.0,5.0) translate(0.5,0.5) translate(0,127)" x2="-5" y2="0" stroke="#0f223b" stroke-opacity="0" stroke-width="1" opacity="1" class="axis-tick" pointer-events="none" version="1.1" width="485" height="230" viewBox="0 0 485 230" fill="none" stroke-miterlimit="10" role="graphics-symbol" aria-roledescription="axis" aria-label="Y-axis for a linear scale with values from 0 to 55"/>
<line transform="translate(-61.27022216796874, 102.08391113281249) translate(28.0,5.0) translate(0.5,0.5) translate(0,91)" x2="-5" y2="0" stroke="#0f223b" stroke-opacity="0" stroke-width="1" opacity="1" class="axis-tick" pointer-events="none" version="1.1" width="485" height="230" viewBox="0 0 485 230" fill="none" stroke-miterlimit="10" role="graphics-symbol" aria-roledescription="axis" aria-label="Y-axis for a linear scale with values from 0 to 55"/>
<line transform="translate(-61.27022216796874, 102.08391113281249) translate(28.0,5.0) translate(0.5,0.5) translate(0,55)" x2="-5" y2="0" stroke="#0f223b" stroke-opacity="0" stroke-width="1" opacity="1" class="axis-tick" pointer-events="none" version="1.1" width="485" height="230" viewBox="0 0 485 230" fill="none" stroke-miterlimit="10" role="graphics-symbol" aria-roledescription="axis" aria-label="Y-axis for a linear scale with values from 0 to 55"/>
<line transform="translate(-61.27022216796874, 102.08391113281249) translate(28.0,5.0) translate(0.5,0.5) translate(0,18)" x2="-5" y2="0" stroke="#0f223b" stroke-opacity="0" stroke-width="1" opacity="1" class="axis-tick" pointer-events="none" version="1.1" width="485" height="230" viewBox="0 0 485 230" fill="none" stroke-miterlimit="10" role="graphics-symbol" aria-roledescription="axis" aria-label="Y-axis for a linear scale with values from 0 to 55"/>
<text text-anchor="end" transform="translate(-61.27022216796874, 102.08391113281249) translate(28.0,5.0) translate(0.5,0.5) translate(-10,203)" font-family="sans-serif" font-size="10px" fill="#000d2a" opacity="1" class="axis-label" pointer-events="none" version="1.1" width="485" height="230" viewBox="0 0 485 230" stroke-miterlimit="10" role="graphics-symbol" aria-roledescription="axis" aria-label="Y-axis for a linear scale with values from 0 to 55">0
</text>
<text text-anchor="end" transform="translate(-61.27022216796874, 102.08391113281249) translate(28.0,5.0) translate(0.5,0.5) translate(-10,166.63636363636363)" font-family="sans-serif" font-size="10px" fill="#000d2a" opacity="1" class="axis-label" pointer-events="none" version="1.1" width="485" height="230" viewBox="0 0 485 230" stroke-miterlimit="10" role="graphics-symbol" aria-roledescription="axis" aria-label="Y-axis for a linear scale with values from 0 to 55">10
</text>
<text text-anchor="end" transform="translate(-61.27022216796874, 102.08391113281249) translate(28.0,5.0) translate(0.5,0.5) translate(-10,130.27272727272725)" font-family="sans-serif" font-size="10px" fill="#000d2a" opacity="1" class="axis-label" pointer-events="none" version="1.1" width="485" height="230" viewBox="0 0 485 230" stroke-miterlimit="10" role="graphics-symbol" aria-roledescription="axis" aria-label="Y-axis for a linear scale with values from 0 to 55">20
</text>
<text text-anchor="end" transform="translate(-61.27022216796874, 102.08391113281249) translate(28.0,5.0) translate(0.5,0.5) translate(-10,93.90909090909092)" font-family="sans-serif" font-size="10px" fill="#000d2a" opacity="1" class="axis-label" pointer-events="none" version="1.1" width="485" height="230" viewBox="0 0 485 230" stroke-miterlimit="10" role="graphics-symbol" aria-roledescription="axis" aria-label="Y-axis for a linear scale with values from 0 to 55">30
</text>
<text text-anchor="end" transform="translate(-61.27022216796874, 102.08391113281249) translate(28.0,5.0) translate(0.5,0.5) translate(-10,57.54545454545454)" font-family="sans-serif" font-size="10px" fill="#000d2a" opacity="1" class="axis-label" pointer-events="none" version="1.1" width="485" height="230" viewBox="0 0 485 230" stroke-miterlimit="10" role="graphics-symbol" aria-roledescription="axis" aria-label="Y-axis for a linear scale with values from 0 to 55">40
</text>
<text text-anchor="end" transform="translate(-61.27022216796874, 102.08391113281249) translate(28.0,5.0) translate(0.5,0.5) translate(-10,21.181818181818187)" font-family="sans-serif" font-size="10px" fill="#000d2a" opacity="1" class="axis-label" pointer-events="none" version="1.1" width="485" height="230" viewBox="0 0 485 230" stroke-miterlimit="10" role="graphics-symbol" aria-roledescription="axis" aria-label="Y-axis for a linear scale with values from 0 to 55">50
</text>
<line transform="translate(-61.27022216796874, 102.08391113281249) translate(28.0,5.0) translate(0.5,0.5) translate(0,200)" x2="0" y2="-200" stroke="#0f223b" stroke-opacity="0" stroke-width="1" opacity="1" class="axis-domain" pointer-events="none" version="1.1" width="485" height="230" viewBox="0 0 485 230" fill="none" stroke-miterlimit="10" role="graphics-symbol" aria-roledescription="axis" aria-label="Y-axis for a linear scale with values from 0 to 55"/>
<path aria-label="Year: 2000; Score: 47; Location: Local Jails" role="graphics-symbol" aria-roledescription="line mark" d="M11.25,29.091L33.75,25.455L56.25,36.364L78.75,43.636L101.25,50.909L123.75,47.273L146.25,58.182L168.75,69.091L191.25,69.091L213.75,94.545L236.25,54.545L258.75,54.545L281.25,43.636L303.75,29.091L326.25,10.909L348.75,29.091L371.25,54.545L393.75,47.273L416.25,29.091L438.75,21.818" stroke="#66c2a5" stroke-width="2" opacity="1" class="line" version="1.1" width="485" height="230" viewBox="0 0 485 230" fill="none" stroke-miterlimit="10" transform="translate(-61.27022216796874, 102.08391113281249) translate(28.0,5.0)"/>
<path aria-label="Year: 2000; Score: 14; Location: State Prisons" role="graphics-symbol" aria-roledescription="line mark" d="M11.25,149.091L33.75,145.455L56.25,149.091L78.75,145.455L101.25,145.455L123.75,141.818L146.25,141.818L168.75,141.818L191.25,141.818L213.75,149.091L236.25,138.182L258.75,149.091L281.25,145.455L303.75,152.727L326.25,145.455L348.75,134.545L371.25,130.909L393.75,120L416.25,112.727L438.75,101.818" stroke="#b3b3b3" stroke-width="2" opacity="1" class="line" version="1.1" width="485" height="230" viewBox="0 0 485 230" fill="none" stroke-miterlimit="10" transform="translate(-61.27022216796874, 102.08391113281249) translate(28.0,5.0)"/>
<path aria-label="Year: 2000; Score: 11; Location: Federal Prisons" role="graphics-symbol" aria-roledescription="line mark" d="M11.25,160L33.75,152.727L56.25,181.818L78.75,174.545L101.25,181.818L123.75,167.273L146.25,167.273L168.75,160L191.25,170.909L213.75,185.455L236.25,160L258.75,167.273L281.25,149.091L303.75,145.455L326.25,160L348.75,163.636L371.25,156.364L393.75,152.727L416.25,141.818L438.75,127.273" stroke="#ffd92f" stroke-width="2" opacity="1" class="line" version="1.1" width="485" height="230" viewBox="0 0 485 230" fill="none" stroke-miterlimit="10" transform="translate(-61.27022216796874, 102.08391113281249) translate(28.0,5.0)"/>
<path aria-label="Year: 2000; Score: 10; Location: Overall U.S. Population" role="graphics-symbol" aria-roledescription="line mark" d="M11.25,163.636L33.75,163.636L56.25,160L78.75,160L101.25,160L123.75,160L146.25,160L168.75,160L191.25,156.364L213.75,156.364L236.25,156.364L258.75,156.364L281.25,152.727L303.75,152.727L326.25,152.727L348.75,152.727L371.25,149.091L393.75,149.091L416.25,149.091L438.75,149.455" stroke="#8da0cb" stroke-width="2" opacity="1" class="line" version="1.1" width="485" height="230" viewBox="0 0 485 230" fill="none" stroke-miterlimit="10" transform="translate(-61.27022216796874, 102.08391113281249) translate(28.0,5.0)"/></g></svg>