<svg version="1.1" class="marks" width="476.6845703125" height="335.07421875" viewBox="0 0 576.6845703125 435.07421875" xmlns="http://www.w3.org/2000/svg" xmlns:xlink="http://www.w3.org/1999/xlink"><rect width="100%" height="100%" fill="#ffffff"/>
<g transform="translate(133.81343505859374, 51.171948242187504)"><rect x="0" y="0" width="15" height="150" fill="None" transform="scale(0.6094130859375)"/>
<text class="chart-title-line" x="0" y="0" text-anchor="start" font-family="sans-serif" font-size="24" font-weight="700" fill="#0f2740" letter-spacing="0" transform="translate(19.1411962890625, 20.953051757812496)">Alphabet Is Feeling the
</text>
<text class="chart-title-line" x="0" y="0" text-anchor="start" font-family="sans-serif" font-size="24" font-weight="700" fill="#0f2740" letter-spacing="0" transform="translate(19.1411962890625, 20.953051757812496) translate(0.0, 27.1640625)">Ad Crisis Backlash
</text>
<text class="chart-subtitle-line" x="0" y="0" text-anchor="start" font-family="sans-serif" font-size="13" font-weight="400" fill="#445f7c" letter-spacing="0.25" transform="translate(19.1411962890625, 20.953051757812496) translate(0.0, 54.1875)">Alphabet (GOOG) market capitalization Feb 27 to
</text>
<text class="chart-subtitle-line" x="0" y="0" text-anchor="start" font-family="sans-serif" font-size="13" font-weight="400" fill="#445f7c" letter-spacing="0.25" transform="translate(19.1411962890625, 20.953051757812496) translate(0.0, 54.1875) translate(0.0, 14.7138671875)">Mar 27, 2017 (in billion U.S. dollars)
</text>
<line transform="translate(-92.62886474609374, 103.30266113281249) translate(35.0,10.0) translate(0.5,200.5) translate(15,0)" x2="0" y2="5" stroke="#0f223b" stroke-opacity="0" stroke-width="1" opacity="1" class="axis-tick" pointer-events="none" version="1.1" width="490" height="235" viewBox="0 0 490 235" fill="none" stroke-miterlimit="10" role="graphics-symbol" aria-roledescription="axis" aria-label="X-axis for a discrete scale with 15 values: Feb 27, Mar 1, Mar 11, Mar 13, Mar 15, ending with Mar 9"/>
<line transform="translate(-92.62886474609374, 103.30266113281249) translate(35.0,10.0) translate(0.5,200.5) translate(45,0)" x2="0" y2="5" stroke="#0f223b" stroke-opacity="0" stroke-width="1" opacity="1" class="axis-tick" pointer-events="none" version="1.1" width="490" height="235" viewBox="0 0 490 235" fill="none" stroke-miterlimit="10" role="graphics-symbol" aria-roledescription="axis" aria-label="X-axis for a discrete scale with 15 values: Feb 27, Mar 1, Mar 11, Mar 13, Mar 15, ending with Mar 9"/>
<line transform="translate(-92.62886474609374, 103.30266113281249) translate(35.0,10.0) translate(0.5,200.5) translate(75,0)" x2="0" y2="5" stroke="#0f223b" stroke-opacity="0" stroke-width="1" opacity="1" class="axis-tick" pointer-events="none" version="1.1" width="490" height="235" viewBox="0 0 490 235" fill="none" stroke-miterlimit="10" role="graphics-symbol" aria-roledescription="axis" aria-label="X-axis for a discrete scale with 15 values: Feb 27, Mar 1, Mar 11, Mar 13, Mar 15, ending with Mar 9"/>
<line transform="translate(-92.62886474609374, 103.30266113281249) translate(35.0,10.0) translate(0.5,200.5) translate(105,0)" x2="0" y2="5" stroke="#0f223b" stroke-opacity="0" stroke-width="1" opacity="1" class="axis-tick" pointer-events="none" version="1.1" width="490" height="235" viewBox="0 0 490 235" fill="none" stroke-miterlimit="10" role="graphics-symbol" aria-roledescription="axis" aria-label="X-axis for a discrete scale with 15 values: Feb 27, Mar 1, Mar 11, Mar 13, Mar 15, ending with Mar 9"/>
<line transform="translate(-92.62886474609374, 103.30266113281249) translate(35.0,10.0) translate(0.5,200.5) translate(135,0)" x2="0" y2="5" stroke="#0f223b" stroke-opacity="0" stroke-width="1" opacity="1" class="axis-tick" pointer-events="none" version="1.1" width="490" height="235" viewBox="0 0 490 235" fill="none" stroke-miterlimit="10" role="graphics-symbol" aria-roledescription="axis" aria-label="X-axis for a discrete scale with 15 values: Feb 27, Mar 1, Mar 11, Mar 13, Mar 15, ending with Mar 9"/>
<line transform="translate(-92.62886474609374, 103.30266113281249) translate(35.0,10.0) translate(0.5,200.5) translate(165,0)" x2="0" y2="5" stroke="#0f223b" stroke-opacity="0" stroke-width="1" opacity="1" class="axis-tick" pointer-events="none" version="1.1" width="490" height="235" viewBox="0 0 490 235" fill="none" stroke-miterlimit="10" role="graphics-symbol" aria-roledescription="axis" aria-label="X-axis for a discrete scale with 15 values: Feb 27, Mar 1, Mar 11, Mar 13, Mar 15, ending with Mar 9"/>
<line transform="translate(-92.62886474609374, 103.30266113281249) translate(35.0,10.0) translate(0.5,200.5) translate(195,0)" x2="0" y2="5" stroke="#0f223b" stroke-opacity="0" stroke-width="1" opacity="1" class="axis-tick" pointer-events="none" version="1.1" width="490" height="235" viewBox="0 0 490 235" fill="none" stroke-miterlimit="10" role="graphics-symbol" aria-roledescription="axis" aria-label="X-axis for a discrete scale with 15 values: Feb 27, Mar 1, Mar 11, Mar 13, Mar 15, ending with Mar 9"/>
<line transform="translate(-92.62886474609374, 103.30266113281249) translate(35.0,10.0) translate(0.5,200.5) translate(225,0)" x2="0" y2="5" stroke="#0f223b" stroke-opacity="0" stroke-width="1" opacity="1" class="axis-tick" pointer-events="none" version="1.1" width="490" height="235" viewBox="0 0 490 235" fill="none" stroke-miterlimit="10" role="graphics-symbol" aria-roledescription="axis" aria-label="X-axis for a discrete scale with 15 values: Feb 27, Mar 1, Mar 11, Mar 13, Mar 15, ending with Mar 9"/>
<line transform="translate(-92.62886474609374, 103.30266113281249) translate(35.0,10.0) translate(0.5,200.5) translate(255,0)" x2="0" y2="5" stroke="#0f223b" stroke-opacity="0" stroke-width="1" opacity="1" class="axis-tick" pointer-events="none" version="1.1" width="490" height="235" viewBox="0 0 490 235" fill="none" stroke-miterlimit="10" role="graphics-symbol" aria-roledescription="axis" aria-label="X-axis for a discrete scale with 15 values: Feb 27, Mar 1, Mar 11, Mar 13, Mar 15, ending with Mar 9"/>
<line transform="translate(-92.62886474609374, 103.30266113281249) translate(35.0,10.0) translate(0.5,200.5) translate(285,0)" x2="0" y2="5" stroke="#0f223b" stroke-opacity="0" stroke-width="1" opacity="1" class="axis-tick" pointer-events="none" version="1.1" width="490" height="235" viewBox="0 0 490 235" fill="none" stroke-miterlimit="10" role="graphics-symbol" aria-roledescription="axis" aria-label="X-axis for a discrete scale with 15 values: Feb 27, Mar 1, Mar 11, Mar 13, Mar 15, ending with Mar 9"/>
<line transform="translate(-92.62886474609374, 103.30266113281249) translate(35.0,10.0) translate(0.5,200.5) translate(315,0)" x2="0" y2="5" stroke="#0f223b" stroke-opacity="0" stroke-width="1" opacity="1" class="axis-tick" pointer-events="none" version="1.1" width="490" height="235" viewBox="0 0 490 235" fill="none" stroke-miterlimit="10" role="graphics-symbol" aria-roledescription="axis" aria-label="X-axis for a discrete scale with 15 values: Feb 27, Mar 1, Mar 11, Mar 13, Mar 15, ending with Mar 9"/>
<line transform="translate(-92.62886474609374, 103.30266113281249) translate(35.0,10.0) translate(0.5,200.5) translate(345,0)" x2="0" y2="5" stroke="#0f223b" stroke-opacity="0" stroke-width="1" opacity="1" class="axis-tick" pointer-events="none" version="1.1" width="490" height="235" viewBox="0 0 490 235" fill="none" stroke-miterlimit="10" role="graphics-symbol" aria-roledescription="axis" aria-label="X-axis for a discrete scale with 15 values: Feb 27, Mar 1, Mar 11, Mar 13, Mar 15, ending with Mar 9"/>
<line transform="translate(-92.62886474609374, 103.30266113281249) translate(35.0,10.0) translate(0.5,200.5) translate(375,0)" x2="0" y2="5" stroke="#0f223b" stroke-opacity="0" stroke-width="1" opacity="1" class="axis-tick" pointer-events="none" version="1.1" width="490" height="235" viewBox="0 0 490 235" fill="none" stroke-miterlimit="10" role="graphics-symbol" aria-roledescription="axis" aria-label="X-axis for a discrete scale with 15 values: Feb 27, Mar 1, Mar 11, Mar 13, Mar 15, ending with Mar 9"/>
<line transform="translate(-92.62886474609374, 103.30266113281249) translate(35.0,10.0) translate(0.5,200.5) translate(405,0)" x2="0" y2="5" stroke="#0f223b" stroke-opacity="0" stroke-width="1" opacity="1" class="axis-tick" pointer-events="none" version="1.1" width="490" height="235" viewBox="0 0 490 235" fill="none" stroke-miterlimit="10" role="graphics-symbol" aria-roledescription="axis" aria-label="X-axis for a discrete scale with 15 values: Feb 27, Mar 1, Mar 11, Mar 13, Mar 15, ending with Mar 9"/>
<line transform="translate(-92.62886474609374, 103.30266113281249) translate(35.0,10.0) translate(0.5,200.5) translate(435,0)" x2="0" y2="5" stroke="#0f223b" stroke-opacity="0" stroke-width="1" opacity="1" class="axis-tick" pointer-events="none" version="1.1" width="490" height="235" viewBox="0 0 490 235" fill="none" stroke-miterlimit="10" role="graphics-symbol" aria-roledescription="axis" aria-label="X-axis for a discrete scale with 15 values: Feb 27, Mar 1, Mar 11, Mar 13, Mar 15, ending with Mar 9"/>
<text text-anchor="middle" transform="translate(-92.62886474609374, 103.30266113281249) translate(35.0,10.0) translate(0.5,200.5) translate(0.0,0.0) translate(15,18)" font-family="sans-serif" font-size="10.0px" fill="#000d2a" opacity="1" class="axis-label" pointer-events="none" version="1.1" width="490" height="235" viewBox="0 0 490 235" stroke-miterlimit="10" role="graphics-symbol" aria-roledescription="axis" aria-label="X-axis for a discrete scale with 15 values: Feb 27, Mar 1, Mar 11, Mar 13, Mar 15, ending with Mar 9">27.00Feb 
</text>
<text text-anchor="middle" transform="translate(-92.62886474609374, 103.30266113281249) translate(35.0,10.0) translate(0.5,200.5) translate(0.0,0.0) translate(45,18)" font-family="sans-serif" font-size="10.0px" fill="#000d2a" opacity="1" class="axis-label" pointer-events="none" version="1.1" width="490" height="235" viewBox="0 0 490 235" stroke-miterlimit="10" role="graphics-symbol" aria-roledescription="axis" aria-label="X-axis for a discrete scale with 15 values: Feb 27, Mar 1, Mar 11, Mar 13, Mar 15, ending with Mar 9">1Mar 
</text>
<text text-anchor="middle" transform="translate(-92.62886474609374, 103.30266113281249) translate(35.0,10.0) translate(0.5,200.5) translate(0.0,0.0) translate(75,18)" font-family="sans-serif" font-size="10.0px" fill="#000d2a" opacity="1" class="axis-label" pointer-events="none" version="1.1" width="490" height="235" viewBox="0 0 490 235" stroke-miterlimit="10" role="graphics-symbol" aria-roledescription="axis" aria-label="X-axis for a discrete scale with 15 values: Feb 27, Mar 1, Mar 11, Mar 13, Mar 15, ending with Mar 9">11.00Mar 
</text>
<text text-anchor="middle" transform="translate(-92.62886474609374, 103.30266113281249) translate(35.0,10.0) translate(0.5,200.5) translate(0.0,0.0) translate(105,18)" font-family="sans-serif" font-size="10.0px" fill="#000d2a" opacity="1" class="axis-label" pointer-events="none" version="1.1" width="490" height="235" viewBox="0 0 490 235" stroke-miterlimit="10" role="graphics-symbol" aria-roledescription="axis" aria-label="X-axis for a discrete scale with 15 values: Feb 27, Mar 1, Mar 11, Mar 13, Mar 15, ending with Mar 9">13.00Mar 
</text>
<text text-anchor="middle" transform="translate(-92.62886474609374, 103.30266113281249) translate(35.0,10.0) translate(0.5,200.5) translate(0.0,0.0) translate(135,18)" font-family="sans-serif" font-size="10.0px" fill="#000d2a" opacity="1" class="axis-label" pointer-events="none" version="1.1" width="490" height="235" viewBox="0 0 490 235" stroke-miterlimit="10" role="graphics-symbol" aria-roledescription="axis" aria-label="X-axis for a discrete scale with 15 values: Feb 27, Mar 1, Mar 11, Mar 13, Mar 15, ending with Mar 9">15.00Mar 
</text>
<text text-anchor="middle" transform="translate(-92.62886474609374, 103.30266113281249) translate(35.0,10.0) translate(0.5,200.5) translate(0.0,0.0) translate(165,18)" font-family="sans-serif" font-size="10.0px" fill="#000d2a" opacity="1" class="axis-label" pointer-events="none" version="1.1" width="490" height="235" viewBox="0 0 490 235" stroke-miterlimit="10" role="graphics-symbol" aria-roledescription="axis" aria-label="X-axis for a discrete scale with 15 values: Feb 27, Mar 1, Mar 11, Mar 13, Mar 15, ending with Mar 9">17.00Mar 
</text>
<text text-anchor="middle" transform="translate(-92.62886474609374, 103.30266113281249) translate(35.0,10.0) translate(0.5,200.5) translate(0.0,0.0) translate(195,18)" font-family="sans-serif" font-size="10.0px" fill="#000d2a" opacity="1" class="axis-label" pointer-events="none" version="1.1" width="490" height="235" viewBox="0 0 490 235" stroke-miterlimit="10" role="graphics-symbol" aria-roledescription="axis" aria-label="X-axis for a discrete scale with 15 values: Feb 27, Mar 1, Mar 11, Mar 13, Mar 15, ending with Mar 9">19.00Mar 
</text>
<text text-anchor="middle" transform="translate(-92.62886474609374, 103.30266113281249) translate(35.0,10.0) translate(0.5,200.5) translate(0.0,0.0) translate(225,18)" font-family="sans-serif" font-size="10.0px" fill="#000d2a" opacity="1" class="axis-label" pointer-events="none" version="1.1" width="490" height="235" viewBox="0 0 490 235" stroke-miterlimit="10" role="graphics-symbol" aria-roledescription="axis" aria-label="X-axis for a discrete scale with 15 values: Feb 27, Mar 1, Mar 11, Mar 13, Mar 15, ending with Mar 9">21.00Mar 
</text>
<text text-anchor="middle" transform="translate(-92.62886474609374, 103.30266113281249) translate(35.0,10.0) translate(0.5,200.5) translate(0.0,0.0) translate(255,18)" font-family="sans-serif" font-size="10.0px" fill="#000d2a" opacity="1" class="axis-label" pointer-events="none" version="1.1" width="490" height="235" viewBox="0 0 490 235" stroke-miterlimit="10" role="graphics-symbol" aria-roledescription="axis" aria-label="X-axis for a discrete scale with 15 values: Feb 27, Mar 1, Mar 11, Mar 13, Mar 15, ending with Mar 9">23.00Mar 
</text>
<text text-anchor="middle" transform="translate(-92.62886474609374, 103.30266113281249) translate(35.0,10.0) translate(0.5,200.5) translate(0.0,0.0) translate(285,18)" font-family="sans-serif" font-size="10.0px" fill="#000d2a" opacity="1" class="axis-label" pointer-events="none" version="1.1" width="490" height="235" viewBox="0 0 490 235" stroke-miterlimit="10" role="graphics-symbol" aria-roledescription="axis" aria-label="X-axis for a discrete scale with 15 values: Feb 27, Mar 1, Mar 11, Mar 13, Mar 15, ending with Mar 9">25.00Mar 
</text>
<text text-anchor="middle" transform="translate(-92.62886474609374, 103.30266113281249) translate(35.0,10.0) translate(0.5,200.5) translate(0.0,0.0) translate(315,18)" font-family="sans-serif" font-size="10.0px" fill="#000d2a" opacity="1" class="axis-label" pointer-events="none" version="1.1" width="490" height="235" viewBox="0 0 490 235" stroke-miterlimit="10" role="graphics-symbol" aria-roledescription="axis" aria-label="X-axis for a discrete scale with 15 values: Feb 27, Mar 1, Mar 11, Mar 13, Mar 15, ending with Mar 9">27.00Mar 
</text>
<text text-anchor="middle" transform="translate(-92.62886474609374, 103.30266113281249) translate(35.0,10.0) translate(0.5,200.5) translate(0.0,0.0) translate(345,18)" font-family="sans-serif" font-size="10.0px" fill="#000d2a" opacity="1" class="axis-label" pointer-events="none" version="1.1" width="490" height="235" viewBox="0 0 490 235" stroke-miterlimit="10" role="graphics-symbol" aria-roledescription="axis" aria-label="X-axis for a discrete scale with 15 values: Feb 27, Mar 1, Mar 11, Mar 13, Mar 15, ending with Mar 9">3Mar 
</text>
<text text-anchor="middle" transform="translate(-92.62886474609374, 103.30266113281249) translate(35.0,10.0) translate(0.5,200.5) translate(0.0,0.0) translate(375,18)" font-family="sans-serif" font-size="10.0px" fill="#000d2a" opacity="1" class="axis-label" pointer-events="none" version="1.1" width="490" height="235" viewBox="0 0 490 235" stroke-miterlimit="10" role="graphics-symbol" aria-roledescription="axis" aria-label="X-axis for a discrete scale with 15 values: Feb 27, Mar 1, Mar 11, Mar 13, Mar 15, ending with Mar 9">5Mar 
</text>
<text text-anchor="middle" transform="translate(-92.62886474609374, 103.30266113281249) translate(35.0,10.0) translate(0.5,200.5) translate(0.0,0.0) translate(405,18)" font-family="sans-serif" font-size="10.0px" fill="#000d2a" opacity="1" class="axis-label" pointer-events="none" version="1.1" width="490" height="235" viewBox="0 0 490 235" stroke-miterlimit="10" role="graphics-symbol" aria-roledescription="axis" aria-label="X-axis for a discrete scale with 15 values: Feb 27, Mar 1, Mar 11, Mar 13, Mar 15, ending with Mar 9">7Mar 
</text>
<text text-anchor="middle" transform="translate(-92.62886474609374, 103.30266113281249) translate(35.0,10.0) translate(0.5,200.5) translate(0.0,0.0) translate(435,18)" font-family="sans-serif" font-size="10.0px" fill="#000d2a" opacity="1" class="axis-label" pointer-events="none" version="1.1" width="490" height="235" viewBox="0 0 490 235" stroke-miterlimit="10" role="graphics-symbol" aria-roledescription="axis" aria-label="X-axis for a discrete scale with 15 values: Feb 27, Mar 1, Mar 11, Mar 13, Mar 15, ending with Mar 9">9Mar 
</text>
<line transform="translate(-92.62886474609374, 103.30266113281249) translate(35.0,10.0) translate(0.5,200.5) translate(0,0)" x2="450" y2="0" stroke="#0f223b" stroke-opacity="0" stroke-width="1" opacity="1" class="axis-domain" pointer-events="none" version="1.1" width="490" height="235" viewBox="0 0 490 235" fill="none" stroke-miterlimit="10" role="graphics-symbol" aria-roledescription="axis" aria-label="X-axis for a discrete scale with 15 values: Feb 27, Mar 1, Mar 11, Mar 13, Mar 15, ending with Mar 9"/>
<line transform="translate(-92.62886474609374, 103.30266113281249) translate(35.0,10.0) translate(0.5,0.5) translate(0,200)" x2="-5" y2="0" stroke="#0f223b" stroke-opacity="0" stroke-width="1" opacity="1" class="axis-tick" pointer-events="none" version="1.1" width="490" height="235" viewBox="0 0 490 235" fill="none" stroke-miterlimit="10" role="graphics-symbol" aria-roledescription="axis" aria-label="Y-axis for a linear scale with values from 0 to 600"/>
<line transform="translate(-92.62886474609374, 103.30266113281249) translate(35.0,10.0) translate(0.5,0.5) translate(0,167)" x2="-5" y2="0" stroke="#0f223b" stroke-opacity="0" stroke-width="1" opacity="1" class="axis-tick" pointer-events="none" version="1.1" width="490" height="235" viewBox="0 0 490 235" fill="none" stroke-miterlimit="10" role="graphics-symbol" aria-roledescription="axis" aria-label="Y-axis for a linear scale with values from 0 to 600"/>
<line transform="translate(-92.62886474609374, 103.30266113281249) translate(35.0,10.0) translate(0.5,0.5) translate(0,133)" x2="-5" y2="0" stroke="#0f223b" stroke-opacity="0" stroke-width="1" opacity="1" class="axis-tick" pointer-events="none" version="1.1" width="490" height="235" viewBox="0 0 490 235" fill="none" stroke-miterlimit="10" role="graphics-symbol" aria-roledescription="axis" aria-label="Y-axis for a linear scale with values from 0 to 600"/>
<line transform="translate(-92.62886474609374, 103.30266113281249) translate(35.0,10.0) translate(0.5,0.5) translate(0,100)" x2="-5" y2="0" stroke="#0f223b" stroke-opacity="0" stroke-width="1" opacity="1" class="axis-tick" pointer-events="none" version="1.1" width="490" height="235" viewBox="0 0 490 235" fill="none" stroke-miterlimit="10" role="graphics-symbol" aria-roledescription="axis" aria-label="Y-axis for a linear scale with values from 0 to 600"/>
<line transform="translate(-92.62886474609374, 103.30266113281249) translate(35.0,10.0) translate(0.5,0.5) translate(0,67)" x2="-5" y2="0" stroke="#0f223b" stroke-opacity="0" stroke-width="1" opacity="1" class="axis-tick" pointer-events="none" version="1.1" width="490" height="235" viewBox="0 0 490 235" fill="none" stroke-miterlimit="10" role="graphics-symbol" aria-roledescription="axis" aria-label="Y-axis for a linear scale with values from 0 to 600"/>
<line transform="translate(-92.62886474609374, 103.30266113281249) translate(35.0,10.0) translate(0.5,0.5) translate(0,33)" x2="-5" y2="0" stroke="#0f223b" stroke-opacity="0" stroke-width="1" opacity="1" class="axis-tick" pointer-events="none" version="1.1" width="490" height="235" viewBox="0 0 490 235" fill="none" stroke-miterlimit="10" role="graphics-symbol" aria-roledescription="axis" aria-label="Y-axis for a linear scale with values from 0 to 600"/>
<line transform="translate(-92.62886474609374, 103.30266113281249) translate(35.0,10.0) translate(0.5,0.5) translate(0,0)" x2="-5" y2="0" stroke="#0f223b" stroke-opacity="0" stroke-width="1" opacity="1" class="axis-tick" pointer-events="none" version="1.1" width="490" height="235" viewBox="0 0 490 235" fill="none" stroke-miterlimit="10" role="graphics-symbol" aria-roledescription="axis" aria-label="Y-axis for a linear scale with values from 0 to 600"/>
<text text-anchor="end" transform="translate(-92.62886474609374, 103.30266113281249) translate(35.0,10.0) translate(0.5,0.5) translate(-10,203)" font-family="sans-serif" font-size="10px" fill="#000d2a" opacity="1" class="axis-label" pointer-events="none" version="1.1" width="490" height="235" viewBox="0 0 490 235" stroke-miterlimit="10" role="graphics-symbol" aria-roledescription="axis" aria-label="Y-axis for a linear scale with values from 0 to 600">0
</text>
<text text-anchor="end" transform="translate(-92.62886474609374, 103.30266113281249) translate(35.0,10.0) translate(0.5,0.5) translate(-10,169.66666666666669)" font-family="sans-serif" font-size="10px" fill="#000d2a" opacity="1" class="axis-label" pointer-events="none" version="1.1" width="490" height="235" viewBox="0 0 490 235" stroke-miterlimit="10" role="graphics-symbol" aria-roledescription="axis" aria-label="Y-axis for a linear scale with values from 0 to 600">100
</text>
<text text-anchor="end" transform="translate(-92.62886474609374, 103.30266113281249) translate(35.0,10.0) translate(0.5,0.5) translate(-10,136.33333333333334)" font-family="sans-serif" font-size="10px" fill="#000d2a" opacity="1" class="axis-label" pointer-events="none" version="1.1" width="490" height="235" viewBox="0 0 490 235" stroke-miterlimit="10" role="graphics-symbol" aria-roledescription="axis" aria-label="Y-axis for a linear scale with values from 0 to 600">200
</text>
<text text-anchor="end" transform="translate(-92.62886474609374, 103.30266113281249) translate(35.0,10.0) translate(0.5,0.5) translate(-10,103)" font-family="sans-serif" font-size="10px" fill="#000d2a" opacity="1" class="axis-label" pointer-events="none" version="1.1" width="490" height="235" viewBox="0 0 490 235" stroke-miterlimit="10" role="graphics-symbol" aria-roledescription="axis" aria-label="Y-axis for a linear scale with values from 0 to 600">300
</text>
<text text-anchor="end" transform="translate(-92.62886474609374, 103.30266113281249) translate(35.0,10.0) translate(0.5,0.5) translate(-10,69.66666666666667)" font-family="sans-serif" font-size="10px" fill="#000d2a" opacity="1" class="axis-label" pointer-events="none" version="1.1" width="490" height="235" viewBox="0 0 490 235" stroke-miterlimit="10" role="graphics-symbol" aria-roledescription="axis" aria-label="Y-axis for a linear scale with values from 0 to 600">400
</text>
<text text-anchor="end" transform="translate(-92.62886474609374, 103.30266113281249) translate(35.0,10.0) translate(0.5,0.5) translate(-10,36.33333333333333)" font-family="sans-serif" font-size="10px" fill="#000d2a" opacity="1" class="axis-label" pointer-events="none" version="1.1" width="490" height="235" viewBox="0 0 490 235" stroke-miterlimit="10" role="graphics-symbol" aria-roledescription="axis" aria-label="Y-axis for a linear scale with values from 0 to 600">500
</text>
<text text-anchor="end" transform="translate(-92.62886474609374, 103.30266113281249) translate(35.0,10.0) translate(0.5,0.5) translate(-10,3)" font-family="sans-serif" font-size="10px" fill="#000d2a" opacity="1" class="axis-label" pointer-events="none" version="1.1" width="490" height="235" viewBox="0 0 490 235" stroke-miterlimit="10" role="graphics-symbol" aria-roledescription="axis" aria-label="Y-axis for a linear scale with values from 0 to 600">600
</text>
<line transform="translate(-92.62886474609374, 103.30266113281249) translate(35.0,10.0) translate(0.5,0.5) translate(0,200)" x2="0" y2="-200" stroke="#0f223b" stroke-opacity="0" stroke-width="1" opacity="1" class="axis-domain" pointer-events="none" version="1.1" width="490" height="235" viewBox="0 0 490 235" fill="none" stroke-miterlimit="10" role="graphics-symbol" aria-roledescription="axis" aria-label="Y-axis for a linear scale with values from 0 to 600"/>
<path aria-label="Date: Feb 27; Market Capitalization (Billion USD): 573.4" role="graphics-symbol" aria-roledescription="line mark" d="M15,8.867L30,8.867L30,10.133L60,10.133L60,5.733L90,5.733L90,5.467L120,5.467L120,5.167L150,5.167L150,3.6L180,3.6L180,4.667L210,4.667L210,7.933L240,7.933L240,10.333L270,10.333L270,12.3L300,12.3L300,11.133L330,11.133L330,9.133L360,9.133L360,9.167L390,9.167L390,9.067L420,9.067L420,7L435,7" stroke="#4c78a8" stroke-width="2" opacity="1" class="line" version="1.1" width="490" height="235" viewBox="0 0 490 235" fill="none" stroke-miterlimit="10" transform="translate(-92.62886474609374, 103.30266113281249) translate(35.0,10.0)"/></g></svg>