<svg version="1.1" class="marks" width="472.86376953125" height="335.07421875" viewBox="0 0 572.86376953125 435.07421875" xmlns="http://www.w3.org/2000/svg" xmlns:xlink="http://www.w3.org/1999/xlink"><rect width="100%" height="100%" fill="#ffffff"/>
<g transform="translate(105.89351318359374, 51.171948242187504)"><rect x="0" y="0" width="15" height="150" fill="None" transform="scale(0.6094130859375)"/>
<text class="chart-title-line" x="0" y="0" text-anchor="start" font-family="sans-serif" font-size="24" font-weight="700" fill="#0f2740" letter-spacing="0" transform="translate(19.1411962890625, 20.953051757812496)">Von der Leyen Unlikely to
</text>
<text class="chart-title-line" x="0" y="0" text-anchor="start" font-family="sans-serif" font-size="24" font-weight="700" fill="#0f2740" letter-spacing="0" transform="translate(19.1411962890625, 20.953051757812496) translate(0.0, 27.1640625)"> Be Missed in German Politics
</text>
<text class="chart-subtitle-line" x="0" y="0" text-anchor="start" font-family="sans-serif" font-size="13" font-weight="400" fill="#445f7c" letter-spacing="0.25" transform="translate(19.1411962890625, 20.953051757812496) translate(0.0, 54.1875)">Share of Germans saying they are satisfied with the work of
</text>
<text class="chart-subtitle-line" x="0" y="0" text-anchor="start" font-family="sans-serif" font-size="13" font-weight="400" fill="#445f7c" letter-spacing="0.25" transform="translate(19.1411962890625, 20.953051757812496) translate(0.0, 54.1875) translate(0.0, 14.7138671875)">Ursula von der Leyen
</text>
<line transform="translate(-63.27046630859374, 103.30266113281249) translate(28.0,10.0) translate(0.5,200.5) translate(15,0)" x2="0" y2="5" stroke="#0f223b" stroke-opacity="0" stroke-width="1" opacity="1" class="axis-tick" pointer-events="none" version="1.1" width="492" height="235" viewBox="0 0 492 235" fill="none" stroke-miterlimit="10" role="graphics-symbol" aria-roledescription="axis" aria-label="X-axis for a discrete scale with 15 values: Apr 2018, Apr 2019, Aug 2018, Dec 2018, Feb 2019, ending with Sep 2018"/>
<line transform="translate(-63.27046630859374, 103.30266113281249) translate(28.0,10.0) translate(0.5,200.5) translate(45,0)" x2="0" y2="5" stroke="#0f223b" stroke-opacity="0" stroke-width="1" opacity="1" class="axis-tick" pointer-events="none" version="1.1" width="492" height="235" viewBox="0 0 492 235" fill="none" stroke-miterlimit="10" role="graphics-symbol" aria-roledescription="axis" aria-label="X-axis for a discrete scale with 15 values: Apr 2018, Apr 2019, Aug 2018, Dec 2018, Feb 2019, ending with Sep 2018"/>
<line transform="translate(-63.27046630859374, 103.30266113281249) translate(28.0,10.0) translate(0.5,200.5) translate(75,0)" x2="0" y2="5" stroke="#0f223b" stroke-opacity="0" stroke-width="1" opacity="1" class="axis-tick" pointer-events="none" version="1.1" width="492" height="235" viewBox="0 0 492 235" fill="none" stroke-miterlimit="10" role="graphics-symbol" aria-roledescription="axis" aria-label="X-axis for a discrete scale with 15 values: Apr 2018, Apr 2019, Aug 2018, Dec 2018, Feb 2019, ending with Sep 2018"/>
<line transform="translate(-63.27046630859374, 103.30266113281249) translate(28.0,10.0) translate(0.5,200.5) translate(105,0)" x2="0" y2="5" stroke="#0f223b" stroke-opacity="0" stroke-width="1" opacity="1" class="axis-tick" pointer-events="none" version="1.1" width="492" height="235" viewBox="0 0 492 235" fill="none" stroke-miterlimit="10" role="graphics-symbol" aria-roledescription="axis" aria-label="X-axis for a discrete scale with 15 values: Apr 2018, Apr 2019, Aug 2018, Dec 2018, Feb 2019, ending with Sep 2018"/>
<line transform="translate(-63.27046630859374, 103.30266113281249) translate(28.0,10.0) translate(0.5,200.5) translate(135,0)" x2="0" y2="5" stroke="#0f223b" stroke-opacity="0" stroke-width="1" opacity="1" class="axis-tick" pointer-events="none" version="1.1" width="492" height="235" viewBox="0 0 492 235" fill="none" stroke-miterlimit="10" role="graphics-symbol" aria-roledescription="axis" aria-label="X-axis for a discrete scale with 15 values: Apr 2018, Apr 2019, Aug 2018, Dec 2018, Feb 2019, ending with Sep 2018"/>
<line transform="translate(-63.27046630859374, 103.30266113281249) translate(28.0,10.0) translate(0.5,200.5) translate(165,0)" x2="0" y2="5" stroke="#0f223b" stroke-opacity="0" stroke-width="1" opacity="1" class="axis-tick" pointer-events="none" version="1.1" width="492" height="235" viewBox="0 0 492 235" fill="none" stroke-miterlimit="10" role="graphics-symbol" aria-roledescription="axis" aria-label="X-axis for a discrete scale with 15 values: Apr 2018, Apr 2019, Aug 2018, Dec 2018, Feb 2019, ending with Sep 2018"/>
<line transform="translate(-63.27046630859374, 103.30266113281249) translate(28.0,10.0) translate(0.5,200.5) translate(195,0)" x2="0" y2="5" stroke="#0f223b" stroke-opacity="0" stroke-width="1" opacity="1" class="axis-tick" pointer-events="none" version="1.1" width="492" height="235" viewBox="0 0 492 235" fill="none" stroke-miterlimit="10" role="graphics-symbol" aria-roledescription="axis" aria-label="X-axis for a discrete scale with 15 values: Apr 2018, Apr 2019, Aug 2018, Dec 2018, Feb 2019, ending with Sep 2018"/>
<line transform="translate(-63.27046630859374, 103.30266113281249) translate(28.0,10.0) translate(0.5,200.5) translate(225,0)" x2="0" y2="5" stroke="#0f223b" stroke-opacity="0" stroke-width="1" opacity="1" class="axis-tick" pointer-events="none" version="1.1" width="492" height="235" viewBox="0 0 492 235" fill="none" stroke-miterlimit="10" role="graphics-symbol" aria-roledescription="axis" aria-label="X-axis for a discrete scale with 15 values: Apr 2018, Apr 2019, Aug 2018, Dec 2018, Feb 2019, ending with Sep 2018"/>
<line transform="translate(-63.27046630859374, 103.30266113281249) translate(28.0,10.0) translate(0.5,200.5) translate(255,0)" x2="0" y2="5" stroke="#0f223b" stroke-opacity="0" stroke-width="1" opacity="1" class="axis-tick" pointer-events="none" version="1.1" width="492" height="235" viewBox="0 0 492 235" fill="none" stroke-miterlimit="10" role="graphics-symbol" aria-roledescription="axis" aria-label="X-axis for a discrete scale with 15 values: Apr 2018, Apr 2019, Aug 2018, Dec 2018, Feb 2019, ending with Sep 2018"/>
<line transform="translate(-63.27046630859374, 103.30266113281249) translate(28.0,10.0) translate(0.5,200.5) translate(285,0)" x2="0" y2="5" stroke="#0f223b" stroke-opacity="0" stroke-width="1" opacity="1" class="axis-tick" pointer-events="none" version="1.1" width="492" height="235" viewBox="0 0 492 235" fill="none" stroke-miterlimit="10" role="graphics-symbol" aria-roledescription="axis" aria-label="X-axis for a discrete scale with 15 values: Apr 2018, Apr 2019, Aug 2018, Dec 2018, Feb 2019, ending with Sep 2018"/>
<line transform="translate(-63.27046630859374, 103.30266113281249) translate(28.0,10.0) translate(0.5,200.5) translate(315,0)" x2="0" y2="5" stroke="#0f223b" stroke-opacity="0" stroke-width="1" opacity="1" class="axis-tick" pointer-events="none" version="1.1" width="492" height="235" viewBox="0 0 492 235" fill="none" stroke-miterlimit="10" role="graphics-symbol" aria-roledescription="axis" aria-label="X-axis for a discrete scale with 15 values: Apr 2018, Apr 2019, Aug 2018, Dec 2018, Feb 2019, ending with Sep 2018"/>
<line transform="translate(-63.27046630859374, 103.30266113281249) translate(28.0,10.0) translate(0.5,200.5) translate(345,0)" x2="0" y2="5" stroke="#0f223b" stroke-opacity="0" stroke-width="1" opacity="1" class="axis-tick" pointer-events="none" version="1.1" width="492" height="235" viewBox="0 0 492 235" fill="none" stroke-miterlimit="10" role="graphics-symbol" aria-roledescription="axis" aria-label="X-axis for a discrete scale with 15 values: Apr 2018, Apr 2019, Aug 2018, Dec 2018, Feb 2019, ending with Sep 2018"/>
<line transform="translate(-63.27046630859374, 103.30266113281249) translate(28.0,10.0) translate(0.5,200.5) translate(375,0)" x2="0" y2="5" stroke="#0f223b" stroke-opacity="0" stroke-width="1" opacity="1" class="axis-tick" pointer-events="none" version="1.1" width="492" height="235" viewBox="0 0 492 235" fill="none" stroke-miterlimit="10" role="graphics-symbol" aria-roledescription="axis" aria-label="X-axis for a discrete scale with 15 values: Apr 2018, Apr 2019, Aug 2018, Dec 2018, Feb 2019, ending with Sep 2018"/>
<line transform="translate(-63.27046630859374, 103.30266113281249) translate(28.0,10.0) translate(0.5,200.5) translate(405,0)" x2="0" y2="5" stroke="#0f223b" stroke-opacity="0" stroke-width="1" opacity="1" class="axis-tick" pointer-events="none" version="1.1" width="492" height="235" viewBox="0 0 492 235" fill="none" stroke-miterlimit="10" role="graphics-symbol" aria-roledescription="axis" aria-label="X-axis for a discrete scale with 15 values: Apr 2018, Apr 2019, Aug 2018, Dec 2018, Feb 2019, ending with Sep 2018"/>
<line transform="translate(-63.27046630859374, 103.30266113281249) translate(28.0,10.0) translate(0.5,200.5) translate(435,0)" x2="0" y2="5" stroke="#0f223b" stroke-opacity="0" stroke-width="1" opacity="1" class="axis-tick" pointer-events="none" version="1.1" width="492" height="235" viewBox="0 0 492 235" fill="none" stroke-miterlimit="10" role="graphics-symbol" aria-roledescription="axis" aria-label="X-axis for a discrete scale with 15 values: Apr 2018, Apr 2019, Aug 2018, Dec 2018, Feb 2019, ending with Sep 2018"/>
<text text-anchor="middle" transform="translate(-63.27046630859374, 103.30266113281249) translate(28.0,10.0) translate(0.5,200.5) translate(0.0,0.0) translate(15,18)" font-family="sans-serif" font-size="10.0px" fill="#000d2a" opacity="1" class="axis-label" pointer-events="none" version="1.1" width="492" height="235" viewBox="0 0 492 235" stroke-miterlimit="10" role="graphics-symbol" aria-roledescription="axis" aria-label="X-axis for a discrete scale with 15 values: Apr 2018, Apr 2019, Aug 2018, Dec 2018, Feb 2019, ending with Sep 2018">'18Apr 
</text>
<text text-anchor="middle" transform="translate(-63.27046630859374, 103.30266113281249) translate(28.0,10.0) translate(0.5,200.5) translate(0.0,0.0) translate(45,18)" font-family="sans-serif" font-size="10.0px" fill="#000d2a" opacity="1" class="axis-label" pointer-events="none" version="1.1" width="492" height="235" viewBox="0 0 492 235" stroke-miterlimit="10" role="graphics-symbol" aria-roledescription="axis" aria-label="X-axis for a discrete scale with 15 values: Apr 2018, Apr 2019, Aug 2018, Dec 2018, Feb 2019, ending with Sep 2018">'19Apr 
</text>
<text text-anchor="middle" transform="translate(-63.27046630859374, 103.30266113281249) translate(28.0,10.0) translate(0.5,200.5) translate(0.0,0.0) translate(75,18)" font-family="sans-serif" font-size="10.0px" fill="#000d2a" opacity="1" class="axis-label" pointer-events="none" version="1.1" width="492" height="235" viewBox="0 0 492 235" stroke-miterlimit="10" role="graphics-symbol" aria-roledescription="axis" aria-label="X-axis for a discrete scale with 15 values: Apr 2018, Apr 2019, Aug 2018, Dec 2018, Feb 2019, ending with Sep 2018">'18Aug 
</text>
<text text-anchor="middle" transform="translate(-63.27046630859374, 103.30266113281249) translate(28.0,10.0) translate(0.5,200.5) translate(0.0,0.0) translate(105,18)" font-family="sans-serif" font-size="10.0px" fill="#000d2a" opacity="1" class="axis-label" pointer-events="none" version="1.1" width="492" height="235" viewBox="0 0 492 235" stroke-miterlimit="10" role="graphics-symbol" aria-roledescription="axis" aria-label="X-axis for a discrete scale with 15 values: Apr 2018, Apr 2019, Aug 2018, Dec 2018, Feb 2019, ending with Sep 2018">'18Dec 
</text>
<text text-anchor="middle" transform="translate(-63.27046630859374, 103.30266113281249) translate(28.0,10.0) translate(0.5,200.5) translate(0.0,0.0) translate(135,18)" font-family="sans-serif" font-size="10.0px" fill="#000d2a" opacity="1" class="axis-label" pointer-events="none" version="1.1" width="492" height="235" viewBox="0 0 492 235" stroke-miterlimit="10" role="graphics-symbol" aria-roledescription="axis" aria-label="X-axis for a discrete scale with 15 values: Apr 2018, Apr 2019, Aug 2018, Dec 2018, Feb 2019, ending with Sep 2018">'19Feb 
</text>
<text text-anchor="middle" transform="translate(-63.27046630859374, 103.30266113281249) translate(28.0,10.0) translate(0.5,200.5) translate(0.0,0.0) translate(165,18)" font-family="sans-serif" font-size="10.0px" fill="#000d2a" opacity="1" class="axis-label" pointer-events="none" version="1.1" width="492" height="235" viewBox="0 0 492 235" stroke-miterlimit="10" role="graphics-symbol" aria-roledescription="axis" aria-label="X-axis for a discrete scale with 15 values: Apr 2018, Apr 2019, Aug 2018, Dec 2018, Feb 2019, ending with Sep 2018">'19Jan 
</text>
<text text-anchor="middle" transform="translate(-63.27046630859374, 103.30266113281249) translate(28.0,10.0) translate(0.5,200.5) translate(0.0,0.0) translate(195,18)" font-family="sans-serif" font-size="10.0px" fill="#000d2a" opacity="1" class="axis-label" pointer-events="none" version="1.1" width="492" height="235" viewBox="0 0 492 235" stroke-miterlimit="10" role="graphics-symbol" aria-roledescription="axis" aria-label="X-axis for a discrete scale with 15 values: Apr 2018, Apr 2019, Aug 2018, Dec 2018, Feb 2019, ending with Sep 2018">'18Jul 
</text>
<text text-anchor="middle" transform="translate(-63.27046630859374, 103.30266113281249) translate(28.0,10.0) translate(0.5,200.5) translate(0.0,0.0) translate(225,18)" font-family="sans-serif" font-size="10.0px" fill="#000d2a" opacity="1" class="axis-label" pointer-events="none" version="1.1" width="492" height="235" viewBox="0 0 492 235" stroke-miterlimit="10" role="graphics-symbol" aria-roledescription="axis" aria-label="X-axis for a discrete scale with 15 values: Apr 2018, Apr 2019, Aug 2018, Dec 2018, Feb 2019, ending with Sep 2018">'18Jun 
</text>
<text text-anchor="middle" transform="translate(-63.27046630859374, 103.30266113281249) translate(28.0,10.0) translate(0.5,200.5) translate(0.0,0.0) translate(255,18)" font-family="sans-serif" font-size="10.0px" fill="#000d2a" opacity="1" class="axis-label" pointer-events="none" version="1.1" width="492" height="235" viewBox="0 0 492 235" stroke-miterlimit="10" role="graphics-symbol" aria-roledescription="axis" aria-label="X-axis for a discrete scale with 15 values: Apr 2018, Apr 2019, Aug 2018, Dec 2018, Feb 2019, ending with Sep 2018">'18Mar 
</text>
<text text-anchor="middle" transform="translate(-63.27046630859374, 103.30266113281249) translate(28.0,10.0) translate(0.5,200.5) translate(0.0,0.0) translate(285,18)" font-family="sans-serif" font-size="10.0px" fill="#000d2a" opacity="1" class="axis-label" pointer-events="none" version="1.1" width="492" height="235" viewBox="0 0 492 235" stroke-miterlimit="10" role="graphics-symbol" aria-roledescription="axis" aria-label="X-axis for a discrete scale with 15 values: Apr 2018, Apr 2019, Aug 2018, Dec 2018, Feb 2019, ending with Sep 2018">'19Mar 
</text>
<text text-anchor="middle" transform="translate(-63.27046630859374, 103.30266113281249) translate(28.0,10.0) translate(0.5,200.5) translate(0.0,0.0) translate(315,18)" font-family="sans-serif" font-size="10.0px" fill="#000d2a" opacity="1" class="axis-label" pointer-events="none" version="1.1" width="492" height="235" viewBox="0 0 492 235" stroke-miterlimit="10" role="graphics-symbol" aria-roledescription="axis" aria-label="X-axis for a discrete scale with 15 values: Apr 2018, Apr 2019, Aug 2018, Dec 2018, Feb 2019, ending with Sep 2018">'18May 
</text>
<text text-anchor="middle" transform="translate(-63.27046630859374, 103.30266113281249) translate(28.0,10.0) translate(0.5,200.5) translate(0.0,0.0) translate(345,18)" font-family="sans-serif" font-size="10.0px" fill="#000d2a" opacity="1" class="axis-label" pointer-events="none" version="1.1" width="492" height="235" viewBox="0 0 492 235" stroke-miterlimit="10" role="graphics-symbol" aria-roledescription="axis" aria-label="X-axis for a discrete scale with 15 values: Apr 2018, Apr 2019, Aug 2018, Dec 2018, Feb 2019, ending with Sep 2018">'19May 
</text>
<text text-anchor="middle" transform="translate(-63.27046630859374, 103.30266113281249) translate(28.0,10.0) translate(0.5,200.5) translate(0.0,0.0) translate(375,18)" font-family="sans-serif" font-size="10.0px" fill="#000d2a" opacity="1" class="axis-label" pointer-events="none" version="1.1" width="492" height="235" viewBox="0 0 492 235" stroke-miterlimit="10" role="graphics-symbol" aria-roledescription="axis" aria-label="X-axis for a discrete scale with 15 values: Apr 2018, Apr 2019, Aug 2018, Dec 2018, Feb 2019, ending with Sep 2018">'18Nov 
</text>
<text text-anchor="middle" transform="translate(-63.27046630859374, 103.30266113281249) translate(28.0,10.0) translate(0.5,200.5) translate(0.0,0.0) translate(405,18)" font-family="sans-serif" font-size="10.0px" fill="#000d2a" opacity="1" class="axis-label" pointer-events="none" version="1.1" width="492" height="235" viewBox="0 0 492 235" stroke-miterlimit="10" role="graphics-symbol" aria-roledescription="axis" aria-label="X-axis for a discrete scale with 15 values: Apr 2018, Apr 2019, Aug 2018, Dec 2018, Feb 2019, ending with Sep 2018">'18Oct 
</text>
<text text-anchor="middle" transform="translate(-63.27046630859374, 103.30266113281249) translate(28.0,10.0) translate(0.5,200.5) translate(0.0,0.0) translate(435,18)" font-family="sans-serif" font-size="10.0px" fill="#000d2a" opacity="1" class="axis-label" pointer-events="none" version="1.1" width="492" height="235" viewBox="0 0 492 235" stroke-miterlimit="10" role="graphics-symbol" aria-roledescription="axis" aria-label="X-axis for a discrete scale with 15 values: Apr 2018, Apr 2019, Aug 2018, Dec 2018, Feb 2019, ending with Sep 2018">'18Sep 
</text>
<line transform="translate(-63.27046630859374, 103.30266113281249) translate(28.0,10.0) translate(0.5,200.5) translate(0,0)" x2="450" y2="0" stroke="#0f223b" stroke-opacity="0" stroke-width="1" opacity="1" class="axis-domain" pointer-events="none" version="1.1" width="492" height="235" viewBox="0 0 492 235" fill="none" stroke-miterlimit="10" role="graphics-symbol" aria-roledescription="axis" aria-label="X-axis for a discrete scale with 15 values: Apr 2018, Apr 2019, Aug 2018, Dec 2018, Feb 2019, ending with Sep 2018"/>
<line transform="translate(-63.27046630859374, 103.30266113281249) translate(28.0,10.0) translate(0.5,0.5) translate(0,200)" x2="-5" y2="0" stroke="#0f223b" stroke-opacity="0" stroke-width="1" opacity="1" class="axis-tick" pointer-events="none" version="1.1" width="492" height="235" viewBox="0 0 492 235" fill="none" stroke-miterlimit="10" role="graphics-symbol" aria-roledescription="axis" aria-label="Y-axis for a linear scale with values from 0 to 40"/>
<line transform="translate(-63.27046630859374, 103.30266113281249) translate(28.0,10.0) translate(0.5,0.5) translate(0,150)" x2="-5" y2="0" stroke="#0f223b" stroke-opacity="0" stroke-width="1" opacity="1" class="axis-tick" pointer-events="none" version="1.1" width="492" height="235" viewBox="0 0 492 235" fill="none" stroke-miterlimit="10" role="graphics-symbol" aria-roledescription="axis" aria-label="Y-axis for a linear scale with values from 0 to 40"/>
<line transform="translate(-63.27046630859374, 103.30266113281249) translate(28.0,10.0) translate(0.5,0.5) translate(0,100)" x2="-5" y2="0" stroke="#0f223b" stroke-opacity="0" stroke-width="1" opacity="1" class="axis-tick" pointer-events="none" version="1.1" width="492" height="235" viewBox="0 0 492 235" fill="none" stroke-miterlimit="10" role="graphics-symbol" aria-roledescription="axis" aria-label="Y-axis for a linear scale with values from 0 to 40"/>
<line transform="translate(-63.27046630859374, 103.30266113281249) translate(28.0,10.0) translate(0.5,0.5) translate(0,50)" x2="-5" y2="0" stroke="#0f223b" stroke-opacity="0" stroke-width="1" opacity="1" class="axis-tick" pointer-events="none" version="1.1" width="492" height="235" viewBox="0 0 492 235" fill="none" stroke-miterlimit="10" role="graphics-symbol" aria-roledescription="axis" aria-label="Y-axis for a linear scale with values from 0 to 40"/>
<line transform="translate(-63.27046630859374, 103.30266113281249) translate(28.0,10.0) translate(0.5,0.5) translate(0,0)" x2="-5" y2="0" stroke="#0f223b" stroke-opacity="0" stroke-width="1" opacity="1" class="axis-tick" pointer-events="none" version="1.1" width="492" height="235" viewBox="0 0 492 235" fill="none" stroke-miterlimit="10" role="graphics-symbol" aria-roledescription="axis" aria-label="Y-axis for a linear scale with values from 0 to 40"/>
<text text-anchor="end" transform="translate(-63.27046630859374, 103.30266113281249) translate(28.0,10.0) translate(0.5,0.5) translate(-10,203)" font-family="sans-serif" font-size="10px" fill="#000d2a" opacity="1" class="axis-label" pointer-events="none" version="1.1" width="492" height="235" viewBox="0 0 492 235" stroke-miterlimit="10" role="graphics-symbol" aria-roledescription="axis" aria-label="Y-axis for a linear scale with values from 0 to 40">0
</text>
<text text-anchor="end" transform="translate(-63.27046630859374, 103.30266113281249) translate(28.0,10.0) translate(0.5,0.5) translate(-10,153)" font-family="sans-serif" font-size="10px" fill="#000d2a" opacity="1" class="axis-label" pointer-events="none" version="1.1" width="492" height="235" viewBox="0 0 492 235" stroke-miterlimit="10" role="graphics-symbol" aria-roledescription="axis" aria-label="Y-axis for a linear scale with values from 0 to 40">10
</text>
<text text-anchor="end" transform="translate(-63.27046630859374, 103.30266113281249) translate(28.0,10.0) translate(0.5,0.5) translate(-10,103)" font-family="sans-serif" font-size="10px" fill="#000d2a" opacity="1" class="axis-label" pointer-events="none" version="1.1" width="492" height="235" viewBox="0 0 492 235" stroke-miterlimit="10" role="graphics-symbol" aria-roledescription="axis" aria-label="Y-axis for a linear scale with values from 0 to 40">20
</text>
<text text-anchor="end" transform="translate(-63.27046630859374, 103.30266113281249) translate(28.0,10.0) translate(0.5,0.5) translate(-10,53)" font-family="sans-serif" font-size="10px" fill="#000d2a" opacity="1" class="axis-label" pointer-events="none" version="1.1" width="492" height="235" viewBox="0 0 492 235" stroke-miterlimit="10" role="graphics-symbol" aria-roledescription="axis" aria-label="Y-axis for a linear scale with values from 0 to 40">30
</text>
<text text-anchor="end" transform="translate(-63.27046630859374, 103.30266113281249) translate(28.0,10.0) translate(0.5,0.5) translate(-10,3)" font-family="sans-serif" font-size="10px" fill="#000d2a" opacity="1" class="axis-label" pointer-events="none" version="1.1" width="492" height="235" viewBox="0 0 492 235" stroke-miterlimit="10" role="graphics-symbol" aria-roledescription="axis" aria-label="Y-axis for a linear scale with values from 0 to 40">40
</text>
<line transform="translate(-63.27046630859374, 103.30266113281249) translate(28.0,10.0) translate(0.5,0.5) translate(0,200)" x2="0" y2="-200" stroke="#0f223b" stroke-opacity="0" stroke-width="1" opacity="1" class="axis-domain" pointer-events="none" version="1.1" width="492" height="235" viewBox="0 0 492 235" fill="none" stroke-miterlimit="10" role="graphics-symbol" aria-roledescription="axis" aria-label="Y-axis for a linear scale with values from 0 to 40"/>
<path aria-label="Month: Apr 2018; Satisfaction: 38" role="graphics-symbol" aria-roledescription="line mark" d="M15,10L20,19.167C25,28.333,35,46.667,45,45C55,43.333,65,21.667,75,15C85,8.333,95,16.667,105,29.167C115,41.667,125,58.333,135,61.667C145,65,155,55,165,43.333C175,31.667,185,18.333,195,12.5C205,6.667,215,8.333,225,9.167C235,10,245,10,255,20.833C265,31.667,275,53.333,285,53.333C295,53.333,305,31.667,315,29.167C325,26.667,335,43.333,345,44.167C355,45,365,30,375,21.667C385,13.333,395,11.667,405,10.833C415,10,425,10,430,10L435,10" stroke="#4c78a8" stroke-width="2" opacity="1" class="line" version="1.1" width="492" height="235" viewBox="0 0 492 235" fill="none" stroke-miterlimit="10" transform="translate(-63.27046630859374, 103.30266113281249) translate(28.0,10.0)"/></g></svg>