<svg version="1.1" class="marks" width="465.5615234375" height="335.07421875" viewBox="0 0 565.5615234375 435.07421875" xmlns="http://www.w3.org/2000/svg" xmlns:xlink="http://www.w3.org/1999/xlink"><rect width="100%" height="100%" fill="#ffffff"/>
<g transform="translate(93.09541748046874, 51.171948242187504)"><rect x="0" y="0" width="15" height="150" fill="#b3e2cd" transform="scale(0.6094130859375)"/>
<text class="chart-title-line" x="0" y="0" text-anchor="start" font-family="sans-serif" font-size="24" font-weight="700" fill="#0f2740" letter-spacing="0" transform="translate(19.1411962890625, 20.953051757812496)">Americans Don't See Inflation
</text>
<text class="chart-title-line" x="0" y="0" text-anchor="start" font-family="sans-serif" font-size="24" font-weight="700" fill="#0f2740" letter-spacing="0" transform="translate(19.1411962890625, 20.953051757812496) translate(0.0, 27.1640625)">Returning to 2% Anytime Soon
</text>
<text class="chart-subtitle-line" x="0" y="0" text-anchor="start" font-family="sans-serif" font-size="13" font-weight="400" fill="#445f7c" letter-spacing="0.25" transform="translate(19.1411962890625, 20.953051757812496) translate(0.0, 54.1875)">Median expected inflation rate one year and three years ahead
</text>
<text class="chart-subtitle-line" x="0" y="0" text-anchor="start" font-family="sans-serif" font-size="13" font-weight="400" fill="#445f7c" letter-spacing="0.25" transform="translate(19.1411962890625, 20.953051757812496) translate(0.0, 54.1875) translate(0.0, 14.7138671875)">according to U.S. consumers
</text>
<line transform="translate(-50.03389404296874, 103.30266113281249) translate(22.0,10.0) translate(0.5,200.5) translate(32,0)" x2="0" y2="5" stroke="#0f223b" stroke-opacity="0" stroke-width="1" opacity="1" class="axis-tick" pointer-events="none" version="1.1" width="477" height="235" viewBox="0 0 477 235" fill="none" stroke-miterlimit="10" role="graphics-symbol" aria-roledescription="axis" aria-label="X-axis for a discrete scale with 7 values: 2018, 2019, 2020, 2021, 2022, 2023, 2024"/>
<line transform="translate(-50.03389404296874, 103.30266113281249) translate(22.0,10.0) translate(0.5,200.5) translate(96,0)" x2="0" y2="5" stroke="#0f223b" stroke-opacity="0" stroke-width="1" opacity="1" class="axis-tick" pointer-events="none" version="1.1" width="477" height="235" viewBox="0 0 477 235" fill="none" stroke-miterlimit="10" role="graphics-symbol" aria-roledescription="axis" aria-label="X-axis for a discrete scale with 7 values: 2018, 2019, 2020, 2021, 2022, 2023, 2024"/>
<line transform="translate(-50.03389404296874, 103.30266113281249) translate(22.0,10.0) translate(0.5,200.5) translate(161,0)" x2="0" y2="5" stroke="#0f223b" stroke-opacity="0" stroke-width="1" opacity="1" class="axis-tick" pointer-events="none" version="1.1" width="477" height="235" viewBox="0 0 477 235" fill="none" stroke-miterlimit="10" role="graphics-symbol" aria-roledescription="axis" aria-label="X-axis for a discrete scale with 7 values: 2018, 2019, 2020, 2021, 2022, 2023, 2024"/>
<line transform="translate(-50.03389404296874, 103.30266113281249) translate(22.0,10.0) translate(0.5,200.5) translate(225,0)" x2="0" y2="5" stroke="#0f223b" stroke-opacity="0" stroke-width="1" opacity="1" class="axis-tick" pointer-events="none" version="1.1" width="477" height="235" viewBox="0 0 477 235" fill="none" stroke-miterlimit="10" role="graphics-symbol" aria-roledescription="axis" aria-label="X-axis for a discrete scale with 7 values: 2018, 2019, 2020, 2021, 2022, 2023, 2024"/>
<line transform="translate(-50.03389404296874, 103.30266113281249) translate(22.0,10.0) translate(0.5,200.5) translate(289,0)" x2="0" y2="5" stroke="#0f223b" stroke-opacity="0" stroke-width="1" opacity="1" class="axis-tick" pointer-events="none" version="1.1" width="477" height="235" viewBox="0 0 477 235" fill="none" stroke-miterlimit="10" role="graphics-symbol" aria-roledescription="axis" aria-label="X-axis for a discrete scale with 7 values: 2018, 2019, 2020, 2021, 2022, 2023, 2024"/>
<line transform="translate(-50.03389404296874, 103.30266113281249) translate(22.0,10.0) translate(0.5,200.5) translate(354,0)" x2="0" y2="5" stroke="#0f223b" stroke-opacity="0" stroke-width="1" opacity="1" class="axis-tick" pointer-events="none" version="1.1" width="477" height="235" viewBox="0 0 477 235" fill="none" stroke-miterlimit="10" role="graphics-symbol" aria-roledescription="axis" aria-label="X-axis for a discrete scale with 7 values: 2018, 2019, 2020, 2021, 2022, 2023, 2024"/>
<line transform="translate(-50.03389404296874, 103.30266113281249) translate(22.0,10.0) translate(0.5,200.5) translate(418,0)" x2="0" y2="5" stroke="#0f223b" stroke-opacity="0" stroke-width="1" opacity="1" class="axis-tick" pointer-events="none" version="1.1" width="477" height="235" viewBox="0 0 477 235" fill="none" stroke-miterlimit="10" role="graphics-symbol" aria-roledescription="axis" aria-label="X-axis for a discrete scale with 7 values: 2018, 2019, 2020, 2021, 2022, 2023, 2024"/>
<text text-anchor="middle" transform="translate(-50.03389404296874, 103.30266113281249) translate(22.0,10.0) translate(0.5,200.5) translate(0.0,0.0) translate(32.14285714285711,18)" font-family="sans-serif" font-size="10.0px" fill="#000d2a" opacity="1" class="axis-label" pointer-events="none" version="1.1" width="477" height="235" viewBox="0 0 477 235" stroke-miterlimit="10" role="graphics-symbol" aria-roledescription="axis" aria-label="X-axis for a discrete scale with 7 values: 2018, 2019, 2020, 2021, 2022, 2023, 2024">2018
</text>
<text text-anchor="middle" transform="translate(-50.03389404296874, 103.30266113281249) translate(22.0,10.0) translate(0.5,200.5) translate(0.0,0.0) translate(96.4285714285714,18)" font-family="sans-serif" font-size="10.0px" fill="#000d2a" opacity="1" class="axis-label" pointer-events="none" version="1.1" width="477" height="235" viewBox="0 0 477 235" stroke-miterlimit="10" role="graphics-symbol" aria-roledescription="axis" aria-label="X-axis for a discrete scale with 7 values: 2018, 2019, 2020, 2021, 2022, 2023, 2024">2019
</text>
<text text-anchor="middle" transform="translate(-50.03389404296874, 103.30266113281249) translate(22.0,10.0) translate(0.5,200.5) translate(0.0,0.0) translate(160.7142857142857,18)" font-family="sans-serif" font-size="10.0px" fill="#000d2a" opacity="1" class="axis-label" pointer-events="none" version="1.1" width="477" height="235" viewBox="0 0 477 235" stroke-miterlimit="10" role="graphics-symbol" aria-roledescription="axis" aria-label="X-axis for a discrete scale with 7 values: 2018, 2019, 2020, 2021, 2022, 2023, 2024">2020
</text>
<text text-anchor="middle" transform="translate(-50.03389404296874, 103.30266113281249) translate(22.0,10.0) translate(0.5,200.5) translate(0.0,0.0) translate(225,18)" font-family="sans-serif" font-size="10.0px" fill="#000d2a" opacity="1" class="axis-label" pointer-events="none" version="1.1" width="477" height="235" viewBox="0 0 477 235" stroke-miterlimit="10" role="graphics-symbol" aria-roledescription="axis" aria-label="X-axis for a discrete scale with 7 values: 2018, 2019, 2020, 2021, 2022, 2023, 2024">2021
</text>
<text text-anchor="middle" transform="translate(-50.03389404296874, 103.30266113281249) translate(22.0,10.0) translate(0.5,200.5) translate(0.0,0.0) translate(289.2857142857143,18)" font-family="sans-serif" font-size="10.0px" fill="#000d2a" opacity="1" class="axis-label" pointer-events="none" version="1.1" width="477" height="235" viewBox="0 0 477 235" stroke-miterlimit="10" role="graphics-symbol" aria-roledescription="axis" aria-label="X-axis for a discrete scale with 7 values: 2018, 2019, 2020, 2021, 2022, 2023, 2024">2022
</text>
<text text-anchor="middle" transform="translate(-50.03389404296874, 103.30266113281249) translate(22.0,10.0) translate(0.5,200.5) translate(0.0,0.0) translate(353.57142857142856,18)" font-family="sans-serif" font-size="10.0px" fill="#000d2a" opacity="1" class="axis-label" pointer-events="none" version="1.1" width="477" height="235" viewBox="0 0 477 235" stroke-miterlimit="10" role="graphics-symbol" aria-roledescription="axis" aria-label="X-axis for a discrete scale with 7 values: 2018, 2019, 2020, 2021, 2022, 2023, 2024">2023
</text>
<text text-anchor="middle" transform="translate(-50.03389404296874, 103.30266113281249) translate(22.0,10.0) translate(0.5,200.5) translate(0.0,0.0) translate(417.8571428571429,18)" font-family="sans-serif" font-size="10.0px" fill="#000d2a" opacity="1" class="axis-label" pointer-events="none" version="1.1" width="477" height="235" viewBox="0 0 477 235" stroke-miterlimit="10" role="graphics-symbol" aria-roledescription="axis" aria-label="X-axis for a discrete scale with 7 values: 2018, 2019, 2020, 2021, 2022, 2023, 2024">2024
</text>
<line transform="translate(-50.03389404296874, 103.30266113281249) translate(22.0,10.0) translate(0.5,200.5) translate(0,0)" x2="450" y2="0" stroke="#0f223b" stroke-opacity="0" stroke-width="1" opacity="1" class="axis-domain" pointer-events="none" version="1.1" width="477" height="235" viewBox="0 0 477 235" fill="none" stroke-miterlimit="10" role="graphics-symbol" aria-roledescription="axis" aria-label="X-axis for a discrete scale with 7 values: 2018, 2019, 2020, 2021, 2022, 2023, 2024"/>
<line transform="translate(-50.03389404296874, 103.30266113281249) translate(22.0,10.0) translate(0.5,0.5) translate(0,200)" x2="-5" y2="0" stroke="#0f223b" stroke-opacity="0" stroke-width="1" opacity="1" class="axis-tick" pointer-events="none" version="1.1" width="477" height="235" viewBox="0 0 477 235" fill="none" stroke-miterlimit="10" role="graphics-symbol" aria-roledescription="axis" aria-label="Y-axis for a linear scale with values from 0 to 6"/>
<line transform="translate(-50.03389404296874, 103.30266113281249) translate(22.0,10.0) translate(0.5,0.5) translate(0,167)" x2="-5" y2="0" stroke="#0f223b" stroke-opacity="0" stroke-width="1" opacity="1" class="axis-tick" pointer-events="none" version="1.1" width="477" height="235" viewBox="0 0 477 235" fill="none" stroke-miterlimit="10" role="graphics-symbol" aria-roledescription="axis" aria-label="Y-axis for a linear scale with values from 0 to 6"/>
<line transform="translate(-50.03389404296874, 103.30266113281249) translate(22.0,10.0) translate(0.5,0.5) translate(0,133)" x2="-5" y2="0" stroke="#0f223b" stroke-opacity="0" stroke-width="1" opacity="1" class="axis-tick" pointer-events="none" version="1.1" width="477" height="235" viewBox="0 0 477 235" fill="none" stroke-miterlimit="10" role="graphics-symbol" aria-roledescription="axis" aria-label="Y-axis for a linear scale with values from 0 to 6"/>
<line transform="translate(-50.03389404296874, 103.30266113281249) translate(22.0,10.0) translate(0.5,0.5) translate(0,100)" x2="-5" y2="0" stroke="#0f223b" stroke-opacity="0" stroke-width="1" opacity="1" class="axis-tick" pointer-events="none" version="1.1" width="477" height="235" viewBox="0 0 477 235" fill="none" stroke-miterlimit="10" role="graphics-symbol" aria-roledescription="axis" aria-label="Y-axis for a linear scale with values from 0 to 6"/>
<line transform="translate(-50.03389404296874, 103.30266113281249) translate(22.0,10.0) translate(0.5,0.5) translate(0,67)" x2="-5" y2="0" stroke="#0f223b" stroke-opacity="0" stroke-width="1" opacity="1" class="axis-tick" pointer-events="none" version="1.1" width="477" height="235" viewBox="0 0 477 235" fill="none" stroke-miterlimit="10" role="graphics-symbol" aria-roledescription="axis" aria-label="Y-axis for a linear scale with values from 0 to 6"/>
<line transform="translate(-50.03389404296874, 103.30266113281249) translate(22.0,10.0) translate(0.5,0.5) translate(0,33)" x2="-5" y2="0" stroke="#0f223b" stroke-opacity="0" stroke-width="1" opacity="1" class="axis-tick" pointer-events="none" version="1.1" width="477" height="235" viewBox="0 0 477 235" fill="none" stroke-miterlimit="10" role="graphics-symbol" aria-roledescription="axis" aria-label="Y-axis for a linear scale with values from 0 to 6"/>
<line transform="translate(-50.03389404296874, 103.30266113281249) translate(22.0,10.0) translate(0.5,0.5) translate(0,0)" x2="-5" y2="0" stroke="#0f223b" stroke-opacity="0" stroke-width="1" opacity="1" class="axis-tick" pointer-events="none" version="1.1" width="477" height="235" viewBox="0 0 477 235" fill="none" stroke-miterlimit="10" role="graphics-symbol" aria-roledescription="axis" aria-label="Y-axis for a linear scale with values from 0 to 6"/>
<text text-anchor="end" transform="translate(-50.03389404296874, 103.30266113281249) translate(22.0,10.0) translate(0.5,0.5) translate(-10,203)" font-family="sans-serif" font-size="10px" fill="#000d2a" opacity="1" class="axis-label" pointer-events="none" version="1.1" width="477" height="235" viewBox="0 0 477 235" stroke-miterlimit="10" role="graphics-symbol" aria-roledescription="axis" aria-label="Y-axis for a linear scale with values from 0 to 6">0
</text>
<text text-anchor="end" transform="translate(-50.03389404296874, 103.30266113281249) translate(22.0,10.0) translate(0.5,0.5) translate(-10,169.66666666666669)" font-family="sans-serif" font-size="10px" fill="#000d2a" opacity="1" class="axis-label" pointer-events="none" version="1.1" width="477" height="235" viewBox="0 0 477 235" stroke-miterlimit="10" role="graphics-symbol" aria-roledescription="axis" aria-label="Y-axis for a linear scale with values from 0 to 6">1
</text>
<text text-anchor="end" transform="translate(-50.03389404296874, 103.30266113281249) translate(22.0,10.0) translate(0.5,0.5) translate(-10,136.33333333333334)" font-family="sans-serif" font-size="10px" fill="#000d2a" opacity="1" class="axis-label" pointer-events="none" version="1.1" width="477" height="235" viewBox="0 0 477 235" stroke-miterlimit="10" role="graphics-symbol" aria-roledescription="axis" aria-label="Y-axis for a linear scale with values from 0 to 6">2
</text>
<text text-anchor="end" transform="translate(-50.03389404296874, 103.30266113281249) translate(22.0,10.0) translate(0.5,0.5) translate(-10,103)" font-family="sans-serif" font-size="10px" fill="#000d2a" opacity="1" class="axis-label" pointer-events="none" version="1.1" width="477" height="235" viewBox="0 0 477 235" stroke-miterlimit="10" role="graphics-symbol" aria-roledescription="axis" aria-label="Y-axis for a linear scale with values from 0 to 6">3
</text>
<text text-anchor="end" transform="translate(-50.03389404296874, 103.30266113281249) translate(22.0,10.0) translate(0.5,0.5) translate(-10,69.66666666666667)" font-family="sans-serif" font-size="10px" fill="#000d2a" opacity="1" class="axis-label" pointer-events="none" version="1.1" width="477" height="235" viewBox="0 0 477 235" stroke-miterlimit="10" role="graphics-symbol" aria-roledescription="axis" aria-label="Y-axis for a linear scale with values from 0 to 6">4
</text>
<text text-anchor="end" transform="translate(-50.03389404296874, 103.30266113281249) translate(22.0,10.0) translate(0.5,0.5) translate(-10,36.33333333333333)" font-family="sans-serif" font-size="10px" fill="#000d2a" opacity="1" class="axis-label" pointer-events="none" version="1.1" width="477" height="235" viewBox="0 0 477 235" stroke-miterlimit="10" role="graphics-symbol" aria-roledescription="axis" aria-label="Y-axis for a linear scale with values from 0 to 6">5
</text>
<text text-anchor="end" transform="translate(-50.03389404296874, 103.30266113281249) translate(22.0,10.0) translate(0.5,0.5) translate(-10,3)" font-family="sans-serif" font-size="10px" fill="#000d2a" opacity="1" class="axis-label" pointer-events="none" version="1.1" width="477" height="235" viewBox="0 0 477 235" stroke-miterlimit="10" role="graphics-symbol" aria-roledescription="axis" aria-label="Y-axis for a linear scale with values from 0 to 6">6
</text>
<line transform="translate(-50.03389404296874, 103.30266113281249) translate(22.0,10.0) translate(0.5,0.5) translate(0,200)" x2="0" y2="-200" stroke="#0f223b" stroke-opacity="0" stroke-width="1" opacity="1" class="axis-domain" pointer-events="none" version="1.1" width="477" height="235" viewBox="0 0 477 235" fill="none" stroke-miterlimit="10" role="graphics-symbol" aria-roledescription="axis" aria-label="Y-axis for a linear scale with values from 0 to 6"/>
<path aria-label="Year: 2018; Percentage: 2.8; Forecast Horizon: One year ahead" role="graphics-symbol" aria-roledescription="line mark" d="M32.143,106.667L42.857,107.222C53.571,107.778,75,108.889,96.429,107.778C117.857,106.667,139.286,103.333,160.714,90.556C182.143,77.778,203.571,55.556,225,40C246.429,24.444,267.857,15.556,289.286,21.111C310.714,26.667,332.143,46.667,353.571,62.222C375,77.778,396.429,88.889,407.143,94.444L417.857,100" stroke="#cccccc" stroke-width="2" opacity="1" class="line" version="1.1" width="477" height="235" viewBox="0 0 477 235" fill="none" stroke-miterlimit="10" transform="translate(-50.03389404296874, 103.30266113281249) translate(22.0,10.0)"/>
<path aria-label="Year: 2018; Percentage: 2.9; Forecast Horizon: Three years ahead" role="graphics-symbol" aria-roledescription="line mark" d="M32.143,103.333L42.857,105C53.571,106.667,75,110,96.429,110.556C117.857,111.111,139.286,108.889,160.714,103.889C182.143,98.889,203.571,91.111,225,87.222C246.429,83.333,267.857,83.333,289.286,86.667C310.714,90,332.143,96.667,353.571,99.444C375,102.222,396.429,101.111,407.143,100.556L417.857,100" stroke="#b3e2cd" stroke-width="2" opacity="1" class="line" version="1.1" width="477" height="235" viewBox="0 0 477 235" fill="none" stroke-miterlimit="10" transform="translate(-50.03389404296874, 103.30266113281249) translate(22.0,10.0)"/></g></svg>