<svg version="1.1" class="marks" width="465.5615234375" height="335.07421875" viewBox="0 0 565.5615234375 435.07421875" xmlns="http://www.w3.org/2000/svg" xmlns:xlink="http://www.w3.org/1999/xlink"><rect width="100%" height="100%" fill="#ffffff"/>
<g transform="translate(72.01167724609374, 51.171948242187504)"><rect x="0" y="0" width="15" height="150" fill="#6a3d9a" transform="scale(0.6094130859375)"/>
<text class="chart-title-line" x="0" y="0" text-anchor="start" font-family="sans-serif" font-size="24" font-weight="700" fill="#0f2740" letter-spacing="0" transform="translate(19.1411962890625, 20.953051757812496)">Refugee Numbers Remain Mostly
</text>
<text class="chart-title-line" x="0" y="0" text-anchor="start" font-family="sans-serif" font-size="24" font-weight="700" fill="#0f2740" letter-spacing="0" transform="translate(19.1411962890625, 20.953051757812496) translate(0.0, 27.1640625)"> Stable Throughout 2020
</text>
<text class="chart-subtitle-line" x="0" y="0" text-anchor="start" font-family="sans-serif" font-size="13" font-weight="400" fill="#445f7c" letter-spacing="0.25" transform="translate(19.1411962890625, 20.953051757812496) translate(0.0, 54.1875)">Number of forcibly displaced people by selected countries of origin (in
</text>
<text class="chart-subtitle-line" x="0" y="0" text-anchor="start" font-family="sans-serif" font-size="13" font-weight="400" fill="#445f7c" letter-spacing="0.25" transform="translate(19.1411962890625, 20.953051757812496) translate(0.0, 54.1875) translate(0.0, 14.7138671875)">million people)
</text>
<line transform="translate(-28.95015380859374, 103.30266113281249) translate(22.0,10.0) translate(0.5,200.5) translate(23,0)" x2="0" y2="5" stroke="#0f223b" stroke-opacity="0" stroke-width="1" opacity="1" class="axis-tick" pointer-events="none" version="1.1" width="477" height="235" viewBox="0 0 477 235" fill="none" stroke-miterlimit="10" role="graphics-symbol" aria-roledescription="axis" aria-label="X-axis for a discrete scale with 10 values: 2011, 2012, 2013, 2014, 2015, ending with 2020"/>
<line transform="translate(-28.95015380859374, 103.30266113281249) translate(22.0,10.0) translate(0.5,200.5) translate(68,0)" x2="0" y2="5" stroke="#0f223b" stroke-opacity="0" stroke-width="1" opacity="1" class="axis-tick" pointer-events="none" version="1.1" width="477" height="235" viewBox="0 0 477 235" fill="none" stroke-miterlimit="10" role="graphics-symbol" aria-roledescription="axis" aria-label="X-axis for a discrete scale with 10 values: 2011, 2012, 2013, 2014, 2015, ending with 2020"/>
<line transform="translate(-28.95015380859374, 103.30266113281249) translate(22.0,10.0) translate(0.5,200.5) translate(113,0)" x2="0" y2="5" stroke="#0f223b" stroke-opacity="0" stroke-width="1" opacity="1" class="axis-tick" pointer-events="none" version="1.1" width="477" height="235" viewBox="0 0 477 235" fill="none" stroke-miterlimit="10" role="graphics-symbol" aria-roledescription="axis" aria-label="X-axis for a discrete scale with 10 values: 2011, 2012, 2013, 2014, 2015, ending with 2020"/>
<line transform="translate(-28.95015380859374, 103.30266113281249) translate(22.0,10.0) translate(0.5,200.5) translate(158,0)" x2="0" y2="5" stroke="#0f223b" stroke-opacity="0" stroke-width="1" opacity="1" class="axis-tick" pointer-events="none" version="1.1" width="477" height="235" viewBox="0 0 477 235" fill="none" stroke-miterlimit="10" role="graphics-symbol" aria-roledescription="axis" aria-label="X-axis for a discrete scale with 10 values: 2011, 2012, 2013, 2014, 2015, ending with 2020"/>
<line transform="translate(-28.95015380859374, 103.30266113281249) translate(22.0,10.0) translate(0.5,200.5) translate(203,0)" x2="0" y2="5" stroke="#0f223b" stroke-opacity="0" stroke-width="1" opacity="1" class="axis-tick" pointer-events="none" version="1.1" width="477" height="235" viewBox="0 0 477 235" fill="none" stroke-miterlimit="10" role="graphics-symbol" aria-roledescription="axis" aria-label="X-axis for a discrete scale with 10 values: 2011, 2012, 2013, 2014, 2015, ending with 2020"/>
<line transform="translate(-28.95015380859374, 103.30266113281249) translate(22.0,10.0) translate(0.5,200.5) translate(248,0)" x2="0" y2="5" stroke="#0f223b" stroke-opacity="0" stroke-width="1" opacity="1" class="axis-tick" pointer-events="none" version="1.1" width="477" height="235" viewBox="0 0 477 235" fill="none" stroke-miterlimit="10" role="graphics-symbol" aria-roledescription="axis" aria-label="X-axis for a discrete scale with 10 values: 2011, 2012, 2013, 2014, 2015, ending with 2020"/>
<line transform="translate(-28.95015380859374, 103.30266113281249) translate(22.0,10.0) translate(0.5,200.5) translate(293,0)" x2="0" y2="5" stroke="#0f223b" stroke-opacity="0" stroke-width="1" opacity="1" class="axis-tick" pointer-events="none" version="1.1" width="477" height="235" viewBox="0 0 477 235" fill="none" stroke-miterlimit="10" role="graphics-symbol" aria-roledescription="axis" aria-label="X-axis for a discrete scale with 10 values: 2011, 2012, 2013, 2014, 2015, ending with 2020"/>
<line transform="translate(-28.95015380859374, 103.30266113281249) translate(22.0,10.0) translate(0.5,200.5) translate(338,0)" x2="0" y2="5" stroke="#0f223b" stroke-opacity="0" stroke-width="1" opacity="1" class="axis-tick" pointer-events="none" version="1.1" width="477" height="235" viewBox="0 0 477 235" fill="none" stroke-miterlimit="10" role="graphics-symbol" aria-roledescription="axis" aria-label="X-axis for a discrete scale with 10 values: 2011, 2012, 2013, 2014, 2015, ending with 2020"/>
<line transform="translate(-28.95015380859374, 103.30266113281249) translate(22.0,10.0) translate(0.5,200.5) translate(383,0)" x2="0" y2="5" stroke="#0f223b" stroke-opacity="0" stroke-width="1" opacity="1" class="axis-tick" pointer-events="none" version="1.1" width="477" height="235" viewBox="0 0 477 235" fill="none" stroke-miterlimit="10" role="graphics-symbol" aria-roledescription="axis" aria-label="X-axis for a discrete scale with 10 values: 2011, 2012, 2013, 2014, 2015, ending with 2020"/>
<line transform="translate(-28.95015380859374, 103.30266113281249) translate(22.0,10.0) translate(0.5,200.5) translate(428,0)" x2="0" y2="5" stroke="#0f223b" stroke-opacity="0" stroke-width="1" opacity="1" class="axis-tick" pointer-events="none" version="1.1" width="477" height="235" viewBox="0 0 477 235" fill="none" stroke-miterlimit="10" role="graphics-symbol" aria-roledescription="axis" aria-label="X-axis for a discrete scale with 10 values: 2011, 2012, 2013, 2014, 2015, ending with 2020"/>
<text text-anchor="middle" transform="translate(-28.95015380859374, 103.30266113281249) translate(22.0,10.0) translate(0.5,200.5) translate(0.0,0.0) translate(22.5,18)" font-family="sans-serif" font-size="10.0px" fill="#000d2a" opacity="1" class="axis-label" pointer-events="none" version="1.1" width="477" height="235" viewBox="0 0 477 235" stroke-miterlimit="10" role="graphics-symbol" aria-roledescription="axis" aria-label="X-axis for a discrete scale with 10 values: 2011, 2012, 2013, 2014, 2015, ending with 2020">2011
</text>
<text text-anchor="middle" transform="translate(-28.95015380859374, 103.30266113281249) translate(22.0,10.0) translate(0.5,200.5) translate(0.0,0.0) translate(67.5,18)" font-family="sans-serif" font-size="10.0px" fill="#000d2a" opacity="1" class="axis-label" pointer-events="none" version="1.1" width="477" height="235" viewBox="0 0 477 235" stroke-miterlimit="10" role="graphics-symbol" aria-roledescription="axis" aria-label="X-axis for a discrete scale with 10 values: 2011, 2012, 2013, 2014, 2015, ending with 2020">2012
</text>
<text text-anchor="middle" transform="translate(-28.95015380859374, 103.30266113281249) translate(22.0,10.0) translate(0.5,200.5) translate(0.0,0.0) translate(112.5,18)" font-family="sans-serif" font-size="10.0px" fill="#000d2a" opacity="1" class="axis-label" pointer-events="none" version="1.1" width="477" height="235" viewBox="0 0 477 235" stroke-miterlimit="10" role="graphics-symbol" aria-roledescription="axis" aria-label="X-axis for a discrete scale with 10 values: 2011, 2012, 2013, 2014, 2015, ending with 2020">2013
</text>
<text text-anchor="middle" transform="translate(-28.95015380859374, 103.30266113281249) translate(22.0,10.0) translate(0.5,200.5) translate(0.0,0.0) translate(157.5,18)" font-family="sans-serif" font-size="10.0px" fill="#000d2a" opacity="1" class="axis-label" pointer-events="none" version="1.1" width="477" height="235" viewBox="0 0 477 235" stroke-miterlimit="10" role="graphics-symbol" aria-roledescription="axis" aria-label="X-axis for a discrete scale with 10 values: 2011, 2012, 2013, 2014, 2015, ending with 2020">2014
</text>
<text text-anchor="middle" transform="translate(-28.95015380859374, 103.30266113281249) translate(22.0,10.0) translate(0.5,200.5) translate(0.0,0.0) translate(202.5,18)" font-family="sans-serif" font-size="10.0px" fill="#000d2a" opacity="1" class="axis-label" pointer-events="none" version="1.1" width="477" height="235" viewBox="0 0 477 235" stroke-miterlimit="10" role="graphics-symbol" aria-roledescription="axis" aria-label="X-axis for a discrete scale with 10 values: 2011, 2012, 2013, 2014, 2015, ending with 2020">2015
</text>
<text text-anchor="middle" transform="translate(-28.95015380859374, 103.30266113281249) translate(22.0,10.0) translate(0.5,200.5) translate(0.0,0.0) translate(247.5,18)" font-family="sans-serif" font-size="10.0px" fill="#000d2a" opacity="1" class="axis-label" pointer-events="none" version="1.1" width="477" height="235" viewBox="0 0 477 235" stroke-miterlimit="10" role="graphics-symbol" aria-roledescription="axis" aria-label="X-axis for a discrete scale with 10 values: 2011, 2012, 2013, 2014, 2015, ending with 2020">2016
</text>
<text text-anchor="middle" transform="translate(-28.95015380859374, 103.30266113281249) translate(22.0,10.0) translate(0.5,200.5) translate(0.0,0.0) translate(292.5,18)" font-family="sans-serif" font-size="10.0px" fill="#000d2a" opacity="1" class="axis-label" pointer-events="none" version="1.1" width="477" height="235" viewBox="0 0 477 235" stroke-miterlimit="10" role="graphics-symbol" aria-roledescription="axis" aria-label="X-axis for a discrete scale with 10 values: 2011, 2012, 2013, 2014, 2015, ending with 2020">2017
</text>
<text text-anchor="middle" transform="translate(-28.95015380859374, 103.30266113281249) translate(22.0,10.0) translate(0.5,200.5) translate(0.0,0.0) translate(337.5,18)" font-family="sans-serif" font-size="10.0px" fill="#000d2a" opacity="1" class="axis-label" pointer-events="none" version="1.1" width="477" height="235" viewBox="0 0 477 235" stroke-miterlimit="10" role="graphics-symbol" aria-roledescription="axis" aria-label="X-axis for a discrete scale with 10 values: 2011, 2012, 2013, 2014, 2015, ending with 2020">2018
</text>
<text text-anchor="middle" transform="translate(-28.95015380859374, 103.30266113281249) translate(22.0,10.0) translate(0.5,200.5) translate(0.0,0.0) translate(382.5,18)" font-family="sans-serif" font-size="10.0px" fill="#000d2a" opacity="1" class="axis-label" pointer-events="none" version="1.1" width="477" height="235" viewBox="0 0 477 235" stroke-miterlimit="10" role="graphics-symbol" aria-roledescription="axis" aria-label="X-axis for a discrete scale with 10 values: 2011, 2012, 2013, 2014, 2015, ending with 2020">2019
</text>
<text text-anchor="middle" transform="translate(-28.95015380859374, 103.30266113281249) translate(22.0,10.0) translate(0.5,200.5) translate(0.0,0.0) translate(427.5,18)" font-family="sans-serif" font-size="10.0px" fill="#000d2a" opacity="1" class="axis-label" pointer-events="none" version="1.1" width="477" height="235" viewBox="0 0 477 235" stroke-miterlimit="10" role="graphics-symbol" aria-roledescription="axis" aria-label="X-axis for a discrete scale with 10 values: 2011, 2012, 2013, 2014, 2015, ending with 2020">2020
</text>
<line transform="translate(-28.95015380859374, 103.30266113281249) translate(22.0,10.0) translate(0.5,200.5) translate(0,0)" x2="450" y2="0" stroke="#0f223b" stroke-opacity="0" stroke-width="1" opacity="1" class="axis-domain" pointer-events="none" version="1.1" width="477" height="235" viewBox="0 0 477 235" fill="none" stroke-miterlimit="10" role="graphics-symbol" aria-roledescription="axis" aria-label="X-axis for a discrete scale with 10 values: 2011, 2012, 2013, 2014, 2015, ending with 2020"/>
<line transform="translate(-28.95015380859374, 103.30266113281249) translate(22.0,10.0) translate(0.5,0.5) translate(0,200)" x2="-5" y2="0" stroke="#0f223b" stroke-opacity="0" stroke-width="1" opacity="1" class="axis-tick" pointer-events="none" version="1.1" width="477" height="235" viewBox="0 0 477 235" fill="none" stroke-miterlimit="10" role="graphics-symbol" aria-roledescription="axis" aria-label="Y-axis for a linear scale with values from 0 to 7"/>
<line transform="translate(-28.95015380859374, 103.30266113281249) translate(22.0,10.0) translate(0.5,0.5) translate(0,171)" x2="-5" y2="0" stroke="#0f223b" stroke-opacity="0" stroke-width="1" opacity="1" class="axis-tick" pointer-events="none" version="1.1" width="477" height="235" viewBox="0 0 477 235" fill="none" stroke-miterlimit="10" role="graphics-symbol" aria-roledescription="axis" aria-label="Y-axis for a linear scale with values from 0 to 7"/>
<line transform="translate(-28.95015380859374, 103.30266113281249) translate(22.0,10.0) translate(0.5,0.5) translate(0,143)" x2="-5" y2="0" stroke="#0f223b" stroke-opacity="0" stroke-width="1" opacity="1" class="axis-tick" pointer-events="none" version="1.1" width="477" height="235" viewBox="0 0 477 235" fill="none" stroke-miterlimit="10" role="graphics-symbol" aria-roledescription="axis" aria-label="Y-axis for a linear scale with values from 0 to 7"/>
<line transform="translate(-28.95015380859374, 103.30266113281249) translate(22.0,10.0) translate(0.5,0.5) translate(0,114)" x2="-5" y2="0" stroke="#0f223b" stroke-opacity="0" stroke-width="1" opacity="1" class="axis-tick" pointer-events="none" version="1.1" width="477" height="235" viewBox="0 0 477 235" fill="none" stroke-miterlimit="10" role="graphics-symbol" aria-roledescription="axis" aria-label="Y-axis for a linear scale with values from 0 to 7"/>
<line transform="translate(-28.95015380859374, 103.30266113281249) translate(22.0,10.0) translate(0.5,0.5) translate(0,86)" x2="-5" y2="0" stroke="#0f223b" stroke-opacity="0" stroke-width="1" opacity="1" class="axis-tick" pointer-events="none" version="1.1" width="477" height="235" viewBox="0 0 477 235" fill="none" stroke-miterlimit="10" role="graphics-symbol" aria-roledescription="axis" aria-label="Y-axis for a linear scale with values from 0 to 7"/>
<line transform="translate(-28.95015380859374, 103.30266113281249) translate(22.0,10.0) translate(0.5,0.5) translate(0,57)" x2="-5" y2="0" stroke="#0f223b" stroke-opacity="0" stroke-width="1" opacity="1" class="axis-tick" pointer-events="none" version="1.1" width="477" height="235" viewBox="0 0 477 235" fill="none" stroke-miterlimit="10" role="graphics-symbol" aria-roledescription="axis" aria-label="Y-axis for a linear scale with values from 0 to 7"/>
<line transform="translate(-28.95015380859374, 103.30266113281249) translate(22.0,10.0) translate(0.5,0.5) translate(0,29)" x2="-5" y2="0" stroke="#0f223b" stroke-opacity="0" stroke-width="1" opacity="1" class="axis-tick" pointer-events="none" version="1.1" width="477" height="235" viewBox="0 0 477 235" fill="none" stroke-miterlimit="10" role="graphics-symbol" aria-roledescription="axis" aria-label="Y-axis for a linear scale with values from 0 to 7"/>
<line transform="translate(-28.95015380859374, 103.30266113281249) translate(22.0,10.0) translate(0.5,0.5) translate(0,0)" x2="-5" y2="0" stroke="#0f223b" stroke-opacity="0" stroke-width="1" opacity="1" class="axis-tick" pointer-events="none" version="1.1" width="477" height="235" viewBox="0 0 477 235" fill="none" stroke-miterlimit="10" role="graphics-symbol" aria-roledescription="axis" aria-label="Y-axis for a linear scale with values from 0 to 7"/>
<text text-anchor="end" transform="translate(-28.95015380859374, 103.30266113281249) translate(22.0,10.0) translate(0.5,0.5) translate(-10,203)" font-family="sans-serif" font-size="10px" fill="#000d2a" opacity="1" class="axis-label" pointer-events="none" version="1.1" width="477" height="235" viewBox="0 0 477 235" stroke-miterlimit="10" role="graphics-symbol" aria-roledescription="axis" aria-label="Y-axis for a linear scale with values from 0 to 7">0
</text>
<text text-anchor="end" transform="translate(-28.95015380859374, 103.30266113281249) translate(22.0,10.0) translate(0.5,0.5) translate(-10,174.42857142857144)" font-family="sans-serif" font-size="10px" fill="#000d2a" opacity="1" class="axis-label" pointer-events="none" version="1.1" width="477" height="235" viewBox="0 0 477 235" stroke-miterlimit="10" role="graphics-symbol" aria-roledescription="axis" aria-label="Y-axis for a linear scale with values from 0 to 7">1
</text>
<text text-anchor="end" transform="translate(-28.95015380859374, 103.30266113281249) translate(22.0,10.0) translate(0.5,0.5) translate(-10,145.85714285714286)" font-family="sans-serif" font-size="10px" fill="#000d2a" opacity="1" class="axis-label" pointer-events="none" version="1.1" width="477" height="235" viewBox="0 0 477 235" stroke-miterlimit="10" role="graphics-symbol" aria-roledescription="axis" aria-label="Y-axis for a linear scale with values from 0 to 7">2
</text>
<text text-anchor="end" transform="translate(-28.95015380859374, 103.30266113281249) translate(22.0,10.0) translate(0.5,0.5) translate(-10,117.28571428571428)" font-family="sans-serif" font-size="10px" fill="#000d2a" opacity="1" class="axis-label" pointer-events="none" version="1.1" width="477" height="235" viewBox="0 0 477 235" stroke-miterlimit="10" role="graphics-symbol" aria-roledescription="axis" aria-label="Y-axis for a linear scale with values from 0 to 7">3
</text>
<text text-anchor="end" transform="translate(-28.95015380859374, 103.30266113281249) translate(22.0,10.0) translate(0.5,0.5) translate(-10,88.71428571428572)" font-family="sans-serif" font-size="10px" fill="#000d2a" opacity="1" class="axis-label" pointer-events="none" version="1.1" width="477" height="235" viewBox="0 0 477 235" stroke-miterlimit="10" role="graphics-symbol" aria-roledescription="axis" aria-label="Y-axis for a linear scale with values from 0 to 7">4
</text>
<text text-anchor="end" transform="translate(-28.95015380859374, 103.30266113281249) translate(22.0,10.0) translate(0.5,0.5) translate(-10,60.14285714285714)" font-family="sans-serif" font-size="10px" fill="#000d2a" opacity="1" class="axis-label" pointer-events="none" version="1.1" width="477" height="235" viewBox="0 0 477 235" stroke-miterlimit="10" role="graphics-symbol" aria-roledescription="axis" aria-label="Y-axis for a linear scale with values from 0 to 7">5
</text>
<text text-anchor="end" transform="translate(-28.95015380859374, 103.30266113281249) translate(22.0,10.0) translate(0.5,0.5) translate(-10,31.57142857142858)" font-family="sans-serif" font-size="10px" fill="#000d2a" opacity="1" class="axis-label" pointer-events="none" version="1.1" width="477" height="235" viewBox="0 0 477 235" stroke-miterlimit="10" role="graphics-symbol" aria-roledescription="axis" aria-label="Y-axis for a linear scale with values from 0 to 7">6
</text>
<text text-anchor="end" transform="translate(-28.95015380859374, 103.30266113281249) translate(22.0,10.0) translate(0.5,0.5) translate(-10,3)" font-family="sans-serif" font-size="10px" fill="#000d2a" opacity="1" class="axis-label" pointer-events="none" version="1.1" width="477" height="235" viewBox="0 0 477 235" stroke-miterlimit="10" role="graphics-symbol" aria-roledescription="axis" aria-label="Y-axis for a linear scale with values from 0 to 7">7
</text>
<line transform="translate(-28.95015380859374, 103.30266113281249) translate(22.0,10.0) translate(0.5,0.5) translate(0,200)" x2="0" y2="-200" stroke="#0f223b" stroke-opacity="0" stroke-width="1" opacity="1" class="axis-domain" pointer-events="none" version="1.1" width="477" height="235" viewBox="0 0 477 235" fill="none" stroke-miterlimit="10" role="graphics-symbol" aria-roledescription="axis" aria-label="Y-axis for a linear scale with values from 0 to 7"/>
<path aria-label="Year: 2011; Ratio: 0.1; Crisis Zones: Syria" role="graphics-symbol" aria-roledescription="line mark" d="M22.5,197.143L45,197.143L45,185.714L90,185.714L90,128.571L135,128.571L135,91.429L180,91.429L180,62.857L225,62.857L225,42.857L270,42.857L270,22.857L315,22.857L315,8.571L360,8.571L360,11.429L405,11.429L405,5.714L427.5,5.714" stroke="#6a3d9a" stroke-width="2" opacity="1" class="line" version="1.1" width="477" height="235" viewBox="0 0 477 235" fill="none" stroke-miterlimit="10" transform="translate(-28.95015380859374, 103.30266113281249) translate(22.0,10.0)"/>
<path aria-label="Year: 2011; Ratio: 0; Crisis Zones: Venezuela" role="graphics-symbol" aria-roledescription="line mark" d="M22.5,200L45,200L45,200L90,200L90,200L135,200L135,200L180,200L180,197.143L225,197.143L225,194.286L270,194.286L270,182.857L315,182.857L315,102.857L360,102.857L360,71.429L405,71.429L405,62.857L427.5,62.857" stroke="#ff7f00" stroke-width="2" opacity="1" class="line" version="1.1" width="477" height="235" viewBox="0 0 477 235" fill="none" stroke-miterlimit="10" transform="translate(-28.95015380859374, 103.30266113281249) translate(22.0,10.0)"/>
<path aria-label="Year: 2011; Ratio: 2.7; Crisis Zones: Afghanistan" role="graphics-symbol" aria-roledescription="line mark" d="M22.5,122.857L45,122.857L45,125.714L90,125.714L90,125.714L135,125.714L135,125.714L180,125.714L180,122.857L225,122.857L225,128.571L270,128.571L270,125.714L315,125.714L315,122.857L360,122.857L360,122.857L405,122.857L405,120L427.5,120" stroke="#fb9a99" stroke-width="2" opacity="1" class="line" version="1.1" width="477" height="235" viewBox="0 0 477 235" fill="none" stroke-miterlimit="10" transform="translate(-28.95015380859374, 103.30266113281249) translate(22.0,10.0)"/>
<path aria-label="Year: 2011; Ratio: 0.3; Crisis Zones: South Sudan" role="graphics-symbol" aria-roledescription="line mark" d="M22.5,191.429L45,191.429L45,188.571L90,188.571L90,185.714L135,185.714L135,177.143L180,177.143L180,165.714L225,165.714L225,160L270,160L270,131.429L315,131.429L315,134.286L360,134.286L360,137.143L405,137.143L405,137.143L427.5,137.143" stroke="#b15928" stroke-width="2" opacity="1" class="line" version="1.1" width="477" height="235" viewBox="0 0 477 235" fill="none" stroke-miterlimit="10" transform="translate(-28.95015380859374, 103.30266113281249) translate(22.0,10.0)"/>
<path aria-label="Year: 2011; Ratio: 0.4; Crisis Zones: Rohinya" role="graphics-symbol" aria-roledescription="line mark" d="M22.5,188.571L45,188.571L45,188.571L90,188.571L90,185.714L135,185.714L135,185.714L180,185.714L180,182.857L225,182.857L225,180L270,180L270,165.714L315,165.714L315,165.714L360,165.714L360,168.571L405,168.571L405,168.571L427.5,168.571" stroke="#b2df8a" stroke-width="2" opacity="1" class="line" version="1.1" width="477" height="235" viewBox="0 0 477 235" fill="none" stroke-miterlimit="10" transform="translate(-28.95015380859374, 103.30266113281249) translate(22.0,10.0)"/>
<path aria-label="Year: 2011; Ratio: 0.4; Crisis Zones: DRC" role="graphics-symbol" aria-roledescription="line mark" d="M22.5,188.571L45,188.571L45,188.571L90,188.571L90,185.714L135,185.714L135,185.714L180,185.714L180,185.714L225,185.714L225,182.857L270,182.857L270,180L315,180L315,177.143L360,177.143L360,174.286L405,174.286L405,171.429L427.5,171.429" stroke="#a6cee3" stroke-width="2" opacity="1" class="line" version="1.1" width="477" height="235" viewBox="0 0 477 235" fill="none" stroke-miterlimit="10" transform="translate(-28.95015380859374, 103.30266113281249) translate(22.0,10.0)"/></g></svg>