<svg version="1.1" class="marks" width="471.123046875" height="293.1962890625" viewBox="0 0 571.123046875 393.1962890625" xmlns="http://www.w3.org/2000/svg" xmlns:xlink="http://www.w3.org/1999/xlink"><rect width="100%" height="100%" fill="#ffffff"/>
<g transform="translate(80.52466186523438, 50.64847412109375)"><rect x="0" y="0" width="15" height="150" fill="#fbb4ae" transform="scale(0.33720654296875)"/>
<text class="chart-title-line" x="0" y="0" text-anchor="start" font-family="sans-serif" font-size="24" font-weight="700" fill="#0f2740" letter-spacing="0" transform="translate(15.05809814453125, 21.47652587890625)">USA in Connected Car Pole  Position
</text>
<text class="chart-subtitle-line" x="0" y="0" text-anchor="start" font-family="sans-serif" font-size="13" font-weight="400" fill="#445f7c" letter-spacing="0.25" transform="translate(15.05809814453125, 21.47652587890625) translate(0.0, 27.0234375)">Forecasted numbers of connected cars in key markets (2017-2021)
</text>
<line transform="translate(-37.90161499023438, 61.948205566406244) translate(28.0,10.0) translate(0.5,200.5) translate(45,0)" x2="0" y2="5" stroke="#0f223b" stroke-opacity="0" stroke-width="1" opacity="1" class="axis-tick" pointer-events="none" version="1.1" width="483" height="235" viewBox="0 0 483 235" fill="none" stroke-miterlimit="10" role="graphics-symbol" aria-roledescription="axis" aria-label="X-axis for a discrete scale with 5 values: 2017, 2018, 2019, 2020, 2021"/>
<line transform="translate(-37.90161499023438, 61.948205566406244) translate(28.0,10.0) translate(0.5,200.5) translate(135,0)" x2="0" y2="5" stroke="#0f223b" stroke-opacity="0" stroke-width="1" opacity="1" class="axis-tick" pointer-events="none" version="1.1" width="483" height="235" viewBox="0 0 483 235" fill="none" stroke-miterlimit="10" role="graphics-symbol" aria-roledescription="axis" aria-label="X-axis for a discrete scale with 5 values: 2017, 2018, 2019, 2020, 2021"/>
<line transform="translate(-37.90161499023438, 61.948205566406244) translate(28.0,10.0) translate(0.5,200.5) translate(225,0)" x2="0" y2="5" stroke="#0f223b" stroke-opacity="0" stroke-width="1" opacity="1" class="axis-tick" pointer-events="none" version="1.1" width="483" height="235" viewBox="0 0 483 235" fill="none" stroke-miterlimit="10" role="graphics-symbol" aria-roledescription="axis" aria-label="X-axis for a discrete scale with 5 values: 2017, 2018, 2019, 2020, 2021"/>
<line transform="translate(-37.90161499023438, 61.948205566406244) translate(28.0,10.0) translate(0.5,200.5) translate(315,0)" x2="0" y2="5" stroke="#0f223b" stroke-opacity="0" stroke-width="1" opacity="1" class="axis-tick" pointer-events="none" version="1.1" width="483" height="235" viewBox="0 0 483 235" fill="none" stroke-miterlimit="10" role="graphics-symbol" aria-roledescription="axis" aria-label="X-axis for a discrete scale with 5 values: 2017, 2018, 2019, 2020, 2021"/>
<line transform="translate(-37.90161499023438, 61.948205566406244) translate(28.0,10.0) translate(0.5,200.5) translate(405,0)" x2="0" y2="5" stroke="#0f223b" stroke-opacity="0" stroke-width="1" opacity="1" class="axis-tick" pointer-events="none" version="1.1" width="483" height="235" viewBox="0 0 483 235" fill="none" stroke-miterlimit="10" role="graphics-symbol" aria-roledescription="axis" aria-label="X-axis for a discrete scale with 5 values: 2017, 2018, 2019, 2020, 2021"/>
<text text-anchor="middle" transform="translate(-37.90161499023438, 61.948205566406244) translate(28.0,10.0) translate(0.5,200.5) translate(0.0,0.0) translate(45,18)" font-family="sans-serif" font-size="10.0px" fill="#000d2a" opacity="1" class="axis-label" pointer-events="none" version="1.1" width="483" height="235" viewBox="0 0 483 235" stroke-miterlimit="10" role="graphics-symbol" aria-roledescription="axis" aria-label="X-axis for a discrete scale with 5 values: 2017, 2018, 2019, 2020, 2021">2017
</text>
<text text-anchor="middle" transform="translate(-37.90161499023438, 61.948205566406244) translate(28.0,10.0) translate(0.5,200.5) translate(0.0,0.0) translate(135,18)" font-family="sans-serif" font-size="10.0px" fill="#000d2a" opacity="1" class="axis-label" pointer-events="none" version="1.1" width="483" height="235" viewBox="0 0 483 235" stroke-miterlimit="10" role="graphics-symbol" aria-roledescription="axis" aria-label="X-axis for a discrete scale with 5 values: 2017, 2018, 2019, 2020, 2021">2018
</text>
<text text-anchor="middle" transform="translate(-37.90161499023438, 61.948205566406244) translate(28.0,10.0) translate(0.5,200.5) translate(0.0,0.0) translate(225,18)" font-family="sans-serif" font-size="10.0px" fill="#000d2a" opacity="1" class="axis-label" pointer-events="none" version="1.1" width="483" height="235" viewBox="0 0 483 235" stroke-miterlimit="10" role="graphics-symbol" aria-roledescription="axis" aria-label="X-axis for a discrete scale with 5 values: 2017, 2018, 2019, 2020, 2021">2019
</text>
<text text-anchor="middle" transform="translate(-37.90161499023438, 61.948205566406244) translate(28.0,10.0) translate(0.5,200.5) translate(0.0,0.0) translate(315,18)" font-family="sans-serif" font-size="10.0px" fill="#000d2a" opacity="1" class="axis-label" pointer-events="none" version="1.1" width="483" height="235" viewBox="0 0 483 235" stroke-miterlimit="10" role="graphics-symbol" aria-roledescription="axis" aria-label="X-axis for a discrete scale with 5 values: 2017, 2018, 2019, 2020, 2021">2020
</text>
<text text-anchor="middle" transform="translate(-37.90161499023438, 61.948205566406244) translate(28.0,10.0) translate(0.5,200.5) translate(0.0,0.0) translate(405,18)" font-family="sans-serif" font-size="10.0px" fill="#000d2a" opacity="1" class="axis-label" pointer-events="none" version="1.1" width="483" height="235" viewBox="0 0 483 235" stroke-miterlimit="10" role="graphics-symbol" aria-roledescription="axis" aria-label="X-axis for a discrete scale with 5 values: 2017, 2018, 2019, 2020, 2021">2021
</text>
<line transform="translate(-37.90161499023438, 61.948205566406244) translate(28.0,10.0) translate(0.5,200.5) translate(0,0)" x2="450" y2="0" stroke="#0f223b" stroke-opacity="0" stroke-width="1" opacity="1" class="axis-domain" pointer-events="none" version="1.1" width="483" height="235" viewBox="0 0 483 235" fill="none" stroke-miterlimit="10" role="graphics-symbol" aria-roledescription="axis" aria-label="X-axis for a discrete scale with 5 values: 2017, 2018, 2019, 2020, 2021"/>
<line transform="translate(-37.90161499023438, 61.948205566406244) translate(28.0,10.0) translate(0.5,0.5) translate(0,200)" x2="-5" y2="0" stroke="#0f223b" stroke-opacity="0" stroke-width="1" opacity="1" class="axis-tick" pointer-events="none" version="1.1" width="483" height="235" viewBox="0 0 483 235" fill="none" stroke-miterlimit="10" role="graphics-symbol" aria-roledescription="axis" aria-label="Y-axis for a linear scale with values from 0 to 40"/>
<line transform="translate(-37.90161499023438, 61.948205566406244) translate(28.0,10.0) translate(0.5,0.5) translate(0,150)" x2="-5" y2="0" stroke="#0f223b" stroke-opacity="0" stroke-width="1" opacity="1" class="axis-tick" pointer-events="none" version="1.1" width="483" height="235" viewBox="0 0 483 235" fill="none" stroke-miterlimit="10" role="graphics-symbol" aria-roledescription="axis" aria-label="Y-axis for a linear scale with values from 0 to 40"/>
<line transform="translate(-37.90161499023438, 61.948205566406244) translate(28.0,10.0) translate(0.5,0.5) translate(0,100)" x2="-5" y2="0" stroke="#0f223b" stroke-opacity="0" stroke-width="1" opacity="1" class="axis-tick" pointer-events="none" version="1.1" width="483" height="235" viewBox="0 0 483 235" fill="none" stroke-miterlimit="10" role="graphics-symbol" aria-roledescription="axis" aria-label="Y-axis for a linear scale with values from 0 to 40"/>
<line transform="translate(-37.90161499023438, 61.948205566406244) translate(28.0,10.0) translate(0.5,0.5) translate(0,50)" x2="-5" y2="0" stroke="#0f223b" stroke-opacity="0" stroke-width="1" opacity="1" class="axis-tick" pointer-events="none" version="1.1" width="483" height="235" viewBox="0 0 483 235" fill="none" stroke-miterlimit="10" role="graphics-symbol" aria-roledescription="axis" aria-label="Y-axis for a linear scale with values from 0 to 40"/>
<line transform="translate(-37.90161499023438, 61.948205566406244) translate(28.0,10.0) translate(0.5,0.5) translate(0,0)" x2="-5" y2="0" stroke="#0f223b" stroke-opacity="0" stroke-width="1" opacity="1" class="axis-tick" pointer-events="none" version="1.1" width="483" height="235" viewBox="0 0 483 235" fill="none" stroke-miterlimit="10" role="graphics-symbol" aria-roledescription="axis" aria-label="Y-axis for a linear scale with values from 0 to 40"/>
<text text-anchor="end" transform="translate(-37.90161499023438, 61.948205566406244) translate(28.0,10.0) translate(0.5,0.5) translate(-10,203)" font-family="sans-serif" font-size="10px" fill="#000d2a" opacity="1" class="axis-label" pointer-events="none" version="1.1" width="483" height="235" viewBox="0 0 483 235" stroke-miterlimit="10" role="graphics-symbol" aria-roledescription="axis" aria-label="Y-axis for a linear scale with values from 0 to 40">0
</text>
<text text-anchor="end" transform="translate(-37.90161499023438, 61.948205566406244) translate(28.0,10.0) translate(0.5,0.5) translate(-10,153)" font-family="sans-serif" font-size="10px" fill="#000d2a" opacity="1" class="axis-label" pointer-events="none" version="1.1" width="483" height="235" viewBox="0 0 483 235" stroke-miterlimit="10" role="graphics-symbol" aria-roledescription="axis" aria-label="Y-axis for a linear scale with values from 0 to 40">10
</text>
<text text-anchor="end" transform="translate(-37.90161499023438, 61.948205566406244) translate(28.0,10.0) translate(0.5,0.5) translate(-10,103)" font-family="sans-serif" font-size="10px" fill="#000d2a" opacity="1" class="axis-label" pointer-events="none" version="1.1" width="483" height="235" viewBox="0 0 483 235" stroke-miterlimit="10" role="graphics-symbol" aria-roledescription="axis" aria-label="Y-axis for a linear scale with values from 0 to 40">20
</text>
<text text-anchor="end" transform="translate(-37.90161499023438, 61.948205566406244) translate(28.0,10.0) translate(0.5,0.5) translate(-10,53)" font-family="sans-serif" font-size="10px" fill="#000d2a" opacity="1" class="axis-label" pointer-events="none" version="1.1" width="483" height="235" viewBox="0 0 483 235" stroke-miterlimit="10" role="graphics-symbol" aria-roledescription="axis" aria-label="Y-axis for a linear scale with values from 0 to 40">30
</text>
<text text-anchor="end" transform="translate(-37.90161499023438, 61.948205566406244) translate(28.0,10.0) translate(0.5,0.5) translate(-10,3)" font-family="sans-serif" font-size="10px" fill="#000d2a" opacity="1" class="axis-label" pointer-events="none" version="1.1" width="483" height="235" viewBox="0 0 483 235" stroke-miterlimit="10" role="graphics-symbol" aria-roledescription="axis" aria-label="Y-axis for a linear scale with values from 0 to 40">40
</text>
<line transform="translate(-37.90161499023438, 61.948205566406244) translate(28.0,10.0) translate(0.5,0.5) translate(0,200)" x2="0" y2="-200" stroke="#0f223b" stroke-opacity="0" stroke-width="1" opacity="1" class="axis-domain" pointer-events="none" version="1.1" width="483" height="235" viewBox="0 0 483 235" fill="none" stroke-miterlimit="10" role="graphics-symbol" aria-roledescription="axis" aria-label="Y-axis for a linear scale with values from 0 to 40"/>
<path aria-label="Year: 2017; Units: 12.86; Country: United States" role="graphics-symbol" aria-roledescription="line mark" d="M45,135.7L60,131.15C75,126.6,105,117.5,135,108.358C165,99.217,195,90.033,225,80.7C255,71.367,285,61.883,315,52.075C345,42.267,375,32.133,390,27.067L405,22" stroke="#fbb4ae" stroke-width="2" opacity="1" class="line" version="1.1" width="483" height="235" viewBox="0 0 483 235" fill="none" stroke-miterlimit="10" transform="translate(-37.90161499023438, 61.948205566406244) translate(28.0,10.0)"/>
<path aria-label="Year: 2017; Units: 3.82; Country: China" role="graphics-symbol" aria-roledescription="line mark" d="M45,180.9L60,176.958C75,173.017,105,165.133,135,156.3C165,147.467,195,137.683,225,126.3C255,114.917,285,101.933,315,87.125C345,72.317,375,55.683,390,47.367L405,39.05" stroke="#decbe4" stroke-width="2" opacity="1" class="line" version="1.1" width="483" height="235" viewBox="0 0 483 235" fill="none" stroke-miterlimit="10" transform="translate(-37.90161499023438, 61.948205566406244) translate(28.0,10.0)"/>
<path aria-label="Year: 2017; Units: 3.79; Country: Germany" role="graphics-symbol" aria-roledescription="line mark" d="M45,181.05L60,178.633C75,176.217,105,171.383,135,166.467C165,161.55,195,156.55,225,151.142C255,145.733,285,139.917,315,133.817C345,127.717,375,121.333,390,118.142L405,114.95" stroke="#fddaec" stroke-width="2" opacity="1" class="line" version="1.1" width="483" height="235" viewBox="0 0 483 235" fill="none" stroke-miterlimit="10" transform="translate(-37.90161499023438, 61.948205566406244) translate(28.0,10.0)"/>
<path aria-label="Year: 2017; Units: 2.62; Country: Russia" role="graphics-symbol" aria-roledescription="line mark" d="M45,186.9L60,185.45C75,184,105,181.1,135,177.958C165,174.817,195,171.433,225,167.808C255,164.183,285,160.317,315,156.433C345,152.55,375,148.65,390,146.7L405,144.75" stroke="#b3cde3" stroke-width="2" opacity="1" class="line" version="1.1" width="483" height="235" viewBox="0 0 483 235" fill="none" stroke-miterlimit="10" transform="translate(-37.90161499023438, 61.948205566406244) translate(28.0,10.0)"/>
<path aria-label="Year: 2017; Units: 2.86; Country: France" role="graphics-symbol" aria-roledescription="line mark" d="M45,185.7L60,184.158C75,182.617,105,179.533,135,176.35C165,173.167,195,169.883,225,166.492C255,163.1,285,159.6,315,156.15C345,152.7,375,149.3,390,147.6L405,145.9" stroke="#ffffcc" stroke-width="2" opacity="1" class="line" version="1.1" width="483" height="235" viewBox="0 0 483 235" fill="none" stroke-miterlimit="10" transform="translate(-37.90161499023438, 61.948205566406244) translate(28.0,10.0)"/>
<path aria-label="Year: 2017; Units: 2.75; Country: United Kingdom" role="graphics-symbol" aria-roledescription="line mark" d="M45,186.25L60,184.758C75,183.267,105,180.283,135,177.208C165,174.133,195,170.967,225,167.658C255,164.35,285,160.9,315,155.95C345,151,375,144.55,390,141.325L405,138.1" stroke="#f2f2f2" stroke-width="2" opacity="1" class="line" version="1.1" width="483" height="235" viewBox="0 0 483 235" fill="none" stroke-miterlimit="10" transform="translate(-37.90161499023438, 61.948205566406244) translate(28.0,10.0)"/></g></svg>