<svg version="1.1" class="marks" width="471.123046875" height="328.85546875" viewBox="0 0 571.123046875 428.85546875" xmlns="http://www.w3.org/2000/svg" xmlns:xlink="http://www.w3.org/1999/xlink"><rect width="100%" height="100%" fill="#ffffff"/>
<g transform="translate(133.79707763671874, 51.171948242187504)"><rect x="0" y="0" width="15" height="150" fill="None" transform="scale(0.6094130859375)"/>
<text class="chart-title-line" x="0" y="0" text-anchor="start" font-family="sans-serif" font-size="24" font-weight="700" fill="#0f2740" letter-spacing="0" transform="translate(19.1411962890625, 20.953051757812496)">Has Pro Cycling Cleaned
</text>
<text class="chart-title-line" x="0" y="0" text-anchor="start" font-family="sans-serif" font-size="24" font-weight="700" fill="#0f2740" letter-spacing="0" transform="translate(19.1411962890625, 20.953051757812496) translate(0.0, 27.1640625)"> Up Its Act?
</text>
<text class="chart-subtitle-line" x="0" y="0" text-anchor="start" font-family="sans-serif" font-size="13" font-weight="400" fill="#445f7c" letter-spacing="0.25" transform="translate(19.1411962890625, 20.953051757812496) translate(0.0, 54.1875)">Share of Tour de France riders who have violated
</text>
<text class="chart-subtitle-line" x="0" y="0" text-anchor="start" font-family="sans-serif" font-size="13" font-weight="400" fill="#445f7c" letter-spacing="0.25" transform="translate(19.1411962890625, 20.953051757812496) translate(0.0, 54.1875) translate(0.0, 14.7138671875)">anti-doping regulations*
</text>
<line transform="translate(-91.17403076171874, 101.08391113281249) translate(28.0,6.0) translate(0.5,200.5) translate(9,0)" x2="0" y2="5" stroke="#0f223b" stroke-opacity="0" stroke-width="1" opacity="1" class="axis-tick" pointer-events="none" version="1.1" width="488" height="231" viewBox="0 0 488 231" fill="none" stroke-miterlimit="10" role="graphics-symbol" aria-roledescription="axis" aria-label="X-axis for a discrete scale with 26 values: 1998, 1999, 2000, 2001, 2002, ending with 2023"/>
<line transform="translate(-91.17403076171874, 101.08391113281249) translate(28.0,6.0) translate(0.5,200.5) translate(26,0)" x2="0" y2="5" stroke="#0f223b" stroke-opacity="0" stroke-width="1" opacity="1" class="axis-tick" pointer-events="none" version="1.1" width="488" height="231" viewBox="0 0 488 231" fill="none" stroke-miterlimit="10" role="graphics-symbol" aria-roledescription="axis" aria-label="X-axis for a discrete scale with 26 values: 1998, 1999, 2000, 2001, 2002, ending with 2023"/>
<line transform="translate(-91.17403076171874, 101.08391113281249) translate(28.0,6.0) translate(0.5,200.5) translate(43,0)" x2="0" y2="5" stroke="#0f223b" stroke-opacity="0" stroke-width="1" opacity="1" class="axis-tick" pointer-events="none" version="1.1" width="488" height="231" viewBox="0 0 488 231" fill="none" stroke-miterlimit="10" role="graphics-symbol" aria-roledescription="axis" aria-label="X-axis for a discrete scale with 26 values: 1998, 1999, 2000, 2001, 2002, ending with 2023"/>
<line transform="translate(-91.17403076171874, 101.08391113281249) translate(28.0,6.0) translate(0.5,200.5) translate(61,0)" x2="0" y2="5" stroke="#0f223b" stroke-opacity="0" stroke-width="1" opacity="1" class="axis-tick" pointer-events="none" version="1.1" width="488" height="231" viewBox="0 0 488 231" fill="none" stroke-miterlimit="10" role="graphics-symbol" aria-roledescription="axis" aria-label="X-axis for a discrete scale with 26 values: 1998, 1999, 2000, 2001, 2002, ending with 2023"/>
<line transform="translate(-91.17403076171874, 101.08391113281249) translate(28.0,6.0) translate(0.5,200.5) translate(78,0)" x2="0" y2="5" stroke="#0f223b" stroke-opacity="0" stroke-width="1" opacity="1" class="axis-tick" pointer-events="none" version="1.1" width="488" height="231" viewBox="0 0 488 231" fill="none" stroke-miterlimit="10" role="graphics-symbol" aria-roledescription="axis" aria-label="X-axis for a discrete scale with 26 values: 1998, 1999, 2000, 2001, 2002, ending with 2023"/>
<line transform="translate(-91.17403076171874, 101.08391113281249) translate(28.0,6.0) translate(0.5,200.5) translate(95,0)" x2="0" y2="5" stroke="#0f223b" stroke-opacity="0" stroke-width="1" opacity="1" class="axis-tick" pointer-events="none" version="1.1" width="488" height="231" viewBox="0 0 488 231" fill="none" stroke-miterlimit="10" role="graphics-symbol" aria-roledescription="axis" aria-label="X-axis for a discrete scale with 26 values: 1998, 1999, 2000, 2001, 2002, ending with 2023"/>
<line transform="translate(-91.17403076171874, 101.08391113281249) translate(28.0,6.0) translate(0.5,200.5) translate(113,0)" x2="0" y2="5" stroke="#0f223b" stroke-opacity="0" stroke-width="1" opacity="1" class="axis-tick" pointer-events="none" version="1.1" width="488" height="231" viewBox="0 0 488 231" fill="none" stroke-miterlimit="10" role="graphics-symbol" aria-roledescription="axis" aria-label="X-axis for a discrete scale with 26 values: 1998, 1999, 2000, 2001, 2002, ending with 2023"/>
<line transform="translate(-91.17403076171874, 101.08391113281249) translate(28.0,6.0) translate(0.5,200.5) translate(130,0)" x2="0" y2="5" stroke="#0f223b" stroke-opacity="0" stroke-width="1" opacity="1" class="axis-tick" pointer-events="none" version="1.1" width="488" height="231" viewBox="0 0 488 231" fill="none" stroke-miterlimit="10" role="graphics-symbol" aria-roledescription="axis" aria-label="X-axis for a discrete scale with 26 values: 1998, 1999, 2000, 2001, 2002, ending with 2023"/>
<line transform="translate(-91.17403076171874, 101.08391113281249) translate(28.0,6.0) translate(0.5,200.5) translate(147,0)" x2="0" y2="5" stroke="#0f223b" stroke-opacity="0" stroke-width="1" opacity="1" class="axis-tick" pointer-events="none" version="1.1" width="488" height="231" viewBox="0 0 488 231" fill="none" stroke-miterlimit="10" role="graphics-symbol" aria-roledescription="axis" aria-label="X-axis for a discrete scale with 26 values: 1998, 1999, 2000, 2001, 2002, ending with 2023"/>
<line transform="translate(-91.17403076171874, 101.08391113281249) translate(28.0,6.0) translate(0.5,200.5) translate(164,0)" x2="0" y2="5" stroke="#0f223b" stroke-opacity="0" stroke-width="1" opacity="1" class="axis-tick" pointer-events="none" version="1.1" width="488" height="231" viewBox="0 0 488 231" fill="none" stroke-miterlimit="10" role="graphics-symbol" aria-roledescription="axis" aria-label="X-axis for a discrete scale with 26 values: 1998, 1999, 2000, 2001, 2002, ending with 2023"/>
<line transform="translate(-91.17403076171874, 101.08391113281249) translate(28.0,6.0) translate(0.5,200.5) translate(182,0)" x2="0" y2="5" stroke="#0f223b" stroke-opacity="0" stroke-width="1" opacity="1" class="axis-tick" pointer-events="none" version="1.1" width="488" height="231" viewBox="0 0 488 231" fill="none" stroke-miterlimit="10" role="graphics-symbol" aria-roledescription="axis" aria-label="X-axis for a discrete scale with 26 values: 1998, 1999, 2000, 2001, 2002, ending with 2023"/>
<line transform="translate(-91.17403076171874, 101.08391113281249) translate(28.0,6.0) translate(0.5,200.5) translate(199,0)" x2="0" y2="5" stroke="#0f223b" stroke-opacity="0" stroke-width="1" opacity="1" class="axis-tick" pointer-events="none" version="1.1" width="488" height="231" viewBox="0 0 488 231" fill="none" stroke-miterlimit="10" role="graphics-symbol" aria-roledescription="axis" aria-label="X-axis for a discrete scale with 26 values: 1998, 1999, 2000, 2001, 2002, ending with 2023"/>
<line transform="translate(-91.17403076171874, 101.08391113281249) translate(28.0,6.0) translate(0.5,200.5) translate(216,0)" x2="0" y2="5" stroke="#0f223b" stroke-opacity="0" stroke-width="1" opacity="1" class="axis-tick" pointer-events="none" version="1.1" width="488" height="231" viewBox="0 0 488 231" fill="none" stroke-miterlimit="10" role="graphics-symbol" aria-roledescription="axis" aria-label="X-axis for a discrete scale with 26 values: 1998, 1999, 2000, 2001, 2002, ending with 2023"/>
<line transform="translate(-91.17403076171874, 101.08391113281249) translate(28.0,6.0) translate(0.5,200.5) translate(234,0)" x2="0" y2="5" stroke="#0f223b" stroke-opacity="0" stroke-width="1" opacity="1" class="axis-tick" pointer-events="none" version="1.1" width="488" height="231" viewBox="0 0 488 231" fill="none" stroke-miterlimit="10" role="graphics-symbol" aria-roledescription="axis" aria-label="X-axis for a discrete scale with 26 values: 1998, 1999, 2000, 2001, 2002, ending with 2023"/>
<line transform="translate(-91.17403076171874, 101.08391113281249) translate(28.0,6.0) translate(0.5,200.5) translate(251,0)" x2="0" y2="5" stroke="#0f223b" stroke-opacity="0" stroke-width="1" opacity="1" class="axis-tick" pointer-events="none" version="1.1" width="488" height="231" viewBox="0 0 488 231" fill="none" stroke-miterlimit="10" role="graphics-symbol" aria-roledescription="axis" aria-label="X-axis for a discrete scale with 26 values: 1998, 1999, 2000, 2001, 2002, ending with 2023"/>
<line transform="translate(-91.17403076171874, 101.08391113281249) translate(28.0,6.0) translate(0.5,200.5) translate(268,0)" x2="0" y2="5" stroke="#0f223b" stroke-opacity="0" stroke-width="1" opacity="1" class="axis-tick" pointer-events="none" version="1.1" width="488" height="231" viewBox="0 0 488 231" fill="none" stroke-miterlimit="10" role="graphics-symbol" aria-roledescription="axis" aria-label="X-axis for a discrete scale with 26 values: 1998, 1999, 2000, 2001, 2002, ending with 2023"/>
<line transform="translate(-91.17403076171874, 101.08391113281249) translate(28.0,6.0) translate(0.5,200.5) translate(286,0)" x2="0" y2="5" stroke="#0f223b" stroke-opacity="0" stroke-width="1" opacity="1" class="axis-tick" pointer-events="none" version="1.1" width="488" height="231" viewBox="0 0 488 231" fill="none" stroke-miterlimit="10" role="graphics-symbol" aria-roledescription="axis" aria-label="X-axis for a discrete scale with 26 values: 1998, 1999, 2000, 2001, 2002, ending with 2023"/>
<line transform="translate(-91.17403076171874, 101.08391113281249) translate(28.0,6.0) translate(0.5,200.5) translate(303,0)" x2="0" y2="5" stroke="#0f223b" stroke-opacity="0" stroke-width="1" opacity="1" class="axis-tick" pointer-events="none" version="1.1" width="488" height="231" viewBox="0 0 488 231" fill="none" stroke-miterlimit="10" role="graphics-symbol" aria-roledescription="axis" aria-label="X-axis for a discrete scale with 26 values: 1998, 1999, 2000, 2001, 2002, ending with 2023"/>
<line transform="translate(-91.17403076171874, 101.08391113281249) translate(28.0,6.0) translate(0.5,200.5) translate(320,0)" x2="0" y2="5" stroke="#0f223b" stroke-opacity="0" stroke-width="1" opacity="1" class="axis-tick" pointer-events="none" version="1.1" width="488" height="231" viewBox="0 0 488 231" fill="none" stroke-miterlimit="10" role="graphics-symbol" aria-roledescription="axis" aria-label="X-axis for a discrete scale with 26 values: 1998, 1999, 2000, 2001, 2002, ending with 2023"/>
<line transform="translate(-91.17403076171874, 101.08391113281249) translate(28.0,6.0) translate(0.5,200.5) translate(338,0)" x2="0" y2="5" stroke="#0f223b" stroke-opacity="0" stroke-width="1" opacity="1" class="axis-tick" pointer-events="none" version="1.1" width="488" height="231" viewBox="0 0 488 231" fill="none" stroke-miterlimit="10" role="graphics-symbol" aria-roledescription="axis" aria-label="X-axis for a discrete scale with 26 values: 1998, 1999, 2000, 2001, 2002, ending with 2023"/>
<line transform="translate(-91.17403076171874, 101.08391113281249) translate(28.0,6.0) translate(0.5,200.5) translate(355,0)" x2="0" y2="5" stroke="#0f223b" stroke-opacity="0" stroke-width="1" opacity="1" class="axis-tick" pointer-events="none" version="1.1" width="488" height="231" viewBox="0 0 488 231" fill="none" stroke-miterlimit="10" role="graphics-symbol" aria-roledescription="axis" aria-label="X-axis for a discrete scale with 26 values: 1998, 1999, 2000, 2001, 2002, ending with 2023"/>
<line transform="translate(-91.17403076171874, 101.08391113281249) translate(28.0,6.0) translate(0.5,200.5) translate(372,0)" x2="0" y2="5" stroke="#0f223b" stroke-opacity="0" stroke-width="1" opacity="1" class="axis-tick" pointer-events="none" version="1.1" width="488" height="231" viewBox="0 0 488 231" fill="none" stroke-miterlimit="10" role="graphics-symbol" aria-roledescription="axis" aria-label="X-axis for a discrete scale with 26 values: 1998, 1999, 2000, 2001, 2002, ending with 2023"/>
<line transform="translate(-91.17403076171874, 101.08391113281249) translate(28.0,6.0) translate(0.5,200.5) translate(389,0)" x2="0" y2="5" stroke="#0f223b" stroke-opacity="0" stroke-width="1" opacity="1" class="axis-tick" pointer-events="none" version="1.1" width="488" height="231" viewBox="0 0 488 231" fill="none" stroke-miterlimit="10" role="graphics-symbol" aria-roledescription="axis" aria-label="X-axis for a discrete scale with 26 values: 1998, 1999, 2000, 2001, 2002, ending with 2023"/>
<line transform="translate(-91.17403076171874, 101.08391113281249) translate(28.0,6.0) translate(0.5,200.5) translate(407,0)" x2="0" y2="5" stroke="#0f223b" stroke-opacity="0" stroke-width="1" opacity="1" class="axis-tick" pointer-events="none" version="1.1" width="488" height="231" viewBox="0 0 488 231" fill="none" stroke-miterlimit="10" role="graphics-symbol" aria-roledescription="axis" aria-label="X-axis for a discrete scale with 26 values: 1998, 1999, 2000, 2001, 2002, ending with 2023"/>
<line transform="translate(-91.17403076171874, 101.08391113281249) translate(28.0,6.0) translate(0.5,200.5) translate(424,0)" x2="0" y2="5" stroke="#0f223b" stroke-opacity="0" stroke-width="1" opacity="1" class="axis-tick" pointer-events="none" version="1.1" width="488" height="231" viewBox="0 0 488 231" fill="none" stroke-miterlimit="10" role="graphics-symbol" aria-roledescription="axis" aria-label="X-axis for a discrete scale with 26 values: 1998, 1999, 2000, 2001, 2002, ending with 2023"/>
<line transform="translate(-91.17403076171874, 101.08391113281249) translate(28.0,6.0) translate(0.5,200.5) translate(441,0)" x2="0" y2="5" stroke="#0f223b" stroke-opacity="0" stroke-width="1" opacity="1" class="axis-tick" pointer-events="none" version="1.1" width="488" height="231" viewBox="0 0 488 231" fill="none" stroke-miterlimit="10" role="graphics-symbol" aria-roledescription="axis" aria-label="X-axis for a discrete scale with 26 values: 1998, 1999, 2000, 2001, 2002, ending with 2023"/>
<text text-anchor="middle" transform="translate(-91.17403076171874, 101.08391113281249) translate(28.0,6.0) translate(0.5,200.5) translate(0.0,0.0) translate(8.65384615384616,18)" font-family="sans-serif" font-size="10.0px" fill="#000d2a" opacity="1" class="axis-label" pointer-events="none" version="1.1" width="488" height="231" viewBox="0 0 488 231" stroke-miterlimit="10" role="graphics-symbol" aria-roledescription="axis" aria-label="X-axis for a discrete scale with 26 values: 1998, 1999, 2000, 2001, 2002, ending with 2023">'98
</text>
<text text-anchor="middle" transform="translate(-91.17403076171874, 101.08391113281249) translate(28.0,6.0) translate(0.5,200.5) translate(0.0,0.0) translate(25.961538461538467,18)" font-family="sans-serif" font-size="10.0px" fill="#000d2a" opacity="1" class="axis-label" pointer-events="none" version="1.1" width="488" height="231" viewBox="0 0 488 231" stroke-miterlimit="10" role="graphics-symbol" aria-roledescription="axis" aria-label="X-axis for a discrete scale with 26 values: 1998, 1999, 2000, 2001, 2002, ending with 2023">'99
</text>
<text text-anchor="middle" transform="translate(-91.17403076171874, 101.08391113281249) translate(28.0,6.0) translate(0.5,200.5) translate(0.0,0.0) translate(43.269230769230774,18)" font-family="sans-serif" font-size="10.0px" fill="#000d2a" opacity="1" class="axis-label" pointer-events="none" version="1.1" width="488" height="231" viewBox="0 0 488 231" stroke-miterlimit="10" role="graphics-symbol" aria-roledescription="axis" aria-label="X-axis for a discrete scale with 26 values: 1998, 1999, 2000, 2001, 2002, ending with 2023">'00
</text>
<text text-anchor="middle" transform="translate(-91.17403076171874, 101.08391113281249) translate(28.0,6.0) translate(0.5,200.5) translate(0.0,0.0) translate(60.57692307692308,18)" font-family="sans-serif" font-size="10.0px" fill="#000d2a" opacity="1" class="axis-label" pointer-events="none" version="1.1" width="488" height="231" viewBox="0 0 488 231" stroke-miterlimit="10" role="graphics-symbol" aria-roledescription="axis" aria-label="X-axis for a discrete scale with 26 values: 1998, 1999, 2000, 2001, 2002, ending with 2023">'01
</text>
<text text-anchor="middle" transform="translate(-91.17403076171874, 101.08391113281249) translate(28.0,6.0) translate(0.5,200.5) translate(0.0,0.0) translate(77.88461538461539,18)" font-family="sans-serif" font-size="10.0px" fill="#000d2a" opacity="1" class="axis-label" pointer-events="none" version="1.1" width="488" height="231" viewBox="0 0 488 231" stroke-miterlimit="10" role="graphics-symbol" aria-roledescription="axis" aria-label="X-axis for a discrete scale with 26 values: 1998, 1999, 2000, 2001, 2002, ending with 2023">'02
</text>
<text text-anchor="middle" transform="translate(-91.17403076171874, 101.08391113281249) translate(28.0,6.0) translate(0.5,200.5) translate(0.0,0.0) translate(95.1923076923077,18)" font-family="sans-serif" font-size="10.0px" fill="#000d2a" opacity="1" class="axis-label" pointer-events="none" version="1.1" width="488" height="231" viewBox="0 0 488 231" stroke-miterlimit="10" role="graphics-symbol" aria-roledescription="axis" aria-label="X-axis for a discrete scale with 26 values: 1998, 1999, 2000, 2001, 2002, ending with 2023">'03
</text>
<text text-anchor="middle" transform="translate(-91.17403076171874, 101.08391113281249) translate(28.0,6.0) translate(0.5,200.5) translate(0.0,0.0) translate(112.5,18)" font-family="sans-serif" font-size="10.0px" fill="#000d2a" opacity="1" class="axis-label" pointer-events="none" version="1.1" width="488" height="231" viewBox="0 0 488 231" stroke-miterlimit="10" role="graphics-symbol" aria-roledescription="axis" aria-label="X-axis for a discrete scale with 26 values: 1998, 1999, 2000, 2001, 2002, ending with 2023">'04
</text>
<text text-anchor="middle" transform="translate(-91.17403076171874, 101.08391113281249) translate(28.0,6.0) translate(0.5,200.5) translate(0.0,0.0) translate(129.80769230769232,18)" font-family="sans-serif" font-size="10.0px" fill="#000d2a" opacity="1" class="axis-label" pointer-events="none" version="1.1" width="488" height="231" viewBox="0 0 488 231" stroke-miterlimit="10" role="graphics-symbol" aria-roledescription="axis" aria-label="X-axis for a discrete scale with 26 values: 1998, 1999, 2000, 2001, 2002, ending with 2023">'05
</text>
<text text-anchor="middle" transform="translate(-91.17403076171874, 101.08391113281249) translate(28.0,6.0) translate(0.5,200.5) translate(0.0,0.0) translate(147.1153846153846,18)" font-family="sans-serif" font-size="10.0px" fill="#000d2a" opacity="1" class="axis-label" pointer-events="none" version="1.1" width="488" height="231" viewBox="0 0 488 231" stroke-miterlimit="10" role="graphics-symbol" aria-roledescription="axis" aria-label="X-axis for a discrete scale with 26 values: 1998, 1999, 2000, 2001, 2002, ending with 2023">'06
</text>
<text text-anchor="middle" transform="translate(-91.17403076171874, 101.08391113281249) translate(28.0,6.0) translate(0.5,200.5) translate(0.0,0.0) translate(164.42307692307693,18)" font-family="sans-serif" font-size="10.0px" fill="#000d2a" opacity="1" class="axis-label" pointer-events="none" version="1.1" width="488" height="231" viewBox="0 0 488 231" stroke-miterlimit="10" role="graphics-symbol" aria-roledescription="axis" aria-label="X-axis for a discrete scale with 26 values: 1998, 1999, 2000, 2001, 2002, ending with 2023">'07
</text>
<text text-anchor="middle" transform="translate(-91.17403076171874, 101.08391113281249) translate(28.0,6.0) translate(0.5,200.5) translate(0.0,0.0) translate(181.73076923076923,18)" font-family="sans-serif" font-size="10.0px" fill="#000d2a" opacity="1" class="axis-label" pointer-events="none" version="1.1" width="488" height="231" viewBox="0 0 488 231" stroke-miterlimit="10" role="graphics-symbol" aria-roledescription="axis" aria-label="X-axis for a discrete scale with 26 values: 1998, 1999, 2000, 2001, 2002, ending with 2023">'08
</text>
<text text-anchor="middle" transform="translate(-91.17403076171874, 101.08391113281249) translate(28.0,6.0) translate(0.5,200.5) translate(0.0,0.0) translate(199.03846153846152,18)" font-family="sans-serif" font-size="10.0px" fill="#000d2a" opacity="1" class="axis-label" pointer-events="none" version="1.1" width="488" height="231" viewBox="0 0 488 231" stroke-miterlimit="10" role="graphics-symbol" aria-roledescription="axis" aria-label="X-axis for a discrete scale with 26 values: 1998, 1999, 2000, 2001, 2002, ending with 2023">'09
</text>
<text text-anchor="middle" transform="translate(-91.17403076171874, 101.08391113281249) translate(28.0,6.0) translate(0.5,200.5) translate(0.0,0.0) translate(216.34615384615384,18)" font-family="sans-serif" font-size="10.0px" fill="#000d2a" opacity="1" class="axis-label" pointer-events="none" version="1.1" width="488" height="231" viewBox="0 0 488 231" stroke-miterlimit="10" role="graphics-symbol" aria-roledescription="axis" aria-label="X-axis for a discrete scale with 26 values: 1998, 1999, 2000, 2001, 2002, ending with 2023">'10
</text>
<text text-anchor="middle" transform="translate(-91.17403076171874, 101.08391113281249) translate(28.0,6.0) translate(0.5,200.5) translate(0.0,0.0) translate(233.65384615384616,18)" font-family="sans-serif" font-size="10.0px" fill="#000d2a" opacity="1" class="axis-label" pointer-events="none" version="1.1" width="488" height="231" viewBox="0 0 488 231" stroke-miterlimit="10" role="graphics-symbol" aria-roledescription="axis" aria-label="X-axis for a discrete scale with 26 values: 1998, 1999, 2000, 2001, 2002, ending with 2023">'11
</text>
<text text-anchor="middle" transform="translate(-91.17403076171874, 101.08391113281249) translate(28.0,6.0) translate(0.5,200.5) translate(0.0,0.0) translate(250.96153846153845,18)" font-family="sans-serif" font-size="10.0px" fill="#000d2a" opacity="1" class="axis-label" pointer-events="none" version="1.1" width="488" height="231" viewBox="0 0 488 231" stroke-miterlimit="10" role="graphics-symbol" aria-roledescription="axis" aria-label="X-axis for a discrete scale with 26 values: 1998, 1999, 2000, 2001, 2002, ending with 2023">'12
</text>
<text text-anchor="middle" transform="translate(-91.17403076171874, 101.08391113281249) translate(28.0,6.0) translate(0.5,200.5) translate(0.0,0.0) translate(268.2692307692307,18)" font-family="sans-serif" font-size="10.0px" fill="#000d2a" opacity="1" class="axis-label" pointer-events="none" version="1.1" width="488" height="231" viewBox="0 0 488 231" stroke-miterlimit="10" role="graphics-symbol" aria-roledescription="axis" aria-label="X-axis for a discrete scale with 26 values: 1998, 1999, 2000, 2001, 2002, ending with 2023">'13
</text>
<text text-anchor="middle" transform="translate(-91.17403076171874, 101.08391113281249) translate(28.0,6.0) translate(0.5,200.5) translate(0.0,0.0) translate(285.5769230769231,18)" font-family="sans-serif" font-size="10.0px" fill="#000d2a" opacity="1" class="axis-label" pointer-events="none" version="1.1" width="488" height="231" viewBox="0 0 488 231" stroke-miterlimit="10" role="graphics-symbol" aria-roledescription="axis" aria-label="X-axis for a discrete scale with 26 values: 1998, 1999, 2000, 2001, 2002, ending with 2023">'14
</text>
<text text-anchor="middle" transform="translate(-91.17403076171874, 101.08391113281249) translate(28.0,6.0) translate(0.5,200.5) translate(0.0,0.0) translate(302.88461538461536,18)" font-family="sans-serif" font-size="10.0px" fill="#000d2a" opacity="1" class="axis-label" pointer-events="none" version="1.1" width="488" height="231" viewBox="0 0 488 231" stroke-miterlimit="10" role="graphics-symbol" aria-roledescription="axis" aria-label="X-axis for a discrete scale with 26 values: 1998, 1999, 2000, 2001, 2002, ending with 2023">'15
</text>
<text text-anchor="middle" transform="translate(-91.17403076171874, 101.08391113281249) translate(28.0,6.0) translate(0.5,200.5) translate(0.0,0.0) translate(320.19230769230774,18)" font-family="sans-serif" font-size="10.0px" fill="#000d2a" opacity="1" class="axis-label" pointer-events="none" version="1.1" width="488" height="231" viewBox="0 0 488 231" stroke-miterlimit="10" role="graphics-symbol" aria-roledescription="axis" aria-label="X-axis for a discrete scale with 26 values: 1998, 1999, 2000, 2001, 2002, ending with 2023">'16
</text>
<text text-anchor="middle" transform="translate(-91.17403076171874, 101.08391113281249) translate(28.0,6.0) translate(0.5,200.5) translate(0.0,0.0) translate(337.5,18)" font-family="sans-serif" font-size="10.0px" fill="#000d2a" opacity="1" class="axis-label" pointer-events="none" version="1.1" width="488" height="231" viewBox="0 0 488 231" stroke-miterlimit="10" role="graphics-symbol" aria-roledescription="axis" aria-label="X-axis for a discrete scale with 26 values: 1998, 1999, 2000, 2001, 2002, ending with 2023">'17
</text>
<text text-anchor="middle" transform="translate(-91.17403076171874, 101.08391113281249) translate(28.0,6.0) translate(0.5,200.5) translate(0.0,0.0) translate(354.80769230769226,18)" font-family="sans-serif" font-size="10.0px" fill="#000d2a" opacity="1" class="axis-label" pointer-events="none" version="1.1" width="488" height="231" viewBox="0 0 488 231" stroke-miterlimit="10" role="graphics-symbol" aria-roledescription="axis" aria-label="X-axis for a discrete scale with 26 values: 1998, 1999, 2000, 2001, 2002, ending with 2023">'18
</text>
<text text-anchor="middle" transform="translate(-91.17403076171874, 101.08391113281249) translate(28.0,6.0) translate(0.5,200.5) translate(0.0,0.0) translate(372.11538461538464,18)" font-family="sans-serif" font-size="10.0px" fill="#000d2a" opacity="1" class="axis-label" pointer-events="none" version="1.1" width="488" height="231" viewBox="0 0 488 231" stroke-miterlimit="10" role="graphics-symbol" aria-roledescription="axis" aria-label="X-axis for a discrete scale with 26 values: 1998, 1999, 2000, 2001, 2002, ending with 2023">'19
</text>
<text text-anchor="middle" transform="translate(-91.17403076171874, 101.08391113281249) translate(28.0,6.0) translate(0.5,200.5) translate(0.0,0.0) translate(389.4230769230769,18)" font-family="sans-serif" font-size="10.0px" fill="#000d2a" opacity="1" class="axis-label" pointer-events="none" version="1.1" width="488" height="231" viewBox="0 0 488 231" stroke-miterlimit="10" role="graphics-symbol" aria-roledescription="axis" aria-label="X-axis for a discrete scale with 26 values: 1998, 1999, 2000, 2001, 2002, ending with 2023">'20
</text>
<text text-anchor="middle" transform="translate(-91.17403076171874, 101.08391113281249) translate(28.0,6.0) translate(0.5,200.5) translate(0.0,0.0) translate(406.73076923076917,18)" font-family="sans-serif" font-size="10.0px" fill="#000d2a" opacity="1" class="axis-label" pointer-events="none" version="1.1" width="488" height="231" viewBox="0 0 488 231" stroke-miterlimit="10" role="graphics-symbol" aria-roledescription="axis" aria-label="X-axis for a discrete scale with 26 values: 1998, 1999, 2000, 2001, 2002, ending with 2023">'21
</text>
<text text-anchor="middle" transform="translate(-91.17403076171874, 101.08391113281249) translate(28.0,6.0) translate(0.5,200.5) translate(0.0,0.0) translate(424.03846153846155,18)" font-family="sans-serif" font-size="10.0px" fill="#000d2a" opacity="1" class="axis-label" pointer-events="none" version="1.1" width="488" height="231" viewBox="0 0 488 231" stroke-miterlimit="10" role="graphics-symbol" aria-roledescription="axis" aria-label="X-axis for a discrete scale with 26 values: 1998, 1999, 2000, 2001, 2002, ending with 2023">'22
</text>
<text text-anchor="middle" transform="translate(-91.17403076171874, 101.08391113281249) translate(28.0,6.0) translate(0.5,200.5) translate(0.0,0.0) translate(441.3461538461538,18)" font-family="sans-serif" font-size="10.0px" fill="#000d2a" opacity="1" class="axis-label" pointer-events="none" version="1.1" width="488" height="231" viewBox="0 0 488 231" stroke-miterlimit="10" role="graphics-symbol" aria-roledescription="axis" aria-label="X-axis for a discrete scale with 26 values: 1998, 1999, 2000, 2001, 2002, ending with 2023">'23
</text>
<line transform="translate(-91.17403076171874, 101.08391113281249) translate(28.0,6.0) translate(0.5,200.5) translate(0,0)" x2="450" y2="0" stroke="#0f223b" stroke-opacity="0" stroke-width="1" opacity="1" class="axis-domain" pointer-events="none" version="1.1" width="488" height="231" viewBox="0 0 488 231" fill="none" stroke-miterlimit="10" role="graphics-symbol" aria-roledescription="axis" aria-label="X-axis for a discrete scale with 26 values: 1998, 1999, 2000, 2001, 2002, ending with 2023"/>
<line transform="translate(-91.17403076171874, 101.08391113281249) translate(28.0,6.0) translate(0.5,0.5) translate(0,200)" x2="-5" y2="0" stroke="#0f223b" stroke-opacity="0" stroke-width="1" opacity="1" class="axis-tick" pointer-events="none" version="1.1" width="488" height="231" viewBox="0 0 488 231" fill="none" stroke-miterlimit="10" role="graphics-symbol" aria-roledescription="axis" aria-label="Y-axis for a linear scale with values from 0 to 55"/>
<line transform="translate(-91.17403076171874, 101.08391113281249) translate(28.0,6.0) translate(0.5,0.5) translate(0,164)" x2="-5" y2="0" stroke="#0f223b" stroke-opacity="0" stroke-width="1" opacity="1" class="axis-tick" pointer-events="none" version="1.1" width="488" height="231" viewBox="0 0 488 231" fill="none" stroke-miterlimit="10" role="graphics-symbol" aria-roledescription="axis" aria-label="Y-axis for a linear scale with values from 0 to 55"/>
<line transform="translate(-91.17403076171874, 101.08391113281249) translate(28.0,6.0) translate(0.5,0.5) translate(0,127)" x2="-5" y2="0" stroke="#0f223b" stroke-opacity="0" stroke-width="1" opacity="1" class="axis-tick" pointer-events="none" version="1.1" width="488" height="231" viewBox="0 0 488 231" fill="none" stroke-miterlimit="10" role="graphics-symbol" aria-roledescription="axis" aria-label="Y-axis for a linear scale with values from 0 to 55"/>
<line transform="translate(-91.17403076171874, 101.08391113281249) translate(28.0,6.0) translate(0.5,0.5) translate(0,91)" x2="-5" y2="0" stroke="#0f223b" stroke-opacity="0" stroke-width="1" opacity="1" class="axis-tick" pointer-events="none" version="1.1" width="488" height="231" viewBox="0 0 488 231" fill="none" stroke-miterlimit="10" role="graphics-symbol" aria-roledescription="axis" aria-label="Y-axis for a linear scale with values from 0 to 55"/>
<line transform="translate(-91.17403076171874, 101.08391113281249) translate(28.0,6.0) translate(0.5,0.5) translate(0,55)" x2="-5" y2="0" stroke="#0f223b" stroke-opacity="0" stroke-width="1" opacity="1" class="axis-tick" pointer-events="none" version="1.1" width="488" height="231" viewBox="0 0 488 231" fill="none" stroke-miterlimit="10" role="graphics-symbol" aria-roledescription="axis" aria-label="Y-axis for a linear scale with values from 0 to 55"/>
<line transform="translate(-91.17403076171874, 101.08391113281249) translate(28.0,6.0) translate(0.5,0.5) translate(0,18)" x2="-5" y2="0" stroke="#0f223b" stroke-opacity="0" stroke-width="1" opacity="1" class="axis-tick" pointer-events="none" version="1.1" width="488" height="231" viewBox="0 0 488 231" fill="none" stroke-miterlimit="10" role="graphics-symbol" aria-roledescription="axis" aria-label="Y-axis for a linear scale with values from 0 to 55"/>
<text text-anchor="end" transform="translate(-91.17403076171874, 101.08391113281249) translate(28.0,6.0) translate(0.5,0.5) translate(-10,203)" font-family="sans-serif" font-size="10px" fill="#000d2a" opacity="1" class="axis-label" pointer-events="none" version="1.1" width="488" height="231" viewBox="0 0 488 231" stroke-miterlimit="10" role="graphics-symbol" aria-roledescription="axis" aria-label="Y-axis for a linear scale with values from 0 to 55">0
</text>
<text text-anchor="end" transform="translate(-91.17403076171874, 101.08391113281249) translate(28.0,6.0) translate(0.5,0.5) translate(-10,166.63636363636363)" font-family="sans-serif" font-size="10px" fill="#000d2a" opacity="1" class="axis-label" pointer-events="none" version="1.1" width="488" height="231" viewBox="0 0 488 231" stroke-miterlimit="10" role="graphics-symbol" aria-roledescription="axis" aria-label="Y-axis for a linear scale with values from 0 to 55">10
</text>
<text text-anchor="end" transform="translate(-91.17403076171874, 101.08391113281249) translate(28.0,6.0) translate(0.5,0.5) translate(-10,130.27272727272725)" font-family="sans-serif" font-size="10px" fill="#000d2a" opacity="1" class="axis-label" pointer-events="none" version="1.1" width="488" height="231" viewBox="0 0 488 231" stroke-miterlimit="10" role="graphics-symbol" aria-roledescription="axis" aria-label="Y-axis for a linear scale with values from 0 to 55">20
</text>
<text text-anchor="end" transform="translate(-91.17403076171874, 101.08391113281249) translate(28.0,6.0) translate(0.5,0.5) translate(-10,93.90909090909092)" font-family="sans-serif" font-size="10px" fill="#000d2a" opacity="1" class="axis-label" pointer-events="none" version="1.1" width="488" height="231" viewBox="0 0 488 231" stroke-miterlimit="10" role="graphics-symbol" aria-roledescription="axis" aria-label="Y-axis for a linear scale with values from 0 to 55">30
</text>
<text text-anchor="end" transform="translate(-91.17403076171874, 101.08391113281249) translate(28.0,6.0) translate(0.5,0.5) translate(-10,57.54545454545454)" font-family="sans-serif" font-size="10px" fill="#000d2a" opacity="1" class="axis-label" pointer-events="none" version="1.1" width="488" height="231" viewBox="0 0 488 231" stroke-miterlimit="10" role="graphics-symbol" aria-roledescription="axis" aria-label="Y-axis for a linear scale with values from 0 to 55">40
</text>
<text text-anchor="end" transform="translate(-91.17403076171874, 101.08391113281249) translate(28.0,6.0) translate(0.5,0.5) translate(-10,21.181818181818187)" font-family="sans-serif" font-size="10px" fill="#000d2a" opacity="1" class="axis-label" pointer-events="none" version="1.1" width="488" height="231" viewBox="0 0 488 231" stroke-miterlimit="10" role="graphics-symbol" aria-roledescription="axis" aria-label="Y-axis for a linear scale with values from 0 to 55">50
</text>
<line transform="translate(-91.17403076171874, 101.08391113281249) translate(28.0,6.0) translate(0.5,0.5) translate(0,200)" x2="0" y2="-200" stroke="#0f223b" stroke-opacity="0" stroke-width="1" opacity="1" class="axis-domain" pointer-events="none" version="1.1" width="488" height="231" viewBox="0 0 488 231" fill="none" stroke-miterlimit="10" role="graphics-symbol" aria-roledescription="axis" aria-label="Y-axis for a linear scale with values from 0 to 55"/>
<path aria-label="Year: 1998; Violations: 54.5" role="graphics-symbol" aria-roledescription="line mark" d="M8.654,1.818L17.308,1.818L17.308,18.182L34.615,18.182L34.615,25.455L51.923,25.455L51.923,43.636L69.231,43.636L69.231,32.727L86.538,32.727L86.538,36.364L103.846,36.364L103.846,54.545L121.154,54.545L121.154,61.818L138.462,61.818L138.462,87.273L155.769,87.273L155.769,105.455L173.077,105.455L173.077,112.727L190.385,112.727L190.385,123.636L207.692,123.636L207.692,109.091L225,109.091L225,138.182L242.308,138.182L242.308,156.364L259.615,156.364L259.615,156.364L276.923,156.364L276.923,160L294.231,160L294.231,163.636L311.538,163.636L311.538,167.273L328.846,167.273L328.846,174.545L346.154,174.545L346.154,176.364L363.462,176.364L363.462,181.818L380.769,181.818L380.769,183.636L398.077,183.636L398.077,185.455L415.385,185.455L415.385,186.182L432.692,186.182L432.692,187.636L441.346,187.636" stroke="#4c78a8" stroke-width="2" opacity="1" class="line" version="1.1" width="488" height="231" viewBox="0 0 488 231" fill="none" stroke-miterlimit="10" transform="translate(-91.17403076171874, 101.08391113281249) translate(28.0,6.0)"/></g></svg>