<svg version="1.1" class="marks" width="471.123046875" height="328.85546875" viewBox="0 0 571.123046875 428.85546875" xmlns="http://www.w3.org/2000/svg" xmlns:xlink="http://www.w3.org/1999/xlink"><rect width="100%" height="100%" fill="#ffffff"/>
<g transform="translate(117.61690185546874, 51.171948242187504)"><rect x="0" y="0" width="15" height="150" fill="#fbb4ae" transform="scale(0.6094130859375)"/>
<text class="chart-title-line" x="0" y="0" text-anchor="start" font-family="sans-serif" font-size="24" font-weight="700" fill="#0f2740" letter-spacing="0" transform="translate(19.1411962890625, 20.953051757812496)">Korea and Japan: Unequal
</text>
<text class="chart-title-line" x="0" y="0" text-anchor="start" font-family="sans-serif" font-size="24" font-weight="700" fill="#0f2740" letter-spacing="0" transform="translate(19.1411962890625, 20.953051757812496) translate(0.0, 27.1640625)">Trade Partners?
</text>
<text class="chart-subtitle-line" x="0" y="0" text-anchor="start" font-family="sans-serif" font-size="13" font-weight="400" fill="#445f7c" letter-spacing="0.25" transform="translate(19.1411962890625, 20.953051757812496) translate(0.0, 54.1875)">Total exports from Korea to Japan/from Japan to Korea
</text>
<text class="chart-subtitle-line" x="0" y="0" text-anchor="start" font-family="sans-serif" font-size="13" font-weight="400" fill="#445f7c" letter-spacing="0.25" transform="translate(19.1411962890625, 20.953051757812496) translate(0.0, 54.1875) translate(0.0, 14.7138671875)">between 1990 and 2018
</text>
<line transform="translate(-74.99385498046874, 102.08391113281249) translate(28.0,5.0) translate(0.5,200.5) translate(15,0)" x2="0" y2="5" stroke="#0f223b" stroke-opacity="0" stroke-width="1" opacity="1" class="axis-tick" pointer-events="none" version="1.1" width="483" height="230" viewBox="0 0 483 230" fill="none" stroke-miterlimit="10" role="graphics-symbol" aria-roledescription="axis" aria-label="X-axis for a discrete scale with 15 values: 1990, 1992, 1994, 1996, 1998, ending with 2018"/>
<line transform="translate(-74.99385498046874, 102.08391113281249) translate(28.0,5.0) translate(0.5,200.5) translate(45,0)" x2="0" y2="5" stroke="#0f223b" stroke-opacity="0" stroke-width="1" opacity="1" class="axis-tick" pointer-events="none" version="1.1" width="483" height="230" viewBox="0 0 483 230" fill="none" stroke-miterlimit="10" role="graphics-symbol" aria-roledescription="axis" aria-label="X-axis for a discrete scale with 15 values: 1990, 1992, 1994, 1996, 1998, ending with 2018"/>
<line transform="translate(-74.99385498046874, 102.08391113281249) translate(28.0,5.0) translate(0.5,200.5) translate(75,0)" x2="0" y2="5" stroke="#0f223b" stroke-opacity="0" stroke-width="1" opacity="1" class="axis-tick" pointer-events="none" version="1.1" width="483" height="230" viewBox="0 0 483 230" fill="none" stroke-miterlimit="10" role="graphics-symbol" aria-roledescription="axis" aria-label="X-axis for a discrete scale with 15 values: 1990, 1992, 1994, 1996, 1998, ending with 2018"/>
<line transform="translate(-74.99385498046874, 102.08391113281249) translate(28.0,5.0) translate(0.5,200.5) translate(105,0)" x2="0" y2="5" stroke="#0f223b" stroke-opacity="0" stroke-width="1" opacity="1" class="axis-tick" pointer-events="none" version="1.1" width="483" height="230" viewBox="0 0 483 230" fill="none" stroke-miterlimit="10" role="graphics-symbol" aria-roledescription="axis" aria-label="X-axis for a discrete scale with 15 values: 1990, 1992, 1994, 1996, 1998, ending with 2018"/>
<line transform="translate(-74.99385498046874, 102.08391113281249) translate(28.0,5.0) translate(0.5,200.5) translate(135,0)" x2="0" y2="5" stroke="#0f223b" stroke-opacity="0" stroke-width="1" opacity="1" class="axis-tick" pointer-events="none" version="1.1" width="483" height="230" viewBox="0 0 483 230" fill="none" stroke-miterlimit="10" role="graphics-symbol" aria-roledescription="axis" aria-label="X-axis for a discrete scale with 15 values: 1990, 1992, 1994, 1996, 1998, ending with 2018"/>
<line transform="translate(-74.99385498046874, 102.08391113281249) translate(28.0,5.0) translate(0.5,200.5) translate(165,0)" x2="0" y2="5" stroke="#0f223b" stroke-opacity="0" stroke-width="1" opacity="1" class="axis-tick" pointer-events="none" version="1.1" width="483" height="230" viewBox="0 0 483 230" fill="none" stroke-miterlimit="10" role="graphics-symbol" aria-roledescription="axis" aria-label="X-axis for a discrete scale with 15 values: 1990, 1992, 1994, 1996, 1998, ending with 2018"/>
<line transform="translate(-74.99385498046874, 102.08391113281249) translate(28.0,5.0) translate(0.5,200.5) translate(195,0)" x2="0" y2="5" stroke="#0f223b" stroke-opacity="0" stroke-width="1" opacity="1" class="axis-tick" pointer-events="none" version="1.1" width="483" height="230" viewBox="0 0 483 230" fill="none" stroke-miterlimit="10" role="graphics-symbol" aria-roledescription="axis" aria-label="X-axis for a discrete scale with 15 values: 1990, 1992, 1994, 1996, 1998, ending with 2018"/>
<line transform="translate(-74.99385498046874, 102.08391113281249) translate(28.0,5.0) translate(0.5,200.5) translate(225,0)" x2="0" y2="5" stroke="#0f223b" stroke-opacity="0" stroke-width="1" opacity="1" class="axis-tick" pointer-events="none" version="1.1" width="483" height="230" viewBox="0 0 483 230" fill="none" stroke-miterlimit="10" role="graphics-symbol" aria-roledescription="axis" aria-label="X-axis for a discrete scale with 15 values: 1990, 1992, 1994, 1996, 1998, ending with 2018"/>
<line transform="translate(-74.99385498046874, 102.08391113281249) translate(28.0,5.0) translate(0.5,200.5) translate(255,0)" x2="0" y2="5" stroke="#0f223b" stroke-opacity="0" stroke-width="1" opacity="1" class="axis-tick" pointer-events="none" version="1.1" width="483" height="230" viewBox="0 0 483 230" fill="none" stroke-miterlimit="10" role="graphics-symbol" aria-roledescription="axis" aria-label="X-axis for a discrete scale with 15 values: 1990, 1992, 1994, 1996, 1998, ending with 2018"/>
<line transform="translate(-74.99385498046874, 102.08391113281249) translate(28.0,5.0) translate(0.5,200.5) translate(285,0)" x2="0" y2="5" stroke="#0f223b" stroke-opacity="0" stroke-width="1" opacity="1" class="axis-tick" pointer-events="none" version="1.1" width="483" height="230" viewBox="0 0 483 230" fill="none" stroke-miterlimit="10" role="graphics-symbol" aria-roledescription="axis" aria-label="X-axis for a discrete scale with 15 values: 1990, 1992, 1994, 1996, 1998, ending with 2018"/>
<line transform="translate(-74.99385498046874, 102.08391113281249) translate(28.0,5.0) translate(0.5,200.5) translate(315,0)" x2="0" y2="5" stroke="#0f223b" stroke-opacity="0" stroke-width="1" opacity="1" class="axis-tick" pointer-events="none" version="1.1" width="483" height="230" viewBox="0 0 483 230" fill="none" stroke-miterlimit="10" role="graphics-symbol" aria-roledescription="axis" aria-label="X-axis for a discrete scale with 15 values: 1990, 1992, 1994, 1996, 1998, ending with 2018"/>
<line transform="translate(-74.99385498046874, 102.08391113281249) translate(28.0,5.0) translate(0.5,200.5) translate(345,0)" x2="0" y2="5" stroke="#0f223b" stroke-opacity="0" stroke-width="1" opacity="1" class="axis-tick" pointer-events="none" version="1.1" width="483" height="230" viewBox="0 0 483 230" fill="none" stroke-miterlimit="10" role="graphics-symbol" aria-roledescription="axis" aria-label="X-axis for a discrete scale with 15 values: 1990, 1992, 1994, 1996, 1998, ending with 2018"/>
<line transform="translate(-74.99385498046874, 102.08391113281249) translate(28.0,5.0) translate(0.5,200.5) translate(375,0)" x2="0" y2="5" stroke="#0f223b" stroke-opacity="0" stroke-width="1" opacity="1" class="axis-tick" pointer-events="none" version="1.1" width="483" height="230" viewBox="0 0 483 230" fill="none" stroke-miterlimit="10" role="graphics-symbol" aria-roledescription="axis" aria-label="X-axis for a discrete scale with 15 values: 1990, 1992, 1994, 1996, 1998, ending with 2018"/>
<line transform="translate(-74.99385498046874, 102.08391113281249) translate(28.0,5.0) translate(0.5,200.5) translate(405,0)" x2="0" y2="5" stroke="#0f223b" stroke-opacity="0" stroke-width="1" opacity="1" class="axis-tick" pointer-events="none" version="1.1" width="483" height="230" viewBox="0 0 483 230" fill="none" stroke-miterlimit="10" role="graphics-symbol" aria-roledescription="axis" aria-label="X-axis for a discrete scale with 15 values: 1990, 1992, 1994, 1996, 1998, ending with 2018"/>
<line transform="translate(-74.99385498046874, 102.08391113281249) translate(28.0,5.0) translate(0.5,200.5) translate(435,0)" x2="0" y2="5" stroke="#0f223b" stroke-opacity="0" stroke-width="1" opacity="1" class="axis-tick" pointer-events="none" version="1.1" width="483" height="230" viewBox="0 0 483 230" fill="none" stroke-miterlimit="10" role="graphics-symbol" aria-roledescription="axis" aria-label="X-axis for a discrete scale with 15 values: 1990, 1992, 1994, 1996, 1998, ending with 2018"/>
<text text-anchor="middle" transform="translate(-74.99385498046874, 102.08391113281249) translate(28.0,5.0) translate(0.5,200.5) translate(0.0,0.0) translate(15,18)" font-family="sans-serif" font-size="10.0px" fill="#000d2a" opacity="1" class="axis-label" pointer-events="none" version="1.1" width="483" height="230" viewBox="0 0 483 230" stroke-miterlimit="10" role="graphics-symbol" aria-roledescription="axis" aria-label="X-axis for a discrete scale with 15 values: 1990, 1992, 1994, 1996, 1998, ending with 2018">1990
</text>
<text text-anchor="middle" transform="translate(-74.99385498046874, 102.08391113281249) translate(28.0,5.0) translate(0.5,200.5) translate(0.0,0.0) translate(45,18)" font-family="sans-serif" font-size="10.0px" fill="#000d2a" opacity="1" class="axis-label" pointer-events="none" version="1.1" width="483" height="230" viewBox="0 0 483 230" stroke-miterlimit="10" role="graphics-symbol" aria-roledescription="axis" aria-label="X-axis for a discrete scale with 15 values: 1990, 1992, 1994, 1996, 1998, ending with 2018">1992
</text>
<text text-anchor="middle" transform="translate(-74.99385498046874, 102.08391113281249) translate(28.0,5.0) translate(0.5,200.5) translate(0.0,0.0) translate(75,18)" font-family="sans-serif" font-size="10.0px" fill="#000d2a" opacity="1" class="axis-label" pointer-events="none" version="1.1" width="483" height="230" viewBox="0 0 483 230" stroke-miterlimit="10" role="graphics-symbol" aria-roledescription="axis" aria-label="X-axis for a discrete scale with 15 values: 1990, 1992, 1994, 1996, 1998, ending with 2018">1994
</text>
<text text-anchor="middle" transform="translate(-74.99385498046874, 102.08391113281249) translate(28.0,5.0) translate(0.5,200.5) translate(0.0,0.0) translate(105,18)" font-family="sans-serif" font-size="10.0px" fill="#000d2a" opacity="1" class="axis-label" pointer-events="none" version="1.1" width="483" height="230" viewBox="0 0 483 230" stroke-miterlimit="10" role="graphics-symbol" aria-roledescription="axis" aria-label="X-axis for a discrete scale with 15 values: 1990, 1992, 1994, 1996, 1998, ending with 2018">1996
</text>
<text text-anchor="middle" transform="translate(-74.99385498046874, 102.08391113281249) translate(28.0,5.0) translate(0.5,200.5) translate(0.0,0.0) translate(135,18)" font-family="sans-serif" font-size="10.0px" fill="#000d2a" opacity="1" class="axis-label" pointer-events="none" version="1.1" width="483" height="230" viewBox="0 0 483 230" stroke-miterlimit="10" role="graphics-symbol" aria-roledescription="axis" aria-label="X-axis for a discrete scale with 15 values: 1990, 1992, 1994, 1996, 1998, ending with 2018">1998
</text>
<text text-anchor="middle" transform="translate(-74.99385498046874, 102.08391113281249) translate(28.0,5.0) translate(0.5,200.5) translate(0.0,0.0) translate(165,18)" font-family="sans-serif" font-size="10.0px" fill="#000d2a" opacity="1" class="axis-label" pointer-events="none" version="1.1" width="483" height="230" viewBox="0 0 483 230" stroke-miterlimit="10" role="graphics-symbol" aria-roledescription="axis" aria-label="X-axis for a discrete scale with 15 values: 1990, 1992, 1994, 1996, 1998, ending with 2018">2000
</text>
<text text-anchor="middle" transform="translate(-74.99385498046874, 102.08391113281249) translate(28.0,5.0) translate(0.5,200.5) translate(0.0,0.0) translate(195,18)" font-family="sans-serif" font-size="10.0px" fill="#000d2a" opacity="1" class="axis-label" pointer-events="none" version="1.1" width="483" height="230" viewBox="0 0 483 230" stroke-miterlimit="10" role="graphics-symbol" aria-roledescription="axis" aria-label="X-axis for a discrete scale with 15 values: 1990, 1992, 1994, 1996, 1998, ending with 2018">2002
</text>
<text text-anchor="middle" transform="translate(-74.99385498046874, 102.08391113281249) translate(28.0,5.0) translate(0.5,200.5) translate(0.0,0.0) translate(225,18)" font-family="sans-serif" font-size="10.0px" fill="#000d2a" opacity="1" class="axis-label" pointer-events="none" version="1.1" width="483" height="230" viewBox="0 0 483 230" stroke-miterlimit="10" role="graphics-symbol" aria-roledescription="axis" aria-label="X-axis for a discrete scale with 15 values: 1990, 1992, 1994, 1996, 1998, ending with 2018">2004
</text>
<text text-anchor="middle" transform="translate(-74.99385498046874, 102.08391113281249) translate(28.0,5.0) translate(0.5,200.5) translate(0.0,0.0) translate(255,18)" font-family="sans-serif" font-size="10.0px" fill="#000d2a" opacity="1" class="axis-label" pointer-events="none" version="1.1" width="483" height="230" viewBox="0 0 483 230" stroke-miterlimit="10" role="graphics-symbol" aria-roledescription="axis" aria-label="X-axis for a discrete scale with 15 values: 1990, 1992, 1994, 1996, 1998, ending with 2018">2006
</text>
<text text-anchor="middle" transform="translate(-74.99385498046874, 102.08391113281249) translate(28.0,5.0) translate(0.5,200.5) translate(0.0,0.0) translate(285,18)" font-family="sans-serif" font-size="10.0px" fill="#000d2a" opacity="1" class="axis-label" pointer-events="none" version="1.1" width="483" height="230" viewBox="0 0 483 230" stroke-miterlimit="10" role="graphics-symbol" aria-roledescription="axis" aria-label="X-axis for a discrete scale with 15 values: 1990, 1992, 1994, 1996, 1998, ending with 2018">2008
</text>
<text text-anchor="middle" transform="translate(-74.99385498046874, 102.08391113281249) translate(28.0,5.0) translate(0.5,200.5) translate(0.0,0.0) translate(315,18)" font-family="sans-serif" font-size="10.0px" fill="#000d2a" opacity="1" class="axis-label" pointer-events="none" version="1.1" width="483" height="230" viewBox="0 0 483 230" stroke-miterlimit="10" role="graphics-symbol" aria-roledescription="axis" aria-label="X-axis for a discrete scale with 15 values: 1990, 1992, 1994, 1996, 1998, ending with 2018">2010
</text>
<text text-anchor="middle" transform="translate(-74.99385498046874, 102.08391113281249) translate(28.0,5.0) translate(0.5,200.5) translate(0.0,0.0) translate(345,18)" font-family="sans-serif" font-size="10.0px" fill="#000d2a" opacity="1" class="axis-label" pointer-events="none" version="1.1" width="483" height="230" viewBox="0 0 483 230" stroke-miterlimit="10" role="graphics-symbol" aria-roledescription="axis" aria-label="X-axis for a discrete scale with 15 values: 1990, 1992, 1994, 1996, 1998, ending with 2018">2012
</text>
<text text-anchor="middle" transform="translate(-74.99385498046874, 102.08391113281249) translate(28.0,5.0) translate(0.5,200.5) translate(0.0,0.0) translate(375,18)" font-family="sans-serif" font-size="10.0px" fill="#000d2a" opacity="1" class="axis-label" pointer-events="none" version="1.1" width="483" height="230" viewBox="0 0 483 230" stroke-miterlimit="10" role="graphics-symbol" aria-roledescription="axis" aria-label="X-axis for a discrete scale with 15 values: 1990, 1992, 1994, 1996, 1998, ending with 2018">2014
</text>
<text text-anchor="middle" transform="translate(-74.99385498046874, 102.08391113281249) translate(28.0,5.0) translate(0.5,200.5) translate(0.0,0.0) translate(405,18)" font-family="sans-serif" font-size="10.0px" fill="#000d2a" opacity="1" class="axis-label" pointer-events="none" version="1.1" width="483" height="230" viewBox="0 0 483 230" stroke-miterlimit="10" role="graphics-symbol" aria-roledescription="axis" aria-label="X-axis for a discrete scale with 15 values: 1990, 1992, 1994, 1996, 1998, ending with 2018">2016
</text>
<text text-anchor="middle" transform="translate(-74.99385498046874, 102.08391113281249) translate(28.0,5.0) translate(0.5,200.5) translate(0.0,0.0) translate(435,18)" font-family="sans-serif" font-size="10.0px" fill="#000d2a" opacity="1" class="axis-label" pointer-events="none" version="1.1" width="483" height="230" viewBox="0 0 483 230" stroke-miterlimit="10" role="graphics-symbol" aria-roledescription="axis" aria-label="X-axis for a discrete scale with 15 values: 1990, 1992, 1994, 1996, 1998, ending with 2018">2018
</text>
<line transform="translate(-74.99385498046874, 102.08391113281249) translate(28.0,5.0) translate(0.5,200.5) translate(0,0)" x2="450" y2="0" stroke="#0f223b" stroke-opacity="0" stroke-width="1" opacity="1" class="axis-domain" pointer-events="none" version="1.1" width="483" height="230" viewBox="0 0 483 230" fill="none" stroke-miterlimit="10" role="graphics-symbol" aria-roledescription="axis" aria-label="X-axis for a discrete scale with 15 values: 1990, 1992, 1994, 1996, 1998, ending with 2018"/>
<line transform="translate(-74.99385498046874, 102.08391113281249) translate(28.0,5.0) translate(0.5,0.5) translate(0,200)" x2="-5" y2="0" stroke="#0f223b" stroke-opacity="0" stroke-width="1" opacity="1" class="axis-tick" pointer-events="none" version="1.1" width="483" height="230" viewBox="0 0 483 230" fill="none" stroke-miterlimit="10" role="graphics-symbol" aria-roledescription="axis" aria-label="Y-axis for a linear scale with values from 0 to 22"/>
<line transform="translate(-74.99385498046874, 102.08391113281249) translate(28.0,5.0) translate(0.5,0.5) translate(0,155)" x2="-5" y2="0" stroke="#0f223b" stroke-opacity="0" stroke-width="1" opacity="1" class="axis-tick" pointer-events="none" version="1.1" width="483" height="230" viewBox="0 0 483 230" fill="none" stroke-miterlimit="10" role="graphics-symbol" aria-roledescription="axis" aria-label="Y-axis for a linear scale with values from 0 to 22"/>
<line transform="translate(-74.99385498046874, 102.08391113281249) translate(28.0,5.0) translate(0.5,0.5) translate(0,109)" x2="-5" y2="0" stroke="#0f223b" stroke-opacity="0" stroke-width="1" opacity="1" class="axis-tick" pointer-events="none" version="1.1" width="483" height="230" viewBox="0 0 483 230" fill="none" stroke-miterlimit="10" role="graphics-symbol" aria-roledescription="axis" aria-label="Y-axis for a linear scale with values from 0 to 22"/>
<line transform="translate(-74.99385498046874, 102.08391113281249) translate(28.0,5.0) translate(0.5,0.5) translate(0,64)" x2="-5" y2="0" stroke="#0f223b" stroke-opacity="0" stroke-width="1" opacity="1" class="axis-tick" pointer-events="none" version="1.1" width="483" height="230" viewBox="0 0 483 230" fill="none" stroke-miterlimit="10" role="graphics-symbol" aria-roledescription="axis" aria-label="Y-axis for a linear scale with values from 0 to 22"/>
<line transform="translate(-74.99385498046874, 102.08391113281249) translate(28.0,5.0) translate(0.5,0.5) translate(0,18)" x2="-5" y2="0" stroke="#0f223b" stroke-opacity="0" stroke-width="1" opacity="1" class="axis-tick" pointer-events="none" version="1.1" width="483" height="230" viewBox="0 0 483 230" fill="none" stroke-miterlimit="10" role="graphics-symbol" aria-roledescription="axis" aria-label="Y-axis for a linear scale with values from 0 to 22"/>
<text text-anchor="end" transform="translate(-74.99385498046874, 102.08391113281249) translate(28.0,5.0) translate(0.5,0.5) translate(-10,203)" font-family="sans-serif" font-size="10px" fill="#000d2a" opacity="1" class="axis-label" pointer-events="none" version="1.1" width="483" height="230" viewBox="0 0 483 230" stroke-miterlimit="10" role="graphics-symbol" aria-roledescription="axis" aria-label="Y-axis for a linear scale with values from 0 to 22">0
</text>
<text text-anchor="end" transform="translate(-74.99385498046874, 102.08391113281249) translate(28.0,5.0) translate(0.5,0.5) translate(-10,157.54545454545453)" font-family="sans-serif" font-size="10px" fill="#000d2a" opacity="1" class="axis-label" pointer-events="none" version="1.1" width="483" height="230" viewBox="0 0 483 230" stroke-miterlimit="10" role="graphics-symbol" aria-roledescription="axis" aria-label="Y-axis for a linear scale with values from 0 to 22">5
</text>
<text text-anchor="end" transform="translate(-74.99385498046874, 102.08391113281249) translate(28.0,5.0) translate(0.5,0.5) translate(-10,112.09090909090908)" font-family="sans-serif" font-size="10px" fill="#000d2a" opacity="1" class="axis-label" pointer-events="none" version="1.1" width="483" height="230" viewBox="0 0 483 230" stroke-miterlimit="10" role="graphics-symbol" aria-roledescription="axis" aria-label="Y-axis for a linear scale with values from 0 to 22">10
</text>
<text text-anchor="end" transform="translate(-74.99385498046874, 102.08391113281249) translate(28.0,5.0) translate(0.5,0.5) translate(-10,66.63636363636365)" font-family="sans-serif" font-size="10px" fill="#000d2a" opacity="1" class="axis-label" pointer-events="none" version="1.1" width="483" height="230" viewBox="0 0 483 230" stroke-miterlimit="10" role="graphics-symbol" aria-roledescription="axis" aria-label="Y-axis for a linear scale with values from 0 to 22">15
</text>
<text text-anchor="end" transform="translate(-74.99385498046874, 102.08391113281249) translate(28.0,5.0) translate(0.5,0.5) translate(-10,21.181818181818187)" font-family="sans-serif" font-size="10px" fill="#000d2a" opacity="1" class="axis-label" pointer-events="none" version="1.1" width="483" height="230" viewBox="0 0 483 230" stroke-miterlimit="10" role="graphics-symbol" aria-roledescription="axis" aria-label="Y-axis for a linear scale with values from 0 to 22">20
</text>
<line transform="translate(-74.99385498046874, 102.08391113281249) translate(28.0,5.0) translate(0.5,0.5) translate(0,200)" x2="0" y2="-200" stroke="#0f223b" stroke-opacity="0" stroke-width="1" opacity="1" class="axis-domain" pointer-events="none" version="1.1" width="483" height="230" viewBox="0 0 483 230" fill="none" stroke-miterlimit="10" role="graphics-symbol" aria-roledescription="axis" aria-label="Y-axis for a linear scale with values from 0 to 22"/>
<path aria-label="Year: 1990; Percentage: 20.7; Direction: Korea to Japan" role="graphics-symbol" aria-roledescription="line mark" d="M15,11.818L20,19.091C25,26.364,35,40.909,45,50C55,59.091,65,62.727,75,66.212C85,69.697,95,73.03,105,80.606C115,88.182,125,100,135,102.273C145,104.545,155,97.273,165,96.364C175,95.455,185,100.909,195,104.545C205,108.182,215,110,225,112.576C235,115.152,245,118.485,255,120.758C265,123.03,275,124.242,285,126.515C295,128.788,305,132.121,315,134.697C325,137.273,335,139.091,345,141.364C355,143.636,365,146.364,375,148.939C385,151.515,395,153.939,405,155.152C415,156.364,425,156.364,430,156.364L435,156.364" stroke="#fbb4ae" stroke-width="2" opacity="1" class="line" version="1.1" width="483" height="230" viewBox="0 0 483 230" fill="none" stroke-miterlimit="10" transform="translate(-74.99385498046874, 102.08391113281249) translate(28.0,5.0)"/>
<path aria-label="Year: 1990; Percentage: 5.9; Direction: Japan to Korea" role="graphics-symbol" aria-roledescription="line mark" d="M15,146.364L20,147.273C25,148.182,35,150,45,150.455C55,150.909,65,150,75,148.333C85,146.667,95,144.242,105,146.515C115,148.788,125,155.758,135,155C145,154.242,155,145.758,165,141.515C175,137.273,185,137.273,195,136.818C205,136.364,215,135.455,225,135C235,134.545,245,134.545,255,135.152C265,135.758,275,136.97,285,136.515C295,136.061,305,133.939,315,133.939C325,133.939,335,136.061,345,137.576C355,139.091,365,140,375,140C385,140,395,139.091,405,138.636C415,138.182,425,138.182,430,138.182L435,138.182" stroke="#f2f2f2" stroke-width="2" opacity="1" class="line" version="1.1" width="483" height="230" viewBox="0 0 483 230" fill="none" stroke-miterlimit="10" transform="translate(-74.99385498046874, 102.08391113281249) translate(28.0,5.0)"/></g></svg>