<svg version="1.1" class="marks" width="485.5244140625" height="286.9775390625" viewBox="0 0 585.5244140625 386.9775390625" xmlns="http://www.w3.org/2000/svg" xmlns:xlink="http://www.w3.org/1999/xlink"><rect width="100%" height="100%" fill="#ffffff"/>
<g transform="translate(55.58081420898438, 50.64847412109375)"><rect x="0" y="0" width="15" height="150" fill="#80b1d3" transform="scale(0.33720654296875)"/>
<text class="chart-title-line" x="0" y="0" text-anchor="start" font-family="sans-serif" font-size="24" font-weight="700" fill="#0f2740" letter-spacing="0" transform="translate(15.05809814453125, 21.47652587890625)">The Rise (and Fall) of Hip-Hop's  Fortunes
</text>
<text class="chart-subtitle-line" x="0" y="0" text-anchor="start" font-family="sans-serif" font-size="13" font-weight="400" fill="#445f7c" letter-spacing="0.25" transform="translate(15.05809814453125, 21.47652587890625) translate(0.0, 27.0234375)">Net worth of the world's wealthiest rappers (in million U.S. dollars)
</text>
<line transform="translate(-15.056400146484378, 60.729455566406244) translate(44.0,5.0) translate(0.5,200.5) translate(0,0)" x2="0" y2="5" stroke="#0f223b" stroke-opacity="0" stroke-width="1" opacity="1" class="axis-tick" pointer-events="none" version="1.1" width="501" height="230" viewBox="0 0 501 230" fill="none" stroke-miterlimit="10" role="graphics-symbol" aria-roledescription="axis" aria-label="X-axis for a linear scale with values from 2,011 to 2,022"/>
<line transform="translate(-15.056400146484378, 60.729455566406244) translate(44.0,5.0) translate(0.5,200.5) translate(41,0)" x2="0" y2="5" stroke="#0f223b" stroke-opacity="0" stroke-width="1" opacity="1" class="axis-tick" pointer-events="none" version="1.1" width="501" height="230" viewBox="0 0 501 230" fill="none" stroke-miterlimit="10" role="graphics-symbol" aria-roledescription="axis" aria-label="X-axis for a linear scale with values from 2,011 to 2,022"/>
<line transform="translate(-15.056400146484378, 60.729455566406244) translate(44.0,5.0) translate(0.5,200.5) translate(82,0)" x2="0" y2="5" stroke="#0f223b" stroke-opacity="0" stroke-width="1" opacity="1" class="axis-tick" pointer-events="none" version="1.1" width="501" height="230" viewBox="0 0 501 230" fill="none" stroke-miterlimit="10" role="graphics-symbol" aria-roledescription="axis" aria-label="X-axis for a linear scale with values from 2,011 to 2,022"/>
<line transform="translate(-15.056400146484378, 60.729455566406244) translate(44.0,5.0) translate(0.5,200.5) translate(123,0)" x2="0" y2="5" stroke="#0f223b" stroke-opacity="0" stroke-width="1" opacity="1" class="axis-tick" pointer-events="none" version="1.1" width="501" height="230" viewBox="0 0 501 230" fill="none" stroke-miterlimit="10" role="graphics-symbol" aria-roledescription="axis" aria-label="X-axis for a linear scale with values from 2,011 to 2,022"/>
<line transform="translate(-15.056400146484378, 60.729455566406244) translate(44.0,5.0) translate(0.5,200.5) translate(164,0)" x2="0" y2="5" stroke="#0f223b" stroke-opacity="0" stroke-width="1" opacity="1" class="axis-tick" pointer-events="none" version="1.1" width="501" height="230" viewBox="0 0 501 230" fill="none" stroke-miterlimit="10" role="graphics-symbol" aria-roledescription="axis" aria-label="X-axis for a linear scale with values from 2,011 to 2,022"/>
<line transform="translate(-15.056400146484378, 60.729455566406244) translate(44.0,5.0) translate(0.5,200.5) translate(205,0)" x2="0" y2="5" stroke="#0f223b" stroke-opacity="0" stroke-width="1" opacity="1" class="axis-tick" pointer-events="none" version="1.1" width="501" height="230" viewBox="0 0 501 230" fill="none" stroke-miterlimit="10" role="graphics-symbol" aria-roledescription="axis" aria-label="X-axis for a linear scale with values from 2,011 to 2,022"/>
<line transform="translate(-15.056400146484378, 60.729455566406244) translate(44.0,5.0) translate(0.5,200.5) translate(245,0)" x2="0" y2="5" stroke="#0f223b" stroke-opacity="0" stroke-width="1" opacity="1" class="axis-tick" pointer-events="none" version="1.1" width="501" height="230" viewBox="0 0 501 230" fill="none" stroke-miterlimit="10" role="graphics-symbol" aria-roledescription="axis" aria-label="X-axis for a linear scale with values from 2,011 to 2,022"/>
<line transform="translate(-15.056400146484378, 60.729455566406244) translate(44.0,5.0) translate(0.5,200.5) translate(286,0)" x2="0" y2="5" stroke="#0f223b" stroke-opacity="0" stroke-width="1" opacity="1" class="axis-tick" pointer-events="none" version="1.1" width="501" height="230" viewBox="0 0 501 230" fill="none" stroke-miterlimit="10" role="graphics-symbol" aria-roledescription="axis" aria-label="X-axis for a linear scale with values from 2,011 to 2,022"/>
<line transform="translate(-15.056400146484378, 60.729455566406244) translate(44.0,5.0) translate(0.5,200.5) translate(327,0)" x2="0" y2="5" stroke="#0f223b" stroke-opacity="0" stroke-width="1" opacity="1" class="axis-tick" pointer-events="none" version="1.1" width="501" height="230" viewBox="0 0 501 230" fill="none" stroke-miterlimit="10" role="graphics-symbol" aria-roledescription="axis" aria-label="X-axis for a linear scale with values from 2,011 to 2,022"/>
<line transform="translate(-15.056400146484378, 60.729455566406244) translate(44.0,5.0) translate(0.5,200.5) translate(368,0)" x2="0" y2="5" stroke="#0f223b" stroke-opacity="0" stroke-width="1" opacity="1" class="axis-tick" pointer-events="none" version="1.1" width="501" height="230" viewBox="0 0 501 230" fill="none" stroke-miterlimit="10" role="graphics-symbol" aria-roledescription="axis" aria-label="X-axis for a linear scale with values from 2,011 to 2,022"/>
<line transform="translate(-15.056400146484378, 60.729455566406244) translate(44.0,5.0) translate(0.5,200.5) translate(409,0)" x2="0" y2="5" stroke="#0f223b" stroke-opacity="0" stroke-width="1" opacity="1" class="axis-tick" pointer-events="none" version="1.1" width="501" height="230" viewBox="0 0 501 230" fill="none" stroke-miterlimit="10" role="graphics-symbol" aria-roledescription="axis" aria-label="X-axis for a linear scale with values from 2,011 to 2,022"/>
<line transform="translate(-15.056400146484378, 60.729455566406244) translate(44.0,5.0) translate(0.5,200.5) translate(450,0)" x2="0" y2="5" stroke="#0f223b" stroke-opacity="0" stroke-width="1" opacity="1" class="axis-tick" pointer-events="none" version="1.1" width="501" height="230" viewBox="0 0 501 230" fill="none" stroke-miterlimit="10" role="graphics-symbol" aria-roledescription="axis" aria-label="X-axis for a linear scale with values from 2,011 to 2,022"/>
<text text-anchor="start" transform="translate(-15.056400146484378, 60.729455566406244) translate(44.0,5.0) translate(0.5,200.5) translate(1.38916015625,0.0) translate(0,18)" font-family="sans-serif" font-size="10.0px" fill="#000d2a" opacity="1" class="axis-label" pointer-events="none" version="1.1" width="501" height="230" viewBox="0 0 501 230" stroke-miterlimit="10" role="graphics-symbol" aria-roledescription="axis" aria-label="X-axis for a linear scale with values from 2,011 to 2,022">2011
</text>
<text text-anchor="middle" transform="translate(-15.056400146484378, 60.729455566406244) translate(44.0,5.0) translate(0.5,200.5) translate(0.0,0.0) translate(40.909090909090914,18)" font-family="sans-serif" font-size="10.0px" fill="#000d2a" opacity="0" class="axis-label" pointer-events="none" version="1.1" width="501" height="230" viewBox="0 0 501 230" stroke-miterlimit="10" role="graphics-symbol" aria-roledescription="axis" aria-label="X-axis for a linear scale with values from 2,011 to 2,022">2012
</text>
<text text-anchor="middle" transform="translate(-15.056400146484378, 60.729455566406244) translate(44.0,5.0) translate(0.5,200.5) translate(0.0,0.0) translate(81.81818181818183,18)" font-family="sans-serif" font-size="10.0px" fill="#000d2a" opacity="1" class="axis-label" pointer-events="none" version="1.1" width="501" height="230" viewBox="0 0 501 230" stroke-miterlimit="10" role="graphics-symbol" aria-roledescription="axis" aria-label="X-axis for a linear scale with values from 2,011 to 2,022">2013
</text>
<text text-anchor="middle" transform="translate(-15.056400146484378, 60.729455566406244) translate(44.0,5.0) translate(0.5,200.5) translate(0.0,0.0) translate(122.72727272727272,18)" font-family="sans-serif" font-size="10.0px" fill="#000d2a" opacity="0" class="axis-label" pointer-events="none" version="1.1" width="501" height="230" viewBox="0 0 501 230" stroke-miterlimit="10" role="graphics-symbol" aria-roledescription="axis" aria-label="X-axis for a linear scale with values from 2,011 to 2,022">2014
</text>
<text text-anchor="middle" transform="translate(-15.056400146484378, 60.729455566406244) translate(44.0,5.0) translate(0.5,200.5) translate(0.0,0.0) translate(163.63636363636365,18)" font-family="sans-serif" font-size="10.0px" fill="#000d2a" opacity="1" class="axis-label" pointer-events="none" version="1.1" width="501" height="230" viewBox="0 0 501 230" stroke-miterlimit="10" role="graphics-symbol" aria-roledescription="axis" aria-label="X-axis for a linear scale with values from 2,011 to 2,022">2015
</text>
<text text-anchor="middle" transform="translate(-15.056400146484378, 60.729455566406244) translate(44.0,5.0) translate(0.5,200.5) translate(0.0,0.0) translate(204.54545454545453,18)" font-family="sans-serif" font-size="10.0px" fill="#000d2a" opacity="0" class="axis-label" pointer-events="none" version="1.1" width="501" height="230" viewBox="0 0 501 230" stroke-miterlimit="10" role="graphics-symbol" aria-roledescription="axis" aria-label="X-axis for a linear scale with values from 2,011 to 2,022">2016
</text>
<text text-anchor="middle" transform="translate(-15.056400146484378, 60.729455566406244) translate(44.0,5.0) translate(0.5,200.5) translate(0.0,0.0) translate(245.45454545454544,18)" font-family="sans-serif" font-size="10.0px" fill="#000d2a" opacity="1" class="axis-label" pointer-events="none" version="1.1" width="501" height="230" viewBox="0 0 501 230" stroke-miterlimit="10" role="graphics-symbol" aria-roledescription="axis" aria-label="X-axis for a linear scale with values from 2,011 to 2,022">2017
</text>
<text text-anchor="middle" transform="translate(-15.056400146484378, 60.729455566406244) translate(44.0,5.0) translate(0.5,200.5) translate(0.0,0.0) translate(286.3636363636364,18)" font-family="sans-serif" font-size="10.0px" fill="#000d2a" opacity="0" class="axis-label" pointer-events="none" version="1.1" width="501" height="230" viewBox="0 0 501 230" stroke-miterlimit="10" role="graphics-symbol" aria-roledescription="axis" aria-label="X-axis for a linear scale with values from 2,011 to 2,022">2018
</text>
<text text-anchor="middle" transform="translate(-15.056400146484378, 60.729455566406244) translate(44.0,5.0) translate(0.5,200.5) translate(0.0,0.0) translate(327.2727272727273,18)" font-family="sans-serif" font-size="10.0px" fill="#000d2a" opacity="1" class="axis-label" pointer-events="none" version="1.1" width="501" height="230" viewBox="0 0 501 230" stroke-miterlimit="10" role="graphics-symbol" aria-roledescription="axis" aria-label="X-axis for a linear scale with values from 2,011 to 2,022">2019
</text>
<text text-anchor="middle" transform="translate(-15.056400146484378, 60.729455566406244) translate(44.0,5.0) translate(0.5,200.5) translate(0.0,0.0) translate(368.1818181818182,18)" font-family="sans-serif" font-size="10.0px" fill="#000d2a" opacity="0" class="axis-label" pointer-events="none" version="1.1" width="501" height="230" viewBox="0 0 501 230" stroke-miterlimit="10" role="graphics-symbol" aria-roledescription="axis" aria-label="X-axis for a linear scale with values from 2,011 to 2,022">2020
</text>
<text text-anchor="middle" transform="translate(-15.056400146484378, 60.729455566406244) translate(44.0,5.0) translate(0.5,200.5) translate(0.0,0.0) translate(409.09090909090907,18)" font-family="sans-serif" font-size="10.0px" fill="#000d2a" opacity="1" class="axis-label" pointer-events="none" version="1.1" width="501" height="230" viewBox="0 0 501 230" stroke-miterlimit="10" role="graphics-symbol" aria-roledescription="axis" aria-label="X-axis for a linear scale with values from 2,011 to 2,022">2021
</text>
<text text-anchor="end" transform="translate(-15.056400146484378, 60.729455566406244) translate(44.0,5.0) translate(0.5,200.5) translate(-1.38916015625,0.0) translate(450,18)" font-family="sans-serif" font-size="10.0px" fill="#000d2a" opacity="0" class="axis-label" pointer-events="none" version="1.1" width="501" height="230" viewBox="0 0 501 230" stroke-miterlimit="10" role="graphics-symbol" aria-roledescription="axis" aria-label="X-axis for a linear scale with values from 2,011 to 2,022">2022
</text>
<line transform="translate(-15.056400146484378, 60.729455566406244) translate(44.0,5.0) translate(0.5,200.5) translate(0,0)" x2="450" y2="0" stroke="#0f223b" stroke-opacity="0" stroke-width="1" opacity="1" class="axis-domain" pointer-events="none" version="1.1" width="501" height="230" viewBox="0 0 501 230" fill="none" stroke-miterlimit="10" role="graphics-symbol" aria-roledescription="axis" aria-label="X-axis for a linear scale with values from 2,011 to 2,022"/>
<line transform="translate(-15.056400146484378, 60.729455566406244) translate(44.0,5.0) translate(0.5,0.5) translate(0,200)" x2="-5" y2="0" stroke="#0f223b" stroke-opacity="0" stroke-width="1" opacity="1" class="axis-tick" pointer-events="none" version="1.1" width="501" height="230" viewBox="0 0 501 230" fill="none" stroke-miterlimit="10" role="graphics-symbol" aria-roledescription="axis" aria-label="Y-axis for a linear scale with values from 0 to 1,600"/>
<line transform="translate(-15.056400146484378, 60.729455566406244) translate(44.0,5.0) translate(0.5,0.5) translate(0,138)" x2="-5" y2="0" stroke="#0f223b" stroke-opacity="0" stroke-width="1" opacity="1" class="axis-tick" pointer-events="none" version="1.1" width="501" height="230" viewBox="0 0 501 230" fill="none" stroke-miterlimit="10" role="graphics-symbol" aria-roledescription="axis" aria-label="Y-axis for a linear scale with values from 0 to 1,600"/>
<line transform="translate(-15.056400146484378, 60.729455566406244) translate(44.0,5.0) translate(0.5,0.5) translate(0,75)" x2="-5" y2="0" stroke="#0f223b" stroke-opacity="0" stroke-width="1" opacity="1" class="axis-tick" pointer-events="none" version="1.1" width="501" height="230" viewBox="0 0 501 230" fill="none" stroke-miterlimit="10" role="graphics-symbol" aria-roledescription="axis" aria-label="Y-axis for a linear scale with values from 0 to 1,600"/>
<line transform="translate(-15.056400146484378, 60.729455566406244) translate(44.0,5.0) translate(0.5,0.5) translate(0,13)" x2="-5" y2="0" stroke="#0f223b" stroke-opacity="0" stroke-width="1" opacity="1" class="axis-tick" pointer-events="none" version="1.1" width="501" height="230" viewBox="0 0 501 230" fill="none" stroke-miterlimit="10" role="graphics-symbol" aria-roledescription="axis" aria-label="Y-axis for a linear scale with values from 0 to 1,600"/>
<text text-anchor="end" transform="translate(-15.056400146484378, 60.729455566406244) translate(44.0,5.0) translate(0.5,0.5) translate(-10,203)" font-family="sans-serif" font-size="10px" fill="#000d2a" opacity="1" class="axis-label" pointer-events="none" version="1.1" width="501" height="230" viewBox="0 0 501 230" stroke-miterlimit="10" role="graphics-symbol" aria-roledescription="axis" aria-label="Y-axis for a linear scale with values from 0 to 1,600">0
</text>
<text text-anchor="end" transform="translate(-15.056400146484378, 60.729455566406244) translate(44.0,5.0) translate(0.5,0.5) translate(-10,140.5)" font-family="sans-serif" font-size="10px" fill="#000d2a" opacity="1" class="axis-label" pointer-events="none" version="1.1" width="501" height="230" viewBox="0 0 501 230" stroke-miterlimit="10" role="graphics-symbol" aria-roledescription="axis" aria-label="Y-axis for a linear scale with values from 0 to 1,600">500
</text>
<text text-anchor="end" transform="translate(-15.056400146484378, 60.729455566406244) translate(44.0,5.0) translate(0.5,0.5) translate(-10,78)" font-family="sans-serif" font-size="10px" fill="#000d2a" opacity="1" class="axis-label" pointer-events="none" version="1.1" width="501" height="230" viewBox="0 0 501 230" stroke-miterlimit="10" role="graphics-symbol" aria-roledescription="axis" aria-label="Y-axis for a linear scale with values from 0 to 1,600">1,000
</text>
<text text-anchor="end" transform="translate(-15.056400146484378, 60.729455566406244) translate(44.0,5.0) translate(0.5,0.5) translate(-10,15.5)" font-family="sans-serif" font-size="10px" fill="#000d2a" opacity="1" class="axis-label" pointer-events="none" version="1.1" width="501" height="230" viewBox="0 0 501 230" stroke-miterlimit="10" role="graphics-symbol" aria-roledescription="axis" aria-label="Y-axis for a linear scale with values from 0 to 1,600">1,500
</text>
<line transform="translate(-15.056400146484378, 60.729455566406244) translate(44.0,5.0) translate(0.5,0.5) translate(0,200)" x2="0" y2="-200" stroke="#0f223b" stroke-opacity="0" stroke-width="1" opacity="1" class="axis-domain" pointer-events="none" version="1.1" width="501" height="230" viewBox="0 0 501 230" fill="none" stroke-miterlimit="10" role="graphics-symbol" aria-roledescription="axis" aria-label="Y-axis for a linear scale with values from 0 to 1,600"/>
<path aria-label="Year: 2011; Units: 450; Rappers: Jay-Z" role="graphics-symbol" aria-roledescription="line mark" d="M0,143.75L40.909,140.625L81.818,137.5L122.727,135L163.636,131.25L204.545,123.75L245.455,98.75L286.364,87.5L327.273,75L368.182,75L409.091,37.5L450,12.5" stroke="#ffed6f" stroke-width="2" opacity="1" class="line" version="1.1" width="501" height="230" viewBox="0 0 501 230" fill="none" stroke-miterlimit="10" transform="translate(-15.056400146484378, 60.729455566406244) translate(44.0,5.0)"/>
<path aria-label="Year: 2011; Units: 500; Rappers: Sean Diddy Combs" role="graphics-symbol" aria-roledescription="line mark" d="M0,137.5L40.909,131.25L81.818,127.5L122.727,112.5L163.636,108.125L204.545,106.25L245.455,97.5L286.364,96.875L327.273,107.5L368.182,112.5L409.091,100L450,75" stroke="#8dd3c7" stroke-width="2" opacity="1" class="line" version="1.1" width="501" height="230" viewBox="0 0 501 230" fill="none" stroke-miterlimit="10" transform="translate(-15.056400146484378, 60.729455566406244) translate(44.0,5.0)"/>
<path aria-label="Year: 2011; Units: 125; Rappers: Dr. Dre" role="graphics-symbol" aria-roledescription="line mark" d="M0,184.375L40.909,166.25L81.818,156.25L122.727,131.25L163.636,112.5L204.545,111.25L245.455,107.5L286.364,103.75L327.273,100L368.182,137.5L409.091,137.5L450,137.5" stroke="#d9d9d9" stroke-width="2" opacity="1" class="line" version="1.1" width="501" height="230" viewBox="0 0 501 230" fill="none" stroke-miterlimit="10" transform="translate(-15.056400146484378, 60.729455566406244) translate(44.0,5.0)"/>
<path aria-label="Year: 2019; Units: 240; Rappers: Kanye West" role="graphics-symbol" aria-roledescription="line mark" d="M327.273,170L368.182,37.5L409.091,75L450,150" stroke="#80b1d3" stroke-width="2" opacity="1" class="line" version="1.1" width="501" height="230" viewBox="0 0 501 230" fill="none" stroke-miterlimit="10" transform="translate(-15.056400146484378, 60.729455566406244) translate(44.0,5.0)"/></g></svg>