<svg version="1.1" class="marks" width="485.0244140625" height="328.85546875" viewBox="0 0 585.0244140625 428.85546875" xmlns="http://www.w3.org/2000/svg" xmlns:xlink="http://www.w3.org/1999/xlink"><rect width="100%" height="100%" fill="#ffffff"/>
<g transform="translate(136.19014404296874, 51.171948242187504)"><rect x="0" y="0" width="15" height="150" fill="None" transform="scale(0.6094130859375)"/>
<text class="chart-title-line" x="0" y="0" text-anchor="start" font-family="sans-serif" font-size="24" font-weight="700" fill="#0f2740" letter-spacing="0" transform="translate(19.1411962890625, 20.953051757812496)">EU Train Accident Deaths
</text>
<text class="chart-title-line" x="0" y="0" text-anchor="start" font-family="sans-serif" font-size="24" font-weight="700" fill="#0f2740" letter-spacing="0" transform="translate(19.1411962890625, 20.953051757812496) translate(0.0, 27.1640625)">Continue To Decline
</text>
<text class="chart-subtitle-line" x="0" y="0" text-anchor="start" font-family="sans-serif" font-size="13" font-weight="400" fill="#445f7c" letter-spacing="0.25" transform="translate(19.1411962890625, 20.953051757812496) translate(0.0, 54.1875)">Total number of fatalities in railway accidents in the
</text>
<text class="chart-subtitle-line" x="0" y="0" text-anchor="start" font-family="sans-serif" font-size="13" font-weight="400" fill="#445f7c" letter-spacing="0.25" transform="translate(19.1411962890625, 20.953051757812496) translate(0.0, 54.1875) translate(0.0, 14.7138671875)">EU-27 by year
</text>
<line transform="translate(-95.66572998046874, 102.08391113281249) translate(44.0,5.0) translate(0.5,200.5) translate(23,0)" x2="0" y2="5" stroke="#0f223b" stroke-opacity="0" stroke-width="1" opacity="1" class="axis-tick" pointer-events="none" version="1.1" width="499" height="230" viewBox="0 0 499 230" fill="none" stroke-miterlimit="10" role="graphics-symbol" aria-roledescription="axis" aria-label="X-axis for a discrete scale with 10 values: 2010, 2011, 2012, 2013, 2014, ending with 2019"/>
<line transform="translate(-95.66572998046874, 102.08391113281249) translate(44.0,5.0) translate(0.5,200.5) translate(68,0)" x2="0" y2="5" stroke="#0f223b" stroke-opacity="0" stroke-width="1" opacity="1" class="axis-tick" pointer-events="none" version="1.1" width="499" height="230" viewBox="0 0 499 230" fill="none" stroke-miterlimit="10" role="graphics-symbol" aria-roledescription="axis" aria-label="X-axis for a discrete scale with 10 values: 2010, 2011, 2012, 2013, 2014, ending with 2019"/>
<line transform="translate(-95.66572998046874, 102.08391113281249) translate(44.0,5.0) translate(0.5,200.5) translate(113,0)" x2="0" y2="5" stroke="#0f223b" stroke-opacity="0" stroke-width="1" opacity="1" class="axis-tick" pointer-events="none" version="1.1" width="499" height="230" viewBox="0 0 499 230" fill="none" stroke-miterlimit="10" role="graphics-symbol" aria-roledescription="axis" aria-label="X-axis for a discrete scale with 10 values: 2010, 2011, 2012, 2013, 2014, ending with 2019"/>
<line transform="translate(-95.66572998046874, 102.08391113281249) translate(44.0,5.0) translate(0.5,200.5) translate(158,0)" x2="0" y2="5" stroke="#0f223b" stroke-opacity="0" stroke-width="1" opacity="1" class="axis-tick" pointer-events="none" version="1.1" width="499" height="230" viewBox="0 0 499 230" fill="none" stroke-miterlimit="10" role="graphics-symbol" aria-roledescription="axis" aria-label="X-axis for a discrete scale with 10 values: 2010, 2011, 2012, 2013, 2014, ending with 2019"/>
<line transform="translate(-95.66572998046874, 102.08391113281249) translate(44.0,5.0) translate(0.5,200.5) translate(203,0)" x2="0" y2="5" stroke="#0f223b" stroke-opacity="0" stroke-width="1" opacity="1" class="axis-tick" pointer-events="none" version="1.1" width="499" height="230" viewBox="0 0 499 230" fill="none" stroke-miterlimit="10" role="graphics-symbol" aria-roledescription="axis" aria-label="X-axis for a discrete scale with 10 values: 2010, 2011, 2012, 2013, 2014, ending with 2019"/>
<line transform="translate(-95.66572998046874, 102.08391113281249) translate(44.0,5.0) translate(0.5,200.5) translate(248,0)" x2="0" y2="5" stroke="#0f223b" stroke-opacity="0" stroke-width="1" opacity="1" class="axis-tick" pointer-events="none" version="1.1" width="499" height="230" viewBox="0 0 499 230" fill="none" stroke-miterlimit="10" role="graphics-symbol" aria-roledescription="axis" aria-label="X-axis for a discrete scale with 10 values: 2010, 2011, 2012, 2013, 2014, ending with 2019"/>
<line transform="translate(-95.66572998046874, 102.08391113281249) translate(44.0,5.0) translate(0.5,200.5) translate(293,0)" x2="0" y2="5" stroke="#0f223b" stroke-opacity="0" stroke-width="1" opacity="1" class="axis-tick" pointer-events="none" version="1.1" width="499" height="230" viewBox="0 0 499 230" fill="none" stroke-miterlimit="10" role="graphics-symbol" aria-roledescription="axis" aria-label="X-axis for a discrete scale with 10 values: 2010, 2011, 2012, 2013, 2014, ending with 2019"/>
<line transform="translate(-95.66572998046874, 102.08391113281249) translate(44.0,5.0) translate(0.5,200.5) translate(338,0)" x2="0" y2="5" stroke="#0f223b" stroke-opacity="0" stroke-width="1" opacity="1" class="axis-tick" pointer-events="none" version="1.1" width="499" height="230" viewBox="0 0 499 230" fill="none" stroke-miterlimit="10" role="graphics-symbol" aria-roledescription="axis" aria-label="X-axis for a discrete scale with 10 values: 2010, 2011, 2012, 2013, 2014, ending with 2019"/>
<line transform="translate(-95.66572998046874, 102.08391113281249) translate(44.0,5.0) translate(0.5,200.5) translate(383,0)" x2="0" y2="5" stroke="#0f223b" stroke-opacity="0" stroke-width="1" opacity="1" class="axis-tick" pointer-events="none" version="1.1" width="499" height="230" viewBox="0 0 499 230" fill="none" stroke-miterlimit="10" role="graphics-symbol" aria-roledescription="axis" aria-label="X-axis for a discrete scale with 10 values: 2010, 2011, 2012, 2013, 2014, ending with 2019"/>
<line transform="translate(-95.66572998046874, 102.08391113281249) translate(44.0,5.0) translate(0.5,200.5) translate(428,0)" x2="0" y2="5" stroke="#0f223b" stroke-opacity="0" stroke-width="1" opacity="1" class="axis-tick" pointer-events="none" version="1.1" width="499" height="230" viewBox="0 0 499 230" fill="none" stroke-miterlimit="10" role="graphics-symbol" aria-roledescription="axis" aria-label="X-axis for a discrete scale with 10 values: 2010, 2011, 2012, 2013, 2014, ending with 2019"/>
<text text-anchor="middle" transform="translate(-95.66572998046874, 102.08391113281249) translate(44.0,5.0) translate(0.5,200.5) translate(0.0,0.0) translate(22.5,18)" font-family="sans-serif" font-size="10.0px" fill="#000d2a" opacity="1" class="axis-label" pointer-events="none" version="1.1" width="499" height="230" viewBox="0 0 499 230" stroke-miterlimit="10" role="graphics-symbol" aria-roledescription="axis" aria-label="X-axis for a discrete scale with 10 values: 2010, 2011, 2012, 2013, 2014, ending with 2019">2010
</text>
<text text-anchor="middle" transform="translate(-95.66572998046874, 102.08391113281249) translate(44.0,5.0) translate(0.5,200.5) translate(0.0,0.0) translate(67.5,18)" font-family="sans-serif" font-size="10.0px" fill="#000d2a" opacity="1" class="axis-label" pointer-events="none" version="1.1" width="499" height="230" viewBox="0 0 499 230" stroke-miterlimit="10" role="graphics-symbol" aria-roledescription="axis" aria-label="X-axis for a discrete scale with 10 values: 2010, 2011, 2012, 2013, 2014, ending with 2019">2011
</text>
<text text-anchor="middle" transform="translate(-95.66572998046874, 102.08391113281249) translate(44.0,5.0) translate(0.5,200.5) translate(0.0,0.0) translate(112.5,18)" font-family="sans-serif" font-size="10.0px" fill="#000d2a" opacity="1" class="axis-label" pointer-events="none" version="1.1" width="499" height="230" viewBox="0 0 499 230" stroke-miterlimit="10" role="graphics-symbol" aria-roledescription="axis" aria-label="X-axis for a discrete scale with 10 values: 2010, 2011, 2012, 2013, 2014, ending with 2019">2012
</text>
<text text-anchor="middle" transform="translate(-95.66572998046874, 102.08391113281249) translate(44.0,5.0) translate(0.5,200.5) translate(0.0,0.0) translate(157.5,18)" font-family="sans-serif" font-size="10.0px" fill="#000d2a" opacity="1" class="axis-label" pointer-events="none" version="1.1" width="499" height="230" viewBox="0 0 499 230" stroke-miterlimit="10" role="graphics-symbol" aria-roledescription="axis" aria-label="X-axis for a discrete scale with 10 values: 2010, 2011, 2012, 2013, 2014, ending with 2019">2013
</text>
<text text-anchor="middle" transform="translate(-95.66572998046874, 102.08391113281249) translate(44.0,5.0) translate(0.5,200.5) translate(0.0,0.0) translate(202.5,18)" font-family="sans-serif" font-size="10.0px" fill="#000d2a" opacity="1" class="axis-label" pointer-events="none" version="1.1" width="499" height="230" viewBox="0 0 499 230" stroke-miterlimit="10" role="graphics-symbol" aria-roledescription="axis" aria-label="X-axis for a discrete scale with 10 values: 2010, 2011, 2012, 2013, 2014, ending with 2019">2014
</text>
<text text-anchor="middle" transform="translate(-95.66572998046874, 102.08391113281249) translate(44.0,5.0) translate(0.5,200.5) translate(0.0,0.0) translate(247.5,18)" font-family="sans-serif" font-size="10.0px" fill="#000d2a" opacity="1" class="axis-label" pointer-events="none" version="1.1" width="499" height="230" viewBox="0 0 499 230" stroke-miterlimit="10" role="graphics-symbol" aria-roledescription="axis" aria-label="X-axis for a discrete scale with 10 values: 2010, 2011, 2012, 2013, 2014, ending with 2019">2015
</text>
<text text-anchor="middle" transform="translate(-95.66572998046874, 102.08391113281249) translate(44.0,5.0) translate(0.5,200.5) translate(0.0,0.0) translate(292.5,18)" font-family="sans-serif" font-size="10.0px" fill="#000d2a" opacity="1" class="axis-label" pointer-events="none" version="1.1" width="499" height="230" viewBox="0 0 499 230" stroke-miterlimit="10" role="graphics-symbol" aria-roledescription="axis" aria-label="X-axis for a discrete scale with 10 values: 2010, 2011, 2012, 2013, 2014, ending with 2019">2016
</text>
<text text-anchor="middle" transform="translate(-95.66572998046874, 102.08391113281249) translate(44.0,5.0) translate(0.5,200.5) translate(0.0,0.0) translate(337.5,18)" font-family="sans-serif" font-size="10.0px" fill="#000d2a" opacity="1" class="axis-label" pointer-events="none" version="1.1" width="499" height="230" viewBox="0 0 499 230" stroke-miterlimit="10" role="graphics-symbol" aria-roledescription="axis" aria-label="X-axis for a discrete scale with 10 values: 2010, 2011, 2012, 2013, 2014, ending with 2019">2017
</text>
<text text-anchor="middle" transform="translate(-95.66572998046874, 102.08391113281249) translate(44.0,5.0) translate(0.5,200.5) translate(0.0,0.0) translate(382.5,18)" font-family="sans-serif" font-size="10.0px" fill="#000d2a" opacity="1" class="axis-label" pointer-events="none" version="1.1" width="499" height="230" viewBox="0 0 499 230" stroke-miterlimit="10" role="graphics-symbol" aria-roledescription="axis" aria-label="X-axis for a discrete scale with 10 values: 2010, 2011, 2012, 2013, 2014, ending with 2019">2018
</text>
<text text-anchor="middle" transform="translate(-95.66572998046874, 102.08391113281249) translate(44.0,5.0) translate(0.5,200.5) translate(0.0,0.0) translate(427.5,18)" font-family="sans-serif" font-size="10.0px" fill="#000d2a" opacity="1" class="axis-label" pointer-events="none" version="1.1" width="499" height="230" viewBox="0 0 499 230" stroke-miterlimit="10" role="graphics-symbol" aria-roledescription="axis" aria-label="X-axis for a discrete scale with 10 values: 2010, 2011, 2012, 2013, 2014, ending with 2019">2019
</text>
<line transform="translate(-95.66572998046874, 102.08391113281249) translate(44.0,5.0) translate(0.5,200.5) translate(0,0)" x2="450" y2="0" stroke="#0f223b" stroke-opacity="0" stroke-width="1" opacity="1" class="axis-domain" pointer-events="none" version="1.1" width="499" height="230" viewBox="0 0 499 230" fill="none" stroke-miterlimit="10" role="graphics-symbol" aria-roledescription="axis" aria-label="X-axis for a discrete scale with 10 values: 2010, 2011, 2012, 2013, 2014, ending with 2019"/>
<line transform="translate(-95.66572998046874, 102.08391113281249) translate(44.0,5.0) translate(0.5,0.5) translate(0,200)" x2="-5" y2="0" stroke="#0f223b" stroke-opacity="0" stroke-width="1" opacity="1" class="axis-tick" pointer-events="none" version="1.1" width="499" height="230" viewBox="0 0 499 230" fill="none" stroke-miterlimit="10" role="graphics-symbol" aria-roledescription="axis" aria-label="Y-axis for a linear scale with values from 0 to 1,300"/>
<line transform="translate(-95.66572998046874, 102.08391113281249) translate(44.0,5.0) translate(0.5,0.5) translate(0,169)" x2="-5" y2="0" stroke="#0f223b" stroke-opacity="0" stroke-width="1" opacity="1" class="axis-tick" pointer-events="none" version="1.1" width="499" height="230" viewBox="0 0 499 230" fill="none" stroke-miterlimit="10" role="graphics-symbol" aria-roledescription="axis" aria-label="Y-axis for a linear scale with values from 0 to 1,300"/>
<line transform="translate(-95.66572998046874, 102.08391113281249) translate(44.0,5.0) translate(0.5,0.5) translate(0,138)" x2="-5" y2="0" stroke="#0f223b" stroke-opacity="0" stroke-width="1" opacity="1" class="axis-tick" pointer-events="none" version="1.1" width="499" height="230" viewBox="0 0 499 230" fill="none" stroke-miterlimit="10" role="graphics-symbol" aria-roledescription="axis" aria-label="Y-axis for a linear scale with values from 0 to 1,300"/>
<line transform="translate(-95.66572998046874, 102.08391113281249) translate(44.0,5.0) translate(0.5,0.5) translate(0,108)" x2="-5" y2="0" stroke="#0f223b" stroke-opacity="0" stroke-width="1" opacity="1" class="axis-tick" pointer-events="none" version="1.1" width="499" height="230" viewBox="0 0 499 230" fill="none" stroke-miterlimit="10" role="graphics-symbol" aria-roledescription="axis" aria-label="Y-axis for a linear scale with values from 0 to 1,300"/>
<line transform="translate(-95.66572998046874, 102.08391113281249) translate(44.0,5.0) translate(0.5,0.5) translate(0,77)" x2="-5" y2="0" stroke="#0f223b" stroke-opacity="0" stroke-width="1" opacity="1" class="axis-tick" pointer-events="none" version="1.1" width="499" height="230" viewBox="0 0 499 230" fill="none" stroke-miterlimit="10" role="graphics-symbol" aria-roledescription="axis" aria-label="Y-axis for a linear scale with values from 0 to 1,300"/>
<line transform="translate(-95.66572998046874, 102.08391113281249) translate(44.0,5.0) translate(0.5,0.5) translate(0,46)" x2="-5" y2="0" stroke="#0f223b" stroke-opacity="0" stroke-width="1" opacity="1" class="axis-tick" pointer-events="none" version="1.1" width="499" height="230" viewBox="0 0 499 230" fill="none" stroke-miterlimit="10" role="graphics-symbol" aria-roledescription="axis" aria-label="Y-axis for a linear scale with values from 0 to 1,300"/>
<line transform="translate(-95.66572998046874, 102.08391113281249) translate(44.0,5.0) translate(0.5,0.5) translate(0,15)" x2="-5" y2="0" stroke="#0f223b" stroke-opacity="0" stroke-width="1" opacity="1" class="axis-tick" pointer-events="none" version="1.1" width="499" height="230" viewBox="0 0 499 230" fill="none" stroke-miterlimit="10" role="graphics-symbol" aria-roledescription="axis" aria-label="Y-axis for a linear scale with values from 0 to 1,300"/>
<text text-anchor="end" transform="translate(-95.66572998046874, 102.08391113281249) translate(44.0,5.0) translate(0.5,0.5) translate(-10,203)" font-family="sans-serif" font-size="10px" fill="#000d2a" opacity="1" class="axis-label" pointer-events="none" version="1.1" width="499" height="230" viewBox="0 0 499 230" stroke-miterlimit="10" role="graphics-symbol" aria-roledescription="axis" aria-label="Y-axis for a linear scale with values from 0 to 1,300">0
</text>
<text text-anchor="end" transform="translate(-95.66572998046874, 102.08391113281249) translate(44.0,5.0) translate(0.5,0.5) translate(-10,172.23076923076923)" font-family="sans-serif" font-size="10px" fill="#000d2a" opacity="1" class="axis-label" pointer-events="none" version="1.1" width="499" height="230" viewBox="0 0 499 230" stroke-miterlimit="10" role="graphics-symbol" aria-roledescription="axis" aria-label="Y-axis for a linear scale with values from 0 to 1,300">200
</text>
<text text-anchor="end" transform="translate(-95.66572998046874, 102.08391113281249) translate(44.0,5.0) translate(0.5,0.5) translate(-10,141.46153846153845)" font-family="sans-serif" font-size="10px" fill="#000d2a" opacity="1" class="axis-label" pointer-events="none" version="1.1" width="499" height="230" viewBox="0 0 499 230" stroke-miterlimit="10" role="graphics-symbol" aria-roledescription="axis" aria-label="Y-axis for a linear scale with values from 0 to 1,300">400
</text>
<text text-anchor="end" transform="translate(-95.66572998046874, 102.08391113281249) translate(44.0,5.0) translate(0.5,0.5) translate(-10,110.6923076923077)" font-family="sans-serif" font-size="10px" fill="#000d2a" opacity="1" class="axis-label" pointer-events="none" version="1.1" width="499" height="230" viewBox="0 0 499 230" stroke-miterlimit="10" role="graphics-symbol" aria-roledescription="axis" aria-label="Y-axis for a linear scale with values from 0 to 1,300">600
</text>
<text text-anchor="end" transform="translate(-95.66572998046874, 102.08391113281249) translate(44.0,5.0) translate(0.5,0.5) translate(-10,79.92307692307692)" font-family="sans-serif" font-size="10px" fill="#000d2a" opacity="1" class="axis-label" pointer-events="none" version="1.1" width="499" height="230" viewBox="0 0 499 230" stroke-miterlimit="10" role="graphics-symbol" aria-roledescription="axis" aria-label="Y-axis for a linear scale with values from 0 to 1,300">800
</text>
<text text-anchor="end" transform="translate(-95.66572998046874, 102.08391113281249) translate(44.0,5.0) translate(0.5,0.5) translate(-10,49.153846153846146)" font-family="sans-serif" font-size="10px" fill="#000d2a" opacity="1" class="axis-label" pointer-events="none" version="1.1" width="499" height="230" viewBox="0 0 499 230" stroke-miterlimit="10" role="graphics-symbol" aria-roledescription="axis" aria-label="Y-axis for a linear scale with values from 0 to 1,300">1,000
</text>
<text text-anchor="end" transform="translate(-95.66572998046874, 102.08391113281249) translate(44.0,5.0) translate(0.5,0.5) translate(-10,18.384615384615373)" font-family="sans-serif" font-size="10px" fill="#000d2a" opacity="1" class="axis-label" pointer-events="none" version="1.1" width="499" height="230" viewBox="0 0 499 230" stroke-miterlimit="10" role="graphics-symbol" aria-roledescription="axis" aria-label="Y-axis for a linear scale with values from 0 to 1,300">1,200
</text>
<line transform="translate(-95.66572998046874, 102.08391113281249) translate(44.0,5.0) translate(0.5,0.5) translate(0,200)" x2="0" y2="-200" stroke="#0f223b" stroke-opacity="0" stroke-width="1" opacity="1" class="axis-domain" pointer-events="none" version="1.1" width="499" height="230" viewBox="0 0 499 230" fill="none" stroke-miterlimit="10" role="graphics-symbol" aria-roledescription="axis" aria-label="Y-axis for a linear scale with values from 0 to 1,300"/>
<path aria-label="Year: 2010; Fatalities: 1245" role="graphics-symbol" aria-roledescription="line mark" d="M22.5,8.462L45,8.462L45,24.615L90,24.615L90,30.154L135,30.154L135,29.231L180,29.231L180,43.231L225,43.231L225,55.692L270,55.692L270,54.462L315,54.462L315,59.077L360,59.077L360,70.769L405,70.769L405,76.615L427.5,76.615" stroke="#4c78a8" stroke-width="2" opacity="1" class="line" version="1.1" width="499" height="230" viewBox="0 0 499 230" fill="none" stroke-miterlimit="10" transform="translate(-95.66572998046874, 102.08391113281249) translate(44.0,5.0)"/></g></svg>