<svg version="1.1" class="marks" width="455.0" height="329.35546875" viewBox="0 0 555.0 429.35546875" xmlns="http://www.w3.org/2000/svg" xmlns:xlink="http://www.w3.org/1999/xlink"><rect width="100%" height="100%" fill="#ffffff"/>
<g transform="translate(128.18330810546874, 51.171948242187504)"><rect x="0" y="0" width="15" height="150" fill="#fb8072" transform="scale(0.6094130859375)"/>
<text class="chart-title-line" x="0" y="0" text-anchor="start" font-family="sans-serif" font-size="24" font-weight="700" fill="#0f2740" letter-spacing="0" transform="translate(19.1411962890625, 20.953051757812496)">Who Is Driving Investment
</text>
<text class="chart-title-line" x="0" y="0" text-anchor="start" font-family="sans-serif" font-size="24" font-weight="700" fill="#0f2740" letter-spacing="0" transform="translate(19.1411962890625, 20.953051757812496) translate(0.0, 27.1640625)">in Renewable Energy?
</text>
<text class="chart-subtitle-line" x="0" y="0" text-anchor="start" font-family="sans-serif" font-size="13" font-weight="400" fill="#445f7c" letter-spacing="0.25" transform="translate(19.1411962890625, 20.953051757812496) translate(0.0, 54.1875)">Investment in the renewable energy sector by
</text>
<text class="chart-subtitle-line" x="0" y="0" text-anchor="start" font-family="sans-serif" font-size="13" font-weight="400" fill="#445f7c" letter-spacing="0.25" transform="translate(19.1411962890625, 20.953051757812496) translate(0.0, 54.1875) translate(0.0, 14.7138671875)">country/region (in billion U.S. dollars)
</text>
<line transform="translate(-83.68330810546874, 102.58391113281249) translate(10.0,5.0) translate(0.5,200.5) translate(117,0)" x2="0" y2="5" stroke="#0f223b" stroke-opacity="0" stroke-width="1" opacity="1" class="axis-tick" pointer-events="none" version="1.1" width="465" height="230" viewBox="0 0 465 230" fill="none" stroke-miterlimit="10" role="graphics-symbol" aria-roledescription="axis" aria-label="X-axis for a discrete scale with 2 values: 2009, 2019"/>
<line transform="translate(-83.68330810546874, 102.58391113281249) translate(10.0,5.0) translate(0.5,200.5) translate(332,0)" x2="0" y2="5" stroke="#0f223b" stroke-opacity="0" stroke-width="1" opacity="1" class="axis-tick" pointer-events="none" version="1.1" width="465" height="230" viewBox="0 0 465 230" fill="none" stroke-miterlimit="10" role="graphics-symbol" aria-roledescription="axis" aria-label="X-axis for a discrete scale with 2 values: 2009, 2019"/>
<text text-anchor="middle" transform="translate(-83.68330810546874, 102.58391113281249) translate(10.0,5.0) translate(0.5,200.5) translate(0.0,0.0) translate(117.35714285714288,18)" font-family="sans-serif" font-size="10.0px" fill="#000d2a" opacity="1" class="axis-label" pointer-events="none" version="1.1" width="465" height="230" viewBox="0 0 465 230" stroke-miterlimit="10" role="graphics-symbol" aria-roledescription="axis" aria-label="X-axis for a discrete scale with 2 values: 2009, 2019">2009
</text>
<text text-anchor="middle" transform="translate(-83.68330810546874, 102.58391113281249) translate(10.0,5.0) translate(0.5,200.5) translate(0.0,0.0) translate(331.64285714285717,18)" font-family="sans-serif" font-size="10.0px" fill="#000d2a" opacity="1" class="axis-label" pointer-events="none" version="1.1" width="465" height="230" viewBox="0 0 465 230" stroke-miterlimit="10" role="graphics-symbol" aria-roledescription="axis" aria-label="X-axis for a discrete scale with 2 values: 2009, 2019">2019
</text>
<line transform="translate(-83.68330810546874, 102.58391113281249) translate(10.0,5.0) translate(0.5,200.5) translate(0,0)" x2="450" y2="0" stroke="#0f223b" stroke-opacity="0" stroke-width="1" opacity="1" class="axis-domain" pointer-events="none" version="1.1" width="465" height="230" viewBox="0 0 465 230" fill="none" stroke-miterlimit="10" role="graphics-symbol" aria-roledescription="axis" aria-label="X-axis for a discrete scale with 2 values: 2009, 2019"/>
<line transform="translate(-83.68330810546874, 102.58391113281249) translate(10.0,5.0) translate(0.5,0.5) translate(0,200)" x2="-5" y2="0" stroke="#0f223b" stroke-opacity="0" stroke-width="1" opacity="1" class="axis-tick" pointer-events="none" version="1.1" width="465" height="230" viewBox="0 0 465 230" fill="none" stroke-miterlimit="10" role="graphics-symbol" aria-roledescription="axis" aria-label="Y-axis for a linear scale with values from 0 to 350"/>
<line transform="translate(-83.68330810546874, 102.58391113281249) translate(10.0,5.0) translate(0.5,0.5) translate(0,171)" x2="-5" y2="0" stroke="#0f223b" stroke-opacity="0" stroke-width="1" opacity="1" class="axis-tick" pointer-events="none" version="1.1" width="465" height="230" viewBox="0 0 465 230" fill="none" stroke-miterlimit="10" role="graphics-symbol" aria-roledescription="axis" aria-label="Y-axis for a linear scale with values from 0 to 350"/>
<line transform="translate(-83.68330810546874, 102.58391113281249) translate(10.0,5.0) translate(0.5,0.5) translate(0,143)" x2="-5" y2="0" stroke="#0f223b" stroke-opacity="0" stroke-width="1" opacity="1" class="axis-tick" pointer-events="none" version="1.1" width="465" height="230" viewBox="0 0 465 230" fill="none" stroke-miterlimit="10" role="graphics-symbol" aria-roledescription="axis" aria-label="Y-axis for a linear scale with values from 0 to 350"/>
<line transform="translate(-83.68330810546874, 102.58391113281249) translate(10.0,5.0) translate(0.5,0.5) translate(0,114)" x2="-5" y2="0" stroke="#0f223b" stroke-opacity="0" stroke-width="1" opacity="1" class="axis-tick" pointer-events="none" version="1.1" width="465" height="230" viewBox="0 0 465 230" fill="none" stroke-miterlimit="10" role="graphics-symbol" aria-roledescription="axis" aria-label="Y-axis for a linear scale with values from 0 to 350"/>
<line transform="translate(-83.68330810546874, 102.58391113281249) translate(10.0,5.0) translate(0.5,0.5) translate(0,86)" x2="-5" y2="0" stroke="#0f223b" stroke-opacity="0" stroke-width="1" opacity="1" class="axis-tick" pointer-events="none" version="1.1" width="465" height="230" viewBox="0 0 465 230" fill="none" stroke-miterlimit="10" role="graphics-symbol" aria-roledescription="axis" aria-label="Y-axis for a linear scale with values from 0 to 350"/>
<line transform="translate(-83.68330810546874, 102.58391113281249) translate(10.0,5.0) translate(0.5,0.5) translate(0,57)" x2="-5" y2="0" stroke="#0f223b" stroke-opacity="0" stroke-width="1" opacity="1" class="axis-tick" pointer-events="none" version="1.1" width="465" height="230" viewBox="0 0 465 230" fill="none" stroke-miterlimit="10" role="graphics-symbol" aria-roledescription="axis" aria-label="Y-axis for a linear scale with values from 0 to 350"/>
<line transform="translate(-83.68330810546874, 102.58391113281249) translate(10.0,5.0) translate(0.5,0.5) translate(0,29)" x2="-5" y2="0" stroke="#0f223b" stroke-opacity="0" stroke-width="1" opacity="1" class="axis-tick" pointer-events="none" version="1.1" width="465" height="230" viewBox="0 0 465 230" fill="none" stroke-miterlimit="10" role="graphics-symbol" aria-roledescription="axis" aria-label="Y-axis for a linear scale with values from 0 to 350"/>
<line transform="translate(-83.68330810546874, 102.58391113281249) translate(10.0,5.0) translate(0.5,0.5) translate(0,0)" x2="-5" y2="0" stroke="#0f223b" stroke-opacity="0" stroke-width="1" opacity="1" class="axis-tick" pointer-events="none" version="1.1" width="465" height="230" viewBox="0 0 465 230" fill="none" stroke-miterlimit="10" role="graphics-symbol" aria-roledescription="axis" aria-label="Y-axis for a linear scale with values from 0 to 350"/>
<line transform="translate(-83.68330810546874, 102.58391113281249) translate(10.0,5.0) translate(0.5,0.5) translate(0,200)" x2="0" y2="-200" stroke="#0f223b" stroke-opacity="0" stroke-width="1" opacity="1" class="axis-domain" pointer-events="none" version="1.1" width="465" height="230" viewBox="0 0 465 230" fill="none" stroke-miterlimit="10" role="graphics-symbol" aria-roledescription="axis" aria-label="Y-axis for a linear scale with values from 0 to 350"/>
<path aria-label="Year: 2009; Units: 23; Region: China" role="graphics-symbol" aria-roledescription="bar" d="M54.21428571428573,106.57142857142858h127.28571428571429v13.142857142857125h-127.28571428571429Z" fill="#fb8072" opacity="1" class="bar" version="1.1" width="465" height="230" viewBox="0 0 465 230" stroke-miterlimit="10" transform="translate(-83.68330810546874, 102.58391113281249) translate(10.0,5.0)"/>
<path aria-label="Year: 2009; Units: 36.7; Region: U.S." role="graphics-symbol" aria-roledescription="bar" d="M54.21428571428573,179.02857142857144h127.28571428571429v20.97142857142856h-127.28571428571429Z" fill="#fdb462" opacity="1" class="bar" version="1.1" width="465" height="230" viewBox="0 0 465 230" stroke-miterlimit="10" transform="translate(-83.68330810546874, 102.58391113281249) translate(10.0,5.0)"/>
<path aria-label="Year: 2009; Units: 76.5; Region: Europe" role="graphics-symbol" aria-roledescription="bar" d="M54.21428571428573,119.71428571428571h127.28571428571429v43.71428571428574h-127.28571428571429Z" fill="#ccebc5" opacity="1" class="bar" version="1.1" width="465" height="230" viewBox="0 0 465 230" stroke-miterlimit="10" transform="translate(-83.68330810546874, 102.58391113281249) translate(10.0,5.0)"/>
<path aria-label="Year: 2009; Units: 13.9; Region: Other Asia & Oceania" role="graphics-symbol" aria-roledescription="bar" d="M54.21428571428573,171.0857142857143h127.28571428571429v7.94285714285715h-127.28571428571429Z" fill="#ffffb3" opacity="1" class="bar" version="1.1" width="465" height="230" viewBox="0 0 465 230" stroke-miterlimit="10" transform="translate(-83.68330810546874, 102.58391113281249) translate(10.0,5.0)"/>
<path aria-label="Year: 2009; Units: 1.5; Region: Middle East & Africa" role="graphics-symbol" aria-roledescription="bar" d="M54.21428571428573,166.28571428571428h127.28571428571429v0.8571428571428612h-127.28571428571429Z" fill="#ffed6f" opacity="1" class="bar" version="1.1" width="465" height="230" viewBox="0 0 465 230" stroke-miterlimit="10" transform="translate(-83.68330810546874, 102.58391113281249) translate(10.0,5.0)"/>
<path aria-label="Year: 2009; Units: 6.9; Region: Other Americas" role="graphics-symbol" aria-roledescription="bar" d="M54.21428571428573,167.14285714285714h127.28571428571429v3.94285714285715h-127.28571428571429Z" fill="#d9d9d9" opacity="1" class="bar" version="1.1" width="465" height="230" viewBox="0 0 465 230" stroke-miterlimit="10" transform="translate(-83.68330810546874, 102.58391113281249) translate(10.0,5.0)"/>
<path aria-label="Year: 2009; Units: 5; Region: India" role="graphics-symbol" aria-roledescription="bar" d="M54.21428571428573,163.42857142857144h127.28571428571429v2.857142857142833h-127.28571428571429Z" fill="#b3de69" opacity="1" class="bar" version="1.1" width="465" height="230" viewBox="0 0 465 230" stroke-miterlimit="10" transform="translate(-83.68330810546874, 102.58391113281249) translate(10.0,5.0)"/>
<path aria-label="Year: 2009; Units: 4.3; Region: Brazil" role="graphics-symbol" aria-roledescription="bar" d="M54.21428571428573,104.1142857142857h127.28571428571429v2.457142857142884h-127.28571428571429Z" fill="#8dd3c7" opacity="1" class="bar" version="1.1" width="465" height="230" viewBox="0 0 465 230" stroke-miterlimit="10" transform="translate(-83.68330810546874, 102.58391113281249) translate(10.0,5.0)"/>
<path aria-label="Year: 2019; Units: 90.1; Region: China" role="graphics-symbol" aria-roledescription="bar" d="M268.5,31.37142857142856h127.28571428571429v51.48571428571429h-127.28571428571429Z" fill="#fb8072" opacity="1" class="bar" version="1.1" width="465" height="230" viewBox="0 0 465 230" stroke-miterlimit="10" transform="translate(-83.68330810546874, 102.58391113281249) translate(10.0,5.0)"/>
<path aria-label="Year: 2019; Units: 59; Region: U.S." role="graphics-symbol" aria-roledescription="bar" d="M268.5,166.28571428571428h127.28571428571429v33.71428571428572h-127.28571428571429Z" fill="#fdb462" opacity="1" class="bar" version="1.1" width="465" height="230" viewBox="0 0 465 230" stroke-miterlimit="10" transform="translate(-83.68330810546874, 102.58391113281249) translate(10.0,5.0)"/>
<path aria-label="Year: 2019; Units: 58.4; Region: Europe" role="graphics-symbol" aria-roledescription="bar" d="M268.5,82.85714285714285h127.28571428571429v33.371428571428595h-127.28571428571429Z" fill="#ccebc5" opacity="1" class="bar" version="1.1" width="465" height="230" viewBox="0 0 465 230" stroke-miterlimit="10" transform="translate(-83.68330810546874, 102.58391113281249) translate(10.0,5.0)"/>
<path aria-label="Year: 2019; Units: 48.2; Region: Other Asia & Oceania" role="graphics-symbol" aria-roledescription="bar" d="M268.5,138.74285714285713h127.28571428571429v27.542857142857144h-127.28571428571429Z" fill="#ffffb3" opacity="1" class="bar" version="1.1" width="465" height="230" viewBox="0 0 465 230" stroke-miterlimit="10" transform="translate(-83.68330810546874, 102.58391113281249) translate(10.0,5.0)"/>
<path aria-label="Year: 2019; Units: 15.4; Region: Middle East & Africa" role="graphics-symbol" aria-roledescription="bar" d="M268.5,122.62857142857142h127.28571428571429v8.799999999999997h-127.28571428571429Z" fill="#ffed6f" opacity="1" class="bar" version="1.1" width="465" height="230" viewBox="0 0 465 230" stroke-miterlimit="10" transform="translate(-83.68330810546874, 102.58391113281249) translate(10.0,5.0)"/>
<path aria-label="Year: 2019; Units: 12.8; Region: Other Americas" role="graphics-symbol" aria-roledescription="bar" d="M268.5,131.42857142857142h127.28571428571429v7.314285714285717h-127.28571428571429Z" fill="#d9d9d9" opacity="1" class="bar" version="1.1" width="465" height="230" viewBox="0 0 465 230" stroke-miterlimit="10" transform="translate(-83.68330810546874, 102.58391113281249) translate(10.0,5.0)"/>
<path aria-label="Year: 2019; Units: 11.2; Region: India" role="graphics-symbol" aria-roledescription="bar" d="M268.5,116.22857142857144h127.28571428571429v6.399999999999977h-127.28571428571429Z" fill="#b3de69" opacity="1" class="bar" version="1.1" width="465" height="230" viewBox="0 0 465 230" stroke-miterlimit="10" transform="translate(-83.68330810546874, 102.58391113281249) translate(10.0,5.0)"/>
<path aria-label="Year: 2019; Units: 6.8; Region: Brazil" role="graphics-symbol" aria-roledescription="bar" d="M268.5,27.48571428571427h127.28571428571429v3.8857142857142897h-127.28571428571429Z" fill="#8dd3c7" opacity="1" class="bar" version="1.1" width="465" height="230" viewBox="0 0 465 230" stroke-miterlimit="10" transform="translate(-83.68330810546874, 102.58391113281249) translate(10.0,5.0)"/></g></svg>