<svg version="1.1" class="marks" width="471.123046875" height="314.1416015625" viewBox="0 0 571.123046875 414.1416015625" xmlns="http://www.w3.org/2000/svg" xmlns:xlink="http://www.w3.org/1999/xlink"><rect width="100%" height="100%" fill="#ffffff"/>
<g transform="translate(122.41574584960938, 50.98802490234375)"><rect x="0" y="0" width="15" height="150" fill="None" transform="scale(0.5137729492187499)"/>
<text class="chart-title-line" x="0" y="0" text-anchor="start" font-family="sans-serif" font-size="24" font-weight="700" fill="#0f2740" letter-spacing="0" transform="translate(17.706594238281248, 21.136975097656247)">U.S. Trade With Cuba is
</text>
<text class="chart-title-line" x="0" y="0" text-anchor="start" font-family="sans-serif" font-size="24" font-weight="700" fill="#0f2740" letter-spacing="0" transform="translate(17.706594238281248, 21.136975097656247) translate(0.0, 27.1640625)">Worth Millions
</text>
<text class="chart-subtitle-line" x="0" y="0" text-anchor="start" font-family="sans-serif" font-size="13" font-weight="400" fill="#445f7c" letter-spacing="0.25" transform="translate(17.706594238281248, 21.136975097656247) translate(0.0, 54.1875)">U.S. monthly exports to Cuba (in million U.S. dollars)
</text>
<line transform="translate(-79.79269897460938, 87.55396728515625) translate(28.0,5.0) translate(0.5,200.5) translate(11,0)" x2="0" y2="5" stroke="#0f223b" stroke-opacity="0" stroke-width="1" opacity="1" class="axis-tick" pointer-events="none" version="1.1" width="485" height="230" viewBox="0 0 485 230" fill="none" stroke-miterlimit="10" role="graphics-symbol" aria-roledescription="axis" aria-label="X-axis for a discrete scale with 20 values: 2000, 2001, 2002, 2003, 2004, ending with 2019"/>
<line transform="translate(-79.79269897460938, 87.55396728515625) translate(28.0,5.0) translate(0.5,200.5) translate(34,0)" x2="0" y2="5" stroke="#0f223b" stroke-opacity="0" stroke-width="1" opacity="1" class="axis-tick" pointer-events="none" version="1.1" width="485" height="230" viewBox="0 0 485 230" fill="none" stroke-miterlimit="10" role="graphics-symbol" aria-roledescription="axis" aria-label="X-axis for a discrete scale with 20 values: 2000, 2001, 2002, 2003, 2004, ending with 2019"/>
<line transform="translate(-79.79269897460938, 87.55396728515625) translate(28.0,5.0) translate(0.5,200.5) translate(56,0)" x2="0" y2="5" stroke="#0f223b" stroke-opacity="0" stroke-width="1" opacity="1" class="axis-tick" pointer-events="none" version="1.1" width="485" height="230" viewBox="0 0 485 230" fill="none" stroke-miterlimit="10" role="graphics-symbol" aria-roledescription="axis" aria-label="X-axis for a discrete scale with 20 values: 2000, 2001, 2002, 2003, 2004, ending with 2019"/>
<line transform="translate(-79.79269897460938, 87.55396728515625) translate(28.0,5.0) translate(0.5,200.5) translate(79,0)" x2="0" y2="5" stroke="#0f223b" stroke-opacity="0" stroke-width="1" opacity="1" class="axis-tick" pointer-events="none" version="1.1" width="485" height="230" viewBox="0 0 485 230" fill="none" stroke-miterlimit="10" role="graphics-symbol" aria-roledescription="axis" aria-label="X-axis for a discrete scale with 20 values: 2000, 2001, 2002, 2003, 2004, ending with 2019"/>
<line transform="translate(-79.79269897460938, 87.55396728515625) translate(28.0,5.0) translate(0.5,200.5) translate(101,0)" x2="0" y2="5" stroke="#0f223b" stroke-opacity="0" stroke-width="1" opacity="1" class="axis-tick" pointer-events="none" version="1.1" width="485" height="230" viewBox="0 0 485 230" fill="none" stroke-miterlimit="10" role="graphics-symbol" aria-roledescription="axis" aria-label="X-axis for a discrete scale with 20 values: 2000, 2001, 2002, 2003, 2004, ending with 2019"/>
<line transform="translate(-79.79269897460938, 87.55396728515625) translate(28.0,5.0) translate(0.5,200.5) translate(124,0)" x2="0" y2="5" stroke="#0f223b" stroke-opacity="0" stroke-width="1" opacity="1" class="axis-tick" pointer-events="none" version="1.1" width="485" height="230" viewBox="0 0 485 230" fill="none" stroke-miterlimit="10" role="graphics-symbol" aria-roledescription="axis" aria-label="X-axis for a discrete scale with 20 values: 2000, 2001, 2002, 2003, 2004, ending with 2019"/>
<line transform="translate(-79.79269897460938, 87.55396728515625) translate(28.0,5.0) translate(0.5,200.5) translate(146,0)" x2="0" y2="5" stroke="#0f223b" stroke-opacity="0" stroke-width="1" opacity="1" class="axis-tick" pointer-events="none" version="1.1" width="485" height="230" viewBox="0 0 485 230" fill="none" stroke-miterlimit="10" role="graphics-symbol" aria-roledescription="axis" aria-label="X-axis for a discrete scale with 20 values: 2000, 2001, 2002, 2003, 2004, ending with 2019"/>
<line transform="translate(-79.79269897460938, 87.55396728515625) translate(28.0,5.0) translate(0.5,200.5) translate(169,0)" x2="0" y2="5" stroke="#0f223b" stroke-opacity="0" stroke-width="1" opacity="1" class="axis-tick" pointer-events="none" version="1.1" width="485" height="230" viewBox="0 0 485 230" fill="none" stroke-miterlimit="10" role="graphics-symbol" aria-roledescription="axis" aria-label="X-axis for a discrete scale with 20 values: 2000, 2001, 2002, 2003, 2004, ending with 2019"/>
<line transform="translate(-79.79269897460938, 87.55396728515625) translate(28.0,5.0) translate(0.5,200.5) translate(191,0)" x2="0" y2="5" stroke="#0f223b" stroke-opacity="0" stroke-width="1" opacity="1" class="axis-tick" pointer-events="none" version="1.1" width="485" height="230" viewBox="0 0 485 230" fill="none" stroke-miterlimit="10" role="graphics-symbol" aria-roledescription="axis" aria-label="X-axis for a discrete scale with 20 values: 2000, 2001, 2002, 2003, 2004, ending with 2019"/>
<line transform="translate(-79.79269897460938, 87.55396728515625) translate(28.0,5.0) translate(0.5,200.5) translate(214,0)" x2="0" y2="5" stroke="#0f223b" stroke-opacity="0" stroke-width="1" opacity="1" class="axis-tick" pointer-events="none" version="1.1" width="485" height="230" viewBox="0 0 485 230" fill="none" stroke-miterlimit="10" role="graphics-symbol" aria-roledescription="axis" aria-label="X-axis for a discrete scale with 20 values: 2000, 2001, 2002, 2003, 2004, ending with 2019"/>
<line transform="translate(-79.79269897460938, 87.55396728515625) translate(28.0,5.0) translate(0.5,200.5) translate(236,0)" x2="0" y2="5" stroke="#0f223b" stroke-opacity="0" stroke-width="1" opacity="1" class="axis-tick" pointer-events="none" version="1.1" width="485" height="230" viewBox="0 0 485 230" fill="none" stroke-miterlimit="10" role="graphics-symbol" aria-roledescription="axis" aria-label="X-axis for a discrete scale with 20 values: 2000, 2001, 2002, 2003, 2004, ending with 2019"/>
<line transform="translate(-79.79269897460938, 87.55396728515625) translate(28.0,5.0) translate(0.5,200.5) translate(259,0)" x2="0" y2="5" stroke="#0f223b" stroke-opacity="0" stroke-width="1" opacity="1" class="axis-tick" pointer-events="none" version="1.1" width="485" height="230" viewBox="0 0 485 230" fill="none" stroke-miterlimit="10" role="graphics-symbol" aria-roledescription="axis" aria-label="X-axis for a discrete scale with 20 values: 2000, 2001, 2002, 2003, 2004, ending with 2019"/>
<line transform="translate(-79.79269897460938, 87.55396728515625) translate(28.0,5.0) translate(0.5,200.5) translate(281,0)" x2="0" y2="5" stroke="#0f223b" stroke-opacity="0" stroke-width="1" opacity="1" class="axis-tick" pointer-events="none" version="1.1" width="485" height="230" viewBox="0 0 485 230" fill="none" stroke-miterlimit="10" role="graphics-symbol" aria-roledescription="axis" aria-label="X-axis for a discrete scale with 20 values: 2000, 2001, 2002, 2003, 2004, ending with 2019"/>
<line transform="translate(-79.79269897460938, 87.55396728515625) translate(28.0,5.0) translate(0.5,200.5) translate(304,0)" x2="0" y2="5" stroke="#0f223b" stroke-opacity="0" stroke-width="1" opacity="1" class="axis-tick" pointer-events="none" version="1.1" width="485" height="230" viewBox="0 0 485 230" fill="none" stroke-miterlimit="10" role="graphics-symbol" aria-roledescription="axis" aria-label="X-axis for a discrete scale with 20 values: 2000, 2001, 2002, 2003, 2004, ending with 2019"/>
<line transform="translate(-79.79269897460938, 87.55396728515625) translate(28.0,5.0) translate(0.5,200.5) translate(326,0)" x2="0" y2="5" stroke="#0f223b" stroke-opacity="0" stroke-width="1" opacity="1" class="axis-tick" pointer-events="none" version="1.1" width="485" height="230" viewBox="0 0 485 230" fill="none" stroke-miterlimit="10" role="graphics-symbol" aria-roledescription="axis" aria-label="X-axis for a discrete scale with 20 values: 2000, 2001, 2002, 2003, 2004, ending with 2019"/>
<line transform="translate(-79.79269897460938, 87.55396728515625) translate(28.0,5.0) translate(0.5,200.5) translate(349,0)" x2="0" y2="5" stroke="#0f223b" stroke-opacity="0" stroke-width="1" opacity="1" class="axis-tick" pointer-events="none" version="1.1" width="485" height="230" viewBox="0 0 485 230" fill="none" stroke-miterlimit="10" role="graphics-symbol" aria-roledescription="axis" aria-label="X-axis for a discrete scale with 20 values: 2000, 2001, 2002, 2003, 2004, ending with 2019"/>
<line transform="translate(-79.79269897460938, 87.55396728515625) translate(28.0,5.0) translate(0.5,200.5) translate(371,0)" x2="0" y2="5" stroke="#0f223b" stroke-opacity="0" stroke-width="1" opacity="1" class="axis-tick" pointer-events="none" version="1.1" width="485" height="230" viewBox="0 0 485 230" fill="none" stroke-miterlimit="10" role="graphics-symbol" aria-roledescription="axis" aria-label="X-axis for a discrete scale with 20 values: 2000, 2001, 2002, 2003, 2004, ending with 2019"/>
<line transform="translate(-79.79269897460938, 87.55396728515625) translate(28.0,5.0) translate(0.5,200.5) translate(394,0)" x2="0" y2="5" stroke="#0f223b" stroke-opacity="0" stroke-width="1" opacity="1" class="axis-tick" pointer-events="none" version="1.1" width="485" height="230" viewBox="0 0 485 230" fill="none" stroke-miterlimit="10" role="graphics-symbol" aria-roledescription="axis" aria-label="X-axis for a discrete scale with 20 values: 2000, 2001, 2002, 2003, 2004, ending with 2019"/>
<line transform="translate(-79.79269897460938, 87.55396728515625) translate(28.0,5.0) translate(0.5,200.5) translate(416,0)" x2="0" y2="5" stroke="#0f223b" stroke-opacity="0" stroke-width="1" opacity="1" class="axis-tick" pointer-events="none" version="1.1" width="485" height="230" viewBox="0 0 485 230" fill="none" stroke-miterlimit="10" role="graphics-symbol" aria-roledescription="axis" aria-label="X-axis for a discrete scale with 20 values: 2000, 2001, 2002, 2003, 2004, ending with 2019"/>
<line transform="translate(-79.79269897460938, 87.55396728515625) translate(28.0,5.0) translate(0.5,200.5) translate(439,0)" x2="0" y2="5" stroke="#0f223b" stroke-opacity="0" stroke-width="1" opacity="1" class="axis-tick" pointer-events="none" version="1.1" width="485" height="230" viewBox="0 0 485 230" fill="none" stroke-miterlimit="10" role="graphics-symbol" aria-roledescription="axis" aria-label="X-axis for a discrete scale with 20 values: 2000, 2001, 2002, 2003, 2004, ending with 2019"/>
<text text-anchor="middle" transform="translate(-79.79269897460938, 87.55396728515625) translate(28.0,5.0) translate(0.5,200.5) translate(0.0,0.0) translate(11.25,18)" font-family="sans-serif" font-size="10.0px" fill="#000d2a" opacity="1" class="axis-label" pointer-events="none" version="1.1" width="485" height="230" viewBox="0 0 485 230" stroke-miterlimit="10" role="graphics-symbol" aria-roledescription="axis" aria-label="X-axis for a discrete scale with 20 values: 2000, 2001, 2002, 2003, 2004, ending with 2019">'00
</text>
<text text-anchor="middle" transform="translate(-79.79269897460938, 87.55396728515625) translate(28.0,5.0) translate(0.5,200.5) translate(0.0,0.0) translate(33.75,18)" font-family="sans-serif" font-size="10.0px" fill="#000d2a" opacity="1" class="axis-label" pointer-events="none" version="1.1" width="485" height="230" viewBox="0 0 485 230" stroke-miterlimit="10" role="graphics-symbol" aria-roledescription="axis" aria-label="X-axis for a discrete scale with 20 values: 2000, 2001, 2002, 2003, 2004, ending with 2019">'01
</text>
<text text-anchor="middle" transform="translate(-79.79269897460938, 87.55396728515625) translate(28.0,5.0) translate(0.5,200.5) translate(0.0,0.0) translate(56.25,18)" font-family="sans-serif" font-size="10.0px" fill="#000d2a" opacity="1" class="axis-label" pointer-events="none" version="1.1" width="485" height="230" viewBox="0 0 485 230" stroke-miterlimit="10" role="graphics-symbol" aria-roledescription="axis" aria-label="X-axis for a discrete scale with 20 values: 2000, 2001, 2002, 2003, 2004, ending with 2019">'02
</text>
<text text-anchor="middle" transform="translate(-79.79269897460938, 87.55396728515625) translate(28.0,5.0) translate(0.5,200.5) translate(0.0,0.0) translate(78.75,18)" font-family="sans-serif" font-size="10.0px" fill="#000d2a" opacity="1" class="axis-label" pointer-events="none" version="1.1" width="485" height="230" viewBox="0 0 485 230" stroke-miterlimit="10" role="graphics-symbol" aria-roledescription="axis" aria-label="X-axis for a discrete scale with 20 values: 2000, 2001, 2002, 2003, 2004, ending with 2019">'03
</text>
<text text-anchor="middle" transform="translate(-79.79269897460938, 87.55396728515625) translate(28.0,5.0) translate(0.5,200.5) translate(0.0,0.0) translate(101.25,18)" font-family="sans-serif" font-size="10.0px" fill="#000d2a" opacity="1" class="axis-label" pointer-events="none" version="1.1" width="485" height="230" viewBox="0 0 485 230" stroke-miterlimit="10" role="graphics-symbol" aria-roledescription="axis" aria-label="X-axis for a discrete scale with 20 values: 2000, 2001, 2002, 2003, 2004, ending with 2019">'04
</text>
<text text-anchor="middle" transform="translate(-79.79269897460938, 87.55396728515625) translate(28.0,5.0) translate(0.5,200.5) translate(0.0,0.0) translate(123.75,18)" font-family="sans-serif" font-size="10.0px" fill="#000d2a" opacity="1" class="axis-label" pointer-events="none" version="1.1" width="485" height="230" viewBox="0 0 485 230" stroke-miterlimit="10" role="graphics-symbol" aria-roledescription="axis" aria-label="X-axis for a discrete scale with 20 values: 2000, 2001, 2002, 2003, 2004, ending with 2019">'05
</text>
<text text-anchor="middle" transform="translate(-79.79269897460938, 87.55396728515625) translate(28.0,5.0) translate(0.5,200.5) translate(0.0,0.0) translate(146.25,18)" font-family="sans-serif" font-size="10.0px" fill="#000d2a" opacity="1" class="axis-label" pointer-events="none" version="1.1" width="485" height="230" viewBox="0 0 485 230" stroke-miterlimit="10" role="graphics-symbol" aria-roledescription="axis" aria-label="X-axis for a discrete scale with 20 values: 2000, 2001, 2002, 2003, 2004, ending with 2019">'06
</text>
<text text-anchor="middle" transform="translate(-79.79269897460938, 87.55396728515625) translate(28.0,5.0) translate(0.5,200.5) translate(0.0,0.0) translate(168.75,18)" font-family="sans-serif" font-size="10.0px" fill="#000d2a" opacity="1" class="axis-label" pointer-events="none" version="1.1" width="485" height="230" viewBox="0 0 485 230" stroke-miterlimit="10" role="graphics-symbol" aria-roledescription="axis" aria-label="X-axis for a discrete scale with 20 values: 2000, 2001, 2002, 2003, 2004, ending with 2019">'07
</text>
<text text-anchor="middle" transform="translate(-79.79269897460938, 87.55396728515625) translate(28.0,5.0) translate(0.5,200.5) translate(0.0,0.0) translate(191.25,18)" font-family="sans-serif" font-size="10.0px" fill="#000d2a" opacity="1" class="axis-label" pointer-events="none" version="1.1" width="485" height="230" viewBox="0 0 485 230" stroke-miterlimit="10" role="graphics-symbol" aria-roledescription="axis" aria-label="X-axis for a discrete scale with 20 values: 2000, 2001, 2002, 2003, 2004, ending with 2019">'08
</text>
<text text-anchor="middle" transform="translate(-79.79269897460938, 87.55396728515625) translate(28.0,5.0) translate(0.5,200.5) translate(0.0,0.0) translate(213.75,18)" font-family="sans-serif" font-size="10.0px" fill="#000d2a" opacity="1" class="axis-label" pointer-events="none" version="1.1" width="485" height="230" viewBox="0 0 485 230" stroke-miterlimit="10" role="graphics-symbol" aria-roledescription="axis" aria-label="X-axis for a discrete scale with 20 values: 2000, 2001, 2002, 2003, 2004, ending with 2019">'09
</text>
<text text-anchor="middle" transform="translate(-79.79269897460938, 87.55396728515625) translate(28.0,5.0) translate(0.5,200.5) translate(0.0,0.0) translate(236.25,18)" font-family="sans-serif" font-size="10.0px" fill="#000d2a" opacity="1" class="axis-label" pointer-events="none" version="1.1" width="485" height="230" viewBox="0 0 485 230" stroke-miterlimit="10" role="graphics-symbol" aria-roledescription="axis" aria-label="X-axis for a discrete scale with 20 values: 2000, 2001, 2002, 2003, 2004, ending with 2019">'10
</text>
<text text-anchor="middle" transform="translate(-79.79269897460938, 87.55396728515625) translate(28.0,5.0) translate(0.5,200.5) translate(0.0,0.0) translate(258.75,18)" font-family="sans-serif" font-size="10.0px" fill="#000d2a" opacity="1" class="axis-label" pointer-events="none" version="1.1" width="485" height="230" viewBox="0 0 485 230" stroke-miterlimit="10" role="graphics-symbol" aria-roledescription="axis" aria-label="X-axis for a discrete scale with 20 values: 2000, 2001, 2002, 2003, 2004, ending with 2019">'11
</text>
<text text-anchor="middle" transform="translate(-79.79269897460938, 87.55396728515625) translate(28.0,5.0) translate(0.5,200.5) translate(0.0,0.0) translate(281.25,18)" font-family="sans-serif" font-size="10.0px" fill="#000d2a" opacity="1" class="axis-label" pointer-events="none" version="1.1" width="485" height="230" viewBox="0 0 485 230" stroke-miterlimit="10" role="graphics-symbol" aria-roledescription="axis" aria-label="X-axis for a discrete scale with 20 values: 2000, 2001, 2002, 2003, 2004, ending with 2019">'12
</text>
<text text-anchor="middle" transform="translate(-79.79269897460938, 87.55396728515625) translate(28.0,5.0) translate(0.5,200.5) translate(0.0,0.0) translate(303.75,18)" font-family="sans-serif" font-size="10.0px" fill="#000d2a" opacity="1" class="axis-label" pointer-events="none" version="1.1" width="485" height="230" viewBox="0 0 485 230" stroke-miterlimit="10" role="graphics-symbol" aria-roledescription="axis" aria-label="X-axis for a discrete scale with 20 values: 2000, 2001, 2002, 2003, 2004, ending with 2019">'13
</text>
<text text-anchor="middle" transform="translate(-79.79269897460938, 87.55396728515625) translate(28.0,5.0) translate(0.5,200.5) translate(0.0,0.0) translate(326.25,18)" font-family="sans-serif" font-size="10.0px" fill="#000d2a" opacity="1" class="axis-label" pointer-events="none" version="1.1" width="485" height="230" viewBox="0 0 485 230" stroke-miterlimit="10" role="graphics-symbol" aria-roledescription="axis" aria-label="X-axis for a discrete scale with 20 values: 2000, 2001, 2002, 2003, 2004, ending with 2019">'14
</text>
<text text-anchor="middle" transform="translate(-79.79269897460938, 87.55396728515625) translate(28.0,5.0) translate(0.5,200.5) translate(0.0,0.0) translate(348.75,18)" font-family="sans-serif" font-size="10.0px" fill="#000d2a" opacity="1" class="axis-label" pointer-events="none" version="1.1" width="485" height="230" viewBox="0 0 485 230" stroke-miterlimit="10" role="graphics-symbol" aria-roledescription="axis" aria-label="X-axis for a discrete scale with 20 values: 2000, 2001, 2002, 2003, 2004, ending with 2019">'15
</text>
<text text-anchor="middle" transform="translate(-79.79269897460938, 87.55396728515625) translate(28.0,5.0) translate(0.5,200.5) translate(0.0,0.0) translate(371.25,18)" font-family="sans-serif" font-size="10.0px" fill="#000d2a" opacity="1" class="axis-label" pointer-events="none" version="1.1" width="485" height="230" viewBox="0 0 485 230" stroke-miterlimit="10" role="graphics-symbol" aria-roledescription="axis" aria-label="X-axis for a discrete scale with 20 values: 2000, 2001, 2002, 2003, 2004, ending with 2019">'16
</text>
<text text-anchor="middle" transform="translate(-79.79269897460938, 87.55396728515625) translate(28.0,5.0) translate(0.5,200.5) translate(0.0,0.0) translate(393.75,18)" font-family="sans-serif" font-size="10.0px" fill="#000d2a" opacity="1" class="axis-label" pointer-events="none" version="1.1" width="485" height="230" viewBox="0 0 485 230" stroke-miterlimit="10" role="graphics-symbol" aria-roledescription="axis" aria-label="X-axis for a discrete scale with 20 values: 2000, 2001, 2002, 2003, 2004, ending with 2019">'17
</text>
<text text-anchor="middle" transform="translate(-79.79269897460938, 87.55396728515625) translate(28.0,5.0) translate(0.5,200.5) translate(0.0,0.0) translate(416.25,18)" font-family="sans-serif" font-size="10.0px" fill="#000d2a" opacity="1" class="axis-label" pointer-events="none" version="1.1" width="485" height="230" viewBox="0 0 485 230" stroke-miterlimit="10" role="graphics-symbol" aria-roledescription="axis" aria-label="X-axis for a discrete scale with 20 values: 2000, 2001, 2002, 2003, 2004, ending with 2019">'18
</text>
<text text-anchor="middle" transform="translate(-79.79269897460938, 87.55396728515625) translate(28.0,5.0) translate(0.5,200.5) translate(0.0,0.0) translate(438.75,18)" font-family="sans-serif" font-size="10.0px" fill="#000d2a" opacity="1" class="axis-label" pointer-events="none" version="1.1" width="485" height="230" viewBox="0 0 485 230" stroke-miterlimit="10" role="graphics-symbol" aria-roledescription="axis" aria-label="X-axis for a discrete scale with 20 values: 2000, 2001, 2002, 2003, 2004, ending with 2019">'19
</text>
<line transform="translate(-79.79269897460938, 87.55396728515625) translate(28.0,5.0) translate(0.5,200.5) translate(0,0)" x2="450" y2="0" stroke="#0f223b" stroke-opacity="0" stroke-width="1" opacity="1" class="axis-domain" pointer-events="none" version="1.1" width="485" height="230" viewBox="0 0 485 230" fill="none" stroke-miterlimit="10" role="graphics-symbol" aria-roledescription="axis" aria-label="X-axis for a discrete scale with 20 values: 2000, 2001, 2002, 2003, 2004, ending with 2019"/>
<line transform="translate(-79.79269897460938, 87.55396728515625) translate(28.0,5.0) translate(0.5,0.5) translate(0,200)" x2="-5" y2="0" stroke="#0f223b" stroke-opacity="0" stroke-width="1" opacity="1" class="axis-tick" pointer-events="none" version="1.1" width="485" height="230" viewBox="0 0 485 230" fill="none" stroke-miterlimit="10" role="graphics-symbol" aria-roledescription="axis" aria-label="Y-axis for a linear scale with values from 0 to 90"/>
<line transform="translate(-79.79269897460938, 87.55396728515625) translate(28.0,5.0) translate(0.5,0.5) translate(0,156)" x2="-5" y2="0" stroke="#0f223b" stroke-opacity="0" stroke-width="1" opacity="1" class="axis-tick" pointer-events="none" version="1.1" width="485" height="230" viewBox="0 0 485 230" fill="none" stroke-miterlimit="10" role="graphics-symbol" aria-roledescription="axis" aria-label="Y-axis for a linear scale with values from 0 to 90"/>
<line transform="translate(-79.79269897460938, 87.55396728515625) translate(28.0,5.0) translate(0.5,0.5) translate(0,111)" x2="-5" y2="0" stroke="#0f223b" stroke-opacity="0" stroke-width="1" opacity="1" class="axis-tick" pointer-events="none" version="1.1" width="485" height="230" viewBox="0 0 485 230" fill="none" stroke-miterlimit="10" role="graphics-symbol" aria-roledescription="axis" aria-label="Y-axis for a linear scale with values from 0 to 90"/>
<line transform="translate(-79.79269897460938, 87.55396728515625) translate(28.0,5.0) translate(0.5,0.5) translate(0,67)" x2="-5" y2="0" stroke="#0f223b" stroke-opacity="0" stroke-width="1" opacity="1" class="axis-tick" pointer-events="none" version="1.1" width="485" height="230" viewBox="0 0 485 230" fill="none" stroke-miterlimit="10" role="graphics-symbol" aria-roledescription="axis" aria-label="Y-axis for a linear scale with values from 0 to 90"/>
<line transform="translate(-79.79269897460938, 87.55396728515625) translate(28.0,5.0) translate(0.5,0.5) translate(0,22)" x2="-5" y2="0" stroke="#0f223b" stroke-opacity="0" stroke-width="1" opacity="1" class="axis-tick" pointer-events="none" version="1.1" width="485" height="230" viewBox="0 0 485 230" fill="none" stroke-miterlimit="10" role="graphics-symbol" aria-roledescription="axis" aria-label="Y-axis for a linear scale with values from 0 to 90"/>
<text text-anchor="end" transform="translate(-79.79269897460938, 87.55396728515625) translate(28.0,5.0) translate(0.5,0.5) translate(-10,203)" font-family="sans-serif" font-size="10px" fill="#000d2a" opacity="1" class="axis-label" pointer-events="none" version="1.1" width="485" height="230" viewBox="0 0 485 230" stroke-miterlimit="10" role="graphics-symbol" aria-roledescription="axis" aria-label="Y-axis for a linear scale with values from 0 to 90">0
</text>
<text text-anchor="end" transform="translate(-79.79269897460938, 87.55396728515625) translate(28.0,5.0) translate(0.5,0.5) translate(-10,158.55555555555557)" font-family="sans-serif" font-size="10px" fill="#000d2a" opacity="1" class="axis-label" pointer-events="none" version="1.1" width="485" height="230" viewBox="0 0 485 230" stroke-miterlimit="10" role="graphics-symbol" aria-roledescription="axis" aria-label="Y-axis for a linear scale with values from 0 to 90">20
</text>
<text text-anchor="end" transform="translate(-79.79269897460938, 87.55396728515625) translate(28.0,5.0) translate(0.5,0.5) translate(-10,114.11111111111111)" font-family="sans-serif" font-size="10px" fill="#000d2a" opacity="1" class="axis-label" pointer-events="none" version="1.1" width="485" height="230" viewBox="0 0 485 230" stroke-miterlimit="10" role="graphics-symbol" aria-roledescription="axis" aria-label="Y-axis for a linear scale with values from 0 to 90">40
</text>
<text text-anchor="end" transform="translate(-79.79269897460938, 87.55396728515625) translate(28.0,5.0) translate(0.5,0.5) translate(-10,69.66666666666667)" font-family="sans-serif" font-size="10px" fill="#000d2a" opacity="1" class="axis-label" pointer-events="none" version="1.1" width="485" height="230" viewBox="0 0 485 230" stroke-miterlimit="10" role="graphics-symbol" aria-roledescription="axis" aria-label="Y-axis for a linear scale with values from 0 to 90">60
</text>
<text text-anchor="end" transform="translate(-79.79269897460938, 87.55396728515625) translate(28.0,5.0) translate(0.5,0.5) translate(-10,25.222222222222232)" font-family="sans-serif" font-size="10px" fill="#000d2a" opacity="1" class="axis-label" pointer-events="none" version="1.1" width="485" height="230" viewBox="0 0 485 230" stroke-miterlimit="10" role="graphics-symbol" aria-roledescription="axis" aria-label="Y-axis for a linear scale with values from 0 to 90">80
</text>
<line transform="translate(-79.79269897460938, 87.55396728515625) translate(28.0,5.0) translate(0.5,0.5) translate(0,200)" x2="0" y2="-200" stroke="#0f223b" stroke-opacity="0" stroke-width="1" opacity="1" class="axis-domain" pointer-events="none" version="1.1" width="485" height="230" viewBox="0 0 485 230" fill="none" stroke-miterlimit="10" role="graphics-symbol" aria-roledescription="axis" aria-label="Y-axis for a linear scale with values from 0 to 90"/>
<path aria-label="Year: 2000; Exports: 0" role="graphics-symbol" aria-roledescription="line mark" d="M11.25,200L15,200C18.75,200,26.25,200,33.75,194.444C41.25,188.889,48.75,177.778,56.25,168.519C63.75,159.259,71.25,151.852,78.75,142.593C86.25,133.333,93.75,122.222,101.25,118.519C108.75,114.815,116.25,118.519,123.75,122.222C131.25,125.926,138.75,129.63,146.25,124.074C153.75,118.519,161.25,103.704,168.75,84C176.25,64.296,183.75,39.704,191.25,41.556C198.75,43.407,206.25,71.704,213.75,89.556C221.25,107.407,228.75,114.815,236.25,116.667C243.75,118.519,251.25,114.815,258.75,109.259C266.25,103.704,273.75,96.296,281.25,98.148C288.75,100,296.25,111.111,303.75,112.963C311.25,114.815,318.75,107.407,326.25,114.815C333.75,122.222,341.25,144.444,348.75,151.852C356.25,159.259,363.75,151.852,371.25,146.296C378.75,140.741,386.25,137.037,393.75,137.037C401.25,137.037,408.75,140.741,416.25,140.889C423.75,141.037,431.25,137.63,435,135.926L438.75,134.222" stroke="#4c78a8" stroke-width="2" opacity="1" class="line" version="1.1" width="485" height="230" viewBox="0 0 485 230" fill="none" stroke-miterlimit="10" transform="translate(-79.79269897460938, 87.55396728515625) translate(28.0,5.0)"/></g></svg>