<svg version="1.1" class="marks" width="476.6845703125" height="307.91015625" viewBox="0 0 576.6845703125 407.91015625" xmlns="http://www.w3.org/2000/svg" xmlns:xlink="http://www.w3.org/1999/xlink"><rect width="100%" height="100%" fill="#ffffff"/>
<g transform="translate(134.11888427734374, 50.8323974609375)"><rect x="0" y="0" width="15" height="150" fill="#3182bd" transform="scale(0.4328466796875)"/>
<text class="chart-title-line" x="0" y="0" text-anchor="start" font-family="sans-serif" font-size="24" font-weight="700" fill="#0f2740" letter-spacing="0" transform="translate(16.4927001953125, 21.2926025390625)">Attack of the Clones
</text>
<text class="chart-subtitle-line" x="0" y="0" text-anchor="start" font-family="sans-serif" font-size="13" font-weight="400" fill="#445f7c" letter-spacing="0.25" transform="translate(16.4927001953125, 21.2926025390625) translate(0.0, 27.0234375)">Worldwide DAUs of Instagram Stories,
</text>
<text class="chart-subtitle-line" x="0" y="0" text-anchor="start" font-family="sans-serif" font-size="13" font-weight="400" fill="#445f7c" letter-spacing="0.25" transform="translate(16.4927001953125, 21.2926025390625) translate(0.0, 27.0234375) translate(0.0, 14.7138671875)">WhatsApp Status, Facebook Stories and Snapchat
</text>
<line transform="translate(-92.93431396484374, 76.4781494140625) translate(35.0,10.0) translate(0.5,200.5) translate(45,0)" x2="0" y2="5" stroke="#0f223b" stroke-opacity="0" stroke-width="1" opacity="1" class="axis-tick" pointer-events="none" version="1.1" width="490" height="235" viewBox="0 0 490 235" fill="none" stroke-miterlimit="10" role="graphics-symbol" aria-roledescription="axis" aria-label="X-axis for a discrete scale with 5 values: 2015, 2016, 2017, 2018, 2019"/>
<line transform="translate(-92.93431396484374, 76.4781494140625) translate(35.0,10.0) translate(0.5,200.5) translate(135,0)" x2="0" y2="5" stroke="#0f223b" stroke-opacity="0" stroke-width="1" opacity="1" class="axis-tick" pointer-events="none" version="1.1" width="490" height="235" viewBox="0 0 490 235" fill="none" stroke-miterlimit="10" role="graphics-symbol" aria-roledescription="axis" aria-label="X-axis for a discrete scale with 5 values: 2015, 2016, 2017, 2018, 2019"/>
<line transform="translate(-92.93431396484374, 76.4781494140625) translate(35.0,10.0) translate(0.5,200.5) translate(225,0)" x2="0" y2="5" stroke="#0f223b" stroke-opacity="0" stroke-width="1" opacity="1" class="axis-tick" pointer-events="none" version="1.1" width="490" height="235" viewBox="0 0 490 235" fill="none" stroke-miterlimit="10" role="graphics-symbol" aria-roledescription="axis" aria-label="X-axis for a discrete scale with 5 values: 2015, 2016, 2017, 2018, 2019"/>
<line transform="translate(-92.93431396484374, 76.4781494140625) translate(35.0,10.0) translate(0.5,200.5) translate(315,0)" x2="0" y2="5" stroke="#0f223b" stroke-opacity="0" stroke-width="1" opacity="1" class="axis-tick" pointer-events="none" version="1.1" width="490" height="235" viewBox="0 0 490 235" fill="none" stroke-miterlimit="10" role="graphics-symbol" aria-roledescription="axis" aria-label="X-axis for a discrete scale with 5 values: 2015, 2016, 2017, 2018, 2019"/>
<line transform="translate(-92.93431396484374, 76.4781494140625) translate(35.0,10.0) translate(0.5,200.5) translate(405,0)" x2="0" y2="5" stroke="#0f223b" stroke-opacity="0" stroke-width="1" opacity="1" class="axis-tick" pointer-events="none" version="1.1" width="490" height="235" viewBox="0 0 490 235" fill="none" stroke-miterlimit="10" role="graphics-symbol" aria-roledescription="axis" aria-label="X-axis for a discrete scale with 5 values: 2015, 2016, 2017, 2018, 2019"/>
<text text-anchor="middle" transform="translate(-92.93431396484374, 76.4781494140625) translate(35.0,10.0) translate(0.5,200.5) translate(0.0,0.0) translate(45,18)" font-family="sans-serif" font-size="10.0px" fill="#000d2a" opacity="1" class="axis-label" pointer-events="none" version="1.1" width="490" height="235" viewBox="0 0 490 235" stroke-miterlimit="10" role="graphics-symbol" aria-roledescription="axis" aria-label="X-axis for a discrete scale with 5 values: 2015, 2016, 2017, 2018, 2019">2015
</text>
<text text-anchor="middle" transform="translate(-92.93431396484374, 76.4781494140625) translate(35.0,10.0) translate(0.5,200.5) translate(0.0,0.0) translate(135,18)" font-family="sans-serif" font-size="10.0px" fill="#000d2a" opacity="1" class="axis-label" pointer-events="none" version="1.1" width="490" height="235" viewBox="0 0 490 235" stroke-miterlimit="10" role="graphics-symbol" aria-roledescription="axis" aria-label="X-axis for a discrete scale with 5 values: 2015, 2016, 2017, 2018, 2019">2016
</text>
<text text-anchor="middle" transform="translate(-92.93431396484374, 76.4781494140625) translate(35.0,10.0) translate(0.5,200.5) translate(0.0,0.0) translate(225,18)" font-family="sans-serif" font-size="10.0px" fill="#000d2a" opacity="1" class="axis-label" pointer-events="none" version="1.1" width="490" height="235" viewBox="0 0 490 235" stroke-miterlimit="10" role="graphics-symbol" aria-roledescription="axis" aria-label="X-axis for a discrete scale with 5 values: 2015, 2016, 2017, 2018, 2019">2017
</text>
<text text-anchor="middle" transform="translate(-92.93431396484374, 76.4781494140625) translate(35.0,10.0) translate(0.5,200.5) translate(0.0,0.0) translate(315,18)" font-family="sans-serif" font-size="10.0px" fill="#000d2a" opacity="1" class="axis-label" pointer-events="none" version="1.1" width="490" height="235" viewBox="0 0 490 235" stroke-miterlimit="10" role="graphics-symbol" aria-roledescription="axis" aria-label="X-axis for a discrete scale with 5 values: 2015, 2016, 2017, 2018, 2019">2018
</text>
<text text-anchor="middle" transform="translate(-92.93431396484374, 76.4781494140625) translate(35.0,10.0) translate(0.5,200.5) translate(0.0,0.0) translate(405,18)" font-family="sans-serif" font-size="10.0px" fill="#000d2a" opacity="1" class="axis-label" pointer-events="none" version="1.1" width="490" height="235" viewBox="0 0 490 235" stroke-miterlimit="10" role="graphics-symbol" aria-roledescription="axis" aria-label="X-axis for a discrete scale with 5 values: 2015, 2016, 2017, 2018, 2019">2019
</text>
<line transform="translate(-92.93431396484374, 76.4781494140625) translate(35.0,10.0) translate(0.5,200.5) translate(0,0)" x2="450" y2="0" stroke="#0f223b" stroke-opacity="0" stroke-width="1" opacity="1" class="axis-domain" pointer-events="none" version="1.1" width="490" height="235" viewBox="0 0 490 235" fill="none" stroke-miterlimit="10" role="graphics-symbol" aria-roledescription="axis" aria-label="X-axis for a discrete scale with 5 values: 2015, 2016, 2017, 2018, 2019"/>
<line transform="translate(-92.93431396484374, 76.4781494140625) translate(35.0,10.0) translate(0.5,0.5) translate(0,200)" x2="-5" y2="0" stroke="#0f223b" stroke-opacity="0" stroke-width="1" opacity="1" class="axis-tick" pointer-events="none" version="1.1" width="490" height="235" viewBox="0 0 490 235" fill="none" stroke-miterlimit="10" role="graphics-symbol" aria-roledescription="axis" aria-label="Y-axis for a linear scale with values from 0 to 500"/>
<line transform="translate(-92.93431396484374, 76.4781494140625) translate(35.0,10.0) translate(0.5,0.5) translate(0,160)" x2="-5" y2="0" stroke="#0f223b" stroke-opacity="0" stroke-width="1" opacity="1" class="axis-tick" pointer-events="none" version="1.1" width="490" height="235" viewBox="0 0 490 235" fill="none" stroke-miterlimit="10" role="graphics-symbol" aria-roledescription="axis" aria-label="Y-axis for a linear scale with values from 0 to 500"/>
<line transform="translate(-92.93431396484374, 76.4781494140625) translate(35.0,10.0) translate(0.5,0.5) translate(0,120)" x2="-5" y2="0" stroke="#0f223b" stroke-opacity="0" stroke-width="1" opacity="1" class="axis-tick" pointer-events="none" version="1.1" width="490" height="235" viewBox="0 0 490 235" fill="none" stroke-miterlimit="10" role="graphics-symbol" aria-roledescription="axis" aria-label="Y-axis for a linear scale with values from 0 to 500"/>
<line transform="translate(-92.93431396484374, 76.4781494140625) translate(35.0,10.0) translate(0.5,0.5) translate(0,80)" x2="-5" y2="0" stroke="#0f223b" stroke-opacity="0" stroke-width="1" opacity="1" class="axis-tick" pointer-events="none" version="1.1" width="490" height="235" viewBox="0 0 490 235" fill="none" stroke-miterlimit="10" role="graphics-symbol" aria-roledescription="axis" aria-label="Y-axis for a linear scale with values from 0 to 500"/>
<line transform="translate(-92.93431396484374, 76.4781494140625) translate(35.0,10.0) translate(0.5,0.5) translate(0,40)" x2="-5" y2="0" stroke="#0f223b" stroke-opacity="0" stroke-width="1" opacity="1" class="axis-tick" pointer-events="none" version="1.1" width="490" height="235" viewBox="0 0 490 235" fill="none" stroke-miterlimit="10" role="graphics-symbol" aria-roledescription="axis" aria-label="Y-axis for a linear scale with values from 0 to 500"/>
<line transform="translate(-92.93431396484374, 76.4781494140625) translate(35.0,10.0) translate(0.5,0.5) translate(0,0)" x2="-5" y2="0" stroke="#0f223b" stroke-opacity="0" stroke-width="1" opacity="1" class="axis-tick" pointer-events="none" version="1.1" width="490" height="235" viewBox="0 0 490 235" fill="none" stroke-miterlimit="10" role="graphics-symbol" aria-roledescription="axis" aria-label="Y-axis for a linear scale with values from 0 to 500"/>
<text text-anchor="end" transform="translate(-92.93431396484374, 76.4781494140625) translate(35.0,10.0) translate(0.5,0.5) translate(-10,203)" font-family="sans-serif" font-size="10px" fill="#000d2a" opacity="1" class="axis-label" pointer-events="none" version="1.1" width="490" height="235" viewBox="0 0 490 235" stroke-miterlimit="10" role="graphics-symbol" aria-roledescription="axis" aria-label="Y-axis for a linear scale with values from 0 to 500">0
</text>
<text text-anchor="end" transform="translate(-92.93431396484374, 76.4781494140625) translate(35.0,10.0) translate(0.5,0.5) translate(-10,163)" font-family="sans-serif" font-size="10px" fill="#000d2a" opacity="1" class="axis-label" pointer-events="none" version="1.1" width="490" height="235" viewBox="0 0 490 235" stroke-miterlimit="10" role="graphics-symbol" aria-roledescription="axis" aria-label="Y-axis for a linear scale with values from 0 to 500">100
</text>
<text text-anchor="end" transform="translate(-92.93431396484374, 76.4781494140625) translate(35.0,10.0) translate(0.5,0.5) translate(-10,123)" font-family="sans-serif" font-size="10px" fill="#000d2a" opacity="1" class="axis-label" pointer-events="none" version="1.1" width="490" height="235" viewBox="0 0 490 235" stroke-miterlimit="10" role="graphics-symbol" aria-roledescription="axis" aria-label="Y-axis for a linear scale with values from 0 to 500">200
</text>
<text text-anchor="end" transform="translate(-92.93431396484374, 76.4781494140625) translate(35.0,10.0) translate(0.5,0.5) translate(-10,83)" font-family="sans-serif" font-size="10px" fill="#000d2a" opacity="1" class="axis-label" pointer-events="none" version="1.1" width="490" height="235" viewBox="0 0 490 235" stroke-miterlimit="10" role="graphics-symbol" aria-roledescription="axis" aria-label="Y-axis for a linear scale with values from 0 to 500">300
</text>
<text text-anchor="end" transform="translate(-92.93431396484374, 76.4781494140625) translate(35.0,10.0) translate(0.5,0.5) translate(-10,42.99999999999999)" font-family="sans-serif" font-size="10px" fill="#000d2a" opacity="1" class="axis-label" pointer-events="none" version="1.1" width="490" height="235" viewBox="0 0 490 235" stroke-miterlimit="10" role="graphics-symbol" aria-roledescription="axis" aria-label="Y-axis for a linear scale with values from 0 to 500">400
</text>
<text text-anchor="end" transform="translate(-92.93431396484374, 76.4781494140625) translate(35.0,10.0) translate(0.5,0.5) translate(-10,3)" font-family="sans-serif" font-size="10px" fill="#000d2a" opacity="1" class="axis-label" pointer-events="none" version="1.1" width="490" height="235" viewBox="0 0 490 235" stroke-miterlimit="10" role="graphics-symbol" aria-roledescription="axis" aria-label="Y-axis for a linear scale with values from 0 to 500">500
</text>
<line transform="translate(-92.93431396484374, 76.4781494140625) translate(35.0,10.0) translate(0.5,0.5) translate(0,200)" x2="0" y2="-200" stroke="#0f223b" stroke-opacity="0" stroke-width="1" opacity="1" class="axis-domain" pointer-events="none" version="1.1" width="490" height="235" viewBox="0 0 490 235" fill="none" stroke-miterlimit="10" role="graphics-symbol" aria-roledescription="axis" aria-label="Y-axis for a linear scale with values from 0 to 500"/>
<path aria-label="Year: 2015; Units: 100; Platform: Snapchat" role="graphics-symbol" aria-roledescription="line mark" d="M45,160L135,140L225,130L315,124L405,124" stroke="#9e9ac8" stroke-width="2" opacity="1" class="line" version="1.1" width="490" height="235" viewBox="0 0 490 235" fill="none" stroke-miterlimit="10" transform="translate(-92.93431396484374, 76.4781494140625) translate(35.0,10.0)"/>
<path aria-label="Year: 2016; Units: 100; Platform: Instagram Stories" role="graphics-symbol" aria-roledescription="line mark" d="M135,160L225,80L315,20L405,0" stroke="#3182bd" stroke-width="2" opacity="1" class="line" version="1.1" width="490" height="235" viewBox="0 0 490 235" fill="none" stroke-miterlimit="10" transform="translate(-92.93431396484374, 76.4781494140625) translate(35.0,10.0)"/>
<path aria-label="Year: 2017; Units: 250; Platform: WhatsApp Status" role="graphics-symbol" aria-roledescription="line mark" d="M225,100L315,20L405,0" stroke="#d9d9d9" stroke-width="2" opacity="1" class="line" version="1.1" width="490" height="235" viewBox="0 0 490 235" fill="none" stroke-miterlimit="10" transform="translate(-92.93431396484374, 76.4781494140625) translate(35.0,10.0)"/>
<path aria-label="Year: 2017; Units: 70; Platform: Facebook Stories" role="graphics-symbol" aria-roledescription="line mark" d="M225,172L315,120L405,0" stroke="#fdae6b" stroke-width="2" opacity="1" class="line" version="1.1" width="490" height="235" viewBox="0 0 490 235" fill="none" stroke-miterlimit="10" transform="translate(-92.93431396484374, 76.4781494140625) translate(35.0,10.0)"/></g></svg>