<svg version="1.1" class="marks" width="520.470703125" height="286.591796875" viewBox="0 0 620.470703125 386.591796875" xmlns="http://www.w3.org/2000/svg" xmlns:xlink="http://www.w3.org/1999/xlink"><rect width="100%" height="100%" fill="#ffffff"/>
<g transform="translate(189.60032958984374, 50.8323974609375)"><rect x="0" y="0" width="15" height="150" fill="#393b79" transform="scale(0.4328466796875)"/>
<text class="chart-title-line" x="0" y="0" text-anchor="start" font-family="sans-serif" font-size="24" font-weight="700" fill="#0f2740" letter-spacing="0" transform="translate(16.4927001953125, 21.2926025390625)">Landing on the Moon
</text>
<text class="chart-subtitle-line" x="0" y="0" text-anchor="start" font-family="sans-serif" font-size="13" font-weight="400" fill="#445f7c" letter-spacing="0.25" transform="translate(16.4927001953125, 21.2926025390625) translate(0.0, 27.0234375)">Successful Moon lander and impactor
</text>
<text class="chart-subtitle-line" x="0" y="0" text-anchor="start" font-family="sans-serif" font-size="13" font-weight="400" fill="#445f7c" letter-spacing="0.25" transform="translate(16.4927001953125, 21.2926025390625) translate(0.0, 27.0234375) translate(0.0, 14.7138671875)">missions, by country
</text>
<line transform="translate(-153.12962646484374, 75.2593994140625) translate(83.0,10.0) translate(0.5,0.5) translate(0,0)" x2="0" y2="-5" stroke="#0f223b" stroke-opacity="0" stroke-width="1" opacity="1" class="axis-tick" pointer-events="none" version="1.1" width="538" height="215" viewBox="0 0 538 215" fill="none" stroke-miterlimit="10" role="graphics-symbol" aria-roledescription="axis" aria-label="X-axis for a linear scale with values from 0 to 30"/>
<line transform="translate(-153.12962646484374, 75.2593994140625) translate(83.0,10.0) translate(0.5,0.5) translate(30,0)" x2="0" y2="-5" stroke="#0f223b" stroke-opacity="0" stroke-width="1" opacity="1" class="axis-tick" pointer-events="none" version="1.1" width="538" height="215" viewBox="0 0 538 215" fill="none" stroke-miterlimit="10" role="graphics-symbol" aria-roledescription="axis" aria-label="X-axis for a linear scale with values from 0 to 30"/>
<line transform="translate(-153.12962646484374, 75.2593994140625) translate(83.0,10.0) translate(0.5,0.5) translate(60,0)" x2="0" y2="-5" stroke="#0f223b" stroke-opacity="0" stroke-width="1" opacity="1" class="axis-tick" pointer-events="none" version="1.1" width="538" height="215" viewBox="0 0 538 215" fill="none" stroke-miterlimit="10" role="graphics-symbol" aria-roledescription="axis" aria-label="X-axis for a linear scale with values from 0 to 30"/>
<line transform="translate(-153.12962646484374, 75.2593994140625) translate(83.0,10.0) translate(0.5,0.5) translate(90,0)" x2="0" y2="-5" stroke="#0f223b" stroke-opacity="0" stroke-width="1" opacity="1" class="axis-tick" pointer-events="none" version="1.1" width="538" height="215" viewBox="0 0 538 215" fill="none" stroke-miterlimit="10" role="graphics-symbol" aria-roledescription="axis" aria-label="X-axis for a linear scale with values from 0 to 30"/>
<line transform="translate(-153.12962646484374, 75.2593994140625) translate(83.0,10.0) translate(0.5,0.5) translate(120,0)" x2="0" y2="-5" stroke="#0f223b" stroke-opacity="0" stroke-width="1" opacity="1" class="axis-tick" pointer-events="none" version="1.1" width="538" height="215" viewBox="0 0 538 215" fill="none" stroke-miterlimit="10" role="graphics-symbol" aria-roledescription="axis" aria-label="X-axis for a linear scale with values from 0 to 30"/>
<line transform="translate(-153.12962646484374, 75.2593994140625) translate(83.0,10.0) translate(0.5,0.5) translate(150,0)" x2="0" y2="-5" stroke="#0f223b" stroke-opacity="0" stroke-width="1" opacity="1" class="axis-tick" pointer-events="none" version="1.1" width="538" height="215" viewBox="0 0 538 215" fill="none" stroke-miterlimit="10" role="graphics-symbol" aria-roledescription="axis" aria-label="X-axis for a linear scale with values from 0 to 30"/>
<line transform="translate(-153.12962646484374, 75.2593994140625) translate(83.0,10.0) translate(0.5,0.5) translate(180,0)" x2="0" y2="-5" stroke="#0f223b" stroke-opacity="0" stroke-width="1" opacity="1" class="axis-tick" pointer-events="none" version="1.1" width="538" height="215" viewBox="0 0 538 215" fill="none" stroke-miterlimit="10" role="graphics-symbol" aria-roledescription="axis" aria-label="X-axis for a linear scale with values from 0 to 30"/>
<line transform="translate(-153.12962646484374, 75.2593994140625) translate(83.0,10.0) translate(0.5,0.5) translate(210,0)" x2="0" y2="-5" stroke="#0f223b" stroke-opacity="0" stroke-width="1" opacity="1" class="axis-tick" pointer-events="none" version="1.1" width="538" height="215" viewBox="0 0 538 215" fill="none" stroke-miterlimit="10" role="graphics-symbol" aria-roledescription="axis" aria-label="X-axis for a linear scale with values from 0 to 30"/>
<line transform="translate(-153.12962646484374, 75.2593994140625) translate(83.0,10.0) translate(0.5,0.5) translate(240,0)" x2="0" y2="-5" stroke="#0f223b" stroke-opacity="0" stroke-width="1" opacity="1" class="axis-tick" pointer-events="none" version="1.1" width="538" height="215" viewBox="0 0 538 215" fill="none" stroke-miterlimit="10" role="graphics-symbol" aria-roledescription="axis" aria-label="X-axis for a linear scale with values from 0 to 30"/>
<line transform="translate(-153.12962646484374, 75.2593994140625) translate(83.0,10.0) translate(0.5,0.5) translate(270,0)" x2="0" y2="-5" stroke="#0f223b" stroke-opacity="0" stroke-width="1" opacity="1" class="axis-tick" pointer-events="none" version="1.1" width="538" height="215" viewBox="0 0 538 215" fill="none" stroke-miterlimit="10" role="graphics-symbol" aria-roledescription="axis" aria-label="X-axis for a linear scale with values from 0 to 30"/>
<line transform="translate(-153.12962646484374, 75.2593994140625) translate(83.0,10.0) translate(0.5,0.5) translate(300,0)" x2="0" y2="-5" stroke="#0f223b" stroke-opacity="0" stroke-width="1" opacity="1" class="axis-tick" pointer-events="none" version="1.1" width="538" height="215" viewBox="0 0 538 215" fill="none" stroke-miterlimit="10" role="graphics-symbol" aria-roledescription="axis" aria-label="X-axis for a linear scale with values from 0 to 30"/>
<line transform="translate(-153.12962646484374, 75.2593994140625) translate(83.0,10.0) translate(0.5,0.5) translate(330,0)" x2="0" y2="-5" stroke="#0f223b" stroke-opacity="0" stroke-width="1" opacity="1" class="axis-tick" pointer-events="none" version="1.1" width="538" height="215" viewBox="0 0 538 215" fill="none" stroke-miterlimit="10" role="graphics-symbol" aria-roledescription="axis" aria-label="X-axis for a linear scale with values from 0 to 30"/>
<line transform="translate(-153.12962646484374, 75.2593994140625) translate(83.0,10.0) translate(0.5,0.5) translate(360,0)" x2="0" y2="-5" stroke="#0f223b" stroke-opacity="0" stroke-width="1" opacity="1" class="axis-tick" pointer-events="none" version="1.1" width="538" height="215" viewBox="0 0 538 215" fill="none" stroke-miterlimit="10" role="graphics-symbol" aria-roledescription="axis" aria-label="X-axis for a linear scale with values from 0 to 30"/>
<line transform="translate(-153.12962646484374, 75.2593994140625) translate(83.0,10.0) translate(0.5,0.5) translate(390,0)" x2="0" y2="-5" stroke="#0f223b" stroke-opacity="0" stroke-width="1" opacity="1" class="axis-tick" pointer-events="none" version="1.1" width="538" height="215" viewBox="0 0 538 215" fill="none" stroke-miterlimit="10" role="graphics-symbol" aria-roledescription="axis" aria-label="X-axis for a linear scale with values from 0 to 30"/>
<line transform="translate(-153.12962646484374, 75.2593994140625) translate(83.0,10.0) translate(0.5,0.5) translate(420,0)" x2="0" y2="-5" stroke="#0f223b" stroke-opacity="0" stroke-width="1" opacity="1" class="axis-tick" pointer-events="none" version="1.1" width="538" height="215" viewBox="0 0 538 215" fill="none" stroke-miterlimit="10" role="graphics-symbol" aria-roledescription="axis" aria-label="X-axis for a linear scale with values from 0 to 30"/>
<line transform="translate(-153.12962646484374, 75.2593994140625) translate(83.0,10.0) translate(0.5,0.5) translate(450,0)" x2="0" y2="-5" stroke="#0f223b" stroke-opacity="0" stroke-width="1" opacity="1" class="axis-tick" pointer-events="none" version="1.1" width="538" height="215" viewBox="0 0 538 215" fill="none" stroke-miterlimit="10" role="graphics-symbol" aria-roledescription="axis" aria-label="X-axis for a linear scale with values from 0 to 30"/>
<line transform="translate(-153.12962646484374, 75.2593994140625) translate(83.0,10.0) translate(0.5,0.5) translate(0,0)" x2="450" y2="0" stroke="#0f223b" stroke-opacity="0" stroke-width="1" opacity="1" class="axis-domain" pointer-events="none" version="1.1" width="538" height="215" viewBox="0 0 538 215" fill="none" stroke-miterlimit="10" role="graphics-symbol" aria-roledescription="axis" aria-label="X-axis for a linear scale with values from 0 to 30"/>
<line transform="translate(-153.12962646484374, 75.2593994140625) translate(83.0,10.0) translate(0.5,0.5) translate(0,21)" x2="-5" y2="0" stroke="#0f223b" stroke-opacity="0" stroke-width="1" opacity="1" class="axis-tick" pointer-events="none" version="1.1" width="538" height="215" viewBox="0 0 538 215" fill="none" stroke-miterlimit="10" role="graphics-symbol" aria-roledescription="axis" aria-label="Y-axis for a discrete scale with 5 values: China, India, Japan, USSR, United States"/>
<line transform="translate(-153.12962646484374, 75.2593994140625) translate(83.0,10.0) translate(0.5,0.5) translate(0,60)" x2="-5" y2="0" stroke="#0f223b" stroke-opacity="0" stroke-width="1" opacity="1" class="axis-tick" pointer-events="none" version="1.1" width="538" height="215" viewBox="0 0 538 215" fill="none" stroke-miterlimit="10" role="graphics-symbol" aria-roledescription="axis" aria-label="Y-axis for a discrete scale with 5 values: China, India, Japan, USSR, United States"/>
<line transform="translate(-153.12962646484374, 75.2593994140625) translate(83.0,10.0) translate(0.5,0.5) translate(0,99)" x2="-5" y2="0" stroke="#0f223b" stroke-opacity="0" stroke-width="1" opacity="1" class="axis-tick" pointer-events="none" version="1.1" width="538" height="215" viewBox="0 0 538 215" fill="none" stroke-miterlimit="10" role="graphics-symbol" aria-roledescription="axis" aria-label="Y-axis for a discrete scale with 5 values: China, India, Japan, USSR, United States"/>
<line transform="translate(-153.12962646484374, 75.2593994140625) translate(83.0,10.0) translate(0.5,0.5) translate(0,139)" x2="-5" y2="0" stroke="#0f223b" stroke-opacity="0" stroke-width="1" opacity="1" class="axis-tick" pointer-events="none" version="1.1" width="538" height="215" viewBox="0 0 538 215" fill="none" stroke-miterlimit="10" role="graphics-symbol" aria-roledescription="axis" aria-label="Y-axis for a discrete scale with 5 values: China, India, Japan, USSR, United States"/>
<line transform="translate(-153.12962646484374, 75.2593994140625) translate(83.0,10.0) translate(0.5,0.5) translate(0,178)" x2="-5" y2="0" stroke="#0f223b" stroke-opacity="0" stroke-width="1" opacity="1" class="axis-tick" pointer-events="none" version="1.1" width="538" height="215" viewBox="0 0 538 215" fill="none" stroke-miterlimit="10" role="graphics-symbol" aria-roledescription="axis" aria-label="Y-axis for a discrete scale with 5 values: China, India, Japan, USSR, United States"/>
<text text-anchor="end" transform="translate(-153.12962646484374, 75.2593994140625) translate(83.0,10.0) translate(0.5,0.5) translate(-10,24.06862745098039)" font-family="sans-serif" font-size="10px" fill="#000d2a" opacity="1" class="axis-label" pointer-events="none" version="1.1" width="538" height="215" viewBox="0 0 538 215" stroke-miterlimit="10" role="graphics-symbol" aria-roledescription="axis" aria-label="Y-axis for a discrete scale with 5 values: China, India, Japan, USSR, United States">China
</text>
<text text-anchor="end" transform="translate(-153.12962646484374, 75.2593994140625) translate(83.0,10.0) translate(0.5,0.5) translate(-10,63.28431372549019)" font-family="sans-serif" font-size="10px" fill="#000d2a" opacity="1" class="axis-label" pointer-events="none" version="1.1" width="538" height="215" viewBox="0 0 538 215" stroke-miterlimit="10" role="graphics-symbol" aria-roledescription="axis" aria-label="Y-axis for a discrete scale with 5 values: China, India, Japan, USSR, United States">India
</text>
<text text-anchor="end" transform="translate(-153.12962646484374, 75.2593994140625) translate(83.0,10.0) translate(0.5,0.5) translate(-10,102.49999999999999)" font-family="sans-serif" font-size="10px" fill="#000d2a" opacity="1" class="axis-label" pointer-events="none" version="1.1" width="538" height="215" viewBox="0 0 538 215" stroke-miterlimit="10" role="graphics-symbol" aria-roledescription="axis" aria-label="Y-axis for a discrete scale with 5 values: China, India, Japan, USSR, United States">Japan
</text>
<text text-anchor="end" transform="translate(-153.12962646484374, 75.2593994140625) translate(83.0,10.0) translate(0.5,0.5) translate(-10,141.71568627450978)" font-family="sans-serif" font-size="10px" fill="#000d2a" opacity="1" class="axis-label" pointer-events="none" version="1.1" width="538" height="215" viewBox="0 0 538 215" stroke-miterlimit="10" role="graphics-symbol" aria-roledescription="axis" aria-label="Y-axis for a discrete scale with 5 values: China, India, Japan, USSR, United States">USSR
</text>
<text text-anchor="end" transform="translate(-153.12962646484374, 75.2593994140625) translate(83.0,10.0) translate(0.5,0.5) translate(-10,180.93137254901958)" font-family="sans-serif" font-size="10px" fill="#000d2a" opacity="1" class="axis-label" pointer-events="none" version="1.1" width="538" height="215" viewBox="0 0 538 215" stroke-miterlimit="10" role="graphics-symbol" aria-roledescription="axis" aria-label="Y-axis for a discrete scale with 5 values: China, India, Japan, USSR, United States">United States
</text>
<line transform="translate(-153.12962646484374, 75.2593994140625) translate(83.0,10.0) translate(0.5,0.5) translate(0,0)" x2="0" y2="200" stroke="#0f223b" stroke-opacity="0" stroke-width="1" opacity="1" class="axis-domain" pointer-events="none" version="1.1" width="538" height="215" viewBox="0 0 538 215" fill="none" stroke-miterlimit="10" role="graphics-symbol" aria-roledescription="axis" aria-label="Y-axis for a discrete scale with 5 values: China, India, Japan, USSR, United States"/>
<path aria-label="Score: 11; Country: United States; Mission Type: Lander" role="graphics-symbol" aria-roledescription="bar" d="M60,166.78431372549016h165v23.294117647058822h-165Z" fill="#393b79" opacity="1" class="bar" version="1.1" width="538" height="215" viewBox="0 0 538 215" stroke-miterlimit="10" transform="translate(-153.12962646484374, 75.2593994140625) translate(83.0,10.0)"/>
<path aria-label="Score: 4; Country: United States; Mission Type: Impactor" role="graphics-symbol" aria-roledescription="bar" d="M0,166.78431372549016h60v23.294117647058822h-60Z" fill="#de9ed6" opacity="1" class="bar" version="1.1" width="538" height="215" viewBox="0 0 538 215" stroke-miterlimit="10" transform="translate(-153.12962646484374, 75.2593994140625) translate(83.0,10.0)"/>
<path aria-label="Score: 15; Country: United States; Mission Type: Total" role="graphics-symbol" aria-roledescription="bar" d="M225,166.78431372549016h225v23.294117647058822h-225Z" fill="#e7ba52" opacity="1" class="bar" version="1.1" width="538" height="215" viewBox="0 0 538 215" stroke-miterlimit="10" transform="translate(-153.12962646484374, 75.2593994140625) translate(83.0,10.0)"/>
<path aria-label="Score: 7; Country: USSR; Mission Type: Lander" role="graphics-symbol" aria-roledescription="bar" d="M15,127.56862745098037h105v23.294117647058822h-105Z" fill="#393b79" opacity="1" class="bar" version="1.1" width="538" height="215" viewBox="0 0 538 215" stroke-miterlimit="10" transform="translate(-153.12962646484374, 75.2593994140625) translate(83.0,10.0)"/>
<path aria-label="Score: 1; Country: USSR; Mission Type: Impactor" role="graphics-symbol" aria-roledescription="bar" d="M0,127.56862745098037h15v23.294117647058822h-15Z" fill="#de9ed6" opacity="1" class="bar" version="1.1" width="538" height="215" viewBox="0 0 538 215" stroke-miterlimit="10" transform="translate(-153.12962646484374, 75.2593994140625) translate(83.0,10.0)"/>
<path aria-label="Score: 8; Country: USSR; Mission Type: Total" role="graphics-symbol" aria-roledescription="bar" d="M120,127.56862745098037h120v23.294117647058822h-120Z" fill="#e7ba52" opacity="1" class="bar" version="1.1" width="538" height="215" viewBox="0 0 538 215" stroke-miterlimit="10" transform="translate(-153.12962646484374, 75.2593994140625) translate(83.0,10.0)"/>
<path aria-label="Score: 3; Country: China; Mission Type: Lander" role="graphics-symbol" aria-roledescription="bar" d="M0,9.92156862745098h45v23.294117647058822h-45Z" fill="#393b79" opacity="1" class="bar" version="1.1" width="538" height="215" viewBox="0 0 538 215" stroke-miterlimit="10" transform="translate(-153.12962646484374, 75.2593994140625) translate(83.0,10.0)"/>
<path aria-label="Score: 3; Country: China; Mission Type: Total" role="graphics-symbol" aria-roledescription="bar" d="M45,9.92156862745098h45v23.294117647058822h-45Z" fill="#e7ba52" opacity="1" class="bar" version="1.1" width="538" height="215" viewBox="0 0 538 215" stroke-miterlimit="10" transform="translate(-153.12962646484374, 75.2593994140625) translate(83.0,10.0)"/>
<path aria-label="Score: 1; Country: India; Mission Type: Lander" role="graphics-symbol" aria-roledescription="bar" d="M15,49.13725490196078h15v23.294117647058822h-15Z" fill="#393b79" opacity="1" class="bar" version="1.1" width="538" height="215" viewBox="0 0 538 215" stroke-miterlimit="10" transform="translate(-153.12962646484374, 75.2593994140625) translate(83.0,10.0)"/>
<path aria-label="Score: 1; Country: India; Mission Type: Impactor" role="graphics-symbol" aria-roledescription="bar" d="M0,49.13725490196078h15v23.294117647058822h-15Z" fill="#de9ed6" opacity="1" class="bar" version="1.1" width="538" height="215" viewBox="0 0 538 215" stroke-miterlimit="10" transform="translate(-153.12962646484374, 75.2593994140625) translate(83.0,10.0)"/>
<path aria-label="Score: 2; Country: India; Mission Type: Total" role="graphics-symbol" aria-roledescription="bar" d="M30,49.13725490196078h30v23.294117647058822h-30Z" fill="#e7ba52" opacity="1" class="bar" version="1.1" width="538" height="215" viewBox="0 0 538 215" stroke-miterlimit="10" transform="translate(-153.12962646484374, 75.2593994140625) translate(83.0,10.0)"/>
<path aria-label="Score: 1; Country: Japan; Mission Type: Lander" role="graphics-symbol" aria-roledescription="bar" d="M0,88.35294117647058h15v23.294117647058822h-15Z" fill="#393b79" opacity="1" class="bar" version="1.1" width="538" height="215" viewBox="0 0 538 215" stroke-miterlimit="10" transform="translate(-153.12962646484374, 75.2593994140625) translate(83.0,10.0)"/>
<path aria-label="Score: 1; Country: Japan; Mission Type: Total" role="graphics-symbol" aria-roledescription="bar" d="M15,88.35294117647058h15v23.294117647058822h-15Z" fill="#e7ba52" opacity="1" class="bar" version="1.1" width="538" height="215" viewBox="0 0 538 215" stroke-miterlimit="10" transform="translate(-153.12962646484374, 75.2593994140625) translate(83.0,10.0)"/></g></svg>