<svg version="1.1" class="marks" width="471.123046875" height="320.3603515625" viewBox="0 0 571.123046875 420.3603515625" xmlns="http://www.w3.org/2000/svg" xmlns:xlink="http://www.w3.org/1999/xlink"><rect width="100%" height="100%" fill="#ffffff"/>
<g transform="translate(67.12765991210938, 50.98802490234375)"><rect x="0" y="0" width="15" height="150" fill="None" transform="scale(0.5137729492187499)"/>
<text class="chart-title-line" x="0" y="0" text-anchor="start" font-family="sans-serif" font-size="24" font-weight="700" fill="#0f2740" letter-spacing="0" transform="translate(17.706594238281248, 21.136975097656247)">State of the Union Addresses
</text>
<text class="chart-title-line" x="0" y="0" text-anchor="start" font-family="sans-serif" font-size="24" font-weight="700" fill="#0f2740" letter-spacing="0" transform="translate(17.706594238281248, 21.136975097656247) translate(0.0, 27.1640625)">on TV
</text>
<text class="chart-subtitle-line" x="0" y="0" text-anchor="start" font-family="sans-serif" font-size="13" font-weight="400" fill="#445f7c" letter-spacing="0.25" transform="translate(17.706594238281248, 21.136975097656247) translate(0.0, 54.1875)">Number of viewers of the State of the Union addresses from (in millions)
</text>
<line transform="translate(-24.50461303710938, 88.77271728515625) translate(28.0,10.0) translate(0.5,200.5) translate(9,0)" x2="0" y2="5" stroke="#0f223b" stroke-opacity="0" stroke-width="1" opacity="1" class="axis-tick" pointer-events="none" version="1.1" width="487" height="235" viewBox="0 0 487 235" fill="none" stroke-miterlimit="10" role="graphics-symbol" aria-roledescription="axis" aria-label="X-axis for a discrete scale with 25 values: 1993, 1994, 1995, 1996, 1997, ending with 2017"/>
<line transform="translate(-24.50461303710938, 88.77271728515625) translate(28.0,10.0) translate(0.5,200.5) translate(27,0)" x2="0" y2="5" stroke="#0f223b" stroke-opacity="0" stroke-width="1" opacity="1" class="axis-tick" pointer-events="none" version="1.1" width="487" height="235" viewBox="0 0 487 235" fill="none" stroke-miterlimit="10" role="graphics-symbol" aria-roledescription="axis" aria-label="X-axis for a discrete scale with 25 values: 1993, 1994, 1995, 1996, 1997, ending with 2017"/>
<line transform="translate(-24.50461303710938, 88.77271728515625) translate(28.0,10.0) translate(0.5,200.5) translate(45,0)" x2="0" y2="5" stroke="#0f223b" stroke-opacity="0" stroke-width="1" opacity="1" class="axis-tick" pointer-events="none" version="1.1" width="487" height="235" viewBox="0 0 487 235" fill="none" stroke-miterlimit="10" role="graphics-symbol" aria-roledescription="axis" aria-label="X-axis for a discrete scale with 25 values: 1993, 1994, 1995, 1996, 1997, ending with 2017"/>
<line transform="translate(-24.50461303710938, 88.77271728515625) translate(28.0,10.0) translate(0.5,200.5) translate(63,0)" x2="0" y2="5" stroke="#0f223b" stroke-opacity="0" stroke-width="1" opacity="1" class="axis-tick" pointer-events="none" version="1.1" width="487" height="235" viewBox="0 0 487 235" fill="none" stroke-miterlimit="10" role="graphics-symbol" aria-roledescription="axis" aria-label="X-axis for a discrete scale with 25 values: 1993, 1994, 1995, 1996, 1997, ending with 2017"/>
<line transform="translate(-24.50461303710938, 88.77271728515625) translate(28.0,10.0) translate(0.5,200.5) translate(81,0)" x2="0" y2="5" stroke="#0f223b" stroke-opacity="0" stroke-width="1" opacity="1" class="axis-tick" pointer-events="none" version="1.1" width="487" height="235" viewBox="0 0 487 235" fill="none" stroke-miterlimit="10" role="graphics-symbol" aria-roledescription="axis" aria-label="X-axis for a discrete scale with 25 values: 1993, 1994, 1995, 1996, 1997, ending with 2017"/>
<line transform="translate(-24.50461303710938, 88.77271728515625) translate(28.0,10.0) translate(0.5,200.5) translate(99,0)" x2="0" y2="5" stroke="#0f223b" stroke-opacity="0" stroke-width="1" opacity="1" class="axis-tick" pointer-events="none" version="1.1" width="487" height="235" viewBox="0 0 487 235" fill="none" stroke-miterlimit="10" role="graphics-symbol" aria-roledescription="axis" aria-label="X-axis for a discrete scale with 25 values: 1993, 1994, 1995, 1996, 1997, ending with 2017"/>
<line transform="translate(-24.50461303710938, 88.77271728515625) translate(28.0,10.0) translate(0.5,200.5) translate(117,0)" x2="0" y2="5" stroke="#0f223b" stroke-opacity="0" stroke-width="1" opacity="1" class="axis-tick" pointer-events="none" version="1.1" width="487" height="235" viewBox="0 0 487 235" fill="none" stroke-miterlimit="10" role="graphics-symbol" aria-roledescription="axis" aria-label="X-axis for a discrete scale with 25 values: 1993, 1994, 1995, 1996, 1997, ending with 2017"/>
<line transform="translate(-24.50461303710938, 88.77271728515625) translate(28.0,10.0) translate(0.5,200.5) translate(135,0)" x2="0" y2="5" stroke="#0f223b" stroke-opacity="0" stroke-width="1" opacity="1" class="axis-tick" pointer-events="none" version="1.1" width="487" height="235" viewBox="0 0 487 235" fill="none" stroke-miterlimit="10" role="graphics-symbol" aria-roledescription="axis" aria-label="X-axis for a discrete scale with 25 values: 1993, 1994, 1995, 1996, 1997, ending with 2017"/>
<line transform="translate(-24.50461303710938, 88.77271728515625) translate(28.0,10.0) translate(0.5,200.5) translate(153,0)" x2="0" y2="5" stroke="#0f223b" stroke-opacity="0" stroke-width="1" opacity="1" class="axis-tick" pointer-events="none" version="1.1" width="487" height="235" viewBox="0 0 487 235" fill="none" stroke-miterlimit="10" role="graphics-symbol" aria-roledescription="axis" aria-label="X-axis for a discrete scale with 25 values: 1993, 1994, 1995, 1996, 1997, ending with 2017"/>
<line transform="translate(-24.50461303710938, 88.77271728515625) translate(28.0,10.0) translate(0.5,200.5) translate(171,0)" x2="0" y2="5" stroke="#0f223b" stroke-opacity="0" stroke-width="1" opacity="1" class="axis-tick" pointer-events="none" version="1.1" width="487" height="235" viewBox="0 0 487 235" fill="none" stroke-miterlimit="10" role="graphics-symbol" aria-roledescription="axis" aria-label="X-axis for a discrete scale with 25 values: 1993, 1994, 1995, 1996, 1997, ending with 2017"/>
<line transform="translate(-24.50461303710938, 88.77271728515625) translate(28.0,10.0) translate(0.5,200.5) translate(189,0)" x2="0" y2="5" stroke="#0f223b" stroke-opacity="0" stroke-width="1" opacity="1" class="axis-tick" pointer-events="none" version="1.1" width="487" height="235" viewBox="0 0 487 235" fill="none" stroke-miterlimit="10" role="graphics-symbol" aria-roledescription="axis" aria-label="X-axis for a discrete scale with 25 values: 1993, 1994, 1995, 1996, 1997, ending with 2017"/>
<line transform="translate(-24.50461303710938, 88.77271728515625) translate(28.0,10.0) translate(0.5,200.5) translate(207,0)" x2="0" y2="5" stroke="#0f223b" stroke-opacity="0" stroke-width="1" opacity="1" class="axis-tick" pointer-events="none" version="1.1" width="487" height="235" viewBox="0 0 487 235" fill="none" stroke-miterlimit="10" role="graphics-symbol" aria-roledescription="axis" aria-label="X-axis for a discrete scale with 25 values: 1993, 1994, 1995, 1996, 1997, ending with 2017"/>
<line transform="translate(-24.50461303710938, 88.77271728515625) translate(28.0,10.0) translate(0.5,200.5) translate(225,0)" x2="0" y2="5" stroke="#0f223b" stroke-opacity="0" stroke-width="1" opacity="1" class="axis-tick" pointer-events="none" version="1.1" width="487" height="235" viewBox="0 0 487 235" fill="none" stroke-miterlimit="10" role="graphics-symbol" aria-roledescription="axis" aria-label="X-axis for a discrete scale with 25 values: 1993, 1994, 1995, 1996, 1997, ending with 2017"/>
<line transform="translate(-24.50461303710938, 88.77271728515625) translate(28.0,10.0) translate(0.5,200.5) translate(243,0)" x2="0" y2="5" stroke="#0f223b" stroke-opacity="0" stroke-width="1" opacity="1" class="axis-tick" pointer-events="none" version="1.1" width="487" height="235" viewBox="0 0 487 235" fill="none" stroke-miterlimit="10" role="graphics-symbol" aria-roledescription="axis" aria-label="X-axis for a discrete scale with 25 values: 1993, 1994, 1995, 1996, 1997, ending with 2017"/>
<line transform="translate(-24.50461303710938, 88.77271728515625) translate(28.0,10.0) translate(0.5,200.5) translate(261,0)" x2="0" y2="5" stroke="#0f223b" stroke-opacity="0" stroke-width="1" opacity="1" class="axis-tick" pointer-events="none" version="1.1" width="487" height="235" viewBox="0 0 487 235" fill="none" stroke-miterlimit="10" role="graphics-symbol" aria-roledescription="axis" aria-label="X-axis for a discrete scale with 25 values: 1993, 1994, 1995, 1996, 1997, ending with 2017"/>
<line transform="translate(-24.50461303710938, 88.77271728515625) translate(28.0,10.0) translate(0.5,200.5) translate(279,0)" x2="0" y2="5" stroke="#0f223b" stroke-opacity="0" stroke-width="1" opacity="1" class="axis-tick" pointer-events="none" version="1.1" width="487" height="235" viewBox="0 0 487 235" fill="none" stroke-miterlimit="10" role="graphics-symbol" aria-roledescription="axis" aria-label="X-axis for a discrete scale with 25 values: 1993, 1994, 1995, 1996, 1997, ending with 2017"/>
<line transform="translate(-24.50461303710938, 88.77271728515625) translate(28.0,10.0) translate(0.5,200.5) translate(297,0)" x2="0" y2="5" stroke="#0f223b" stroke-opacity="0" stroke-width="1" opacity="1" class="axis-tick" pointer-events="none" version="1.1" width="487" height="235" viewBox="0 0 487 235" fill="none" stroke-miterlimit="10" role="graphics-symbol" aria-roledescription="axis" aria-label="X-axis for a discrete scale with 25 values: 1993, 1994, 1995, 1996, 1997, ending with 2017"/>
<line transform="translate(-24.50461303710938, 88.77271728515625) translate(28.0,10.0) translate(0.5,200.5) translate(315,0)" x2="0" y2="5" stroke="#0f223b" stroke-opacity="0" stroke-width="1" opacity="1" class="axis-tick" pointer-events="none" version="1.1" width="487" height="235" viewBox="0 0 487 235" fill="none" stroke-miterlimit="10" role="graphics-symbol" aria-roledescription="axis" aria-label="X-axis for a discrete scale with 25 values: 1993, 1994, 1995, 1996, 1997, ending with 2017"/>
<line transform="translate(-24.50461303710938, 88.77271728515625) translate(28.0,10.0) translate(0.5,200.5) translate(333,0)" x2="0" y2="5" stroke="#0f223b" stroke-opacity="0" stroke-width="1" opacity="1" class="axis-tick" pointer-events="none" version="1.1" width="487" height="235" viewBox="0 0 487 235" fill="none" stroke-miterlimit="10" role="graphics-symbol" aria-roledescription="axis" aria-label="X-axis for a discrete scale with 25 values: 1993, 1994, 1995, 1996, 1997, ending with 2017"/>
<line transform="translate(-24.50461303710938, 88.77271728515625) translate(28.0,10.0) translate(0.5,200.5) translate(351,0)" x2="0" y2="5" stroke="#0f223b" stroke-opacity="0" stroke-width="1" opacity="1" class="axis-tick" pointer-events="none" version="1.1" width="487" height="235" viewBox="0 0 487 235" fill="none" stroke-miterlimit="10" role="graphics-symbol" aria-roledescription="axis" aria-label="X-axis for a discrete scale with 25 values: 1993, 1994, 1995, 1996, 1997, ending with 2017"/>
<line transform="translate(-24.50461303710938, 88.77271728515625) translate(28.0,10.0) translate(0.5,200.5) translate(369,0)" x2="0" y2="5" stroke="#0f223b" stroke-opacity="0" stroke-width="1" opacity="1" class="axis-tick" pointer-events="none" version="1.1" width="487" height="235" viewBox="0 0 487 235" fill="none" stroke-miterlimit="10" role="graphics-symbol" aria-roledescription="axis" aria-label="X-axis for a discrete scale with 25 values: 1993, 1994, 1995, 1996, 1997, ending with 2017"/>
<line transform="translate(-24.50461303710938, 88.77271728515625) translate(28.0,10.0) translate(0.5,200.5) translate(387,0)" x2="0" y2="5" stroke="#0f223b" stroke-opacity="0" stroke-width="1" opacity="1" class="axis-tick" pointer-events="none" version="1.1" width="487" height="235" viewBox="0 0 487 235" fill="none" stroke-miterlimit="10" role="graphics-symbol" aria-roledescription="axis" aria-label="X-axis for a discrete scale with 25 values: 1993, 1994, 1995, 1996, 1997, ending with 2017"/>
<line transform="translate(-24.50461303710938, 88.77271728515625) translate(28.0,10.0) translate(0.5,200.5) translate(405,0)" x2="0" y2="5" stroke="#0f223b" stroke-opacity="0" stroke-width="1" opacity="1" class="axis-tick" pointer-events="none" version="1.1" width="487" height="235" viewBox="0 0 487 235" fill="none" stroke-miterlimit="10" role="graphics-symbol" aria-roledescription="axis" aria-label="X-axis for a discrete scale with 25 values: 1993, 1994, 1995, 1996, 1997, ending with 2017"/>
<line transform="translate(-24.50461303710938, 88.77271728515625) translate(28.0,10.0) translate(0.5,200.5) translate(423,0)" x2="0" y2="5" stroke="#0f223b" stroke-opacity="0" stroke-width="1" opacity="1" class="axis-tick" pointer-events="none" version="1.1" width="487" height="235" viewBox="0 0 487 235" fill="none" stroke-miterlimit="10" role="graphics-symbol" aria-roledescription="axis" aria-label="X-axis for a discrete scale with 25 values: 1993, 1994, 1995, 1996, 1997, ending with 2017"/>
<line transform="translate(-24.50461303710938, 88.77271728515625) translate(28.0,10.0) translate(0.5,200.5) translate(441,0)" x2="0" y2="5" stroke="#0f223b" stroke-opacity="0" stroke-width="1" opacity="1" class="axis-tick" pointer-events="none" version="1.1" width="487" height="235" viewBox="0 0 487 235" fill="none" stroke-miterlimit="10" role="graphics-symbol" aria-roledescription="axis" aria-label="X-axis for a discrete scale with 25 values: 1993, 1994, 1995, 1996, 1997, ending with 2017"/>
<text text-anchor="middle" transform="translate(-24.50461303710938, 88.77271728515625) translate(28.0,10.0) translate(0.5,200.5) translate(0.0,0.0) translate(9,18)" font-family="sans-serif" font-size="10.0px" fill="#000d2a" opacity="1" class="axis-label" pointer-events="none" version="1.1" width="487" height="235" viewBox="0 0 487 235" stroke-miterlimit="10" role="graphics-symbol" aria-roledescription="axis" aria-label="X-axis for a discrete scale with 25 values: 1993, 1994, 1995, 1996, 1997, ending with 2017">'93
</text>
<text text-anchor="middle" transform="translate(-24.50461303710938, 88.77271728515625) translate(28.0,10.0) translate(0.5,200.5) translate(0.0,0.0) translate(27,18)" font-family="sans-serif" font-size="10.0px" fill="#000d2a" opacity="1" class="axis-label" pointer-events="none" version="1.1" width="487" height="235" viewBox="0 0 487 235" stroke-miterlimit="10" role="graphics-symbol" aria-roledescription="axis" aria-label="X-axis for a discrete scale with 25 values: 1993, 1994, 1995, 1996, 1997, ending with 2017">'94
</text>
<text text-anchor="middle" transform="translate(-24.50461303710938, 88.77271728515625) translate(28.0,10.0) translate(0.5,200.5) translate(0.0,0.0) translate(45,18)" font-family="sans-serif" font-size="10.0px" fill="#000d2a" opacity="1" class="axis-label" pointer-events="none" version="1.1" width="487" height="235" viewBox="0 0 487 235" stroke-miterlimit="10" role="graphics-symbol" aria-roledescription="axis" aria-label="X-axis for a discrete scale with 25 values: 1993, 1994, 1995, 1996, 1997, ending with 2017">'95
</text>
<text text-anchor="middle" transform="translate(-24.50461303710938, 88.77271728515625) translate(28.0,10.0) translate(0.5,200.5) translate(0.0,0.0) translate(63,18)" font-family="sans-serif" font-size="10.0px" fill="#000d2a" opacity="1" class="axis-label" pointer-events="none" version="1.1" width="487" height="235" viewBox="0 0 487 235" stroke-miterlimit="10" role="graphics-symbol" aria-roledescription="axis" aria-label="X-axis for a discrete scale with 25 values: 1993, 1994, 1995, 1996, 1997, ending with 2017">'96
</text>
<text text-anchor="middle" transform="translate(-24.50461303710938, 88.77271728515625) translate(28.0,10.0) translate(0.5,200.5) translate(0.0,0.0) translate(81,18)" font-family="sans-serif" font-size="10.0px" fill="#000d2a" opacity="1" class="axis-label" pointer-events="none" version="1.1" width="487" height="235" viewBox="0 0 487 235" stroke-miterlimit="10" role="graphics-symbol" aria-roledescription="axis" aria-label="X-axis for a discrete scale with 25 values: 1993, 1994, 1995, 1996, 1997, ending with 2017">'97
</text>
<text text-anchor="middle" transform="translate(-24.50461303710938, 88.77271728515625) translate(28.0,10.0) translate(0.5,200.5) translate(0.0,0.0) translate(99,18)" font-family="sans-serif" font-size="10.0px" fill="#000d2a" opacity="1" class="axis-label" pointer-events="none" version="1.1" width="487" height="235" viewBox="0 0 487 235" stroke-miterlimit="10" role="graphics-symbol" aria-roledescription="axis" aria-label="X-axis for a discrete scale with 25 values: 1993, 1994, 1995, 1996, 1997, ending with 2017">'98
</text>
<text text-anchor="middle" transform="translate(-24.50461303710938, 88.77271728515625) translate(28.0,10.0) translate(0.5,200.5) translate(0.0,0.0) translate(117,18)" font-family="sans-serif" font-size="10.0px" fill="#000d2a" opacity="1" class="axis-label" pointer-events="none" version="1.1" width="487" height="235" viewBox="0 0 487 235" stroke-miterlimit="10" role="graphics-symbol" aria-roledescription="axis" aria-label="X-axis for a discrete scale with 25 values: 1993, 1994, 1995, 1996, 1997, ending with 2017">'99
</text>
<text text-anchor="middle" transform="translate(-24.50461303710938, 88.77271728515625) translate(28.0,10.0) translate(0.5,200.5) translate(0.0,0.0) translate(135,18)" font-family="sans-serif" font-size="10.0px" fill="#000d2a" opacity="1" class="axis-label" pointer-events="none" version="1.1" width="487" height="235" viewBox="0 0 487 235" stroke-miterlimit="10" role="graphics-symbol" aria-roledescription="axis" aria-label="X-axis for a discrete scale with 25 values: 1993, 1994, 1995, 1996, 1997, ending with 2017">'00
</text>
<text text-anchor="middle" transform="translate(-24.50461303710938, 88.77271728515625) translate(28.0,10.0) translate(0.5,200.5) translate(0.0,0.0) translate(153,18)" font-family="sans-serif" font-size="10.0px" fill="#000d2a" opacity="1" class="axis-label" pointer-events="none" version="1.1" width="487" height="235" viewBox="0 0 487 235" stroke-miterlimit="10" role="graphics-symbol" aria-roledescription="axis" aria-label="X-axis for a discrete scale with 25 values: 1993, 1994, 1995, 1996, 1997, ending with 2017">'01
</text>
<text text-anchor="middle" transform="translate(-24.50461303710938, 88.77271728515625) translate(28.0,10.0) translate(0.5,200.5) translate(0.0,0.0) translate(171,18)" font-family="sans-serif" font-size="10.0px" fill="#000d2a" opacity="1" class="axis-label" pointer-events="none" version="1.1" width="487" height="235" viewBox="0 0 487 235" stroke-miterlimit="10" role="graphics-symbol" aria-roledescription="axis" aria-label="X-axis for a discrete scale with 25 values: 1993, 1994, 1995, 1996, 1997, ending with 2017">'02
</text>
<text text-anchor="middle" transform="translate(-24.50461303710938, 88.77271728515625) translate(28.0,10.0) translate(0.5,200.5) translate(0.0,0.0) translate(189,18)" font-family="sans-serif" font-size="10.0px" fill="#000d2a" opacity="1" class="axis-label" pointer-events="none" version="1.1" width="487" height="235" viewBox="0 0 487 235" stroke-miterlimit="10" role="graphics-symbol" aria-roledescription="axis" aria-label="X-axis for a discrete scale with 25 values: 1993, 1994, 1995, 1996, 1997, ending with 2017">'03
</text>
<text text-anchor="middle" transform="translate(-24.50461303710938, 88.77271728515625) translate(28.0,10.0) translate(0.5,200.5) translate(0.0,0.0) translate(207,18)" font-family="sans-serif" font-size="10.0px" fill="#000d2a" opacity="1" class="axis-label" pointer-events="none" version="1.1" width="487" height="235" viewBox="0 0 487 235" stroke-miterlimit="10" role="graphics-symbol" aria-roledescription="axis" aria-label="X-axis for a discrete scale with 25 values: 1993, 1994, 1995, 1996, 1997, ending with 2017">'04
</text>
<text text-anchor="middle" transform="translate(-24.50461303710938, 88.77271728515625) translate(28.0,10.0) translate(0.5,200.5) translate(0.0,0.0) translate(225,18)" font-family="sans-serif" font-size="10.0px" fill="#000d2a" opacity="1" class="axis-label" pointer-events="none" version="1.1" width="487" height="235" viewBox="0 0 487 235" stroke-miterlimit="10" role="graphics-symbol" aria-roledescription="axis" aria-label="X-axis for a discrete scale with 25 values: 1993, 1994, 1995, 1996, 1997, ending with 2017">'05
</text>
<text text-anchor="middle" transform="translate(-24.50461303710938, 88.77271728515625) translate(28.0,10.0) translate(0.5,200.5) translate(0.0,0.0) translate(243,18)" font-family="sans-serif" font-size="10.0px" fill="#000d2a" opacity="1" class="axis-label" pointer-events="none" version="1.1" width="487" height="235" viewBox="0 0 487 235" stroke-miterlimit="10" role="graphics-symbol" aria-roledescription="axis" aria-label="X-axis for a discrete scale with 25 values: 1993, 1994, 1995, 1996, 1997, ending with 2017">'06
</text>
<text text-anchor="middle" transform="translate(-24.50461303710938, 88.77271728515625) translate(28.0,10.0) translate(0.5,200.5) translate(0.0,0.0) translate(261,18)" font-family="sans-serif" font-size="10.0px" fill="#000d2a" opacity="1" class="axis-label" pointer-events="none" version="1.1" width="487" height="235" viewBox="0 0 487 235" stroke-miterlimit="10" role="graphics-symbol" aria-roledescription="axis" aria-label="X-axis for a discrete scale with 25 values: 1993, 1994, 1995, 1996, 1997, ending with 2017">'07
</text>
<text text-anchor="middle" transform="translate(-24.50461303710938, 88.77271728515625) translate(28.0,10.0) translate(0.5,200.5) translate(0.0,0.0) translate(279,18)" font-family="sans-serif" font-size="10.0px" fill="#000d2a" opacity="1" class="axis-label" pointer-events="none" version="1.1" width="487" height="235" viewBox="0 0 487 235" stroke-miterlimit="10" role="graphics-symbol" aria-roledescription="axis" aria-label="X-axis for a discrete scale with 25 values: 1993, 1994, 1995, 1996, 1997, ending with 2017">'08
</text>
<text text-anchor="middle" transform="translate(-24.50461303710938, 88.77271728515625) translate(28.0,10.0) translate(0.5,200.5) translate(0.0,0.0) translate(297,18)" font-family="sans-serif" font-size="10.0px" fill="#000d2a" opacity="1" class="axis-label" pointer-events="none" version="1.1" width="487" height="235" viewBox="0 0 487 235" stroke-miterlimit="10" role="graphics-symbol" aria-roledescription="axis" aria-label="X-axis for a discrete scale with 25 values: 1993, 1994, 1995, 1996, 1997, ending with 2017">'09
</text>
<text text-anchor="middle" transform="translate(-24.50461303710938, 88.77271728515625) translate(28.0,10.0) translate(0.5,200.5) translate(0.0,0.0) translate(315,18)" font-family="sans-serif" font-size="10.0px" fill="#000d2a" opacity="1" class="axis-label" pointer-events="none" version="1.1" width="487" height="235" viewBox="0 0 487 235" stroke-miterlimit="10" role="graphics-symbol" aria-roledescription="axis" aria-label="X-axis for a discrete scale with 25 values: 1993, 1994, 1995, 1996, 1997, ending with 2017">'10
</text>
<text text-anchor="middle" transform="translate(-24.50461303710938, 88.77271728515625) translate(28.0,10.0) translate(0.5,200.5) translate(0.0,0.0) translate(333,18)" font-family="sans-serif" font-size="10.0px" fill="#000d2a" opacity="1" class="axis-label" pointer-events="none" version="1.1" width="487" height="235" viewBox="0 0 487 235" stroke-miterlimit="10" role="graphics-symbol" aria-roledescription="axis" aria-label="X-axis for a discrete scale with 25 values: 1993, 1994, 1995, 1996, 1997, ending with 2017">'11
</text>
<text text-anchor="middle" transform="translate(-24.50461303710938, 88.77271728515625) translate(28.0,10.0) translate(0.5,200.5) translate(0.0,0.0) translate(351,18)" font-family="sans-serif" font-size="10.0px" fill="#000d2a" opacity="1" class="axis-label" pointer-events="none" version="1.1" width="487" height="235" viewBox="0 0 487 235" stroke-miterlimit="10" role="graphics-symbol" aria-roledescription="axis" aria-label="X-axis for a discrete scale with 25 values: 1993, 1994, 1995, 1996, 1997, ending with 2017">'12
</text>
<text text-anchor="middle" transform="translate(-24.50461303710938, 88.77271728515625) translate(28.0,10.0) translate(0.5,200.5) translate(0.0,0.0) translate(369,18)" font-family="sans-serif" font-size="10.0px" fill="#000d2a" opacity="1" class="axis-label" pointer-events="none" version="1.1" width="487" height="235" viewBox="0 0 487 235" stroke-miterlimit="10" role="graphics-symbol" aria-roledescription="axis" aria-label="X-axis for a discrete scale with 25 values: 1993, 1994, 1995, 1996, 1997, ending with 2017">'13
</text>
<text text-anchor="middle" transform="translate(-24.50461303710938, 88.77271728515625) translate(28.0,10.0) translate(0.5,200.5) translate(0.0,0.0) translate(387,18)" font-family="sans-serif" font-size="10.0px" fill="#000d2a" opacity="1" class="axis-label" pointer-events="none" version="1.1" width="487" height="235" viewBox="0 0 487 235" stroke-miterlimit="10" role="graphics-symbol" aria-roledescription="axis" aria-label="X-axis for a discrete scale with 25 values: 1993, 1994, 1995, 1996, 1997, ending with 2017">'14
</text>
<text text-anchor="middle" transform="translate(-24.50461303710938, 88.77271728515625) translate(28.0,10.0) translate(0.5,200.5) translate(0.0,0.0) translate(405,18)" font-family="sans-serif" font-size="10.0px" fill="#000d2a" opacity="1" class="axis-label" pointer-events="none" version="1.1" width="487" height="235" viewBox="0 0 487 235" stroke-miterlimit="10" role="graphics-symbol" aria-roledescription="axis" aria-label="X-axis for a discrete scale with 25 values: 1993, 1994, 1995, 1996, 1997, ending with 2017">'15
</text>
<text text-anchor="middle" transform="translate(-24.50461303710938, 88.77271728515625) translate(28.0,10.0) translate(0.5,200.5) translate(0.0,0.0) translate(423,18)" font-family="sans-serif" font-size="10.0px" fill="#000d2a" opacity="1" class="axis-label" pointer-events="none" version="1.1" width="487" height="235" viewBox="0 0 487 235" stroke-miterlimit="10" role="graphics-symbol" aria-roledescription="axis" aria-label="X-axis for a discrete scale with 25 values: 1993, 1994, 1995, 1996, 1997, ending with 2017">'16
</text>
<text text-anchor="middle" transform="translate(-24.50461303710938, 88.77271728515625) translate(28.0,10.0) translate(0.5,200.5) translate(0.0,0.0) translate(441,18)" font-family="sans-serif" font-size="10.0px" fill="#000d2a" opacity="1" class="axis-label" pointer-events="none" version="1.1" width="487" height="235" viewBox="0 0 487 235" stroke-miterlimit="10" role="graphics-symbol" aria-roledescription="axis" aria-label="X-axis for a discrete scale with 25 values: 1993, 1994, 1995, 1996, 1997, ending with 2017">'17
</text>
<line transform="translate(-24.50461303710938, 88.77271728515625) translate(28.0,10.0) translate(0.5,200.5) translate(0,0)" x2="450" y2="0" stroke="#0f223b" stroke-opacity="0" stroke-width="1" opacity="1" class="axis-domain" pointer-events="none" version="1.1" width="487" height="235" viewBox="0 0 487 235" fill="none" stroke-miterlimit="10" role="graphics-symbol" aria-roledescription="axis" aria-label="X-axis for a discrete scale with 25 values: 1993, 1994, 1995, 1996, 1997, ending with 2017"/>
<line transform="translate(-24.50461303710938, 88.77271728515625) translate(28.0,10.0) translate(0.5,0.5) translate(0,200)" x2="-5" y2="0" stroke="#0f223b" stroke-opacity="0" stroke-width="1" opacity="1" class="axis-tick" pointer-events="none" version="1.1" width="487" height="235" viewBox="0 0 487 235" fill="none" stroke-miterlimit="10" role="graphics-symbol" aria-roledescription="axis" aria-label="Y-axis for a linear scale with values from 0 to 70"/>
<line transform="translate(-24.50461303710938, 88.77271728515625) translate(28.0,10.0) translate(0.5,0.5) translate(0,171)" x2="-5" y2="0" stroke="#0f223b" stroke-opacity="0" stroke-width="1" opacity="1" class="axis-tick" pointer-events="none" version="1.1" width="487" height="235" viewBox="0 0 487 235" fill="none" stroke-miterlimit="10" role="graphics-symbol" aria-roledescription="axis" aria-label="Y-axis for a linear scale with values from 0 to 70"/>
<line transform="translate(-24.50461303710938, 88.77271728515625) translate(28.0,10.0) translate(0.5,0.5) translate(0,143)" x2="-5" y2="0" stroke="#0f223b" stroke-opacity="0" stroke-width="1" opacity="1" class="axis-tick" pointer-events="none" version="1.1" width="487" height="235" viewBox="0 0 487 235" fill="none" stroke-miterlimit="10" role="graphics-symbol" aria-roledescription="axis" aria-label="Y-axis for a linear scale with values from 0 to 70"/>
<line transform="translate(-24.50461303710938, 88.77271728515625) translate(28.0,10.0) translate(0.5,0.5) translate(0,114)" x2="-5" y2="0" stroke="#0f223b" stroke-opacity="0" stroke-width="1" opacity="1" class="axis-tick" pointer-events="none" version="1.1" width="487" height="235" viewBox="0 0 487 235" fill="none" stroke-miterlimit="10" role="graphics-symbol" aria-roledescription="axis" aria-label="Y-axis for a linear scale with values from 0 to 70"/>
<line transform="translate(-24.50461303710938, 88.77271728515625) translate(28.0,10.0) translate(0.5,0.5) translate(0,86)" x2="-5" y2="0" stroke="#0f223b" stroke-opacity="0" stroke-width="1" opacity="1" class="axis-tick" pointer-events="none" version="1.1" width="487" height="235" viewBox="0 0 487 235" fill="none" stroke-miterlimit="10" role="graphics-symbol" aria-roledescription="axis" aria-label="Y-axis for a linear scale with values from 0 to 70"/>
<line transform="translate(-24.50461303710938, 88.77271728515625) translate(28.0,10.0) translate(0.5,0.5) translate(0,57)" x2="-5" y2="0" stroke="#0f223b" stroke-opacity="0" stroke-width="1" opacity="1" class="axis-tick" pointer-events="none" version="1.1" width="487" height="235" viewBox="0 0 487 235" fill="none" stroke-miterlimit="10" role="graphics-symbol" aria-roledescription="axis" aria-label="Y-axis for a linear scale with values from 0 to 70"/>
<line transform="translate(-24.50461303710938, 88.77271728515625) translate(28.0,10.0) translate(0.5,0.5) translate(0,29)" x2="-5" y2="0" stroke="#0f223b" stroke-opacity="0" stroke-width="1" opacity="1" class="axis-tick" pointer-events="none" version="1.1" width="487" height="235" viewBox="0 0 487 235" fill="none" stroke-miterlimit="10" role="graphics-symbol" aria-roledescription="axis" aria-label="Y-axis for a linear scale with values from 0 to 70"/>
<line transform="translate(-24.50461303710938, 88.77271728515625) translate(28.0,10.0) translate(0.5,0.5) translate(0,0)" x2="-5" y2="0" stroke="#0f223b" stroke-opacity="0" stroke-width="1" opacity="1" class="axis-tick" pointer-events="none" version="1.1" width="487" height="235" viewBox="0 0 487 235" fill="none" stroke-miterlimit="10" role="graphics-symbol" aria-roledescription="axis" aria-label="Y-axis for a linear scale with values from 0 to 70"/>
<text text-anchor="end" transform="translate(-24.50461303710938, 88.77271728515625) translate(28.0,10.0) translate(0.5,0.5) translate(-10,203)" font-family="sans-serif" font-size="10px" fill="#000d2a" opacity="1" class="axis-label" pointer-events="none" version="1.1" width="487" height="235" viewBox="0 0 487 235" stroke-miterlimit="10" role="graphics-symbol" aria-roledescription="axis" aria-label="Y-axis for a linear scale with values from 0 to 70">0
</text>
<text text-anchor="end" transform="translate(-24.50461303710938, 88.77271728515625) translate(28.0,10.0) translate(0.5,0.5) translate(-10,174.42857142857144)" font-family="sans-serif" font-size="10px" fill="#000d2a" opacity="1" class="axis-label" pointer-events="none" version="1.1" width="487" height="235" viewBox="0 0 487 235" stroke-miterlimit="10" role="graphics-symbol" aria-roledescription="axis" aria-label="Y-axis for a linear scale with values from 0 to 70">10
</text>
<text text-anchor="end" transform="translate(-24.50461303710938, 88.77271728515625) translate(28.0,10.0) translate(0.5,0.5) translate(-10,145.85714285714286)" font-family="sans-serif" font-size="10px" fill="#000d2a" opacity="1" class="axis-label" pointer-events="none" version="1.1" width="487" height="235" viewBox="0 0 487 235" stroke-miterlimit="10" role="graphics-symbol" aria-roledescription="axis" aria-label="Y-axis for a linear scale with values from 0 to 70">20
</text>
<text text-anchor="end" transform="translate(-24.50461303710938, 88.77271728515625) translate(28.0,10.0) translate(0.5,0.5) translate(-10,117.28571428571428)" font-family="sans-serif" font-size="10px" fill="#000d2a" opacity="1" class="axis-label" pointer-events="none" version="1.1" width="487" height="235" viewBox="0 0 487 235" stroke-miterlimit="10" role="graphics-symbol" aria-roledescription="axis" aria-label="Y-axis for a linear scale with values from 0 to 70">30
</text>
<text text-anchor="end" transform="translate(-24.50461303710938, 88.77271728515625) translate(28.0,10.0) translate(0.5,0.5) translate(-10,88.71428571428572)" font-family="sans-serif" font-size="10px" fill="#000d2a" opacity="1" class="axis-label" pointer-events="none" version="1.1" width="487" height="235" viewBox="0 0 487 235" stroke-miterlimit="10" role="graphics-symbol" aria-roledescription="axis" aria-label="Y-axis for a linear scale with values from 0 to 70">40
</text>
<text text-anchor="end" transform="translate(-24.50461303710938, 88.77271728515625) translate(28.0,10.0) translate(0.5,0.5) translate(-10,60.14285714285714)" font-family="sans-serif" font-size="10px" fill="#000d2a" opacity="1" class="axis-label" pointer-events="none" version="1.1" width="487" height="235" viewBox="0 0 487 235" stroke-miterlimit="10" role="graphics-symbol" aria-roledescription="axis" aria-label="Y-axis for a linear scale with values from 0 to 70">50
</text>
<text text-anchor="end" transform="translate(-24.50461303710938, 88.77271728515625) translate(28.0,10.0) translate(0.5,0.5) translate(-10,31.57142857142858)" font-family="sans-serif" font-size="10px" fill="#000d2a" opacity="1" class="axis-label" pointer-events="none" version="1.1" width="487" height="235" viewBox="0 0 487 235" stroke-miterlimit="10" role="graphics-symbol" aria-roledescription="axis" aria-label="Y-axis for a linear scale with values from 0 to 70">60
</text>
<text text-anchor="end" transform="translate(-24.50461303710938, 88.77271728515625) translate(28.0,10.0) translate(0.5,0.5) translate(-10,3)" font-family="sans-serif" font-size="10px" fill="#000d2a" opacity="1" class="axis-label" pointer-events="none" version="1.1" width="487" height="235" viewBox="0 0 487 235" stroke-miterlimit="10" role="graphics-symbol" aria-roledescription="axis" aria-label="Y-axis for a linear scale with values from 0 to 70">70
</text>
<line transform="translate(-24.50461303710938, 88.77271728515625) translate(28.0,10.0) translate(0.5,0.5) translate(0,200)" x2="0" y2="-200" stroke="#0f223b" stroke-opacity="0" stroke-width="1" opacity="1" class="axis-domain" pointer-events="none" version="1.1" width="487" height="235" viewBox="0 0 487 235" fill="none" stroke-miterlimit="10" role="graphics-symbol" aria-roledescription="axis" aria-label="Y-axis for a linear scale with values from 0 to 70"/>
<path aria-label="Year: 1993; Viewers: 66.9" role="graphics-symbol" aria-roledescription="line mark" d="M9,8.857L12,18.952C15,29.048,21,49.238,27,61.19C33,73.143,39,76.857,45,78.667C51,80.476,57,80.381,63,80.333C69,80.286,75,80.286,81,75.571C87,70.857,93,61.429,99,60.667C105,59.905,111,67.81,117,77.476C123,87.143,129,98.571,135,100.19C141,101.81,147,93.619,153,83.952C159,74.286,165,63.143,171,52.686C177,42.229,183,32.457,189,36.419C195,40.381,201,58.076,207,68.305C213,78.533,219,81.295,225,82.152C231,83.01,237,81.962,243,79.633C249,77.305,255,73.695,261,75.557C267,77.419,273,84.752,279,81.467C285,78.181,291,64.276,297,59.405C303,54.533,309,58.695,315,63.248C321,67.8,327,72.743,333,77.595C339,82.448,345,87.21,351,91.652C357,96.095,363,100.219,369,102.367C375,104.514,381,104.686,387,105.529C393,106.371,399,107.886,405,108.824C411,109.762,417,110.124,423,102.49C429,94.857,435,79.229,438,71.414L441,63.6" stroke="#4c78a8" stroke-width="2" opacity="1" class="line" version="1.1" width="487" height="235" viewBox="0 0 487 235" fill="none" stroke-miterlimit="10" transform="translate(-24.50461303710938, 88.77271728515625) translate(28.0,10.0)"/></g></svg>