<svg version="1.1" class="marks" width="471.123046875" height="293.1962890625" viewBox="0 0 571.123046875 393.1962890625" xmlns="http://www.w3.org/2000/svg" xmlns:xlink="http://www.w3.org/1999/xlink"><rect width="100%" height="100%" fill="#ffffff"/>
<g transform="translate(65.65893920898438, 50.64847412109375)"><rect x="0" y="0" width="15" height="150" fill="#66c2a5" transform="scale(0.33720654296875)"/>
<text class="chart-title-line" x="0" y="0" text-anchor="start" font-family="sans-serif" font-size="24" font-weight="700" fill="#0f2740" letter-spacing="0" transform="translate(15.05809814453125, 21.47652587890625)">A Bad Year For Twitter Investors
</text>
<text class="chart-subtitle-line" x="0" y="0" text-anchor="start" font-family="sans-serif" font-size="13" font-weight="400" fill="#445f7c" letter-spacing="0.25" transform="translate(15.05809814453125, 21.47652587890625) translate(0.0, 27.0234375)">Stock performance of Twitter and Facebook in 2014 (as of December 17)
</text>
<line transform="translate(-23.03589233398438, 61.948205566406244) translate(28.0,10.0) translate(0.5,200.5) translate(19,0)" x2="0" y2="5" stroke="#0f223b" stroke-opacity="0" stroke-width="1" opacity="1" class="axis-tick" pointer-events="none" version="1.1" width="483" height="235" viewBox="0 0 483 235" fill="none" stroke-miterlimit="10" role="graphics-symbol" aria-roledescription="axis" aria-label="X-axis for a discrete scale with 12 values: Apr, Aug, Dec, Feb, Jan, ending with Sep"/>
<line transform="translate(-23.03589233398438, 61.948205566406244) translate(28.0,10.0) translate(0.5,200.5) translate(56,0)" x2="0" y2="5" stroke="#0f223b" stroke-opacity="0" stroke-width="1" opacity="1" class="axis-tick" pointer-events="none" version="1.1" width="483" height="235" viewBox="0 0 483 235" fill="none" stroke-miterlimit="10" role="graphics-symbol" aria-roledescription="axis" aria-label="X-axis for a discrete scale with 12 values: Apr, Aug, Dec, Feb, Jan, ending with Sep"/>
<line transform="translate(-23.03589233398438, 61.948205566406244) translate(28.0,10.0) translate(0.5,200.5) translate(94,0)" x2="0" y2="5" stroke="#0f223b" stroke-opacity="0" stroke-width="1" opacity="1" class="axis-tick" pointer-events="none" version="1.1" width="483" height="235" viewBox="0 0 483 235" fill="none" stroke-miterlimit="10" role="graphics-symbol" aria-roledescription="axis" aria-label="X-axis for a discrete scale with 12 values: Apr, Aug, Dec, Feb, Jan, ending with Sep"/>
<line transform="translate(-23.03589233398438, 61.948205566406244) translate(28.0,10.0) translate(0.5,200.5) translate(131,0)" x2="0" y2="5" stroke="#0f223b" stroke-opacity="0" stroke-width="1" opacity="1" class="axis-tick" pointer-events="none" version="1.1" width="483" height="235" viewBox="0 0 483 235" fill="none" stroke-miterlimit="10" role="graphics-symbol" aria-roledescription="axis" aria-label="X-axis for a discrete scale with 12 values: Apr, Aug, Dec, Feb, Jan, ending with Sep"/>
<line transform="translate(-23.03589233398438, 61.948205566406244) translate(28.0,10.0) translate(0.5,200.5) translate(169,0)" x2="0" y2="5" stroke="#0f223b" stroke-opacity="0" stroke-width="1" opacity="1" class="axis-tick" pointer-events="none" version="1.1" width="483" height="235" viewBox="0 0 483 235" fill="none" stroke-miterlimit="10" role="graphics-symbol" aria-roledescription="axis" aria-label="X-axis for a discrete scale with 12 values: Apr, Aug, Dec, Feb, Jan, ending with Sep"/>
<line transform="translate(-23.03589233398438, 61.948205566406244) translate(28.0,10.0) translate(0.5,200.5) translate(206,0)" x2="0" y2="5" stroke="#0f223b" stroke-opacity="0" stroke-width="1" opacity="1" class="axis-tick" pointer-events="none" version="1.1" width="483" height="235" viewBox="0 0 483 235" fill="none" stroke-miterlimit="10" role="graphics-symbol" aria-roledescription="axis" aria-label="X-axis for a discrete scale with 12 values: Apr, Aug, Dec, Feb, Jan, ending with Sep"/>
<line transform="translate(-23.03589233398438, 61.948205566406244) translate(28.0,10.0) translate(0.5,200.5) translate(244,0)" x2="0" y2="5" stroke="#0f223b" stroke-opacity="0" stroke-width="1" opacity="1" class="axis-tick" pointer-events="none" version="1.1" width="483" height="235" viewBox="0 0 483 235" fill="none" stroke-miterlimit="10" role="graphics-symbol" aria-roledescription="axis" aria-label="X-axis for a discrete scale with 12 values: Apr, Aug, Dec, Feb, Jan, ending with Sep"/>
<line transform="translate(-23.03589233398438, 61.948205566406244) translate(28.0,10.0) translate(0.5,200.5) translate(281,0)" x2="0" y2="5" stroke="#0f223b" stroke-opacity="0" stroke-width="1" opacity="1" class="axis-tick" pointer-events="none" version="1.1" width="483" height="235" viewBox="0 0 483 235" fill="none" stroke-miterlimit="10" role="graphics-symbol" aria-roledescription="axis" aria-label="X-axis for a discrete scale with 12 values: Apr, Aug, Dec, Feb, Jan, ending with Sep"/>
<line transform="translate(-23.03589233398438, 61.948205566406244) translate(28.0,10.0) translate(0.5,200.5) translate(319,0)" x2="0" y2="5" stroke="#0f223b" stroke-opacity="0" stroke-width="1" opacity="1" class="axis-tick" pointer-events="none" version="1.1" width="483" height="235" viewBox="0 0 483 235" fill="none" stroke-miterlimit="10" role="graphics-symbol" aria-roledescription="axis" aria-label="X-axis for a discrete scale with 12 values: Apr, Aug, Dec, Feb, Jan, ending with Sep"/>
<line transform="translate(-23.03589233398438, 61.948205566406244) translate(28.0,10.0) translate(0.5,200.5) translate(356,0)" x2="0" y2="5" stroke="#0f223b" stroke-opacity="0" stroke-width="1" opacity="1" class="axis-tick" pointer-events="none" version="1.1" width="483" height="235" viewBox="0 0 483 235" fill="none" stroke-miterlimit="10" role="graphics-symbol" aria-roledescription="axis" aria-label="X-axis for a discrete scale with 12 values: Apr, Aug, Dec, Feb, Jan, ending with Sep"/>
<line transform="translate(-23.03589233398438, 61.948205566406244) translate(28.0,10.0) translate(0.5,200.5) translate(394,0)" x2="0" y2="5" stroke="#0f223b" stroke-opacity="0" stroke-width="1" opacity="1" class="axis-tick" pointer-events="none" version="1.1" width="483" height="235" viewBox="0 0 483 235" fill="none" stroke-miterlimit="10" role="graphics-symbol" aria-roledescription="axis" aria-label="X-axis for a discrete scale with 12 values: Apr, Aug, Dec, Feb, Jan, ending with Sep"/>
<line transform="translate(-23.03589233398438, 61.948205566406244) translate(28.0,10.0) translate(0.5,200.5) translate(431,0)" x2="0" y2="5" stroke="#0f223b" stroke-opacity="0" stroke-width="1" opacity="1" class="axis-tick" pointer-events="none" version="1.1" width="483" height="235" viewBox="0 0 483 235" fill="none" stroke-miterlimit="10" role="graphics-symbol" aria-roledescription="axis" aria-label="X-axis for a discrete scale with 12 values: Apr, Aug, Dec, Feb, Jan, ending with Sep"/>
<text text-anchor="middle" transform="translate(-23.03589233398438, 61.948205566406244) translate(28.0,10.0) translate(0.5,200.5) translate(18.75,18)" font-family="sans-serif" font-size="10px" fill="#000d2a" opacity="1" class="axis-label" pointer-events="none" version="1.1" width="483" height="235" viewBox="0 0 483 235" stroke-miterlimit="10" role="graphics-symbol" aria-roledescription="axis" aria-label="X-axis for a discrete scale with 12 values: Apr, Aug, Dec, Feb, Jan, ending with Sep">Apr
</text>
<text text-anchor="middle" transform="translate(-23.03589233398438, 61.948205566406244) translate(28.0,10.0) translate(0.5,200.5) translate(56.25,18)" font-family="sans-serif" font-size="10px" fill="#000d2a" opacity="1" class="axis-label" pointer-events="none" version="1.1" width="483" height="235" viewBox="0 0 483 235" stroke-miterlimit="10" role="graphics-symbol" aria-roledescription="axis" aria-label="X-axis for a discrete scale with 12 values: Apr, Aug, Dec, Feb, Jan, ending with Sep">Aug
</text>
<text text-anchor="middle" transform="translate(-23.03589233398438, 61.948205566406244) translate(28.0,10.0) translate(0.5,200.5) translate(93.75,18)" font-family="sans-serif" font-size="10px" fill="#000d2a" opacity="1" class="axis-label" pointer-events="none" version="1.1" width="483" height="235" viewBox="0 0 483 235" stroke-miterlimit="10" role="graphics-symbol" aria-roledescription="axis" aria-label="X-axis for a discrete scale with 12 values: Apr, Aug, Dec, Feb, Jan, ending with Sep">Dec
</text>
<text text-anchor="middle" transform="translate(-23.03589233398438, 61.948205566406244) translate(28.0,10.0) translate(0.5,200.5) translate(131.25,18)" font-family="sans-serif" font-size="10px" fill="#000d2a" opacity="1" class="axis-label" pointer-events="none" version="1.1" width="483" height="235" viewBox="0 0 483 235" stroke-miterlimit="10" role="graphics-symbol" aria-roledescription="axis" aria-label="X-axis for a discrete scale with 12 values: Apr, Aug, Dec, Feb, Jan, ending with Sep">Feb
</text>
<text text-anchor="middle" transform="translate(-23.03589233398438, 61.948205566406244) translate(28.0,10.0) translate(0.5,200.5) translate(168.75,18)" font-family="sans-serif" font-size="10px" fill="#000d2a" opacity="1" class="axis-label" pointer-events="none" version="1.1" width="483" height="235" viewBox="0 0 483 235" stroke-miterlimit="10" role="graphics-symbol" aria-roledescription="axis" aria-label="X-axis for a discrete scale with 12 values: Apr, Aug, Dec, Feb, Jan, ending with Sep">Jan
</text>
<text text-anchor="middle" transform="translate(-23.03589233398438, 61.948205566406244) translate(28.0,10.0) translate(0.5,200.5) translate(206.25,18)" font-family="sans-serif" font-size="10px" fill="#000d2a" opacity="1" class="axis-label" pointer-events="none" version="1.1" width="483" height="235" viewBox="0 0 483 235" stroke-miterlimit="10" role="graphics-symbol" aria-roledescription="axis" aria-label="X-axis for a discrete scale with 12 values: Apr, Aug, Dec, Feb, Jan, ending with Sep">Jul
</text>
<text text-anchor="middle" transform="translate(-23.03589233398438, 61.948205566406244) translate(28.0,10.0) translate(0.5,200.5) translate(243.75,18)" font-family="sans-serif" font-size="10px" fill="#000d2a" opacity="1" class="axis-label" pointer-events="none" version="1.1" width="483" height="235" viewBox="0 0 483 235" stroke-miterlimit="10" role="graphics-symbol" aria-roledescription="axis" aria-label="X-axis for a discrete scale with 12 values: Apr, Aug, Dec, Feb, Jan, ending with Sep">Jun
</text>
<text text-anchor="middle" transform="translate(-23.03589233398438, 61.948205566406244) translate(28.0,10.0) translate(0.5,200.5) translate(281.25,18)" font-family="sans-serif" font-size="10px" fill="#000d2a" opacity="1" class="axis-label" pointer-events="none" version="1.1" width="483" height="235" viewBox="0 0 483 235" stroke-miterlimit="10" role="graphics-symbol" aria-roledescription="axis" aria-label="X-axis for a discrete scale with 12 values: Apr, Aug, Dec, Feb, Jan, ending with Sep">Mar
</text>
<text text-anchor="middle" transform="translate(-23.03589233398438, 61.948205566406244) translate(28.0,10.0) translate(0.5,200.5) translate(318.75,18)" font-family="sans-serif" font-size="10px" fill="#000d2a" opacity="1" class="axis-label" pointer-events="none" version="1.1" width="483" height="235" viewBox="0 0 483 235" stroke-miterlimit="10" role="graphics-symbol" aria-roledescription="axis" aria-label="X-axis for a discrete scale with 12 values: Apr, Aug, Dec, Feb, Jan, ending with Sep">May
</text>
<text text-anchor="middle" transform="translate(-23.03589233398438, 61.948205566406244) translate(28.0,10.0) translate(0.5,200.5) translate(356.25,18)" font-family="sans-serif" font-size="10px" fill="#000d2a" opacity="1" class="axis-label" pointer-events="none" version="1.1" width="483" height="235" viewBox="0 0 483 235" stroke-miterlimit="10" role="graphics-symbol" aria-roledescription="axis" aria-label="X-axis for a discrete scale with 12 values: Apr, Aug, Dec, Feb, Jan, ending with Sep">Nov
</text>
<text text-anchor="middle" transform="translate(-23.03589233398438, 61.948205566406244) translate(28.0,10.0) translate(0.5,200.5) translate(393.75,18)" font-family="sans-serif" font-size="10px" fill="#000d2a" opacity="1" class="axis-label" pointer-events="none" version="1.1" width="483" height="235" viewBox="0 0 483 235" stroke-miterlimit="10" role="graphics-symbol" aria-roledescription="axis" aria-label="X-axis for a discrete scale with 12 values: Apr, Aug, Dec, Feb, Jan, ending with Sep">Oct
</text>
<text text-anchor="middle" transform="translate(-23.03589233398438, 61.948205566406244) translate(28.0,10.0) translate(0.5,200.5) translate(431.25,18)" font-family="sans-serif" font-size="10px" fill="#000d2a" opacity="1" class="axis-label" pointer-events="none" version="1.1" width="483" height="235" viewBox="0 0 483 235" stroke-miterlimit="10" role="graphics-symbol" aria-roledescription="axis" aria-label="X-axis for a discrete scale with 12 values: Apr, Aug, Dec, Feb, Jan, ending with Sep">Sep
</text>
<line transform="translate(-23.03589233398438, 61.948205566406244) translate(28.0,10.0) translate(0.5,200.5) translate(0,0)" x2="450" y2="0" stroke="#0f223b" stroke-opacity="0" stroke-width="1" opacity="1" class="axis-domain" pointer-events="none" version="1.1" width="483" height="235" viewBox="0 0 483 235" fill="none" stroke-miterlimit="10" role="graphics-symbol" aria-roledescription="axis" aria-label="X-axis for a discrete scale with 12 values: Apr, Aug, Dec, Feb, Jan, ending with Sep"/>
<line transform="translate(-23.03589233398438, 61.948205566406244) translate(28.0,10.0) translate(0.5,0.5) translate(0,200)" x2="-5" y2="0" stroke="#0f223b" stroke-opacity="0" stroke-width="1" opacity="1" class="axis-tick" pointer-events="none" version="1.1" width="483" height="235" viewBox="0 0 483 235" fill="none" stroke-miterlimit="10" role="graphics-symbol" aria-roledescription="axis" aria-label="Y-axis for a linear scale with values from 0 to 80"/>
<line transform="translate(-23.03589233398438, 61.948205566406244) translate(28.0,10.0) translate(0.5,0.5) translate(0,150)" x2="-5" y2="0" stroke="#0f223b" stroke-opacity="0" stroke-width="1" opacity="1" class="axis-tick" pointer-events="none" version="1.1" width="483" height="235" viewBox="0 0 483 235" fill="none" stroke-miterlimit="10" role="graphics-symbol" aria-roledescription="axis" aria-label="Y-axis for a linear scale with values from 0 to 80"/>
<line transform="translate(-23.03589233398438, 61.948205566406244) translate(28.0,10.0) translate(0.5,0.5) translate(0,100)" x2="-5" y2="0" stroke="#0f223b" stroke-opacity="0" stroke-width="1" opacity="1" class="axis-tick" pointer-events="none" version="1.1" width="483" height="235" viewBox="0 0 483 235" fill="none" stroke-miterlimit="10" role="graphics-symbol" aria-roledescription="axis" aria-label="Y-axis for a linear scale with values from 0 to 80"/>
<line transform="translate(-23.03589233398438, 61.948205566406244) translate(28.0,10.0) translate(0.5,0.5) translate(0,50)" x2="-5" y2="0" stroke="#0f223b" stroke-opacity="0" stroke-width="1" opacity="1" class="axis-tick" pointer-events="none" version="1.1" width="483" height="235" viewBox="0 0 483 235" fill="none" stroke-miterlimit="10" role="graphics-symbol" aria-roledescription="axis" aria-label="Y-axis for a linear scale with values from 0 to 80"/>
<line transform="translate(-23.03589233398438, 61.948205566406244) translate(28.0,10.0) translate(0.5,0.5) translate(0,0)" x2="-5" y2="0" stroke="#0f223b" stroke-opacity="0" stroke-width="1" opacity="1" class="axis-tick" pointer-events="none" version="1.1" width="483" height="235" viewBox="0 0 483 235" fill="none" stroke-miterlimit="10" role="graphics-symbol" aria-roledescription="axis" aria-label="Y-axis for a linear scale with values from 0 to 80"/>
<text text-anchor="end" transform="translate(-23.03589233398438, 61.948205566406244) translate(28.0,10.0) translate(0.5,0.5) translate(-10,203)" font-family="sans-serif" font-size="10px" fill="#000d2a" opacity="1" class="axis-label" pointer-events="none" version="1.1" width="483" height="235" viewBox="0 0 483 235" stroke-miterlimit="10" role="graphics-symbol" aria-roledescription="axis" aria-label="Y-axis for a linear scale with values from 0 to 80">0
</text>
<text text-anchor="end" transform="translate(-23.03589233398438, 61.948205566406244) translate(28.0,10.0) translate(0.5,0.5) translate(-10,153)" font-family="sans-serif" font-size="10px" fill="#000d2a" opacity="1" class="axis-label" pointer-events="none" version="1.1" width="483" height="235" viewBox="0 0 483 235" stroke-miterlimit="10" role="graphics-symbol" aria-roledescription="axis" aria-label="Y-axis for a linear scale with values from 0 to 80">20
</text>
<text text-anchor="end" transform="translate(-23.03589233398438, 61.948205566406244) translate(28.0,10.0) translate(0.5,0.5) translate(-10,103)" font-family="sans-serif" font-size="10px" fill="#000d2a" opacity="1" class="axis-label" pointer-events="none" version="1.1" width="483" height="235" viewBox="0 0 483 235" stroke-miterlimit="10" role="graphics-symbol" aria-roledescription="axis" aria-label="Y-axis for a linear scale with values from 0 to 80">40
</text>
<text text-anchor="end" transform="translate(-23.03589233398438, 61.948205566406244) translate(28.0,10.0) translate(0.5,0.5) translate(-10,53)" font-family="sans-serif" font-size="10px" fill="#000d2a" opacity="1" class="axis-label" pointer-events="none" version="1.1" width="483" height="235" viewBox="0 0 483 235" stroke-miterlimit="10" role="graphics-symbol" aria-roledescription="axis" aria-label="Y-axis for a linear scale with values from 0 to 80">60
</text>
<text text-anchor="end" transform="translate(-23.03589233398438, 61.948205566406244) translate(28.0,10.0) translate(0.5,0.5) translate(-10,3)" font-family="sans-serif" font-size="10px" fill="#000d2a" opacity="1" class="axis-label" pointer-events="none" version="1.1" width="483" height="235" viewBox="0 0 483 235" stroke-miterlimit="10" role="graphics-symbol" aria-roledescription="axis" aria-label="Y-axis for a linear scale with values from 0 to 80">80
</text>
<line transform="translate(-23.03589233398438, 61.948205566406244) translate(28.0,10.0) translate(0.5,0.5) translate(0,200)" x2="0" y2="-200" stroke="#0f223b" stroke-opacity="0" stroke-width="1" opacity="1" class="axis-domain" pointer-events="none" version="1.1" width="483" height="235" viewBox="0 0 483 235" fill="none" stroke-miterlimit="10" role="graphics-symbol" aria-roledescription="axis" aria-label="Y-axis for a linear scale with values from 0 to 80"/>
<path aria-label="Month: Apr; Score: 45; Platform: Twitter" role="graphics-symbol" aria-roledescription="line mark" d="M18.75,87.5L37.5,87.5L37.5,70L75,70L75,105L112.5,105L112.5,37.5L150,37.5L150,50L187.5,50L187.5,80L225,80L225,87.5L262.5,87.5L262.5,62.5L300,62.5L300,100L337.5,100L337.5,105L375,105L375,87.5L412.5,87.5L412.5,75L431.25,75" stroke="#66c2a5" stroke-width="2" opacity="1" class="line" version="1.1" width="483" height="235" viewBox="0 0 483 235" fill="none" stroke-miterlimit="10" transform="translate(-23.03589233398438, 61.948205566406244) translate(28.0,10.0)"/>
<path aria-label="Month: Apr; Score: 60; Platform: Facebook" role="graphics-symbol" aria-roledescription="line mark" d="M18.75,50L37.5,50L37.5,12.5L75,12.5L75,0L112.5,0L112.5,37.5L150,37.5L150,62.5L187.5,62.5L187.5,25L225,25L225,37.5L262.5,37.5L262.5,12.5L300,12.5L300,50L337.5,50L337.5,12.5L375,12.5L375,12.5L412.5,12.5L412.5,5L431.25,5" stroke="#b3b3b3" stroke-width="2" opacity="1" class="line" version="1.1" width="483" height="235" viewBox="0 0 483 235" fill="none" stroke-miterlimit="10" transform="translate(-23.03589233398438, 61.948205566406244) translate(28.0,10.0)"/></g></svg>