<svg version="1.1" class="marks" width="476.6845703125" height="315.6416015625" viewBox="0 0 576.6845703125 415.6416015625" xmlns="http://www.w3.org/2000/svg" xmlns:xlink="http://www.w3.org/1999/xlink"><rect width="100%" height="100%" fill="#ffffff"/>
<g transform="translate(103.09836303710938, 50.98802490234375)"><rect x="0" y="0" width="15" height="150" fill="None" transform="scale(0.5137729492187499)"/>
<text class="chart-title-line" x="0" y="0" text-anchor="start" font-family="sans-serif" font-size="24" font-weight="700" fill="#0f2740" letter-spacing="0" transform="translate(17.706594238281248, 21.136975097656247)">Consumer Confidence Surges as
</text>
<text class="chart-title-line" x="0" y="0" text-anchor="start" font-family="sans-serif" font-size="24" font-weight="700" fill="#0f2740" letter-spacing="0" transform="translate(17.706594238281248, 21.136975097656247) translate(0.0, 27.1640625)">Economic Outlook Brightens
</text>
<text class="chart-subtitle-line" x="0" y="0" text-anchor="start" font-family="sans-serif" font-size="13" font-weight="400" fill="#445f7c" letter-spacing="0.25" transform="translate(17.706594238281248, 21.136975097656247) translate(0.0, 54.1875)">Monthly Index of Consumer Sentiment in the United States
</text>
<line transform="translate(-61.91379272460938, 87.05396728515625) translate(35.0,7.0) translate(0.5,200.5) translate(9,0)" x2="0" y2="5" stroke="#0f223b" stroke-opacity="0" stroke-width="1" opacity="1" class="axis-tick" pointer-events="none" version="1.1" width="494" height="232" viewBox="0 0 494 232" fill="none" stroke-miterlimit="10" role="graphics-symbol" aria-roledescription="axis" aria-label="X-axis for a discrete scale with 25 values: 2000, 2001, 2002, 2003, 2004, ending with 2024"/>
<line transform="translate(-61.91379272460938, 87.05396728515625) translate(35.0,7.0) translate(0.5,200.5) translate(27,0)" x2="0" y2="5" stroke="#0f223b" stroke-opacity="0" stroke-width="1" opacity="1" class="axis-tick" pointer-events="none" version="1.1" width="494" height="232" viewBox="0 0 494 232" fill="none" stroke-miterlimit="10" role="graphics-symbol" aria-roledescription="axis" aria-label="X-axis for a discrete scale with 25 values: 2000, 2001, 2002, 2003, 2004, ending with 2024"/>
<line transform="translate(-61.91379272460938, 87.05396728515625) translate(35.0,7.0) translate(0.5,200.5) translate(45,0)" x2="0" y2="5" stroke="#0f223b" stroke-opacity="0" stroke-width="1" opacity="1" class="axis-tick" pointer-events="none" version="1.1" width="494" height="232" viewBox="0 0 494 232" fill="none" stroke-miterlimit="10" role="graphics-symbol" aria-roledescription="axis" aria-label="X-axis for a discrete scale with 25 values: 2000, 2001, 2002, 2003, 2004, ending with 2024"/>
<line transform="translate(-61.91379272460938, 87.05396728515625) translate(35.0,7.0) translate(0.5,200.5) translate(63,0)" x2="0" y2="5" stroke="#0f223b" stroke-opacity="0" stroke-width="1" opacity="1" class="axis-tick" pointer-events="none" version="1.1" width="494" height="232" viewBox="0 0 494 232" fill="none" stroke-miterlimit="10" role="graphics-symbol" aria-roledescription="axis" aria-label="X-axis for a discrete scale with 25 values: 2000, 2001, 2002, 2003, 2004, ending with 2024"/>
<line transform="translate(-61.91379272460938, 87.05396728515625) translate(35.0,7.0) translate(0.5,200.5) translate(81,0)" x2="0" y2="5" stroke="#0f223b" stroke-opacity="0" stroke-width="1" opacity="1" class="axis-tick" pointer-events="none" version="1.1" width="494" height="232" viewBox="0 0 494 232" fill="none" stroke-miterlimit="10" role="graphics-symbol" aria-roledescription="axis" aria-label="X-axis for a discrete scale with 25 values: 2000, 2001, 2002, 2003, 2004, ending with 2024"/>
<line transform="translate(-61.91379272460938, 87.05396728515625) translate(35.0,7.0) translate(0.5,200.5) translate(99,0)" x2="0" y2="5" stroke="#0f223b" stroke-opacity="0" stroke-width="1" opacity="1" class="axis-tick" pointer-events="none" version="1.1" width="494" height="232" viewBox="0 0 494 232" fill="none" stroke-miterlimit="10" role="graphics-symbol" aria-roledescription="axis" aria-label="X-axis for a discrete scale with 25 values: 2000, 2001, 2002, 2003, 2004, ending with 2024"/>
<line transform="translate(-61.91379272460938, 87.05396728515625) translate(35.0,7.0) translate(0.5,200.5) translate(117,0)" x2="0" y2="5" stroke="#0f223b" stroke-opacity="0" stroke-width="1" opacity="1" class="axis-tick" pointer-events="none" version="1.1" width="494" height="232" viewBox="0 0 494 232" fill="none" stroke-miterlimit="10" role="graphics-symbol" aria-roledescription="axis" aria-label="X-axis for a discrete scale with 25 values: 2000, 2001, 2002, 2003, 2004, ending with 2024"/>
<line transform="translate(-61.91379272460938, 87.05396728515625) translate(35.0,7.0) translate(0.5,200.5) translate(135,0)" x2="0" y2="5" stroke="#0f223b" stroke-opacity="0" stroke-width="1" opacity="1" class="axis-tick" pointer-events="none" version="1.1" width="494" height="232" viewBox="0 0 494 232" fill="none" stroke-miterlimit="10" role="graphics-symbol" aria-roledescription="axis" aria-label="X-axis for a discrete scale with 25 values: 2000, 2001, 2002, 2003, 2004, ending with 2024"/>
<line transform="translate(-61.91379272460938, 87.05396728515625) translate(35.0,7.0) translate(0.5,200.5) translate(153,0)" x2="0" y2="5" stroke="#0f223b" stroke-opacity="0" stroke-width="1" opacity="1" class="axis-tick" pointer-events="none" version="1.1" width="494" height="232" viewBox="0 0 494 232" fill="none" stroke-miterlimit="10" role="graphics-symbol" aria-roledescription="axis" aria-label="X-axis for a discrete scale with 25 values: 2000, 2001, 2002, 2003, 2004, ending with 2024"/>
<line transform="translate(-61.91379272460938, 87.05396728515625) translate(35.0,7.0) translate(0.5,200.5) translate(171,0)" x2="0" y2="5" stroke="#0f223b" stroke-opacity="0" stroke-width="1" opacity="1" class="axis-tick" pointer-events="none" version="1.1" width="494" height="232" viewBox="0 0 494 232" fill="none" stroke-miterlimit="10" role="graphics-symbol" aria-roledescription="axis" aria-label="X-axis for a discrete scale with 25 values: 2000, 2001, 2002, 2003, 2004, ending with 2024"/>
<line transform="translate(-61.91379272460938, 87.05396728515625) translate(35.0,7.0) translate(0.5,200.5) translate(189,0)" x2="0" y2="5" stroke="#0f223b" stroke-opacity="0" stroke-width="1" opacity="1" class="axis-tick" pointer-events="none" version="1.1" width="494" height="232" viewBox="0 0 494 232" fill="none" stroke-miterlimit="10" role="graphics-symbol" aria-roledescription="axis" aria-label="X-axis for a discrete scale with 25 values: 2000, 2001, 2002, 2003, 2004, ending with 2024"/>
<line transform="translate(-61.91379272460938, 87.05396728515625) translate(35.0,7.0) translate(0.5,200.5) translate(207,0)" x2="0" y2="5" stroke="#0f223b" stroke-opacity="0" stroke-width="1" opacity="1" class="axis-tick" pointer-events="none" version="1.1" width="494" height="232" viewBox="0 0 494 232" fill="none" stroke-miterlimit="10" role="graphics-symbol" aria-roledescription="axis" aria-label="X-axis for a discrete scale with 25 values: 2000, 2001, 2002, 2003, 2004, ending with 2024"/>
<line transform="translate(-61.91379272460938, 87.05396728515625) translate(35.0,7.0) translate(0.5,200.5) translate(225,0)" x2="0" y2="5" stroke="#0f223b" stroke-opacity="0" stroke-width="1" opacity="1" class="axis-tick" pointer-events="none" version="1.1" width="494" height="232" viewBox="0 0 494 232" fill="none" stroke-miterlimit="10" role="graphics-symbol" aria-roledescription="axis" aria-label="X-axis for a discrete scale with 25 values: 2000, 2001, 2002, 2003, 2004, ending with 2024"/>
<line transform="translate(-61.91379272460938, 87.05396728515625) translate(35.0,7.0) translate(0.5,200.5) translate(243,0)" x2="0" y2="5" stroke="#0f223b" stroke-opacity="0" stroke-width="1" opacity="1" class="axis-tick" pointer-events="none" version="1.1" width="494" height="232" viewBox="0 0 494 232" fill="none" stroke-miterlimit="10" role="graphics-symbol" aria-roledescription="axis" aria-label="X-axis for a discrete scale with 25 values: 2000, 2001, 2002, 2003, 2004, ending with 2024"/>
<line transform="translate(-61.91379272460938, 87.05396728515625) translate(35.0,7.0) translate(0.5,200.5) translate(261,0)" x2="0" y2="5" stroke="#0f223b" stroke-opacity="0" stroke-width="1" opacity="1" class="axis-tick" pointer-events="none" version="1.1" width="494" height="232" viewBox="0 0 494 232" fill="none" stroke-miterlimit="10" role="graphics-symbol" aria-roledescription="axis" aria-label="X-axis for a discrete scale with 25 values: 2000, 2001, 2002, 2003, 2004, ending with 2024"/>
<line transform="translate(-61.91379272460938, 87.05396728515625) translate(35.0,7.0) translate(0.5,200.5) translate(279,0)" x2="0" y2="5" stroke="#0f223b" stroke-opacity="0" stroke-width="1" opacity="1" class="axis-tick" pointer-events="none" version="1.1" width="494" height="232" viewBox="0 0 494 232" fill="none" stroke-miterlimit="10" role="graphics-symbol" aria-roledescription="axis" aria-label="X-axis for a discrete scale with 25 values: 2000, 2001, 2002, 2003, 2004, ending with 2024"/>
<line transform="translate(-61.91379272460938, 87.05396728515625) translate(35.0,7.0) translate(0.5,200.5) translate(297,0)" x2="0" y2="5" stroke="#0f223b" stroke-opacity="0" stroke-width="1" opacity="1" class="axis-tick" pointer-events="none" version="1.1" width="494" height="232" viewBox="0 0 494 232" fill="none" stroke-miterlimit="10" role="graphics-symbol" aria-roledescription="axis" aria-label="X-axis for a discrete scale with 25 values: 2000, 2001, 2002, 2003, 2004, ending with 2024"/>
<line transform="translate(-61.91379272460938, 87.05396728515625) translate(35.0,7.0) translate(0.5,200.5) translate(315,0)" x2="0" y2="5" stroke="#0f223b" stroke-opacity="0" stroke-width="1" opacity="1" class="axis-tick" pointer-events="none" version="1.1" width="494" height="232" viewBox="0 0 494 232" fill="none" stroke-miterlimit="10" role="graphics-symbol" aria-roledescription="axis" aria-label="X-axis for a discrete scale with 25 values: 2000, 2001, 2002, 2003, 2004, ending with 2024"/>
<line transform="translate(-61.91379272460938, 87.05396728515625) translate(35.0,7.0) translate(0.5,200.5) translate(333,0)" x2="0" y2="5" stroke="#0f223b" stroke-opacity="0" stroke-width="1" opacity="1" class="axis-tick" pointer-events="none" version="1.1" width="494" height="232" viewBox="0 0 494 232" fill="none" stroke-miterlimit="10" role="graphics-symbol" aria-roledescription="axis" aria-label="X-axis for a discrete scale with 25 values: 2000, 2001, 2002, 2003, 2004, ending with 2024"/>
<line transform="translate(-61.91379272460938, 87.05396728515625) translate(35.0,7.0) translate(0.5,200.5) translate(351,0)" x2="0" y2="5" stroke="#0f223b" stroke-opacity="0" stroke-width="1" opacity="1" class="axis-tick" pointer-events="none" version="1.1" width="494" height="232" viewBox="0 0 494 232" fill="none" stroke-miterlimit="10" role="graphics-symbol" aria-roledescription="axis" aria-label="X-axis for a discrete scale with 25 values: 2000, 2001, 2002, 2003, 2004, ending with 2024"/>
<line transform="translate(-61.91379272460938, 87.05396728515625) translate(35.0,7.0) translate(0.5,200.5) translate(369,0)" x2="0" y2="5" stroke="#0f223b" stroke-opacity="0" stroke-width="1" opacity="1" class="axis-tick" pointer-events="none" version="1.1" width="494" height="232" viewBox="0 0 494 232" fill="none" stroke-miterlimit="10" role="graphics-symbol" aria-roledescription="axis" aria-label="X-axis for a discrete scale with 25 values: 2000, 2001, 2002, 2003, 2004, ending with 2024"/>
<line transform="translate(-61.91379272460938, 87.05396728515625) translate(35.0,7.0) translate(0.5,200.5) translate(387,0)" x2="0" y2="5" stroke="#0f223b" stroke-opacity="0" stroke-width="1" opacity="1" class="axis-tick" pointer-events="none" version="1.1" width="494" height="232" viewBox="0 0 494 232" fill="none" stroke-miterlimit="10" role="graphics-symbol" aria-roledescription="axis" aria-label="X-axis for a discrete scale with 25 values: 2000, 2001, 2002, 2003, 2004, ending with 2024"/>
<line transform="translate(-61.91379272460938, 87.05396728515625) translate(35.0,7.0) translate(0.5,200.5) translate(405,0)" x2="0" y2="5" stroke="#0f223b" stroke-opacity="0" stroke-width="1" opacity="1" class="axis-tick" pointer-events="none" version="1.1" width="494" height="232" viewBox="0 0 494 232" fill="none" stroke-miterlimit="10" role="graphics-symbol" aria-roledescription="axis" aria-label="X-axis for a discrete scale with 25 values: 2000, 2001, 2002, 2003, 2004, ending with 2024"/>
<line transform="translate(-61.91379272460938, 87.05396728515625) translate(35.0,7.0) translate(0.5,200.5) translate(423,0)" x2="0" y2="5" stroke="#0f223b" stroke-opacity="0" stroke-width="1" opacity="1" class="axis-tick" pointer-events="none" version="1.1" width="494" height="232" viewBox="0 0 494 232" fill="none" stroke-miterlimit="10" role="graphics-symbol" aria-roledescription="axis" aria-label="X-axis for a discrete scale with 25 values: 2000, 2001, 2002, 2003, 2004, ending with 2024"/>
<line transform="translate(-61.91379272460938, 87.05396728515625) translate(35.0,7.0) translate(0.5,200.5) translate(441,0)" x2="0" y2="5" stroke="#0f223b" stroke-opacity="0" stroke-width="1" opacity="1" class="axis-tick" pointer-events="none" version="1.1" width="494" height="232" viewBox="0 0 494 232" fill="none" stroke-miterlimit="10" role="graphics-symbol" aria-roledescription="axis" aria-label="X-axis for a discrete scale with 25 values: 2000, 2001, 2002, 2003, 2004, ending with 2024"/>
<text text-anchor="middle" transform="translate(-61.91379272460938, 87.05396728515625) translate(35.0,7.0) translate(0.5,200.5) translate(0.0,0.0) translate(9,18)" font-family="sans-serif" font-size="10.0px" fill="#000d2a" opacity="1" class="axis-label" pointer-events="none" version="1.1" width="494" height="232" viewBox="0 0 494 232" stroke-miterlimit="10" role="graphics-symbol" aria-roledescription="axis" aria-label="X-axis for a discrete scale with 25 values: 2000, 2001, 2002, 2003, 2004, ending with 2024">'00
</text>
<text text-anchor="middle" transform="translate(-61.91379272460938, 87.05396728515625) translate(35.0,7.0) translate(0.5,200.5) translate(0.0,0.0) translate(27,18)" font-family="sans-serif" font-size="10.0px" fill="#000d2a" opacity="1" class="axis-label" pointer-events="none" version="1.1" width="494" height="232" viewBox="0 0 494 232" stroke-miterlimit="10" role="graphics-symbol" aria-roledescription="axis" aria-label="X-axis for a discrete scale with 25 values: 2000, 2001, 2002, 2003, 2004, ending with 2024">'01
</text>
<text text-anchor="middle" transform="translate(-61.91379272460938, 87.05396728515625) translate(35.0,7.0) translate(0.5,200.5) translate(0.0,0.0) translate(45,18)" font-family="sans-serif" font-size="10.0px" fill="#000d2a" opacity="1" class="axis-label" pointer-events="none" version="1.1" width="494" height="232" viewBox="0 0 494 232" stroke-miterlimit="10" role="graphics-symbol" aria-roledescription="axis" aria-label="X-axis for a discrete scale with 25 values: 2000, 2001, 2002, 2003, 2004, ending with 2024">'02
</text>
<text text-anchor="middle" transform="translate(-61.91379272460938, 87.05396728515625) translate(35.0,7.0) translate(0.5,200.5) translate(0.0,0.0) translate(63,18)" font-family="sans-serif" font-size="10.0px" fill="#000d2a" opacity="1" class="axis-label" pointer-events="none" version="1.1" width="494" height="232" viewBox="0 0 494 232" stroke-miterlimit="10" role="graphics-symbol" aria-roledescription="axis" aria-label="X-axis for a discrete scale with 25 values: 2000, 2001, 2002, 2003, 2004, ending with 2024">'03
</text>
<text text-anchor="middle" transform="translate(-61.91379272460938, 87.05396728515625) translate(35.0,7.0) translate(0.5,200.5) translate(0.0,0.0) translate(81,18)" font-family="sans-serif" font-size="10.0px" fill="#000d2a" opacity="1" class="axis-label" pointer-events="none" version="1.1" width="494" height="232" viewBox="0 0 494 232" stroke-miterlimit="10" role="graphics-symbol" aria-roledescription="axis" aria-label="X-axis for a discrete scale with 25 values: 2000, 2001, 2002, 2003, 2004, ending with 2024">'04
</text>
<text text-anchor="middle" transform="translate(-61.91379272460938, 87.05396728515625) translate(35.0,7.0) translate(0.5,200.5) translate(0.0,0.0) translate(99,18)" font-family="sans-serif" font-size="10.0px" fill="#000d2a" opacity="1" class="axis-label" pointer-events="none" version="1.1" width="494" height="232" viewBox="0 0 494 232" stroke-miterlimit="10" role="graphics-symbol" aria-roledescription="axis" aria-label="X-axis for a discrete scale with 25 values: 2000, 2001, 2002, 2003, 2004, ending with 2024">'05
</text>
<text text-anchor="middle" transform="translate(-61.91379272460938, 87.05396728515625) translate(35.0,7.0) translate(0.5,200.5) translate(0.0,0.0) translate(117,18)" font-family="sans-serif" font-size="10.0px" fill="#000d2a" opacity="1" class="axis-label" pointer-events="none" version="1.1" width="494" height="232" viewBox="0 0 494 232" stroke-miterlimit="10" role="graphics-symbol" aria-roledescription="axis" aria-label="X-axis for a discrete scale with 25 values: 2000, 2001, 2002, 2003, 2004, ending with 2024">'06
</text>
<text text-anchor="middle" transform="translate(-61.91379272460938, 87.05396728515625) translate(35.0,7.0) translate(0.5,200.5) translate(0.0,0.0) translate(135,18)" font-family="sans-serif" font-size="10.0px" fill="#000d2a" opacity="1" class="axis-label" pointer-events="none" version="1.1" width="494" height="232" viewBox="0 0 494 232" stroke-miterlimit="10" role="graphics-symbol" aria-roledescription="axis" aria-label="X-axis for a discrete scale with 25 values: 2000, 2001, 2002, 2003, 2004, ending with 2024">'07
</text>
<text text-anchor="middle" transform="translate(-61.91379272460938, 87.05396728515625) translate(35.0,7.0) translate(0.5,200.5) translate(0.0,0.0) translate(153,18)" font-family="sans-serif" font-size="10.0px" fill="#000d2a" opacity="1" class="axis-label" pointer-events="none" version="1.1" width="494" height="232" viewBox="0 0 494 232" stroke-miterlimit="10" role="graphics-symbol" aria-roledescription="axis" aria-label="X-axis for a discrete scale with 25 values: 2000, 2001, 2002, 2003, 2004, ending with 2024">'08
</text>
<text text-anchor="middle" transform="translate(-61.91379272460938, 87.05396728515625) translate(35.0,7.0) translate(0.5,200.5) translate(0.0,0.0) translate(171,18)" font-family="sans-serif" font-size="10.0px" fill="#000d2a" opacity="1" class="axis-label" pointer-events="none" version="1.1" width="494" height="232" viewBox="0 0 494 232" stroke-miterlimit="10" role="graphics-symbol" aria-roledescription="axis" aria-label="X-axis for a discrete scale with 25 values: 2000, 2001, 2002, 2003, 2004, ending with 2024">'09
</text>
<text text-anchor="middle" transform="translate(-61.91379272460938, 87.05396728515625) translate(35.0,7.0) translate(0.5,200.5) translate(0.0,0.0) translate(189,18)" font-family="sans-serif" font-size="10.0px" fill="#000d2a" opacity="1" class="axis-label" pointer-events="none" version="1.1" width="494" height="232" viewBox="0 0 494 232" stroke-miterlimit="10" role="graphics-symbol" aria-roledescription="axis" aria-label="X-axis for a discrete scale with 25 values: 2000, 2001, 2002, 2003, 2004, ending with 2024">'10
</text>
<text text-anchor="middle" transform="translate(-61.91379272460938, 87.05396728515625) translate(35.0,7.0) translate(0.5,200.5) translate(0.0,0.0) translate(207,18)" font-family="sans-serif" font-size="10.0px" fill="#000d2a" opacity="1" class="axis-label" pointer-events="none" version="1.1" width="494" height="232" viewBox="0 0 494 232" stroke-miterlimit="10" role="graphics-symbol" aria-roledescription="axis" aria-label="X-axis for a discrete scale with 25 values: 2000, 2001, 2002, 2003, 2004, ending with 2024">'11
</text>
<text text-anchor="middle" transform="translate(-61.91379272460938, 87.05396728515625) translate(35.0,7.0) translate(0.5,200.5) translate(0.0,0.0) translate(225,18)" font-family="sans-serif" font-size="10.0px" fill="#000d2a" opacity="1" class="axis-label" pointer-events="none" version="1.1" width="494" height="232" viewBox="0 0 494 232" stroke-miterlimit="10" role="graphics-symbol" aria-roledescription="axis" aria-label="X-axis for a discrete scale with 25 values: 2000, 2001, 2002, 2003, 2004, ending with 2024">'12
</text>
<text text-anchor="middle" transform="translate(-61.91379272460938, 87.05396728515625) translate(35.0,7.0) translate(0.5,200.5) translate(0.0,0.0) translate(243,18)" font-family="sans-serif" font-size="10.0px" fill="#000d2a" opacity="1" class="axis-label" pointer-events="none" version="1.1" width="494" height="232" viewBox="0 0 494 232" stroke-miterlimit="10" role="graphics-symbol" aria-roledescription="axis" aria-label="X-axis for a discrete scale with 25 values: 2000, 2001, 2002, 2003, 2004, ending with 2024">'13
</text>
<text text-anchor="middle" transform="translate(-61.91379272460938, 87.05396728515625) translate(35.0,7.0) translate(0.5,200.5) translate(0.0,0.0) translate(261,18)" font-family="sans-serif" font-size="10.0px" fill="#000d2a" opacity="1" class="axis-label" pointer-events="none" version="1.1" width="494" height="232" viewBox="0 0 494 232" stroke-miterlimit="10" role="graphics-symbol" aria-roledescription="axis" aria-label="X-axis for a discrete scale with 25 values: 2000, 2001, 2002, 2003, 2004, ending with 2024">'14
</text>
<text text-anchor="middle" transform="translate(-61.91379272460938, 87.05396728515625) translate(35.0,7.0) translate(0.5,200.5) translate(0.0,0.0) translate(279,18)" font-family="sans-serif" font-size="10.0px" fill="#000d2a" opacity="1" class="axis-label" pointer-events="none" version="1.1" width="494" height="232" viewBox="0 0 494 232" stroke-miterlimit="10" role="graphics-symbol" aria-roledescription="axis" aria-label="X-axis for a discrete scale with 25 values: 2000, 2001, 2002, 2003, 2004, ending with 2024">'15
</text>
<text text-anchor="middle" transform="translate(-61.91379272460938, 87.05396728515625) translate(35.0,7.0) translate(0.5,200.5) translate(0.0,0.0) translate(297,18)" font-family="sans-serif" font-size="10.0px" fill="#000d2a" opacity="1" class="axis-label" pointer-events="none" version="1.1" width="494" height="232" viewBox="0 0 494 232" stroke-miterlimit="10" role="graphics-symbol" aria-roledescription="axis" aria-label="X-axis for a discrete scale with 25 values: 2000, 2001, 2002, 2003, 2004, ending with 2024">'16
</text>
<text text-anchor="middle" transform="translate(-61.91379272460938, 87.05396728515625) translate(35.0,7.0) translate(0.5,200.5) translate(0.0,0.0) translate(315,18)" font-family="sans-serif" font-size="10.0px" fill="#000d2a" opacity="1" class="axis-label" pointer-events="none" version="1.1" width="494" height="232" viewBox="0 0 494 232" stroke-miterlimit="10" role="graphics-symbol" aria-roledescription="axis" aria-label="X-axis for a discrete scale with 25 values: 2000, 2001, 2002, 2003, 2004, ending with 2024">'17
</text>
<text text-anchor="middle" transform="translate(-61.91379272460938, 87.05396728515625) translate(35.0,7.0) translate(0.5,200.5) translate(0.0,0.0) translate(333,18)" font-family="sans-serif" font-size="10.0px" fill="#000d2a" opacity="1" class="axis-label" pointer-events="none" version="1.1" width="494" height="232" viewBox="0 0 494 232" stroke-miterlimit="10" role="graphics-symbol" aria-roledescription="axis" aria-label="X-axis for a discrete scale with 25 values: 2000, 2001, 2002, 2003, 2004, ending with 2024">'18
</text>
<text text-anchor="middle" transform="translate(-61.91379272460938, 87.05396728515625) translate(35.0,7.0) translate(0.5,200.5) translate(0.0,0.0) translate(351,18)" font-family="sans-serif" font-size="10.0px" fill="#000d2a" opacity="1" class="axis-label" pointer-events="none" version="1.1" width="494" height="232" viewBox="0 0 494 232" stroke-miterlimit="10" role="graphics-symbol" aria-roledescription="axis" aria-label="X-axis for a discrete scale with 25 values: 2000, 2001, 2002, 2003, 2004, ending with 2024">'19
</text>
<text text-anchor="middle" transform="translate(-61.91379272460938, 87.05396728515625) translate(35.0,7.0) translate(0.5,200.5) translate(0.0,0.0) translate(369,18)" font-family="sans-serif" font-size="10.0px" fill="#000d2a" opacity="1" class="axis-label" pointer-events="none" version="1.1" width="494" height="232" viewBox="0 0 494 232" stroke-miterlimit="10" role="graphics-symbol" aria-roledescription="axis" aria-label="X-axis for a discrete scale with 25 values: 2000, 2001, 2002, 2003, 2004, ending with 2024">'20
</text>
<text text-anchor="middle" transform="translate(-61.91379272460938, 87.05396728515625) translate(35.0,7.0) translate(0.5,200.5) translate(0.0,0.0) translate(387,18)" font-family="sans-serif" font-size="10.0px" fill="#000d2a" opacity="1" class="axis-label" pointer-events="none" version="1.1" width="494" height="232" viewBox="0 0 494 232" stroke-miterlimit="10" role="graphics-symbol" aria-roledescription="axis" aria-label="X-axis for a discrete scale with 25 values: 2000, 2001, 2002, 2003, 2004, ending with 2024">'21
</text>
<text text-anchor="middle" transform="translate(-61.91379272460938, 87.05396728515625) translate(35.0,7.0) translate(0.5,200.5) translate(0.0,0.0) translate(405,18)" font-family="sans-serif" font-size="10.0px" fill="#000d2a" opacity="1" class="axis-label" pointer-events="none" version="1.1" width="494" height="232" viewBox="0 0 494 232" stroke-miterlimit="10" role="graphics-symbol" aria-roledescription="axis" aria-label="X-axis for a discrete scale with 25 values: 2000, 2001, 2002, 2003, 2004, ending with 2024">'22
</text>
<text text-anchor="middle" transform="translate(-61.91379272460938, 87.05396728515625) translate(35.0,7.0) translate(0.5,200.5) translate(0.0,0.0) translate(423,18)" font-family="sans-serif" font-size="10.0px" fill="#000d2a" opacity="1" class="axis-label" pointer-events="none" version="1.1" width="494" height="232" viewBox="0 0 494 232" stroke-miterlimit="10" role="graphics-symbol" aria-roledescription="axis" aria-label="X-axis for a discrete scale with 25 values: 2000, 2001, 2002, 2003, 2004, ending with 2024">'23
</text>
<text text-anchor="middle" transform="translate(-61.91379272460938, 87.05396728515625) translate(35.0,7.0) translate(0.5,200.5) translate(0.0,0.0) translate(441,18)" font-family="sans-serif" font-size="10.0px" fill="#000d2a" opacity="1" class="axis-label" pointer-events="none" version="1.1" width="494" height="232" viewBox="0 0 494 232" stroke-miterlimit="10" role="graphics-symbol" aria-roledescription="axis" aria-label="X-axis for a discrete scale with 25 values: 2000, 2001, 2002, 2003, 2004, ending with 2024">'24
</text>
<line transform="translate(-61.91379272460938, 87.05396728515625) translate(35.0,7.0) translate(0.5,200.5) translate(0,0)" x2="450" y2="0" stroke="#0f223b" stroke-opacity="0" stroke-width="1" opacity="1" class="axis-domain" pointer-events="none" version="1.1" width="494" height="232" viewBox="0 0 494 232" fill="none" stroke-miterlimit="10" role="graphics-symbol" aria-roledescription="axis" aria-label="X-axis for a discrete scale with 25 values: 2000, 2001, 2002, 2003, 2004, ending with 2024"/>
<line transform="translate(-61.91379272460938, 87.05396728515625) translate(35.0,7.0) translate(0.5,0.5) translate(0,200)" x2="-5" y2="0" stroke="#0f223b" stroke-opacity="0" stroke-width="1" opacity="1" class="axis-tick" pointer-events="none" version="1.1" width="494" height="232" viewBox="0 0 494 232" fill="none" stroke-miterlimit="10" role="graphics-symbol" aria-roledescription="axis" aria-label="Y-axis for a linear scale with values from 0 to 110"/>
<line transform="translate(-61.91379272460938, 87.05396728515625) translate(35.0,7.0) translate(0.5,0.5) translate(0,164)" x2="-5" y2="0" stroke="#0f223b" stroke-opacity="0" stroke-width="1" opacity="1" class="axis-tick" pointer-events="none" version="1.1" width="494" height="232" viewBox="0 0 494 232" fill="none" stroke-miterlimit="10" role="graphics-symbol" aria-roledescription="axis" aria-label="Y-axis for a linear scale with values from 0 to 110"/>
<line transform="translate(-61.91379272460938, 87.05396728515625) translate(35.0,7.0) translate(0.5,0.5) translate(0,127)" x2="-5" y2="0" stroke="#0f223b" stroke-opacity="0" stroke-width="1" opacity="1" class="axis-tick" pointer-events="none" version="1.1" width="494" height="232" viewBox="0 0 494 232" fill="none" stroke-miterlimit="10" role="graphics-symbol" aria-roledescription="axis" aria-label="Y-axis for a linear scale with values from 0 to 110"/>
<line transform="translate(-61.91379272460938, 87.05396728515625) translate(35.0,7.0) translate(0.5,0.5) translate(0,91)" x2="-5" y2="0" stroke="#0f223b" stroke-opacity="0" stroke-width="1" opacity="1" class="axis-tick" pointer-events="none" version="1.1" width="494" height="232" viewBox="0 0 494 232" fill="none" stroke-miterlimit="10" role="graphics-symbol" aria-roledescription="axis" aria-label="Y-axis for a linear scale with values from 0 to 110"/>
<line transform="translate(-61.91379272460938, 87.05396728515625) translate(35.0,7.0) translate(0.5,0.5) translate(0,55)" x2="-5" y2="0" stroke="#0f223b" stroke-opacity="0" stroke-width="1" opacity="1" class="axis-tick" pointer-events="none" version="1.1" width="494" height="232" viewBox="0 0 494 232" fill="none" stroke-miterlimit="10" role="graphics-symbol" aria-roledescription="axis" aria-label="Y-axis for a linear scale with values from 0 to 110"/>
<line transform="translate(-61.91379272460938, 87.05396728515625) translate(35.0,7.0) translate(0.5,0.5) translate(0,18)" x2="-5" y2="0" stroke="#0f223b" stroke-opacity="0" stroke-width="1" opacity="1" class="axis-tick" pointer-events="none" version="1.1" width="494" height="232" viewBox="0 0 494 232" fill="none" stroke-miterlimit="10" role="graphics-symbol" aria-roledescription="axis" aria-label="Y-axis for a linear scale with values from 0 to 110"/>
<text text-anchor="end" transform="translate(-61.91379272460938, 87.05396728515625) translate(35.0,7.0) translate(0.5,0.5) translate(-10,203)" font-family="sans-serif" font-size="10px" fill="#000d2a" opacity="1" class="axis-label" pointer-events="none" version="1.1" width="494" height="232" viewBox="0 0 494 232" stroke-miterlimit="10" role="graphics-symbol" aria-roledescription="axis" aria-label="Y-axis for a linear scale with values from 0 to 110">0
</text>
<text text-anchor="end" transform="translate(-61.91379272460938, 87.05396728515625) translate(35.0,7.0) translate(0.5,0.5) translate(-10,166.63636363636363)" font-family="sans-serif" font-size="10px" fill="#000d2a" opacity="1" class="axis-label" pointer-events="none" version="1.1" width="494" height="232" viewBox="0 0 494 232" stroke-miterlimit="10" role="graphics-symbol" aria-roledescription="axis" aria-label="Y-axis for a linear scale with values from 0 to 110">20
</text>
<text text-anchor="end" transform="translate(-61.91379272460938, 87.05396728515625) translate(35.0,7.0) translate(0.5,0.5) translate(-10,130.27272727272725)" font-family="sans-serif" font-size="10px" fill="#000d2a" opacity="1" class="axis-label" pointer-events="none" version="1.1" width="494" height="232" viewBox="0 0 494 232" stroke-miterlimit="10" role="graphics-symbol" aria-roledescription="axis" aria-label="Y-axis for a linear scale with values from 0 to 110">40
</text>
<text text-anchor="end" transform="translate(-61.91379272460938, 87.05396728515625) translate(35.0,7.0) translate(0.5,0.5) translate(-10,93.90909090909092)" font-family="sans-serif" font-size="10px" fill="#000d2a" opacity="1" class="axis-label" pointer-events="none" version="1.1" width="494" height="232" viewBox="0 0 494 232" stroke-miterlimit="10" role="graphics-symbol" aria-roledescription="axis" aria-label="Y-axis for a linear scale with values from 0 to 110">60
</text>
<text text-anchor="end" transform="translate(-61.91379272460938, 87.05396728515625) translate(35.0,7.0) translate(0.5,0.5) translate(-10,57.54545454545454)" font-family="sans-serif" font-size="10px" fill="#000d2a" opacity="1" class="axis-label" pointer-events="none" version="1.1" width="494" height="232" viewBox="0 0 494 232" stroke-miterlimit="10" role="graphics-symbol" aria-roledescription="axis" aria-label="Y-axis for a linear scale with values from 0 to 110">80
</text>
<text text-anchor="end" transform="translate(-61.91379272460938, 87.05396728515625) translate(35.0,7.0) translate(0.5,0.5) translate(-10,21.181818181818187)" font-family="sans-serif" font-size="10px" fill="#000d2a" opacity="1" class="axis-label" pointer-events="none" version="1.1" width="494" height="232" viewBox="0 0 494 232" stroke-miterlimit="10" role="graphics-symbol" aria-roledescription="axis" aria-label="Y-axis for a linear scale with values from 0 to 110">100
</text>
<line transform="translate(-61.91379272460938, 87.05396728515625) translate(35.0,7.0) translate(0.5,0.5) translate(0,200)" x2="0" y2="-200" stroke="#0f223b" stroke-opacity="0" stroke-width="1" opacity="1" class="axis-domain" pointer-events="none" version="1.1" width="494" height="232" viewBox="0 0 494 232" fill="none" stroke-miterlimit="10" role="graphics-symbol" aria-roledescription="axis" aria-label="Y-axis for a linear scale with values from 0 to 110"/>
<path aria-label="Year: 2000; Consumer Sentiment Index: 110" role="graphics-symbol" aria-roledescription="line mark" d="M9,0L18,0L18,0L36,0L36,36.364L54,36.364L54,27.273L72,27.273L72,18.182L90,18.182L90,27.273L108,27.273L108,27.273L126,27.273L126,36.364L144,36.364L144,90.909L162,90.909L162,72.727L180,72.727L180,63.636L198,63.636L198,72.727L216,72.727L216,54.545L234,54.545L234,45.455L252,45.455L252,45.455L270,45.455L270,27.273L288,27.273L288,27.273L306,27.273L306,18.182L324,18.182L324,18.182L342,18.182L342,21.818L360,21.818L360,54.545L378,54.545L378,72.727L396,72.727L396,90.909L414,90.909L414,72.727L432,72.727L432,54.545L441,54.545" stroke="#4c78a8" stroke-width="2" opacity="1" class="line" version="1.1" width="494" height="232" viewBox="0 0 494 232" fill="none" stroke-miterlimit="10" transform="translate(-61.91379272460938, 87.05396728515625) translate(35.0,7.0)"/></g></svg>