<svg version="1.1" class="marks" width="465.5615234375" height="286.9775390625" viewBox="0 0 565.5615234375 386.9775390625" xmlns="http://www.w3.org/2000/svg" xmlns:xlink="http://www.w3.org/1999/xlink"><rect width="100%" height="100%" fill="#ffffff"/>
<g transform="translate(102.67163452148438, 50.64847412109375)"><rect x="0" y="0" width="15" height="150" fill="#386cb0" transform="scale(0.33720654296875)"/>
<text class="chart-title-line" x="0" y="0" text-anchor="start" font-family="sans-serif" font-size="24" font-weight="700" fill="#0f2740" letter-spacing="0" transform="translate(15.05809814453125, 21.47652587890625)">The Rise of U.S. Energy Costs
</text>
<text class="chart-subtitle-line" x="0" y="0" text-anchor="start" font-family="sans-serif" font-size="13" font-weight="400" fill="#445f7c" letter-spacing="0.25" transform="translate(15.05809814453125, 21.47652587890625) translate(0.0, 27.0234375)">Average energy prices in the United States (in U.S. dollars)
</text>
<line transform="translate(-59.61011108398438, 60.729455566406244) translate(22.0,5.0) translate(0.5,200.5) translate(45,0)" x2="0" y2="5" stroke="#0f223b" stroke-opacity="0" stroke-width="1" opacity="1" class="axis-tick" pointer-events="none" version="1.1" width="477" height="230" viewBox="0 0 477 230" fill="none" stroke-miterlimit="10" role="graphics-symbol" aria-roledescription="axis" aria-label="X-axis for a discrete scale with 5 values: 2020, 2021, 2022, 2023, 2024"/>
<line transform="translate(-59.61011108398438, 60.729455566406244) translate(22.0,5.0) translate(0.5,200.5) translate(135,0)" x2="0" y2="5" stroke="#0f223b" stroke-opacity="0" stroke-width="1" opacity="1" class="axis-tick" pointer-events="none" version="1.1" width="477" height="230" viewBox="0 0 477 230" fill="none" stroke-miterlimit="10" role="graphics-symbol" aria-roledescription="axis" aria-label="X-axis for a discrete scale with 5 values: 2020, 2021, 2022, 2023, 2024"/>
<line transform="translate(-59.61011108398438, 60.729455566406244) translate(22.0,5.0) translate(0.5,200.5) translate(225,0)" x2="0" y2="5" stroke="#0f223b" stroke-opacity="0" stroke-width="1" opacity="1" class="axis-tick" pointer-events="none" version="1.1" width="477" height="230" viewBox="0 0 477 230" fill="none" stroke-miterlimit="10" role="graphics-symbol" aria-roledescription="axis" aria-label="X-axis for a discrete scale with 5 values: 2020, 2021, 2022, 2023, 2024"/>
<line transform="translate(-59.61011108398438, 60.729455566406244) translate(22.0,5.0) translate(0.5,200.5) translate(315,0)" x2="0" y2="5" stroke="#0f223b" stroke-opacity="0" stroke-width="1" opacity="1" class="axis-tick" pointer-events="none" version="1.1" width="477" height="230" viewBox="0 0 477 230" fill="none" stroke-miterlimit="10" role="graphics-symbol" aria-roledescription="axis" aria-label="X-axis for a discrete scale with 5 values: 2020, 2021, 2022, 2023, 2024"/>
<line transform="translate(-59.61011108398438, 60.729455566406244) translate(22.0,5.0) translate(0.5,200.5) translate(405,0)" x2="0" y2="5" stroke="#0f223b" stroke-opacity="0" stroke-width="1" opacity="1" class="axis-tick" pointer-events="none" version="1.1" width="477" height="230" viewBox="0 0 477 230" fill="none" stroke-miterlimit="10" role="graphics-symbol" aria-roledescription="axis" aria-label="X-axis for a discrete scale with 5 values: 2020, 2021, 2022, 2023, 2024"/>
<text text-anchor="middle" transform="translate(-59.61011108398438, 60.729455566406244) translate(22.0,5.0) translate(0.5,200.5) translate(0.0,0.0) translate(45,18)" font-family="sans-serif" font-size="10.0px" fill="#000d2a" opacity="1" class="axis-label" pointer-events="none" version="1.1" width="477" height="230" viewBox="0 0 477 230" stroke-miterlimit="10" role="graphics-symbol" aria-roledescription="axis" aria-label="X-axis for a discrete scale with 5 values: 2020, 2021, 2022, 2023, 2024">2020
</text>
<text text-anchor="middle" transform="translate(-59.61011108398438, 60.729455566406244) translate(22.0,5.0) translate(0.5,200.5) translate(0.0,0.0) translate(135,18)" font-family="sans-serif" font-size="10.0px" fill="#000d2a" opacity="1" class="axis-label" pointer-events="none" version="1.1" width="477" height="230" viewBox="0 0 477 230" stroke-miterlimit="10" role="graphics-symbol" aria-roledescription="axis" aria-label="X-axis for a discrete scale with 5 values: 2020, 2021, 2022, 2023, 2024">2021
</text>
<text text-anchor="middle" transform="translate(-59.61011108398438, 60.729455566406244) translate(22.0,5.0) translate(0.5,200.5) translate(0.0,0.0) translate(225,18)" font-family="sans-serif" font-size="10.0px" fill="#000d2a" opacity="1" class="axis-label" pointer-events="none" version="1.1" width="477" height="230" viewBox="0 0 477 230" stroke-miterlimit="10" role="graphics-symbol" aria-roledescription="axis" aria-label="X-axis for a discrete scale with 5 values: 2020, 2021, 2022, 2023, 2024">2022
</text>
<text text-anchor="middle" transform="translate(-59.61011108398438, 60.729455566406244) translate(22.0,5.0) translate(0.5,200.5) translate(0.0,0.0) translate(315,18)" font-family="sans-serif" font-size="10.0px" fill="#000d2a" opacity="1" class="axis-label" pointer-events="none" version="1.1" width="477" height="230" viewBox="0 0 477 230" stroke-miterlimit="10" role="graphics-symbol" aria-roledescription="axis" aria-label="X-axis for a discrete scale with 5 values: 2020, 2021, 2022, 2023, 2024">2023
</text>
<text text-anchor="middle" transform="translate(-59.61011108398438, 60.729455566406244) translate(22.0,5.0) translate(0.5,200.5) translate(0.0,0.0) translate(405,18)" font-family="sans-serif" font-size="10.0px" fill="#000d2a" opacity="1" class="axis-label" pointer-events="none" version="1.1" width="477" height="230" viewBox="0 0 477 230" stroke-miterlimit="10" role="graphics-symbol" aria-roledescription="axis" aria-label="X-axis for a discrete scale with 5 values: 2020, 2021, 2022, 2023, 2024">2024
</text>
<line transform="translate(-59.61011108398438, 60.729455566406244) translate(22.0,5.0) translate(0.5,200.5) translate(0,0)" x2="450" y2="0" stroke="#0f223b" stroke-opacity="0" stroke-width="1" opacity="1" class="axis-domain" pointer-events="none" version="1.1" width="477" height="230" viewBox="0 0 477 230" fill="none" stroke-miterlimit="10" role="graphics-symbol" aria-roledescription="axis" aria-label="X-axis for a discrete scale with 5 values: 2020, 2021, 2022, 2023, 2024"/>
<line transform="translate(-59.61011108398438, 60.729455566406244) translate(22.0,5.0) translate(0.5,0.5) translate(0,200)" x2="-5" y2="0" stroke="#0f223b" stroke-opacity="0" stroke-width="1" opacity="1" class="axis-tick" pointer-events="none" version="1.1" width="477" height="230" viewBox="0 0 477 230" fill="none" stroke-miterlimit="10" role="graphics-symbol" aria-roledescription="axis" aria-label="Y-axis for a linear scale with values from 0 to 6"/>
<line transform="translate(-59.61011108398438, 60.729455566406244) translate(22.0,5.0) translate(0.5,0.5) translate(0,164)" x2="-5" y2="0" stroke="#0f223b" stroke-opacity="0" stroke-width="1" opacity="1" class="axis-tick" pointer-events="none" version="1.1" width="477" height="230" viewBox="0 0 477 230" fill="none" stroke-miterlimit="10" role="graphics-symbol" aria-roledescription="axis" aria-label="Y-axis for a linear scale with values from 0 to 6"/>
<line transform="translate(-59.61011108398438, 60.729455566406244) translate(22.0,5.0) translate(0.5,0.5) translate(0,127)" x2="-5" y2="0" stroke="#0f223b" stroke-opacity="0" stroke-width="1" opacity="1" class="axis-tick" pointer-events="none" version="1.1" width="477" height="230" viewBox="0 0 477 230" fill="none" stroke-miterlimit="10" role="graphics-symbol" aria-roledescription="axis" aria-label="Y-axis for a linear scale with values from 0 to 6"/>
<line transform="translate(-59.61011108398438, 60.729455566406244) translate(22.0,5.0) translate(0.5,0.5) translate(0,91)" x2="-5" y2="0" stroke="#0f223b" stroke-opacity="0" stroke-width="1" opacity="1" class="axis-tick" pointer-events="none" version="1.1" width="477" height="230" viewBox="0 0 477 230" fill="none" stroke-miterlimit="10" role="graphics-symbol" aria-roledescription="axis" aria-label="Y-axis for a linear scale with values from 0 to 6"/>
<line transform="translate(-59.61011108398438, 60.729455566406244) translate(22.0,5.0) translate(0.5,0.5) translate(0,55)" x2="-5" y2="0" stroke="#0f223b" stroke-opacity="0" stroke-width="1" opacity="1" class="axis-tick" pointer-events="none" version="1.1" width="477" height="230" viewBox="0 0 477 230" fill="none" stroke-miterlimit="10" role="graphics-symbol" aria-roledescription="axis" aria-label="Y-axis for a linear scale with values from 0 to 6"/>
<line transform="translate(-59.61011108398438, 60.729455566406244) translate(22.0,5.0) translate(0.5,0.5) translate(0,18)" x2="-5" y2="0" stroke="#0f223b" stroke-opacity="0" stroke-width="1" opacity="1" class="axis-tick" pointer-events="none" version="1.1" width="477" height="230" viewBox="0 0 477 230" fill="none" stroke-miterlimit="10" role="graphics-symbol" aria-roledescription="axis" aria-label="Y-axis for a linear scale with values from 0 to 6"/>
<text text-anchor="end" transform="translate(-59.61011108398438, 60.729455566406244) translate(22.0,5.0) translate(0.5,0.5) translate(-10,203)" font-family="sans-serif" font-size="10px" fill="#000d2a" opacity="1" class="axis-label" pointer-events="none" version="1.1" width="477" height="230" viewBox="0 0 477 230" stroke-miterlimit="10" role="graphics-symbol" aria-roledescription="axis" aria-label="Y-axis for a linear scale with values from 0 to 6">0
</text>
<text text-anchor="end" transform="translate(-59.61011108398438, 60.729455566406244) translate(22.0,5.0) translate(0.5,0.5) translate(-10,166.63636363636363)" font-family="sans-serif" font-size="10px" fill="#000d2a" opacity="1" class="axis-label" pointer-events="none" version="1.1" width="477" height="230" viewBox="0 0 477 230" stroke-miterlimit="10" role="graphics-symbol" aria-roledescription="axis" aria-label="Y-axis for a linear scale with values from 0 to 6">1
</text>
<text text-anchor="end" transform="translate(-59.61011108398438, 60.729455566406244) translate(22.0,5.0) translate(0.5,0.5) translate(-10,130.27272727272725)" font-family="sans-serif" font-size="10px" fill="#000d2a" opacity="1" class="axis-label" pointer-events="none" version="1.1" width="477" height="230" viewBox="0 0 477 230" stroke-miterlimit="10" role="graphics-symbol" aria-roledescription="axis" aria-label="Y-axis for a linear scale with values from 0 to 6">2
</text>
<text text-anchor="end" transform="translate(-59.61011108398438, 60.729455566406244) translate(22.0,5.0) translate(0.5,0.5) translate(-10,93.90909090909092)" font-family="sans-serif" font-size="10px" fill="#000d2a" opacity="1" class="axis-label" pointer-events="none" version="1.1" width="477" height="230" viewBox="0 0 477 230" stroke-miterlimit="10" role="graphics-symbol" aria-roledescription="axis" aria-label="Y-axis for a linear scale with values from 0 to 6">3
</text>
<text text-anchor="end" transform="translate(-59.61011108398438, 60.729455566406244) translate(22.0,5.0) translate(0.5,0.5) translate(-10,57.54545454545454)" font-family="sans-serif" font-size="10px" fill="#000d2a" opacity="1" class="axis-label" pointer-events="none" version="1.1" width="477" height="230" viewBox="0 0 477 230" stroke-miterlimit="10" role="graphics-symbol" aria-roledescription="axis" aria-label="Y-axis for a linear scale with values from 0 to 6">4
</text>
<text text-anchor="end" transform="translate(-59.61011108398438, 60.729455566406244) translate(22.0,5.0) translate(0.5,0.5) translate(-10,21.181818181818187)" font-family="sans-serif" font-size="10px" fill="#000d2a" opacity="1" class="axis-label" pointer-events="none" version="1.1" width="477" height="230" viewBox="0 0 477 230" stroke-miterlimit="10" role="graphics-symbol" aria-roledescription="axis" aria-label="Y-axis for a linear scale with values from 0 to 6">5
</text>
<line transform="translate(-59.61011108398438, 60.729455566406244) translate(22.0,5.0) translate(0.5,0.5) translate(0,200)" x2="0" y2="-200" stroke="#0f223b" stroke-opacity="0" stroke-width="1" opacity="1" class="axis-domain" pointer-events="none" version="1.1" width="477" height="230" viewBox="0 0 477 230" fill="none" stroke-miterlimit="10" role="graphics-symbol" aria-roledescription="axis" aria-label="Y-axis for a linear scale with values from 0 to 6"/>
<path aria-label="Year: 2020; Score: 4.02; Energy Prices: 30 kWh of electricity" role="graphics-symbol" aria-roledescription="line mark" d="M45,53.818L90,53.818L90,45.455L180,45.455L180,27.273L270,27.273L270,18.182L360,18.182L360,11.273L405,11.273" stroke="#386cb0" stroke-width="2" opacity="1" class="line" version="1.1" width="477" height="230" viewBox="0 0 477 230" fill="none" stroke-miterlimit="10" transform="translate(-59.61011108398438, 60.729455566406244) translate(22.0,5.0)"/>
<path aria-label="Year: 2020; Score: 2.63; Energy Prices: Gasoline per gallon" role="graphics-symbol" aria-roledescription="line mark" d="M45,104.364L90,104.364L90,81.818L180,81.818L180,36.364L270,36.364L270,72.727L360,72.727L360,78.182L405,78.182" stroke="#666666" stroke-width="2" opacity="1" class="line" version="1.1" width="477" height="230" viewBox="0 0 477 230" fill="none" stroke-miterlimit="10" transform="translate(-59.61011108398438, 60.729455566406244) translate(22.0,5.0)"/>
<path aria-label="Year: 2020; Score: 1.07; Energy Prices: Piped gas per therm" role="graphics-symbol" aria-roledescription="line mark" d="M45,161.091L90,161.091L90,154.545L180,154.545L180,145.455L270,145.455L270,149.091L360,149.091L360,147.273L405,147.273" stroke="#7fc97f" stroke-width="2" opacity="1" class="line" version="1.1" width="477" height="230" viewBox="0 0 477 230" fill="none" stroke-miterlimit="10" transform="translate(-59.61011108398438, 60.729455566406244) translate(22.0,5.0)"/></g></svg>