<svg version="1.1" class="marks" width="476.6845703125" height="307.91015625" viewBox="0 0 576.6845703125 407.91015625" xmlns="http://www.w3.org/2000/svg" xmlns:xlink="http://www.w3.org/1999/xlink"><rect width="100%" height="100%" fill="#ffffff"/>
<g transform="translate(87.64769287109374, 50.8323974609375)"><rect x="0" y="0" width="15" height="150" fill="None" transform="scale(0.4328466796875)"/>
<text class="chart-title-line" x="0" y="0" text-anchor="start" font-family="sans-serif" font-size="24" font-weight="700" fill="#0f2740" letter-spacing="0" transform="translate(16.4927001953125, 21.2926025390625)">Public Teacher Pay Gap Deepens
</text>
<text class="chart-subtitle-line" x="0" y="0" text-anchor="start" font-family="sans-serif" font-size="13" font-weight="400" fill="#445f7c" letter-spacing="0.25" transform="translate(16.4927001953125, 21.2926025390625) translate(0.0, 27.0234375)">Percent difference in weekly wages for K-12 public school teachers
</text>
<text class="chart-subtitle-line" x="0" y="0" text-anchor="start" font-family="sans-serif" font-size="13" font-weight="400" fill="#445f7c" letter-spacing="0.25" transform="translate(16.4927001953125, 21.2926025390625) translate(0.0, 27.0234375) translate(0.0, 14.7138671875)">compared to nonteaching, college-educated peers
</text>
<line transform="translate(-48.46312255859374, 76.4781494140625) translate(37.0,10.0) translate(0.5,200.5) translate(45,0)" x2="0" y2="5" stroke="#0f223b" stroke-opacity="0" stroke-width="1" opacity="1" class="axis-tick" pointer-events="none" version="1.1" width="492" height="235" viewBox="0 0 492 235" fill="none" stroke-miterlimit="10" role="graphics-symbol" aria-roledescription="axis" aria-label="X-axis for a discrete scale with 5 values: 1980, 1990, 2000, 2010, 2020"/>
<line transform="translate(-48.46312255859374, 76.4781494140625) translate(37.0,10.0) translate(0.5,200.5) translate(135,0)" x2="0" y2="5" stroke="#0f223b" stroke-opacity="0" stroke-width="1" opacity="1" class="axis-tick" pointer-events="none" version="1.1" width="492" height="235" viewBox="0 0 492 235" fill="none" stroke-miterlimit="10" role="graphics-symbol" aria-roledescription="axis" aria-label="X-axis for a discrete scale with 5 values: 1980, 1990, 2000, 2010, 2020"/>
<line transform="translate(-48.46312255859374, 76.4781494140625) translate(37.0,10.0) translate(0.5,200.5) translate(225,0)" x2="0" y2="5" stroke="#0f223b" stroke-opacity="0" stroke-width="1" opacity="1" class="axis-tick" pointer-events="none" version="1.1" width="492" height="235" viewBox="0 0 492 235" fill="none" stroke-miterlimit="10" role="graphics-symbol" aria-roledescription="axis" aria-label="X-axis for a discrete scale with 5 values: 1980, 1990, 2000, 2010, 2020"/>
<line transform="translate(-48.46312255859374, 76.4781494140625) translate(37.0,10.0) translate(0.5,200.5) translate(315,0)" x2="0" y2="5" stroke="#0f223b" stroke-opacity="0" stroke-width="1" opacity="1" class="axis-tick" pointer-events="none" version="1.1" width="492" height="235" viewBox="0 0 492 235" fill="none" stroke-miterlimit="10" role="graphics-symbol" aria-roledescription="axis" aria-label="X-axis for a discrete scale with 5 values: 1980, 1990, 2000, 2010, 2020"/>
<line transform="translate(-48.46312255859374, 76.4781494140625) translate(37.0,10.0) translate(0.5,200.5) translate(405,0)" x2="0" y2="5" stroke="#0f223b" stroke-opacity="0" stroke-width="1" opacity="1" class="axis-tick" pointer-events="none" version="1.1" width="492" height="235" viewBox="0 0 492 235" fill="none" stroke-miterlimit="10" role="graphics-symbol" aria-roledescription="axis" aria-label="X-axis for a discrete scale with 5 values: 1980, 1990, 2000, 2010, 2020"/>
<text text-anchor="middle" transform="translate(-48.46312255859374, 76.4781494140625) translate(37.0,10.0) translate(0.5,200.5) translate(0.0,0.0) translate(45,18)" font-family="sans-serif" font-size="10.0px" fill="#000d2a" opacity="1" class="axis-label" pointer-events="none" version="1.1" width="492" height="235" viewBox="0 0 492 235" stroke-miterlimit="10" role="graphics-symbol" aria-roledescription="axis" aria-label="X-axis for a discrete scale with 5 values: 1980, 1990, 2000, 2010, 2020">1980
</text>
<text text-anchor="middle" transform="translate(-48.46312255859374, 76.4781494140625) translate(37.0,10.0) translate(0.5,200.5) translate(0.0,0.0) translate(135,18)" font-family="sans-serif" font-size="10.0px" fill="#000d2a" opacity="1" class="axis-label" pointer-events="none" version="1.1" width="492" height="235" viewBox="0 0 492 235" stroke-miterlimit="10" role="graphics-symbol" aria-roledescription="axis" aria-label="X-axis for a discrete scale with 5 values: 1980, 1990, 2000, 2010, 2020">1990
</text>
<text text-anchor="middle" transform="translate(-48.46312255859374, 76.4781494140625) translate(37.0,10.0) translate(0.5,200.5) translate(0.0,0.0) translate(225,18)" font-family="sans-serif" font-size="10.0px" fill="#000d2a" opacity="1" class="axis-label" pointer-events="none" version="1.1" width="492" height="235" viewBox="0 0 492 235" stroke-miterlimit="10" role="graphics-symbol" aria-roledescription="axis" aria-label="X-axis for a discrete scale with 5 values: 1980, 1990, 2000, 2010, 2020">2000
</text>
<text text-anchor="middle" transform="translate(-48.46312255859374, 76.4781494140625) translate(37.0,10.0) translate(0.5,200.5) translate(0.0,0.0) translate(315,18)" font-family="sans-serif" font-size="10.0px" fill="#000d2a" opacity="1" class="axis-label" pointer-events="none" version="1.1" width="492" height="235" viewBox="0 0 492 235" stroke-miterlimit="10" role="graphics-symbol" aria-roledescription="axis" aria-label="X-axis for a discrete scale with 5 values: 1980, 1990, 2000, 2010, 2020">2010
</text>
<text text-anchor="middle" transform="translate(-48.46312255859374, 76.4781494140625) translate(37.0,10.0) translate(0.5,200.5) translate(0.0,0.0) translate(405,18)" font-family="sans-serif" font-size="10.0px" fill="#000d2a" opacity="1" class="axis-label" pointer-events="none" version="1.1" width="492" height="235" viewBox="0 0 492 235" stroke-miterlimit="10" role="graphics-symbol" aria-roledescription="axis" aria-label="X-axis for a discrete scale with 5 values: 1980, 1990, 2000, 2010, 2020">2020
</text>
<line transform="translate(-48.46312255859374, 76.4781494140625) translate(37.0,10.0) translate(0.5,200.5) translate(0,0)" x2="450" y2="0" stroke="#0f223b" stroke-opacity="0" stroke-width="1" opacity="1" class="axis-domain" pointer-events="none" version="1.1" width="492" height="235" viewBox="0 0 492 235" fill="none" stroke-miterlimit="10" role="graphics-symbol" aria-roledescription="axis" aria-label="X-axis for a discrete scale with 5 values: 1980, 1990, 2000, 2010, 2020"/>
<line transform="translate(-48.46312255859374, 76.4781494140625) translate(37.0,10.0) translate(0.5,0.5) translate(0,167)" x2="-5" y2="0" stroke="#0f223b" stroke-opacity="0" stroke-width="1" opacity="1" class="axis-tick" pointer-events="none" version="1.1" width="492" height="235" viewBox="0 0 492 235" fill="none" stroke-miterlimit="10" role="graphics-symbol" aria-roledescription="axis" aria-label="Y-axis for a linear scale with values from −24 to 0"/>
<line transform="translate(-48.46312255859374, 76.4781494140625) translate(37.0,10.0) translate(0.5,0.5) translate(0,125)" x2="-5" y2="0" stroke="#0f223b" stroke-opacity="0" stroke-width="1" opacity="1" class="axis-tick" pointer-events="none" version="1.1" width="492" height="235" viewBox="0 0 492 235" fill="none" stroke-miterlimit="10" role="graphics-symbol" aria-roledescription="axis" aria-label="Y-axis for a linear scale with values from −24 to 0"/>
<line transform="translate(-48.46312255859374, 76.4781494140625) translate(37.0,10.0) translate(0.5,0.5) translate(0,83)" x2="-5" y2="0" stroke="#0f223b" stroke-opacity="0" stroke-width="1" opacity="1" class="axis-tick" pointer-events="none" version="1.1" width="492" height="235" viewBox="0 0 492 235" fill="none" stroke-miterlimit="10" role="graphics-symbol" aria-roledescription="axis" aria-label="Y-axis for a linear scale with values from −24 to 0"/>
<line transform="translate(-48.46312255859374, 76.4781494140625) translate(37.0,10.0) translate(0.5,0.5) translate(0,42)" x2="-5" y2="0" stroke="#0f223b" stroke-opacity="0" stroke-width="1" opacity="1" class="axis-tick" pointer-events="none" version="1.1" width="492" height="235" viewBox="0 0 492 235" fill="none" stroke-miterlimit="10" role="graphics-symbol" aria-roledescription="axis" aria-label="Y-axis for a linear scale with values from −24 to 0"/>
<line transform="translate(-48.46312255859374, 76.4781494140625) translate(37.0,10.0) translate(0.5,0.5) translate(0,0)" x2="-5" y2="0" stroke="#0f223b" stroke-opacity="0" stroke-width="1" opacity="1" class="axis-tick" pointer-events="none" version="1.1" width="492" height="235" viewBox="0 0 492 235" fill="none" stroke-miterlimit="10" role="graphics-symbol" aria-roledescription="axis" aria-label="Y-axis for a linear scale with values from −24 to 0"/>
<text text-anchor="end" transform="translate(-48.46312255859374, 76.4781494140625) translate(37.0,10.0) translate(0.5,0.5) translate(-10,169.66666666666669)" font-family="sans-serif" font-size="10px" fill="#000d2a" opacity="1" class="axis-label" pointer-events="none" version="1.1" width="492" height="235" viewBox="0 0 492 235" stroke-miterlimit="10" role="graphics-symbol" aria-roledescription="axis" aria-label="Y-axis for a linear scale with values from −24 to 0">−20
</text>
<text text-anchor="end" transform="translate(-48.46312255859374, 76.4781494140625) translate(37.0,10.0) translate(0.5,0.5) translate(-10,128)" font-family="sans-serif" font-size="10px" fill="#000d2a" opacity="1" class="axis-label" pointer-events="none" version="1.1" width="492" height="235" viewBox="0 0 492 235" stroke-miterlimit="10" role="graphics-symbol" aria-roledescription="axis" aria-label="Y-axis for a linear scale with values from −24 to 0">−15
</text>
<text text-anchor="end" transform="translate(-48.46312255859374, 76.4781494140625) translate(37.0,10.0) translate(0.5,0.5) translate(-10,86.33333333333333)" font-family="sans-serif" font-size="10px" fill="#000d2a" opacity="1" class="axis-label" pointer-events="none" version="1.1" width="492" height="235" viewBox="0 0 492 235" stroke-miterlimit="10" role="graphics-symbol" aria-roledescription="axis" aria-label="Y-axis for a linear scale with values from −24 to 0">−10
</text>
<text text-anchor="end" transform="translate(-48.46312255859374, 76.4781494140625) translate(37.0,10.0) translate(0.5,0.5) translate(-10,44.66666666666667)" font-family="sans-serif" font-size="10px" fill="#000d2a" opacity="1" class="axis-label" pointer-events="none" version="1.1" width="492" height="235" viewBox="0 0 492 235" stroke-miterlimit="10" role="graphics-symbol" aria-roledescription="axis" aria-label="Y-axis for a linear scale with values from −24 to 0">−5
</text>
<text text-anchor="end" transform="translate(-48.46312255859374, 76.4781494140625) translate(37.0,10.0) translate(0.5,0.5) translate(-10,3)" font-family="sans-serif" font-size="10px" fill="#000d2a" opacity="1" class="axis-label" pointer-events="none" version="1.1" width="492" height="235" viewBox="0 0 492 235" stroke-miterlimit="10" role="graphics-symbol" aria-roledescription="axis" aria-label="Y-axis for a linear scale with values from −24 to 0">0
</text>
<line transform="translate(-48.46312255859374, 76.4781494140625) translate(37.0,10.0) translate(0.5,0.5) translate(0,200)" x2="0" y2="-200" stroke="#0f223b" stroke-opacity="0" stroke-width="1" opacity="1" class="axis-domain" pointer-events="none" version="1.1" width="492" height="235" viewBox="0 0 492 235" fill="none" stroke-miterlimit="10" role="graphics-symbol" aria-roledescription="axis" aria-label="Y-axis for a linear scale with values from −24 to 0"/>
<path aria-label="Year: 1980; Wage Gap: −7.5" role="graphics-symbol" aria-roledescription="line mark" d="M45,62.5L60,62.5C75,62.5,105,62.5,135,83.333C165,104.167,195,145.833,225,152.778C255,159.722,285,131.944,315,127.361C345,122.778,375,141.389,390,150.694L405,160" stroke="#4c78a8" stroke-width="2" opacity="1" class="line" version="1.1" width="492" height="235" viewBox="0 0 492 235" fill="none" stroke-miterlimit="10" transform="translate(-48.46312255859374, 76.4781494140625) translate(37.0,10.0)"/></g></svg>