<svg version="1.1" class="marks" width="476.6845703125" height="335.07421875" viewBox="0 0 576.6845703125 435.07421875" xmlns="http://www.w3.org/2000/svg" xmlns:xlink="http://www.w3.org/1999/xlink"><rect width="100%" height="100%" fill="#ffffff"/>
<g transform="translate(111.14278076171874, 51.171948242187504)"><rect x="0" y="0" width="15" height="150" fill="#66c2a5" transform="scale(0.6094130859375)"/>
<text class="chart-title-line" x="0" y="0" text-anchor="start" font-family="sans-serif" font-size="24" font-weight="700" fill="#0f2740" letter-spacing="0" transform="translate(19.1411962890625, 20.953051757812496)">How Was 2024? Not as Bad
</text>
<text class="chart-title-line" x="0" y="0" text-anchor="start" font-family="sans-serif" font-size="24" font-weight="700" fill="#0f2740" letter-spacing="0" transform="translate(19.1411962890625, 20.953051757812496) translate(0.0, 27.1640625)">as the Last Few Years
</text>
<text class="chart-subtitle-line" x="0" y="0" text-anchor="start" font-family="sans-serif" font-size="13" font-weight="400" fill="#445f7c" letter-spacing="0.25" transform="translate(19.1411962890625, 20.953051757812496) translate(0.0, 54.1875)">Share of respondents who agree that the given year was a
</text>
<text class="chart-subtitle-line" x="0" y="0" text-anchor="start" font-family="sans-serif" font-size="13" font-weight="400" fill="#445f7c" letter-spacing="0.25" transform="translate(19.1411962890625, 20.953051757812496) translate(0.0, 54.1875) translate(0.0, 14.7138671875)">bad year for their country/them and their family
</text>
<line transform="translate(-69.95821044921874, 103.30266113281249) translate(35.0,10.0) translate(0.5,200.5) translate(32,0)" x2="0" y2="5" stroke="#0f223b" stroke-opacity="0" stroke-width="1" opacity="1" class="axis-tick" pointer-events="none" version="1.1" width="490" height="235" viewBox="0 0 490 235" fill="none" stroke-miterlimit="10" role="graphics-symbol" aria-roledescription="axis" aria-label="X-axis for a discrete scale with 7 values: 2018, 2019, 2020, 2021, 2022, 2023, 2024"/>
<line transform="translate(-69.95821044921874, 103.30266113281249) translate(35.0,10.0) translate(0.5,200.5) translate(96,0)" x2="0" y2="5" stroke="#0f223b" stroke-opacity="0" stroke-width="1" opacity="1" class="axis-tick" pointer-events="none" version="1.1" width="490" height="235" viewBox="0 0 490 235" fill="none" stroke-miterlimit="10" role="graphics-symbol" aria-roledescription="axis" aria-label="X-axis for a discrete scale with 7 values: 2018, 2019, 2020, 2021, 2022, 2023, 2024"/>
<line transform="translate(-69.95821044921874, 103.30266113281249) translate(35.0,10.0) translate(0.5,200.5) translate(161,0)" x2="0" y2="5" stroke="#0f223b" stroke-opacity="0" stroke-width="1" opacity="1" class="axis-tick" pointer-events="none" version="1.1" width="490" height="235" viewBox="0 0 490 235" fill="none" stroke-miterlimit="10" role="graphics-symbol" aria-roledescription="axis" aria-label="X-axis for a discrete scale with 7 values: 2018, 2019, 2020, 2021, 2022, 2023, 2024"/>
<line transform="translate(-69.95821044921874, 103.30266113281249) translate(35.0,10.0) translate(0.5,200.5) translate(225,0)" x2="0" y2="5" stroke="#0f223b" stroke-opacity="0" stroke-width="1" opacity="1" class="axis-tick" pointer-events="none" version="1.1" width="490" height="235" viewBox="0 0 490 235" fill="none" stroke-miterlimit="10" role="graphics-symbol" aria-roledescription="axis" aria-label="X-axis for a discrete scale with 7 values: 2018, 2019, 2020, 2021, 2022, 2023, 2024"/>
<line transform="translate(-69.95821044921874, 103.30266113281249) translate(35.0,10.0) translate(0.5,200.5) translate(289,0)" x2="0" y2="5" stroke="#0f223b" stroke-opacity="0" stroke-width="1" opacity="1" class="axis-tick" pointer-events="none" version="1.1" width="490" height="235" viewBox="0 0 490 235" fill="none" stroke-miterlimit="10" role="graphics-symbol" aria-roledescription="axis" aria-label="X-axis for a discrete scale with 7 values: 2018, 2019, 2020, 2021, 2022, 2023, 2024"/>
<line transform="translate(-69.95821044921874, 103.30266113281249) translate(35.0,10.0) translate(0.5,200.5) translate(354,0)" x2="0" y2="5" stroke="#0f223b" stroke-opacity="0" stroke-width="1" opacity="1" class="axis-tick" pointer-events="none" version="1.1" width="490" height="235" viewBox="0 0 490 235" fill="none" stroke-miterlimit="10" role="graphics-symbol" aria-roledescription="axis" aria-label="X-axis for a discrete scale with 7 values: 2018, 2019, 2020, 2021, 2022, 2023, 2024"/>
<line transform="translate(-69.95821044921874, 103.30266113281249) translate(35.0,10.0) translate(0.5,200.5) translate(418,0)" x2="0" y2="5" stroke="#0f223b" stroke-opacity="0" stroke-width="1" opacity="1" class="axis-tick" pointer-events="none" version="1.1" width="490" height="235" viewBox="0 0 490 235" fill="none" stroke-miterlimit="10" role="graphics-symbol" aria-roledescription="axis" aria-label="X-axis for a discrete scale with 7 values: 2018, 2019, 2020, 2021, 2022, 2023, 2024"/>
<text text-anchor="middle" transform="translate(-69.95821044921874, 103.30266113281249) translate(35.0,10.0) translate(0.5,200.5) translate(0.0,0.0) translate(32.14285714285711,18)" font-family="sans-serif" font-size="10.0px" fill="#000d2a" opacity="1" class="axis-label" pointer-events="none" version="1.1" width="490" height="235" viewBox="0 0 490 235" stroke-miterlimit="10" role="graphics-symbol" aria-roledescription="axis" aria-label="X-axis for a discrete scale with 7 values: 2018, 2019, 2020, 2021, 2022, 2023, 2024">2018
</text>
<text text-anchor="middle" transform="translate(-69.95821044921874, 103.30266113281249) translate(35.0,10.0) translate(0.5,200.5) translate(0.0,0.0) translate(96.4285714285714,18)" font-family="sans-serif" font-size="10.0px" fill="#000d2a" opacity="1" class="axis-label" pointer-events="none" version="1.1" width="490" height="235" viewBox="0 0 490 235" stroke-miterlimit="10" role="graphics-symbol" aria-roledescription="axis" aria-label="X-axis for a discrete scale with 7 values: 2018, 2019, 2020, 2021, 2022, 2023, 2024">2019
</text>
<text text-anchor="middle" transform="translate(-69.95821044921874, 103.30266113281249) translate(35.0,10.0) translate(0.5,200.5) translate(0.0,0.0) translate(160.7142857142857,18)" font-family="sans-serif" font-size="10.0px" fill="#000d2a" opacity="1" class="axis-label" pointer-events="none" version="1.1" width="490" height="235" viewBox="0 0 490 235" stroke-miterlimit="10" role="graphics-symbol" aria-roledescription="axis" aria-label="X-axis for a discrete scale with 7 values: 2018, 2019, 2020, 2021, 2022, 2023, 2024">2020
</text>
<text text-anchor="middle" transform="translate(-69.95821044921874, 103.30266113281249) translate(35.0,10.0) translate(0.5,200.5) translate(0.0,0.0) translate(225,18)" font-family="sans-serif" font-size="10.0px" fill="#000d2a" opacity="1" class="axis-label" pointer-events="none" version="1.1" width="490" height="235" viewBox="0 0 490 235" stroke-miterlimit="10" role="graphics-symbol" aria-roledescription="axis" aria-label="X-axis for a discrete scale with 7 values: 2018, 2019, 2020, 2021, 2022, 2023, 2024">2021
</text>
<text text-anchor="middle" transform="translate(-69.95821044921874, 103.30266113281249) translate(35.0,10.0) translate(0.5,200.5) translate(0.0,0.0) translate(289.2857142857143,18)" font-family="sans-serif" font-size="10.0px" fill="#000d2a" opacity="1" class="axis-label" pointer-events="none" version="1.1" width="490" height="235" viewBox="0 0 490 235" stroke-miterlimit="10" role="graphics-symbol" aria-roledescription="axis" aria-label="X-axis for a discrete scale with 7 values: 2018, 2019, 2020, 2021, 2022, 2023, 2024">2022
</text>
<text text-anchor="middle" transform="translate(-69.95821044921874, 103.30266113281249) translate(35.0,10.0) translate(0.5,200.5) translate(0.0,0.0) translate(353.57142857142856,18)" font-family="sans-serif" font-size="10.0px" fill="#000d2a" opacity="1" class="axis-label" pointer-events="none" version="1.1" width="490" height="235" viewBox="0 0 490 235" stroke-miterlimit="10" role="graphics-symbol" aria-roledescription="axis" aria-label="X-axis for a discrete scale with 7 values: 2018, 2019, 2020, 2021, 2022, 2023, 2024">2023
</text>
<text text-anchor="middle" transform="translate(-69.95821044921874, 103.30266113281249) translate(35.0,10.0) translate(0.5,200.5) translate(0.0,0.0) translate(417.8571428571429,18)" font-family="sans-serif" font-size="10.0px" fill="#000d2a" opacity="1" class="axis-label" pointer-events="none" version="1.1" width="490" height="235" viewBox="0 0 490 235" stroke-miterlimit="10" role="graphics-symbol" aria-roledescription="axis" aria-label="X-axis for a discrete scale with 7 values: 2018, 2019, 2020, 2021, 2022, 2023, 2024">2024
</text>
<line transform="translate(-69.95821044921874, 103.30266113281249) translate(35.0,10.0) translate(0.5,200.5) translate(0,0)" x2="450" y2="0" stroke="#0f223b" stroke-opacity="0" stroke-width="1" opacity="1" class="axis-domain" pointer-events="none" version="1.1" width="490" height="235" viewBox="0 0 490 235" fill="none" stroke-miterlimit="10" role="graphics-symbol" aria-roledescription="axis" aria-label="X-axis for a discrete scale with 7 values: 2018, 2019, 2020, 2021, 2022, 2023, 2024"/>
<line transform="translate(-69.95821044921874, 103.30266113281249) translate(35.0,10.0) translate(0.5,0.5) translate(0,200)" x2="-5" y2="0" stroke="#0f223b" stroke-opacity="0" stroke-width="1" opacity="1" class="axis-tick" pointer-events="none" version="1.1" width="490" height="235" viewBox="0 0 490 235" fill="none" stroke-miterlimit="10" role="graphics-symbol" aria-roledescription="axis" aria-label="Y-axis for a linear scale with values from 0 to 100"/>
<line transform="translate(-69.95821044921874, 103.30266113281249) translate(35.0,10.0) translate(0.5,0.5) translate(0,160)" x2="-5" y2="0" stroke="#0f223b" stroke-opacity="0" stroke-width="1" opacity="1" class="axis-tick" pointer-events="none" version="1.1" width="490" height="235" viewBox="0 0 490 235" fill="none" stroke-miterlimit="10" role="graphics-symbol" aria-roledescription="axis" aria-label="Y-axis for a linear scale with values from 0 to 100"/>
<line transform="translate(-69.95821044921874, 103.30266113281249) translate(35.0,10.0) translate(0.5,0.5) translate(0,120)" x2="-5" y2="0" stroke="#0f223b" stroke-opacity="0" stroke-width="1" opacity="1" class="axis-tick" pointer-events="none" version="1.1" width="490" height="235" viewBox="0 0 490 235" fill="none" stroke-miterlimit="10" role="graphics-symbol" aria-roledescription="axis" aria-label="Y-axis for a linear scale with values from 0 to 100"/>
<line transform="translate(-69.95821044921874, 103.30266113281249) translate(35.0,10.0) translate(0.5,0.5) translate(0,80)" x2="-5" y2="0" stroke="#0f223b" stroke-opacity="0" stroke-width="1" opacity="1" class="axis-tick" pointer-events="none" version="1.1" width="490" height="235" viewBox="0 0 490 235" fill="none" stroke-miterlimit="10" role="graphics-symbol" aria-roledescription="axis" aria-label="Y-axis for a linear scale with values from 0 to 100"/>
<line transform="translate(-69.95821044921874, 103.30266113281249) translate(35.0,10.0) translate(0.5,0.5) translate(0,40)" x2="-5" y2="0" stroke="#0f223b" stroke-opacity="0" stroke-width="1" opacity="1" class="axis-tick" pointer-events="none" version="1.1" width="490" height="235" viewBox="0 0 490 235" fill="none" stroke-miterlimit="10" role="graphics-symbol" aria-roledescription="axis" aria-label="Y-axis for a linear scale with values from 0 to 100"/>
<line transform="translate(-69.95821044921874, 103.30266113281249) translate(35.0,10.0) translate(0.5,0.5) translate(0,0)" x2="-5" y2="0" stroke="#0f223b" stroke-opacity="0" stroke-width="1" opacity="1" class="axis-tick" pointer-events="none" version="1.1" width="490" height="235" viewBox="0 0 490 235" fill="none" stroke-miterlimit="10" role="graphics-symbol" aria-roledescription="axis" aria-label="Y-axis for a linear scale with values from 0 to 100"/>
<text text-anchor="end" transform="translate(-69.95821044921874, 103.30266113281249) translate(35.0,10.0) translate(0.5,0.5) translate(-10,203)" font-family="sans-serif" font-size="10px" fill="#000d2a" opacity="1" class="axis-label" pointer-events="none" version="1.1" width="490" height="235" viewBox="0 0 490 235" stroke-miterlimit="10" role="graphics-symbol" aria-roledescription="axis" aria-label="Y-axis for a linear scale with values from 0 to 100">0
</text>
<text text-anchor="end" transform="translate(-69.95821044921874, 103.30266113281249) translate(35.0,10.0) translate(0.5,0.5) translate(-10,163)" font-family="sans-serif" font-size="10px" fill="#000d2a" opacity="1" class="axis-label" pointer-events="none" version="1.1" width="490" height="235" viewBox="0 0 490 235" stroke-miterlimit="10" role="graphics-symbol" aria-roledescription="axis" aria-label="Y-axis for a linear scale with values from 0 to 100">20
</text>
<text text-anchor="end" transform="translate(-69.95821044921874, 103.30266113281249) translate(35.0,10.0) translate(0.5,0.5) translate(-10,123)" font-family="sans-serif" font-size="10px" fill="#000d2a" opacity="1" class="axis-label" pointer-events="none" version="1.1" width="490" height="235" viewBox="0 0 490 235" stroke-miterlimit="10" role="graphics-symbol" aria-roledescription="axis" aria-label="Y-axis for a linear scale with values from 0 to 100">40
</text>
<text text-anchor="end" transform="translate(-69.95821044921874, 103.30266113281249) translate(35.0,10.0) translate(0.5,0.5) translate(-10,83)" font-family="sans-serif" font-size="10px" fill="#000d2a" opacity="1" class="axis-label" pointer-events="none" version="1.1" width="490" height="235" viewBox="0 0 490 235" stroke-miterlimit="10" role="graphics-symbol" aria-roledescription="axis" aria-label="Y-axis for a linear scale with values from 0 to 100">60
</text>
<text text-anchor="end" transform="translate(-69.95821044921874, 103.30266113281249) translate(35.0,10.0) translate(0.5,0.5) translate(-10,42.99999999999999)" font-family="sans-serif" font-size="10px" fill="#000d2a" opacity="1" class="axis-label" pointer-events="none" version="1.1" width="490" height="235" viewBox="0 0 490 235" stroke-miterlimit="10" role="graphics-symbol" aria-roledescription="axis" aria-label="Y-axis for a linear scale with values from 0 to 100">80
</text>
<text text-anchor="end" transform="translate(-69.95821044921874, 103.30266113281249) translate(35.0,10.0) translate(0.5,0.5) translate(-10,3)" font-family="sans-serif" font-size="10px" fill="#000d2a" opacity="1" class="axis-label" pointer-events="none" version="1.1" width="490" height="235" viewBox="0 0 490 235" stroke-miterlimit="10" role="graphics-symbol" aria-roledescription="axis" aria-label="Y-axis for a linear scale with values from 0 to 100">100
</text>
<line transform="translate(-69.95821044921874, 103.30266113281249) translate(35.0,10.0) translate(0.5,0.5) translate(0,200)" x2="0" y2="-200" stroke="#0f223b" stroke-opacity="0" stroke-width="1" opacity="1" class="axis-domain" pointer-events="none" version="1.1" width="490" height="235" viewBox="0 0 490 235" fill="none" stroke-miterlimit="10" role="graphics-symbol" aria-roledescription="axis" aria-label="Y-axis for a linear scale with values from 0 to 100"/>
<path aria-label="Year: 2018; Percentage: 63; Sentiment: A bad year for my country" role="graphics-symbol" aria-roledescription="line mark" d="M32.143,74C53.571,73.667,75,73.333,96.429,72C117.857,70.667,139.286,18,160.714,18C182.143,18,203.571,46,225,46C246.429,46,267.857,44,289.286,44C310.714,44,332.143,49.667,353.571,54C375,58.333,396.429,64.167,417.857,70" stroke="#66c2a5" stroke-width="2" opacity="1" class="line" version="1.1" width="490" height="235" viewBox="0 0 490 235" fill="none" stroke-miterlimit="10" transform="translate(-69.95821044921874, 103.30266113281249) translate(35.0,10.0)"/>
<path aria-label="Year: 2018; Percentage: 46; Sentiment: A bad year for me and my family" role="graphics-symbol" aria-roledescription="line mark" d="M32.143,108C53.571,107.667,75,107.333,96.429,106C117.857,104.667,139.286,66,160.714,66C182.143,66,203.571,82.667,225,84C246.429,85.333,267.857,84.667,289.286,86C310.714,87.333,332.143,92,353.571,94C375,96,396.429,97,417.857,98" stroke="#b3b3b3" stroke-width="2" opacity="1" class="line" version="1.1" width="490" height="235" viewBox="0 0 490 235" fill="none" stroke-miterlimit="10" transform="translate(-69.95821044921874, 103.30266113281249) translate(35.0,10.0)"/></g></svg>