<svg version="1.1" class="marks" width="488" height="231" viewBox="-100,-100,1000,1000" xmlns="http://www.w3.org/2000/svg" xmlns:xlink="http://www.w3.org/1999/xlink"><g ><g version="1.1" class="marks" width="488" height="231" viewBox="0 0 488 231"><g fill="none" stroke-miterlimit="10" transform="translate(28,6)"><g class="mark-group role-frame root" role="graphics-object" aria-roledescription="group mark container"><g transform="translate(0,0)" class="mark-group role-axis" role="graphics-symbol" aria-roledescription="axis" aria-label="X-axis for a discrete scale with 26 values: 1998, 1999, 2000, 2001, 2002, ending with 2023"><g transform="translate(0.5,200.5)" class="mark-rule role-axis-tick" pointer-events="none"><line transform="translate(9,0)" x2="0" y2="5" stroke="#0f223b" stroke-opacity="0" stroke-width="1" opacity="1"/>
<line transform="translate(26,0)" x2="0" y2="5" stroke="#0f223b" stroke-opacity="0" stroke-width="1" opacity="1"/>
<line transform="translate(43,0)" x2="0" y2="5" stroke="#0f223b" stroke-opacity="0" stroke-width="1" opacity="1"/>
<line transform="translate(61,0)" x2="0" y2="5" stroke="#0f223b" stroke-opacity="0" stroke-width="1" opacity="1"/>
<line transform="translate(78,0)" x2="0" y2="5" stroke="#0f223b" stroke-opacity="0" stroke-width="1" opacity="1"/>
<line transform="translate(95,0)" x2="0" y2="5" stroke="#0f223b" stroke-opacity="0" stroke-width="1" opacity="1"/>
<line transform="translate(113,0)" x2="0" y2="5" stroke="#0f223b" stroke-opacity="0" stroke-width="1" opacity="1"/>
<line transform="translate(130,0)" x2="0" y2="5" stroke="#0f223b" stroke-opacity="0" stroke-width="1" opacity="1"/>
<line transform="translate(147,0)" x2="0" y2="5" stroke="#0f223b" stroke-opacity="0" stroke-width="1" opacity="1"/>
<line transform="translate(164,0)" x2="0" y2="5" stroke="#0f223b" stroke-opacity="0" stroke-width="1" opacity="1"/>
<line transform="translate(182,0)" x2="0" y2="5" stroke="#0f223b" stroke-opacity="0" stroke-width="1" opacity="1"/>
<line transform="translate(199,0)" x2="0" y2="5" stroke="#0f223b" stroke-opacity="0" stroke-width="1" opacity="1"/>
<line transform="translate(216,0)" x2="0" y2="5" stroke="#0f223b" stroke-opacity="0" stroke-width="1" opacity="1"/>
<line transform="translate(234,0)" x2="0" y2="5" stroke="#0f223b" stroke-opacity="0" stroke-width="1" opacity="1"/>
<line transform="translate(251,0)" x2="0" y2="5" stroke="#0f223b" stroke-opacity="0" stroke-width="1" opacity="1"/>
<line transform="translate(268,0)" x2="0" y2="5" stroke="#0f223b" stroke-opacity="0" stroke-width="1" opacity="1"/>
<line transform="translate(286,0)" x2="0" y2="5" stroke="#0f223b" stroke-opacity="0" stroke-width="1" opacity="1"/>
<line transform="translate(303,0)" x2="0" y2="5" stroke="#0f223b" stroke-opacity="0" stroke-width="1" opacity="1"/>
<line transform="translate(320,0)" x2="0" y2="5" stroke="#0f223b" stroke-opacity="0" stroke-width="1" opacity="1"/>
<line transform="translate(338,0)" x2="0" y2="5" stroke="#0f223b" stroke-opacity="0" stroke-width="1" opacity="1"/>
<line transform="translate(355,0)" x2="0" y2="5" stroke="#0f223b" stroke-opacity="0" stroke-width="1" opacity="1"/>
<line transform="translate(372,0)" x2="0" y2="5" stroke="#0f223b" stroke-opacity="0" stroke-width="1" opacity="1"/>
<line transform="translate(389,0)" x2="0" y2="5" stroke="#0f223b" stroke-opacity="0" stroke-width="1" opacity="1"/>
<line transform="translate(407,0)" x2="0" y2="5" stroke="#0f223b" stroke-opacity="0" stroke-width="1" opacity="1"/>
<line transform="translate(424,0)" x2="0" y2="5" stroke="#0f223b" stroke-opacity="0" stroke-width="1" opacity="1"/>
<line transform="translate(441,0)" x2="0" y2="5" stroke="#0f223b" stroke-opacity="0" stroke-width="1" opacity="1"/></g>
<g transform="translate(0.5,200.5)" class="mark-text role-axis-label" pointer-events="none"><text text-anchor="middle" transform="translate(8.65384615384616,18)" font-family="sans-serif" font-size="10px" fill="#000d2a" opacity="1">1998
</text>
<text text-anchor="middle" transform="translate(25.961538461538467,18)" font-family="sans-serif" font-size="10px" fill="#000d2a" opacity="1">1999
</text>
<text text-anchor="middle" transform="translate(43.269230769230774,18)" font-family="sans-serif" font-size="10px" fill="#000d2a" opacity="1">2000
</text>
<text text-anchor="middle" transform="translate(60.57692307692308,18)" font-family="sans-serif" font-size="10px" fill="#000d2a" opacity="1">2001
</text>
<text text-anchor="middle" transform="translate(77.88461538461539,18)" font-family="sans-serif" font-size="10px" fill="#000d2a" opacity="1">2002
</text>
<text text-anchor="middle" transform="translate(95.1923076923077,18)" font-family="sans-serif" font-size="10px" fill="#000d2a" opacity="1">2003
</text>
<text text-anchor="middle" transform="translate(112.5,18)" font-family="sans-serif" font-size="10px" fill="#000d2a" opacity="1">2004
</text>
<text text-anchor="middle" transform="translate(129.80769230769232,18)" font-family="sans-serif" font-size="10px" fill="#000d2a" opacity="1">2005
</text>
<text text-anchor="middle" transform="translate(147.1153846153846,18)" font-family="sans-serif" font-size="10px" fill="#000d2a" opacity="1">2006
</text>
<text text-anchor="middle" transform="translate(164.42307692307693,18)" font-family="sans-serif" font-size="10px" fill="#000d2a" opacity="1">2007
</text>
<text text-anchor="middle" transform="translate(181.73076923076923,18)" font-family="sans-serif" font-size="10px" fill="#000d2a" opacity="1">2008
</text>
<text text-anchor="middle" transform="translate(199.03846153846152,18)" font-family="sans-serif" font-size="10px" fill="#000d2a" opacity="1">2009
</text>
<text text-anchor="middle" transform="translate(216.34615384615384,18)" font-family="sans-serif" font-size="10px" fill="#000d2a" opacity="1">2010
</text>
<text text-anchor="middle" transform="translate(233.65384615384616,18)" font-family="sans-serif" font-size="10px" fill="#000d2a" opacity="1">2011
</text>
<text text-anchor="middle" transform="translate(250.96153846153845,18)" font-family="sans-serif" font-size="10px" fill="#000d2a" opacity="1">2012
</text>
<text text-anchor="middle" transform="translate(268.2692307692307,18)" font-family="sans-serif" font-size="10px" fill="#000d2a" opacity="1">2013
</text>
<text text-anchor="middle" transform="translate(285.5769230769231,18)" font-family="sans-serif" font-size="10px" fill="#000d2a" opacity="1">2014
</text>
<text text-anchor="middle" transform="translate(302.88461538461536,18)" font-family="sans-serif" font-size="10px" fill="#000d2a" opacity="1">2015
</text>
<text text-anchor="middle" transform="translate(320.19230769230774,18)" font-family="sans-serif" font-size="10px" fill="#000d2a" opacity="1">2016
</text>
<text text-anchor="middle" transform="translate(337.5,18)" font-family="sans-serif" font-size="10px" fill="#000d2a" opacity="1">2017
</text>
<text text-anchor="middle" transform="translate(354.80769230769226,18)" font-family="sans-serif" font-size="10px" fill="#000d2a" opacity="1">2018
</text>
<text text-anchor="middle" transform="translate(372.11538461538464,18)" font-family="sans-serif" font-size="10px" fill="#000d2a" opacity="1">2019
</text>
<text text-anchor="middle" transform="translate(389.4230769230769,18)" font-family="sans-serif" font-size="10px" fill="#000d2a" opacity="1">2020
</text>
<text text-anchor="middle" transform="translate(406.73076923076917,18)" font-family="sans-serif" font-size="10px" fill="#000d2a" opacity="1">2021
</text>
<text text-anchor="middle" transform="translate(424.03846153846155,18)" font-family="sans-serif" font-size="10px" fill="#000d2a" opacity="1">2022
</text>
<text text-anchor="middle" transform="translate(441.3461538461538,18)" font-family="sans-serif" font-size="10px" fill="#000d2a" opacity="1">2023
</text></g>
<g transform="translate(0.5,200.5)" class="mark-rule role-axis-domain" pointer-events="none"><line transform="translate(0,0)" x2="450" y2="0" stroke="#0f223b" stroke-opacity="0" stroke-width="1" opacity="1"/></g></g>
<g transform="translate(0,0)" class="mark-group role-axis" role="graphics-symbol" aria-roledescription="axis" aria-label="Y-axis for a linear scale with values from 0 to 55"><g transform="translate(0.5,0.5)" class="mark-rule role-axis-tick" pointer-events="none"><line transform="translate(0,200)" x2="-5" y2="0" stroke="#0f223b" stroke-opacity="0" stroke-width="1" opacity="1"/>
<line transform="translate(0,164)" x2="-5" y2="0" stroke="#0f223b" stroke-opacity="0" stroke-width="1" opacity="1"/>
<line transform="translate(0,127)" x2="-5" y2="0" stroke="#0f223b" stroke-opacity="0" stroke-width="1" opacity="1"/>
<line transform="translate(0,91)" x2="-5" y2="0" stroke="#0f223b" stroke-opacity="0" stroke-width="1" opacity="1"/>
<line transform="translate(0,55)" x2="-5" y2="0" stroke="#0f223b" stroke-opacity="0" stroke-width="1" opacity="1"/>
<line transform="translate(0,18)" x2="-5" y2="0" stroke="#0f223b" stroke-opacity="0" stroke-width="1" opacity="1"/></g>
<g transform="translate(0.5,0.5)" class="mark-text role-axis-label" pointer-events="none"><text text-anchor="end" transform="translate(-10,203)" font-family="sans-serif" font-size="10px" fill="#000d2a" opacity="1">0
</text>
<text text-anchor="end" transform="translate(-10,166.63636363636363)" font-family="sans-serif" font-size="10px" fill="#000d2a" opacity="1">10
</text>
<text text-anchor="end" transform="translate(-10,130.27272727272725)" font-family="sans-serif" font-size="10px" fill="#000d2a" opacity="1">20
</text>
<text text-anchor="end" transform="translate(-10,93.90909090909092)" font-family="sans-serif" font-size="10px" fill="#000d2a" opacity="1">30
</text>
<text text-anchor="end" transform="translate(-10,57.54545454545454)" font-family="sans-serif" font-size="10px" fill="#000d2a" opacity="1">40
</text>
<text text-anchor="end" transform="translate(-10,21.181818181818187)" font-family="sans-serif" font-size="10px" fill="#000d2a" opacity="1">50
</text></g>
<g transform="translate(0.5,0.5)" class="mark-rule role-axis-domain" pointer-events="none"><line transform="translate(0,200)" x2="0" y2="-200" stroke="#0f223b" stroke-opacity="0" stroke-width="1" opacity="1"/></g></g>
<g transform="translate(0,0)" class="mark-line role-mark marks" role="graphics-object" aria-roledescription="line mark container"><path aria-label="Year: 1998; Violations: 54.5" role="graphics-symbol" aria-roledescription="line mark" d="M8.654,1.818L17.308,1.818L17.308,18.182L34.615,18.182L34.615,25.455L51.923,25.455L51.923,43.636L69.231,43.636L69.231,32.727L86.538,32.727L86.538,36.364L103.846,36.364L103.846,54.545L121.154,54.545L121.154,61.818L138.462,61.818L138.462,87.273L155.769,87.273L155.769,105.455L173.077,105.455L173.077,112.727L190.385,112.727L190.385,123.636L207.692,123.636L207.692,109.091L225,109.091L225,138.182L242.308,138.182L242.308,156.364L259.615,156.364L259.615,156.364L276.923,156.364L276.923,160L294.231,160L294.231,163.636L311.538,163.636L311.538,167.273L328.846,167.273L328.846,174.545L346.154,174.545L346.154,176.364L363.462,176.364L363.462,181.818L380.769,181.818L380.769,183.636L398.077,183.636L398.077,185.455L415.385,185.455L415.385,186.182L432.692,186.182L432.692,187.636L441.346,187.636" stroke="#4c78a8" stroke-width="2" opacity="1"/></g></g></g></g></g></svg>