<svg version="1.1" class="marks" width="375.5" height="383.3156234479411" viewBox="0 0 475.5 483.3156234479411" xmlns="http://www.w3.org/2000/svg" xmlns:xlink="http://www.w3.org/1999/xlink"><rect width="100%" height="100%" fill="#ffffff"/>
<g transform="translate(50.0, 78.8084522304497)"><text class="chart-title-line" x="0" y="0" text-anchor="start" font-family="sans-serif" font-size="24" font-weight="700" fill="#0f2740" letter-spacing="0" transform="scale(1.3020769369694782)">Steep Budget Deficits: A
</text>
<text class="chart-title-line" x="0" y="0" text-anchor="start" font-family="sans-serif" font-size="24" font-weight="700" fill="#0f2740" letter-spacing="0" transform="scale(1.3020769369694782) translate(0.0, 27.1640625)"> Decade of Decline
</text>
<text class="chart-subtitle-line" x="0" y="0" text-anchor="start" font-family="sans-serif" font-size="13" font-weight="400" fill="#445f7c" letter-spacing="0.25" transform="scale(1.3020769369694782) translate(0.0, 54.1875)">"Exploring the significant reductions in
</text>
<text class="chart-subtitle-line" x="0" y="0" text-anchor="start" font-family="sans-serif" font-size="13" font-weight="400" fill="#445f7c" letter-spacing="0.25" transform="scale(1.3020769369694782) translate(0.0, 54.1875) translate(0.0, 14.7138671875)">budget surpluses over the years."
</text>
<path transform="translate(-5.0, 103.48763996749143) translate(5.0,34.0) translate(0,-29) translate(0,0) translate(0,0) translate(6,6)" d="M5,0A5,5,0,1,1,-5,0A5,5,0,1,1,5,0" fill="#363636" stroke-width="1.5" opacity="0.7" class="mark-symbol role-legend-symbol" pointer-events="none" role="graphics-object" aria-roledescription="group mark container" aria-label="Symbol legend for fill color with 1 value: value" stroke-miterlimit="10" version="1.1" width="385" height="255" viewBox="0 0 385 255"/>
<text text-anchor="start" transform="translate(-5.0, 103.48763996749143) translate(5.0,34.0) translate(0,-29) translate(0,0) translate(0,0) translate(16,9)" font-family="sans-serif" font-size="10px" fill="#000" opacity="1" class="mark-text role-legend-label" pointer-events="none" role="graphics-object" aria-roledescription="group mark container" aria-label="Symbol legend for fill color with 1 value: value" stroke-miterlimit="10" version="1.1" width="385" height="255" viewBox="0 0 385 255">value
</text>
<text text-anchor="start" transform="translate(-5.0, 103.48763996749143) translate(5.0,34.0) translate(0.5,200.5) translate(0,14)" font-family="sans-serif" font-size="12px" fill="#000d2a" opacity="1" stroke-miterlimit="10" class="mark-text role-axis-label" role="graphics-symbol" aria-roledescription="axis" version="1.1" width="385" height="255" viewBox="0 0 385 255" aria-label="X-axis for a linear scale with values from 2,006 to 2,015" pointer-events="none" x="0.0" y="0.0">2,006
</text>
<text text-anchor="middle" transform="translate(-5.0, 103.48763996749143) translate(5.0,34.0) translate(0.5,200.5) translate(41.666666666666664,14)" font-family="sans-serif" font-size="12px" fill="#000d2a" opacity="0" stroke-miterlimit="10" class="mark-text role-axis-label" role="graphics-symbol" aria-roledescription="axis" version="1.1" width="385" height="255" viewBox="0 0 385 255" aria-label="X-axis for a linear scale with values from 2,006 to 2,015" pointer-events="none" x="0.0" y="0.0">2,007
</text>
<text text-anchor="middle" transform="translate(-5.0, 103.48763996749143) translate(5.0,34.0) translate(0.5,200.5) translate(83.33333333333333,14)" font-family="sans-serif" font-size="12px" fill="#000d2a" opacity="1" stroke-miterlimit="10" class="mark-text role-axis-label" role="graphics-symbol" aria-roledescription="axis" version="1.1" width="385" height="255" viewBox="0 0 385 255" aria-label="X-axis for a linear scale with values from 2,006 to 2,015" pointer-events="none" x="0.0" y="0.0">2,008
</text>
<text text-anchor="middle" transform="translate(-5.0, 103.48763996749143) translate(5.0,34.0) translate(0.5,200.5) translate(125,14)" font-family="sans-serif" font-size="12px" fill="#000d2a" opacity="0" stroke-miterlimit="10" class="mark-text role-axis-label" role="graphics-symbol" aria-roledescription="axis" version="1.1" width="385" height="255" viewBox="0 0 385 255" aria-label="X-axis for a linear scale with values from 2,006 to 2,015" pointer-events="none" x="0.0" y="0.0">2,009
</text>
<text text-anchor="middle" transform="translate(-5.0, 103.48763996749143) translate(5.0,34.0) translate(0.5,200.5) translate(166.66666666666666,14)" font-family="sans-serif" font-size="12px" fill="#000d2a" opacity="1" stroke-miterlimit="10" class="mark-text role-axis-label" role="graphics-symbol" aria-roledescription="axis" version="1.1" width="385" height="255" viewBox="0 0 385 255" aria-label="X-axis for a linear scale with values from 2,006 to 2,015" pointer-events="none" x="0.0" y="0.0">2,010
</text>
<text text-anchor="middle" transform="translate(-5.0, 103.48763996749143) translate(5.0,34.0) translate(0.5,200.5) translate(208.33333333333334,14)" font-family="sans-serif" font-size="12px" fill="#000d2a" opacity="0" stroke-miterlimit="10" class="mark-text role-axis-label" role="graphics-symbol" aria-roledescription="axis" version="1.1" width="385" height="255" viewBox="0 0 385 255" aria-label="X-axis for a linear scale with values from 2,006 to 2,015" pointer-events="none" x="0.0" y="0.0">2,011
</text>
<text text-anchor="middle" transform="translate(-5.0, 103.48763996749143) translate(5.0,34.0) translate(0.5,200.5) translate(250,14)" font-family="sans-serif" font-size="12px" fill="#000d2a" opacity="1" stroke-miterlimit="10" class="mark-text role-axis-label" role="graphics-symbol" aria-roledescription="axis" version="1.1" width="385" height="255" viewBox="0 0 385 255" aria-label="X-axis for a linear scale with values from 2,006 to 2,015" pointer-events="none" x="0.0" y="0.0">2,012
</text>
<text text-anchor="middle" transform="translate(-5.0, 103.48763996749143) translate(5.0,34.0) translate(0.5,200.5) translate(291.6666666666667,14)" font-family="sans-serif" font-size="12px" fill="#000d2a" opacity="0" stroke-miterlimit="10" class="mark-text role-axis-label" role="graphics-symbol" aria-roledescription="axis" version="1.1" width="385" height="255" viewBox="0 0 385 255" aria-label="X-axis for a linear scale with values from 2,006 to 2,015" pointer-events="none" x="0.0" y="0.0">2,013
</text>
<text text-anchor="middle" transform="translate(-5.0, 103.48763996749143) translate(5.0,34.0) translate(0.5,200.5) translate(333.3333333333333,14)" font-family="sans-serif" font-size="12px" fill="#000d2a" opacity="1" stroke-miterlimit="10" class="mark-text role-axis-label" role="graphics-symbol" aria-roledescription="axis" version="1.1" width="385" height="255" viewBox="0 0 385 255" aria-label="X-axis for a linear scale with values from 2,006 to 2,015" pointer-events="none" x="0.0" y="0.0">2,014
</text>
<text text-anchor="end" transform="translate(-5.0, 103.48763996749143) translate(5.0,34.0) translate(0.5,200.5) translate(375,14)" font-family="sans-serif" font-size="12px" fill="#000d2a" opacity="0" stroke-miterlimit="10" class="mark-text role-axis-label" role="graphics-symbol" aria-roledescription="axis" version="1.1" width="385" height="255" viewBox="0 0 385 255" aria-label="X-axis for a linear scale with values from 2,006 to 2,015" pointer-events="none" x="0.0" y="0.0">2,015
</text>
<line transform="translate(-5.0, 103.48763996749143) translate(5.0,34.0) translate(0.5,200.5) translate(0,0)" x2="375" y2="0" stroke="#0f223b" stroke-width="1" opacity="1" fill="none" stroke-miterlimit="10" class="mark-rule role-axis-domain" role="graphics-symbol" aria-roledescription="axis" version="1.1" width="385" height="255" viewBox="0 0 385 255" aria-label="X-axis for a linear scale with values from 2,006 to 2,015" pointer-events="none"/>
<path aria-label="xlabel: 2006; Diferena em R milhes: 0; group: value" role="graphics-symbol" aria-roledescription="area mark" d="M0,0L41.667,24.75L83.333,9.75L125,54.75L166.667,124.375L208.333,76.875L291.667,199.75L333.333,165.75L375,113.25L375,0L333.333,0L291.667,0L208.333,0L166.667,0L125,0L83.333,0L41.667,0L0,0Z" fill="#363636" opacity="0.7" stroke-miterlimit="10" class="mark-area role-mark marks" version="1.1" width="385" height="255" viewBox="0 0 385 255" transform="translate(-5.0, 103.48763996749143) translate(5.0,34.0) translate(0,0)"/></g></svg>