<svg version="1.1" class="marks" width="375.0" height="358.03490367631315" viewBox="0 0 475.0 458.03490367631315" xmlns="http://www.w3.org/2000/svg" xmlns:xlink="http://www.w3.org/1999/xlink"><rect width="100%" height="100%" fill="#ffffff"/>
<g transform="translate(50.0, 70.21124750214102)"><text class="chart-title-line" x="0" y="0" text-anchor="start" font-family="sans-serif" font-size="24" font-weight="700" fill="#0f2740" letter-spacing="0" transform="scale(0.9135027119611762)">Rising Monthly Vehicle Recoveries
</text>
<text class="chart-title-line" x="0" y="0" text-anchor="start" font-family="sans-serif" font-size="24" font-weight="700" fill="#0f2740" letter-spacing="0" transform="scale(0.9135027119611762) translate(0.0, 27.1640625)">in Early 2015
</text>
<text class="chart-subtitle-line" x="0" y="0" text-anchor="start" font-family="sans-serif" font-size="13" font-weight="400" fill="#445f7c" letter-spacing="0.25" transform="scale(0.9135027119611762) translate(0.0, 54.1875)">"A closer look at the monthly vehicle recovery rates observed in
</text>
<text class="chart-subtitle-line" x="0" y="0" text-anchor="start" font-family="sans-serif" font-size="13" font-weight="400" fill="#445f7c" letter-spacing="0.25" transform="scale(0.9135027119611762) translate(0.0, 54.1875) translate(0.0, 14.7138671875)">the first half of the year."
</text>
<path transform="translate(-5.5, 75.65373429917214) translate(5.0,34.0) translate(0,-29) translate(0,0) translate(0,0) translate(6,6)" d="M5,0A5,5,0,1,1,-5,0A5,5,0,1,1,5,0" fill="#1c1c1c" stroke-width="1.5" opacity="0.7" class="mark-symbol role-legend-symbol" pointer-events="none" role="graphics-object" aria-roledescription="group mark container" aria-label="Symbol legend for fill color with 2 values: 2015, 2016" stroke-miterlimit="10" version="1.1" width="385" height="267" viewBox="0 0 385 267"/>
<text text-anchor="start" transform="translate(-5.5, 75.65373429917214) translate(5.0,34.0) translate(0,-29) translate(0,0) translate(0,0) translate(16,9)" font-family="sans-serif" font-size="10px" fill="#000" opacity="1" class="mark-text role-legend-label" pointer-events="none" role="graphics-object" aria-roledescription="group mark container" aria-label="Symbol legend for fill color with 2 values: 2015, 2016" stroke-miterlimit="10" version="1.1" width="385" height="267" viewBox="0 0 385 267">2015
</text>
<path transform="translate(-5.5, 75.65373429917214) translate(5.0,34.0) translate(0,-29) translate(0,0) translate(49,0) translate(6,6)" d="M5,0A5,5,0,1,1,-5,0A5,5,0,1,1,5,0" fill="#053a7d" stroke-width="1.5" opacity="0.7" class="mark-symbol role-legend-symbol" pointer-events="none" role="graphics-object" aria-roledescription="group mark container" aria-label="Symbol legend for fill color with 2 values: 2015, 2016" stroke-miterlimit="10" version="1.1" width="385" height="267" viewBox="0 0 385 267"/>
<text text-anchor="start" transform="translate(-5.5, 75.65373429917214) translate(5.0,34.0) translate(0,-29) translate(0,0) translate(49,0) translate(16,9)" font-family="sans-serif" font-size="10px" fill="#000" opacity="1" class="mark-text role-legend-label" pointer-events="none" role="graphics-object" aria-roledescription="group mark container" aria-label="Symbol legend for fill color with 2 values: 2015, 2016" stroke-miterlimit="10" version="1.1" width="385" height="267" viewBox="0 0 385 267">2016
</text>
<text text-anchor="end" transform="translate(-5.5, 75.65373429917214) translate(5.0,34.0) translate(0.5,200.5) translate(20.833333333333343,5) rotate(270) translate(0,4)" font-family="sans-serif" font-size="12px" fill="#000d2a" opacity="1" stroke-miterlimit="10" class="mark-text role-axis-label" role="graphics-symbol" aria-roledescription="axis" version="1.1" width="385" height="267" viewBox="0 0 385 267" aria-label="X-axis for a discrete scale with 9 values: Apr, Aug, Feb, Jan, Jul, ending with Sep" pointer-events="none" x="0.0" y="0.0">Apr
</text>
<text text-anchor="end" transform="translate(-5.5, 75.65373429917214) translate(5.0,34.0) translate(0.5,200.5) translate(62.50000000000001,5) rotate(270) translate(0,4)" font-family="sans-serif" font-size="12px" fill="#000d2a" opacity="1" stroke-miterlimit="10" class="mark-text role-axis-label" role="graphics-symbol" aria-roledescription="axis" version="1.1" width="385" height="267" viewBox="0 0 385 267" aria-label="X-axis for a discrete scale with 9 values: Apr, Aug, Feb, Jan, Jul, ending with Sep" pointer-events="none" x="0.0" y="0.0">Aug
</text>
<text text-anchor="end" transform="translate(-5.5, 75.65373429917214) translate(5.0,34.0) translate(0.5,200.5) translate(104.16666666666667,5) rotate(270) translate(0,4)" font-family="sans-serif" font-size="12px" fill="#000d2a" opacity="1" stroke-miterlimit="10" class="mark-text role-axis-label" role="graphics-symbol" aria-roledescription="axis" version="1.1" width="385" height="267" viewBox="0 0 385 267" aria-label="X-axis for a discrete scale with 9 values: Apr, Aug, Feb, Jan, Jul, ending with Sep" pointer-events="none" x="0.0" y="0.0">Feb
</text>
<text text-anchor="end" transform="translate(-5.5, 75.65373429917214) translate(5.0,34.0) translate(0.5,200.5) translate(145.83333333333334,5) rotate(270) translate(0,4)" font-family="sans-serif" font-size="12px" fill="#000d2a" opacity="1" stroke-miterlimit="10" class="mark-text role-axis-label" role="graphics-symbol" aria-roledescription="axis" version="1.1" width="385" height="267" viewBox="0 0 385 267" aria-label="X-axis for a discrete scale with 9 values: Apr, Aug, Feb, Jan, Jul, ending with Sep" pointer-events="none" x="0.0" y="0.0">Jan
</text>
<text text-anchor="end" transform="translate(-5.5, 75.65373429917214) translate(5.0,34.0) translate(0.5,200.5) translate(187.5,5) rotate(270) translate(0,4)" font-family="sans-serif" font-size="12px" fill="#000d2a" opacity="1" stroke-miterlimit="10" class="mark-text role-axis-label" role="graphics-symbol" aria-roledescription="axis" version="1.1" width="385" height="267" viewBox="0 0 385 267" aria-label="X-axis for a discrete scale with 9 values: Apr, Aug, Feb, Jan, Jul, ending with Sep" pointer-events="none" x="0.0" y="0.0">Jul
</text>
<text text-anchor="end" transform="translate(-5.5, 75.65373429917214) translate(5.0,34.0) translate(0.5,200.5) translate(229.16666666666666,5) rotate(270) translate(0,4)" font-family="sans-serif" font-size="12px" fill="#000d2a" opacity="1" stroke-miterlimit="10" class="mark-text role-axis-label" role="graphics-symbol" aria-roledescription="axis" version="1.1" width="385" height="267" viewBox="0 0 385 267" aria-label="X-axis for a discrete scale with 9 values: Apr, Aug, Feb, Jan, Jul, ending with Sep" pointer-events="none" x="0.0" y="0.0">Jun
</text>
<text text-anchor="end" transform="translate(-5.5, 75.65373429917214) translate(5.0,34.0) translate(0.5,200.5) translate(270.83333333333337,5) rotate(270) translate(0,4)" font-family="sans-serif" font-size="12px" fill="#000d2a" opacity="1" stroke-miterlimit="10" class="mark-text role-axis-label" role="graphics-symbol" aria-roledescription="axis" version="1.1" width="385" height="267" viewBox="0 0 385 267" aria-label="X-axis for a discrete scale with 9 values: Apr, Aug, Feb, Jan, Jul, ending with Sep" pointer-events="none" x="0.0" y="0.0">Mar
</text>
<text text-anchor="end" transform="translate(-5.5, 75.65373429917214) translate(5.0,34.0) translate(0.5,200.5) translate(312.5,5) rotate(270) translate(0,4)" font-family="sans-serif" font-size="12px" fill="#000d2a" opacity="1" stroke-miterlimit="10" class="mark-text role-axis-label" role="graphics-symbol" aria-roledescription="axis" version="1.1" width="385" height="267" viewBox="0 0 385 267" aria-label="X-axis for a discrete scale with 9 values: Apr, Aug, Feb, Jan, Jul, ending with Sep" pointer-events="none" x="0.0" y="0.0">May
</text>
<text text-anchor="end" transform="translate(-5.5, 75.65373429917214) translate(5.0,34.0) translate(0.5,200.5) translate(354.16666666666663,5) rotate(270) translate(0,4)" font-family="sans-serif" font-size="12px" fill="#000d2a" opacity="1" stroke-miterlimit="10" class="mark-text role-axis-label" role="graphics-symbol" aria-roledescription="axis" version="1.1" width="385" height="267" viewBox="0 0 385 267" aria-label="X-axis for a discrete scale with 9 values: Apr, Aug, Feb, Jan, Jul, ending with Sep" pointer-events="none" x="0.0" y="0.0">Sep
</text>
<line transform="translate(-5.5, 75.65373429917214) translate(5.0,34.0) translate(0.5,200.5) translate(0,0)" x2="375" y2="0" stroke="#0f223b" stroke-width="1" opacity="1" fill="none" stroke-miterlimit="10" class="mark-rule role-axis-domain" role="graphics-symbol" aria-roledescription="axis" version="1.1" width="385" height="267" viewBox="0 0 385 267" aria-label="X-axis for a discrete scale with 9 values: Apr, Aug, Feb, Jan, Jul, ending with Sep" pointer-events="none"/>
<path aria-label="xlabel: Apr; ylabel: 379; group: 2015" role="graphics-symbol" aria-roledescription="area mark" d="M20.833,16.444L62.5,36.444L104.167,39.333L145.833,51.556L187.5,33.111L229.167,50.222L270.833,11.111L312.5,19.778L354.167,64.444L354.167,132.222L312.5,111.333L270.833,97.556L229.167,129.111L187.5,121.333L145.833,115.111L104.167,102.444L62.5,122.667L20.833,100.667Z" opacity="0.7" fill="none" stroke-miterlimit="10" class="mark-area role-mark marks" version="1.1" width="385" height="267" viewBox="0 0 385 267" transform="translate(-5.5, 75.65373429917214) translate(5.0,34.0) translate(0,0)"/>
<path aria-label="xlabel: Apr; ylabel: 447; group: 2016" role="graphics-symbol" aria-roledescription="area mark" d="M20.833,100.667L62.5,122.667L104.167,102.444L145.833,115.111L187.5,121.333L229.167,129.111L270.833,97.556L312.5,111.333L354.167,132.222L354.167,200L312.5,200L270.833,200L229.167,200L187.5,200L145.833,200L104.167,200L62.5,200L20.833,200Z" opacity="0.7" fill="none" stroke-miterlimit="10" class="mark-area role-mark marks" version="1.1" width="385" height="267" viewBox="0 0 385 267" transform="translate(-5.5, 75.65373429917214) translate(5.0,34.0) translate(0,0)"/></g></svg>