<svg version="1.1" class="marks" width="422.203125" height="402.42230165189284" viewBox="0 0 522.203125 502.42230165189284" xmlns="http://www.w3.org/2000/svg" xmlns:xlink="http://www.w3.org/1999/xlink"><rect width="100%" height="100%" fill="#ffffff"/>
<g transform="translate(50.0, 51.70230025502367)"><rect x="0" y="0" width="15" height="150" fill="#353545" transform="scale(1.452538767280569) scale(0.6094130859375)"/>
<text class="chart-title-line" x="0" y="0" text-anchor="start" font-family="sans-serif" font-size="24" font-weight="700" fill="#0f2740" letter-spacing="0" transform="scale(1.452538767280569) translate(19.1411962890625, 20.953051757812496)">Steep Financial Declines
</text>
<text class="chart-title-line" x="0" y="0" text-anchor="start" font-family="sans-serif" font-size="24" font-weight="700" fill="#0f2740" letter-spacing="0" transform="scale(1.452538767280569) translate(19.1411962890625, 20.953051757812496) translate(0.0, 27.1640625)">Marking the Late 2000s
</text>
<text class="chart-subtitle-line" x="0" y="0" text-anchor="start" font-family="sans-serif" font-size="13" font-weight="400" fill="#445f7c" letter-spacing="0.25" transform="scale(1.452538767280569) translate(19.1411962890625, 20.953051757812496) translate(0.0, 54.1875)">"Significant reductions in financial
</text>
<text class="chart-subtitle-line" x="0" y="0" text-anchor="start" font-family="sans-serif" font-size="13" font-weight="400" fill="#445f7c" letter-spacing="0.25" transform="scale(1.452538767280569) translate(19.1411962890625, 20.953051757812496) translate(0.0, 54.1875) translate(0.0, 14.7138671875)">performance observed annually."
</text>
<line transform="translate(-5.796875, 144.7004701468692) translate(52.0,34.0) translate(0.5,200.5) translate(0,-200)" x2="0" y2="200" stroke="#ddd" stroke-width="1" opacity="1" class="mark-rule role-axis-grid" pointer-events="none" aria-hidden="true" fill="none" stroke-miterlimit="10" role="graphics-object" aria-roledescription="group mark container" version="1.1" width="433" height="260" viewBox="0 0 433 260"/>
<line transform="translate(-5.796875, 144.7004701468692) translate(52.0,34.0) translate(0.5,200.5) translate(42,-200)" x2="0" y2="200" stroke="#ddd" stroke-width="1" opacity="1" class="mark-rule role-axis-grid" pointer-events="none" aria-hidden="true" fill="none" stroke-miterlimit="10" role="graphics-object" aria-roledescription="group mark container" version="1.1" width="433" height="260" viewBox="0 0 433 260"/>
<line transform="translate(-5.796875, 144.7004701468692) translate(52.0,34.0) translate(0.5,200.5) translate(83,-200)" x2="0" y2="200" stroke="#ddd" stroke-width="1" opacity="1" class="mark-rule role-axis-grid" pointer-events="none" aria-hidden="true" fill="none" stroke-miterlimit="10" role="graphics-object" aria-roledescription="group mark container" version="1.1" width="433" height="260" viewBox="0 0 433 260"/>
<line transform="translate(-5.796875, 144.7004701468692) translate(52.0,34.0) translate(0.5,200.5) translate(125,-200)" x2="0" y2="200" stroke="#ddd" stroke-width="1" opacity="1" class="mark-rule role-axis-grid" pointer-events="none" aria-hidden="true" fill="none" stroke-miterlimit="10" role="graphics-object" aria-roledescription="group mark container" version="1.1" width="433" height="260" viewBox="0 0 433 260"/>
<line transform="translate(-5.796875, 144.7004701468692) translate(52.0,34.0) translate(0.5,200.5) translate(167,-200)" x2="0" y2="200" stroke="#ddd" stroke-width="1" opacity="1" class="mark-rule role-axis-grid" pointer-events="none" aria-hidden="true" fill="none" stroke-miterlimit="10" role="graphics-object" aria-roledescription="group mark container" version="1.1" width="433" height="260" viewBox="0 0 433 260"/>
<line transform="translate(-5.796875, 144.7004701468692) translate(52.0,34.0) translate(0.5,200.5) translate(208,-200)" x2="0" y2="200" stroke="#ddd" stroke-width="1" opacity="1" class="mark-rule role-axis-grid" pointer-events="none" aria-hidden="true" fill="none" stroke-miterlimit="10" role="graphics-object" aria-roledescription="group mark container" version="1.1" width="433" height="260" viewBox="0 0 433 260"/>
<line transform="translate(-5.796875, 144.7004701468692) translate(52.0,34.0) translate(0.5,200.5) translate(250,-200)" x2="0" y2="200" stroke="#ddd" stroke-width="1" opacity="1" class="mark-rule role-axis-grid" pointer-events="none" aria-hidden="true" fill="none" stroke-miterlimit="10" role="graphics-object" aria-roledescription="group mark container" version="1.1" width="433" height="260" viewBox="0 0 433 260"/>
<line transform="translate(-5.796875, 144.7004701468692) translate(52.0,34.0) translate(0.5,200.5) translate(292,-200)" x2="0" y2="200" stroke="#ddd" stroke-width="1" opacity="1" class="mark-rule role-axis-grid" pointer-events="none" aria-hidden="true" fill="none" stroke-miterlimit="10" role="graphics-object" aria-roledescription="group mark container" version="1.1" width="433" height="260" viewBox="0 0 433 260"/>
<line transform="translate(-5.796875, 144.7004701468692) translate(52.0,34.0) translate(0.5,200.5) translate(333,-200)" x2="0" y2="200" stroke="#ddd" stroke-width="1" opacity="1" class="mark-rule role-axis-grid" pointer-events="none" aria-hidden="true" fill="none" stroke-miterlimit="10" role="graphics-object" aria-roledescription="group mark container" version="1.1" width="433" height="260" viewBox="0 0 433 260"/>
<line transform="translate(-5.796875, 144.7004701468692) translate(52.0,34.0) translate(0.5,200.5) translate(375,-200)" x2="0" y2="200" stroke="#ddd" stroke-width="1" opacity="1" class="mark-rule role-axis-grid" pointer-events="none" aria-hidden="true" fill="none" stroke-miterlimit="10" role="graphics-object" aria-roledescription="group mark container" version="1.1" width="433" height="260" viewBox="0 0 433 260"/>
<line transform="translate(-5.796875, 144.7004701468692) translate(52.0,34.0) translate(0.5,0.5) translate(0,188)" x2="375" y2="0" stroke="#ddd" stroke-width="1" opacity="1" class="mark-rule role-axis-grid" pointer-events="none" aria-hidden="true" fill="none" stroke-miterlimit="10" role="graphics-object" aria-roledescription="group mark container" version="1.1" width="433" height="260" viewBox="0 0 433 260"/>
<line transform="translate(-5.796875, 144.7004701468692) translate(52.0,34.0) translate(0.5,0.5) translate(0,125)" x2="375" y2="0" stroke="#ddd" stroke-width="1" opacity="1" class="mark-rule role-axis-grid" pointer-events="none" aria-hidden="true" fill="none" stroke-miterlimit="10" role="graphics-object" aria-roledescription="group mark container" version="1.1" width="433" height="260" viewBox="0 0 433 260"/>
<line transform="translate(-5.796875, 144.7004701468692) translate(52.0,34.0) translate(0.5,0.5) translate(0,63)" x2="375" y2="0" stroke="#ddd" stroke-width="1" opacity="1" class="mark-rule role-axis-grid" pointer-events="none" aria-hidden="true" fill="none" stroke-miterlimit="10" role="graphics-object" aria-roledescription="group mark container" version="1.1" width="433" height="260" viewBox="0 0 433 260"/>
<line transform="translate(-5.796875, 144.7004701468692) translate(52.0,34.0) translate(0.5,0.5) translate(0,0)" x2="375" y2="0" stroke="#ddd" stroke-width="1" opacity="1" class="mark-rule role-axis-grid" pointer-events="none" aria-hidden="true" fill="none" stroke-miterlimit="10" role="graphics-object" aria-roledescription="group mark container" version="1.1" width="433" height="260" viewBox="0 0 433 260"/>
<path transform="translate(-5.796875, 144.7004701468692) translate(52.0,34.0) translate(0,-29) translate(0,0) translate(0,0) translate(6,6)" d="M5,0A5,5,0,1,1,-5,0A5,5,0,1,1,5,0" fill="#353545" stroke-width="1.5" opacity="0.7" class="mark-symbol role-legend-symbol" pointer-events="none" role="graphics-object" aria-roledescription="group mark container" aria-label="Symbol legend for fill color with 1 value: value" stroke-miterlimit="10" version="1.1" width="433" height="260" viewBox="0 0 433 260"/>
<text text-anchor="start" transform="translate(-5.796875, 144.7004701468692) translate(52.0,34.0) translate(0,-29) translate(0,0) translate(0,0) translate(16,9)" font-family="sans-serif" font-size="10px" fill="#000" opacity="1" class="mark-text role-legend-label" pointer-events="none" role="graphics-object" aria-roledescription="group mark container" aria-label="Symbol legend for fill color with 1 value: value" stroke-miterlimit="10" version="1.1" width="433" height="260" viewBox="0 0 433 260">value
</text>
<line transform="translate(-5.796875, 144.7004701468692) translate(52.0,34.0) translate(0.5,200.5) translate(0,0)" x2="0" y2="5" stroke="#0f223b" stroke-width="1" opacity="1" fill="none" stroke-miterlimit="10" class="mark-rule role-axis-tick" role="graphics-symbol" aria-roledescription="axis" version="1.1" width="433" height="260" viewBox="0 0 433 260" aria-label="X-axis for a linear scale with values from 2,006 to 2,015" pointer-events="none"/>
<line transform="translate(-5.796875, 144.7004701468692) translate(52.0,34.0) translate(0.5,200.5) translate(42,0)" x2="0" y2="5" stroke="#0f223b" stroke-width="1" opacity="1" fill="none" stroke-miterlimit="10" class="mark-rule role-axis-tick" role="graphics-symbol" aria-roledescription="axis" version="1.1" width="433" height="260" viewBox="0 0 433 260" aria-label="X-axis for a linear scale with values from 2,006 to 2,015" pointer-events="none"/>
<line transform="translate(-5.796875, 144.7004701468692) translate(52.0,34.0) translate(0.5,200.5) translate(83,0)" x2="0" y2="5" stroke="#0f223b" stroke-width="1" opacity="1" fill="none" stroke-miterlimit="10" class="mark-rule role-axis-tick" role="graphics-symbol" aria-roledescription="axis" version="1.1" width="433" height="260" viewBox="0 0 433 260" aria-label="X-axis for a linear scale with values from 2,006 to 2,015" pointer-events="none"/>
<line transform="translate(-5.796875, 144.7004701468692) translate(52.0,34.0) translate(0.5,200.5) translate(125,0)" x2="0" y2="5" stroke="#0f223b" stroke-width="1" opacity="1" fill="none" stroke-miterlimit="10" class="mark-rule role-axis-tick" role="graphics-symbol" aria-roledescription="axis" version="1.1" width="433" height="260" viewBox="0 0 433 260" aria-label="X-axis for a linear scale with values from 2,006 to 2,015" pointer-events="none"/>
<line transform="translate(-5.796875, 144.7004701468692) translate(52.0,34.0) translate(0.5,200.5) translate(167,0)" x2="0" y2="5" stroke="#0f223b" stroke-width="1" opacity="1" fill="none" stroke-miterlimit="10" class="mark-rule role-axis-tick" role="graphics-symbol" aria-roledescription="axis" version="1.1" width="433" height="260" viewBox="0 0 433 260" aria-label="X-axis for a linear scale with values from 2,006 to 2,015" pointer-events="none"/>
<line transform="translate(-5.796875, 144.7004701468692) translate(52.0,34.0) translate(0.5,200.5) translate(208,0)" x2="0" y2="5" stroke="#0f223b" stroke-width="1" opacity="1" fill="none" stroke-miterlimit="10" class="mark-rule role-axis-tick" role="graphics-symbol" aria-roledescription="axis" version="1.1" width="433" height="260" viewBox="0 0 433 260" aria-label="X-axis for a linear scale with values from 2,006 to 2,015" pointer-events="none"/>
<line transform="translate(-5.796875, 144.7004701468692) translate(52.0,34.0) translate(0.5,200.5) translate(250,0)" x2="0" y2="5" stroke="#0f223b" stroke-width="1" opacity="1" fill="none" stroke-miterlimit="10" class="mark-rule role-axis-tick" role="graphics-symbol" aria-roledescription="axis" version="1.1" width="433" height="260" viewBox="0 0 433 260" aria-label="X-axis for a linear scale with values from 2,006 to 2,015" pointer-events="none"/>
<line transform="translate(-5.796875, 144.7004701468692) translate(52.0,34.0) translate(0.5,200.5) translate(292,0)" x2="0" y2="5" stroke="#0f223b" stroke-width="1" opacity="1" fill="none" stroke-miterlimit="10" class="mark-rule role-axis-tick" role="graphics-symbol" aria-roledescription="axis" version="1.1" width="433" height="260" viewBox="0 0 433 260" aria-label="X-axis for a linear scale with values from 2,006 to 2,015" pointer-events="none"/>
<line transform="translate(-5.796875, 144.7004701468692) translate(52.0,34.0) translate(0.5,200.5) translate(333,0)" x2="0" y2="5" stroke="#0f223b" stroke-width="1" opacity="1" fill="none" stroke-miterlimit="10" class="mark-rule role-axis-tick" role="graphics-symbol" aria-roledescription="axis" version="1.1" width="433" height="260" viewBox="0 0 433 260" aria-label="X-axis for a linear scale with values from 2,006 to 2,015" pointer-events="none"/>
<line transform="translate(-5.796875, 144.7004701468692) translate(52.0,34.0) translate(0.5,200.5) translate(375,0)" x2="0" y2="5" stroke="#0f223b" stroke-width="1" opacity="1" fill="none" stroke-miterlimit="10" class="mark-rule role-axis-tick" role="graphics-symbol" aria-roledescription="axis" version="1.1" width="433" height="260" viewBox="0 0 433 260" aria-label="X-axis for a linear scale with values from 2,006 to 2,015" pointer-events="none"/>
<text text-anchor="start" transform="translate(-5.796875, 144.7004701468692) translate(52.0,34.0) translate(0.5,200.5) translate(0,19)" font-family="sans-serif" font-size="12px" fill="#000d2a" opacity="1" stroke-miterlimit="10" class="mark-text role-axis-label" role="graphics-symbol" aria-roledescription="axis" version="1.1" width="433" height="260" viewBox="0 0 433 260" aria-label="X-axis for a linear scale with values from 2,006 to 2,015" pointer-events="none" x="0.0" y="0.0">2,006
</text>
<text text-anchor="middle" transform="translate(-5.796875, 144.7004701468692) translate(52.0,34.0) translate(0.5,200.5) translate(41.666666666666664,19)" font-family="sans-serif" font-size="12px" fill="#000d2a" opacity="0" stroke-miterlimit="10" class="mark-text role-axis-label" role="graphics-symbol" aria-roledescription="axis" version="1.1" width="433" height="260" viewBox="0 0 433 260" aria-label="X-axis for a linear scale with values from 2,006 to 2,015" pointer-events="none" x="0.0" y="0.0">2,007
</text>
<text text-anchor="middle" transform="translate(-5.796875, 144.7004701468692) translate(52.0,34.0) translate(0.5,200.5) translate(83.33333333333333,19)" font-family="sans-serif" font-size="12px" fill="#000d2a" opacity="1" stroke-miterlimit="10" class="mark-text role-axis-label" role="graphics-symbol" aria-roledescription="axis" version="1.1" width="433" height="260" viewBox="0 0 433 260" aria-label="X-axis for a linear scale with values from 2,006 to 2,015" pointer-events="none" x="0.0" y="0.0">2,008
</text>
<text text-anchor="middle" transform="translate(-5.796875, 144.7004701468692) translate(52.0,34.0) translate(0.5,200.5) translate(125,19)" font-family="sans-serif" font-size="12px" fill="#000d2a" opacity="0" stroke-miterlimit="10" class="mark-text role-axis-label" role="graphics-symbol" aria-roledescription="axis" version="1.1" width="433" height="260" viewBox="0 0 433 260" aria-label="X-axis for a linear scale with values from 2,006 to 2,015" pointer-events="none" x="0.0" y="0.0">2,009
</text>
<text text-anchor="middle" transform="translate(-5.796875, 144.7004701468692) translate(52.0,34.0) translate(0.5,200.5) translate(166.66666666666666,19)" font-family="sans-serif" font-size="12px" fill="#000d2a" opacity="1" stroke-miterlimit="10" class="mark-text role-axis-label" role="graphics-symbol" aria-roledescription="axis" version="1.1" width="433" height="260" viewBox="0 0 433 260" aria-label="X-axis for a linear scale with values from 2,006 to 2,015" pointer-events="none" x="0.0" y="0.0">2,010
</text>
<text text-anchor="middle" transform="translate(-5.796875, 144.7004701468692) translate(52.0,34.0) translate(0.5,200.5) translate(208.33333333333334,19)" font-family="sans-serif" font-size="12px" fill="#000d2a" opacity="0" stroke-miterlimit="10" class="mark-text role-axis-label" role="graphics-symbol" aria-roledescription="axis" version="1.1" width="433" height="260" viewBox="0 0 433 260" aria-label="X-axis for a linear scale with values from 2,006 to 2,015" pointer-events="none" x="0.0" y="0.0">2,011
</text>
<text text-anchor="middle" transform="translate(-5.796875, 144.7004701468692) translate(52.0,34.0) translate(0.5,200.5) translate(250,19)" font-family="sans-serif" font-size="12px" fill="#000d2a" opacity="1" stroke-miterlimit="10" class="mark-text role-axis-label" role="graphics-symbol" aria-roledescription="axis" version="1.1" width="433" height="260" viewBox="0 0 433 260" aria-label="X-axis for a linear scale with values from 2,006 to 2,015" pointer-events="none" x="0.0" y="0.0">2,012
</text>
<text text-anchor="middle" transform="translate(-5.796875, 144.7004701468692) translate(52.0,34.0) translate(0.5,200.5) translate(291.6666666666667,19)" font-family="sans-serif" font-size="12px" fill="#000d2a" opacity="0" stroke-miterlimit="10" class="mark-text role-axis-label" role="graphics-symbol" aria-roledescription="axis" version="1.1" width="433" height="260" viewBox="0 0 433 260" aria-label="X-axis for a linear scale with values from 2,006 to 2,015" pointer-events="none" x="0.0" y="0.0">2,013
</text>
<text text-anchor="middle" transform="translate(-5.796875, 144.7004701468692) translate(52.0,34.0) translate(0.5,200.5) translate(333.3333333333333,19)" font-family="sans-serif" font-size="12px" fill="#000d2a" opacity="1" stroke-miterlimit="10" class="mark-text role-axis-label" role="graphics-symbol" aria-roledescription="axis" version="1.1" width="433" height="260" viewBox="0 0 433 260" aria-label="X-axis for a linear scale with values from 2,006 to 2,015" pointer-events="none" x="0.0" y="0.0">2,014
</text>
<text text-anchor="end" transform="translate(-5.796875, 144.7004701468692) translate(52.0,34.0) translate(0.5,200.5) translate(375,19)" font-family="sans-serif" font-size="12px" fill="#000d2a" opacity="0" stroke-miterlimit="10" class="mark-text role-axis-label" role="graphics-symbol" aria-roledescription="axis" version="1.1" width="433" height="260" viewBox="0 0 433 260" aria-label="X-axis for a linear scale with values from 2,006 to 2,015" pointer-events="none" x="0.0" y="0.0">2,015
</text>
<line transform="translate(-5.796875, 144.7004701468692) translate(52.0,34.0) translate(0.5,200.5) translate(0,0)" x2="375" y2="0" stroke="#0f223b" stroke-width="1" opacity="1" fill="none" stroke-miterlimit="10" class="mark-rule role-axis-domain" role="graphics-symbol" aria-roledescription="axis" version="1.1" width="433" height="260" viewBox="0 0 433 260" aria-label="X-axis for a linear scale with values from 2,006 to 2,015" pointer-events="none"/>
<line transform="translate(-5.796875, 144.7004701468692) translate(52.0,34.0) translate(0.5,0.5) translate(0,188)" x2="-5" y2="0" stroke="#0f223b" stroke-width="1" opacity="1" fill="none" stroke-miterlimit="10" class="mark-rule role-axis-tick" role="graphics-symbol" aria-roledescription="axis" version="1.1" width="433" height="260" viewBox="0 0 433 260" aria-label="Y-axis for a linear scale with values from −1,600 to 0" pointer-events="none"/>
<line transform="translate(-5.796875, 144.7004701468692) translate(52.0,34.0) translate(0.5,0.5) translate(0,125)" x2="-5" y2="0" stroke="#0f223b" stroke-width="1" opacity="1" fill="none" stroke-miterlimit="10" class="mark-rule role-axis-tick" role="graphics-symbol" aria-roledescription="axis" version="1.1" width="433" height="260" viewBox="0 0 433 260" aria-label="Y-axis for a linear scale with values from −1,600 to 0" pointer-events="none"/>
<line transform="translate(-5.796875, 144.7004701468692) translate(52.0,34.0) translate(0.5,0.5) translate(0,63)" x2="-5" y2="0" stroke="#0f223b" stroke-width="1" opacity="1" fill="none" stroke-miterlimit="10" class="mark-rule role-axis-tick" role="graphics-symbol" aria-roledescription="axis" version="1.1" width="433" height="260" viewBox="0 0 433 260" aria-label="Y-axis for a linear scale with values from −1,600 to 0" pointer-events="none"/>
<line transform="translate(-5.796875, 144.7004701468692) translate(52.0,34.0) translate(0.5,0.5) translate(0,0)" x2="-5" y2="0" stroke="#0f223b" stroke-width="1" opacity="1" fill="none" stroke-miterlimit="10" class="mark-rule role-axis-tick" role="graphics-symbol" aria-roledescription="axis" version="1.1" width="433" height="260" viewBox="0 0 433 260" aria-label="Y-axis for a linear scale with values from −1,600 to 0" pointer-events="none"/>
<text text-anchor="end" transform="translate(-5.796875, 144.7004701468692) translate(52.0,34.0) translate(0.5,0.5) translate(-10,191.5)" font-family="sans-serif" font-size="12px" fill="#000d2a" opacity="1" stroke-miterlimit="10" class="mark-text role-axis-label" role="graphics-symbol" aria-roledescription="axis" version="1.1" width="433" height="260" viewBox="0 0 433 260" aria-label="Y-axis for a linear scale with values from −1,600 to 0" pointer-events="none">−1,500
</text>
<text text-anchor="end" transform="translate(-5.796875, 144.7004701468692) translate(52.0,34.0) translate(0.5,0.5) translate(-10,129)" font-family="sans-serif" font-size="12px" fill="#000d2a" opacity="1" stroke-miterlimit="10" class="mark-text role-axis-label" role="graphics-symbol" aria-roledescription="axis" version="1.1" width="433" height="260" viewBox="0 0 433 260" aria-label="Y-axis for a linear scale with values from −1,600 to 0" pointer-events="none">−1,000
</text>
<text text-anchor="end" transform="translate(-5.796875, 144.7004701468692) translate(52.0,34.0) translate(0.5,0.5) translate(-10,66.5)" font-family="sans-serif" font-size="12px" fill="#000d2a" opacity="1" stroke-miterlimit="10" class="mark-text role-axis-label" role="graphics-symbol" aria-roledescription="axis" version="1.1" width="433" height="260" viewBox="0 0 433 260" aria-label="Y-axis for a linear scale with values from −1,600 to 0" pointer-events="none">−500
</text>
<text text-anchor="end" transform="translate(-5.796875, 144.7004701468692) translate(52.0,34.0) translate(0.5,0.5) translate(-10,4)" font-family="sans-serif" font-size="12px" fill="#000d2a" opacity="1" stroke-miterlimit="10" class="mark-text role-axis-label" role="graphics-symbol" aria-roledescription="axis" version="1.1" width="433" height="260" viewBox="0 0 433 260" aria-label="Y-axis for a linear scale with values from −1,600 to 0" pointer-events="none">0
</text>
<line transform="translate(-5.796875, 144.7004701468692) translate(52.0,34.0) translate(0.5,0.5) translate(0,200)" x2="0" y2="-200" stroke="#0f223b" stroke-width="1" opacity="1" fill="none" stroke-miterlimit="10" class="mark-rule role-axis-domain" role="graphics-symbol" aria-roledescription="axis" version="1.1" width="433" height="260" viewBox="0 0 433 260" aria-label="Y-axis for a linear scale with values from −1,600 to 0" pointer-events="none"/>
<path aria-label="xlabel: 2006; Diferena em R milhes: 0; group: value" role="graphics-symbol" aria-roledescription="area mark" d="M0,0L41.667,24.75L83.333,9.75L125,54.75L166.667,124.375L208.333,76.875L291.667,199.75L333.333,165.75L375,113.25L375,0L333.333,0L291.667,0L208.333,0L166.667,0L125,0L83.333,0L41.667,0L0,0Z" fill="#353545" opacity="0.7" stroke-miterlimit="10" class="mark-area role-mark marks" version="1.1" width="433" height="260" viewBox="0 0 433 260" transform="translate(-5.796875, 144.7004701468692) translate(52.0,34.0) translate(0,0)"/></g></svg>