<svg version="1.1" class="marks" width="375.0" height="376.0373034203275" viewBox="0 0 475.0 476.0373034203275" xmlns="http://www.w3.org/2000/svg" xmlns:xlink="http://www.w3.org/1999/xlink"><rect width="100%" height="100%" fill="#ffffff"/>
<g transform="translate(50.0, 74.9042445087157)"><text class="chart-title-line" x="0" y="0" text-anchor="start" font-family="sans-serif" font-size="24" font-weight="700" fill="#0f2740" letter-spacing="0" transform="scale(1.125615571015399)">Struggles Persist in Balance
</text>
<text class="chart-title-line" x="0" y="0" text-anchor="start" font-family="sans-serif" font-size="24" font-weight="700" fill="#0f2740" letter-spacing="0" transform="scale(1.125615571015399) translate(0.0, 27.1640625)">of Payments
</text>
<text class="chart-subtitle-line" x="0" y="0" text-anchor="start" font-family="sans-serif" font-size="13" font-weight="400" fill="#445f7c" letter-spacing="0.25" transform="scale(1.125615571015399) translate(0.0, 54.1875)">"Ongoing deficits highlight economic challenges"
</text>
<path transform="translate(-5.5, 74.28540266161181) translate(5.0,34.0) translate(0,-29) translate(0,0) translate(0,0) translate(6,6)" d="M5,0A5,5,0,1,1,-5,0A5,5,0,1,1,5,0" fill="#202024" stroke-width="1.5" opacity="0.7" class="mark-symbol role-legend-symbol" pointer-events="none" role="graphics-object" aria-roledescription="group mark container" aria-label="Symbol legend for fill color with 1 value: Balance of payments" stroke-miterlimit="10" version="1.1" width="385" height="278" viewBox="0 0 385 278"/>
<text text-anchor="start" transform="translate(-5.5, 74.28540266161181) translate(5.0,34.0) translate(0,-29) translate(0,0) translate(0,0) translate(16,9)" font-family="sans-serif" font-size="10px" fill="#000" opacity="1" class="mark-text role-legend-label" pointer-events="none" role="graphics-object" aria-roledescription="group mark container" aria-label="Symbol legend for fill color with 1 value: Balance of payments" stroke-miterlimit="10" version="1.1" width="385" height="278" viewBox="0 0 385 278">Balance of payments
</text>
<text text-anchor="end" transform="translate(-5.5, 74.28540266161181) translate(5.0,34.0) translate(0.5,200.5) translate(14.423076923076906,5) rotate(270) translate(0,4)" font-family="sans-serif" font-size="12px" fill="#000d2a" opacity="1" stroke-miterlimit="10" class="mark-text role-axis-label" role="graphics-symbol" aria-roledescription="axis" version="1.1" width="385" height="278" viewBox="0 0 385 278" aria-label="X-axis for a discrete scale with 13 values: FY10, FY11, FY12, FY13, FY14, ending with FY22" pointer-events="none" x="0.0" y="0.0">FY10
</text>
<text text-anchor="end" transform="translate(-5.5, 74.28540266161181) translate(5.0,34.0) translate(0.5,200.5) translate(43.26923076923075,5) rotate(270) translate(0,4)" font-family="sans-serif" font-size="12px" fill="#000d2a" opacity="1" stroke-miterlimit="10" class="mark-text role-axis-label" role="graphics-symbol" aria-roledescription="axis" version="1.1" width="385" height="278" viewBox="0 0 385 278" aria-label="X-axis for a discrete scale with 13 values: FY10, FY11, FY12, FY13, FY14, ending with FY22" pointer-events="none" x="0.0" y="0.0">FY11
</text>
<text text-anchor="end" transform="translate(-5.5, 74.28540266161181) translate(5.0,34.0) translate(0.5,200.5) translate(72.1153846153846,5) rotate(270) translate(0,4)" font-family="sans-serif" font-size="12px" fill="#000d2a" opacity="1" stroke-miterlimit="10" class="mark-text role-axis-label" role="graphics-symbol" aria-roledescription="axis" version="1.1" width="385" height="278" viewBox="0 0 385 278" aria-label="X-axis for a discrete scale with 13 values: FY10, FY11, FY12, FY13, FY14, ending with FY22" pointer-events="none" x="0.0" y="0.0">FY12
</text>
<text text-anchor="end" transform="translate(-5.5, 74.28540266161181) translate(5.0,34.0) translate(0.5,200.5) translate(100.96153846153845,5) rotate(270) translate(0,4)" font-family="sans-serif" font-size="12px" fill="#000d2a" opacity="1" stroke-miterlimit="10" class="mark-text role-axis-label" role="graphics-symbol" aria-roledescription="axis" version="1.1" width="385" height="278" viewBox="0 0 385 278" aria-label="X-axis for a discrete scale with 13 values: FY10, FY11, FY12, FY13, FY14, ending with FY22" pointer-events="none" x="0.0" y="0.0">FY13
</text>
<text text-anchor="end" transform="translate(-5.5, 74.28540266161181) translate(5.0,34.0) translate(0.5,200.5) translate(129.8076923076923,5) rotate(270) translate(0,4)" font-family="sans-serif" font-size="12px" fill="#000d2a" opacity="1" stroke-miterlimit="10" class="mark-text role-axis-label" role="graphics-symbol" aria-roledescription="axis" version="1.1" width="385" height="278" viewBox="0 0 385 278" aria-label="X-axis for a discrete scale with 13 values: FY10, FY11, FY12, FY13, FY14, ending with FY22" pointer-events="none" x="0.0" y="0.0">FY14
</text>
<text text-anchor="end" transform="translate(-5.5, 74.28540266161181) translate(5.0,34.0) translate(0.5,200.5) translate(158.65384615384613,5) rotate(270) translate(0,4)" font-family="sans-serif" font-size="12px" fill="#000d2a" opacity="1" stroke-miterlimit="10" class="mark-text role-axis-label" role="graphics-symbol" aria-roledescription="axis" version="1.1" width="385" height="278" viewBox="0 0 385 278" aria-label="X-axis for a discrete scale with 13 values: FY10, FY11, FY12, FY13, FY14, ending with FY22" pointer-events="none" x="0.0" y="0.0">FY15
</text>
<text text-anchor="end" transform="translate(-5.5, 74.28540266161181) translate(5.0,34.0) translate(0.5,200.5) translate(187.5,5) rotate(270) translate(0,4)" font-family="sans-serif" font-size="12px" fill="#000d2a" opacity="1" stroke-miterlimit="10" class="mark-text role-axis-label" role="graphics-symbol" aria-roledescription="axis" version="1.1" width="385" height="278" viewBox="0 0 385 278" aria-label="X-axis for a discrete scale with 13 values: FY10, FY11, FY12, FY13, FY14, ending with FY22" pointer-events="none" x="0.0" y="0.0">FY16
</text>
<text text-anchor="end" transform="translate(-5.5, 74.28540266161181) translate(5.0,34.0) translate(0.5,200.5) translate(216.34615384615384,5) rotate(270) translate(0,4)" font-family="sans-serif" font-size="12px" fill="#000d2a" opacity="1" stroke-miterlimit="10" class="mark-text role-axis-label" role="graphics-symbol" aria-roledescription="axis" version="1.1" width="385" height="278" viewBox="0 0 385 278" aria-label="X-axis for a discrete scale with 13 values: FY10, FY11, FY12, FY13, FY14, ending with FY22" pointer-events="none" x="0.0" y="0.0">FY17
</text>
<text text-anchor="end" transform="translate(-5.5, 74.28540266161181) translate(5.0,34.0) translate(0.5,200.5) translate(245.19230769230768,5) rotate(270) translate(0,4)" font-family="sans-serif" font-size="12px" fill="#000d2a" opacity="1" stroke-miterlimit="10" class="mark-text role-axis-label" role="graphics-symbol" aria-roledescription="axis" version="1.1" width="385" height="278" viewBox="0 0 385 278" aria-label="X-axis for a discrete scale with 13 values: FY10, FY11, FY12, FY13, FY14, ending with FY22" pointer-events="none" x="0.0" y="0.0">FY18
</text>
<text text-anchor="end" transform="translate(-5.5, 74.28540266161181) translate(5.0,34.0) translate(0.5,200.5) translate(274.03846153846155,5) rotate(270) translate(0,4)" font-family="sans-serif" font-size="12px" fill="#000d2a" opacity="1" stroke-miterlimit="10" class="mark-text role-axis-label" role="graphics-symbol" aria-roledescription="axis" version="1.1" width="385" height="278" viewBox="0 0 385 278" aria-label="X-axis for a discrete scale with 13 values: FY10, FY11, FY12, FY13, FY14, ending with FY22" pointer-events="none" x="0.0" y="0.0">FY19
</text>
<text text-anchor="end" transform="translate(-5.5, 74.28540266161181) translate(5.0,34.0) translate(0.5,200.5) translate(302.88461538461536,5) rotate(270) translate(0,4)" font-family="sans-serif" font-size="12px" fill="#000d2a" opacity="1" stroke-miterlimit="10" class="mark-text role-axis-label" role="graphics-symbol" aria-roledescription="axis" version="1.1" width="385" height="278" viewBox="0 0 385 278" aria-label="X-axis for a discrete scale with 13 values: FY10, FY11, FY12, FY13, FY14, ending with FY22" pointer-events="none" x="0.0" y="0.0">FY20R
</text>
<text text-anchor="end" transform="translate(-5.5, 74.28540266161181) translate(5.0,34.0) translate(0.5,200.5) translate(331.7307692307692,5) rotate(270) translate(0,4)" font-family="sans-serif" font-size="12px" fill="#000d2a" opacity="1" stroke-miterlimit="10" class="mark-text role-axis-label" role="graphics-symbol" aria-roledescription="axis" version="1.1" width="385" height="278" viewBox="0 0 385 278" aria-label="X-axis for a discrete scale with 13 values: FY10, FY11, FY12, FY13, FY14, ending with FY22" pointer-events="none" x="0.0" y="0.0">FY21P
</text>
<text text-anchor="end" transform="translate(-5.5, 74.28540266161181) translate(5.0,34.0) translate(0.5,200.5) translate(360.5769230769231,5) rotate(270) translate(0,4)" font-family="sans-serif" font-size="12px" fill="#000d2a" opacity="1" stroke-miterlimit="10" class="mark-text role-axis-label" role="graphics-symbol" aria-roledescription="axis" version="1.1" width="385" height="278" viewBox="0 0 385 278" aria-label="X-axis for a discrete scale with 13 values: FY10, FY11, FY12, FY13, FY14, ending with FY22" pointer-events="none" x="0.0" y="0.0">FY22
</text>
<line transform="translate(-5.5, 74.28540266161181) translate(5.0,34.0) translate(0.5,200.5) translate(0,0)" x2="375" y2="0" stroke="#0f223b" stroke-width="1" opacity="1" fill="none" stroke-miterlimit="10" class="mark-rule role-axis-domain" role="graphics-symbol" aria-roledescription="axis" version="1.1" width="385" height="278" viewBox="0 0 385 278" aria-label="X-axis for a discrete scale with 13 values: FY10, FY11, FY12, FY13, FY14, ending with FY22" pointer-events="none"/>
<path aria-label="xlabel: FY10; ylabel: −5.16; group: Balance of payments" role="graphics-symbol" aria-roledescription="area mark" d="M14.423,29.486L43.269,56.8L72.115,53.257L100.962,40.057L129.808,38.8L158.654,39.829L187.5,36.914L216.346,54.114L245.192,103.886L274.038,90.514L302.885,106.114L331.731,135.886L360.577,196.114L360.577,0L331.731,0L302.885,0L274.038,0L245.192,0L216.346,0L187.5,0L158.654,0L129.808,0L100.962,0L72.115,0L43.269,0L14.423,0Z" fill="#202024" opacity="0.7" stroke-miterlimit="10" class="mark-area role-mark marks" version="1.1" width="385" height="278" viewBox="0 0 385 278" transform="translate(-5.5, 74.28540266161181) translate(5.0,34.0) translate(0,0)"/></g></svg>