<svg version="1.1" class="marks" width="375.5" height="340.49574256780255" viewBox="0 0 475.5 440.49574256780255" xmlns="http://www.w3.org/2000/svg" xmlns:xlink="http://www.w3.org/1999/xlink"><rect width="100%" height="100%" fill="#ffffff"/>
<g transform="translate(50.0, 72.18531293463144)"><text class="chart-title-line" x="0" y="0" text-anchor="start" font-family="sans-serif" font-size="24" font-weight="700" fill="#0f2740" letter-spacing="0" transform="scale(1.0027260083449236)">Growing Interest in Excavations
</text>
<text class="chart-title-line" x="0" y="0" text-anchor="start" font-family="sans-serif" font-size="24" font-weight="700" fill="#0f2740" letter-spacing="0" transform="scale(1.0027260083449236) translate(0.0, 27.1640625)">Observed Over the Years
</text>
<text class="chart-subtitle-line" x="0" y="0" text-anchor="start" font-family="sans-serif" font-size="13" font-weight="400" fill="#445f7c" letter-spacing="0.25" transform="scale(1.0027260083449236) translate(0.0, 54.1875)">"Annual excavation activity shows notable fluctuations."
</text>
<path transform="translate(-5.0, 67.29089838317108) translate(5.0,34.0) translate(0,-29) translate(0,0) translate(0,0) translate(6,6)" d="M5,0A5,5,0,1,1,-5,0A5,5,0,1,1,5,0" fill="#32406b" stroke-width="1.5" opacity="0.7" class="mark-symbol role-legend-symbol" pointer-events="none" role="graphics-object" aria-roledescription="group mark container" aria-label="Symbol legend for fill color with 1 value: EXCAVATIONS in thousands" stroke-miterlimit="10" version="1.1" width="385" height="255" viewBox="0 0 385 255"/>
<text text-anchor="start" transform="translate(-5.0, 67.29089838317108) translate(5.0,34.0) translate(0,-29) translate(0,0) translate(0,0) translate(16,9)" font-family="sans-serif" font-size="10px" fill="#000" opacity="1" class="mark-text role-legend-label" pointer-events="none" role="graphics-object" aria-roledescription="group mark container" aria-label="Symbol legend for fill color with 1 value: EXCAVATIONS in thousands" stroke-miterlimit="10" version="1.1" width="385" height="255" viewBox="0 0 385 255">EXCAVATIONS in thousands
</text>
<text text-anchor="start" transform="translate(-5.0, 67.29089838317108) translate(5.0,34.0) translate(0.5,200.5) translate(0,14)" font-family="sans-serif" font-size="12px" fill="#000d2a" opacity="1" stroke-miterlimit="10" class="mark-text role-axis-label" role="graphics-symbol" aria-roledescription="axis" version="1.1" width="385" height="255" viewBox="0 0 385 255" aria-label="X-axis for a linear scale with values from 2,006 to 2,016" pointer-events="none" x="0.0" y="0.0">2,006
</text>
<text text-anchor="middle" transform="translate(-5.0, 67.29089838317108) translate(5.0,34.0) translate(0.5,200.5) translate(37.5,14)" font-family="sans-serif" font-size="12px" fill="#000d2a" opacity="0" stroke-miterlimit="10" class="mark-text role-axis-label" role="graphics-symbol" aria-roledescription="axis" version="1.1" width="385" height="255" viewBox="0 0 385 255" aria-label="X-axis for a linear scale with values from 2,006 to 2,016" pointer-events="none" x="0.0" y="0.0">2,007
</text>
<text text-anchor="middle" transform="translate(-5.0, 67.29089838317108) translate(5.0,34.0) translate(0.5,200.5) translate(75,14)" font-family="sans-serif" font-size="12px" fill="#000d2a" opacity="1" stroke-miterlimit="10" class="mark-text role-axis-label" role="graphics-symbol" aria-roledescription="axis" version="1.1" width="385" height="255" viewBox="0 0 385 255" aria-label="X-axis for a linear scale with values from 2,006 to 2,016" pointer-events="none" x="0.0" y="0.0">2,008
</text>
<text text-anchor="middle" transform="translate(-5.0, 67.29089838317108) translate(5.0,34.0) translate(0.5,200.5) translate(112.5,14)" font-family="sans-serif" font-size="12px" fill="#000d2a" opacity="0" stroke-miterlimit="10" class="mark-text role-axis-label" role="graphics-symbol" aria-roledescription="axis" version="1.1" width="385" height="255" viewBox="0 0 385 255" aria-label="X-axis for a linear scale with values from 2,006 to 2,016" pointer-events="none" x="0.0" y="0.0">2,009
</text>
<text text-anchor="middle" transform="translate(-5.0, 67.29089838317108) translate(5.0,34.0) translate(0.5,200.5) translate(150,14)" font-family="sans-serif" font-size="12px" fill="#000d2a" opacity="1" stroke-miterlimit="10" class="mark-text role-axis-label" role="graphics-symbol" aria-roledescription="axis" version="1.1" width="385" height="255" viewBox="0 0 385 255" aria-label="X-axis for a linear scale with values from 2,006 to 2,016" pointer-events="none" x="0.0" y="0.0">2,010
</text>
<text text-anchor="middle" transform="translate(-5.0, 67.29089838317108) translate(5.0,34.0) translate(0.5,200.5) translate(187.5,14)" font-family="sans-serif" font-size="12px" fill="#000d2a" opacity="0" stroke-miterlimit="10" class="mark-text role-axis-label" role="graphics-symbol" aria-roledescription="axis" version="1.1" width="385" height="255" viewBox="0 0 385 255" aria-label="X-axis for a linear scale with values from 2,006 to 2,016" pointer-events="none" x="0.0" y="0.0">2,011
</text>
<text text-anchor="middle" transform="translate(-5.0, 67.29089838317108) translate(5.0,34.0) translate(0.5,200.5) translate(225,14)" font-family="sans-serif" font-size="12px" fill="#000d2a" opacity="1" stroke-miterlimit="10" class="mark-text role-axis-label" role="graphics-symbol" aria-roledescription="axis" version="1.1" width="385" height="255" viewBox="0 0 385 255" aria-label="X-axis for a linear scale with values from 2,006 to 2,016" pointer-events="none" x="0.0" y="0.0">2,012
</text>
<text text-anchor="middle" transform="translate(-5.0, 67.29089838317108) translate(5.0,34.0) translate(0.5,200.5) translate(262.5,14)" font-family="sans-serif" font-size="12px" fill="#000d2a" opacity="0" stroke-miterlimit="10" class="mark-text role-axis-label" role="graphics-symbol" aria-roledescription="axis" version="1.1" width="385" height="255" viewBox="0 0 385 255" aria-label="X-axis for a linear scale with values from 2,006 to 2,016" pointer-events="none" x="0.0" y="0.0">2,013
</text>
<text text-anchor="middle" transform="translate(-5.0, 67.29089838317108) translate(5.0,34.0) translate(0.5,200.5) translate(300,14)" font-family="sans-serif" font-size="12px" fill="#000d2a" opacity="1" stroke-miterlimit="10" class="mark-text role-axis-label" role="graphics-symbol" aria-roledescription="axis" version="1.1" width="385" height="255" viewBox="0 0 385 255" aria-label="X-axis for a linear scale with values from 2,006 to 2,016" pointer-events="none" x="0.0" y="0.0">2,014
</text>
<text text-anchor="middle" transform="translate(-5.0, 67.29089838317108) translate(5.0,34.0) translate(0.5,200.5) translate(337.5,14)" font-family="sans-serif" font-size="12px" fill="#000d2a" opacity="0" stroke-miterlimit="10" class="mark-text role-axis-label" role="graphics-symbol" aria-roledescription="axis" version="1.1" width="385" height="255" viewBox="0 0 385 255" aria-label="X-axis for a linear scale with values from 2,006 to 2,016" pointer-events="none" x="0.0" y="0.0">2,015
</text>
<text text-anchor="end" transform="translate(-5.0, 67.29089838317108) translate(5.0,34.0) translate(0.5,200.5) translate(375,14)" font-family="sans-serif" font-size="12px" fill="#000d2a" opacity="1" stroke-miterlimit="10" class="mark-text role-axis-label" role="graphics-symbol" aria-roledescription="axis" version="1.1" width="385" height="255" viewBox="0 0 385 255" aria-label="X-axis for a linear scale with values from 2,006 to 2,016" pointer-events="none" x="0.0" y="0.0">2,016
</text>
<line transform="translate(-5.0, 67.29089838317108) translate(5.0,34.0) translate(0.5,200.5) translate(0,0)" x2="375" y2="0" stroke="#0f223b" stroke-width="1" opacity="1" fill="none" stroke-miterlimit="10" class="mark-rule role-axis-domain" role="graphics-symbol" aria-roledescription="axis" version="1.1" width="385" height="255" viewBox="0 0 385 255" aria-label="X-axis for a linear scale with values from 2,006 to 2,016" pointer-events="none"/>
<path aria-label="xlabel: 2006; EXCAVATIONS in thousands: 1.7; group: EXCAVATIONS in thousands" role="graphics-symbol" aria-roledescription="area mark" d="M0,102.857L37.5,68.571L75,17.143L112.5,40L150,80L187.5,102.857L225,108.571L262.5,114.286L300,131.429L337.5,125.714L375,120L375,200L337.5,200L300,200L262.5,200L225,200L187.5,200L150,200L112.5,200L75,200L37.5,200L0,200Z" fill="#32406b" opacity="0.7" stroke-miterlimit="10" class="mark-area role-mark marks" version="1.1" width="385" height="255" viewBox="0 0 385 255" transform="translate(-5.0, 67.29089838317108) translate(5.0,34.0) translate(0,0)"/></g></svg>