<svg version="1.1" class="marks" width="398.84765625" height="371.40564001305404" viewBox="0 0 498.84765625 471.40564001305404" xmlns="http://www.w3.org/2000/svg" xmlns:xlink="http://www.w3.org/1999/xlink"><rect width="100%" height="100%" fill="#ffffff"/>
<g transform="translate(50.0, 51.31459198453818)"><rect x="0" y="0" width="15" height="150" fill="#544258" transform="scale(1.1217150529484339) scale(0.6094130859375)"/>
<text class="chart-title-line" x="0" y="0" text-anchor="start" font-family="sans-serif" font-size="24" font-weight="700" fill="#0f2740" letter-spacing="0" transform="scale(1.1217150529484339) translate(19.1411962890625, 20.953051757812496)">Tracking Food Insecurity
</text>
<text class="chart-title-line" x="0" y="0" text-anchor="start" font-family="sans-serif" font-size="24" font-weight="700" fill="#0f2740" letter-spacing="0" transform="scale(1.1217150529484339) translate(19.1411962890625, 20.953051757812496) translate(0.0, 27.1640625)">Among Households Over Time
</text>
<text class="chart-subtitle-line" x="0" y="0" text-anchor="start" font-family="sans-serif" font-size="13" font-weight="400" fill="#445f7c" letter-spacing="0.25" transform="scale(1.1217150529484339) translate(19.1411962890625, 20.953051757812496) translate(0.0, 54.1875)">"Exploring the fluctuations in household food security
</text>
<text class="chart-subtitle-line" x="0" y="0" text-anchor="start" font-family="sans-serif" font-size="13" font-weight="400" fill="#445f7c" letter-spacing="0.25" transform="scale(1.1217150529484339) translate(19.1411962890625, 20.953051757812496) translate(0.0, 54.1875) translate(0.0, 14.7138671875)">from 1998 to 2010."
</text>
<line transform="translate(-6.15234375, 114.07151677851586) translate(29.0,34.0) translate(0.5,200.5) translate(0,-200)" x2="0" y2="200" stroke="#ddd" stroke-width="1" opacity="1" class="mark-rule role-axis-grid" pointer-events="none" aria-hidden="true" fill="none" stroke-miterlimit="10" role="graphics-object" aria-roledescription="group mark container" version="1.1" width="410" height="260" viewBox="0 0 410 260"/>
<line transform="translate(-6.15234375, 114.07151677851586) translate(29.0,34.0) translate(0.5,200.5) translate(31,-200)" x2="0" y2="200" stroke="#ddd" stroke-width="1" opacity="1" class="mark-rule role-axis-grid" pointer-events="none" aria-hidden="true" fill="none" stroke-miterlimit="10" role="graphics-object" aria-roledescription="group mark container" version="1.1" width="410" height="260" viewBox="0 0 410 260"/>
<line transform="translate(-6.15234375, 114.07151677851586) translate(29.0,34.0) translate(0.5,200.5) translate(63,-200)" x2="0" y2="200" stroke="#ddd" stroke-width="1" opacity="1" class="mark-rule role-axis-grid" pointer-events="none" aria-hidden="true" fill="none" stroke-miterlimit="10" role="graphics-object" aria-roledescription="group mark container" version="1.1" width="410" height="260" viewBox="0 0 410 260"/>
<line transform="translate(-6.15234375, 114.07151677851586) translate(29.0,34.0) translate(0.5,200.5) translate(94,-200)" x2="0" y2="200" stroke="#ddd" stroke-width="1" opacity="1" class="mark-rule role-axis-grid" pointer-events="none" aria-hidden="true" fill="none" stroke-miterlimit="10" role="graphics-object" aria-roledescription="group mark container" version="1.1" width="410" height="260" viewBox="0 0 410 260"/>
<line transform="translate(-6.15234375, 114.07151677851586) translate(29.0,34.0) translate(0.5,200.5) translate(125,-200)" x2="0" y2="200" stroke="#ddd" stroke-width="1" opacity="1" class="mark-rule role-axis-grid" pointer-events="none" aria-hidden="true" fill="none" stroke-miterlimit="10" role="graphics-object" aria-roledescription="group mark container" version="1.1" width="410" height="260" viewBox="0 0 410 260"/>
<line transform="translate(-6.15234375, 114.07151677851586) translate(29.0,34.0) translate(0.5,200.5) translate(156,-200)" x2="0" y2="200" stroke="#ddd" stroke-width="1" opacity="1" class="mark-rule role-axis-grid" pointer-events="none" aria-hidden="true" fill="none" stroke-miterlimit="10" role="graphics-object" aria-roledescription="group mark container" version="1.1" width="410" height="260" viewBox="0 0 410 260"/>
<line transform="translate(-6.15234375, 114.07151677851586) translate(29.0,34.0) translate(0.5,200.5) translate(188,-200)" x2="0" y2="200" stroke="#ddd" stroke-width="1" opacity="1" class="mark-rule role-axis-grid" pointer-events="none" aria-hidden="true" fill="none" stroke-miterlimit="10" role="graphics-object" aria-roledescription="group mark container" version="1.1" width="410" height="260" viewBox="0 0 410 260"/>
<line transform="translate(-6.15234375, 114.07151677851586) translate(29.0,34.0) translate(0.5,200.5) translate(219,-200)" x2="0" y2="200" stroke="#ddd" stroke-width="1" opacity="1" class="mark-rule role-axis-grid" pointer-events="none" aria-hidden="true" fill="none" stroke-miterlimit="10" role="graphics-object" aria-roledescription="group mark container" version="1.1" width="410" height="260" viewBox="0 0 410 260"/>
<line transform="translate(-6.15234375, 114.07151677851586) translate(29.0,34.0) translate(0.5,200.5) translate(250,-200)" x2="0" y2="200" stroke="#ddd" stroke-width="1" opacity="1" class="mark-rule role-axis-grid" pointer-events="none" aria-hidden="true" fill="none" stroke-miterlimit="10" role="graphics-object" aria-roledescription="group mark container" version="1.1" width="410" height="260" viewBox="0 0 410 260"/>
<line transform="translate(-6.15234375, 114.07151677851586) translate(29.0,34.0) translate(0.5,200.5) translate(281,-200)" x2="0" y2="200" stroke="#ddd" stroke-width="1" opacity="1" class="mark-rule role-axis-grid" pointer-events="none" aria-hidden="true" fill="none" stroke-miterlimit="10" role="graphics-object" aria-roledescription="group mark container" version="1.1" width="410" height="260" viewBox="0 0 410 260"/>
<line transform="translate(-6.15234375, 114.07151677851586) translate(29.0,34.0) translate(0.5,200.5) translate(313,-200)" x2="0" y2="200" stroke="#ddd" stroke-width="1" opacity="1" class="mark-rule role-axis-grid" pointer-events="none" aria-hidden="true" fill="none" stroke-miterlimit="10" role="graphics-object" aria-roledescription="group mark container" version="1.1" width="410" height="260" viewBox="0 0 410 260"/>
<line transform="translate(-6.15234375, 114.07151677851586) translate(29.0,34.0) translate(0.5,200.5) translate(344,-200)" x2="0" y2="200" stroke="#ddd" stroke-width="1" opacity="1" class="mark-rule role-axis-grid" pointer-events="none" aria-hidden="true" fill="none" stroke-miterlimit="10" role="graphics-object" aria-roledescription="group mark container" version="1.1" width="410" height="260" viewBox="0 0 410 260"/>
<line transform="translate(-6.15234375, 114.07151677851586) translate(29.0,34.0) translate(0.5,200.5) translate(375,-200)" x2="0" y2="200" stroke="#ddd" stroke-width="1" opacity="1" class="mark-rule role-axis-grid" pointer-events="none" aria-hidden="true" fill="none" stroke-miterlimit="10" role="graphics-object" aria-roledescription="group mark container" version="1.1" width="410" height="260" viewBox="0 0 410 260"/>
<line transform="translate(-6.15234375, 114.07151677851586) translate(29.0,34.0) translate(0.5,0.5) translate(0,200)" x2="375" y2="0" stroke="#ddd" stroke-width="1" opacity="1" class="mark-rule role-axis-grid" pointer-events="none" aria-hidden="true" fill="none" stroke-miterlimit="10" role="graphics-object" aria-roledescription="group mark container" version="1.1" width="410" height="260" viewBox="0 0 410 260"/>
<line transform="translate(-6.15234375, 114.07151677851586) translate(29.0,34.0) translate(0.5,0.5) translate(0,138)" x2="375" y2="0" stroke="#ddd" stroke-width="1" opacity="1" class="mark-rule role-axis-grid" pointer-events="none" aria-hidden="true" fill="none" stroke-miterlimit="10" role="graphics-object" aria-roledescription="group mark container" version="1.1" width="410" height="260" viewBox="0 0 410 260"/>
<line transform="translate(-6.15234375, 114.07151677851586) translate(29.0,34.0) translate(0.5,0.5) translate(0,75)" x2="375" y2="0" stroke="#ddd" stroke-width="1" opacity="1" class="mark-rule role-axis-grid" pointer-events="none" aria-hidden="true" fill="none" stroke-miterlimit="10" role="graphics-object" aria-roledescription="group mark container" version="1.1" width="410" height="260" viewBox="0 0 410 260"/>
<line transform="translate(-6.15234375, 114.07151677851586) translate(29.0,34.0) translate(0.5,0.5) translate(0,13)" x2="375" y2="0" stroke="#ddd" stroke-width="1" opacity="1" class="mark-rule role-axis-grid" pointer-events="none" aria-hidden="true" fill="none" stroke-miterlimit="10" role="graphics-object" aria-roledescription="group mark container" version="1.1" width="410" height="260" viewBox="0 0 410 260"/>
<path transform="translate(-6.15234375, 114.07151677851586) translate(29.0,34.0) translate(0,-29) translate(0,0) translate(0,0) translate(6,6)" d="M5,0A5,5,0,1,1,-5,0A5,5,0,1,1,5,0" fill="#544258" stroke-width="1.5" opacity="0.7" class="mark-symbol role-legend-symbol" pointer-events="none" role="graphics-object" aria-roledescription="group mark container" aria-label="Symbol legend for fill color with 1 value: Precent" stroke-miterlimit="10" version="1.1" width="410" height="260" viewBox="0 0 410 260"/>
<text text-anchor="start" transform="translate(-6.15234375, 114.07151677851586) translate(29.0,34.0) translate(0,-29) translate(0,0) translate(0,0) translate(16,9)" font-family="sans-serif" font-size="10px" fill="#000" opacity="1" class="mark-text role-legend-label" pointer-events="none" role="graphics-object" aria-roledescription="group mark container" aria-label="Symbol legend for fill color with 1 value: Precent" stroke-miterlimit="10" version="1.1" width="410" height="260" viewBox="0 0 410 260">Precent
</text>
<line transform="translate(-6.15234375, 114.07151677851586) translate(29.0,34.0) translate(0.5,200.5) translate(0,0)" x2="0" y2="5" stroke="#0f223b" stroke-width="1" opacity="1" fill="none" stroke-miterlimit="10" class="mark-rule role-axis-tick" role="graphics-symbol" aria-roledescription="axis" version="1.1" width="410" height="260" viewBox="0 0 410 260" aria-label="X-axis for a linear scale with values from 1,998 to 2,010" pointer-events="none"/>
<line transform="translate(-6.15234375, 114.07151677851586) translate(29.0,34.0) translate(0.5,200.5) translate(31,0)" x2="0" y2="5" stroke="#0f223b" stroke-width="1" opacity="1" fill="none" stroke-miterlimit="10" class="mark-rule role-axis-tick" role="graphics-symbol" aria-roledescription="axis" version="1.1" width="410" height="260" viewBox="0 0 410 260" aria-label="X-axis for a linear scale with values from 1,998 to 2,010" pointer-events="none"/>
<line transform="translate(-6.15234375, 114.07151677851586) translate(29.0,34.0) translate(0.5,200.5) translate(63,0)" x2="0" y2="5" stroke="#0f223b" stroke-width="1" opacity="1" fill="none" stroke-miterlimit="10" class="mark-rule role-axis-tick" role="graphics-symbol" aria-roledescription="axis" version="1.1" width="410" height="260" viewBox="0 0 410 260" aria-label="X-axis for a linear scale with values from 1,998 to 2,010" pointer-events="none"/>
<line transform="translate(-6.15234375, 114.07151677851586) translate(29.0,34.0) translate(0.5,200.5) translate(94,0)" x2="0" y2="5" stroke="#0f223b" stroke-width="1" opacity="1" fill="none" stroke-miterlimit="10" class="mark-rule role-axis-tick" role="graphics-symbol" aria-roledescription="axis" version="1.1" width="410" height="260" viewBox="0 0 410 260" aria-label="X-axis for a linear scale with values from 1,998 to 2,010" pointer-events="none"/>
<line transform="translate(-6.15234375, 114.07151677851586) translate(29.0,34.0) translate(0.5,200.5) translate(125,0)" x2="0" y2="5" stroke="#0f223b" stroke-width="1" opacity="1" fill="none" stroke-miterlimit="10" class="mark-rule role-axis-tick" role="graphics-symbol" aria-roledescription="axis" version="1.1" width="410" height="260" viewBox="0 0 410 260" aria-label="X-axis for a linear scale with values from 1,998 to 2,010" pointer-events="none"/>
<line transform="translate(-6.15234375, 114.07151677851586) translate(29.0,34.0) translate(0.5,200.5) translate(156,0)" x2="0" y2="5" stroke="#0f223b" stroke-width="1" opacity="1" fill="none" stroke-miterlimit="10" class="mark-rule role-axis-tick" role="graphics-symbol" aria-roledescription="axis" version="1.1" width="410" height="260" viewBox="0 0 410 260" aria-label="X-axis for a linear scale with values from 1,998 to 2,010" pointer-events="none"/>
<line transform="translate(-6.15234375, 114.07151677851586) translate(29.0,34.0) translate(0.5,200.5) translate(188,0)" x2="0" y2="5" stroke="#0f223b" stroke-width="1" opacity="1" fill="none" stroke-miterlimit="10" class="mark-rule role-axis-tick" role="graphics-symbol" aria-roledescription="axis" version="1.1" width="410" height="260" viewBox="0 0 410 260" aria-label="X-axis for a linear scale with values from 1,998 to 2,010" pointer-events="none"/>
<line transform="translate(-6.15234375, 114.07151677851586) translate(29.0,34.0) translate(0.5,200.5) translate(219,0)" x2="0" y2="5" stroke="#0f223b" stroke-width="1" opacity="1" fill="none" stroke-miterlimit="10" class="mark-rule role-axis-tick" role="graphics-symbol" aria-roledescription="axis" version="1.1" width="410" height="260" viewBox="0 0 410 260" aria-label="X-axis for a linear scale with values from 1,998 to 2,010" pointer-events="none"/>
<line transform="translate(-6.15234375, 114.07151677851586) translate(29.0,34.0) translate(0.5,200.5) translate(250,0)" x2="0" y2="5" stroke="#0f223b" stroke-width="1" opacity="1" fill="none" stroke-miterlimit="10" class="mark-rule role-axis-tick" role="graphics-symbol" aria-roledescription="axis" version="1.1" width="410" height="260" viewBox="0 0 410 260" aria-label="X-axis for a linear scale with values from 1,998 to 2,010" pointer-events="none"/>
<line transform="translate(-6.15234375, 114.07151677851586) translate(29.0,34.0) translate(0.5,200.5) translate(281,0)" x2="0" y2="5" stroke="#0f223b" stroke-width="1" opacity="1" fill="none" stroke-miterlimit="10" class="mark-rule role-axis-tick" role="graphics-symbol" aria-roledescription="axis" version="1.1" width="410" height="260" viewBox="0 0 410 260" aria-label="X-axis for a linear scale with values from 1,998 to 2,010" pointer-events="none"/>
<line transform="translate(-6.15234375, 114.07151677851586) translate(29.0,34.0) translate(0.5,200.5) translate(313,0)" x2="0" y2="5" stroke="#0f223b" stroke-width="1" opacity="1" fill="none" stroke-miterlimit="10" class="mark-rule role-axis-tick" role="graphics-symbol" aria-roledescription="axis" version="1.1" width="410" height="260" viewBox="0 0 410 260" aria-label="X-axis for a linear scale with values from 1,998 to 2,010" pointer-events="none"/>
<line transform="translate(-6.15234375, 114.07151677851586) translate(29.0,34.0) translate(0.5,200.5) translate(344,0)" x2="0" y2="5" stroke="#0f223b" stroke-width="1" opacity="1" fill="none" stroke-miterlimit="10" class="mark-rule role-axis-tick" role="graphics-symbol" aria-roledescription="axis" version="1.1" width="410" height="260" viewBox="0 0 410 260" aria-label="X-axis for a linear scale with values from 1,998 to 2,010" pointer-events="none"/>
<line transform="translate(-6.15234375, 114.07151677851586) translate(29.0,34.0) translate(0.5,200.5) translate(375,0)" x2="0" y2="5" stroke="#0f223b" stroke-width="1" opacity="1" fill="none" stroke-miterlimit="10" class="mark-rule role-axis-tick" role="graphics-symbol" aria-roledescription="axis" version="1.1" width="410" height="260" viewBox="0 0 410 260" aria-label="X-axis for a linear scale with values from 1,998 to 2,010" pointer-events="none"/>
<text text-anchor="start" transform="translate(-6.15234375, 114.07151677851586) translate(29.0,34.0) translate(0.5,200.5) translate(0,19)" font-family="sans-serif" font-size="12px" fill="#000d2a" opacity="1" stroke-miterlimit="10" class="mark-text role-axis-label" role="graphics-symbol" aria-roledescription="axis" version="1.1" width="410" height="260" viewBox="0 0 410 260" aria-label="X-axis for a linear scale with values from 1,998 to 2,010" pointer-events="none" x="0.0" y="0.0">1,998
</text>
<text text-anchor="middle" transform="translate(-6.15234375, 114.07151677851586) translate(29.0,34.0) translate(0.5,200.5) translate(31.25,19)" font-family="sans-serif" font-size="12px" fill="#000d2a" opacity="0" stroke-miterlimit="10" class="mark-text role-axis-label" role="graphics-symbol" aria-roledescription="axis" version="1.1" width="410" height="260" viewBox="0 0 410 260" aria-label="X-axis for a linear scale with values from 1,998 to 2,010" pointer-events="none" x="0.0" y="0.0">1,999
</text>
<text text-anchor="middle" transform="translate(-6.15234375, 114.07151677851586) translate(29.0,34.0) translate(0.5,200.5) translate(62.5,19)" font-family="sans-serif" font-size="12px" fill="#000d2a" opacity="1" stroke-miterlimit="10" class="mark-text role-axis-label" role="graphics-symbol" aria-roledescription="axis" version="1.1" width="410" height="260" viewBox="0 0 410 260" aria-label="X-axis for a linear scale with values from 1,998 to 2,010" pointer-events="none" x="0.0" y="0.0">2,000
</text>
<text text-anchor="middle" transform="translate(-6.15234375, 114.07151677851586) translate(29.0,34.0) translate(0.5,200.5) translate(93.75,19)" font-family="sans-serif" font-size="12px" fill="#000d2a" opacity="0" stroke-miterlimit="10" class="mark-text role-axis-label" role="graphics-symbol" aria-roledescription="axis" version="1.1" width="410" height="260" viewBox="0 0 410 260" aria-label="X-axis for a linear scale with values from 1,998 to 2,010" pointer-events="none" x="0.0" y="0.0">2,001
</text>
<text text-anchor="middle" transform="translate(-6.15234375, 114.07151677851586) translate(29.0,34.0) translate(0.5,200.5) translate(125,19)" font-family="sans-serif" font-size="12px" fill="#000d2a" opacity="1" stroke-miterlimit="10" class="mark-text role-axis-label" role="graphics-symbol" aria-roledescription="axis" version="1.1" width="410" height="260" viewBox="0 0 410 260" aria-label="X-axis for a linear scale with values from 1,998 to 2,010" pointer-events="none" x="0.0" y="0.0">2,002
</text>
<text text-anchor="middle" transform="translate(-6.15234375, 114.07151677851586) translate(29.0,34.0) translate(0.5,200.5) translate(156.25,19)" font-family="sans-serif" font-size="12px" fill="#000d2a" opacity="0" stroke-miterlimit="10" class="mark-text role-axis-label" role="graphics-symbol" aria-roledescription="axis" version="1.1" width="410" height="260" viewBox="0 0 410 260" aria-label="X-axis for a linear scale with values from 1,998 to 2,010" pointer-events="none" x="0.0" y="0.0">2,003
</text>
<text text-anchor="middle" transform="translate(-6.15234375, 114.07151677851586) translate(29.0,34.0) translate(0.5,200.5) translate(187.5,19)" font-family="sans-serif" font-size="12px" fill="#000d2a" opacity="1" stroke-miterlimit="10" class="mark-text role-axis-label" role="graphics-symbol" aria-roledescription="axis" version="1.1" width="410" height="260" viewBox="0 0 410 260" aria-label="X-axis for a linear scale with values from 1,998 to 2,010" pointer-events="none" x="0.0" y="0.0">2,004
</text>
<text text-anchor="middle" transform="translate(-6.15234375, 114.07151677851586) translate(29.0,34.0) translate(0.5,200.5) translate(218.75,19)" font-family="sans-serif" font-size="12px" fill="#000d2a" opacity="0" stroke-miterlimit="10" class="mark-text role-axis-label" role="graphics-symbol" aria-roledescription="axis" version="1.1" width="410" height="260" viewBox="0 0 410 260" aria-label="X-axis for a linear scale with values from 1,998 to 2,010" pointer-events="none" x="0.0" y="0.0">2,005
</text>
<text text-anchor="middle" transform="translate(-6.15234375, 114.07151677851586) translate(29.0,34.0) translate(0.5,200.5) translate(250,19)" font-family="sans-serif" font-size="12px" fill="#000d2a" opacity="1" stroke-miterlimit="10" class="mark-text role-axis-label" role="graphics-symbol" aria-roledescription="axis" version="1.1" width="410" height="260" viewBox="0 0 410 260" aria-label="X-axis for a linear scale with values from 1,998 to 2,010" pointer-events="none" x="0.0" y="0.0">2,006
</text>
<text text-anchor="middle" transform="translate(-6.15234375, 114.07151677851586) translate(29.0,34.0) translate(0.5,200.5) translate(281.25,19)" font-family="sans-serif" font-size="12px" fill="#000d2a" opacity="0" stroke-miterlimit="10" class="mark-text role-axis-label" role="graphics-symbol" aria-roledescription="axis" version="1.1" width="410" height="260" viewBox="0 0 410 260" aria-label="X-axis for a linear scale with values from 1,998 to 2,010" pointer-events="none" x="0.0" y="0.0">2,007
</text>
<text text-anchor="middle" transform="translate(-6.15234375, 114.07151677851586) translate(29.0,34.0) translate(0.5,200.5) translate(312.5,19)" font-family="sans-serif" font-size="12px" fill="#000d2a" opacity="1" stroke-miterlimit="10" class="mark-text role-axis-label" role="graphics-symbol" aria-roledescription="axis" version="1.1" width="410" height="260" viewBox="0 0 410 260" aria-label="X-axis for a linear scale with values from 1,998 to 2,010" pointer-events="none" x="0.0" y="0.0">2,008
</text>
<text text-anchor="middle" transform="translate(-6.15234375, 114.07151677851586) translate(29.0,34.0) translate(0.5,200.5) translate(343.75,19)" font-family="sans-serif" font-size="12px" fill="#000d2a" opacity="0" stroke-miterlimit="10" class="mark-text role-axis-label" role="graphics-symbol" aria-roledescription="axis" version="1.1" width="410" height="260" viewBox="0 0 410 260" aria-label="X-axis for a linear scale with values from 1,998 to 2,010" pointer-events="none" x="0.0" y="0.0">2,009
</text>
<text text-anchor="end" transform="translate(-6.15234375, 114.07151677851586) translate(29.0,34.0) translate(0.5,200.5) translate(375,19)" font-family="sans-serif" font-size="12px" fill="#000d2a" opacity="1" stroke-miterlimit="10" class="mark-text role-axis-label" role="graphics-symbol" aria-roledescription="axis" version="1.1" width="410" height="260" viewBox="0 0 410 260" aria-label="X-axis for a linear scale with values from 1,998 to 2,010" pointer-events="none" x="0.0" y="0.0">2,010
</text>
<line transform="translate(-6.15234375, 114.07151677851586) translate(29.0,34.0) translate(0.5,200.5) translate(0,0)" x2="375" y2="0" stroke="#0f223b" stroke-width="1" opacity="1" fill="none" stroke-miterlimit="10" class="mark-rule role-axis-domain" role="graphics-symbol" aria-roledescription="axis" version="1.1" width="410" height="260" viewBox="0 0 410 260" aria-label="X-axis for a linear scale with values from 1,998 to 2,010" pointer-events="none"/>
<line transform="translate(-6.15234375, 114.07151677851586) translate(29.0,34.0) translate(0.5,0.5) translate(0,200)" x2="-5" y2="0" stroke="#0f223b" stroke-width="1" opacity="1" fill="none" stroke-miterlimit="10" class="mark-rule role-axis-tick" role="graphics-symbol" aria-roledescription="axis" version="1.1" width="410" height="260" viewBox="0 0 410 260" aria-label="Y-axis for a linear scale with values from 0 to 16" pointer-events="none"/>
<line transform="translate(-6.15234375, 114.07151677851586) translate(29.0,34.0) translate(0.5,0.5) translate(0,138)" x2="-5" y2="0" stroke="#0f223b" stroke-width="1" opacity="1" fill="none" stroke-miterlimit="10" class="mark-rule role-axis-tick" role="graphics-symbol" aria-roledescription="axis" version="1.1" width="410" height="260" viewBox="0 0 410 260" aria-label="Y-axis for a linear scale with values from 0 to 16" pointer-events="none"/>
<line transform="translate(-6.15234375, 114.07151677851586) translate(29.0,34.0) translate(0.5,0.5) translate(0,75)" x2="-5" y2="0" stroke="#0f223b" stroke-width="1" opacity="1" fill="none" stroke-miterlimit="10" class="mark-rule role-axis-tick" role="graphics-symbol" aria-roledescription="axis" version="1.1" width="410" height="260" viewBox="0 0 410 260" aria-label="Y-axis for a linear scale with values from 0 to 16" pointer-events="none"/>
<line transform="translate(-6.15234375, 114.07151677851586) translate(29.0,34.0) translate(0.5,0.5) translate(0,13)" x2="-5" y2="0" stroke="#0f223b" stroke-width="1" opacity="1" fill="none" stroke-miterlimit="10" class="mark-rule role-axis-tick" role="graphics-symbol" aria-roledescription="axis" version="1.1" width="410" height="260" viewBox="0 0 410 260" aria-label="Y-axis for a linear scale with values from 0 to 16" pointer-events="none"/>
<text text-anchor="end" transform="translate(-6.15234375, 114.07151677851586) translate(29.0,34.0) translate(0.5,0.5) translate(-10,204)" font-family="sans-serif" font-size="12px" fill="#000d2a" opacity="1" stroke-miterlimit="10" class="mark-text role-axis-label" role="graphics-symbol" aria-roledescription="axis" version="1.1" width="410" height="260" viewBox="0 0 410 260" aria-label="Y-axis for a linear scale with values from 0 to 16" pointer-events="none">0
</text>
<text text-anchor="end" transform="translate(-6.15234375, 114.07151677851586) translate(29.0,34.0) translate(0.5,0.5) translate(-10,141.5)" font-family="sans-serif" font-size="12px" fill="#000d2a" opacity="1" stroke-miterlimit="10" class="mark-text role-axis-label" role="graphics-symbol" aria-roledescription="axis" version="1.1" width="410" height="260" viewBox="0 0 410 260" aria-label="Y-axis for a linear scale with values from 0 to 16" pointer-events="none">5
</text>
<text text-anchor="end" transform="translate(-6.15234375, 114.07151677851586) translate(29.0,34.0) translate(0.5,0.5) translate(-10,79)" font-family="sans-serif" font-size="12px" fill="#000d2a" opacity="1" stroke-miterlimit="10" class="mark-text role-axis-label" role="graphics-symbol" aria-roledescription="axis" version="1.1" width="410" height="260" viewBox="0 0 410 260" aria-label="Y-axis for a linear scale with values from 0 to 16" pointer-events="none">10
</text>
<text text-anchor="end" transform="translate(-6.15234375, 114.07151677851586) translate(29.0,34.0) translate(0.5,0.5) translate(-10,16.5)" font-family="sans-serif" font-size="12px" fill="#000d2a" opacity="1" stroke-miterlimit="10" class="mark-text role-axis-label" role="graphics-symbol" aria-roledescription="axis" version="1.1" width="410" height="260" viewBox="0 0 410 260" aria-label="Y-axis for a linear scale with values from 0 to 16" pointer-events="none">15
</text>
<line transform="translate(-6.15234375, 114.07151677851586) translate(29.0,34.0) translate(0.5,0.5) translate(0,200)" x2="0" y2="-200" stroke="#0f223b" stroke-width="1" opacity="1" fill="none" stroke-miterlimit="10" class="mark-rule role-axis-domain" role="graphics-symbol" aria-roledescription="axis" version="1.1" width="410" height="260" viewBox="0 0 410 260" aria-label="Y-axis for a linear scale with values from 0 to 16" pointer-events="none"/>
<path aria-label="xlabel: 1998; ylabel: 11.8; group: Precent" role="graphics-symbol" aria-roledescription="area mark" d="M0,52.5L31.25,73.75L62.5,68.75L93.75,66.25L125,61.25L156.25,60L187.5,51.25L218.75,62.5L250,63.75L281.25,61.25L312.5,17.5L343.75,16.25L375,18.75L375,200L343.75,200L312.5,200L281.25,200L250,200L218.75,200L187.5,200L156.25,200L125,200L93.75,200L62.5,200L31.25,200L0,200Z" fill="#544258" opacity="0.7" stroke-miterlimit="10" class="mark-area role-mark marks" version="1.1" width="410" height="260" viewBox="0 0 410 260" transform="translate(-6.15234375, 114.07151677851586) translate(29.0,34.0) translate(0,0)"/></g></svg>